<svg width="37" height="32" viewBox="0 0 37 32" fill="none" xmlns="http://www.w3.org/2000/svg">
<path d="M28.251 15.3828H35.8208V16.8968C35.8208 16.8968 33.5499 17.525 33.5499 19.1677V22.1956C33.5499 23.8017 32.9118 25.342 31.7762 26.4777C30.6405 27.6133 29.1002 28.2514 27.4941 28.2514H9.32671C7.72061 28.2514 6.18029 27.6133 5.04461 26.4777C3.90893 25.342 3.27092 23.8017 3.27092 22.1956V19.1677C3.27092 17.525 1 16.8968 1 16.8968V15.3828H20.6813" stroke="#E6EDED" stroke-width="1.04462" stroke-miterlimit="10"/>
<path d="M28.252 28.2505L29.0089 30.5214V31.2784" stroke="#E6EDED" stroke-width="1.04462" stroke-miterlimit="10"/>
<path d="M8.56947 28.2505L7.8125 30.5214V31.2784" stroke="#E6EDED" stroke-width="1.04462" stroke-miterlimit="10"/>
<path d="M10.8425 5.54102H12.3565H13.8704" stroke="#E6EDED" stroke-width="1.04462" stroke-miterlimit="10"/>
<path d="M12.3555 5.54184V4.02789C12.3555 3.22485 12.0365 2.45469 11.4686 1.88685C10.9008 1.31901 10.1306 1 9.32759 1H8.57062C7.76757 1 6.99741 1.31901 6.42957 1.88685C5.86173 2.45469 5.54272 3.22485 5.54272 4.02789V15.3825" stroke="#E6EDED" stroke-width="1.04462" stroke-miterlimit="10"/>
<path d="M21.4391 13.8687H27.4949C27.6957 13.8687 27.8882 13.9484 28.0301 14.0904C28.1721 14.2323 28.2519 14.4249 28.2519 14.6256V21.4384H20.6821V14.6256C20.6821 14.4249 20.7619 14.2323 20.9038 14.0904C21.0458 13.9484 21.2383 13.8687 21.4391 13.8687Z" stroke="#E6EDED" stroke-width="1.04462" stroke-miterlimit="10"/>
<path d="M10.8425 7.81299V9.32693" stroke="#E6EDED" stroke-width="1.04462" stroke-miterlimit="10"/>
<path d="M13.8687 7.81299V9.32693" stroke="#E6EDED" stroke-width="1.04462" stroke-miterlimit="10"/>
<path d="M12.3552 10.8403V12.3543" stroke="#E6EDED" stroke-width="1.04462" stroke-miterlimit="10"/>
<path d="M9.32715 10.8403V12.3543" stroke="#E6EDED" stroke-width="1.04462" stroke-miterlimit="10"/>
<path d="M15.3823 10.8403V12.3543" stroke="#E6EDED" stroke-width="1.04462" stroke-miterlimit="10"/>
</svg>
