<svg width="287" height="300" viewBox="0 0 287 300" fill="none" xmlns="http://www.w3.org/2000/svg">
<path d="M0.000280436 11.8538L24.9172 26.1809L24.9172 75.0169L0.000287098 89.3441L0.000287265 91.2809L25.7832 76.4557L67.396 100.39L25.3386 124.583C25.21 124.656 25.1033 124.759 25.0294 124.884C24.9555 125.008 24.9168 125.149 24.9172 125.292L24.9172 173.63L0.000293113 159.303L0.00029328 161.24L24.0974 175.074L0.000295658 188.909L0.000295825 190.846L24.9172 176.518L24.9172 224.43L0.000299944 238.757L0.000300111 240.694L25.7832 225.869L67.3961 249.803L25.3387 273.997C25.21 274.069 25.1034 274.173 25.0294 274.297C24.9555 274.421 24.9168 274.562 24.9172 274.705L24.9172 299.607L26.6492 299.607L26.6492 275.203L69.0818 250.799L110.695 274.733L68.6373 298.927L67.4422 299.607L70.808 299.607L111.515 276.199L111.515 299.607L113.246 299.607L113.246 276.199L153.947 299.607L156.539 299.607C156.535 299.47 156.494 299.335 156.422 299.216C156.349 299.097 156.247 298.998 156.124 298.927L114.06 274.733L156.124 250.545L199.422 225.642C199.551 225.568 199.657 225.463 199.731 225.338C199.804 225.213 199.843 225.072 199.844 224.928L199.844 176.59L241.832 200.74C242.026 200.843 242.254 200.871 242.469 200.817C242.684 200.764 242.869 200.633 242.986 200.452C243.045 200.359 243.084 200.256 243.101 200.149C243.118 200.041 243.113 199.932 243.085 199.826C243.058 199.721 243.009 199.622 242.942 199.534C242.874 199.447 242.789 199.374 242.692 199.318L200.629 175.124L242.692 150.936L285.991 126.033C286.119 125.959 286.225 125.854 286.299 125.729C286.373 125.604 286.412 125.463 286.412 125.319L286.412 75.515C286.412 75.2948 286.321 75.0837 286.158 74.928C285.996 74.7724 285.776 74.6849 285.546 74.6849C285.316 74.6849 285.096 74.7724 284.934 74.928C284.771 75.0837 284.68 75.2948 284.68 75.515L284.68 124.821L242.247 149.226L199.815 124.821L199.815 76.9538L241.803 101.103C241.997 101.206 242.225 101.234 242.44 101.181C242.655 101.127 242.84 100.996 242.958 100.816C243.067 100.63 243.098 100.412 243.043 100.205C242.988 99.9992 242.852 99.8212 242.663 99.7089L200.6 75.515L242.721 51.3266C242.818 51.2703 242.903 51.1962 242.971 51.1084C243.038 51.0206 243.087 50.921 243.115 50.8151C243.142 50.7092 243.147 50.5992 243.13 50.4914C243.113 50.3835 243.074 50.28 243.015 50.1866C242.939 50.064 242.831 49.9624 242.701 49.8917C242.572 49.8209 242.425 49.7833 242.276 49.7827C242.12 49.7825 241.966 49.8226 241.832 49.8989L198.533 74.8011L155.685 99.4433L114.066 75.5095L156.124 51.3266C156.221 51.2703 156.306 51.1962 156.374 51.1084C156.441 51.0207 156.49 50.921 156.517 50.8151C156.545 50.7092 156.55 50.5992 156.533 50.4914C156.516 50.3836 156.477 50.28 156.418 50.1866C156.342 50.0641 156.233 49.9624 156.104 49.8917C155.974 49.8209 155.828 49.7834 155.679 49.7827C155.522 49.7818 155.368 49.8241 155.235 49.9044L113.246 74.0485L113.246 25.7105C113.246 25.5676 113.207 25.4271 113.133 25.3029C113.06 25.1787 112.953 25.0751 112.825 25.0022L69.5263 0.0999338C69.4706 0.071644 69.4128 0.0475962 69.3531 0.0280039L69.3127 0.0280039C69.2449 0.0102732 69.1751 0.000995874 69.1049 0.000324493C69.0346 0.000599158 68.9647 0.00990703 68.897 0.028004L68.8624 0.028004C68.8086 0.0434764 68.7564 0.0638621 68.7065 0.088856L68.6661 0.088856C68.6123 0.120869 68.562 0.157948 68.516 0.199543C68.4674 0.246205 68.4248 0.298237 68.389 0.354512L68.389 0.393238C68.3713 0.423512 68.3559 0.454945 68.3428 0.487324C68.3396 0.511189 68.3396 0.535389 68.3428 0.559254C68.3428 0.586933 68.3428 0.614582 68.3428 0.642262C68.34 0.671711 68.34 0.701344 68.3428 0.730793C68.34 0.747303 68.34 0.764088 68.3428 0.780598L68.3428 50.5851C68.342 50.729 68.3805 50.8706 68.4544 50.9958C68.5283 51.1211 68.6352 51.2256 68.7643 51.299L110.822 75.4873L69.2088 99.4211L26.7762 75.0169L26.7762 25.7105C26.7762 25.7105 26.7762 25.6441 26.7762 25.6164C26.7762 25.5888 26.7762 25.5666 26.7762 25.5445C26.7691 25.5161 26.7595 25.4883 26.7473 25.4615C26.7473 25.4615 26.7473 25.4172 26.7473 25.3895L26.7011 25.3176C26.6898 25.2943 26.6762 25.2721 26.6607 25.2512C26.6451 25.2296 26.6277 25.2092 26.6087 25.1903L26.551 25.1295L26.4933 25.0852L26.4182 25.0298L0.190771 9.94464L0.000280436 11.8538ZM198.112 224.43L156.545 248.337L156.545 200.469L198.112 176.563L198.112 224.43ZM198.978 126.26L240.591 150.194L198.978 174.128L157.359 150.194L198.978 126.26ZM156.545 100.86L198.112 76.9538L198.112 124.821L156.545 148.728L156.545 100.86ZM197.292 175.124L155.679 199.058L114.06 175.124L155.679 151.19L197.292 175.124ZM113.246 76.9814L154.813 100.888L154.813 148.755L113.246 124.849L113.246 76.9814ZM113.246 126.786L153.993 150.222L113.246 173.657L113.246 126.786ZM113.246 176.59L154.813 200.497L154.813 248.364L113.246 224.458L113.246 176.59ZM153.993 249.831L112.38 273.764L70.7618 249.831L112.38 225.897L153.993 249.831ZM69.9478 248.364L69.9478 200.497L111.515 176.59L111.515 224.43L69.9478 248.364ZM69.9478 50.1424L69.9478 2.27474L111.514 26.1809L111.514 74.0485L69.9478 50.1424ZM111.514 76.9814L111.514 123.853L70.7618 100.417L111.514 76.9814ZM69.9478 101.884L111.514 125.79L111.515 173.657L69.9478 149.751L69.9478 101.884ZM110.695 175.124L68.6373 199.318C68.5086 199.39 68.402 199.494 68.3281 199.618C68.2541 199.742 68.2155 199.883 68.2159 200.026L68.2159 248.364L26.6492 224.458L26.6492 175.594L69.0818 151.19L110.695 175.124ZM68.2159 149.724L26.6492 173.63L26.6492 125.762L68.2159 101.856L68.2159 149.724Z" fill="#819EA1" fill-opacity="0.2"/>
</svg>
