<svg width="48" height="42" viewBox="0 0 48 42" fill="none" xmlns="http://www.w3.org/2000/svg">
<path d="M12.2086 5.67958H35.716C35.8698 5.67958 36.0173 5.61848 36.1261 5.50971C36.2349 5.40094 36.296 5.25341 36.296 5.09958V0.859785C36.296 0.70596 36.2349 0.558434 36.1261 0.449663C36.0173 0.340892 35.8698 0.279785 35.716 0.279785H12.2086C12.0547 0.279785 11.9072 0.340892 11.7984 0.449663C11.6897 0.558434 11.6286 0.70596 11.6286 0.859785V5.10538C11.6301 5.2582 11.6919 5.40424 11.8005 5.51176C11.9091 5.61928 12.0557 5.67959 12.2086 5.67958ZM12.7886 1.43398H35.1476V4.54859H12.777L12.7886 1.43398ZM47.229 39.946H40.24V37.6782C40.5903 37.6635 40.9325 37.5678 41.2396 37.3986C41.5467 37.2293 41.8103 36.9912 42.0099 36.7028C42.2094 36.4145 42.3394 36.0838 42.3895 35.7368C42.4397 35.3898 42.4087 35.0358 42.299 34.7028L40.7504 30.0628C40.6639 29.8482 40.5153 29.6644 40.3235 29.535C40.1318 29.4056 39.9058 29.3364 39.6745 29.3364C39.4432 29.3364 39.2171 29.4056 39.0254 29.535C38.8337 29.6644 38.685 29.8482 38.5986 30.0628L37.05 34.7028C36.9403 35.0358 36.9093 35.3898 36.9594 35.7368C37.0096 36.0838 37.1395 36.4145 37.3391 36.7028C37.5386 36.9912 37.8023 37.2293 38.1094 37.3986C38.4165 37.5678 38.7586 37.6635 39.109 37.6782V39.946H34.5792V27.2672H35.4318V26.1072H34.5792V21.6064H35.4318V20.4464H34.5792V15.9398H35.4318V14.7798H34.5792V10.279H35.4318V9.11899H34.5792V6.79899H33.4482V39.946H29.104V33.7168C29.104 33.563 29.0429 33.4154 28.9341 33.3067C28.8253 33.1979 28.6778 33.1368 28.524 33.1368H19.476C19.3221 33.1368 19.1746 33.1979 19.0658 33.3067C18.9571 33.4154 18.896 33.563 18.896 33.7168V39.946H14.4764V6.81059H13.3164V9.13058H12.4928V10.2906H13.3396V14.8204H12.4928V15.9804H13.3396V20.5102H12.4928V21.6702H13.3396V26.2H12.4928V27.36H13.3396V39.946H8.80977V37.6782C9.16011 37.6635 9.50227 37.5678 9.80937 37.3986C10.1165 37.2293 10.3801 36.9912 10.5797 36.7028C10.7792 36.4145 10.9092 36.0838 10.9593 35.7368C11.0095 35.3898 10.9785 35.0358 10.8688 34.7028L9.32017 30.0628C9.2337 29.8482 9.08506 29.6644 8.89334 29.535C8.70162 29.4056 8.47559 29.3364 8.24427 29.3364C8.01295 29.3364 7.78692 29.4056 7.5952 29.535C7.40348 29.6644 7.25484 29.8482 7.16837 30.0628L5.61977 34.7028C5.51006 35.0358 5.47906 35.3898 5.52922 35.7368C5.57939 36.0838 5.70934 36.4145 5.90887 36.7028C6.1084 36.9912 6.37207 37.2293 6.67917 37.3986C6.98627 37.5678 7.32844 37.6635 7.67877 37.6782V39.946H0.799971C0.646145 39.946 0.49862 40.0071 0.389849 40.1159C0.281078 40.2246 0.219971 40.3722 0.219971 40.526C0.219971 40.6798 0.281078 40.8273 0.389849 40.9361C0.49862 41.0449 0.646145 41.106 0.799971 41.106H47.229C47.3828 41.106 47.5303 41.0449 47.6391 40.9361C47.7479 40.8273 47.809 40.6798 47.809 40.526C47.809 40.3722 47.7479 40.2246 47.6391 40.1159C47.5303 40.0071 47.3828 39.946 47.229 39.946ZM38.2854 36.0774C38.1833 35.9348 38.1161 35.7703 38.0889 35.5971C38.0617 35.4239 38.0753 35.2468 38.1288 35.0798L39.66 30.4398L41.2086 35.0798C41.267 35.2499 41.2838 35.4316 41.2575 35.6096C41.2312 35.7875 41.1627 35.9566 41.0576 36.1026C40.9525 36.2486 40.8139 36.3673 40.6535 36.4487C40.4931 36.53 40.3155 36.5718 40.1356 36.5704H39.2018C39.0204 36.569 38.8422 36.5234 38.6824 36.4375C38.5227 36.3516 38.3864 36.228 38.2854 36.0774ZM6.84937 36.0774C6.74735 35.9348 6.68006 35.7703 6.65287 35.5971C6.62569 35.4239 6.63935 35.2468 6.69277 35.0798L8.24137 30.4398L9.78997 35.0798C9.85005 35.2493 9.86772 35.431 9.84143 35.6089C9.81515 35.7869 9.7457 35.9557 9.63917 36.1006C9.53461 36.2473 9.39618 36.3667 9.23563 36.4485C9.07507 36.5303 8.89715 36.5721 8.71697 36.5704H7.75997C7.57961 36.5681 7.4025 36.522 7.24388 36.4362C7.08526 36.3503 6.94988 36.2272 6.84937 36.0774ZM24.58 39.946V35.4162H23.42V39.946H20.0444V34.2852H27.973V39.946H24.58Z" fill="url(#paint0_linear_1427_11814)"/>
<path d="M29.7652 9.71086C29.7652 9.55703 29.7041 9.40951 29.5953 9.30074C29.4865 9.19197 29.339 9.13086 29.1852 9.13086H18.722C18.5681 9.13086 18.4206 9.19197 18.3118 9.30074C18.2031 9.40951 18.142 9.55703 18.142 9.71086V11.9787H19.302V10.2793H23.42V11.9787H24.551V10.2793H28.64V11.9787H29.771L29.7652 9.71086ZM29.7652 15.3601C29.7652 15.2062 29.7041 15.0587 29.5953 14.9499C29.4865 14.8412 29.339 14.7801 29.1852 14.7801H18.722C18.5681 14.7801 18.4206 14.8412 18.3118 14.9499C18.2031 15.0587 18.142 15.2062 18.142 15.3601V17.6221H19.302V15.9401H23.42V17.6395H24.551V15.9401H28.64V17.6395H29.771L29.7652 15.3601ZM29.7652 21.0383C29.7652 20.8844 29.7041 20.7369 29.5953 20.6281C29.4865 20.5194 29.339 20.4583 29.1852 20.4583H18.722C18.5681 20.4583 18.4206 20.5194 18.3118 20.6281C18.2031 20.7369 18.142 20.8844 18.142 21.0383V23.3061H19.302V21.6067H23.42V23.3061H24.551V21.6067H28.64V23.3061H29.771L29.7652 21.0383ZM29.7652 28.9669V26.7049C29.7652 26.551 29.7041 26.4035 29.5953 26.2947C29.4865 26.186 29.339 26.1249 29.1852 26.1249H18.722C18.5681 26.1249 18.4206 26.186 18.3118 26.2947C18.2031 26.4035 18.142 26.551 18.142 26.7049V28.9669H19.302V27.2675H23.42V28.9669H24.551V27.2675H28.64V28.9669H29.7652Z" fill="url(#paint1_linear_1427_11814)"/>
<defs>
<linearGradient id="paint0_linear_1427_11814" x1="0.219971" y1="1.01787" x2="51.1722" y2="9.24535" gradientUnits="userSpaceOnUse">
<stop offset="0.158241" stop-color="#002D31"/>
<stop offset="0.32869" stop-color="#005961"/>
<stop offset="0.509791" stop-color="#00818C"/>
<stop offset="0.786145" stop-color="#005961"/>
<stop offset="0.988044" stop-color="#002D31"/>
</linearGradient>
<linearGradient id="paint1_linear_1427_11814" x1="18.142" y1="9.48947" x2="30.8338" y2="10.5202" gradientUnits="userSpaceOnUse">
<stop offset="0.158241" stop-color="#002D31"/>
<stop offset="0.32869" stop-color="#005961"/>
<stop offset="0.509791" stop-color="#00818C"/>
<stop offset="0.786145" stop-color="#005961"/>
<stop offset="0.988044" stop-color="#002D31"/>
</linearGradient>
</defs>
</svg>
