<svg width="48" height="51" viewBox="0 0 48 51" fill="none" xmlns="http://www.w3.org/2000/svg">
<path d="M46.7837 21.0126H1.58557M46.7837 27.1332V18.0747C46.7837 13.9617 46.7837 11.9052 45.9626 10.3334C45.2404 8.9515 44.0881 7.82795 42.6707 7.1238C41.0586 6.32323 38.9494 6.32323 34.7309 6.32323H13.6384C9.41992 6.32323 7.31067 6.32323 5.6986 7.1238C4.28124 7.82795 3.12888 8.9515 2.40667 10.3334C1.58557 11.9052 1.58557 13.9617 1.58557 18.0747V38.6399C1.58557 42.7529 1.58557 44.8095 2.40667 46.3812C3.12888 47.7632 4.28124 48.8867 5.6986 49.5909C7.31067 50.3914 9.41992 50.3914 13.6384 50.3914H24.1847M34.2287 1.42676V11.2197M14.1406 1.42676V11.2197M30.4622 43.0467L35.4842 47.9432L46.7837 36.9261" stroke="url(#paint0_linear_1360_10476)" stroke-width="1.18914" stroke-linecap="round" stroke-linejoin="round"/>
<defs>
<linearGradient id="paint0_linear_1360_10476" x1="1.58557" y1="2.31198" x2="50.441" y2="8.55919" gradientUnits="userSpaceOnUse">
<stop offset="0.158241" stop-color="#002D31"/>
<stop offset="0.32869" stop-color="#005961"/>
<stop offset="0.509791" stop-color="#00818C"/>
<stop offset="0.786145" stop-color="#005961"/>
<stop offset="0.988044" stop-color="#002D31"/>
</linearGradient>
</defs>
</svg>
