<svg width="20" height="20" viewBox="0 0 20 20" fill="none" xmlns="http://www.w3.org/2000/svg">
<path d="M12.7414 12.4647C13.164 12.6056 13.6209 12.3772 13.7617 11.9545C13.9026 11.5319 13.6742 11.0751 13.2516 10.9342L12.7414 12.4647ZM10.0925 10.7314H9.28584C9.28584 11.0787 9.50802 11.3869 9.83741 11.4967L10.0925 10.7314ZM10.8992 6.68384C10.8992 6.23834 10.538 5.87718 10.0925 5.87718C9.64699 5.87718 9.28584 6.23834 9.28584 6.68384H10.8992ZM13.2516 10.9342L10.3476 9.96618L9.83741 11.4967L12.7414 12.4647L13.2516 10.9342ZM10.8992 10.7314V6.68384H9.28584V10.7314H10.8992ZM17.0298 9.76346C17.0298 13.5948 13.9238 16.7007 10.0925 16.7007V18.314C14.8149 18.314 18.6431 14.4858 18.6431 9.76346H17.0298ZM10.0925 16.7007C6.26115 16.7007 3.15523 13.5948 3.15523 9.76346H1.54191C1.54191 14.4858 5.37014 18.314 10.0925 18.314V16.7007ZM3.15523 9.76346C3.15523 5.93211 6.26115 2.82619 10.0925 2.82619V1.21287C5.37014 1.21287 1.54191 5.0411 1.54191 9.76346H3.15523ZM10.0925 2.82619C13.9238 2.82619 17.0298 5.93211 17.0298 9.76346H18.6431C18.6431 5.0411 14.8149 1.21287 10.0925 1.21287V2.82619Z" fill="url(#paint0_linear_691_19851)"/>
<defs>
<linearGradient id="paint0_linear_691_19851" x1="2.34857" y1="2.29953" x2="19.043" y2="4.61217" gradientUnits="userSpaceOnUse">
<stop offset="0.158241" stop-color="#002D31"/>
<stop offset="0.32869" stop-color="#005961"/>
<stop offset="0.509791" stop-color="#00818C"/>
<stop offset="0.786145" stop-color="#005961"/>
<stop offset="0.988044" stop-color="#002D31"/>
</linearGradient>
</defs>
</svg>
