<svg width="44" height="44" viewBox="0 0 44 44" fill="none" xmlns="http://www.w3.org/2000/svg">
<path d="M42.5706 38.9999V36.857C42.5706 36.6676 42.4953 36.4859 42.3614 36.352C42.2274 36.218 42.0457 36.1428 41.8563 36.1428H36.142C35.9526 36.1428 35.7709 36.218 35.6369 36.352C35.503 36.4859 35.4277 36.6676 35.4277 36.857V38.9999C35.2383 38.9999 35.0566 39.0752 34.9227 39.2091C34.7887 39.3431 34.7134 39.5247 34.7134 39.7142V41.857H33.2849V30.4285H34.7134C34.9029 30.4285 35.0846 30.3532 35.2185 30.2193C35.3525 30.0853 35.4277 29.9036 35.4277 29.7142V27.5713C35.4277 27.3819 35.3525 27.2002 35.2185 27.0662C35.0846 26.9323 34.9029 26.857 34.7134 26.857H33.2849V23.9999H34.7134C34.9029 23.9999 35.0846 23.9246 35.2185 23.7907C35.3525 23.6567 35.4277 23.4751 35.4277 23.2856V21.1428C35.4277 20.9533 35.3525 20.7716 35.2185 20.6377C35.0846 20.5037 34.9029 20.4285 34.7134 20.4285H33.2849V18.2856C33.2849 18.0962 33.2096 17.9145 33.0757 17.7805C32.9417 17.6466 32.76 17.5713 32.5706 17.5713H29.7134C29.524 17.5713 29.3423 17.6466 29.2084 17.7805C29.0744 17.9145 28.9992 18.0962 28.9992 18.2856V20.4285H26.142V18.2856C26.142 18.0962 26.0668 17.9145 25.9328 17.7805C25.7989 17.6466 25.6172 17.5713 25.4277 17.5713H22.5706C22.3812 17.5713 22.1995 17.6466 22.0655 17.7805C21.9316 17.9145 21.8563 18.0962 21.8563 18.2856V20.4285H18.9992V18.2856C18.9992 18.0962 18.9239 17.9145 18.79 17.7805C18.656 17.6466 18.4743 17.5713 18.2849 17.5713H15.4277C15.2383 17.5713 15.0566 17.6466 14.9227 17.7805C14.7887 17.9145 14.7134 18.0962 14.7134 18.2856V20.4285H13.2849C13.0954 20.4285 12.9138 20.5037 12.7798 20.6377C12.6458 20.7716 12.5706 20.9533 12.5706 21.1428V23.2856C12.5706 23.4751 12.6458 23.6567 12.7798 23.7907C12.9138 23.9246 13.0954 23.9999 13.2849 23.9999H14.7134V26.857H13.2849C13.0954 26.857 12.9138 26.9323 12.7798 27.0662C12.6458 27.2002 12.5706 27.3819 12.5706 27.5713V29.7142C12.5706 29.9036 12.6458 30.0853 12.7798 30.2193C12.9138 30.3532 13.0954 30.4285 13.2849 30.4285H14.7134V41.857H13.2849V35.4285C13.2849 35.3347 13.2664 35.2418 13.2305 35.1551C13.1946 35.0685 13.142 34.9897 13.0757 34.9234L10.4277 32.2754V9.71418H11.142C11.3315 9.71418 11.5131 9.63893 11.6471 9.50497C11.7811 9.37102 11.8563 9.18934 11.8563 8.9999H23.2849V9.98704L19.5448 11.857H18.2849C18.0954 11.857 17.9138 11.9323 17.7798 12.0662C17.6458 12.2002 17.5706 12.3819 17.5706 12.5713V15.4285C17.5706 15.6179 17.6458 15.7996 17.7798 15.9335C17.9138 16.0675 18.0954 16.1428 18.2849 16.1428H29.7134C29.9029 16.1428 30.0846 16.0675 30.2185 15.9335C30.3525 15.7996 30.4277 15.6179 30.4277 15.4285V12.5713C30.4277 12.3819 30.3525 12.2002 30.2185 12.0662C30.0846 11.9323 29.9029 11.857 29.7134 11.857H28.4535L24.7134 9.98704V8.9999H25.4277C25.6172 8.9999 25.7989 8.92464 25.9328 8.79069C26.0668 8.65673 26.142 8.47505 26.142 8.28561V5.42847C26.142 5.23903 26.0668 5.05735 25.9328 4.92339C25.7989 4.78944 25.6172 4.71418 25.4277 4.71418H24.1042L9.92773 0.461145L9.92354 0.459895L9.91898 0.458556C9.85231 0.438565 9.78306 0.428428 9.71345 0.428467H6.85631C6.68589 0.42841 6.52113 0.489563 6.39202 0.600788L1.59211 4.71418H1.14202C0.95258 4.71418 0.770898 4.78944 0.636944 4.92339C0.502989 5.05735 0.427734 5.23903 0.427734 5.42847V8.28561C0.427734 8.47505 0.502989 8.65673 0.636944 8.79069C0.770898 8.92464 0.95258 8.9999 1.14202 8.9999H4.71345C4.71345 9.18934 4.7887 9.37102 4.92266 9.50497C5.05661 9.63893 5.23829 9.71418 5.42773 9.71418H6.14202V32.2754L3.49407 34.9234C3.42775 34.9897 3.37513 35.0685 3.33924 35.1551C3.30335 35.2418 3.28487 35.3347 3.28488 35.4285V41.857H0.427734V43.2856H42.5706C42.76 43.2856 42.9417 43.2104 43.0757 43.0764C43.2096 42.9424 43.2849 42.7608 43.2849 42.5713V39.7142C43.2849 39.5247 43.2096 39.3431 43.0757 39.2091C42.9417 39.0752 42.76 38.9999 42.5706 38.9999ZM28.9992 14.7142H18.9992V13.2856H28.9992V14.7142ZM22.7393 11.857L23.9992 11.227L25.2591 11.857H22.7393ZM36.8563 37.5713H41.142V38.9999H36.8563V37.5713ZM33.9992 28.2856V28.9999H33.2849V28.2856H33.9992ZM33.9992 21.857V22.5713H33.2849V21.857H33.9992ZM30.4277 18.9999H31.8563V39.7142H30.4277V18.9999ZM18.9992 35.4285V34.7142H28.9992V35.4285H18.9992ZM28.9992 28.2856V28.9999H18.9992V28.2856H28.9992ZM28.9992 33.2856H26.142V30.4285H28.9992V33.2856ZM24.7134 30.4285V33.2856H23.2849V30.4285H24.7134ZM18.9992 30.4285H21.8563V33.2856H18.9992V30.4285ZM28.9992 26.857H26.142V23.9999H28.9992V26.857ZM24.7134 26.857H23.2849V23.9999H24.7134V26.857ZM21.8563 26.857H18.9992V23.9999H21.8563V26.857ZM18.9992 36.857H21.8563V39.7142H18.9992V36.857ZM23.2849 36.857H24.7134V39.7142H23.2849V36.857ZM26.142 36.857H28.9992V39.7142H26.142V36.857ZM23.2849 18.9999H24.7134V20.4285H23.2849V18.9999ZM28.9992 21.857V22.5713H18.9992V21.857H28.9992ZM16.142 18.9999H17.5706V39.7142H16.142V18.9999ZM13.9992 22.5713V21.857H14.7134V22.5713H13.9992ZM13.9992 28.9999V28.2856H14.7134V28.9999H13.9992ZM11.8563 35.7243V38.9999H10.4277V34.2957L11.8563 35.7243ZM7.86648 38.9999L8.99916 37.8672V38.9999H7.86648ZM7.57059 12.1529L8.70336 13.2856L7.57059 14.4183V12.1529ZM8.99916 32.5713V34.4183L7.86648 33.2856L8.99916 32.1529V32.5713ZM7.57059 31.5611V29.2958L8.70336 30.4285L7.57059 31.5611ZM7.86648 27.5713L8.99916 26.4386V28.704L7.86648 27.5713ZM8.99916 15.0101V17.2754L7.86648 16.1428L8.99916 15.0101ZM7.57059 17.8672L8.70336 18.9999L7.57059 20.1326V17.8672ZM8.99916 20.7244V22.9897L7.86648 21.857L8.99916 20.7244ZM7.57059 23.5815L8.70336 24.7142L7.57059 25.8469V23.5815ZM7.57059 35.0101L8.70336 36.1428L7.57059 37.2754V35.0101ZM6.14202 8.28561V5.42847H10.4277V8.28561H6.14202ZM2.98898 6.14275L1.85631 7.27543V6.14275H2.98898ZM11.8563 6.14275H13.7033L12.2747 7.57132H11.8563V6.14275ZM18.2849 7.27543L17.1522 6.14275H19.4176L18.2849 7.27543ZM21.142 6.43856L22.2747 7.57132H20.0093L21.142 6.43856ZM16.5604 7.57132H14.2951L15.4277 6.43856L16.5604 7.57132ZM24.7134 7.57132H24.2951L22.8665 6.14275H24.7134V7.57132ZM11.8563 4.71418C11.8563 4.52474 11.7811 4.34306 11.6471 4.20911C11.5131 4.07515 11.3315 3.9999 11.142 3.9999H10.4277V2.10284L19.1323 4.71418H11.8563ZM7.57059 1.85704H8.99916V3.9999H7.57059V1.85704ZM6.14202 2.69579V3.9999H5.42773C5.23829 3.9999 5.05661 4.07515 4.92266 4.20911C4.7887 4.34306 4.71345 4.52474 4.71345 4.71418H3.7872L6.14202 2.69579ZM3.58077 7.57132L4.71345 6.43865V7.57132H3.58077ZM8.99916 9.71418V11.5611L7.57059 10.1326V9.71418H8.99916ZM4.71345 35.7243L6.14202 34.2957V38.9999H4.71345V35.7243ZM4.71345 41.857V40.4285H11.8563V41.857H4.71345ZM16.142 41.857V41.1428H17.5706V41.857H16.142ZM18.9992 41.857V41.1428H28.9992V41.857H18.9992ZM30.4277 41.857V41.1428H31.8563V41.857H30.4277ZM36.142 41.857V40.4285H41.8563V41.857H36.142Z" fill="url(#paint0_linear_1415_8706)"/>
<path d="M42.5706 38.9999V36.857C42.5706 36.6676 42.4953 36.4859 42.3614 36.352C42.2274 36.218 42.0457 36.1428 41.8563 36.1428H36.142C35.9526 36.1428 35.7709 36.218 35.6369 36.352C35.503 36.4859 35.4277 36.6676 35.4277 36.857V38.9999C35.2383 38.9999 35.0566 39.0752 34.9227 39.2091C34.7887 39.3431 34.7134 39.5247 34.7134 39.7142V41.857H33.2849V30.4285H34.7134C34.9029 30.4285 35.0846 30.3532 35.2185 30.2193C35.3525 30.0853 35.4277 29.9036 35.4277 29.7142V27.5713C35.4277 27.3819 35.3525 27.2002 35.2185 27.0662C35.0846 26.9323 34.9029 26.857 34.7134 26.857H33.2849V23.9999H34.7134C34.9029 23.9999 35.0846 23.9246 35.2185 23.7907C35.3525 23.6567 35.4277 23.4751 35.4277 23.2856V21.1428C35.4277 20.9533 35.3525 20.7716 35.2185 20.6377C35.0846 20.5037 34.9029 20.4285 34.7134 20.4285H33.2849V18.2856C33.2849 18.0962 33.2096 17.9145 33.0757 17.7805C32.9417 17.6466 32.76 17.5713 32.5706 17.5713H29.7134C29.524 17.5713 29.3423 17.6466 29.2084 17.7805C29.0744 17.9145 28.9992 18.0962 28.9992 18.2856V20.4285H26.142V18.2856C26.142 18.0962 26.0668 17.9145 25.9328 17.7805C25.7989 17.6466 25.6172 17.5713 25.4277 17.5713H22.5706C22.3812 17.5713 22.1995 17.6466 22.0655 17.7805C21.9316 17.9145 21.8563 18.0962 21.8563 18.2856V20.4285H18.9992V18.2856C18.9992 18.0962 18.9239 17.9145 18.79 17.7805C18.656 17.6466 18.4743 17.5713 18.2849 17.5713H15.4277C15.2383 17.5713 15.0566 17.6466 14.9227 17.7805C14.7887 17.9145 14.7134 18.0962 14.7134 18.2856V20.4285H13.2849C13.0954 20.4285 12.9138 20.5037 12.7798 20.6377C12.6458 20.7716 12.5706 20.9533 12.5706 21.1428V23.2856C12.5706 23.4751 12.6458 23.6567 12.7798 23.7907C12.9138 23.9246 13.0954 23.9999 13.2849 23.9999H14.7134V26.857H13.2849C13.0954 26.857 12.9138 26.9323 12.7798 27.0662C12.6458 27.2002 12.5706 27.3819 12.5706 27.5713V29.7142C12.5706 29.9036 12.6458 30.0853 12.7798 30.2193C12.9138 30.3532 13.0954 30.4285 13.2849 30.4285H14.7134V41.857H13.2849V35.4285C13.2849 35.3347 13.2664 35.2418 13.2305 35.1551C13.1946 35.0685 13.142 34.9897 13.0757 34.9234L10.4277 32.2754V9.71418H11.142C11.3315 9.71418 11.5131 9.63893 11.6471 9.50497C11.7811 9.37102 11.8563 9.18934 11.8563 8.9999H23.2849V9.98704L19.5448 11.857H18.2849C18.0954 11.857 17.9138 11.9323 17.7798 12.0662C17.6458 12.2002 17.5706 12.3819 17.5706 12.5713V15.4285C17.5706 15.6179 17.6458 15.7996 17.7798 15.9335C17.9138 16.0675 18.0954 16.1428 18.2849 16.1428H29.7134C29.9029 16.1428 30.0846 16.0675 30.2185 15.9335C30.3525 15.7996 30.4277 15.6179 30.4277 15.4285V12.5713C30.4277 12.3819 30.3525 12.2002 30.2185 12.0662C30.0846 11.9323 29.9029 11.857 29.7134 11.857H28.4535L24.7134 9.98704V8.9999H25.4277C25.6172 8.9999 25.7989 8.92464 25.9328 8.79069C26.0668 8.65673 26.142 8.47505 26.142 8.28561V5.42847C26.142 5.23903 26.0668 5.05735 25.9328 4.92339C25.7989 4.78944 25.6172 4.71418 25.4277 4.71418H24.1042L9.92773 0.461145L9.92354 0.459895L9.91898 0.458556C9.85231 0.438565 9.78306 0.428428 9.71345 0.428467H6.85631C6.68589 0.42841 6.52113 0.489563 6.39202 0.600788L1.59211 4.71418H1.14202C0.95258 4.71418 0.770898 4.78944 0.636944 4.92339C0.502989 5.05735 0.427734 5.23903 0.427734 5.42847V8.28561C0.427734 8.47505 0.502989 8.65673 0.636944 8.79069C0.770898 8.92464 0.95258 8.9999 1.14202 8.9999H4.71345C4.71345 9.18934 4.7887 9.37102 4.92266 9.50497C5.05661 9.63893 5.23829 9.71418 5.42773 9.71418H6.14202V32.2754L3.49407 34.9234C3.42775 34.9897 3.37513 35.0685 3.33924 35.1551C3.30335 35.2418 3.28487 35.3347 3.28488 35.4285V41.857H0.427734V43.2856H42.5706C42.76 43.2856 42.9417 43.2104 43.0757 43.0764C43.2096 42.9424 43.2849 42.7608 43.2849 42.5713V39.7142C43.2849 39.5247 43.2096 39.3431 43.0757 39.2091C42.9417 39.0752 42.76 38.9999 42.5706 38.9999ZM28.9992 14.7142H18.9992V13.2856H28.9992V14.7142ZM22.7393 11.857L23.9992 11.227L25.2591 11.857H22.7393ZM36.8563 37.5713H41.142V38.9999H36.8563V37.5713ZM33.9992 28.2856V28.9999H33.2849V28.2856H33.9992ZM33.9992 21.857V22.5713H33.2849V21.857H33.9992ZM30.4277 18.9999H31.8563V39.7142H30.4277V18.9999ZM18.9992 35.4285V34.7142H28.9992V35.4285H18.9992ZM28.9992 28.2856V28.9999H18.9992V28.2856H28.9992ZM28.9992 33.2856H26.142V30.4285H28.9992V33.2856ZM24.7134 30.4285V33.2856H23.2849V30.4285H24.7134ZM18.9992 30.4285H21.8563V33.2856H18.9992V30.4285ZM28.9992 26.857H26.142V23.9999H28.9992V26.857ZM24.7134 26.857H23.2849V23.9999H24.7134V26.857ZM21.8563 26.857H18.9992V23.9999H21.8563V26.857ZM18.9992 36.857H21.8563V39.7142H18.9992V36.857ZM23.2849 36.857H24.7134V39.7142H23.2849V36.857ZM26.142 36.857H28.9992V39.7142H26.142V36.857ZM23.2849 18.9999H24.7134V20.4285H23.2849V18.9999ZM28.9992 21.857V22.5713H18.9992V21.857H28.9992ZM16.142 18.9999H17.5706V39.7142H16.142V18.9999ZM13.9992 22.5713V21.857H14.7134V22.5713H13.9992ZM13.9992 28.9999V28.2856H14.7134V28.9999H13.9992ZM11.8563 35.7243V38.9999H10.4277V34.2957L11.8563 35.7243ZM7.86648 38.9999L8.99916 37.8672V38.9999H7.86648ZM7.57059 12.1529L8.70336 13.2856L7.57059 14.4183V12.1529ZM8.99916 32.5713V34.4183L7.86648 33.2856L8.99916 32.1529V32.5713ZM7.57059 31.5611V29.2958L8.70336 30.4285L7.57059 31.5611ZM7.86648 27.5713L8.99916 26.4386V28.704L7.86648 27.5713ZM8.99916 15.0101V17.2754L7.86648 16.1428L8.99916 15.0101ZM7.57059 17.8672L8.70336 18.9999L7.57059 20.1326V17.8672ZM8.99916 20.7244V22.9897L7.86648 21.857L8.99916 20.7244ZM7.57059 23.5815L8.70336 24.7142L7.57059 25.8469V23.5815ZM7.57059 35.0101L8.70336 36.1428L7.57059 37.2754V35.0101ZM6.14202 8.28561V5.42847H10.4277V8.28561H6.14202ZM2.98898 6.14275L1.85631 7.27543V6.14275H2.98898ZM11.8563 6.14275H13.7033L12.2747 7.57132H11.8563V6.14275ZM18.2849 7.27543L17.1522 6.14275H19.4176L18.2849 7.27543ZM21.142 6.43856L22.2747 7.57132H20.0093L21.142 6.43856ZM16.5604 7.57132H14.2951L15.4277 6.43856L16.5604 7.57132ZM24.7134 7.57132H24.2951L22.8665 6.14275H24.7134V7.57132ZM11.8563 4.71418C11.8563 4.52474 11.7811 4.34306 11.6471 4.20911C11.5131 4.07515 11.3315 3.9999 11.142 3.9999H10.4277V2.10284L19.1323 4.71418H11.8563ZM7.57059 1.85704H8.99916V3.9999H7.57059V1.85704ZM6.14202 2.69579V3.9999H5.42773C5.23829 3.9999 5.05661 4.07515 4.92266 4.20911C4.7887 4.34306 4.71345 4.52474 4.71345 4.71418H3.7872L6.14202 2.69579ZM3.58077 7.57132L4.71345 6.43865V7.57132H3.58077ZM8.99916 9.71418V11.5611L7.57059 10.1326V9.71418H8.99916ZM4.71345 35.7243L6.14202 34.2957V38.9999H4.71345V35.7243ZM4.71345 41.857V40.4285H11.8563V41.857H4.71345ZM16.142 41.857V41.1428H17.5706V41.857H16.142ZM18.9992 41.857V41.1428H28.9992V41.857H18.9992ZM30.4277 41.857V41.1428H31.8563V41.857H30.4277ZM36.142 41.857V40.4285H41.8563V41.857H36.142Z" fill="black" fill-opacity="0.2"/>
<path d="M7.57227 6.14282H9.00084V7.57139H7.57227V6.14282Z" fill="black"/>
<defs>
<linearGradient id="paint0_linear_1415_8706" x1="1.81216" y1="3.72517" x2="41.3176" y2="32.9797" gradientUnits="userSpaceOnUse">
<stop offset="0.03125" stop-color="#003B40"/>
<stop offset="0.265625" stop-color="#005961"/>
<stop offset="0.509791" stop-color="#00818C"/>
<stop offset="0.760417" stop-color="#005961"/>
<stop offset="0.994792" stop-color="#003B40"/>
</linearGradient>
</defs>
</svg>
