<svg width="30" height="29" viewBox="0 0 30 29" fill="none" xmlns="http://www.w3.org/2000/svg">
<path d="M25.7238 19.0537V28.6352M29.6214 15.2153H17.9213C16.8448 15.2153 15.9688 16.0764 15.9688 17.1345C15.9688 18.1926 16.8448 19.0537 17.9213 19.0537H29.6214M4.26874 26.7233H0.371185M24.7513 9.47219H18.9013L19.8738 15.2226H23.7788L24.7513 9.47219ZM10.1262 28.6425C9.04973 28.6425 8.17371 27.7814 8.17371 26.7233V22.8922H4.27616C2.12323 22.8922 0.378609 21.1773 0.378609 19.061V11.3914C0.378609 10.3333 1.25463 9.47219 2.3311 9.47219C2.75426 9.47219 3.16257 9.60354 3.50407 9.85165C3.53377 9.87355 6.95619 12.3401 10.1336 12.3401C11.2101 12.3401 12.0861 13.2012 12.0861 14.2593C12.0861 15.3174 11.2101 16.1785 10.1336 16.1785C8.09947 16.1129 6.10244 15.6166 4.28358 14.719V19.0537H8.18113C10.3341 19.0537 12.0787 20.7686 12.0787 22.8849V26.716C12.0787 27.7741 11.2027 28.6352 10.1262 28.6352V28.6425ZM4.26874 0.36499C6.15441 0.36499 7.68373 1.86826 7.68373 3.72181C7.68373 5.57536 6.15441 7.07863 4.26874 7.07863C2.38306 7.07863 0.861163 5.57536 0.861163 3.72181C0.861163 1.86826 2.39049 0.36499 4.26874 0.36499Z" stroke="url(#paint0_linear_1610_12548)" stroke-linecap="round" stroke-linejoin="round"/>
<defs>
<linearGradient id="paint0_linear_1610_12548" x1="0.371185" y1="0.876214" x2="31.8586" y2="5.38812" gradientUnits="userSpaceOnUse">
<stop offset="0.158241" stop-color="#002D31"/>
<stop offset="0.32869" stop-color="#005961"/>
<stop offset="0.509791" stop-color="#00818C"/>
<stop offset="0.786145" stop-color="#005961"/>
<stop offset="0.988044" stop-color="#002D31"/>
</linearGradient>
</defs>
</svg>
