<svg width="17" height="12" viewBox="0 0 17 12" fill="none" xmlns="http://www.w3.org/2000/svg">
<path d="M14.188 11.4562H2.11498C0.951744 11.4562 0 10.5806 0 9.49224V1.96391C0 0.883761 0.942931 0 2.11498 0H14.188C15.3512 0 16.303 0.875578 16.303 1.96391V9.49224C16.303 10.5806 15.3601 11.4562 14.188 11.4562Z" fill="url(#paint0_linear_691_18961)"/>
<mask id="path-2-inside-1_691_18961" fill="white">
<path d="M15.3961 0.630371L9.34193 6.21116C8.66337 6.84124 7.64113 6.84124 6.95376 6.21116L0.899628 0.630371"/>
</mask>
<path d="M15.3961 0.630371L9.34193 6.21116C8.66337 6.84124 7.64113 6.84124 6.95376 6.21116L0.899628 0.630371" fill="url(#paint1_linear_691_18961)"/>
<path d="M15.941 1.22154C16.2675 0.920573 16.2882 0.411918 15.9872 0.0854258C15.6863 -0.241067 15.1776 -0.261761 14.8511 0.0392041L15.941 1.22154ZM9.34193 6.21116L8.79698 5.61998L8.79484 5.62198L9.34193 6.21116ZM6.95376 6.21116L6.40882 6.80232L6.41047 6.80384L6.95376 6.21116ZM1.44457 0.0392042C1.11808 -0.261761 0.609426 -0.241067 0.308461 0.0854256C0.00749576 0.411918 0.0281898 0.920573 0.354682 1.22154L1.44457 0.0392042ZM14.8511 0.0392041L8.79699 5.61999L9.88688 6.80232L15.941 1.22154L14.8511 0.0392041ZM8.79484 5.62198C8.42674 5.96378 7.87903 5.96862 7.49706 5.61847L6.41047 6.80384C7.40323 7.71387 8.90001 7.71871 9.88903 6.80033L8.79484 5.62198ZM7.49871 5.61999L1.44457 0.0392042L0.354682 1.22154L6.40882 6.80232L7.49871 5.61999Z" fill="#E6EDED" mask="url(#path-2-inside-1_691_18961)"/>
<path d="M0.906403 10.4987L6.33486 5.72803" stroke="#E6EDED" stroke-width="0.804017" stroke-linecap="round" stroke-linejoin="round"/>
<path d="M10.029 5.6626L15.3958 10.4987" stroke="#E6EDED" stroke-width="0.804017" stroke-linecap="round" stroke-linejoin="round"/>
<defs>
<linearGradient id="paint0_linear_691_18961" x1="0.775285" y1="2.85274" x2="11.2271" y2="13.6998" gradientUnits="userSpaceOnUse">
<stop stop-color="#002E33"/>
<stop offset="0.515422" stop-color="#18494E"/>
<stop offset="0.994225" stop-color="#00474D"/>
</linearGradient>
<linearGradient id="paint1_linear_691_18961" x1="1.589" y1="2.13774" x2="6.35519" y2="10.4616" gradientUnits="userSpaceOnUse">
<stop stop-color="#002E33"/>
<stop offset="0.515422" stop-color="#18494E"/>
<stop offset="0.994225" stop-color="#00474D"/>
</linearGradient>
</defs>
</svg>
