<svg width="24" height="17" viewBox="0 0 24 17" fill="none" xmlns="http://www.w3.org/2000/svg">
<path d="M1.33691 15.4558L9.32826 8.4328" stroke="#E6EDED" stroke-width="1.58868" stroke-linecap="round" stroke-linejoin="round"/>
<path d="M14.7637 8.336L22.6642 15.4554" stroke="#E6EDED" stroke-width="1.58868" stroke-linecap="round" stroke-linejoin="round"/>
<path d="M20.8865 16.0705H3.11352C1.78109 16.0705 0.794342 15.0807 0.794342 13.9737V2.89112C0.794342 1.79205 1.77257 0.794342 3.11352 0.794342H20.8865C22.2189 0.794342 23.2057 1.78414 23.2057 2.89112V13.9737C23.2057 15.0828 22.2297 16.0705 20.8865 16.0705Z" stroke="#E6EDED" stroke-width="1.58868" stroke-linecap="round" stroke-linejoin="round"/>
<mask id="path-4-inside-1_1034_14114" fill="white">
<path d="M22.6648 0.92804L13.7523 9.14364C12.7534 10.0712 11.2485 10.0712 10.2366 9.14364L1.32422 0.92804"/>
</mask>
<path d="M23.7415 2.09615C24.3867 1.50146 24.4275 0.496391 23.8329 -0.148736C23.2382 -0.793863 22.2331 -0.834753 21.588 -0.240067L23.7415 2.09615ZM13.7523 9.14364L12.6755 7.97552L12.6713 7.97946L13.7523 9.14364ZM10.2366 9.14364L9.15987 10.3117L9.16313 10.3147L10.2366 9.14364ZM2.40099 -0.240066C1.75587 -0.834753 0.7508 -0.793863 0.156113 -0.148736C-0.438574 0.496391 -0.397684 1.50146 0.247443 2.09615L2.40099 -0.240066ZM21.588 -0.240067L12.6755 7.97553L14.8291 10.3117L23.7415 2.09615L21.588 -0.240067ZM12.6713 7.97946C12.2858 8.3374 11.7186 8.34695 11.3102 7.97253L9.16313 10.3147C10.7785 11.7955 13.221 11.805 14.8333 10.3078L12.6713 7.97946ZM11.3134 7.97553L2.40099 -0.240066L0.247443 2.09615L9.15987 10.3117L11.3134 7.97553Z" fill="#E6EDED" mask="url(#path-4-inside-1_1034_14114)"/>
</svg>
