<svg width="60" height="13" viewBox="0 0 60 13" fill="none" xmlns="http://www.w3.org/2000/svg">
<path d="M9.26218 11.4548L9.08725 12.7014H0.732422C1.07803 11.8393 1.05608 11.3526 1.05608 10.7301V2.16126C1.05608 1.55781 1.07803 1.02836 0.732422 0.189941H8.88328L8.89815 1.46016C8.74518 1.39379 8.62195 1.33505 8.50863 1.28012C8.20693 1.15882 7.8245 1.04515 7.4279 1.04896H2.95905V5.94903H8.20268L7.94419 6.91333H2.95905V11.8172H7.68569C8.48243 11.8332 9.27563 11.3465 9.27563 11.3465L9.25368 11.4526C9.25368 11.4564 9.25722 11.4564 9.26076 11.4564L9.26218 11.4548ZM21.838 12.7014C21.9506 12.0858 21.9506 11.2161 21.8599 10.5066L21.1177 4.61091L17.0639 12.6976H16.2926L12.1737 4.24625L11.3734 10.6355C11.2863 11.3724 11.2608 12.3055 11.333 12.7014H9.8847C10.1652 12.0621 10.2338 11.7844 10.3649 10.7339L11.6751 0.189178H12.3408L17.1475 10.0282L21.9506 0.189178H22.4527L23.8061 10.7103C23.9407 11.7569 24.0426 12.0591 24.3118 12.7014H21.838ZM34.0391 12.7014L32.1106 8.11947H28.2317L26.3288 12.7014H24.8153C25.2955 12.0583 25.4591 11.7608 25.7976 10.9612L30.2955 0.189178H30.8012L35.2261 10.6591C35.6992 11.6822 35.9208 11.9995 36.5979 12.7014H34.0391ZM46.1751 12.7014L44.2466 8.11947H40.3677L38.4648 12.7014H36.9513C37.4315 12.0583 37.5951 11.7608 37.9336 10.9612L42.4315 0.189178H42.9371L47.3656 10.6591C47.8387 11.6822 48.0604 11.9995 48.7374 12.7014H46.1751ZM57.1716 12.709C56.0108 11.5685 54.508 10.0549 52.6263 7.65639C52.088 6.97818 51.7091 6.89197 51.4655 6.87671V10.7301C51.4655 11.3496 51.4655 11.8393 51.7927 12.7014H49.2381C49.5838 11.8393 49.5618 11.3526 49.5618 10.7301V2.15363C49.5618 1.55018 49.5838 1.02073 49.2381 0.182312H51.7417C53.452 0.182312 57.4945 0.0175273 57.4945 3.6161C57.4945 5.51723 56.0937 6.54027 54.4485 6.7989L53.9605 6.85001C53.9605 6.85001 59.2955 12.4672 59.5243 12.7106H57.1702L57.1716 12.709ZM54.1475 6.08025L54.144 6.08406C55.2211 5.6454 55.5852 4.54378 55.5483 3.61076C55.508 2.71283 55.1333 0.761349 51.469 0.917742V6.25266C51.469 6.25266 53.5214 6.37396 54.0965 6.1039C54.1291 6.08788 54.1475 6.08025 54.1475 6.08025ZM40.7381 7.24443H43.8713L42.292 3.50853L40.7381 7.24443ZM28.6057 7.24443H31.7388L30.1595 3.50853L28.6057 7.24443Z" fill="#3C3D3F"/>
</svg>
