<svg width="64" height="65" viewBox="0 0 64 65" fill="none" xmlns="http://www.w3.org/2000/svg">
<path d="M28.8241 10.3447H9.19092V35.8552H28.8241V10.3447Z" fill="#CCD9D9"/>
<path d="M22.2661 31.0341H33.3462H42.912L35.8224 18.0791L42.912 5.12402H33.3462H22.2661V31.0341Z" fill="#E6EDED"/>
<path d="M0.749515 4.20924C0.749515 3.52691 0.952087 2.85989 1.33158 2.29254C1.71107 1.7252 2.25046 1.28301 2.88154 1.02189C3.51261 0.76077 4.207 0.692452 4.87694 0.82557C5.54689 0.958687 6.16229 1.28726 6.6453 1.76975C7.1283 2.25223 7.45721 2.86695 7.59047 3.53618C7.72373 4.20541 7.65535 4.89909 7.39396 5.52948C7.13256 6.15988 6.68988 6.6987 6.12193 7.07778C5.55398 7.45687 4.88624 7.65921 4.20317 7.65921C3.74945 7.65987 3.30005 7.57108 2.88073 7.39794C2.46141 7.2248 2.08043 6.97071 1.7596 6.65022C1.43876 6.32973 1.18439 5.94914 1.01106 5.53027C0.837735 5.1114 0.748849 4.66249 0.749515 4.20924Z" fill="#7D9699"/>
<path d="M5.73321 10.3447V64.0669H2.66943V10.3447H5.73321Z" fill="#7D9699"/>
<path d="M6.49234 10.3447H4.97314V64.0669H6.49234V10.3447Z" fill="#283133"/>
<path d="M6.49214 64.0665H4.97293V11.103H3.4284V64.0665H1.90918V9.58545H6.49214V64.0665Z" fill="url(#paint0_angular_815_6389)"/>
<path d="M6.49214 64.0665H4.97293V11.103H3.4284V64.0665H1.90918V9.58545H6.49214V64.0665Z" fill="#002D31" fill-opacity="0.2"/>
<path d="M6.49214 64.0665H4.97293V11.103H3.4284V64.0665H1.90918V9.58545H6.49214V64.0665Z" fill="black" fill-opacity="0.2"/>
<path d="M29.584 36.6084H8.43164V9.58545H22.2665V11.103H9.95084V35.0909H28.0648V31.0339H29.584V36.6084Z" fill="url(#paint1_angular_815_6389)"/>
<path d="M29.584 36.6084H8.43164V9.58545H22.2665V11.103H9.95084V35.0909H28.0648V31.0339H29.584V36.6084Z" fill="#002D31" fill-opacity="0.2"/>
<path d="M29.584 36.6084H8.43164V9.58545H22.2665V11.103H9.95084V35.0909H28.0648V31.0339H29.584V36.6084Z" fill="black" fill-opacity="0.2"/>
<path d="M44.1936 31.788H21.5068V4.36035H44.1936L36.6887 18.0742L44.1936 31.788ZM23.026 30.2705H41.6312L34.9568 18.0742L41.6312 5.87793H23.026V30.2705Z" fill="url(#paint2_angular_815_6389)"/>
<path d="M44.1936 31.788H21.5068V4.36035H44.1936L36.6887 18.0742L44.1936 31.788ZM23.026 30.2705H41.6312L34.9568 18.0742L41.6312 5.87793H23.026V30.2705Z" fill="#002D31" fill-opacity="0.2"/>
<path d="M44.1936 31.788H21.5068V4.36035H44.1936L36.6887 18.0742L44.1936 31.788ZM23.026 30.2705H41.6312L34.9568 18.0742L41.6312 5.87793H23.026V30.2705Z" fill="black" fill-opacity="0.2"/>
<path d="M45.181 34.9849H36.9419V36.5024H45.181V34.9849Z" fill="url(#paint3_angular_815_6389)"/>
<path d="M45.181 34.9849H36.9419V36.5024H45.181V34.9849Z" fill="#002D31" fill-opacity="0.2"/>
<path d="M45.181 34.9849H36.9419V36.5024H45.181V34.9849Z" fill="black" fill-opacity="0.2"/>
<path d="M49.1566 34.9849H47.4551V36.5024H49.1566V34.9849Z" fill="url(#paint4_angular_815_6389)"/>
<path d="M49.1566 34.9849H47.4551V36.5024H49.1566V34.9849Z" fill="#002D31" fill-opacity="0.2"/>
<path d="M49.1566 34.9849H47.4551V36.5024H49.1566V34.9849Z" fill="black" fill-opacity="0.2"/>
<path d="M59.036 14.6548H50.7969V16.1724H59.036V14.6548Z" fill="url(#paint5_angular_815_6389)"/>
<path d="M59.036 14.6548H50.7969V16.1724H59.036V14.6548Z" fill="#002D31" fill-opacity="0.2"/>
<path d="M59.036 14.6548H50.7969V16.1724H59.036V14.6548Z" fill="black" fill-opacity="0.2"/>
<path d="M63.0115 14.6548H61.3101V16.1724H63.0115V14.6548Z" fill="url(#paint6_angular_815_6389)"/>
<path d="M63.0115 14.6548H61.3101V16.1724H63.0115V14.6548Z" fill="#002D31" fill-opacity="0.2"/>
<path d="M63.0115 14.6548H61.3101V16.1724H63.0115V14.6548Z" fill="black" fill-opacity="0.2"/>
<path d="M56.9089 22.3389H43.626V23.8564H56.9089V22.3389Z" fill="url(#paint7_angular_815_6389)"/>
<path d="M56.9089 22.3389H43.626V23.8564H56.9089V22.3389Z" fill="#002D31" fill-opacity="0.2"/>
<path d="M56.9089 22.3389H43.626V23.8564H56.9089V22.3389Z" fill="black" fill-opacity="0.2"/>
<path d="M6.49234 10.3447H4.97314V64.0669H6.49234V10.3447Z" fill="url(#paint8_angular_815_6389)"/>
<path d="M6.49234 10.3447H4.97314V64.0669H6.49234V10.3447Z" fill="#002D31" fill-opacity="0.2"/>
<path d="M6.49234 10.3447H4.97314V64.0669H6.49234V10.3447Z" fill="black" fill-opacity="0.2"/>
<path d="M4.21328 8.4175C3.37997 8.4175 2.5654 8.17065 1.87253 7.70819C1.17966 7.24572 0.639607 6.58841 0.320715 5.81937C0.00182326 5.05032 -0.0816103 4.20407 0.0809594 3.38765C0.243529 2.57123 0.644821 1.82131 1.23406 1.2327C1.82329 0.644098 2.57401 0.243268 3.3913 0.0808726C4.2086 -0.0815228 5.05574 0.0018213 5.82561 0.320371C6.59548 0.638921 7.25353 1.17837 7.71649 1.87049C8.17945 2.56262 8.42655 3.37633 8.42655 4.20875C8.42655 4.76145 8.31758 5.30874 8.10584 5.81937C7.89411 6.32999 7.58374 6.79396 7.1925 7.18477C6.80126 7.57559 6.33679 7.88561 5.82561 8.09712C5.31443 8.30863 4.76657 8.4175 4.21328 8.4175ZM4.21328 1.52264C3.68023 1.52264 3.15916 1.6806 2.71602 1.97653C2.27287 2.27247 1.92756 2.69307 1.7238 3.18511C1.52004 3.67715 1.467 4.21851 1.57136 4.74068C1.67572 5.26285 1.93282 5.74237 2.3101 6.11853C2.68738 6.4947 3.16787 6.7506 3.6908 6.85387C4.21373 6.95714 4.75556 6.90312 5.24775 6.69866C5.73993 6.4942 6.16035 6.14848 6.45577 5.70525C6.75119 5.26202 6.90834 4.74122 6.90734 4.20875C6.906 3.49588 6.62158 2.81267 6.11649 2.30907C5.6114 1.80547 4.92691 1.52263 4.21328 1.52264Z" fill="url(#paint9_angular_815_6389)"/>
<path d="M4.21328 8.4175C3.37997 8.4175 2.5654 8.17065 1.87253 7.70819C1.17966 7.24572 0.639607 6.58841 0.320715 5.81937C0.00182326 5.05032 -0.0816103 4.20407 0.0809594 3.38765C0.243529 2.57123 0.644821 1.82131 1.23406 1.2327C1.82329 0.644098 2.57401 0.243268 3.3913 0.0808726C4.2086 -0.0815228 5.05574 0.0018213 5.82561 0.320371C6.59548 0.638921 7.25353 1.17837 7.71649 1.87049C8.17945 2.56262 8.42655 3.37633 8.42655 4.20875C8.42655 4.76145 8.31758 5.30874 8.10584 5.81937C7.89411 6.32999 7.58374 6.79396 7.1925 7.18477C6.80126 7.57559 6.33679 7.88561 5.82561 8.09712C5.31443 8.30863 4.76657 8.4175 4.21328 8.4175ZM4.21328 1.52264C3.68023 1.52264 3.15916 1.6806 2.71602 1.97653C2.27287 2.27247 1.92756 2.69307 1.7238 3.18511C1.52004 3.67715 1.467 4.21851 1.57136 4.74068C1.67572 5.26285 1.93282 5.74237 2.3101 6.11853C2.68738 6.4947 3.16787 6.7506 3.6908 6.85387C4.21373 6.95714 4.75556 6.90312 5.24775 6.69866C5.73993 6.4942 6.16035 6.14848 6.45577 5.70525C6.75119 5.26202 6.90834 4.74122 6.90734 4.20875C6.906 3.49588 6.62158 2.81267 6.11649 2.30907C5.6114 1.80547 4.92691 1.52263 4.21328 1.52264Z" fill="#002D31" fill-opacity="0.2"/>
<path d="M4.21328 8.4175C3.37997 8.4175 2.5654 8.17065 1.87253 7.70819C1.17966 7.24572 0.639607 6.58841 0.320715 5.81937C0.00182326 5.05032 -0.0816103 4.20407 0.0809594 3.38765C0.243529 2.57123 0.644821 1.82131 1.23406 1.2327C1.82329 0.644098 2.57401 0.243268 3.3913 0.0808726C4.2086 -0.0815228 5.05574 0.0018213 5.82561 0.320371C6.59548 0.638921 7.25353 1.17837 7.71649 1.87049C8.17945 2.56262 8.42655 3.37633 8.42655 4.20875C8.42655 4.76145 8.31758 5.30874 8.10584 5.81937C7.89411 6.32999 7.58374 6.79396 7.1925 7.18477C6.80126 7.57559 6.33679 7.88561 5.82561 8.09712C5.31443 8.30863 4.76657 8.4175 4.21328 8.4175ZM4.21328 1.52264C3.68023 1.52264 3.15916 1.6806 2.71602 1.97653C2.27287 2.27247 1.92756 2.69307 1.7238 3.18511C1.52004 3.67715 1.467 4.21851 1.57136 4.74068C1.67572 5.26285 1.93282 5.74237 2.3101 6.11853C2.68738 6.4947 3.16787 6.7506 3.6908 6.85387C4.21373 6.95714 4.75556 6.90312 5.24775 6.69866C5.73993 6.4942 6.16035 6.14848 6.45577 5.70525C6.75119 5.26202 6.90834 4.74122 6.90734 4.20875C6.906 3.49588 6.62158 2.81267 6.11649 2.30907C5.6114 1.80547 4.92691 1.52263 4.21328 1.52264Z" fill="black" fill-opacity="0.2"/>
<defs>
<radialGradient id="paint0_angular_815_6389" cx="0" cy="0" r="1" gradientUnits="userSpaceOnUse" gradientTransform="translate(4.20066 35.925) rotate(86.6618) scale(22.3678 2.77682)">
<stop offset="0.0940427" stop-color="#248F99"/>
<stop offset="0.247062" stop-color="#00464D"/>
<stop offset="0.472333" stop-color="#248F99"/>
<stop offset="0.654785" stop-color="#00464D"/>
<stop offset="0.818154" stop-color="#008D99"/>
<stop offset="0.947734" stop-color="#04474D"/>
</radialGradient>
<radialGradient id="paint1_angular_815_6389" cx="0" cy="0" r="1" gradientUnits="userSpaceOnUse" gradientTransform="translate(19.0078 22.6501) rotate(61.5086) scale(12.602 11.2832)">
<stop offset="0.0940427" stop-color="#248F99"/>
<stop offset="0.247062" stop-color="#00464D"/>
<stop offset="0.472333" stop-color="#248F99"/>
<stop offset="0.654785" stop-color="#00464D"/>
<stop offset="0.818154" stop-color="#008D99"/>
<stop offset="0.947734" stop-color="#04474D"/>
</radialGradient>
<radialGradient id="paint2_angular_815_6389" cx="0" cy="0" r="1" gradientUnits="userSpaceOnUse" gradientTransform="translate(32.8502 17.6206) rotate(60.1638) scale(12.9594 11.9442)">
<stop offset="0.0940427" stop-color="#248F99"/>
<stop offset="0.247062" stop-color="#00464D"/>
<stop offset="0.472333" stop-color="#248F99"/>
<stop offset="0.654785" stop-color="#00464D"/>
<stop offset="0.818154" stop-color="#008D99"/>
<stop offset="0.947734" stop-color="#04474D"/>
</radialGradient>
<radialGradient id="paint3_angular_815_6389" cx="0" cy="0" r="1" gradientUnits="userSpaceOnUse" gradientTransform="translate(41.0615 35.7186) rotate(14.8761) scale(2.42277 1.2838)">
<stop offset="0.0940427" stop-color="#248F99"/>
<stop offset="0.247062" stop-color="#00464D"/>
<stop offset="0.472333" stop-color="#248F99"/>
<stop offset="0.654785" stop-color="#00464D"/>
<stop offset="0.818154" stop-color="#008D99"/>
<stop offset="0.947734" stop-color="#04474D"/>
</radialGradient>
<radialGradient id="paint4_angular_815_6389" cx="0" cy="0" r="1" gradientUnits="userSpaceOnUse" gradientTransform="translate(48.3058 35.7186) rotate(52.137) scale(0.787858 0.815291)">
<stop offset="0.0940427" stop-color="#248F99"/>
<stop offset="0.247062" stop-color="#00464D"/>
<stop offset="0.472333" stop-color="#248F99"/>
<stop offset="0.654785" stop-color="#00464D"/>
<stop offset="0.818154" stop-color="#008D99"/>
<stop offset="0.947734" stop-color="#04474D"/>
</radialGradient>
<radialGradient id="paint5_angular_815_6389" cx="0" cy="0" r="1" gradientUnits="userSpaceOnUse" gradientTransform="translate(54.9164 15.3885) rotate(14.8762) scale(2.42277 1.28381)">
<stop offset="0.0940427" stop-color="#248F99"/>
<stop offset="0.247062" stop-color="#00464D"/>
<stop offset="0.472333" stop-color="#248F99"/>
<stop offset="0.654785" stop-color="#00464D"/>
<stop offset="0.818154" stop-color="#008D99"/>
<stop offset="0.947734" stop-color="#04474D"/>
</radialGradient>
<radialGradient id="paint6_angular_815_6389" cx="0" cy="0" r="1" gradientUnits="userSpaceOnUse" gradientTransform="translate(62.1608 15.3885) rotate(52.1382) scale(0.787851 0.815275)">
<stop offset="0.0940427" stop-color="#248F99"/>
<stop offset="0.247062" stop-color="#00464D"/>
<stop offset="0.472333" stop-color="#248F99"/>
<stop offset="0.654785" stop-color="#00464D"/>
<stop offset="0.818154" stop-color="#008D99"/>
<stop offset="0.947734" stop-color="#04474D"/>
</radialGradient>
<radialGradient id="paint7_angular_815_6389" cx="0" cy="0" r="1" gradientUnits="userSpaceOnUse" gradientTransform="translate(50.2674 23.0726) rotate(9.35649) scale(3.82591 1.31066)">
<stop offset="0.0940427" stop-color="#248F99"/>
<stop offset="0.247062" stop-color="#00464D"/>
<stop offset="0.472333" stop-color="#248F99"/>
<stop offset="0.654785" stop-color="#00464D"/>
<stop offset="0.818154" stop-color="#008D99"/>
<stop offset="0.947734" stop-color="#04474D"/>
</radialGradient>
<radialGradient id="paint8_angular_815_6389" cx="0" cy="0" r="1" gradientUnits="userSpaceOnUse" gradientTransform="translate(5.73274 36.3175) rotate(88.8767) scale(22.0231 0.921865)">
<stop offset="0.0940427" stop-color="#248F99"/>
<stop offset="0.247062" stop-color="#00464D"/>
<stop offset="0.472333" stop-color="#248F99"/>
<stop offset="0.654785" stop-color="#00464D"/>
<stop offset="0.818154" stop-color="#008D99"/>
<stop offset="0.947734" stop-color="#04474D"/>
</radialGradient>
<radialGradient id="paint9_angular_815_6389" cx="0" cy="0" r="1" gradientUnits="userSpaceOnUse" gradientTransform="translate(4.21327 4.06955) rotate(55.2337) scale(4.19976 4.20134)">
<stop offset="0.0940427" stop-color="#248F99"/>
<stop offset="0.247062" stop-color="#00464D"/>
<stop offset="0.472333" stop-color="#248F99"/>
<stop offset="0.654785" stop-color="#00464D"/>
<stop offset="0.818154" stop-color="#008D99"/>
<stop offset="0.947734" stop-color="#04474D"/>
</radialGradient>
</defs>
</svg>
