<svg width="35" height="45" viewBox="0 0 35 45" fill="none" xmlns="http://www.w3.org/2000/svg">
<path d="M33.9517 21.2014C33.6918 20.9483 33.3831 20.7511 33.0445 20.622L33.56 20.1046C33.8021 19.8624 33.9943 19.5745 34.1254 19.2576C34.2565 18.9406 34.324 18.6008 34.324 18.2576C34.324 17.9145 34.2565 17.5747 34.1254 17.2577C33.9943 16.9408 33.8021 16.6529 33.56 16.4107C33.2948 16.1489 32.9741 15.9509 32.6219 15.8312L33.1992 15.2621C33.6872 14.7723 33.9614 14.1079 33.9614 13.4152C33.9614 12.7224 33.6872 12.058 33.1992 11.5682C32.7111 11.0784 32.0492 10.8032 31.359 10.8032C30.6689 10.8032 30.007 11.0784 29.5189 11.5682L26.4263 14.6724C26.2304 14.2118 25.9427 13.7963 25.581 13.4514C25.2486 13.1206 24.8543 12.8589 24.4209 12.6813C23.9875 12.5037 23.5234 12.4138 23.0553 12.4167H20.5503C20.8183 12.1683 21.107 11.9303 21.3853 11.682C22.2925 10.8853 23.1481 10.1403 23.5502 9.73675C24.9625 8.37092 26.3645 6.63259 25.9521 4.36656C25.7282 3.1529 25.0923 2.05458 24.1526 1.25849C23.2128 0.462389 22.0273 0.0176865 20.7977 4.39599e-05H20.7359C19.8457 0.0148028 18.9737 0.254887 18.2006 0.69804C17.4275 1.14119 16.7784 1.77307 16.3134 2.5351C15.8529 1.77824 15.2104 1.14954 14.445 0.706621C13.6795 0.263704 12.8155 0.0207512 11.9322 4.39599e-05C10.6893 -0.00499693 9.48324 0.423635 8.52044 1.2126C7.55763 2.00157 6.89789 3.10185 6.6541 4.32517C6.22113 6.65328 7.6025 8.2778 9.04572 9.73675C10.2415 10.9267 13.9527 14.3412 15.231 15.5415L10.0766 20.7151C8.78589 22.0058 7.66359 23.4556 6.73657 25.0299C6.44847 25.7462 6.10374 26.4382 5.7057 27.0993L5.54075 26.9441C5.39578 26.7988 5.19928 26.7172 4.99439 26.7172C4.7895 26.7172 4.59299 26.7988 4.44803 26.9441L0.458524 30.9278C0.313737 31.0733 0.232422 31.2705 0.232422 31.4762C0.232422 31.6818 0.313737 31.8791 0.458524 32.0246L13.1795 44.7723C13.2506 44.8453 13.3356 44.9032 13.4295 44.9423C13.5234 44.9814 13.6242 45.001 13.7259 45C13.8275 45.0004 13.9281 44.9806 14.022 44.9415C14.1158 44.9024 14.2009 44.8449 14.2723 44.7723L18.2411 40.7886C18.3859 40.6431 18.4673 40.4459 18.4673 40.2402C18.4673 40.0346 18.3859 39.8374 18.2411 39.6918L17.9422 39.3814C18.6234 38.8796 19.3479 38.4398 20.107 38.0673C21.0943 37.588 21.9936 36.9443 22.7667 36.1635L34.0032 24.885C34.2454 24.6428 34.4376 24.3549 34.5687 24.038C34.6998 23.721 34.7673 23.3812 34.7673 23.038C34.7673 22.6949 34.6998 22.3551 34.5687 22.0381C34.4376 21.7212 34.2454 21.4333 34.0032 21.1911L33.9517 21.2014ZM10.0766 8.63994C8.82924 7.37759 7.81899 6.19801 8.11794 4.61489C8.2714 3.75213 8.7198 2.9701 9.38591 2.40349C10.052 1.83688 10.8942 1.52117 11.7672 1.51073H11.8394C12.8094 1.53493 13.7319 1.9374 14.4112 2.63279C15.0906 3.32818 15.4733 4.26181 15.4784 5.23572C15.4784 5.44154 15.5598 5.63893 15.7048 5.78446C15.8498 5.93 16.0465 6.01176 16.2516 6.01176C16.4566 6.01176 16.6533 5.93 16.7983 5.78446C16.9433 5.63893 17.0247 5.44154 17.0247 5.23572C17.03 4.25655 17.417 3.31839 18.103 2.62214C18.7889 1.9259 19.7192 1.52695 20.6946 1.51073C21.57 1.51677 22.4156 1.83068 23.0843 2.39784C23.7529 2.96501 24.2023 3.74952 24.3542 4.61489C24.6223 6.09453 23.7666 7.28446 22.4059 8.6089C22.0245 8.97105 21.1791 9.71605 20.2926 10.4921C19.406 11.2681 18.5813 11.9924 17.9628 12.5615C17.4174 12.7123 16.9179 12.9967 16.5093 13.3893C16.2874 13.6055 16.0934 13.8488 15.932 14.1136C14.4681 12.7685 11.1693 9.73674 10.0766 8.63994ZM13.6847 43.1375L2.05638 31.4865L4.95314 28.5997L16.5608 40.2506L13.6847 43.1375ZM32.9208 23.7986L21.6843 35.077C21.0326 35.7327 20.2766 36.2748 19.4473 36.6808C18.5272 37.1276 17.6536 37.6648 16.8391 38.2846L6.82935 28.2375C7.35934 27.4199 7.81806 26.5579 8.20041 25.6611C9.0474 24.2622 10.058 22.97 11.2106 21.8119L15.9423 17.0522C16.0051 17.1496 16.074 17.2429 16.1485 17.3316C16.3578 17.8532 16.4108 18.4249 16.3009 18.9763C16.191 19.5278 15.9231 20.035 15.5299 20.4357L13.2208 22.7432C13.0961 22.8864 13.0273 23.0703 13.0273 23.2605C13.0273 23.4508 13.0961 23.6346 13.2208 23.7779L16.0866 26.9441C16.7439 27.6746 17.0965 28.6307 17.0716 29.6147C17.0466 30.5987 16.646 31.5355 15.9526 32.2315C15.8078 32.377 15.7265 32.5743 15.7265 32.7799C15.7265 32.9856 15.8078 33.1828 15.9526 33.3283C16.0976 33.4737 16.2941 33.5553 16.499 33.5553C16.7039 33.5553 16.9004 33.4737 17.0453 33.3283C18.02 32.3504 18.5828 31.0338 18.6173 29.6509C18.6519 28.2681 18.1555 26.9248 17.2309 25.899L14.8599 23.2812L16.6433 21.4911C17.4646 20.668 17.9279 19.552 17.9319 18.387C17.9319 18.2835 17.9319 18.1904 17.9319 18.0869H18.2308H21.5812C21.7862 18.0869 21.9829 18.0052 22.1279 17.8596C22.2729 17.7141 22.3543 17.5167 22.3543 17.3109C22.3543 17.1051 22.2729 16.9077 22.1279 16.7621C21.9829 16.6166 21.7862 16.5348 21.5812 16.5348H17.9422C17.8437 16.5567 17.7415 16.556 17.6434 16.5327C17.5452 16.5094 17.4535 16.4641 17.3752 16.4003C17.2857 16.2155 17.1859 16.0359 17.0763 15.8623C17.0657 15.7902 17.0657 15.717 17.0763 15.645C17.0955 15.4209 17.1592 15.2029 17.2637 15.0039C17.3681 14.8048 17.5112 14.6288 17.6845 14.4861C18.0767 14.1227 18.594 13.9261 19.1277 13.9377H23.1584C23.6921 13.9261 24.2094 14.1227 24.6016 14.4861C24.7767 14.6272 24.921 14.8028 25.0256 15.0022C25.1302 15.2015 25.193 15.4203 25.2099 15.645C25.2001 15.724 25.2001 15.8039 25.2099 15.883L19.3339 21.7809C19.1891 21.9264 19.1078 22.1236 19.1078 22.3293C19.1078 22.5349 19.1891 22.7322 19.3339 22.8777C19.4819 23.0212 19.6796 23.1014 19.8854 23.1014C20.0912 23.1014 20.2889 23.0212 20.4369 22.8777L30.6323 12.634C30.774 12.4717 30.9627 12.358 31.172 12.3088C31.3813 12.2595 31.6008 12.2772 31.7996 12.3593C31.9984 12.4414 32.1666 12.5838 32.2808 12.7667C32.395 12.9495 32.4493 13.1636 32.4363 13.379C32.4385 13.5193 32.4122 13.6587 32.3591 13.7885C32.3059 13.9184 32.2269 14.036 32.127 14.1343L21.9214 24.3677C21.7766 24.5132 21.6953 24.7104 21.6953 24.9161C21.6953 25.1217 21.7766 25.319 21.9214 25.4645C21.9924 25.5377 22.0774 25.5959 22.1712 25.6356C22.2651 25.6753 22.3659 25.6958 22.4677 25.6958C22.5696 25.6958 22.6704 25.6753 22.7642 25.6356C22.8581 25.5959 22.943 25.5377 23.0141 25.4645L30.9828 17.4661C31.181 17.2671 31.4498 17.1554 31.7302 17.1554C32.0105 17.1554 32.2793 17.2671 32.4776 17.4661C32.6758 17.665 32.7871 17.9349 32.7871 18.2163C32.7871 18.4976 32.6758 18.7675 32.4776 18.9664L24.5089 26.9648C24.4359 27.0361 24.378 27.1214 24.3384 27.2156C24.2988 27.3098 24.2784 27.411 24.2784 27.5132C24.2784 27.6154 24.2988 27.7166 24.3384 27.8108C24.378 27.905 24.4359 27.9903 24.5089 28.0616C24.5791 28.1356 24.664 28.1941 24.7581 28.2333C24.8522 28.2725 24.9534 28.2915 25.0552 28.2892C25.1568 28.2897 25.2575 28.2698 25.3513 28.2307C25.4451 28.1917 25.5302 28.1342 25.6016 28.0616L31.3745 22.2568C31.4708 22.1551 31.5867 22.0741 31.7152 22.0187C31.8437 21.9633 31.9821 21.9348 32.1219 21.9348C32.2617 21.9348 32.4001 21.9633 32.5286 22.0187C32.657 22.0741 32.773 22.1551 32.8693 22.2568C32.9692 22.3551 33.0481 22.4727 33.1013 22.6026C33.1545 22.7325 33.1807 22.8718 33.1785 23.0122C33.1918 23.154 33.1758 23.2971 33.1314 23.4324C33.0871 23.5677 33.0154 23.6924 32.9208 23.7986Z" fill="url(#paint0_linear_1034_12556)"/>
<path d="M33.9517 21.2014C33.6918 20.9483 33.3831 20.7511 33.0445 20.622L33.56 20.1046C33.8021 19.8624 33.9943 19.5745 34.1254 19.2576C34.2565 18.9406 34.324 18.6008 34.324 18.2576C34.324 17.9145 34.2565 17.5747 34.1254 17.2577C33.9943 16.9408 33.8021 16.6529 33.56 16.4107C33.2948 16.1489 32.9741 15.9509 32.6219 15.8312L33.1992 15.2621C33.6872 14.7723 33.9614 14.1079 33.9614 13.4152C33.9614 12.7224 33.6872 12.058 33.1992 11.5682C32.7111 11.0784 32.0492 10.8032 31.359 10.8032C30.6689 10.8032 30.007 11.0784 29.5189 11.5682L26.4263 14.6724C26.2304 14.2118 25.9427 13.7963 25.581 13.4514C25.2486 13.1206 24.8543 12.8589 24.4209 12.6813C23.9875 12.5037 23.5234 12.4138 23.0553 12.4167H20.5503C20.8183 12.1683 21.107 11.9303 21.3853 11.682C22.2925 10.8853 23.1481 10.1403 23.5502 9.73675C24.9625 8.37092 26.3645 6.63259 25.9521 4.36656C25.7282 3.1529 25.0923 2.05458 24.1526 1.25849C23.2128 0.462389 22.0273 0.0176865 20.7977 4.39599e-05H20.7359C19.8457 0.0148028 18.9737 0.254887 18.2006 0.69804C17.4275 1.14119 16.7784 1.77307 16.3134 2.5351C15.8529 1.77824 15.2104 1.14954 14.445 0.706621C13.6795 0.263704 12.8155 0.0207512 11.9322 4.39599e-05C10.6893 -0.00499693 9.48324 0.423635 8.52044 1.2126C7.55763 2.00157 6.89789 3.10185 6.6541 4.32517C6.22113 6.65328 7.6025 8.2778 9.04572 9.73675C10.2415 10.9267 13.9527 14.3412 15.231 15.5415L10.0766 20.7151C8.78589 22.0058 7.66359 23.4556 6.73657 25.0299C6.44847 25.7462 6.10374 26.4382 5.7057 27.0993L5.54075 26.9441C5.39578 26.7988 5.19928 26.7172 4.99439 26.7172C4.7895 26.7172 4.59299 26.7988 4.44803 26.9441L0.458524 30.9278C0.313737 31.0733 0.232422 31.2705 0.232422 31.4762C0.232422 31.6818 0.313737 31.8791 0.458524 32.0246L13.1795 44.7723C13.2506 44.8453 13.3356 44.9032 13.4295 44.9423C13.5234 44.9814 13.6242 45.001 13.7259 45C13.8275 45.0004 13.9281 44.9806 14.022 44.9415C14.1158 44.9024 14.2009 44.8449 14.2723 44.7723L18.2411 40.7886C18.3859 40.6431 18.4673 40.4459 18.4673 40.2402C18.4673 40.0346 18.3859 39.8374 18.2411 39.6918L17.9422 39.3814C18.6234 38.8796 19.3479 38.4398 20.107 38.0673C21.0943 37.588 21.9936 36.9443 22.7667 36.1635L34.0032 24.885C34.2454 24.6428 34.4376 24.3549 34.5687 24.038C34.6998 23.721 34.7673 23.3812 34.7673 23.038C34.7673 22.6949 34.6998 22.3551 34.5687 22.0381C34.4376 21.7212 34.2454 21.4333 34.0032 21.1911L33.9517 21.2014ZM10.0766 8.63994C8.82924 7.37759 7.81899 6.19801 8.11794 4.61489C8.2714 3.75213 8.7198 2.9701 9.38591 2.40349C10.052 1.83688 10.8942 1.52117 11.7672 1.51073H11.8394C12.8094 1.53493 13.7319 1.9374 14.4112 2.63279C15.0906 3.32818 15.4733 4.26181 15.4784 5.23572C15.4784 5.44154 15.5598 5.63893 15.7048 5.78446C15.8498 5.93 16.0465 6.01176 16.2516 6.01176C16.4566 6.01176 16.6533 5.93 16.7983 5.78446C16.9433 5.63893 17.0247 5.44154 17.0247 5.23572C17.03 4.25655 17.417 3.31839 18.103 2.62214C18.7889 1.9259 19.7192 1.52695 20.6946 1.51073C21.57 1.51677 22.4156 1.83068 23.0843 2.39784C23.7529 2.96501 24.2023 3.74952 24.3542 4.61489C24.6223 6.09453 23.7666 7.28446 22.4059 8.6089C22.0245 8.97105 21.1791 9.71605 20.2926 10.4921C19.406 11.2681 18.5813 11.9924 17.9628 12.5615C17.4174 12.7123 16.9179 12.9967 16.5093 13.3893C16.2874 13.6055 16.0934 13.8488 15.932 14.1136C14.4681 12.7685 11.1693 9.73674 10.0766 8.63994ZM13.6847 43.1375L2.05638 31.4865L4.95314 28.5997L16.5608 40.2506L13.6847 43.1375ZM32.9208 23.7986L21.6843 35.077C21.0326 35.7327 20.2766 36.2748 19.4473 36.6808C18.5272 37.1276 17.6536 37.6648 16.8391 38.2846L6.82935 28.2375C7.35934 27.4199 7.81806 26.5579 8.20041 25.6611C9.0474 24.2622 10.058 22.97 11.2106 21.8119L15.9423 17.0522C16.0051 17.1496 16.074 17.2429 16.1485 17.3316C16.3578 17.8532 16.4108 18.4249 16.3009 18.9763C16.191 19.5278 15.9231 20.035 15.5299 20.4357L13.2208 22.7432C13.0961 22.8864 13.0273 23.0703 13.0273 23.2605C13.0273 23.4508 13.0961 23.6346 13.2208 23.7779L16.0866 26.9441C16.7439 27.6746 17.0965 28.6307 17.0716 29.6147C17.0466 30.5987 16.646 31.5355 15.9526 32.2315C15.8078 32.377 15.7265 32.5743 15.7265 32.7799C15.7265 32.9856 15.8078 33.1828 15.9526 33.3283C16.0976 33.4737 16.2941 33.5553 16.499 33.5553C16.7039 33.5553 16.9004 33.4737 17.0453 33.3283C18.02 32.3504 18.5828 31.0338 18.6173 29.6509C18.6519 28.2681 18.1555 26.9248 17.2309 25.899L14.8599 23.2812L16.6433 21.4911C17.4646 20.668 17.9279 19.552 17.9319 18.387C17.9319 18.2835 17.9319 18.1904 17.9319 18.0869H18.2308H21.5812C21.7862 18.0869 21.9829 18.0052 22.1279 17.8596C22.2729 17.7141 22.3543 17.5167 22.3543 17.3109C22.3543 17.1051 22.2729 16.9077 22.1279 16.7621C21.9829 16.6166 21.7862 16.5348 21.5812 16.5348H17.9422C17.8437 16.5567 17.7415 16.556 17.6434 16.5327C17.5452 16.5094 17.4535 16.4641 17.3752 16.4003C17.2857 16.2155 17.1859 16.0359 17.0763 15.8623C17.0657 15.7902 17.0657 15.717 17.0763 15.645C17.0955 15.4209 17.1592 15.2029 17.2637 15.0039C17.3681 14.8048 17.5112 14.6288 17.6845 14.4861C18.0767 14.1227 18.594 13.9261 19.1277 13.9377H23.1584C23.6921 13.9261 24.2094 14.1227 24.6016 14.4861C24.7767 14.6272 24.921 14.8028 25.0256 15.0022C25.1302 15.2015 25.193 15.4203 25.2099 15.645C25.2001 15.724 25.2001 15.8039 25.2099 15.883L19.3339 21.7809C19.1891 21.9264 19.1078 22.1236 19.1078 22.3293C19.1078 22.5349 19.1891 22.7322 19.3339 22.8777C19.4819 23.0212 19.6796 23.1014 19.8854 23.1014C20.0912 23.1014 20.2889 23.0212 20.4369 22.8777L30.6323 12.634C30.774 12.4717 30.9627 12.358 31.172 12.3088C31.3813 12.2595 31.6008 12.2772 31.7996 12.3593C31.9984 12.4414 32.1666 12.5838 32.2808 12.7667C32.395 12.9495 32.4493 13.1636 32.4363 13.379C32.4385 13.5193 32.4122 13.6587 32.3591 13.7885C32.3059 13.9184 32.2269 14.036 32.127 14.1343L21.9214 24.3677C21.7766 24.5132 21.6953 24.7104 21.6953 24.9161C21.6953 25.1217 21.7766 25.319 21.9214 25.4645C21.9924 25.5377 22.0774 25.5959 22.1712 25.6356C22.2651 25.6753 22.3659 25.6958 22.4677 25.6958C22.5696 25.6958 22.6704 25.6753 22.7642 25.6356C22.8581 25.5959 22.943 25.5377 23.0141 25.4645L30.9828 17.4661C31.181 17.2671 31.4498 17.1554 31.7302 17.1554C32.0105 17.1554 32.2793 17.2671 32.4776 17.4661C32.6758 17.665 32.7871 17.9349 32.7871 18.2163C32.7871 18.4976 32.6758 18.7675 32.4776 18.9664L24.5089 26.9648C24.4359 27.0361 24.378 27.1214 24.3384 27.2156C24.2988 27.3098 24.2784 27.411 24.2784 27.5132C24.2784 27.6154 24.2988 27.7166 24.3384 27.8108C24.378 27.905 24.4359 27.9903 24.5089 28.0616C24.5791 28.1356 24.664 28.1941 24.7581 28.2333C24.8522 28.2725 24.9534 28.2915 25.0552 28.2892C25.1568 28.2897 25.2575 28.2698 25.3513 28.2307C25.4451 28.1917 25.5302 28.1342 25.6016 28.0616L31.3745 22.2568C31.4708 22.1551 31.5867 22.0741 31.7152 22.0187C31.8437 21.9633 31.9821 21.9348 32.1219 21.9348C32.2617 21.9348 32.4001 21.9633 32.5286 22.0187C32.657 22.0741 32.773 22.1551 32.8693 22.2568C32.9692 22.3551 33.0481 22.4727 33.1013 22.6026C33.1545 22.7325 33.1807 22.8718 33.1785 23.0122C33.1918 23.154 33.1758 23.2971 33.1314 23.4324C33.0871 23.5677 33.0154 23.6924 32.9208 23.7986Z" fill="black" fill-opacity="0.2"/>
<defs>
<linearGradient id="paint0_linear_1034_12556" x1="1.34802" y1="3.46154" x2="38.6057" y2="24.6353" gradientUnits="userSpaceOnUse">
<stop offset="0.03125" stop-color="#003B40"/>
<stop offset="0.265625" stop-color="#005961"/>
<stop offset="0.509791" stop-color="#00818C"/>
<stop offset="0.760417" stop-color="#005961"/>
<stop offset="0.994792" stop-color="#003B40"/>
</linearGradient>
</defs>
</svg>
