<svg width="46" height="39" viewBox="0 0 46 39" fill="none" xmlns="http://www.w3.org/2000/svg">
<path d="M24.5152 13.0147L21.3185 10.4711V5.99746C21.3185 5.57688 20.9777 5.23587 20.5574 5.23587H18.2741C17.8538 5.23587 17.513 5.57688 17.513 5.99746V7.44441L15.4155 5.77657C14.8618 5.33442 14.0754 5.33442 13.5217 5.77657L4.45464 12.9897C3.83142 13.43 3.49286 14.1715 3.56793 14.9313C3.64337 15.6914 4.12092 16.3518 4.81847 16.6612C5.51602 16.971 6.3258 16.881 6.93899 16.4266L8.3798 15.3422V22.7525C8.3798 23.5936 9.06137 24.2756 9.902 24.2756H19.0352C19.8758 24.2756 20.5574 23.5936 20.5574 22.7525V15.3429L22.0034 16.4314C22.9466 17.1253 24.2737 16.9226 24.9671 15.9788C25.6606 15.035 25.4584 13.7071 24.5152 13.0132V13.0147ZM19.0352 6.75905H19.7963V9.261L19.0352 8.6515V6.75905ZM12.9464 22.7525V19.7061H15.9908V22.7525H12.9464ZM19.0352 22.7525H17.513V18.9445C17.513 18.5239 17.1722 18.1829 16.7519 18.1829H12.1853C11.765 18.1829 11.4242 18.5239 11.4242 18.9445V22.7525H9.902V14.1968L14.4686 10.7581L19.0352 14.1968V22.7525ZM23.7541 15.0544C23.6646 15.1871 23.5256 15.2786 23.3684 15.3084C23.2112 15.3381 23.0484 15.3039 22.9169 15.2128L14.9253 9.19629C14.6548 8.99288 14.2824 8.99288 14.0119 9.19629L6.0311 15.2042C5.89917 15.3005 5.73379 15.3388 5.57325 15.3098C5.41233 15.2812 5.27037 15.1882 5.18007 15.0521C5.09162 14.9153 5.06152 14.7487 5.09682 14.5895C5.13213 14.4304 5.22949 14.292 5.36737 14.205L14.4686 6.9699L23.6018 14.2325C23.8675 14.4192 23.9351 14.7848 23.7541 15.0544Z" fill="#E6EDED"/>
<path d="M12.0967 14.3991C12.0967 15.6477 13.1056 16.66 14.35 16.66C15.5944 16.66 16.6033 15.6477 16.6033 14.3991C16.6033 13.1505 15.5944 12.1382 14.35 12.1382C13.1056 12.1382 12.0967 13.1505 12.0967 14.3991ZM15.1011 14.3991C15.1011 14.8153 14.7648 15.1528 14.35 15.1528C13.9352 15.1528 13.5989 14.8153 13.5989 14.3991C13.5989 13.9829 13.9352 13.6455 14.35 13.6455C14.7648 13.6455 15.1011 13.9829 15.1011 14.3991Z" fill="#E6EDED"/>
<path d="M41.7458 0H3.79508C1.7 0.00260302 0.00259429 1.70572 0 3.80783V26.6548C0.00259429 28.7569 1.7 30.4601 3.79508 30.4627H29.6016V31.9858H28.8426C28.4234 31.9858 28.0836 32.3268 28.0836 32.7474V37.3168C28.0836 37.7373 28.4234 38.0783 28.8426 38.0783H42.5049C42.924 38.0783 43.2639 37.7373 43.2639 37.3168V32.7474C43.2639 32.3268 42.924 31.9858 42.5049 31.9858H41.7458V30.4627C43.8409 30.4601 45.5383 28.7569 45.5409 26.6548V3.80783C45.5383 1.70572 43.8409 0.00260302 41.7458 0ZM41.7458 36.5552H29.6016V33.5089H41.7458V36.5552ZM31.1196 31.9858V27.4164C31.1207 27.2985 31.0948 27.1821 31.0436 27.0761L28.8426 22.6674V16.7545C28.8426 16.3339 29.1824 15.9929 29.6016 15.9929C30.0208 15.9929 30.3606 16.3339 30.3606 16.7545V21.3239H31.8786V16.7545C31.8768 16.1082 31.6007 15.4935 31.1196 15.0636V10.6619C31.1196 10.2414 31.4595 9.90036 31.8786 9.90036C32.0836 9.89999 32.2793 9.9844 32.4197 10.1343C32.5609 10.273 32.6395 10.4637 32.6377 10.6619V19.0392H34.1557V14.4698C34.1557 14.0492 34.4955 13.7082 34.9147 13.7082C35.3339 13.7082 35.6737 14.0492 35.6737 14.4698V19.8007H37.1917V15.2313C37.1917 14.8108 37.5316 14.4698 37.9508 14.4698C38.3699 14.4698 38.7098 14.8108 38.7098 15.2313V19.8007H40.2278V16.7545C40.2278 16.3339 40.5677 15.9929 40.9868 15.9929C41.406 15.9929 41.7458 16.3339 41.7458 16.7545V24.2467L40.2671 28.6989C40.2411 28.7763 40.2282 28.8577 40.2278 28.9395V31.9858H31.1196ZM34.136 10.4608C34.0975 9.93049 33.8692 9.43182 33.493 9.05736C33.0698 8.61931 32.4868 8.37351 31.8786 8.37723C30.6211 8.37723 29.6016 9.40022 29.6016 10.6619H28.8426C28.0043 10.6619 27.3245 9.97994 27.3245 9.1388C27.3245 8.29765 28.0043 7.61567 28.8426 7.61567H33.3967C34.0912 7.606 34.7023 8.07342 34.8776 8.7476C35.0529 9.42178 34.7468 10.1291 34.136 10.4608ZM44.0229 26.6548C44.0207 27.8983 43.0274 28.9116 41.7885 28.9351L43.2246 24.6107C43.2505 24.5334 43.2635 24.4519 43.2639 24.3701V16.7545C43.2665 15.9951 42.8918 15.2849 42.2647 14.8598C41.6376 14.4348 40.8408 14.3515 40.1396 14.6375C39.9639 13.954 39.4792 13.3925 38.8302 13.1203C38.1813 12.8481 37.4426 12.8964 36.8341 13.2512C36.2763 12.3405 35.1545 11.9527 34.1557 12.3253V12.0769C35.4973 11.7388 36.4368 10.5269 36.4327 9.1388C36.4327 7.45651 35.0733 6.09253 33.3967 6.09253H28.8426C27.1659 6.09253 25.8065 7.45651 25.8065 9.1388C25.8065 10.8211 27.1659 12.1851 28.8426 12.1851H29.6016V14.4698C28.3441 14.4698 27.3245 15.4927 27.3245 16.7545V22.847C27.3234 22.9649 27.3494 23.0813 27.4005 23.1872L29.6016 27.596V28.9395H3.79508C2.53759 28.9395 1.51803 27.9165 1.51803 26.6548V3.80783C1.51803 2.54612 2.53759 1.52313 3.79508 1.52313H39.4688V12.1851H40.9868V1.52313H41.7458C43.0033 1.52313 44.0229 2.54612 44.0229 3.80783V26.6548Z" fill="#E6EDED"/>
</svg>
