<svg width="1530" height="95" viewBox="0 0 1530 95" fill="none" xmlns="http://www.w3.org/2000/svg">
<path d="M1530 35.995V73.84C1530 83.2675 1523.54 91.1875 1514.82 93.4C1513.23 93.805 1511.57 94.0225 1509.85 94.0225H1482.95C1482.39 94.0225 1481.88 93.7825 1481.52 93.4C1481.18 93.04 1480.96 92.56 1480.96 92.0275V54.115C1480.96 49.06 1485.07 44.95 1490.13 44.95H1518.02C1518.61 44.95 1519.09 45.43 1519.09 46.03V73.9375C1519.09 78.9925 1515 83.1025 1509.93 83.1025H1495.34C1494.38 83.1025 1493.53 82.72 1492.91 82.09C1492.28 81.46 1491.89 80.605 1491.89 79.645C1491.89 77.7475 1493.43 76.21 1495.34 76.21H1509.95C1511.2 76.21 1512.2 75.1975 1512.2 73.9525V52.93C1512.2 52.345 1511.73 51.8425 1511.11 51.8425H1490.11C1488.88 51.8425 1487.86 52.84 1487.86 54.1V86.0425C1487.86 86.6425 1488.36 87.13 1488.95 87.13H1509.95C1517.22 87.13 1523.12 81.2275 1523.12 73.9525V42.9325C1523.12 41.8225 1522.21 40.9075 1521.1 40.9075H1490.13C1482.85 40.9075 1476.95 46.81 1476.95 54.1V90.67C1476.93 91.585 1476.54 92.41 1475.95 92.995C1475.8 93.145 1475.63 93.28 1475.46 93.4C1474.9 93.7975 1474.22 94.0225 1473.49 94.0225H0V87.085H1470.14V54.1525C1470.14 43.3675 1478.58 34.5625 1489.21 34.0225C1489.53 34.0075 1489.85 34 1490.18 34H1528.01C1529.1 34 1530 34.9 1530 35.995Z" fill="#E6EDED"/>
<path d="M1530 0V32.845C1530 31.75 1529.1 30.85 1528.01 30.85H1490.18C1489.85 30.85 1489.53 30.8575 1489.21 30.8725C1478.58 31.4125 1470.14 40.2175 1470.14 51.0025V83.935H0V0H1530Z" fill="#002D31"/>
</svg>
