<svg width="125" height="65" viewBox="0 0 125 65" fill="none" xmlns="http://www.w3.org/2000/svg">
<path opacity="0.4" d="M73.0501 5.945C74.1395 5.945 75.0226 5.06189 75.0226 3.9725C75.0226 2.88312 74.1395 2 73.0501 2C71.9608 2 71.0776 2.88312 71.0776 3.9725C71.0776 5.06189 71.9608 5.945 73.0501 5.945Z" fill="#DDE4E4"/>
<path opacity="0.4" d="M51.45 3.945C52.5394 3.945 53.4225 3.06189 53.4225 1.9725C53.4225 0.883122 52.5394 0 51.45 0C50.3607 0 49.4775 0.883122 49.4775 1.9725C49.4775 3.06189 50.3607 3.945 51.45 3.945Z" fill="#DDE4E4"/>
<path opacity="0.4" d="M60.045 44.735V8.31497C60.045 6.39497 58.4925 4.84246 56.58 4.84246C54.6675 4.84246 53.115 6.39497 53.115 8.31497V11.75V44.795C53.115 52.085 47.205 57.995 39.9225 57.995H8.91C7.8 57.995 6.89246 57.095 6.89246 55.9775V24.9425C6.89246 17.6525 12.795 11.7425 20.085 11.7425H41.1C41.6925 11.7425 42.18 12.2225 42.18 12.8225V44.8025C42.18 46.0475 41.175 47.0525 39.93 47.0525H18.9075C18.3075 47.0525 17.8275 46.565 17.8275 45.9725V24.935C17.8275 23.69 18.8325 22.6775 20.0775 22.6775H34.7025C36.6075 22.6775 38.1525 21.1325 38.1525 19.22C38.1525 17.315 36.6075 15.7625 34.7025 15.7625H20.0925C15.03 15.7625 10.92 19.8725 10.92 24.9425V52.88C10.92 53.4725 11.4 53.96 12 53.96H39.915C44.9775 53.96 49.0875 49.85 49.0875 44.78V22.6925V6.83747C49.0875 5.73497 48.195 4.83496 47.085 4.83496H20.175C9.03002 4.83496 0 13.8725 0 25.025V62.9C0 64.01 0.899956 64.9175 2.01746 64.9175H39.87C51.015 64.9175 60.045 55.88 60.045 44.7275V44.735Z" fill="#DDE4E4"/>
<path opacity="0.4" d="M64.0801 44.6974V8.27736C64.0801 6.35736 65.6326 4.80486 67.5451 4.80486C69.4576 4.80486 71.0101 6.35736 71.0101 8.27736V11.7124V44.7574C71.0101 52.0474 76.9201 57.9574 84.2026 57.9574H115.215C116.325 57.9574 117.233 57.0574 117.233 55.9399V24.9049C117.233 17.6149 111.33 11.7049 104.04 11.7049H83.0251C82.4326 11.7049 81.9451 12.1849 81.9451 12.7849V44.7649C81.9451 46.0099 82.9501 47.0149 84.1951 47.0149H105.218C105.818 47.0149 106.298 46.5274 106.298 45.9349V24.8974C106.298 23.6524 105.293 22.6399 104.048 22.6399H89.4226C87.5176 22.6399 85.9726 21.0949 85.9726 19.1824C85.9726 17.2774 87.5176 15.7249 89.4226 15.7249H104.033C109.095 15.7249 113.205 19.8349 113.205 24.9049V52.8424C113.205 53.4349 112.725 53.9224 112.125 53.9224H84.2101C79.1476 53.9224 75.0377 49.8124 75.0377 44.7424V22.6549V6.79986C75.0377 5.69736 75.9301 4.79736 77.0401 4.79736H103.95C115.095 4.79736 124.125 13.8349 124.125 24.9874V62.8624C124.125 63.9724 123.225 64.8799 122.108 64.8799H84.2551C73.1101 64.8799 64.0801 55.8424 64.0801 44.6899V44.6974Z" fill="#DDE4E4"/>
</svg>
