<svg width="76" height="70" viewBox="0 0 76 70" fill="none" xmlns="http://www.w3.org/2000/svg">
<path d="M32.8167 41.1793C32.8167 40.5232 32.5566 39.8938 32.0934 39.4291C31.6302 38.9644 31.0016 38.7023 30.3455 38.7002H15.3293C15.003 38.6992 14.6798 38.7625 14.3781 38.8867C14.0764 39.0108 13.8022 39.1932 13.5712 39.4235C13.3401 39.6538 13.1568 39.9275 13.0317 40.2288C12.9067 40.5301 12.8423 40.8531 12.8423 41.1793V56.9196C12.8423 57.1284 12.9252 57.3285 13.0728 57.4761C13.2204 57.6237 13.4206 57.7066 13.6293 57.7066H32.0297C32.2385 57.7066 32.4386 57.6237 32.5862 57.4761C32.7338 57.3285 32.8167 57.1284 32.8167 56.9196V41.1793ZM14.4163 44.2093H22.0504V49.3879H14.4163V44.2093ZM23.6087 44.2093H31.227V49.3879H23.6244L23.6087 44.2093ZM14.4163 41.1793C14.4163 40.9406 14.5106 40.7116 14.6786 40.5421C14.8467 40.3726 15.0748 40.2763 15.3135 40.2742H30.3455C30.5842 40.2763 30.8124 40.3726 30.9804 40.5421C31.1484 40.7116 31.2427 40.9406 31.2427 41.1793V42.6353H14.4163V41.1793ZM14.4163 50.9619H22.0504V56.1326H14.4163V50.9619ZM23.6244 56.1326V50.9619H31.2427V56.1326H23.6244ZM25.8595 59.8945H19.8152C19.6065 59.8945 19.4063 59.9775 19.2587 60.1251C19.1111 60.2726 19.0282 60.4728 19.0282 60.6816C19.0282 60.8903 19.1111 61.0905 19.2587 61.2381C19.4063 61.3857 19.6065 61.4686 19.8152 61.4686H25.8595C26.0683 61.4686 26.2684 61.3857 26.416 61.2381C26.5636 61.0905 26.6465 60.8903 26.6465 60.6816C26.6465 60.4728 26.5636 60.2726 26.416 60.1251C26.2684 59.9775 26.0683 59.8945 25.8595 59.8945Z" fill="url(#paint0_linear_1310_10974)"/>
<path d="M32.8167 41.1793C32.8167 40.5232 32.5566 39.8938 32.0934 39.4291C31.6302 38.9644 31.0016 38.7023 30.3455 38.7002H15.3293C15.003 38.6992 14.6798 38.7625 14.3781 38.8867C14.0764 39.0108 13.8022 39.1932 13.5712 39.4235C13.3401 39.6538 13.1568 39.9275 13.0317 40.2288C12.9067 40.5301 12.8423 40.8531 12.8423 41.1793V56.9196C12.8423 57.1284 12.9252 57.3285 13.0728 57.4761C13.2204 57.6237 13.4206 57.7066 13.6293 57.7066H32.0297C32.2385 57.7066 32.4386 57.6237 32.5862 57.4761C32.7338 57.3285 32.8167 57.1284 32.8167 56.9196V41.1793ZM14.4163 44.2093H22.0504V49.3879H14.4163V44.2093ZM23.6087 44.2093H31.227V49.3879H23.6244L23.6087 44.2093ZM14.4163 41.1793C14.4163 40.9406 14.5106 40.7116 14.6786 40.5421C14.8467 40.3726 15.0748 40.2763 15.3135 40.2742H30.3455C30.5842 40.2763 30.8124 40.3726 30.9804 40.5421C31.1484 40.7116 31.2427 40.9406 31.2427 41.1793V42.6353H14.4163V41.1793ZM14.4163 50.9619H22.0504V56.1326H14.4163V50.9619ZM23.6244 56.1326V50.9619H31.2427V56.1326H23.6244ZM25.8595 59.8945H19.8152C19.6065 59.8945 19.4063 59.9775 19.2587 60.1251C19.1111 60.2726 19.0282 60.4728 19.0282 60.6816C19.0282 60.8903 19.1111 61.0905 19.2587 61.2381C19.4063 61.3857 19.6065 61.4686 19.8152 61.4686H25.8595C26.0683 61.4686 26.2684 61.3857 26.416 61.2381C26.5636 61.0905 26.6465 60.8903 26.6465 60.6816C26.6465 60.4728 26.5636 60.2726 26.416 60.1251C26.2684 59.9775 26.0683 59.8945 25.8595 59.8945Z" fill="black" fill-opacity="0.2"/>
<path d="M73.6869 42.6353H61.7951V36.8192L62.9441 37.9683C63.2213 38.2464 63.5506 38.4672 63.9132 38.6178C64.2758 38.7684 64.6646 38.8459 65.0573 38.8459C65.4499 38.8459 65.8387 38.7684 66.2013 38.6178C66.564 38.4672 66.8933 38.2464 67.1704 37.9683L68.5398 36.6067C69.1002 36.0447 69.4149 35.2833 69.4149 34.4897C69.4149 33.696 69.1002 32.9347 68.5398 32.3726L37.0592 0.891953C36.459 0.31942 35.6614 0 34.8319 0C34.0025 0 33.2049 0.31942 32.6047 0.891953L19.3828 14.1138V10.281C19.9529 10.2528 20.4903 10.0068 20.8843 9.59384C21.2782 9.18086 21.4986 8.63241 21.4999 8.06166V5.87376C21.4978 5.28578 21.2633 4.72248 20.8476 4.30671C20.4318 3.89094 19.8685 3.65645 19.2805 3.65438H7.33361C6.74563 3.65645 6.18233 3.89094 5.76656 4.30671C5.3508 4.72248 5.1163 5.28578 5.11423 5.87376V8.07741C5.11793 8.64991 5.34273 9.19884 5.74165 9.60949C6.14057 10.0201 6.68275 10.2608 7.25491 10.281V26.2496L1.13193 32.3726C0.571556 32.9347 0.256884 33.696 0.256884 34.4897C0.256884 35.2833 0.571556 36.0447 1.13193 36.6067L2.49347 37.9683C3.05419 38.5282 3.8142 38.8426 4.6066 38.8426C5.399 38.8426 6.15901 38.5282 6.71974 37.9683L7.25491 37.4331V59.6427C6.06163 60.2766 5.14292 61.3269 4.6735 62.594C4.1602 62.4928 3.63136 62.5004 3.1212 62.6164C2.61104 62.7325 2.13092 62.9543 1.71188 63.2675C1.29284 63.5808 0.944229 63.9785 0.688584 64.435C0.432938 64.8915 0.275956 65.3965 0.22779 65.9175C0.179624 66.4385 0.241348 66.9638 0.408968 67.4594C0.576588 67.955 0.846372 68.4099 1.20087 68.7947C1.55537 69.1794 1.98669 69.4855 2.46693 69.6931C2.94717 69.9007 3.46564 70.0052 3.9888 69.9998H63.802C64.0107 69.9998 64.2109 69.9169 64.3585 69.7693C64.5061 69.6217 64.589 69.4215 64.589 69.2128V60.3116H73.7184C74.3237 60.3116 74.9042 60.0712 75.3323 59.6432C75.7603 59.2151 76.0007 58.6346 76.0007 58.0293V44.9176C76.0008 44.6152 75.9407 44.3158 75.824 44.0369C75.7074 43.7579 75.5364 43.5049 75.3212 43.2925C75.1059 43.0802 74.8505 42.9127 74.57 42.7999C74.2894 42.687 73.9893 42.6311 73.6869 42.6353ZM6.68826 8.06166V5.87376C6.68616 5.7877 6.7013 5.70208 6.73279 5.62196C6.76428 5.54184 6.81149 5.46882 6.87162 5.40722C6.93176 5.34561 7.00361 5.29667 7.08296 5.26325C7.1623 5.22984 7.24752 5.21264 7.33361 5.21267H19.312C19.4804 5.22084 19.6389 5.29458 19.7536 5.41813C19.8684 5.54168 19.9302 5.70522 19.9259 5.87376V8.07741C19.9259 8.24856 19.8579 8.41271 19.7368 8.53374C19.6158 8.65477 19.4517 8.72276 19.2805 8.72276H7.33361C7.24752 8.72278 7.1623 8.70558 7.08296 8.67217C7.00361 8.63876 6.93176 8.58981 6.87162 8.52821C6.81149 8.4666 6.76428 8.39359 6.73279 8.31347C6.7013 8.23334 6.68616 8.14773 6.68826 8.06166ZM8.82894 10.281H17.8088V15.6957L8.82894 24.6756V10.281ZM5.60218 36.8507C5.33669 37.115 4.97731 37.2634 4.60267 37.2634C4.22803 37.2634 3.86865 37.115 3.60316 36.8507L2.24162 35.4892C1.97729 35.2237 1.82889 34.8643 1.82889 34.4897C1.82889 34.115 1.97729 33.7556 2.24162 33.4901L33.7222 2.00952C33.8686 1.86198 34.0427 1.74488 34.2345 1.66497C34.4263 1.58506 34.632 1.54392 34.8398 1.54392C35.0476 1.54392 35.2533 1.58506 35.4451 1.66497C35.637 1.74488 35.811 1.86198 35.9574 2.00952L67.438 33.4901C67.7023 33.7556 67.8507 34.115 67.8507 34.4897C67.8507 34.8643 67.7023 35.2237 67.438 35.4892L66.0765 36.8507C65.811 37.115 65.4516 37.2634 65.077 37.2634C64.7023 37.2634 64.3429 37.115 64.0774 36.8507L35.3907 8.17972C35.3176 8.10595 35.2305 8.0474 35.1346 8.00745C35.0387 7.96749 34.9358 7.94692 34.8319 7.94692C34.728 7.94692 34.6252 7.96749 34.5293 8.00745C34.4334 8.0474 34.3463 8.10595 34.2732 8.17972L5.60218 36.8507ZM1.8245 66.2693C1.8241 65.9071 1.91495 65.5507 2.08865 65.2328C2.26234 64.915 2.5133 64.646 2.81836 64.4508C3.12342 64.2555 3.47276 64.1402 3.83412 64.1155C4.19548 64.0909 4.55724 64.1577 4.88599 64.3097C4.99444 64.3596 5.11282 64.3841 5.23216 64.3815C5.3515 64.3789 5.46869 64.3492 5.57485 64.2946C5.681 64.24 5.77335 64.1619 5.8449 64.0664C5.91644 63.9708 5.96532 63.8603 5.98782 63.743C6.15075 62.887 6.59708 62.1108 7.25491 61.5394V68.4258H3.9888C3.41615 68.4258 2.86684 68.1988 2.46119 67.7946C2.05553 67.3905 1.82659 66.842 1.8245 66.2693ZM8.82894 68.4258V35.8591L34.8005 9.88754L60.2211 35.2452V42.6353H56.1994V41.1793C56.1995 40.5299 55.9448 39.9064 55.4901 39.4428C55.0353 38.9792 54.4168 38.7126 53.7675 38.7002H38.7198C38.0623 38.7002 37.4317 38.9614 36.9668 39.4263C36.5019 39.8912 36.2407 40.5218 36.2407 41.1793V68.4258H8.82894ZM37.8147 42.6353V41.1793C37.8147 40.9392 37.9101 40.709 38.0798 40.5393C38.2496 40.3696 38.4798 40.2742 38.7198 40.2742H53.7675C54.0062 40.2763 54.2344 40.3726 54.4024 40.5421C54.5705 40.7116 54.6647 40.9406 54.6647 41.1793V42.6353H37.8147ZM37.8147 68.4258V44.2093H47.0543C46.8969 44.6972 46.9441 43.6269 46.9441 58.0293C46.9441 58.6346 47.1846 59.2151 47.6126 59.6432C48.0406 60.0712 48.6211 60.3116 49.2265 60.3116H54.6254V68.4258H37.8147ZM56.1994 60.3116H58.3558V68.4258H56.1994V60.3116ZM62.9835 68.4258H59.9299V60.3116H62.9835V68.4258ZM74.3952 58.0293C74.3932 58.2165 74.3179 58.3955 74.1855 58.5279C74.0531 58.6603 73.8741 58.7356 73.6869 58.7376H49.2265C49.0392 58.7356 48.8603 58.6603 48.7279 58.5279C48.5955 58.3955 48.5202 58.2165 48.5181 58.0293V44.9176C48.5181 44.7298 48.5928 44.5496 48.7256 44.4168C48.8584 44.2839 49.0386 44.2093 49.2265 44.2093H73.6869C73.8748 44.2093 74.0549 44.2839 74.1878 44.4168C74.3206 44.5496 74.3952 44.7298 74.3952 44.9176V58.0293Z" fill="url(#paint1_linear_1310_10974)"/>
<path d="M73.6869 42.6353H61.7951V36.8192L62.9441 37.9683C63.2213 38.2464 63.5506 38.4672 63.9132 38.6178C64.2758 38.7684 64.6646 38.8459 65.0573 38.8459C65.4499 38.8459 65.8387 38.7684 66.2013 38.6178C66.564 38.4672 66.8933 38.2464 67.1704 37.9683L68.5398 36.6067C69.1002 36.0447 69.4149 35.2833 69.4149 34.4897C69.4149 33.696 69.1002 32.9347 68.5398 32.3726L37.0592 0.891953C36.459 0.31942 35.6614 0 34.8319 0C34.0025 0 33.2049 0.31942 32.6047 0.891953L19.3828 14.1138V10.281C19.9529 10.2528 20.4903 10.0068 20.8843 9.59384C21.2782 9.18086 21.4986 8.63241 21.4999 8.06166V5.87376C21.4978 5.28578 21.2633 4.72248 20.8476 4.30671C20.4318 3.89094 19.8685 3.65645 19.2805 3.65438H7.33361C6.74563 3.65645 6.18233 3.89094 5.76656 4.30671C5.3508 4.72248 5.1163 5.28578 5.11423 5.87376V8.07741C5.11793 8.64991 5.34273 9.19884 5.74165 9.60949C6.14057 10.0201 6.68275 10.2608 7.25491 10.281V26.2496L1.13193 32.3726C0.571556 32.9347 0.256884 33.696 0.256884 34.4897C0.256884 35.2833 0.571556 36.0447 1.13193 36.6067L2.49347 37.9683C3.05419 38.5282 3.8142 38.8426 4.6066 38.8426C5.399 38.8426 6.15901 38.5282 6.71974 37.9683L7.25491 37.4331V59.6427C6.06163 60.2766 5.14292 61.3269 4.6735 62.594C4.1602 62.4928 3.63136 62.5004 3.1212 62.6164C2.61104 62.7325 2.13092 62.9543 1.71188 63.2675C1.29284 63.5808 0.944229 63.9785 0.688584 64.435C0.432938 64.8915 0.275956 65.3965 0.22779 65.9175C0.179624 66.4385 0.241348 66.9638 0.408968 67.4594C0.576588 67.955 0.846372 68.4099 1.20087 68.7947C1.55537 69.1794 1.98669 69.4855 2.46693 69.6931C2.94717 69.9007 3.46564 70.0052 3.9888 69.9998H63.802C64.0107 69.9998 64.2109 69.9169 64.3585 69.7693C64.5061 69.6217 64.589 69.4215 64.589 69.2128V60.3116H73.7184C74.3237 60.3116 74.9042 60.0712 75.3323 59.6432C75.7603 59.2151 76.0007 58.6346 76.0007 58.0293V44.9176C76.0008 44.6152 75.9407 44.3158 75.824 44.0369C75.7074 43.7579 75.5364 43.5049 75.3212 43.2925C75.1059 43.0802 74.8505 42.9127 74.57 42.7999C74.2894 42.687 73.9893 42.6311 73.6869 42.6353ZM6.68826 8.06166V5.87376C6.68616 5.7877 6.7013 5.70208 6.73279 5.62196C6.76428 5.54184 6.81149 5.46882 6.87162 5.40722C6.93176 5.34561 7.00361 5.29667 7.08296 5.26325C7.1623 5.22984 7.24752 5.21264 7.33361 5.21267H19.312C19.4804 5.22084 19.6389 5.29458 19.7536 5.41813C19.8684 5.54168 19.9302 5.70522 19.9259 5.87376V8.07741C19.9259 8.24856 19.8579 8.41271 19.7368 8.53374C19.6158 8.65477 19.4517 8.72276 19.2805 8.72276H7.33361C7.24752 8.72278 7.1623 8.70558 7.08296 8.67217C7.00361 8.63876 6.93176 8.58981 6.87162 8.52821C6.81149 8.4666 6.76428 8.39359 6.73279 8.31347C6.7013 8.23334 6.68616 8.14773 6.68826 8.06166ZM8.82894 10.281H17.8088V15.6957L8.82894 24.6756V10.281ZM5.60218 36.8507C5.33669 37.115 4.97731 37.2634 4.60267 37.2634C4.22803 37.2634 3.86865 37.115 3.60316 36.8507L2.24162 35.4892C1.97729 35.2237 1.82889 34.8643 1.82889 34.4897C1.82889 34.115 1.97729 33.7556 2.24162 33.4901L33.7222 2.00952C33.8686 1.86198 34.0427 1.74488 34.2345 1.66497C34.4263 1.58506 34.632 1.54392 34.8398 1.54392C35.0476 1.54392 35.2533 1.58506 35.4451 1.66497C35.637 1.74488 35.811 1.86198 35.9574 2.00952L67.438 33.4901C67.7023 33.7556 67.8507 34.115 67.8507 34.4897C67.8507 34.8643 67.7023 35.2237 67.438 35.4892L66.0765 36.8507C65.811 37.115 65.4516 37.2634 65.077 37.2634C64.7023 37.2634 64.3429 37.115 64.0774 36.8507L35.3907 8.17972C35.3176 8.10595 35.2305 8.0474 35.1346 8.00745C35.0387 7.96749 34.9358 7.94692 34.8319 7.94692C34.728 7.94692 34.6252 7.96749 34.5293 8.00745C34.4334 8.0474 34.3463 8.10595 34.2732 8.17972L5.60218 36.8507ZM1.8245 66.2693C1.8241 65.9071 1.91495 65.5507 2.08865 65.2328C2.26234 64.915 2.5133 64.646 2.81836 64.4508C3.12342 64.2555 3.47276 64.1402 3.83412 64.1155C4.19548 64.0909 4.55724 64.1577 4.88599 64.3097C4.99444 64.3596 5.11282 64.3841 5.23216 64.3815C5.3515 64.3789 5.46869 64.3492 5.57485 64.2946C5.681 64.24 5.77335 64.1619 5.8449 64.0664C5.91644 63.9708 5.96532 63.8603 5.98782 63.743C6.15075 62.887 6.59708 62.1108 7.25491 61.5394V68.4258H3.9888C3.41615 68.4258 2.86684 68.1988 2.46119 67.7946C2.05553 67.3905 1.82659 66.842 1.8245 66.2693ZM8.82894 68.4258V35.8591L34.8005 9.88754L60.2211 35.2452V42.6353H56.1994V41.1793C56.1995 40.5299 55.9448 39.9064 55.4901 39.4428C55.0353 38.9792 54.4168 38.7126 53.7675 38.7002H38.7198C38.0623 38.7002 37.4317 38.9614 36.9668 39.4263C36.5019 39.8912 36.2407 40.5218 36.2407 41.1793V68.4258H8.82894ZM37.8147 42.6353V41.1793C37.8147 40.9392 37.9101 40.709 38.0798 40.5393C38.2496 40.3696 38.4798 40.2742 38.7198 40.2742H53.7675C54.0062 40.2763 54.2344 40.3726 54.4024 40.5421C54.5705 40.7116 54.6647 40.9406 54.6647 41.1793V42.6353H37.8147ZM37.8147 68.4258V44.2093H47.0543C46.8969 44.6972 46.9441 43.6269 46.9441 58.0293C46.9441 58.6346 47.1846 59.2151 47.6126 59.6432C48.0406 60.0712 48.6211 60.3116 49.2265 60.3116H54.6254V68.4258H37.8147ZM56.1994 60.3116H58.3558V68.4258H56.1994V60.3116ZM62.9835 68.4258H59.9299V60.3116H62.9835V68.4258ZM74.3952 58.0293C74.3932 58.2165 74.3179 58.3955 74.1855 58.5279C74.0531 58.6603 73.8741 58.7356 73.6869 58.7376H49.2265C49.0392 58.7356 48.8603 58.6603 48.7279 58.5279C48.5955 58.3955 48.5202 58.2165 48.5181 58.0293V44.9176C48.5181 44.7298 48.5928 44.5496 48.7256 44.4168C48.8584 44.2839 49.0386 44.2093 49.2265 44.2093H73.6869C73.8748 44.2093 74.0549 44.2839 74.1878 44.4168C74.3206 44.5496 74.3952 44.7298 74.3952 44.9176V58.0293Z" fill="black" fill-opacity="0.2"/>
<path d="M54.6644 51.3475C55.0613 51.1036 55.3671 50.7359 55.5347 50.3012C55.7022 49.8664 55.7222 49.3887 55.5916 48.9414C55.461 48.4942 55.1871 48.1023 54.8119 47.826C54.4367 47.5497 53.9812 47.4044 53.5153 47.4124H51.7445C51.5358 47.4124 51.3356 47.4953 51.188 47.6429C51.0404 47.7905 50.9575 47.9907 50.9575 48.1994V54.7002C50.9575 54.9089 51.0404 55.1091 51.188 55.2567C51.3356 55.4043 51.5358 55.4872 51.7445 55.4872C51.9533 55.4872 52.1534 55.4043 52.301 55.2567C52.4486 55.1091 52.5316 54.9089 52.5316 54.7002V51.6938H53.051L54.625 54.5585C54.9162 55.0937 55.0579 55.5108 55.6167 55.5108C55.7528 55.5098 55.8863 55.4735 56.0043 55.4055C56.1222 55.3375 56.2204 55.24 56.2894 55.1227C56.3584 55.0053 56.3958 54.872 56.3979 54.7359C56.4 54.5998 56.3667 54.4655 56.3014 54.346L54.6644 51.3475ZM52.5316 48.9865H53.5153C53.6529 48.9945 53.7826 49.0531 53.8796 49.1509C53.9766 49.2487 54.034 49.379 54.0408 49.5166C54.0477 49.6542 54.0034 49.7895 53.9166 49.8964C53.8298 50.0034 53.7065 50.0745 53.5704 50.0962H52.5473L52.5316 48.9865ZM60.1656 49.0101C60.3743 49.0101 60.5745 48.9271 60.7221 48.7796C60.8697 48.632 60.9526 48.4318 60.9526 48.223C60.9526 48.0143 60.8697 47.8141 60.7221 47.6665C60.5745 47.519 60.3743 47.436 60.1656 47.436H57.8046C57.5958 47.436 57.3956 47.519 57.248 47.6665C57.1005 47.8141 57.0175 48.0143 57.0175 48.223V54.7238C57.0175 54.9325 57.1005 55.1327 57.248 55.2803C57.3956 55.4279 57.5958 55.5108 57.8046 55.5108H60.1656C60.3743 55.5108 60.5745 55.4279 60.7221 55.2803C60.8697 55.1327 60.9526 54.9325 60.9526 54.7238C60.9526 54.5151 60.8697 54.3149 60.7221 54.1673C60.5745 54.0197 60.3743 53.9368 60.1656 53.9368H58.5916V52.2604H59.1976C59.4063 52.2604 59.6065 52.1775 59.7541 52.0299C59.9017 51.8823 59.9846 51.6822 59.9846 51.4734C59.9846 51.2647 59.9017 51.0645 59.7541 50.9169C59.6065 50.7693 59.4063 50.6864 59.1976 50.6864H58.568V49.0101H60.1656ZM65.8715 47.436C65.6627 47.436 65.4626 47.519 65.315 47.6665C65.1674 47.8141 65.0844 48.0143 65.0844 48.223V51.3711L63.3688 47.8768C63.291 47.7162 63.161 47.5868 63 47.5098C62.839 47.4328 62.6567 47.4128 62.4829 47.4531C62.3091 47.4933 62.1541 47.5915 62.0433 47.7314C61.9326 47.8713 61.8727 48.0446 61.8734 48.223V54.7238C61.8734 54.9325 61.9563 55.1327 62.1039 55.2803C62.2515 55.4279 62.4517 55.5108 62.6604 55.5108C62.8692 55.5108 63.0694 55.4279 63.2169 55.2803C63.3645 55.1327 63.4475 54.9325 63.4475 54.7238V51.5757L65.1632 55.0543C65.2409 55.2149 65.3709 55.3443 65.5319 55.4213C65.6929 55.4983 65.8752 55.5183 66.049 55.478C66.2228 55.4378 66.3778 55.3397 66.4886 55.1998C66.5993 55.0599 66.6592 54.8865 66.6585 54.7081V48.223C66.6585 48.0143 66.5756 47.8141 66.428 47.6665C66.2804 47.519 66.0802 47.436 65.8715 47.436ZM71.176 47.436H67.7839C67.5752 47.436 67.375 47.519 67.2274 47.6665C67.0798 47.8141 66.9969 48.0143 66.9969 48.223C66.9969 48.4318 67.0798 48.632 67.2274 48.7796C67.375 48.9271 67.5752 49.0101 67.7839 49.0101H68.7205V54.7238C68.7205 54.9325 68.8034 55.1327 68.951 55.2803C69.0986 55.4279 69.2987 55.5108 69.5075 55.5108C69.7162 55.5108 69.9164 55.4279 70.064 55.2803C70.2116 55.1327 70.2945 54.9325 70.2945 54.7238V49.0101H71.2074C71.4162 49.0101 71.6163 48.9271 71.7639 48.7796C71.9115 48.632 71.9944 48.4318 71.9944 48.223C71.9944 48.0143 71.9115 47.8141 71.7639 47.6665C71.6163 47.519 71.4162 47.436 71.2074 47.436H71.176Z" fill="url(#paint2_linear_1310_10974)"/>
<path d="M54.6644 51.3475C55.0613 51.1036 55.3671 50.7359 55.5347 50.3012C55.7022 49.8664 55.7222 49.3887 55.5916 48.9414C55.461 48.4942 55.1871 48.1023 54.8119 47.826C54.4367 47.5497 53.9812 47.4044 53.5153 47.4124H51.7445C51.5358 47.4124 51.3356 47.4953 51.188 47.6429C51.0404 47.7905 50.9575 47.9907 50.9575 48.1994V54.7002C50.9575 54.9089 51.0404 55.1091 51.188 55.2567C51.3356 55.4043 51.5358 55.4872 51.7445 55.4872C51.9533 55.4872 52.1534 55.4043 52.301 55.2567C52.4486 55.1091 52.5316 54.9089 52.5316 54.7002V51.6938H53.051L54.625 54.5585C54.9162 55.0937 55.0579 55.5108 55.6167 55.5108C55.7528 55.5098 55.8863 55.4735 56.0043 55.4055C56.1222 55.3375 56.2204 55.24 56.2894 55.1227C56.3584 55.0053 56.3958 54.872 56.3979 54.7359C56.4 54.5998 56.3667 54.4655 56.3014 54.346L54.6644 51.3475ZM52.5316 48.9865H53.5153C53.6529 48.9945 53.7826 49.0531 53.8796 49.1509C53.9766 49.2487 54.034 49.379 54.0408 49.5166C54.0477 49.6542 54.0034 49.7895 53.9166 49.8964C53.8298 50.0034 53.7065 50.0745 53.5704 50.0962H52.5473L52.5316 48.9865ZM60.1656 49.0101C60.3743 49.0101 60.5745 48.9271 60.7221 48.7796C60.8697 48.632 60.9526 48.4318 60.9526 48.223C60.9526 48.0143 60.8697 47.8141 60.7221 47.6665C60.5745 47.519 60.3743 47.436 60.1656 47.436H57.8046C57.5958 47.436 57.3956 47.519 57.248 47.6665C57.1005 47.8141 57.0175 48.0143 57.0175 48.223V54.7238C57.0175 54.9325 57.1005 55.1327 57.248 55.2803C57.3956 55.4279 57.5958 55.5108 57.8046 55.5108H60.1656C60.3743 55.5108 60.5745 55.4279 60.7221 55.2803C60.8697 55.1327 60.9526 54.9325 60.9526 54.7238C60.9526 54.5151 60.8697 54.3149 60.7221 54.1673C60.5745 54.0197 60.3743 53.9368 60.1656 53.9368H58.5916V52.2604H59.1976C59.4063 52.2604 59.6065 52.1775 59.7541 52.0299C59.9017 51.8823 59.9846 51.6822 59.9846 51.4734C59.9846 51.2647 59.9017 51.0645 59.7541 50.9169C59.6065 50.7693 59.4063 50.6864 59.1976 50.6864H58.568V49.0101H60.1656ZM65.8715 47.436C65.6627 47.436 65.4626 47.519 65.315 47.6665C65.1674 47.8141 65.0844 48.0143 65.0844 48.223V51.3711L63.3688 47.8768C63.291 47.7162 63.161 47.5868 63 47.5098C62.839 47.4328 62.6567 47.4128 62.4829 47.4531C62.3091 47.4933 62.1541 47.5915 62.0433 47.7314C61.9326 47.8713 61.8727 48.0446 61.8734 48.223V54.7238C61.8734 54.9325 61.9563 55.1327 62.1039 55.2803C62.2515 55.4279 62.4517 55.5108 62.6604 55.5108C62.8692 55.5108 63.0694 55.4279 63.2169 55.2803C63.3645 55.1327 63.4475 54.9325 63.4475 54.7238V51.5757L65.1632 55.0543C65.2409 55.2149 65.3709 55.3443 65.5319 55.4213C65.6929 55.4983 65.8752 55.5183 66.049 55.478C66.2228 55.4378 66.3778 55.3397 66.4886 55.1998C66.5993 55.0599 66.6592 54.8865 66.6585 54.7081V48.223C66.6585 48.0143 66.5756 47.8141 66.428 47.6665C66.2804 47.519 66.0802 47.436 65.8715 47.436ZM71.176 47.436H67.7839C67.5752 47.436 67.375 47.519 67.2274 47.6665C67.0798 47.8141 66.9969 48.0143 66.9969 48.223C66.9969 48.4318 67.0798 48.632 67.2274 48.7796C67.375 48.9271 67.5752 49.0101 67.7839 49.0101H68.7205V54.7238C68.7205 54.9325 68.8034 55.1327 68.951 55.2803C69.0986 55.4279 69.2987 55.5108 69.5075 55.5108C69.7162 55.5108 69.9164 55.4279 70.064 55.2803C70.2116 55.1327 70.2945 54.9325 70.2945 54.7238V49.0101H71.2074C71.4162 49.0101 71.6163 48.9271 71.7639 48.7796C71.9115 48.632 71.9944 48.4318 71.9944 48.223C71.9944 48.0143 71.9115 47.8141 71.7639 47.6665C71.6163 47.519 71.4162 47.436 71.2074 47.436H71.176Z" fill="black" fill-opacity="0.2"/>
<defs>
<linearGradient id="paint0_linear_1310_10974" x1="13.4875" y1="40.4516" x2="33.5355" y2="53.4758" gradientUnits="userSpaceOnUse">
<stop offset="0.03125" stop-color="#003B40"/>
<stop offset="0.265625" stop-color="#005961"/>
<stop offset="0.509791" stop-color="#00818C"/>
<stop offset="0.760417" stop-color="#005961"/>
<stop offset="0.994792" stop-color="#003B40"/>
</linearGradient>
<linearGradient id="paint1_linear_1310_10974" x1="2.66015" y1="5.38461" x2="68.5054" y2="58.1766" gradientUnits="userSpaceOnUse">
<stop offset="0.03125" stop-color="#003B40"/>
<stop offset="0.265625" stop-color="#005961"/>
<stop offset="0.509791" stop-color="#00818C"/>
<stop offset="0.760417" stop-color="#005961"/>
<stop offset="0.994792" stop-color="#003B40"/>
</linearGradient>
<linearGradient id="paint2_linear_1310_10974" x1="51.6371" y1="48.0351" x2="58.0254" y2="60.3234" gradientUnits="userSpaceOnUse">
<stop offset="0.03125" stop-color="#003B40"/>
<stop offset="0.265625" stop-color="#005961"/>
<stop offset="0.509791" stop-color="#00818C"/>
<stop offset="0.760417" stop-color="#005961"/>
<stop offset="0.994792" stop-color="#003B40"/>
</linearGradient>
</defs>
</svg>
