<svg width="63" height="70" viewBox="0 0 63 70" fill="none" xmlns="http://www.w3.org/2000/svg">
<path d="M38.2648 37.171H14.2133V45.0548L10.8008 45.9019C10.7921 44.0999 9.33307 42.637 7.5399 42.637H0V44.8236H1.09281H7.53892C8.13147 44.8236 8.61425 45.3132 8.61425 45.9164V46.5974V47.7485V48.8986V62.3163V63.4091H7.53892H6.44612H1.09475H0.0019417V65.5957H10.8028V64.5496L26.2264 70L33.133 68.8606L49.4464 62.7593C50.2906 62.4815 51.2066 61.9307 52.1314 61.2226H62.3173V37.171H38.2648ZM60.1307 59.036H54.5569C55.2398 58.3327 55.8945 57.5896 56.4909 56.8494C57.3555 56.8494 56.1024 56.8494 57.9451 56.8494V54.8911C58.2462 54.4462 58.5143 54.0197 58.7378 53.6273C59.2769 52.6792 59.0816 51.4961 58.2618 50.75C57.6449 50.1876 57.0378 49.8059 56.455 49.6135C55.4117 49.2687 54.2791 49.5203 53.4816 50.2692L49.5902 53.2417C50.0429 51.9769 50.2925 50.615 50.2925 49.1958C50.2925 45.1315 48.2643 41.5345 45.1675 39.3567H60.1307V59.036ZM48.7189 60.697L47.3201 61.2226L34.2307 66.1358L30.2645 64.127L29.2756 66.0775L31.0688 66.9858L26.4246 67.7512L11.0437 62.3163H10.8018V48.1759L11.1185 48.071L14.2133 47.3055L15.3061 47.0355L15.6393 46.9539C15.8919 46.8917 16.1454 46.8373 16.3999 46.7839C18.8944 46.2555 21.4375 46.1408 23.9748 46.4536L26.4868 46.7654L27.5786 46.9004L28.5073 47.0151L28.6802 47.0024L41.6268 46.0602C42.5263 46.0107 43.3151 46.6168 43.488 47.4736C43.5851 47.9534 43.4792 48.4382 43.1898 48.8384C42.8925 49.2473 42.4505 49.5057 41.9163 49.5669L32.0625 50.9657C30.8677 51.1046 29.8147 51.8157 29.2475 52.8696C29.2251 52.9104 29.2105 52.9541 29.1901 52.9949C28.9288 53.5282 28.8064 54.1081 28.822 54.688C28.8366 55.2155 28.9599 55.741 29.2047 56.2248C29.7166 57.2379 30.6511 57.9461 31.8139 58.1753L32.0956 58.22L37.2925 59.036L37.3673 59.0476L37.4498 59.036L37.6635 59.0059L41.5957 58.4434L43.8493 58.1209L45.3404 57.5225L47.7747 56.5453L49.9419 55.675L54.8571 51.9691L54.962 51.8769C55.1708 51.6709 55.4865 51.5952 55.7673 51.6884C56.049 51.7817 56.4113 52.0226 56.7882 52.3655C56.8348 52.4082 56.8707 52.484 56.8358 52.5452C55.6478 54.6298 53.4097 57.3001 51.3494 59.035C50.8365 59.4673 50.3362 59.8354 49.8651 60.1278C49.4581 60.3823 49.0696 60.5814 48.7189 60.697ZM16.3999 39.3576H31.3631C29.4952 40.6729 28.0167 42.503 27.1376 44.6429L24.2429 44.2855C21.6172 43.9581 18.9857 44.0504 16.3999 44.5516V39.3576ZM46.3642 54.7716L43.4064 55.9751L37.3828 56.8377L32.1966 56.0227C31.742 55.9324 31.3631 55.6468 31.1572 55.2388C30.9415 54.8124 30.9474 54.3267 31.1737 53.9061C31.4059 53.4748 31.8216 53.195 32.3423 53.1338L42.196 51.736C43.3024 51.6078 44.3098 51.0191 44.9606 50.1235C45.6046 49.2366 45.8494 48.1127 45.6318 47.0403C45.2452 45.1218 43.4608 43.7522 41.484 43.8794L29.499 44.7498C31.1261 41.5549 34.4405 39.3567 38.2648 39.3567C43.69 39.3567 48.104 43.7706 48.104 49.1958C48.105 51.2659 47.459 53.1853 46.3642 54.7716ZM57.9441 43.7308C55.7575 43.7308 57.9441 43.7308 55.7575 43.7308V41.5442H57.9441V43.7308ZM18.5865 41.5442H20.7731V43.7308C18.5865 43.7308 20.7731 43.7308 18.5865 43.7308V41.5442ZM6.47331 49.1968C4.28673 49.1968 6.47331 49.1968 4.28673 49.1968V47.0102H6.47331V47.3045V48.3566V49.1968ZM21.8669 30.6113H34.9864V34.5668L42.8964 30.6113H54.6647C57.0757 30.6113 59.0379 28.6501 59.0379 26.2381V4.37318C59.0379 1.96123 57.0757 0 54.6647 0H21.8669C19.4559 0 17.4937 1.96123 17.4937 4.37318V26.2381C17.4937 28.6501 19.4549 30.6113 21.8669 30.6113ZM19.6793 4.37318C19.6793 3.16769 20.6604 2.18659 21.8659 2.18659H54.6638C55.8692 2.18659 56.8503 3.16769 56.8503 4.37318V26.2381C56.8503 27.4436 55.8702 28.4247 54.6638 28.4247H42.3806L37.172 31.029V28.4247H21.8669C20.6614 28.4247 19.6803 27.4436 19.6803 26.2381L19.6793 4.37318ZM31.706 25.1443H37.172H39.3586H44.8246V16.6719H48.6072L38.2648 4.90356L27.9235 16.6719H31.706V25.1443ZM38.2648 8.21598L43.7755 14.4863H42.639V22.9587H39.3586V20.7721H37.172V22.9587H33.8916V14.4863H32.7551L38.2648 8.21598ZM39.3586 17.4917H37.172V14.2123H39.3586V17.4917Z" fill="url(#paint0_linear_813_4405)"/>
<path d="M38.2648 37.171H14.2133V45.0548L10.8008 45.9019C10.7921 44.0999 9.33307 42.637 7.5399 42.637H0V44.8236H1.09281H7.53892C8.13147 44.8236 8.61425 45.3132 8.61425 45.9164V46.5974V47.7485V48.8986V62.3163V63.4091H7.53892H6.44612H1.09475H0.0019417V65.5957H10.8028V64.5496L26.2264 70L33.133 68.8606L49.4464 62.7593C50.2906 62.4815 51.2066 61.9307 52.1314 61.2226H62.3173V37.171H38.2648ZM60.1307 59.036H54.5569C55.2398 58.3327 55.8945 57.5896 56.4909 56.8494C57.3555 56.8494 56.1024 56.8494 57.9451 56.8494V54.8911C58.2462 54.4462 58.5143 54.0197 58.7378 53.6273C59.2769 52.6792 59.0816 51.4961 58.2618 50.75C57.6449 50.1876 57.0378 49.8059 56.455 49.6135C55.4117 49.2687 54.2791 49.5203 53.4816 50.2692L49.5902 53.2417C50.0429 51.9769 50.2925 50.615 50.2925 49.1958C50.2925 45.1315 48.2643 41.5345 45.1675 39.3567H60.1307V59.036ZM48.7189 60.697L47.3201 61.2226L34.2307 66.1358L30.2645 64.127L29.2756 66.0775L31.0688 66.9858L26.4246 67.7512L11.0437 62.3163H10.8018V48.1759L11.1185 48.071L14.2133 47.3055L15.3061 47.0355L15.6393 46.9539C15.8919 46.8917 16.1454 46.8373 16.3999 46.7839C18.8944 46.2555 21.4375 46.1408 23.9748 46.4536L26.4868 46.7654L27.5786 46.9004L28.5073 47.0151L28.6802 47.0024L41.6268 46.0602C42.5263 46.0107 43.3151 46.6168 43.488 47.4736C43.5851 47.9534 43.4792 48.4382 43.1898 48.8384C42.8925 49.2473 42.4505 49.5057 41.9163 49.5669L32.0625 50.9657C30.8677 51.1046 29.8147 51.8157 29.2475 52.8696C29.2251 52.9104 29.2105 52.9541 29.1901 52.9949C28.9288 53.5282 28.8064 54.1081 28.822 54.688C28.8366 55.2155 28.9599 55.741 29.2047 56.2248C29.7166 57.2379 30.6511 57.9461 31.8139 58.1753L32.0956 58.22L37.2925 59.036L37.3673 59.0476L37.4498 59.036L37.6635 59.0059L41.5957 58.4434L43.8493 58.1209L45.3404 57.5225L47.7747 56.5453L49.9419 55.675L54.8571 51.9691L54.962 51.8769C55.1708 51.6709 55.4865 51.5952 55.7673 51.6884C56.049 51.7817 56.4113 52.0226 56.7882 52.3655C56.8348 52.4082 56.8707 52.484 56.8358 52.5452C55.6478 54.6298 53.4097 57.3001 51.3494 59.035C50.8365 59.4673 50.3362 59.8354 49.8651 60.1278C49.4581 60.3823 49.0696 60.5814 48.7189 60.697ZM16.3999 39.3576H31.3631C29.4952 40.6729 28.0167 42.503 27.1376 44.6429L24.2429 44.2855C21.6172 43.9581 18.9857 44.0504 16.3999 44.5516V39.3576ZM46.3642 54.7716L43.4064 55.9751L37.3828 56.8377L32.1966 56.0227C31.742 55.9324 31.3631 55.6468 31.1572 55.2388C30.9415 54.8124 30.9474 54.3267 31.1737 53.9061C31.4059 53.4748 31.8216 53.195 32.3423 53.1338L42.196 51.736C43.3024 51.6078 44.3098 51.0191 44.9606 50.1235C45.6046 49.2366 45.8494 48.1127 45.6318 47.0403C45.2452 45.1218 43.4608 43.7522 41.484 43.8794L29.499 44.7498C31.1261 41.5549 34.4405 39.3567 38.2648 39.3567C43.69 39.3567 48.104 43.7706 48.104 49.1958C48.105 51.2659 47.459 53.1853 46.3642 54.7716ZM57.9441 43.7308C55.7575 43.7308 57.9441 43.7308 55.7575 43.7308V41.5442H57.9441V43.7308ZM18.5865 41.5442H20.7731V43.7308C18.5865 43.7308 20.7731 43.7308 18.5865 43.7308V41.5442ZM6.47331 49.1968C4.28673 49.1968 6.47331 49.1968 4.28673 49.1968V47.0102H6.47331V47.3045V48.3566V49.1968ZM21.8669 30.6113H34.9864V34.5668L42.8964 30.6113H54.6647C57.0757 30.6113 59.0379 28.6501 59.0379 26.2381V4.37318C59.0379 1.96123 57.0757 0 54.6647 0H21.8669C19.4559 0 17.4937 1.96123 17.4937 4.37318V26.2381C17.4937 28.6501 19.4549 30.6113 21.8669 30.6113ZM19.6793 4.37318C19.6793 3.16769 20.6604 2.18659 21.8659 2.18659H54.6638C55.8692 2.18659 56.8503 3.16769 56.8503 4.37318V26.2381C56.8503 27.4436 55.8702 28.4247 54.6638 28.4247H42.3806L37.172 31.029V28.4247H21.8669C20.6614 28.4247 19.6803 27.4436 19.6803 26.2381L19.6793 4.37318ZM31.706 25.1443H37.172H39.3586H44.8246V16.6719H48.6072L38.2648 4.90356L27.9235 16.6719H31.706V25.1443ZM38.2648 8.21598L43.7755 14.4863H42.639V22.9587H39.3586V20.7721H37.172V22.9587H33.8916V14.4863H32.7551L38.2648 8.21598ZM39.3586 17.4917H37.172V14.2123H39.3586V17.4917Z" fill="black" fill-opacity="0.2"/>
<defs>
<linearGradient id="paint0_linear_813_4405" x1="2.01306" y1="5.38461" x2="64.0121" y2="46.2572" gradientUnits="userSpaceOnUse">
<stop offset="0.03125" stop-color="#003B40"/>
<stop offset="0.265625" stop-color="#005961"/>
<stop offset="0.509791" stop-color="#00818C"/>
<stop offset="0.760417" stop-color="#005961"/>
<stop offset="0.994792" stop-color="#003B40"/>
</linearGradient>
</defs>
</svg>
