<svg width="39" height="27" viewBox="0 0 39 27" fill="none" xmlns="http://www.w3.org/2000/svg">
<path fill-rule="evenodd" clip-rule="evenodd" d="M4.22928 24.4879H4.93414V25.3757C4.93414 25.7641 5.25027 26.0802 5.64006 26.0802H36.6518C36.7445 26.0802 36.8364 26.062 36.922 26.0265C37.0077 25.9911 37.0855 25.9391 37.1511 25.8735C37.2167 25.808 37.2687 25.7301 37.3041 25.6445C37.3396 25.5588 37.3578 25.467 37.3577 25.3743V5.64027C37.3577 5.45326 37.2834 5.27392 37.1513 5.14159C37.0191 5.00925 36.8399 4.93473 36.6529 4.93435H35.6397V4.22949H36.6529C37.4314 4.22949 38.0626 4.8621 38.0626 5.64027V25.3743C38.0627 25.5595 38.0262 25.743 37.9553 25.9142C37.8844 26.0854 37.7805 26.2409 37.6495 26.3719C37.5185 26.503 37.363 26.6069 37.1918 26.6778C37.0206 26.7486 36.8371 26.7851 36.6518 26.785H5.64006C5.26605 26.7851 4.90732 26.6367 4.64276 26.3723C4.37819 26.108 4.22947 25.7493 4.22928 25.3753V24.4879Z" fill="#E6EDED"/>
<path fill-rule="evenodd" clip-rule="evenodd" d="M2.11472 22.3727H2.81958V23.2604C2.81958 23.6488 3.13571 23.965 3.5255 23.965H34.5373C34.63 23.965 34.7218 23.9468 34.8075 23.9113C34.8931 23.8759 34.971 23.8239 35.0365 23.7583C35.1021 23.6927 35.1541 23.6149 35.1895 23.5292C35.225 23.4436 35.2432 23.3517 35.2432 23.259V3.52504C35.2435 3.33828 35.1696 3.15904 35.0379 3.02669C34.9061 2.89433 34.7272 2.81968 34.5404 2.81912H33.5427V2.11426H34.5404C34.9141 2.11482 35.2723 2.26373 35.5363 2.52828C35.8002 2.79282 35.9483 3.15134 35.948 3.52504V23.259C35.9481 23.4443 35.9116 23.6278 35.8408 23.799C35.7699 23.9702 35.666 24.1257 35.5349 24.2567C35.4039 24.3877 35.2484 24.4916 35.0772 24.5625C34.906 24.6334 34.7225 24.6699 34.5373 24.6698H3.5255C3.15149 24.6699 2.79276 24.5214 2.52819 24.2571C2.26363 23.9927 2.1149 23.6341 2.11472 23.2601V22.3727Z" fill="#E6EDED"/>
<path fill-rule="evenodd" clip-rule="evenodd" d="M0.704983 1.41078V21.1448C0.704983 21.5335 1.02147 21.8507 1.4109 21.8507H32.4227C32.5154 21.8507 32.6072 21.8325 32.6929 21.7971C32.7785 21.7616 32.8564 21.7096 32.9219 21.644C32.9875 21.5785 33.0395 21.5006 33.075 21.415C33.1104 21.3293 33.1286 21.2375 33.1286 21.1448V1.41078C33.1284 1.22362 33.054 1.04417 32.9216 0.911826C32.7893 0.779481 32.6098 0.705048 32.4227 0.704861H1.4109C1.31819 0.704815 1.22637 0.723042 1.1407 0.758501C1.05504 0.793961 0.977199 0.845957 0.911639 0.911517C0.846079 0.977077 0.794083 1.05491 0.758624 1.14058C0.723164 1.22625 0.704937 1.31806 0.704983 1.41078ZM0.000122114 1.41078C7.58119e-05 1.2255 0.036535 1.04203 0.107417 0.870843C0.178299 0.699658 0.282214 0.544117 0.413226 0.413105C0.544239 0.282093 0.69978 0.178177 0.870965 0.107295C1.04215 0.0364133 1.22562 -4.62584e-05 1.4109 4.40466e-08H32.4227C32.7968 0.000186816 33.1555 0.148882 33.42 0.413414C33.6846 0.677946 33.8333 1.03667 33.8335 1.41078V21.1448C33.8335 21.3301 33.797 21.5135 33.7262 21.6847C33.6553 21.8559 33.5514 22.0114 33.4204 22.1425C33.2893 22.2735 33.1338 22.3774 32.9626 22.4483C32.7914 22.5191 32.608 22.5556 32.4227 22.5556H1.4109C1.0368 22.5554 0.678068 22.4067 0.413536 22.1421C0.149004 21.8776 0.000308887 21.5189 0.000122114 21.1448V1.41078Z" fill="#E6EDED"/>
<path fill-rule="evenodd" clip-rule="evenodd" d="M8.81108 9.37442L7.99027 11.1694L8.17671 9.20455L6.56822 10.3485L7.71221 8.74005L5.74741 8.92648L7.54234 8.10567L5.74741 7.28486L7.71221 7.4713L6.56822 5.8628L8.17671 7.00679L7.99027 5.04199L8.81108 6.83692L9.6319 5.04199L9.44546 7.00679L11.054 5.8628L9.90996 7.4713L11.8748 7.28486L10.0798 8.10567L11.8748 8.92648L9.90996 8.74005L11.054 10.3485L9.44546 9.20455L9.6319 11.1694L8.81108 9.37442ZM9.8504 19.2841L12.1532 15.4052C12.3513 15.0722 12.673 15.0739 12.87 15.4052L14.9786 18.957V17.9773C14.9786 17.7809 15.0562 17.4821 15.1478 17.3154L20.0994 8.3707C20.2883 8.0299 20.595 8.03025 20.7835 8.36999L25.9935 17.7478L25.5871 15.8574C25.5462 15.6671 25.5924 15.3798 25.6953 15.2089L26.4238 13.9944C26.6233 13.6621 26.9454 13.6603 27.1491 13.9994L31.0142 20.4407H7.04893L8.43751 18.2194C8.64368 17.8891 8.98025 17.8916 9.18466 18.2194L9.8504 19.2841Z" fill="#E6EDED"/>
<path fill-rule="evenodd" clip-rule="evenodd" d="M2.46715 2.82159V19.7333C2.46715 19.9289 2.62504 20.0882 2.81746 20.0882H31.0161C31.2103 20.0882 31.3665 19.9307 31.3665 19.7333V2.82159C31.3665 2.62599 31.2086 2.46669 31.0161 2.46669H2.81746C2.7711 2.46678 2.72521 2.47605 2.68245 2.49398C2.63969 2.5119 2.6009 2.53812 2.56833 2.57112C2.53576 2.60411 2.51005 2.64324 2.49268 2.68623C2.47531 2.72922 2.46664 2.77522 2.46715 2.82159ZM2.11472 2.82159C2.11472 2.43074 2.42732 2.11426 2.81746 2.11426H31.0161C31.4042 2.11426 31.7189 2.4325 31.7189 2.82159V19.7333C31.7194 19.826 31.7016 19.9178 31.6665 20.0035C31.6314 20.0893 31.5798 20.1673 31.5145 20.233C31.4492 20.2987 31.3715 20.3509 31.286 20.3865C31.2005 20.4222 31.1088 20.4406 31.0161 20.4406H2.81746C2.63055 20.4398 2.4516 20.3649 2.31986 20.2323C2.18811 20.0997 2.11434 19.9202 2.11472 19.7333V2.82159Z" fill="#E6EDED"/>
</svg>
