<svg width="402" height="126" viewBox="0 0 402 126" fill="none" xmlns="http://www.w3.org/2000/svg">
<g filter="url(#filter0_ii_1602_12544)">
<path fill-rule="evenodd" clip-rule="evenodd" d="M1.23798 116.7C1 114.87 1 112.488 1 109.096V17.1C1 11.4051 1 8.55765 2.12585 6.39027C3.07462 4.56384 4.56381 3.07463 6.39026 2.12587C8.55765 1.00001 11.4051 1.00001 17.1 1.00001L109.096 1C114.791 1 117.638 0.999999 119.806 2.12586C121.632 3.07462 123.121 4.56383 124.07 6.39026C125.196 8.55764 125.196 11.4051 125.196 17.1V109.096C125.196 109.406 125.196 109.707 125.196 110H401.196V125H116.348C114.566 125.196 112.275 125.196 109.096 125.196L17.1 125.196C13.9212 125.196 11.6296 125.196 9.84821 125H8.6958C4.55365 125 1.1958 121.642 1.1958 117.5C1.1958 117.23 1.21008 116.963 1.23798 116.7Z" fill="#00494F"/>
</g>
<path d="M1.23798 116.7L1.7338 116.636L1.74141 116.694L1.73519 116.753L1.23798 116.7ZM2.12585 6.39027L1.68215 6.15978L1.68215 6.15978L2.12585 6.39027ZM6.39026 2.12587L6.15977 1.68216L6.15977 1.68216L6.39026 2.12587ZM17.1 1.00001L17.1 1.50001L17.1 1.00001ZM109.096 1L109.096 0.5L109.096 1ZM119.806 2.12586L120.036 1.68215L120.036 1.68216L119.806 2.12586ZM124.07 6.39026L124.514 6.15977L124.514 6.15977L124.07 6.39026ZM125.196 110V110.5H124.695L124.696 110L125.196 110ZM401.196 110V109.5H401.696V110H401.196ZM401.196 125H401.696V125.5H401.196V125ZM116.348 125L116.293 124.503L116.32 124.5H116.348V125ZM109.096 125.196L109.096 124.696H109.096V125.196ZM17.1 125.196L17.1 125.696H17.1V125.196ZM9.84821 125V124.5H9.8756L9.90283 124.503L9.84821 125ZM1.5 109.096C1.5 112.503 1.50101 114.846 1.7338 116.636L0.742152 116.764C0.498986 114.895 0.5 112.474 0.5 109.096H1.5ZM1.5 17.1V109.096H0.5V17.1H1.5ZM2.56956 6.62075C2.04989 7.62118 1.77713 8.80052 1.63902 10.4637C1.5004 12.1329 1.5 14.2442 1.5 17.1H0.5C0.5 14.2609 0.499598 12.1011 0.642447 10.3809C0.785793 8.65481 1.07597 7.32674 1.68215 6.15978L2.56956 6.62075ZM6.62075 2.56958C4.88562 3.4709 3.47088 4.88565 2.56956 6.62076L1.68215 6.15978C2.67835 4.24203 4.242 2.67836 6.15977 1.68216L6.62075 2.56958ZM17.1 1.50001C14.2442 1.50001 12.1328 1.50041 10.4637 1.63903C8.80052 1.77714 7.62118 2.0499 6.62075 2.56958L6.15977 1.68216C7.32673 1.07598 8.6548 0.785804 10.3809 0.642457C12.1011 0.499607 14.2609 0.500008 17.1 0.500008L17.1 1.50001ZM109.096 1.5L17.1 1.50001L17.1 0.500008L109.096 0.5L109.096 1.5ZM119.575 2.56957C118.575 2.04989 117.395 1.77714 115.732 1.63902C114.063 1.5004 111.952 1.5 109.096 1.5L109.096 0.5C111.935 0.5 114.095 0.499598 115.815 0.642447C117.541 0.785794 118.869 1.07597 120.036 1.68215L119.575 2.56957ZM123.626 6.62075C122.725 4.88564 121.31 3.47089 119.575 2.56957L120.036 1.68216C121.954 2.67835 123.518 4.24202 124.514 6.15977L123.626 6.62075ZM124.696 17.1C124.696 14.2442 124.696 12.1328 124.557 10.4637C124.419 8.80052 124.146 7.62117 123.626 6.62074L124.514 6.15977C125.12 7.32673 125.41 8.6548 125.553 10.3809C125.696 12.1011 125.696 14.2609 125.696 17.1H124.696ZM124.696 109.096V17.1H125.696V109.096H124.696ZM124.696 110C124.696 109.707 124.696 109.406 124.696 109.096H125.696C125.696 109.406 125.696 109.707 125.696 110L124.696 110ZM401.196 110.5H125.196V109.5H401.196V110.5ZM400.696 125V110H401.696V125H400.696ZM116.348 124.5H401.196V125.5H116.348V124.5ZM109.096 124.696C112.286 124.696 114.545 124.695 116.293 124.503L116.402 125.497C114.587 125.697 112.263 125.696 109.096 125.696V124.696ZM17.1 124.696L109.096 124.696L109.096 125.696L17.1 125.696L17.1 124.696ZM9.90283 124.503C11.6504 124.695 13.9095 124.696 17.1 124.696V125.696C13.9329 125.696 11.6087 125.697 9.79358 125.497L9.90283 124.503ZM8.6958 124.5H9.84821V125.5H8.6958V124.5ZM1.6958 117.5C1.6958 121.366 4.82979 124.5 8.6958 124.5V125.5C4.27751 125.5 0.695801 121.918 0.695801 117.5H1.6958ZM1.73519 116.753C1.70915 116.998 1.6958 117.247 1.6958 117.5H0.695801C0.695801 117.212 0.711015 116.928 0.740767 116.647L1.73519 116.753Z" fill="#CED7D8"/>
<defs>
<filter id="filter0_ii_1602_12544" x="-3.82259" y="-3.82259" width="409.841" height="133.841" filterUnits="userSpaceOnUse" color-interpolation-filters="sRGB">
<feFlood flood-opacity="0" result="BackgroundImageFix"/>
<feBlend mode="normal" in="SourceGraphic" in2="BackgroundImageFix" result="shape"/>
<feColorMatrix in="SourceAlpha" type="matrix" values="0 0 0 0 0 0 0 0 0 0 0 0 0 0 0 0 0 0 127 0" result="hardAlpha"/>
<feOffset dx="4.32259" dy="4.32259"/>
<feGaussianBlur stdDeviation="2.82637"/>
<feComposite in2="hardAlpha" operator="arithmetic" k2="-1" k3="1"/>
<feColorMatrix type="matrix" values="0 0 0 0 0 0 0 0 0 0.176471 0 0 0 0 0.192157 0 0 0 1 0"/>
<feBlend mode="normal" in2="shape" result="effect1_innerShadow_1602_12544"/>
<feColorMatrix in="SourceAlpha" type="matrix" values="0 0 0 0 0 0 0 0 0 0 0 0 0 0 0 0 0 0 127 0" result="hardAlpha"/>
<feMorphology radius="2.39665" operator="dilate" in="SourceAlpha" result="effect2_innerShadow_1602_12544"/>
<feOffset dx="-4.32259" dy="-4.32259"/>
<feGaussianBlur stdDeviation="3.59497"/>
<feComposite in2="hardAlpha" operator="arithmetic" k2="-1" k3="1"/>
<feColorMatrix type="matrix" values="0 0 0 0 0 0 0 0 0 0.459184 0 0 0 0 0.5 0 0 0 1 0"/>
<feBlend mode="normal" in2="effect1_innerShadow_1602_12544" result="effect2_innerShadow_1602_12544"/>
</filter>
</defs>
</svg>
