<svg width="781" height="126" viewBox="0 0 781 126" fill="none" xmlns="http://www.w3.org/2000/svg">
<g filter="url(#filter0_ii_1626_12556)">
<path fill-rule="evenodd" clip-rule="evenodd" d="M1.0423 116.701C0.804199 114.871 0.804199 112.489 0.804199 109.096V17.1C0.804199 11.4051 0.804199 8.55765 1.93005 6.39027C2.87885 4.56383 4.36804 3.07463 6.19446 2.12587C8.36182 1.00001 11.2093 1.00001 16.9042 1.00001L109.06 1C114.755 1 117.602 0.999999 119.769 2.12586C121.596 3.07462 123.085 4.56382 124.034 6.39025C125.16 8.55764 125.16 11.4051 125.16 17.1V109.096C125.16 109.406 125.16 109.707 125.16 110H780V125H116.311C114.53 125.196 112.238 125.196 109.06 125.196L16.9042 125.196C13.7254 125.196 11.4338 125.196 9.6524 125H8.50024C4.35809 125 1.00024 121.642 1.00024 117.5C1.00024 117.23 1.01447 116.964 1.0423 116.701Z" fill="#00494F"/>
</g>
<path d="M1.0423 116.701L1.53815 116.637L1.54572 116.695L1.53949 116.754L1.0423 116.701ZM1.93005 6.39027L1.48633 6.15978V6.15977L1.93005 6.39027ZM6.19446 2.12587L6.42493 2.56958V2.56958L6.19446 2.12587ZM16.9042 1.00001V0.500008V1.00001ZM109.06 1V0.5V1ZM119.769 2.12586L120 1.68216V1.68216L119.769 2.12586ZM124.034 6.39025L124.478 6.15976V6.15977L124.034 6.39025ZM125.16 110V110.5H124.659L124.66 110L125.16 110ZM780 110V109.5H780.5V110H780ZM780 125H780.5V125.5H780V125ZM116.311 125L116.257 124.503L116.284 124.5H116.311V125ZM109.06 125.196V124.696V125.196ZM16.9042 125.196V125.696V125.196ZM9.6524 125V124.5H9.67981L9.70703 124.503L9.6524 125ZM1.3042 109.096C1.3042 112.503 1.30524 114.847 1.53815 116.637L0.546448 116.766C0.303162 114.896 0.304199 112.475 0.304199 109.096H1.3042ZM1.3042 17.1V109.096H0.304199V17.1H1.3042ZM2.37378 6.62075C1.85406 7.62118 1.58136 8.80052 1.44324 10.4637C1.30463 12.1329 1.3042 14.2442 1.3042 17.1H0.304199C0.304199 14.2609 0.303772 12.1011 0.446655 10.3809C0.589966 8.65481 0.880188 7.32674 1.48633 6.15978L2.37378 6.62075ZM6.42493 2.56958C4.68988 3.4709 3.27509 4.88564 2.37378 6.62076L1.48633 6.15977C2.4826 4.24202 4.0462 2.67836 5.96399 1.68217L6.42493 2.56958ZM16.9042 1.50001C14.0483 1.50001 11.937 1.50041 10.2679 1.63903C8.60468 1.77715 7.42535 2.0499 6.42493 2.56958L5.96399 1.68217C7.13092 1.07598 8.45898 0.785805 10.1851 0.642457C11.9053 0.499607 14.0651 0.500008 16.9042 0.500008V1.50001ZM109.06 1.5L16.9042 1.50001V0.500008L109.06 0.5V1.5ZM119.539 2.56957C118.539 2.04989 117.359 1.77714 115.696 1.63902C114.027 1.5004 111.916 1.5 109.06 1.5V0.5C111.899 0.5 114.059 0.499598 115.779 0.642448C117.505 0.785795 118.833 1.07597 120 1.68216L119.539 2.56957ZM123.59 6.62075C122.689 4.88563 121.274 3.47089 119.539 2.56957L120 1.68216C121.918 2.67835 123.481 4.24201 124.478 6.15976L123.59 6.62075ZM124.66 17.1C124.66 14.2442 124.659 12.1328 124.521 10.4637C124.383 8.80051 124.11 7.62117 123.59 6.62074L124.478 6.15977C125.084 7.32672 125.374 8.6548 125.517 10.3809C125.66 12.1011 125.66 14.2609 125.66 17.1H124.66ZM124.66 109.096V17.1H125.66V109.096H124.66ZM124.66 110C124.66 109.707 124.66 109.406 124.66 109.096H125.66C125.66 109.406 125.66 109.707 125.66 110L124.66 110ZM780 110.5H125.16V109.5H780V110.5ZM779.5 125V110H780.5V125H779.5ZM116.311 124.5H780V125.5H116.311V124.5ZM109.06 124.696C112.25 124.696 114.509 124.695 116.257 124.503L116.366 125.497C114.551 125.697 112.227 125.696 109.06 125.696V124.696ZM16.9042 124.696L109.06 124.696V125.696L16.9042 125.696V124.696ZM9.70703 124.503C11.4547 124.695 13.7137 124.696 16.9042 124.696V125.696C13.7371 125.696 11.4129 125.697 9.59778 125.497L9.70703 124.503ZM8.50024 124.5H9.6524V125.5H8.50024V124.5ZM1.50024 117.5C1.50024 121.366 4.63422 124.5 8.50024 124.5V125.5C4.08197 125.5 0.500244 121.918 0.500244 117.5H1.50024ZM1.53949 116.754C1.51355 116.999 1.50024 117.248 1.50024 117.5H0.500244C0.500244 117.213 0.515381 116.928 0.545105 116.648L1.53949 116.754Z" fill="#CED7D8"/>
<defs>
<filter id="filter0_ii_1626_12556" x="-4.01839" y="-3.82259" width="788.841" height="133.841" filterUnits="userSpaceOnUse" color-interpolation-filters="sRGB">
<feFlood flood-opacity="0" result="BackgroundImageFix"/>
<feBlend mode="normal" in="SourceGraphic" in2="BackgroundImageFix" result="shape"/>
<feColorMatrix in="SourceAlpha" type="matrix" values="0 0 0 0 0 0 0 0 0 0 0 0 0 0 0 0 0 0 127 0" result="hardAlpha"/>
<feOffset dx="4.32259" dy="4.32259"/>
<feGaussianBlur stdDeviation="2.82637"/>
<feComposite in2="hardAlpha" operator="arithmetic" k2="-1" k3="1"/>
<feColorMatrix type="matrix" values="0 0 0 0 0 0 0 0 0 0.176471 0 0 0 0 0.192157 0 0 0 1 0"/>
<feBlend mode="normal" in2="shape" result="effect1_innerShadow_1626_12556"/>
<feColorMatrix in="SourceAlpha" type="matrix" values="0 0 0 0 0 0 0 0 0 0 0 0 0 0 0 0 0 0 127 0" result="hardAlpha"/>
<feMorphology radius="2.39665" operator="dilate" in="SourceAlpha" result="effect2_innerShadow_1626_12556"/>
<feOffset dx="-4.32259" dy="-4.32259"/>
<feGaussianBlur stdDeviation="3.59497"/>
<feComposite in2="hardAlpha" operator="arithmetic" k2="-1" k3="1"/>
<feColorMatrix type="matrix" values="0 0 0 0 0 0 0 0 0 0.459184 0 0 0 0 0.5 0 0 0 1 0"/>
<feBlend mode="normal" in2="effect1_innerShadow_1626_12556" result="effect2_innerShadow_1626_12556"/>
</filter>
</defs>
</svg>
