<svg width="43" height="43" viewBox="0 0 43 43" fill="none" xmlns="http://www.w3.org/2000/svg">
<path d="M3.92188 42.5938H6.73438C7.12301 42.5938 7.4375 42.2789 7.4375 41.8906V36.9688H24.3125V41.8906C24.3125 42.2789 24.627 42.5938 25.0156 42.5938H31.3438H35.5625H41.8906C42.2793 42.5938 42.5938 42.2789 42.5938 41.8906V31.3438C42.5938 31.1573 42.5196 30.9785 42.3878 30.8466L41.1875 29.6464V23.6094V1.10938C41.1875 0.721074 40.873 0.40625 40.4844 0.40625H3.92188C1.98347 0.40625 0.40625 1.98347 0.40625 3.92188V39.0781C0.40625 41.0165 1.98347 42.5938 3.92188 42.5938ZM32.0469 41.1875V34.1562H34.8594V41.1875H32.0469ZM41.1875 41.1875H36.2656V33.4531C36.2656 33.0648 35.9511 32.75 35.5625 32.75H31.3438C30.9551 32.75 30.6406 33.0648 30.6406 33.4531V41.1875H25.7188V31.6349L33.4531 23.9005L36.4716 26.919C36.6735 27.1205 36.9756 27.1806 37.2379 27.0714C37.5009 26.9626 37.6719 26.7061 37.6719 26.4219V24.3125H39.7812V29.9375C39.7812 30.1239 39.8554 30.3028 39.9872 30.4346L41.1875 31.6349V41.1875ZM3.92188 1.8125H39.7812V22.9062H36.9688C36.5801 22.9062 36.2656 23.2211 36.2656 23.6094V24.7245L33.9503 22.4091C33.6756 22.1345 33.2306 22.1345 32.956 22.4091L24.5185 30.8466C24.3867 30.9785 24.3125 31.1573 24.3125 31.3438V35.5625H7.4375V6.73438C7.4375 6.34607 7.12301 6.03125 6.73438 6.03125H3.92188C2.7587 6.03125 1.8125 5.08505 1.8125 3.92188C1.8125 2.7587 2.7587 1.8125 3.92188 1.8125ZM1.8125 6.73266C2.40027 7.17485 3.13086 7.4375 3.92188 7.4375H6.03125V41.1875H3.92188C2.7587 41.1875 1.8125 40.2413 1.8125 39.0781V6.73266Z" fill="url(#paint0_linear_1514_11878)"/>
<path d="M10.25 29.2344H14.4688C14.8574 29.2344 15.1719 28.9196 15.1719 28.5312C15.1719 27.6146 15.7596 26.8325 16.5781 26.5424V28.5312C16.5781 28.9196 16.8926 29.2344 17.2812 29.2344H22.2031C22.5918 29.2344 22.9062 28.9196 22.9062 28.5312V19.3906H36.9688C37.3574 19.3906 37.6719 19.0758 37.6719 18.6875V4.625C37.6719 4.2367 37.3574 3.92188 36.9688 3.92188H10.25C9.86136 3.92188 9.54688 4.2367 9.54688 4.625V28.5312C9.54688 28.9196 9.86136 29.2344 10.25 29.2344ZM36.2656 17.9844H27.8281V16.5781H29.9375C30.3261 16.5781 30.6406 16.2633 30.6406 15.875C30.6406 14.1773 29.4308 12.7566 27.8281 12.4301V5.32812H36.2656V17.9844ZM18.6875 5.32812V12.3594H17.9844V13.7656H19.3906C19.7793 13.7656 20.0938 13.4508 20.0938 13.0625V5.32812H26.4219V13.0625C26.4219 13.4508 26.7364 13.7656 27.125 13.7656C28.0417 13.7656 28.8238 14.3534 29.1142 15.1719H27.125C26.7364 15.1719 26.4219 15.4867 26.4219 15.875V17.9844H22.2031C21.8145 17.9844 21.5 18.2992 21.5 18.6875V27.8281H17.9844V25.7188C17.9844 25.3304 17.6699 25.0156 17.2812 25.0156C15.5832 25.0156 14.1632 26.2255 13.8364 27.8281H10.9531V13.7656H15.875V12.3594H10.9531V5.32812H18.6875Z" fill="url(#paint1_linear_1514_11878)"/>
<path d="M10.25 32.75H8.84375V34.1562H10.25V32.75Z" fill="url(#paint2_linear_1514_11878)"/>
<path d="M13.0625 32.75H11.6562V34.1562H13.0625V32.75Z" fill="url(#paint3_linear_1514_11878)"/>
<path d="M15.875 32.75H14.4688V34.1562H15.875V32.75Z" fill="url(#paint4_linear_1514_11878)"/>
<defs>
<linearGradient id="paint0_linear_1514_11878" x1="0.40625" y1="1.16895" x2="45.8804" y2="7.46836" gradientUnits="userSpaceOnUse">
<stop offset="0.158241" stop-color="#002D31"/>
<stop offset="0.32869" stop-color="#005961"/>
<stop offset="0.509791" stop-color="#00818C"/>
<stop offset="0.786145" stop-color="#005961"/>
<stop offset="0.988044" stop-color="#002D31"/>
</linearGradient>
<linearGradient id="paint1_linear_1514_11878" x1="9.54688" y1="4.37949" x2="39.7296" y2="9.02521" gradientUnits="userSpaceOnUse">
<stop offset="0.158241" stop-color="#002D31"/>
<stop offset="0.32869" stop-color="#005961"/>
<stop offset="0.509791" stop-color="#00818C"/>
<stop offset="0.786145" stop-color="#005961"/>
<stop offset="0.988044" stop-color="#002D31"/>
</linearGradient>
<linearGradient id="paint2_linear_1514_11878" x1="8.84375" y1="32.7754" x2="10.3596" y2="32.9854" gradientUnits="userSpaceOnUse">
<stop offset="0.158241" stop-color="#002D31"/>
<stop offset="0.32869" stop-color="#005961"/>
<stop offset="0.509791" stop-color="#00818C"/>
<stop offset="0.786145" stop-color="#005961"/>
<stop offset="0.988044" stop-color="#002D31"/>
</linearGradient>
<linearGradient id="paint3_linear_1514_11878" x1="11.6563" y1="32.7754" x2="13.1721" y2="32.9854" gradientUnits="userSpaceOnUse">
<stop offset="0.158241" stop-color="#002D31"/>
<stop offset="0.32869" stop-color="#005961"/>
<stop offset="0.509791" stop-color="#00818C"/>
<stop offset="0.786145" stop-color="#005961"/>
<stop offset="0.988044" stop-color="#002D31"/>
</linearGradient>
<linearGradient id="paint4_linear_1514_11878" x1="14.4688" y1="32.7754" x2="15.9846" y2="32.9854" gradientUnits="userSpaceOnUse">
<stop offset="0.158241" stop-color="#002D31"/>
<stop offset="0.32869" stop-color="#005961"/>
<stop offset="0.509791" stop-color="#00818C"/>
<stop offset="0.786145" stop-color="#005961"/>
<stop offset="0.988044" stop-color="#002D31"/>
</linearGradient>
</defs>
</svg>
