<svg width="17" height="15" viewBox="0 0 17 15" fill="none" xmlns="http://www.w3.org/2000/svg">
<path d="M15.819 5.72405L13.3473 4.84819C13.2254 4.80521 13.0892 4.80691 12.9687 4.8529C12.8481 4.89889 12.7532 4.98541 12.7047 5.09343C12.6562 5.20144 12.6581 5.32211 12.71 5.42887C12.7619 5.53564 12.8596 5.61976 12.9815 5.66274L15.1418 6.42911V12.8667L12.1757 11.5529V7.88304C12.1757 7.76689 12.1236 7.6555 12.0309 7.57337C11.9382 7.49125 11.8125 7.44511 11.6814 7.44511C11.5503 7.44511 11.4245 7.49125 11.3318 7.57337C11.2391 7.6555 11.187 7.76689 11.187 7.88304V11.5704L8.71535 12.8229V10.9485C8.71535 10.8324 8.66326 10.721 8.57055 10.6389C8.47785 10.5568 8.35212 10.5106 8.22101 10.5106C8.0899 10.5106 7.96417 10.5568 7.87147 10.6389C7.77876 10.721 7.72667 10.8324 7.72667 10.9485V12.8229L5.25498 11.5704V7.88304C5.25498 7.76689 5.20289 7.6555 5.11018 7.57337C5.01747 7.49125 4.89174 7.44511 4.76064 7.44511C4.62953 7.44511 4.5038 7.49125 4.41109 7.57337C4.31839 7.6555 4.2663 7.76689 4.2663 7.88304V11.5529L1.30026 12.8667V6.42911L3.46052 5.66274C3.5209 5.64146 3.57595 5.60985 3.62253 5.56973C3.66912 5.5296 3.70634 5.48174 3.73204 5.42887C3.75775 5.37601 3.77144 5.31918 3.77235 5.26162C3.77326 5.20406 3.76137 5.14691 3.73735 5.09343C3.71333 5.03994 3.67766 4.99118 3.63237 4.94991C3.58707 4.90864 3.53304 4.87567 3.47336 4.8529C3.41369 4.83013 3.34954 4.81799 3.28457 4.81718C3.2196 4.81637 3.15509 4.82691 3.09472 4.84819L0.623021 5.72405C0.531042 5.7565 0.452183 5.81267 0.396656 5.88528C0.341128 5.9579 0.31149 6.04361 0.311585 6.13132V13.5761C0.311417 13.6505 0.332665 13.7238 0.373317 13.7889C0.41397 13.854 0.472685 13.9089 0.543925 13.9484C0.622595 13.9916 0.713372 14.0143 0.805925 14.014C0.883309 14.0136 0.959511 13.9971 1.02838 13.9659L4.76064 12.3193L7.98867 13.9527H8.04306L8.10731 13.979C8.19185 13.9966 8.27983 13.9966 8.36437 13.979L8.42864 13.9527H8.48301L11.6814 12.3193L15.3988 13.9659C15.4721 13.9992 15.5537 14.0158 15.6361 14.014C15.7286 14.0143 15.8194 13.9916 15.8981 13.9484C15.9693 13.9089 16.0281 13.854 16.0687 13.7889C16.1094 13.7238 16.1306 13.6505 16.1304 13.5761V6.13132C16.1305 6.04361 16.1009 5.9579 16.0454 5.88528C15.9898 5.81267 15.911 5.7565 15.819 5.72405Z" fill="url(#paint0_linear_819_3625)"/>
<path d="M8.22223 9.63444C8.29772 9.63428 8.37218 9.61881 8.43988 9.5892C8.50757 9.5596 8.56671 9.51665 8.61276 9.46365C8.97857 9.02572 12.1769 5.29457 12.1769 3.50343C12.1769 2.57427 11.7603 1.68315 11.0186 1.02613C10.277 0.369111 9.27109 0 8.22223 0C7.17337 0 6.16748 0.369111 5.42582 1.02613C4.68417 1.68315 4.26752 2.57427 4.26752 3.50343C4.26752 5.29457 7.46589 9.04324 7.8317 9.46365C7.87775 9.51665 7.93689 9.5596 8.00458 9.5892C8.07228 9.61881 8.14674 9.63428 8.22223 9.63444ZM8.22223 0.875859C9.00887 0.875859 9.7633 1.15269 10.3195 1.64546C10.8758 2.13822 11.1883 2.80656 11.1883 3.50343C11.1883 4.62015 9.30978 7.13825 8.22223 8.46517C7.13468 7.15139 5.2562 4.62015 5.2562 3.50343C5.2562 2.80656 5.56869 2.13822 6.12492 1.64546C6.68116 1.15269 7.43559 0.875859 8.22223 0.875859Z" fill="url(#paint1_linear_819_3625)"/>
<path d="M10.1987 3.50343C10.1987 3.15697 10.0828 2.81829 9.86548 2.53022C9.6482 2.24216 9.33939 2.01763 8.97807 1.88505C8.61676 1.75247 8.21918 1.71778 7.83561 1.78537C7.45204 1.85296 7.09971 2.01979 6.82317 2.26478C6.54663 2.50976 6.35831 2.82188 6.28202 3.16168C6.20572 3.50148 6.24487 3.8537 6.39453 4.17378C6.54419 4.49387 6.79763 4.76745 7.12281 4.95993C7.44798 5.15241 7.83029 5.25515 8.22137 5.25515C8.7458 5.25515 9.24875 5.07059 9.61957 4.74208C9.9904 4.41357 10.1987 3.96801 10.1987 3.50343ZM7.23269 3.50343C7.23269 3.3302 7.29068 3.16086 7.39932 3.01683C7.50796 2.87279 7.66236 2.76053 7.84301 2.69424C8.02367 2.62795 8.22246 2.6106 8.41425 2.6444C8.60603 2.67819 8.7822 2.76161 8.92047 2.8841C9.05874 3.00659 9.15291 3.16266 9.19106 3.33256C9.2292 3.50246 9.20962 3.67856 9.13479 3.8386C9.05995 3.99865 8.93324 4.13544 8.77065 4.23168C8.60807 4.32792 8.41691 4.37929 8.22137 4.37929C7.95916 4.37929 7.70768 4.28701 7.52227 4.12275C7.33686 3.9585 7.23269 3.73572 7.23269 3.50343Z" fill="url(#paint2_linear_819_3625)"/>
<defs>
<linearGradient id="paint0_linear_819_3625" x1="1.06385" y1="7.10733" x2="9.24932" y2="17.3747" gradientUnits="userSpaceOnUse">
<stop stop-color="#002E33"/>
<stop offset="0.515422" stop-color="#18494E"/>
<stop offset="0.994225" stop-color="#00474D"/>
</linearGradient>
<linearGradient id="paint1_linear_819_3625" x1="4.64365" y1="2.39911" x2="12.3968" y2="7.04089" gradientUnits="userSpaceOnUse">
<stop stop-color="#002E33"/>
<stop offset="0.515422" stop-color="#18494E"/>
<stop offset="0.994225" stop-color="#00474D"/>
</linearGradient>
<linearGradient id="paint2_linear_819_3625" x1="6.43208" y1="2.62411" x2="9.571" y2="5.20809" gradientUnits="userSpaceOnUse">
<stop stop-color="#002E33"/>
<stop offset="0.515422" stop-color="#18494E"/>
<stop offset="0.994225" stop-color="#00474D"/>
</linearGradient>
</defs>
</svg>
