<svg width="50" height="51" viewBox="0 0 50 51" fill="none" xmlns="http://www.w3.org/2000/svg">
<path d="M49.5785 20.6464C50.5187 21.4705 49.2853 22.9418 48.345 22.1177L26.9397 3.54425C26.4179 3.08907 25.7488 2.83828 25.0564 2.83828C24.3639 2.83828 23.6949 3.08907 23.173 3.54425L14.8764 10.6572C14.7405 10.7827 14.5708 10.8656 14.3882 10.8957C14.2057 10.9257 14.0184 10.9016 13.8494 10.8262C13.6805 10.7509 13.5374 10.6276 13.4377 10.4718C13.3381 10.3159 13.2864 10.1342 13.289 9.94926V7.3054C13.2897 7.24345 13.2781 7.18198 13.2547 7.12461C13.2313 7.06723 13.1967 7.01511 13.1529 6.9713C13.1091 6.9275 13.057 6.89289 12.9996 6.86953C12.9422 6.84617 12.8808 6.83451 12.8188 6.83525H8.53222C8.40952 6.84293 8.29374 6.89478 8.2063 6.9812C8.11886 7.06763 8.06566 7.18279 8.05655 7.3054V16.1828C8.05597 16.333 8.01831 16.4808 7.9469 16.613C7.8755 16.7452 7.77257 16.8577 7.64725 16.9406L1.70686 22.1177C0.766569 22.9418 -0.466864 21.4705 0.473422 20.6464L5.94367 15.8897C6.00457 15.8544 6.0538 15.8021 6.08526 15.7392C6.11672 15.6763 6.12903 15.6055 6.12067 15.5357V6.83525C6.125 6.32317 6.33035 5.83328 6.69246 5.47117C7.05458 5.10905 7.54446 4.9037 8.05655 4.89937H13.2945C13.8071 4.90368 14.2976 5.10885 14.6606 5.47081C15.0236 5.83278 15.2301 6.32266 15.2359 6.83525C15.2363 6.92354 15.2618 7.00989 15.3094 7.0842C15.3571 7.15851 15.425 7.21771 15.505 7.25485C15.5851 7.29199 15.6741 7.30555 15.7617 7.29393C15.8492 7.28231 15.9316 7.246 15.9992 7.18924L21.8787 2.07851C22.769 1.3305 23.8909 0.914165 25.0536 0.900391C26.2013 0.905306 27.3087 1.32355 28.1731 2.07851L49.5785 20.6464ZM26.995 42.9809C25.7616 42.9809 25.7616 41.0395 26.995 41.0395H30.4077C30.6651 41.0395 30.912 41.1418 31.0941 41.3238C31.2761 41.5059 31.3784 41.7528 31.3784 42.0102C31.3784 42.2677 31.2761 42.5146 31.0941 42.6966C30.912 42.8787 30.6651 42.9809 30.4077 42.9809H26.995ZM26.995 45.3925C26.7456 45.3925 26.5065 45.2934 26.3301 45.1171C26.1538 44.9408 26.0547 44.7016 26.0547 44.4522C26.0547 44.2028 26.1538 43.9637 26.3301 43.7873C26.5065 43.611 26.7456 43.5119 26.995 43.5119H30.4077C30.6571 43.5119 30.8962 43.611 31.0726 43.7873C31.2489 43.9637 31.348 44.2028 31.348 44.4522C31.348 44.7016 31.2489 44.9408 31.0726 45.1171C30.8962 45.2934 30.6571 45.3925 30.4077 45.3925H26.995ZM21.8787 41.3382C22.0598 41.169 22.2995 41.0767 22.5473 41.0806C22.7951 41.0846 23.0317 41.1845 23.2072 41.3594C23.3828 41.5343 23.4837 41.7705 23.4887 42.0182C23.4937 42.266 23.4023 42.506 23.2339 42.6878L23.0569 42.8648C22.9755 42.9638 22.931 43.0879 22.931 43.216C22.931 43.3441 22.9755 43.4683 23.0569 43.5672L23.2339 43.7442C23.4136 43.9239 23.5145 44.1677 23.5145 44.4218C23.5145 44.6759 23.4136 44.9197 23.2339 45.0994C23.0542 45.2791 22.8104 45.38 22.5563 45.38C22.3022 45.38 22.0585 45.2791 21.8787 45.0994L21.7073 44.9224C21.6083 44.841 21.4842 44.7965 21.3561 44.7965C21.2279 44.7965 21.1038 44.841 21.0048 44.9224L20.8278 45.0994C20.6427 45.2433 20.4111 45.3143 20.177 45.2987C19.943 45.2832 19.7228 45.1822 19.5583 45.015C19.3938 44.8478 19.2965 44.626 19.2848 44.3917C19.2731 44.1574 19.3478 43.927 19.4948 43.7442L19.6718 43.5672C19.7267 43.5266 19.7714 43.4737 19.8021 43.4127C19.8328 43.3517 19.8489 43.2843 19.8489 43.216C19.8489 43.1477 19.8328 43.0804 19.8021 43.0194C19.7714 42.9584 19.7267 42.9054 19.6718 42.8648L19.4948 42.6878C19.3264 42.506 19.2351 42.266 19.24 42.0182C19.245 41.7705 19.3459 41.5343 19.5215 41.3594C19.6971 41.1845 19.9337 41.0846 20.1814 41.0806C20.4292 41.0767 20.6689 41.169 20.85 41.3382L21.027 41.5097C21.0676 41.5646 21.1205 41.6092 21.1815 41.6399C21.2425 41.6707 21.3099 41.6867 21.3782 41.6867C21.4465 41.6867 21.5138 41.6707 21.5748 41.6399C21.6358 41.6092 21.6888 41.5646 21.7294 41.5097L21.8787 41.3382ZM20.4075 34.3414C20.4075 33.1079 22.3489 33.1079 22.3489 34.3414V34.6401C22.3482 34.702 22.3598 34.7635 22.3832 34.8208C22.4065 34.8782 22.4411 34.9303 22.4849 34.9742C22.5287 35.018 22.5809 35.0526 22.6382 35.0759C22.6956 35.0993 22.7571 35.1109 22.819 35.1102H23.0569C23.3062 35.1102 23.5454 35.2093 23.7218 35.3856C23.8981 35.5619 23.9972 35.8011 23.9972 36.0505C23.9972 36.2999 23.8981 36.539 23.7218 36.7154C23.5454 36.8917 23.3062 36.9908 23.0569 36.9908H22.8135C22.7447 36.9916 22.6769 37.0071 22.6146 37.0364C22.5523 37.0656 22.4971 37.1079 22.4525 37.1603C22.408 37.2127 22.3752 37.2741 22.3563 37.3402C22.3375 37.4064 22.3331 37.4759 22.3434 37.5439V37.7762C22.3434 38.0336 22.2411 38.2805 22.059 38.4626C21.877 38.6446 21.6301 38.7469 21.3727 38.7469C21.1152 38.7469 20.8683 38.6446 20.6863 38.4626C20.5042 38.2805 20.4019 38.0336 20.4019 37.7762V37.5162C20.4112 37.3809 20.3672 37.2474 20.2794 37.144C20.1916 37.0407 20.0668 36.9758 19.9318 36.9631H19.6387C19.3893 36.9631 19.1501 36.864 18.9738 36.6877C18.7974 36.5114 18.6984 36.2722 18.6984 36.0228C18.6984 35.7735 18.7974 35.5343 18.9738 35.3579C19.1501 35.1816 19.3893 35.0825 19.6387 35.0825H19.9318C20.0539 35.0747 20.169 35.0227 20.2556 34.9361C20.3421 34.8496 20.3941 34.7345 20.4019 34.6124L20.4075 34.3414ZM26.995 36.9852C26.7456 36.9852 26.5065 36.8862 26.3301 36.7098C26.1538 36.5335 26.0547 36.2943 26.0547 36.045C26.0547 35.7956 26.1538 35.5564 26.3301 35.3801C26.5065 35.2037 26.7456 35.1047 26.995 35.1047H30.4077C30.5312 35.1047 30.6534 35.129 30.7675 35.1762C30.8816 35.2235 30.9853 35.2928 31.0726 35.3801C31.1599 35.4674 31.2292 35.571 31.2764 35.6851C31.3237 35.7992 31.348 35.9215 31.348 36.045C31.348 36.1684 31.3237 36.2907 31.2764 36.4048C31.2292 36.5189 31.1599 36.6225 31.0726 36.7098C30.9853 36.7971 30.8816 36.8664 30.7675 36.9137C30.6534 36.9609 30.5312 36.9852 30.4077 36.9852H26.995ZM18.1453 25.8788H31.879C32.1441 25.8874 32.3957 25.998 32.5812 26.1876C32.7668 26.3773 32.8718 26.6312 32.8746 26.8965V30.6577C32.8645 30.9134 32.7546 31.1551 32.5685 31.3309C32.3824 31.5066 32.1349 31.6025 31.879 31.598H18.1729C18.0492 31.5987 17.9266 31.5749 17.8122 31.5279C17.6978 31.4809 17.5939 31.4116 17.5064 31.3242C17.4189 31.2367 17.3497 31.1328 17.3027 31.0184C17.2557 30.904 17.2319 30.7814 17.2326 30.6577V26.8965C17.2281 26.64 17.3238 26.3919 17.4994 26.2049C17.675 26.0179 17.9167 25.9069 18.1729 25.8954L18.1453 25.8788ZM30.4409 27.8202H19.6442C19.5822 27.8195 19.5208 27.8311 19.4634 27.8545C19.406 27.8779 19.3539 27.9125 19.3101 27.9563C19.2663 28.0001 19.2317 28.0522 19.2083 28.1096C19.185 28.1669 19.1733 28.2284 19.174 28.2904V29.2306C19.1733 29.2926 19.185 29.3541 19.2083 29.4114C19.2317 29.4688 19.2663 29.5209 19.3101 29.5647C19.3539 29.6085 19.406 29.6432 19.4634 29.6665C19.5208 29.6899 19.5822 29.7015 19.6442 29.7008H30.4685C30.5903 29.6918 30.7047 29.6394 30.791 29.5531C30.8773 29.4668 30.9297 29.3524 30.9387 29.2306V28.2904C30.9309 28.1682 30.8788 28.0531 30.7923 27.9666C30.7058 27.8801 30.5907 27.828 30.4685 27.8202H30.4409ZM16.2647 21.736H33.7595C35.4189 21.736 36.7021 23.2626 36.8182 24.7339V43.2741C36.8175 43.336 36.8291 43.3975 36.8525 43.4549C36.8759 43.5123 36.9105 43.5644 36.9543 43.6082C36.9981 43.652 37.0502 43.6866 37.1076 43.71C37.165 43.7333 37.2264 43.745 37.2884 43.7442H40.1092C40.6185 43.7415 41.1065 43.5398 41.4692 43.1823C41.8319 42.8247 42.0406 42.3397 42.0506 41.8305V24.8777C42.0512 24.4588 41.9621 24.0447 41.7894 23.6631C41.6168 23.2816 41.3645 22.9413 41.0495 22.6652L26.8789 10.1263C26.3707 9.66762 25.7105 9.41374 25.0259 9.41374C24.3414 9.41374 23.6812 9.66762 23.173 10.1263L9.05768 22.6486C8.73347 22.917 8.47477 23.2557 8.30128 23.6391C8.1278 24.0225 8.04409 24.4404 8.05655 24.8611V41.8305C8.05289 42.0815 8.09882 42.3308 8.1917 42.5641C8.28458 42.7974 8.42258 43.0101 8.59779 43.1899C8.77301 43.3697 8.982 43.5132 9.21278 43.6121C9.44355 43.7111 9.69158 43.7635 9.94265 43.7664H12.8244C12.9465 43.7585 13.0616 43.7065 13.1481 43.62C13.2346 43.5334 13.2867 43.4183 13.2945 43.2962V24.7615C13.2974 23.9673 13.6142 23.2065 14.1758 22.6449C14.7373 22.0834 15.4982 21.7666 16.2923 21.7637L16.2647 21.736ZM36.7906 46.0728V47.5994C36.7964 48.0014 36.7224 48.4006 36.5728 48.7738C36.4231 49.1469 36.2009 49.4867 35.9189 49.7733C35.637 50.0599 35.3009 50.2876 34.9302 50.4433C34.5595 50.599 34.1616 50.6795 33.7595 50.6802H16.2923C15.8943 50.6773 15.5008 50.5958 15.1344 50.4403C14.7681 50.2848 14.436 50.0585 14.1574 49.7742C13.8788 49.49 13.6592 49.1534 13.5111 48.784C13.363 48.4146 13.2894 48.0195 13.2945 47.6215V46.095C13.2855 45.9732 13.2331 45.8588 13.1468 45.7725C13.0605 45.6862 12.9461 45.6338 12.8244 45.6248H9.94265C8.93771 45.6121 7.9771 45.2091 7.26387 44.501C6.55064 43.793 6.14069 42.8353 6.12067 41.8305V24.8777C6.12009 24.1875 6.26796 23.5053 6.55427 22.8774C6.84057 22.2494 7.2586 21.6904 7.77999 21.2382L21.9396 8.71582C22.7966 7.94888 23.9063 7.52485 25.0564 7.52485C26.2064 7.52485 27.3161 7.94888 28.1731 8.71582L42.3438 21.2382C42.8558 21.694 43.2629 22.2554 43.5369 22.8837C43.811 23.5121 43.9455 24.1923 43.9312 24.8777V41.8305C43.9319 42.3323 43.8335 42.8294 43.6417 43.2931C43.4498 43.7568 43.1682 44.1781 42.8131 44.5327C42.458 44.8873 42.0363 45.1683 41.5723 45.3595C41.1083 45.5507 40.6111 45.6484 40.1092 45.6469H37.2884C37.2264 45.6462 37.165 45.6578 37.1076 45.6812C37.0502 45.7046 36.9981 45.7392 36.9543 45.783C36.9105 45.8268 36.8759 45.8789 36.8525 45.9363C36.8291 45.9937 36.8175 46.0551 36.8182 46.1171L36.7906 46.0728ZM33.7595 23.6442H16.2923C16.0033 23.6577 15.7297 23.7786 15.5251 23.9832C15.3205 24.1878 15.1996 24.4614 15.1861 24.7505V47.6215C15.1861 47.9149 15.3027 48.1963 15.5101 48.4037C15.7176 48.6112 15.999 48.7278 16.2923 48.7278H33.7595C34.0529 48.7278 34.3343 48.6112 34.5418 48.4037C34.7492 48.1963 34.8658 47.9149 34.8658 47.6215V24.7615C34.8658 24.4681 34.7492 24.1868 34.5418 23.9793C34.3343 23.7719 34.0529 23.6553 33.7595 23.6553V23.6442Z" fill="url(#paint0_linear_1512_12156)"/>
<defs>
<linearGradient id="paint0_linear_1512_12156" x1="2.50436" y1="13.2963" x2="45.7763" y2="44.8518" gradientUnits="userSpaceOnUse">
<stop stop-color="#002E33"/>
<stop offset="0.515422" stop-color="#18494E"/>
<stop offset="0.994225" stop-color="#00474D"/>
</linearGradient>
</defs>
</svg>
