<svg width="86" height="45" viewBox="0 0 86 45" fill="none" xmlns="http://www.w3.org/2000/svg">
<path d="M82.3158 43.3555H52.3158V44.6055H82.3158V43.3555Z" fill="url(#paint0_linear_841_3624)"/>
<path d="M79.1908 44.6055H55.4408V20.2305H60.4408V16.4805H67.9408V25.2305H72.9408V20.2305H79.1908V44.6055ZM56.6908 43.3555H77.9408V21.4805H74.1908V26.4805H66.6908V17.7305H61.6908V21.4805H56.6908V43.3555Z" fill="url(#paint1_linear_841_3624)"/>
<path d="M71.6908 44.6055H62.9408V37.7305H71.6908V44.6055ZM64.1908 43.3555H70.4408V38.9805H64.1908V43.3555Z" fill="url(#paint2_linear_841_3624)"/>
<path d="M67.9408 38.3555H66.6908V43.9805H67.9408V38.3555Z" fill="url(#paint3_linear_841_3624)"/>
<path d="M61.6908 36.4805H57.9408V32.7305H61.6908V36.4805ZM59.1908 35.2305H60.4408V33.9805H59.1908V35.2305ZM66.6908 36.4805H62.9408V32.7305H66.6908V36.4805ZM64.1908 35.2305H65.4408V33.9805H64.1908V35.2305ZM71.6908 36.4805H67.9408V32.7305H71.6908V36.4805ZM69.1908 35.2305H70.4408V33.9805H69.1908V35.2305ZM76.6908 36.4805H72.9408V32.7305H76.6908V36.4805ZM74.1908 35.2305H75.4408V33.9805H74.1908V35.2305ZM61.6908 31.4805H57.9408V27.7305H61.6908V31.4805ZM59.1908 30.2305H60.4408V28.9805H59.1908V30.2305ZM66.6908 31.4805H62.9408V27.7305H66.6908V31.4805ZM64.1908 30.2305H65.4408V28.9805H64.1908V30.2305Z" fill="url(#paint4_linear_841_3624)"/>
<path d="M61.6908 30.8555H60.4408V28.9805H58.5658V27.7305H61.6908V30.8555Z" fill="url(#paint5_linear_841_3624)"/>
<path d="M61.6908 26.4805H57.9408V22.7305H61.6908V26.4805ZM59.1908 25.2305H60.4408V23.9805H59.1908V25.2305Z" fill="url(#paint6_linear_841_3624)"/>
<path d="M61.6908 25.8555H60.4408V23.9805H58.5658V22.7305H61.6908V25.8555Z" fill="url(#paint7_linear_841_3624)"/>
<path d="M64.1908 30.8555H62.9408V27.7305H66.0658V28.9805H64.1908V30.8555Z" fill="url(#paint8_linear_841_3624)"/>
<path d="M71.6908 31.4805H67.9408V27.7305H71.6908V31.4805ZM69.1908 30.2305H70.4408V28.9805H69.1908V30.2305ZM76.6908 31.4805H72.9408V27.7305H76.6908V31.4805ZM74.1908 30.2305H75.4408V28.9805H74.1908V30.2305Z" fill="url(#paint9_linear_841_3624)"/>
<path d="M57.9408 7.10547H56.6908V21.4805H57.9408V7.10547Z" fill="url(#paint10_linear_841_3624)"/>
<path d="M77.9408 10.8555H76.6908V21.4805H77.9408V10.8555Z" fill="url(#paint11_linear_841_3624)"/>
<path d="M71.6908 10.8555H70.4408V26.4805H71.6908V10.8555Z" fill="url(#paint12_linear_841_3624)"/>
<path d="M64.8158 7.10547H63.5658V17.7305H64.8158V7.10547Z" fill="url(#paint13_linear_841_3624)"/>
<path d="M79.1908 13.3555H55.4408V14.6055H79.1908V13.3555Z" fill="url(#paint14_linear_841_3624)"/>
<path d="M66.0658 8.35547H55.4408V9.60547H66.0658V8.35547Z" fill="url(#paint15_linear_841_3624)"/>
<path d="M79.1908 17.7305H66.6908V18.9805H79.1908V17.7305Z" fill="url(#paint16_linear_841_3624)"/>
<path d="M46 8.66995C46 8.65765 46 8.64534 46 8.63304V8.6058C46 8.59525 46 8.58471 45.9955 8.57416L45.9901 8.54253C45.9901 8.53374 45.9901 8.52495 45.9838 8.51616C45.9775 8.50738 45.9775 8.49244 45.9739 8.48101L45.9658 8.45816C45.9613 8.44586 45.9568 8.43444 45.9514 8.42301C45.9459 8.41159 45.945 8.40807 45.9423 8.40104C45.9396 8.39401 45.9306 8.37908 45.9243 8.36765C45.918 8.35623 45.9099 8.35271 45.9099 8.34568L45.891 8.3158L45.8748 8.29296C45.8685 8.28505 45.8622 8.27626 45.855 8.26835L45.836 8.24462L45.8153 8.22353L45.7919 8.19981L45.7703 8.18135C45.7592 8.17129 45.7474 8.1619 45.7351 8.15323C45.7222 8.14307 45.7087 8.13368 45.6946 8.12511C45.6889 8.12108 45.6829 8.11756 45.6766 8.11457L45.6378 8.0926L45.6189 8.08381L45.5775 8.06536H45.5703L24.3618 0.0421981C24.3522 0.0381907 24.3423 0.0349578 24.3321 0.0325316L24.3105 0.0255015C24.281 0.0167494 24.2509 0.0102849 24.2204 0.00616856H24.2096C24.1815 0.00240414 24.1532 0.0003497 24.1249 1.71841e-05H21.7483C21.7181 -0.000211635 21.688 0.00184502 21.6582 0.00616856H21.6483C21.6179 0.0111342 21.5878 0.0178836 21.5582 0.0263802L21.5375 0.0325316L21.5059 0.0430768L0.429036 8.06272H0.422729L0.378584 8.08205L0.362368 8.08996C0.347953 8.09699 0.333539 8.10578 0.319124 8.11457L0.30561 8.1216L0.25606 8.15675L0.229033 8.17959L0.208311 8.19717L0.183987 8.22178L0.165068 8.24199L0.143446 8.26923L0.124526 8.29296L0.10831 8.31756C0.101782 8.32661 0.0957673 8.33599 0.0902917 8.34568L0.076778 8.36853L0.0605615 8.40104C0.0605615 8.40895 0.0533542 8.41598 0.0506514 8.42389C0.0479487 8.4318 0.0407414 8.44674 0.0362368 8.45816L0.0281286 8.48189C0.0281286 8.49332 0.0218222 8.50474 0.0191194 8.51616C0.0164167 8.52759 0.0191194 8.53462 0.0119121 8.5434L0.00650661 8.57416C0.00650661 8.58471 0.00650661 8.59613 0.00200203 8.60668C-0.00250254 8.61722 0.00200203 8.62425 0.00200203 8.63304C0.00200203 8.64183 0.00200203 8.65765 0.00200203 8.66995C0.00200203 8.68225 0.00200203 8.67698 0.00200203 8.67698V11.8608C0.00200203 12.0356 0.0731902 12.2032 0.199906 12.3268C0.326622 12.4504 0.498485 12.5198 0.677688 12.5198H2.66601V15.8592C2.66625 16.2203 2.81344 16.5667 3.07527 16.822C3.3371 17.0774 3.69214 17.221 4.06242 17.2212H6.49489C6.86517 17.221 7.22022 17.0774 7.48205 16.822C7.74387 16.5667 7.89107 16.2203 7.89131 15.8592V12.5198H16.4086C16.5113 12.7751 16.6906 12.9941 16.923 13.1484C17.1555 13.3027 17.4302 13.385 17.7113 13.3845H19.2816V40.5965H15.7743C15.2369 40.597 14.7215 40.8054 14.3415 41.1761C13.9615 41.5468 13.7477 42.0495 13.7473 42.5737V43.6818H4.27774C4.09854 43.6818 3.92668 43.7513 3.79996 43.8749C3.67325 43.9985 3.60206 44.1661 3.60206 44.3409C3.60206 44.5157 3.67325 44.6834 3.79996 44.807C3.92668 44.9306 4.09854 45 4.27774 45L41.7207 44.9903C41.8999 44.9903 42.0717 44.9209 42.1984 44.7973C42.3252 44.6737 42.3963 44.5061 42.3963 44.3313C42.3963 44.1565 42.3252 43.9888 42.1984 43.8652C42.0717 43.7416 41.8999 43.6722 41.7207 43.6722H32.1259V42.5737C32.1254 42.0495 31.9117 41.5468 31.5317 41.1761C31.1516 40.8054 30.6363 40.597 30.0989 40.5965H26.5952V13.3845H28.1619C28.4426 13.3841 28.7167 13.3012 28.9484 13.1467C29.1801 12.9921 29.3588 12.7731 29.461 12.5181H37.6215V27.3271H37.5593C37.3801 27.3271 37.2083 27.3965 37.0816 27.5201C36.9548 27.6437 36.8836 27.8114 36.8836 27.9862V30.5346C36.8837 30.6632 36.9223 30.7891 36.9948 30.8965C37.0674 31.004 37.1706 31.0883 37.2918 31.1392L38.9729 31.8422V33.3449C38.9729 33.5197 39.0441 33.6873 39.1708 33.8109C39.2975 33.9345 39.4693 34.004 39.6486 34.004H39.6936C39.7851 34.004 39.8751 34.0266 39.9552 34.0698C40.0353 34.113 40.1028 34.1754 40.1514 34.251C40.2001 34.3266 40.2282 34.413 40.2333 34.5021C40.2383 34.5913 40.2201 34.6802 40.1803 34.7606C40.1405 34.8409 40.0804 34.9101 40.0057 34.9617C39.931 35.0132 39.8441 35.0454 39.7531 35.0553C39.6622 35.0651 39.5702 35.0523 39.4857 35.0179C39.4012 34.9836 39.3271 34.9289 39.2702 34.859C39.1586 34.7222 38.9959 34.6342 38.8178 34.6145C38.6397 34.5947 38.4609 34.6447 38.3206 34.7536C38.1804 34.8624 38.0902 35.0211 38.0699 35.1948C38.0496 35.3685 38.1009 35.543 38.2125 35.6798C38.3943 35.9046 38.6272 36.0851 38.8928 36.207C39.1585 36.3289 39.4496 36.3888 39.743 36.382C40.0365 36.3751 40.3244 36.3018 40.5838 36.1678C40.8432 36.0337 41.067 35.8426 41.2377 35.6096C41.4083 35.3766 41.521 35.108 41.5668 34.8252C41.6126 34.5424 41.5904 34.253 41.5017 33.98C41.4131 33.707 41.2606 33.4579 41.0562 33.2523C40.8519 33.0468 40.6013 32.8904 40.3242 32.7957V31.844L42.0053 31.1409C42.1265 31.0901 42.2297 31.0057 42.3023 30.8983C42.3748 30.7908 42.4135 30.665 42.4135 30.5363V27.9879C42.4135 27.8131 42.3423 27.6455 42.2156 27.5219C42.0888 27.3983 41.917 27.3288 41.7378 27.3288H41.6756V12.5181H45.336H45.373H45.4045L45.4378 12.5128L45.4703 12.5067L45.5009 12.4996L45.5333 12.49C45.5437 12.487 45.554 12.4834 45.564 12.4794L45.5946 12.468L45.6252 12.453L45.6532 12.4399L45.6829 12.4214L45.709 12.4056L45.736 12.3854L45.7622 12.3652L45.7847 12.345L45.8117 12.3195L45.8198 12.3116L45.8315 12.2984C45.8398 12.2894 45.8476 12.28 45.855 12.2703L45.8739 12.2465L45.8937 12.2184L45.9099 12.1912L45.9261 12.1631L45.9405 12.1341C45.945 12.1244 45.9487 12.1138 45.9532 12.1042L45.964 12.0743C45.964 12.0638 45.9712 12.0541 45.9739 12.0435C45.9766 12.033 45.9802 12.0225 45.982 12.0119C45.9838 12.0014 45.9865 11.9917 45.9883 11.9811C45.9909 11.9702 45.9927 11.959 45.9937 11.9478C45.9937 11.9372 45.9937 11.9275 45.9937 11.917C45.9937 11.9065 45.9937 11.8933 45.9937 11.881C45.9937 11.8687 45.9937 11.8695 45.9937 11.8634V8.66995H46ZM22.2159 1.31553H23.6573L24.933 4.51601H20.9176L22.2159 1.31553ZM1.34977 11.1999V10.3809L2.56601 11.1999H1.34977ZM1.96149 9.19106L6.9976 8.60931L4.64802 10.9978L1.96149 9.19106ZM6.53994 15.8592C6.53994 15.8708 6.53519 15.882 6.52675 15.8902C6.5183 15.8985 6.50684 15.9031 6.49489 15.9031H4.06242C4.05048 15.9031 4.03902 15.8985 4.03057 15.8902C4.02212 15.882 4.01738 15.8708 4.01738 15.8592V12.5198H6.53994V15.8592ZM6.31741 11.2017L8.79223 8.68401L11.267 11.1999L6.31741 11.2017ZM10.2184 8.23144L15.4374 7.62333L12.8031 10.8598L10.2184 8.23144ZM16.3113 11.2017H14.25L16.3113 8.66995V11.2017ZM16.3113 5.87986V6.1927L5.86876 7.40804L20.5537 1.81995L19.4645 4.51601H17.7113C17.5276 4.51566 17.3457 4.55063 17.1759 4.61892C17.0061 4.6872 16.8518 4.78746 16.7218 4.91397C16.5918 5.04047 16.4886 5.19074 16.4181 5.35617C16.3477 5.52161 16.3114 5.69896 16.3113 5.8781V5.87986ZM30.0989 41.9146C30.2781 41.9146 30.4499 41.9841 30.5766 42.1077C30.7034 42.2313 30.7745 42.3989 30.7745 42.5737V43.6722L15.0986 43.6774V42.5737C15.0986 42.3989 15.1698 42.2313 15.2965 42.1077C15.4232 41.9841 15.5951 41.9146 15.7743 41.9146H30.0989ZM20.6293 15.8495V13.3889H22.4978L20.6293 15.8495ZM24.178 13.3889H25.2438V21L21.142 17.3917L24.178 13.3889ZM24.6285 22.239L20.6293 25.7541V18.7152L24.6285 22.239ZM25.242 23.4746V30.5135L21.2411 26.9984L25.242 23.4746ZM24.6285 31.749L20.6275 35.2685V28.2296L24.6285 31.749ZM25.242 32.9846V40.5965H24.178L21.142 36.5893L25.242 32.9846ZM22.4978 40.5965H20.6293V38.1359L22.4978 40.5965ZM28.2105 6.69008V12.0225C28.2105 12.0341 28.2058 12.0453 28.1973 12.0535C28.1889 12.0618 28.1774 12.0664 28.1655 12.0664H17.7113C17.6993 12.0664 17.6879 12.0618 17.6794 12.0535C17.671 12.0453 17.6662 12.0341 17.6662 12.0225V5.8781C17.6662 5.86645 17.671 5.85527 17.6794 5.84703C17.6879 5.83879 17.6993 5.83416 17.7113 5.83416H28.1619C28.1738 5.83416 28.1853 5.83879 28.1937 5.84703C28.2022 5.85527 28.2069 5.86645 28.2069 5.8781L28.2105 6.69008ZM28.1619 4.51601H26.3781L25.297 1.81204L40.0197 7.37904L29.5619 6.12503V5.8781C29.5618 5.69896 29.5255 5.52161 29.455 5.35617C29.3846 5.19074 29.2814 5.04047 29.1514 4.91397C29.0213 4.78746 28.867 4.6872 28.6972 4.61892C28.5275 4.55063 28.3455 4.51566 28.1619 4.51601ZM29.5583 7.45373L31.7764 7.71736L29.5583 10.1331V7.45373ZM30.3944 11.1999L33.1304 8.22002L35.7368 11.1999H30.3944ZM37.2611 10.909L34.7872 8.08205L39.7377 8.67434L37.2611 10.909ZM41.0612 30.0978L39.6486 30.6928L38.235 30.0978V28.6452H41.0621L41.0612 30.0978ZM38.9729 27.3271V12.5181H40.3242V27.3271H38.9729ZM38.9287 11.1999L41.2648 9.09088L43.6009 11.1999H38.9287ZM44.6486 10.3502L43.2576 9.09351L44.6486 9.26048V10.3502Z" fill="url(#paint17_linear_841_3624)"/>
<path d="M46 8.66995C46 8.65765 46 8.64534 46 8.63304V8.6058C46 8.59525 46 8.58471 45.9955 8.57416L45.9901 8.54253C45.9901 8.53374 45.9901 8.52495 45.9838 8.51616C45.9775 8.50738 45.9775 8.49244 45.9739 8.48101L45.9658 8.45816C45.9613 8.44586 45.9568 8.43444 45.9514 8.42301C45.9459 8.41159 45.945 8.40807 45.9423 8.40104C45.9396 8.39401 45.9306 8.37908 45.9243 8.36765C45.918 8.35623 45.9099 8.35271 45.9099 8.34568L45.891 8.3158L45.8748 8.29296C45.8685 8.28505 45.8622 8.27626 45.855 8.26835L45.836 8.24462L45.8153 8.22353L45.7919 8.19981L45.7703 8.18135C45.7592 8.17129 45.7474 8.1619 45.7351 8.15323C45.7222 8.14307 45.7087 8.13368 45.6946 8.12511C45.6889 8.12108 45.6829 8.11756 45.6766 8.11457L45.6378 8.0926L45.6189 8.08381L45.5775 8.06536H45.5703L24.3618 0.0421981C24.3522 0.0381907 24.3423 0.0349578 24.3321 0.0325316L24.3105 0.0255015C24.281 0.0167494 24.2509 0.0102849 24.2204 0.00616856H24.2096C24.1815 0.00240414 24.1532 0.0003497 24.1249 1.71841e-05H21.7483C21.7181 -0.000211635 21.688 0.00184502 21.6582 0.00616856H21.6483C21.6179 0.0111342 21.5878 0.0178836 21.5582 0.0263802L21.5375 0.0325316L21.5059 0.0430768L0.429036 8.06272H0.422729L0.378584 8.08205L0.362368 8.08996C0.347953 8.09699 0.333539 8.10578 0.319124 8.11457L0.30561 8.1216L0.25606 8.15675L0.229033 8.17959L0.208311 8.19717L0.183987 8.22178L0.165068 8.24199L0.143446 8.26923L0.124526 8.29296L0.10831 8.31756C0.101782 8.32661 0.0957673 8.33599 0.0902917 8.34568L0.076778 8.36853L0.0605615 8.40104C0.0605615 8.40895 0.0533542 8.41598 0.0506514 8.42389C0.0479487 8.4318 0.0407414 8.44674 0.0362368 8.45816L0.0281286 8.48189C0.0281286 8.49332 0.0218222 8.50474 0.0191194 8.51616C0.0164167 8.52759 0.0191194 8.53462 0.0119121 8.5434L0.00650661 8.57416C0.00650661 8.58471 0.00650661 8.59613 0.00200203 8.60668C-0.00250254 8.61722 0.00200203 8.62425 0.00200203 8.63304C0.00200203 8.64183 0.00200203 8.65765 0.00200203 8.66995C0.00200203 8.68225 0.00200203 8.67698 0.00200203 8.67698V11.8608C0.00200203 12.0356 0.0731902 12.2032 0.199906 12.3268C0.326622 12.4504 0.498485 12.5198 0.677688 12.5198H2.66601V15.8592C2.66625 16.2203 2.81344 16.5667 3.07527 16.822C3.3371 17.0774 3.69214 17.221 4.06242 17.2212H6.49489C6.86517 17.221 7.22022 17.0774 7.48205 16.822C7.74387 16.5667 7.89107 16.2203 7.89131 15.8592V12.5198H16.4086C16.5113 12.7751 16.6906 12.9941 16.923 13.1484C17.1555 13.3027 17.4302 13.385 17.7113 13.3845H19.2816V40.5965H15.7743C15.2369 40.597 14.7215 40.8054 14.3415 41.1761C13.9615 41.5468 13.7477 42.0495 13.7473 42.5737V43.6818H4.27774C4.09854 43.6818 3.92668 43.7513 3.79996 43.8749C3.67325 43.9985 3.60206 44.1661 3.60206 44.3409C3.60206 44.5157 3.67325 44.6834 3.79996 44.807C3.92668 44.9306 4.09854 45 4.27774 45L41.7207 44.9903C41.8999 44.9903 42.0717 44.9209 42.1984 44.7973C42.3252 44.6737 42.3963 44.5061 42.3963 44.3313C42.3963 44.1565 42.3252 43.9888 42.1984 43.8652C42.0717 43.7416 41.8999 43.6722 41.7207 43.6722H32.1259V42.5737C32.1254 42.0495 31.9117 41.5468 31.5317 41.1761C31.1516 40.8054 30.6363 40.597 30.0989 40.5965H26.5952V13.3845H28.1619C28.4426 13.3841 28.7167 13.3012 28.9484 13.1467C29.1801 12.9921 29.3588 12.7731 29.461 12.5181H37.6215V27.3271H37.5593C37.3801 27.3271 37.2083 27.3965 37.0816 27.5201C36.9548 27.6437 36.8836 27.8114 36.8836 27.9862V30.5346C36.8837 30.6632 36.9223 30.7891 36.9948 30.8965C37.0674 31.004 37.1706 31.0883 37.2918 31.1392L38.9729 31.8422V33.3449C38.9729 33.5197 39.0441 33.6873 39.1708 33.8109C39.2975 33.9345 39.4693 34.004 39.6486 34.004H39.6936C39.7851 34.004 39.8751 34.0266 39.9552 34.0698C40.0353 34.113 40.1028 34.1754 40.1514 34.251C40.2001 34.3266 40.2282 34.413 40.2333 34.5021C40.2383 34.5913 40.2201 34.6802 40.1803 34.7606C40.1405 34.8409 40.0804 34.9101 40.0057 34.9617C39.931 35.0132 39.8441 35.0454 39.7531 35.0553C39.6622 35.0651 39.5702 35.0523 39.4857 35.0179C39.4012 34.9836 39.3271 34.9289 39.2702 34.859C39.1586 34.7222 38.9959 34.6342 38.8178 34.6145C38.6397 34.5947 38.4609 34.6447 38.3206 34.7536C38.1804 34.8624 38.0902 35.0211 38.0699 35.1948C38.0496 35.3685 38.1009 35.543 38.2125 35.6798C38.3943 35.9046 38.6272 36.0851 38.8928 36.207C39.1585 36.3289 39.4496 36.3888 39.743 36.382C40.0365 36.3751 40.3244 36.3018 40.5838 36.1678C40.8432 36.0337 41.067 35.8426 41.2377 35.6096C41.4083 35.3766 41.521 35.108 41.5668 34.8252C41.6126 34.5424 41.5904 34.253 41.5017 33.98C41.4131 33.707 41.2606 33.4579 41.0562 33.2523C40.8519 33.0468 40.6013 32.8904 40.3242 32.7957V31.844L42.0053 31.1409C42.1265 31.0901 42.2297 31.0057 42.3023 30.8983C42.3748 30.7908 42.4135 30.665 42.4135 30.5363V27.9879C42.4135 27.8131 42.3423 27.6455 42.2156 27.5219C42.0888 27.3983 41.917 27.3288 41.7378 27.3288H41.6756V12.5181H45.336H45.373H45.4045L45.4378 12.5128L45.4703 12.5067L45.5009 12.4996L45.5333 12.49C45.5437 12.487 45.554 12.4834 45.564 12.4794L45.5946 12.468L45.6252 12.453L45.6532 12.4399L45.6829 12.4214L45.709 12.4056L45.736 12.3854L45.7622 12.3652L45.7847 12.345L45.8117 12.3195L45.8198 12.3116L45.8315 12.2984C45.8398 12.2894 45.8476 12.28 45.855 12.2703L45.8739 12.2465L45.8937 12.2184L45.9099 12.1912L45.9261 12.1631L45.9405 12.1341C45.945 12.1244 45.9487 12.1138 45.9532 12.1042L45.964 12.0743C45.964 12.0638 45.9712 12.0541 45.9739 12.0435C45.9766 12.033 45.9802 12.0225 45.982 12.0119C45.9838 12.0014 45.9865 11.9917 45.9883 11.9811C45.9909 11.9702 45.9927 11.959 45.9937 11.9478C45.9937 11.9372 45.9937 11.9275 45.9937 11.917C45.9937 11.9065 45.9937 11.8933 45.9937 11.881C45.9937 11.8687 45.9937 11.8695 45.9937 11.8634V8.66995H46ZM22.2159 1.31553H23.6573L24.933 4.51601H20.9176L22.2159 1.31553ZM1.34977 11.1999V10.3809L2.56601 11.1999H1.34977ZM1.96149 9.19106L6.9976 8.60931L4.64802 10.9978L1.96149 9.19106ZM6.53994 15.8592C6.53994 15.8708 6.53519 15.882 6.52675 15.8902C6.5183 15.8985 6.50684 15.9031 6.49489 15.9031H4.06242C4.05048 15.9031 4.03902 15.8985 4.03057 15.8902C4.02212 15.882 4.01738 15.8708 4.01738 15.8592V12.5198H6.53994V15.8592ZM6.31741 11.2017L8.79223 8.68401L11.267 11.1999L6.31741 11.2017ZM10.2184 8.23144L15.4374 7.62333L12.8031 10.8598L10.2184 8.23144ZM16.3113 11.2017H14.25L16.3113 8.66995V11.2017ZM16.3113 5.87986V6.1927L5.86876 7.40804L20.5537 1.81995L19.4645 4.51601H17.7113C17.5276 4.51566 17.3457 4.55063 17.1759 4.61892C17.0061 4.6872 16.8518 4.78746 16.7218 4.91397C16.5918 5.04047 16.4886 5.19074 16.4181 5.35617C16.3477 5.52161 16.3114 5.69896 16.3113 5.8781V5.87986ZM30.0989 41.9146C30.2781 41.9146 30.4499 41.9841 30.5766 42.1077C30.7034 42.2313 30.7745 42.3989 30.7745 42.5737V43.6722L15.0986 43.6774V42.5737C15.0986 42.3989 15.1698 42.2313 15.2965 42.1077C15.4232 41.9841 15.5951 41.9146 15.7743 41.9146H30.0989ZM20.6293 15.8495V13.3889H22.4978L20.6293 15.8495ZM24.178 13.3889H25.2438V21L21.142 17.3917L24.178 13.3889ZM24.6285 22.239L20.6293 25.7541V18.7152L24.6285 22.239ZM25.242 23.4746V30.5135L21.2411 26.9984L25.242 23.4746ZM24.6285 31.749L20.6275 35.2685V28.2296L24.6285 31.749ZM25.242 32.9846V40.5965H24.178L21.142 36.5893L25.242 32.9846ZM22.4978 40.5965H20.6293V38.1359L22.4978 40.5965ZM28.2105 6.69008V12.0225C28.2105 12.0341 28.2058 12.0453 28.1973 12.0535C28.1889 12.0618 28.1774 12.0664 28.1655 12.0664H17.7113C17.6993 12.0664 17.6879 12.0618 17.6794 12.0535C17.671 12.0453 17.6662 12.0341 17.6662 12.0225V5.8781C17.6662 5.86645 17.671 5.85527 17.6794 5.84703C17.6879 5.83879 17.6993 5.83416 17.7113 5.83416H28.1619C28.1738 5.83416 28.1853 5.83879 28.1937 5.84703C28.2022 5.85527 28.2069 5.86645 28.2069 5.8781L28.2105 6.69008ZM28.1619 4.51601H26.3781L25.297 1.81204L40.0197 7.37904L29.5619 6.12503V5.8781C29.5618 5.69896 29.5255 5.52161 29.455 5.35617C29.3846 5.19074 29.2814 5.04047 29.1514 4.91397C29.0213 4.78746 28.867 4.6872 28.6972 4.61892C28.5275 4.55063 28.3455 4.51566 28.1619 4.51601ZM29.5583 7.45373L31.7764 7.71736L29.5583 10.1331V7.45373ZM30.3944 11.1999L33.1304 8.22002L35.7368 11.1999H30.3944ZM37.2611 10.909L34.7872 8.08205L39.7377 8.67434L37.2611 10.909ZM41.0612 30.0978L39.6486 30.6928L38.235 30.0978V28.6452H41.0621L41.0612 30.0978ZM38.9729 27.3271V12.5181H40.3242V27.3271H38.9729ZM38.9287 11.1999L41.2648 9.09088L43.6009 11.1999H38.9287ZM44.6486 10.3502L43.2576 9.09351L44.6486 9.26048V10.3502Z" fill="black" fill-opacity="0.2"/>
<defs>
<linearGradient id="paint0_linear_841_3624" x1="53.7424" y1="43.6667" x2="53.8724" y2="45.9417" gradientUnits="userSpaceOnUse">
<stop stop-color="#002E33"/>
<stop offset="0.515422" stop-color="#18494E"/>
<stop offset="0.994225" stop-color="#00474D"/>
</linearGradient>
<linearGradient id="paint1_linear_841_3624" x1="56.5702" y1="23.484" x2="79.4997" y2="37.6046" gradientUnits="userSpaceOnUse">
<stop stop-color="#002E33"/>
<stop offset="0.515422" stop-color="#18494E"/>
<stop offset="0.994225" stop-color="#00474D"/>
</linearGradient>
<linearGradient id="paint2_linear_841_3624" x1="63.3569" y1="39.4424" x2="69.6161" y2="45.252" gradientUnits="userSpaceOnUse">
<stop stop-color="#002E33"/>
<stop offset="0.515422" stop-color="#18494E"/>
<stop offset="0.994225" stop-color="#00474D"/>
</linearGradient>
<linearGradient id="paint3_linear_841_3624" x1="66.7502" y1="39.7562" x2="68.3721" y2="40.019" gradientUnits="userSpaceOnUse">
<stop stop-color="#002E33"/>
<stop offset="0.515422" stop-color="#18494E"/>
<stop offset="0.994225" stop-color="#00474D"/>
</linearGradient>
<linearGradient id="paint4_linear_841_3624" x1="58.8324" y1="29.9093" x2="66.086" y2="41.2446" gradientUnits="userSpaceOnUse">
<stop stop-color="#002E33"/>
<stop offset="0.515422" stop-color="#18494E"/>
<stop offset="0.994225" stop-color="#00474D"/>
</linearGradient>
<linearGradient id="paint5_linear_841_3624" x1="58.7144" y1="28.5086" x2="61.4309" y2="30.4897" gradientUnits="userSpaceOnUse">
<stop stop-color="#002E33"/>
<stop offset="0.515422" stop-color="#18494E"/>
<stop offset="0.994225" stop-color="#00474D"/>
</linearGradient>
<linearGradient id="paint6_linear_841_3624" x1="58.1191" y1="23.6643" x2="61.3789" y2="26.0415" gradientUnits="userSpaceOnUse">
<stop stop-color="#002E33"/>
<stop offset="0.515422" stop-color="#18494E"/>
<stop offset="0.994225" stop-color="#00474D"/>
</linearGradient>
<linearGradient id="paint7_linear_841_3624" x1="58.7144" y1="23.5086" x2="61.4309" y2="25.4897" gradientUnits="userSpaceOnUse">
<stop stop-color="#002E33"/>
<stop offset="0.515422" stop-color="#18494E"/>
<stop offset="0.994225" stop-color="#00474D"/>
</linearGradient>
<linearGradient id="paint8_linear_841_3624" x1="63.0894" y1="28.5086" x2="65.8059" y2="30.4897" gradientUnits="userSpaceOnUse">
<stop stop-color="#002E33"/>
<stop offset="0.515422" stop-color="#18494E"/>
<stop offset="0.994225" stop-color="#00474D"/>
</linearGradient>
<linearGradient id="paint9_linear_841_3624" x1="68.3569" y1="28.6643" x2="71.3479" y2="33.7538" gradientUnits="userSpaceOnUse">
<stop stop-color="#002E33"/>
<stop offset="0.515422" stop-color="#18494E"/>
<stop offset="0.994225" stop-color="#00474D"/>
</linearGradient>
<linearGradient id="paint10_linear_841_3624" x1="56.7502" y1="10.685" x2="58.4081" y2="10.7902" gradientUnits="userSpaceOnUse">
<stop stop-color="#002E33"/>
<stop offset="0.515422" stop-color="#18494E"/>
<stop offset="0.994225" stop-color="#00474D"/>
</linearGradient>
<linearGradient id="paint11_linear_841_3624" x1="76.7502" y1="13.5012" x2="78.4026" y2="13.643" gradientUnits="userSpaceOnUse">
<stop stop-color="#002E33"/>
<stop offset="0.515422" stop-color="#18494E"/>
<stop offset="0.994225" stop-color="#00474D"/>
</linearGradient>
<linearGradient id="paint12_linear_841_3624" x1="70.5002" y1="14.7463" x2="72.1591" y2="14.8431" gradientUnits="userSpaceOnUse">
<stop stop-color="#002E33"/>
<stop offset="0.515422" stop-color="#18494E"/>
<stop offset="0.994225" stop-color="#00474D"/>
</linearGradient>
<linearGradient id="paint13_linear_841_3624" x1="63.6252" y1="9.75124" x2="65.2776" y2="9.89301" gradientUnits="userSpaceOnUse">
<stop stop-color="#002E33"/>
<stop offset="0.515422" stop-color="#18494E"/>
<stop offset="0.994225" stop-color="#00474D"/>
</linearGradient>
<linearGradient id="paint14_linear_841_3624" x1="56.5702" y1="13.6667" x2="56.7341" y2="15.9373" gradientUnits="userSpaceOnUse">
<stop stop-color="#002E33"/>
<stop offset="0.515422" stop-color="#18494E"/>
<stop offset="0.994225" stop-color="#00474D"/>
</linearGradient>
<linearGradient id="paint15_linear_841_3624" x1="55.9461" y1="8.66674" x2="56.3049" y2="10.8913" gradientUnits="userSpaceOnUse">
<stop stop-color="#002E33"/>
<stop offset="0.515422" stop-color="#18494E"/>
<stop offset="0.994225" stop-color="#00474D"/>
</linearGradient>
<linearGradient id="paint16_linear_841_3624" x1="67.2852" y1="18.0417" x2="67.5924" y2="20.282" gradientUnits="userSpaceOnUse">
<stop stop-color="#002E33"/>
<stop offset="0.515422" stop-color="#18494E"/>
<stop offset="0.994225" stop-color="#00474D"/>
</linearGradient>
<linearGradient id="paint17_linear_841_3624" x1="1.48596" y1="3.46154" x2="43.2242" y2="35.0563" gradientUnits="userSpaceOnUse">
<stop offset="0.03125" stop-color="#003B40"/>
<stop offset="0.265625" stop-color="#005961"/>
<stop offset="0.509791" stop-color="#00818C"/>
<stop offset="0.760417" stop-color="#005961"/>
<stop offset="0.994792" stop-color="#003B40"/>
</linearGradient>
</defs>
</svg>
