<svg width="49" height="50" viewBox="0 0 49 50" fill="none" xmlns="http://www.w3.org/2000/svg">
<path d="M0.0348668 38.7106C0.273282 43.3985 1.00187 44.2985 1.7575 44.5577C1.80882 44.5728 1.86117 44.5841 1.91414 44.5916V46.9469C1.91477 47.5477 2.15373 48.1238 2.57858 48.5487C3.00344 48.9735 3.57949 49.2125 4.18033 49.2131H8.06977C8.67061 49.2125 9.24667 48.9735 9.67152 48.5487C10.0964 48.1238 10.3353 47.5477 10.336 46.9469V44.4568H10.6825C10.8835 44.4568 11.0764 44.3778 11.2197 44.2369L12.1554 43.3158H27.657L28.5928 44.2369C28.7361 44.3778 28.929 44.4568 29.13 44.4568H29.4765V46.9469C29.4771 47.5477 29.7161 48.1238 30.141 48.5487C30.5658 48.9735 31.1419 49.2125 31.7427 49.2131H35.6322C36.233 49.2125 36.8091 48.9735 37.2339 48.5487C37.6588 48.1238 37.8978 47.5477 37.8984 46.9469V44.5973C37.9515 44.5878 38.0038 44.5746 38.055 44.5577C38.8107 44.2984 39.5392 43.3985 39.7776 38.7106C39.7997 38.6406 39.8114 38.5678 39.8124 38.4944C39.8123 38.4405 39.8064 38.3868 39.795 38.3342C39.7964 38.3026 39.798 38.2728 39.7993 38.2409C40.0137 33.1059 37.585 30.0195 35.9591 28.5412H39.0468C39.2499 28.5412 39.4446 28.4606 39.5882 28.317C39.7317 28.1734 39.8124 27.9787 39.8124 27.7756C39.8112 26.7607 39.4075 25.7877 38.6899 25.07C37.9722 24.3524 36.9992 23.9487 35.9843 23.9475H34.8359C34.5633 23.9484 34.294 24.0079 34.0464 24.1219C33.7988 24.236 33.5786 24.4019 33.4008 24.6085C32.5307 22.973 31.5312 21.3683 30.696 20.101C30.2225 19.3931 29.5803 18.8141 28.8272 18.4163C28.0742 18.0186 27.2339 17.8145 26.3823 17.8225H13.4302C12.5786 17.8145 11.7383 18.0185 10.9853 18.4163C10.2322 18.8141 9.58997 19.3931 9.11652 20.1011C8.28129 21.3683 7.28183 22.973 6.41172 24.6085C6.23385 24.4019 6.01366 24.236 5.76605 24.1219C5.51845 24.0079 5.24922 23.9484 4.97661 23.9475H3.8282C2.81328 23.9487 1.84028 24.3524 1.12262 25.07C0.404967 25.7877 0.0012654 26.7607 7.29514e-05 27.7756C8.31033e-05 27.9787 0.0807502 28.1734 0.224331 28.317C0.367911 28.4606 0.562645 28.5412 0.765698 28.5412H3.85341C2.22751 30.0195 -0.201214 33.1059 0.0131575 38.2409C0.0144897 38.2728 0.0160783 38.3026 0.0174565 38.3342C0.00605079 38.3868 0.000224107 38.4405 7.29514e-05 38.4944C0.00112545 38.5678 0.0128461 38.6406 0.0348668 38.7106ZM8.80474 46.9469C8.80451 47.1418 8.72701 47.3286 8.58922 47.4663C8.45144 47.6041 8.26462 47.6816 8.06977 47.6819H4.18033C3.98548 47.6816 3.79867 47.6041 3.66089 47.4663C3.52311 47.3286 3.44561 47.1418 3.44539 46.9469V44.4568H8.80474L8.80474 46.9469ZM36.3671 46.9469C36.3669 47.1418 36.2894 47.3286 36.1516 47.4663C36.0138 47.6041 35.827 47.6816 35.6322 47.6819H31.7427C31.5479 47.6816 31.3611 47.6041 31.2233 47.4663C31.0855 47.3286 31.008 47.1418 31.0078 46.9469V44.4568H36.3671V46.9469ZM37.5914 42.9644C37.5137 42.9386 37.4323 42.9255 37.3503 42.9255H29.4436L28.5079 42.0044C28.3646 41.8635 28.1717 41.7845 27.9707 41.7845H11.8418C11.6408 41.7845 11.4479 41.8635 11.3046 42.0044L10.3689 42.9255H2.46219C2.38025 42.9255 2.29885 42.9386 2.22106 42.9644C2.05346 42.6144 1.76096 41.6756 1.60093 39.26H4.21099C5.39696 39.2579 6.54323 38.8326 7.44358 38.0606C8.34393 37.2887 8.93924 36.2208 9.1224 35.0491H30.6901C30.8733 36.2208 31.4686 37.2887 32.3689 38.0606C33.2693 38.8326 34.4155 39.2579 35.6015 39.26H38.2116C38.0515 41.6756 37.759 42.6144 37.5914 42.9644ZM38.2783 37.7287H35.6015C34.8214 37.7275 34.0648 37.4618 33.4552 36.9751C32.8456 36.4884 32.4189 35.8095 32.2449 35.0491H38.0078C38.1987 35.9292 38.2895 36.8282 38.2783 37.7287ZM34.4531 25.8616C34.4531 25.76 34.4935 25.6627 34.5653 25.5909C34.637 25.5192 34.7344 25.4788 34.8359 25.4787H35.9843C36.4592 25.4793 36.9223 25.6267 37.31 25.9009C37.6977 26.1751 37.9911 26.5625 38.15 27.01H34.5504C34.5171 26.9308 34.4877 26.8533 34.4531 26.7735V25.8616ZM6.89067 27.1034C7.90329 24.9655 9.07469 22.9065 10.395 20.9437C10.7293 20.4476 11.1818 20.0426 11.7116 19.765C12.2415 19.4874 12.8321 19.3461 13.4302 19.3537H26.3823C26.9804 19.3461 27.571 19.4875 28.1009 19.765C28.6307 20.0426 29.0832 20.4476 29.4175 20.9437C30.7378 22.9065 31.9092 24.9655 32.9218 27.1034V27.3928H6.89067V27.1034ZM1.66254 27.01C1.82136 26.5625 2.11477 26.1751 2.50251 25.9009C2.89025 25.6267 3.35332 25.4793 3.82819 25.4787H4.97661C5.07812 25.4788 5.17545 25.5192 5.24722 25.5909C5.319 25.6627 5.35935 25.76 5.35942 25.8616V26.7735C5.32475 26.8533 5.29538 26.9307 5.26204 27.01H1.66254ZM5.89067 28.8836C5.96618 28.9094 6.04528 28.923 6.12505 28.9241H33.6874C33.7672 28.923 33.8463 28.9094 33.9218 28.8837C35.5777 30.02 36.8445 31.6377 37.5508 33.5178H2.26167C2.96777 31.6376 4.23461 30.0199 5.89067 28.8836ZM1.80474 35.0491H7.5676C7.3936 35.8095 6.96695 36.4885 6.35732 36.9751C5.74769 37.4618 4.99108 37.7275 4.21101 37.7287H1.53417C1.52306 36.8282 1.61383 35.9292 1.80474 35.0491Z" fill="url(#paint0_linear_1507_12151)"/>
<path d="M7.65635 40.4082H3.82825C3.62519 40.4082 3.43045 40.4889 3.28687 40.6325C3.14329 40.7761 3.06262 40.9708 3.06262 41.1739C3.06262 41.3769 3.14329 41.5717 3.28687 41.7152C3.43045 41.8588 3.62519 41.9395 3.82825 41.9395H7.65635C7.85941 41.9395 8.05415 41.8588 8.19773 41.7152C8.34131 41.5717 8.42197 41.3769 8.42197 41.1739C8.42197 40.9708 8.34131 40.7761 8.19773 40.6325C8.05415 40.4889 7.85941 40.4082 7.65635 40.4082ZM31.3906 41.1739C31.3906 41.3769 31.4713 41.5717 31.6149 41.7152C31.7585 41.8588 31.9532 41.9395 32.1563 41.9395H35.9844C36.1874 41.9395 36.3822 41.8588 36.5257 41.7152C36.6693 41.5717 36.75 41.3769 36.75 41.1739C36.75 40.9708 36.6693 40.7761 36.5257 40.6325C36.3822 40.4889 36.1874 40.4082 35.9844 40.4082H32.1563C31.9532 40.4083 31.7585 40.4889 31.6149 40.6325C31.4713 40.7761 31.3906 40.9708 31.3906 41.1739ZM24.1172 38.1114H15.6954C15.4923 38.1114 15.2976 38.192 15.154 38.3356C15.0104 38.4792 14.9298 38.6739 14.9298 38.877C14.9298 39.08 15.0104 39.2748 15.154 39.4184C15.2976 39.562 15.4923 39.6426 15.6954 39.6426H24.1172C24.3203 39.6426 24.515 39.562 24.6586 39.4184C24.8022 39.2748 24.8828 39.08 24.8828 38.877C24.8828 38.6739 24.8022 38.4792 24.6586 38.3356C24.515 38.192 24.3203 38.1114 24.1172 38.1114ZM25.2657 4.17676C24.5933 4.17748 23.9486 4.44491 23.4731 4.92037C22.9977 5.39583 22.7302 6.04049 22.7295 6.71289C22.7295 6.73441 22.7322 6.75523 22.7327 6.77661C22.7323 6.78745 22.7295 6.79763 22.7295 6.80859V10.796C22.7295 10.999 22.8102 11.1938 22.9538 11.3373C23.0974 11.4809 23.2921 11.5616 23.4951 11.5616C23.6982 11.5616 23.8929 11.4809 24.0365 11.3373C24.1801 11.1938 24.2608 10.999 24.2608 10.796V9.04044C24.6065 9.18973 24.9811 9.26014 25.3574 9.24657C25.7337 9.23301 26.1023 9.1358 26.4363 8.96201C26.7704 8.78822 27.0615 8.54221 27.2887 8.24185C27.5158 7.9415 27.6731 7.59433 27.7493 7.22556C27.8255 6.85679 27.8186 6.47568 27.7291 6.10991C27.6396 5.74414 27.4698 5.40289 27.232 5.11095C26.9942 4.819 26.6943 4.58369 26.3542 4.4221C26.0141 4.26051 25.6422 4.1767 25.2657 4.17676ZM25.2657 7.71777C25.0669 7.71777 24.8726 7.65884 24.7074 7.54842C24.5421 7.438 24.4133 7.28106 24.3373 7.09744C24.2612 6.91382 24.2413 6.71178 24.2801 6.51685C24.3189 6.32192 24.4146 6.14287 24.5551 6.00233C24.6956 5.8618 24.8747 5.76609 25.0696 5.72732C25.2645 5.68854 25.4666 5.70844 25.6502 5.7845C25.8338 5.86056 25.9908 5.98936 26.1012 6.15461C26.2116 6.31986 26.2705 6.51414 26.2705 6.71289C26.2702 6.9793 26.1642 7.23471 25.9759 7.42309C25.7875 7.61148 25.5321 7.71745 25.2657 7.71777Z" fill="url(#paint1_linear_1507_12151)"/>
<path d="M43.6406 5.18947H31.7787C31.2332 3.55049 30.1222 2.15915 28.6446 1.26449C27.167 0.369827 25.4192 0.0302562 23.714 0.306556C22.0089 0.582856 20.4578 1.45699 19.3383 2.77249C18.2188 4.08799 17.604 5.75897 17.604 7.48634C17.604 9.21371 18.2188 10.8847 19.3383 12.2002C20.4578 13.5157 22.0089 14.3898 23.714 14.6661C25.4192 14.9424 27.167 14.6029 28.6446 13.7082C30.1222 12.8135 31.2332 11.4222 31.7787 9.78322H42.875V36.9629H42.7897C42.3951 36.9749 42.0214 37.1428 41.7504 37.4298C41.4794 37.7168 41.3331 38.0995 41.3437 38.4942V48.4473C41.3437 48.6503 41.4244 48.8451 41.568 48.9887C41.7115 49.1322 41.9063 49.2129 42.1093 49.2129C42.3124 49.2129 42.5071 49.1322 42.6507 48.9887C42.7943 48.8451 42.875 48.6503 42.875 48.4473L42.8821 38.4942H47.4687V48.4473C47.4687 48.6503 47.5493 48.8451 47.6929 48.9887C47.8365 49.1322 48.0312 49.2129 48.2343 49.2129C48.4374 49.2129 48.6321 49.1322 48.7757 48.9887C48.9193 48.8451 48.9999 48.6503 48.9999 48.4473V38.4942C49.0105 38.0995 48.8643 37.7168 48.5932 37.4298C48.3222 37.1428 47.9485 36.9749 47.5539 36.9629H47.4687V9.01759C47.4675 8.00268 47.0638 7.02968 46.3461 6.31203C45.6285 5.59437 44.6555 5.19067 43.6406 5.18947ZM24.8828 13.2285C23.7471 13.2285 22.6369 12.8918 21.6926 12.2608C20.7483 11.6299 20.0123 10.733 19.5777 9.6838C19.1431 8.63455 19.0294 7.47999 19.251 6.36611C19.4725 5.25224 20.0194 4.22907 20.8225 3.42601C21.6255 2.62295 22.6487 2.07606 23.7626 1.85449C24.8764 1.63293 26.031 1.74664 27.0802 2.18125C28.1295 2.61586 29.0263 3.35185 29.6573 4.29615C30.2882 5.24045 30.625 6.35065 30.625 7.48634C30.625 9.00926 30.02 10.4698 28.9432 11.5467C27.8663 12.6235 26.4058 13.2285 24.8828 13.2285ZM45.9374 36.9629H44.4062V9.01759C44.4062 8.81454 44.3255 8.61981 44.1819 8.47623C44.0384 8.33265 43.8436 8.25198 43.6406 8.25197H32.1151C32.17 7.74303 32.17 7.22966 32.1151 6.72072H43.6406C44.2495 6.72138 44.8334 6.96359 45.264 7.39419C45.6946 7.8248 45.9368 8.40863 45.9374 9.01759V36.9629Z" fill="url(#paint2_linear_1507_12151)"/>
<defs>
<linearGradient id="paint0_linear_1507_12151" x1="1.89316" y1="25.639" x2="30.4648" y2="52.0657" gradientUnits="userSpaceOnUse">
<stop stop-color="#002E33"/>
<stop offset="0.515422" stop-color="#18494E"/>
<stop offset="0.994225" stop-color="#00474D"/>
</linearGradient>
<linearGradient id="paint1_linear_1507_12151" x1="4.66462" y1="13.5802" x2="36.1828" y2="34.0849" gradientUnits="userSpaceOnUse">
<stop stop-color="#002E33"/>
<stop offset="0.515422" stop-color="#18494E"/>
<stop offset="0.994225" stop-color="#00474D"/>
</linearGradient>
<linearGradient id="paint2_linear_1507_12151" x1="19.0971" y1="12.4146" x2="53.4119" y2="28.4491" gradientUnits="userSpaceOnUse">
<stop stop-color="#002E33"/>
<stop offset="0.515422" stop-color="#18494E"/>
<stop offset="0.994225" stop-color="#00474D"/>
</linearGradient>
</defs>
</svg>
