<svg width="40" height="40" viewBox="0 0 40 40" fill="none" xmlns="http://www.w3.org/2000/svg">
<path d="M10.8922 12.0229H8.67438C8.59446 12.0229 8.51781 12.0547 8.4613 12.1112C8.40479 12.1677 8.37305 12.2444 8.37305 12.3243V24.0762C8.37305 24.1561 8.40479 24.2327 8.4613 24.2893C8.51781 24.3458 8.59446 24.3775 8.67438 24.3775H17.2322C17.3121 24.3775 17.3887 24.3458 17.4452 24.2893C17.5018 24.2327 17.5335 24.1561 17.5335 24.0762C17.5335 23.9963 17.5018 23.9196 17.4452 23.8631C17.3887 23.8066 17.3121 23.7749 17.2322 23.7749H8.97571V12.6256H10.8922C10.9721 12.6256 11.0487 12.5939 11.1052 12.5374C11.1618 12.4808 11.1935 12.4042 11.1935 12.3243C11.1935 12.2444 11.1618 12.1677 11.1052 12.1112C11.0487 12.0547 10.9721 12.0229 10.8922 12.0229ZM24.5997 16.567C24.6796 16.567 24.7563 16.5353 24.8128 16.4788C24.8693 16.4222 24.901 16.3456 24.901 16.2657V12.3243C24.901 12.2444 24.8693 12.1677 24.8128 12.1112C24.7563 12.0547 24.6796 12.0229 24.5997 12.0229H22.3789C22.299 12.0229 22.2223 12.0547 22.1658 12.1112C22.1093 12.1677 22.0776 12.2444 22.0776 12.3243C22.0776 12.4042 22.1093 12.4808 22.1658 12.5374C22.2223 12.5939 22.299 12.6256 22.3789 12.6256H24.2984V16.2657C24.2984 16.3456 24.3301 16.4222 24.3866 16.4788C24.4431 16.5353 24.5198 16.567 24.5997 16.567ZM13.1552 12.3243C13.1552 12.4042 13.1869 12.4808 13.2434 12.5374C13.2999 12.5939 13.3766 12.6256 13.4565 12.6256H19.8176C19.8975 12.6256 19.9742 12.5939 20.0307 12.5374C20.0872 12.4808 20.1189 12.4042 20.1189 12.3243C20.1189 12.2444 20.0872 12.1677 20.0307 12.1112C19.9742 12.0547 19.8975 12.0229 19.8176 12.0229H13.4565C13.3766 12.0229 13.2999 12.0547 13.2434 12.1112C13.1869 12.1677 13.1552 12.2444 13.1552 12.3243Z" fill="url(#paint0_linear_1320_8475)"/>
<path d="M11.1642 16.0802C11.1642 16.0003 11.1324 15.9236 11.0759 15.8671C11.0194 15.8106 10.9428 15.7788 10.8629 15.7788C10.7829 15.7788 10.7063 15.8106 10.6498 15.8671C10.5933 15.9236 10.5615 16.0003 10.5615 16.0802V16.957C10.5615 17.037 10.5933 17.1136 10.6498 17.1701C10.7063 17.2266 10.7829 17.2584 10.8629 17.2584H12.5383C12.6182 17.2584 12.6948 17.2266 12.7513 17.1701C12.8078 17.1136 12.8396 17.037 12.8396 16.957C12.8396 16.8771 12.8078 16.8005 12.7513 16.744C12.6948 16.6875 12.6182 16.6557 12.5383 16.6557H11.1642V16.0802ZM12.5383 18.9428H11.1642V18.3703C11.1642 18.2904 11.1324 18.2137 11.0759 18.1572C11.0194 18.1007 10.9428 18.069 10.8629 18.069C10.7829 18.069 10.7063 18.1007 10.6498 18.1572C10.5933 18.2137 10.5615 18.2904 10.5615 18.3703V19.2441C10.5615 19.3241 10.5933 19.4007 10.6498 19.4572C10.7063 19.5137 10.7829 19.5455 10.8629 19.5455H12.5383C12.6182 19.5455 12.6948 19.5137 12.7513 19.4572C12.8078 19.4007 12.8396 19.3241 12.8396 19.2441C12.8396 19.1642 12.8078 19.0876 12.7513 19.0311C12.6948 18.9746 12.6182 18.9428 12.5383 18.9428ZM10.8629 20.3591C10.7829 20.3591 10.7063 20.3908 10.6498 20.4473C10.5933 20.5038 10.5615 20.5805 10.5615 20.6604V21.5373C10.5615 21.6172 10.5933 21.6938 10.6498 21.7503C10.7063 21.8069 10.7829 21.8386 10.8629 21.8386H12.5383C12.6182 21.8386 12.6948 21.8069 12.7513 21.7503C12.8078 21.6938 12.8396 21.6172 12.8396 21.5373C12.8396 21.4574 12.8078 21.3807 12.7513 21.3242C12.6948 21.2677 12.6182 21.2359 12.5383 21.2359H11.1642V20.6604C11.1642 20.5805 11.1324 20.5038 11.0759 20.4473C11.0194 20.3908 10.9428 20.3591 10.8629 20.3591ZM15.8288 16.6497H14.4547V16.0802C14.4547 16.0003 14.423 15.9236 14.3665 15.8671C14.31 15.8106 14.2333 15.7788 14.1534 15.7788C14.0735 15.7788 13.9968 15.8106 13.9403 15.8671C13.8838 15.9236 13.8521 16.0003 13.8521 16.0802V16.957C13.8521 17.037 13.8838 17.1136 13.9403 17.1701C13.9968 17.2266 14.0735 17.2584 14.1534 17.2584H15.8288C15.9087 17.2584 15.9853 17.2266 16.0419 17.1701C16.0984 17.1136 16.1301 17.037 16.1301 16.957C16.1301 16.8771 16.0984 16.8005 16.0419 16.744C15.9853 16.6875 15.9087 16.6557 15.8288 16.6557V16.6497ZM15.8288 18.9428H14.4547V18.3703C14.4547 18.2904 14.423 18.2137 14.3665 18.1572C14.31 18.1007 14.2333 18.069 14.1534 18.069C14.0735 18.069 13.9968 18.1007 13.9403 18.1572C13.8838 18.2137 13.8521 18.2904 13.8521 18.3703V19.2441C13.8521 19.3241 13.8838 19.4007 13.9403 19.4572C13.9968 19.5137 14.0735 19.5455 14.1534 19.5455H15.8288C15.9087 19.5455 15.9853 19.5137 16.0419 19.4572C16.0984 19.4007 16.1301 19.3241 16.1301 19.2441C16.1301 19.1642 16.0984 19.0876 16.0419 19.0311C15.9853 18.9746 15.9087 18.9428 15.8288 18.9428ZM14.1534 20.3591C14.0735 20.3591 13.9968 20.3908 13.9403 20.4473C13.8838 20.5038 13.8521 20.5805 13.8521 20.6604V21.5373C13.8521 21.6172 13.8838 21.6938 13.9403 21.7503C13.9968 21.8069 14.0735 21.8386 14.1534 21.8386H15.8288C15.9087 21.8386 15.9853 21.8069 16.0419 21.7503C16.0984 21.6938 16.1301 21.6172 16.1301 21.5373C16.1301 21.4574 16.0984 21.3807 16.0419 21.3242C15.9853 21.2677 15.9087 21.2359 15.8288 21.2359H14.4547V20.6604C14.4547 20.5805 14.423 20.5038 14.3665 20.4473C14.31 20.3908 14.2333 20.3591 14.1534 20.3591ZM19.1193 16.6497H17.7452V16.0802C17.7452 16.0003 17.7135 15.9236 17.657 15.8671C17.6005 15.8106 17.5238 15.7788 17.4439 15.7788C17.364 15.7788 17.2874 15.8106 17.2308 15.8671C17.1743 15.9236 17.1426 16.0003 17.1426 16.0802V16.957C17.1426 17.037 17.1743 17.1136 17.2308 17.1701C17.2874 17.2266 17.364 17.2584 17.4439 17.2584H19.1193C19.1992 17.2584 19.2759 17.2266 19.3324 17.1701C19.3889 17.1136 19.4206 17.037 19.4206 16.957C19.4206 16.8771 19.3889 16.8005 19.3324 16.744C19.2759 16.6875 19.1992 16.6557 19.1193 16.6557V16.6497ZM17.4439 18.069C17.364 18.069 17.2874 18.1007 17.2308 18.1572C17.1743 18.2137 17.1426 18.2904 17.1426 18.3703V19.2441C17.1426 19.3241 17.1743 19.4007 17.2308 19.4572C17.2874 19.5137 17.364 19.5455 17.4439 19.5455H19.1193C19.1992 19.5455 19.2759 19.5137 19.3324 19.4572C19.3889 19.4007 19.4206 19.3241 19.4206 19.2441C19.4206 19.1642 19.3889 19.0876 19.3324 19.0311C19.2759 18.9746 19.1992 18.9428 19.1193 18.9428H17.7452V18.3703C17.7452 18.2904 17.7135 18.2137 17.657 18.1572C17.6005 18.1007 17.5238 18.069 17.4439 18.069ZM19.4206 21.5373C19.4206 21.4574 19.3889 21.3807 19.3324 21.3242C19.2759 21.2677 19.1992 21.2359 19.1193 21.2359H17.7452V20.6604C17.7452 20.5805 17.7135 20.5038 17.657 20.4473C17.6005 20.3908 17.5238 20.3591 17.4439 20.3591C17.364 20.3591 17.2874 20.3908 17.2308 20.4473C17.1743 20.5038 17.1426 20.5805 17.1426 20.6604V21.5373C17.1426 21.6172 17.1743 21.6938 17.2308 21.7503C17.2874 21.8069 17.364 21.8386 17.4439 21.8386H19.1193C19.1992 21.8386 19.2759 21.8069 19.3324 21.7503C19.3889 21.6938 19.4206 21.6172 19.4206 21.5373ZM21.0358 16.0802C21.0358 16.0003 21.004 15.9236 20.9475 15.8671C20.891 15.8106 20.8144 15.7788 20.7345 15.7788C20.6545 15.7788 20.5779 15.8106 20.5214 15.8671C20.4649 15.9236 20.4331 16.0003 20.4331 16.0802V16.957C20.4331 17.037 20.4649 17.1136 20.5214 17.1701C20.5779 17.2266 20.6545 17.2584 20.7345 17.2584H22.4099C22.4898 17.2584 22.5664 17.2266 22.6229 17.1701C22.6794 17.1136 22.7112 17.037 22.7112 16.957C22.7112 16.8771 22.6794 16.8005 22.6229 16.744C22.5664 16.6875 22.4898 16.6557 22.4099 16.6557H21.0358V16.0802ZM22.4099 18.9428H21.0358V18.3703C21.0358 18.2904 21.004 18.2137 20.9475 18.1572C20.891 18.1007 20.8144 18.069 20.7345 18.069C20.6545 18.069 20.5779 18.1007 20.5214 18.1572C20.4649 18.2137 20.4331 18.2904 20.4331 18.3703V19.2441C20.4331 19.3241 20.4649 19.4007 20.5214 19.4572C20.5779 19.5137 20.6545 19.5455 20.7345 19.5455H22.4099C22.4898 19.5455 22.5664 19.5137 22.6229 19.4572C22.6794 19.4007 22.7112 19.3241 22.7112 19.2441C22.7112 19.1642 22.6794 19.0876 22.6229 19.0311C22.5664 18.9746 22.4898 18.9428 22.4099 18.9428ZM20.7345 20.3591C20.6545 20.3591 20.5779 20.3908 20.5214 20.4473C20.4649 20.5038 20.4331 20.5805 20.4331 20.6604V21.5373C20.4331 21.6172 20.4649 21.6938 20.5214 21.7503C20.5779 21.8069 20.6545 21.8386 20.7345 21.8386H22.4099C22.4898 21.8386 22.5664 21.8069 22.6229 21.7503C22.6794 21.6938 22.7112 21.6172 22.7112 21.5373C22.7112 21.4574 22.6794 21.3807 22.6229 21.3242C22.5664 21.2677 22.4898 21.2359 22.4099 21.2359H21.0358V20.6604C21.0358 20.5805 21.004 20.5038 20.9475 20.4473C20.891 20.3908 20.8144 20.3591 20.7345 20.3591ZM12.49 14.1486V9.25201C12.49 9.1721 12.4583 9.09545 12.4018 9.03894C12.3453 8.98243 12.2686 8.95068 12.1887 8.95068C12.1088 8.95068 12.0321 8.98243 11.9756 9.03894C11.9191 9.09545 11.8874 9.1721 11.8874 9.25201V14.1486C11.8874 14.2286 11.9191 14.3052 11.9756 14.3617C12.0321 14.4182 12.1088 14.45 12.1887 14.45C12.2686 14.45 12.3453 14.4182 12.4018 14.3617C12.4583 14.3052 12.49 14.2286 12.49 14.1486ZM21.0991 8.95068C21.0191 8.95068 20.9425 8.98243 20.886 9.03894C20.8295 9.09545 20.7977 9.1721 20.7977 9.25201V14.1486C20.7977 14.2286 20.8295 14.3052 20.886 14.3617C20.9425 14.4182 21.0191 14.45 21.0991 14.45C21.179 14.45 21.2556 14.4182 21.3121 14.3617C21.3686 14.3052 21.4004 14.2286 21.4004 14.1486V9.25201C21.4004 9.1721 21.3686 9.09545 21.3121 9.03894C21.2556 8.98243 21.179 8.95068 21.0991 8.95068ZM27.7856 16.6346C25.5678 16.6346 23.8954 17.4422 23.8954 18.5119C23.8935 18.548 23.8935 18.5843 23.8954 18.6204C23.8938 18.6384 23.8938 18.6566 23.8954 18.6746V21.8055C23.8954 21.8854 23.9272 21.962 23.9837 22.0185C24.0402 22.075 24.1168 22.1068 24.1967 22.1068C24.2767 22.1068 24.3533 22.075 24.4098 22.0185C24.4663 21.962 24.4981 21.8854 24.4981 21.8055V21.5041C25.1761 22.0224 26.3663 22.3509 27.7856 22.3509C29.2049 22.3509 30.3951 22.0194 31.0731 21.5041V22.4563C31.0731 23.059 29.6689 23.731 27.7856 23.731H27.6138C27.4185 23.7377 27.2229 23.7276 27.0293 23.7008C26.9493 23.6904 26.8686 23.7122 26.8047 23.7614C26.7408 23.8105 26.6991 23.8831 26.6887 23.963C26.6784 24.0429 26.7001 24.1237 26.7493 24.1875C26.7985 24.2514 26.871 24.2931 26.9509 24.3035C27.1336 24.3292 27.3179 24.3413 27.5023 24.3396H27.7856C29.2018 24.3396 30.3951 24.0082 31.0731 23.4929V24.4451C31.0731 25.0478 29.6689 25.7197 27.7856 25.7197H27.6138C27.4185 25.7265 27.2229 25.7164 27.0293 25.6896C26.9502 25.6793 26.8702 25.7009 26.807 25.7494C26.7437 25.798 26.7023 25.8697 26.6918 25.9488C26.6849 26.0264 26.7084 26.1036 26.7573 26.1643C26.8061 26.225 26.8766 26.2644 26.9539 26.2742C27.1366 26.2999 27.3209 26.312 27.5054 26.3103H27.7886C29.2049 26.3103 30.3981 25.9789 31.0761 25.4636V26.4158C31.0761 27.0185 29.6719 27.6904 27.7886 27.6904H27.6168C27.4215 27.6973 27.2259 27.6873 27.0323 27.6603C26.9927 27.6552 26.9525 27.6579 26.914 27.6683C26.8754 27.6786 26.8393 27.6965 26.8077 27.7209C26.7439 27.77 26.7022 27.8426 26.6918 27.9225C26.6814 28.0024 26.7032 28.0832 26.7523 28.147C26.8015 28.2109 26.874 28.2526 26.9539 28.263C27.1366 28.2887 27.3209 28.3008 27.5054 28.2991H27.7886C29.2049 28.2991 30.3981 27.9677 31.0761 27.4524V28.4046C31.0761 29.0073 29.6719 29.6792 27.7886 29.6792H27.6168C27.4215 29.6863 27.2259 29.6762 27.0323 29.6491C26.9911 29.6388 26.9482 29.6373 26.9064 29.6448C26.8646 29.6522 26.8248 29.6684 26.7897 29.6923C26.7546 29.7162 26.725 29.7472 26.7027 29.7833C26.6804 29.8195 26.666 29.8599 26.6605 29.902C26.6549 29.9441 26.6583 29.9869 26.6704 30.0276C26.6826 30.0683 26.7032 30.1059 26.7309 30.1381C26.7586 30.1703 26.7928 30.1962 26.8312 30.2142C26.8697 30.2323 26.9115 30.242 26.9539 30.2427C27.1366 30.2685 27.3209 30.2805 27.5054 30.2789H27.7886C30.0064 30.2789 31.6788 29.4713 31.6788 28.4016V18.6746C31.6804 18.6566 31.6804 18.6384 31.6788 18.6204C31.6807 18.5843 31.6807 18.548 31.6788 18.5119C31.6728 17.4422 30.0004 16.6346 27.7856 16.6346ZM27.7856 17.2373C29.6659 17.2373 31.0731 17.9092 31.0731 18.5119C31.0731 19.1146 29.6659 19.7835 27.7856 19.7835C25.9053 19.7835 24.4981 19.1116 24.4981 18.5089C24.4981 17.9062 25.9023 17.2373 27.7856 17.2373ZM27.7856 21.7422C25.9053 21.7422 24.4981 21.0702 24.4981 20.4675V19.5394C25.1761 20.0577 26.3663 20.3862 27.7856 20.3862C29.2049 20.3862 30.3951 20.0547 31.0731 19.5394V20.4675C31.0701 21.0702 29.6659 21.7422 27.7856 21.7422Z" fill="url(#paint1_linear_1320_8475)"/>
<path d="M22.1338 22.5767C19.916 22.5767 18.2437 23.3843 18.2437 24.454C18.2417 24.4902 18.2417 24.5264 18.2437 24.5625C18.242 24.5805 18.242 24.5987 18.2437 24.6167V30.3752C18.2437 31.4449 19.916 32.2525 22.1338 32.2525C24.3516 32.2525 26.024 31.4479 26.024 30.3752V24.6137C26.0256 24.5957 26.0256 24.5775 26.024 24.5595C26.026 24.5234 26.026 24.4871 26.024 24.451C26.024 23.3843 24.3516 22.5767 22.1338 22.5767ZM25.4214 28.3924C25.4214 28.9951 24.0172 29.667 22.1338 29.667C20.2505 29.667 18.8493 28.9921 18.8493 28.3924V27.4402C19.5273 27.9585 20.7176 28.287 22.1368 28.287C23.5561 28.287 24.7464 27.9555 25.4244 27.4402L25.4214 28.3924ZM25.4214 26.4097C25.4214 27.0123 24.0172 27.6843 22.1338 27.6843C20.2505 27.6843 18.8493 27.0123 18.8493 26.4097V25.4816C19.5243 25.9999 20.7176 26.3253 22.1338 26.3253C23.5501 26.3253 24.7434 25.9938 25.4214 25.4786V26.4097ZM22.1338 23.1794C24.0141 23.1794 25.4214 23.8514 25.4214 24.454C25.4214 25.0567 24.0172 25.7226 22.1338 25.7226C20.2505 25.7226 18.8493 25.0537 18.8493 24.454C18.8493 23.8544 20.2535 23.1794 22.1338 23.1794ZM22.1338 31.6468C20.2535 31.6468 18.8463 30.9748 18.8463 30.3722V29.42C19.5243 29.9413 20.7176 30.2697 22.1338 30.2697C23.5501 30.2697 24.7434 29.9382 25.4214 29.423V30.3752C25.4214 30.9748 24.0172 31.6468 22.1338 31.6468ZM34.3227 5.32856C34.2867 5.31214 34.2478 5.30297 34.2082 5.30158C34.1687 5.30019 34.1292 5.3066 34.0921 5.32045C34.0551 5.3343 34.0211 5.35532 33.9921 5.38231C33.9632 5.40929 33.9398 5.44171 33.9234 5.47772C33.907 5.51373 33.8978 5.55262 33.8964 5.59218C33.895 5.63173 33.9014 5.67117 33.9153 5.70825C33.9291 5.74532 33.9502 5.7793 33.9771 5.80826C34.0041 5.83721 34.0366 5.86056 34.0726 5.87699C34.8798 6.24264 35.5433 6.86515 35.9596 7.64744C36.376 8.42973 36.5217 9.32781 36.3741 10.2016C36.2265 11.0754 35.7939 11.8758 35.1437 12.4779C34.4935 13.0801 33.6623 13.4501 32.7798 13.5303C31.8973 13.6106 31.013 13.3965 30.2649 12.9215C29.5168 12.4464 28.9469 11.7372 28.6442 10.9043C28.3414 10.0715 28.3228 9.16183 28.5913 8.31729C28.8597 7.47275 29.4001 6.74079 30.1281 6.23557L29.9895 6.69058C29.966 6.7669 29.9737 6.84944 30.011 6.92007C30.0483 6.9907 30.1121 7.04363 30.1884 7.06724C30.2174 7.07149 30.2468 7.07149 30.2758 7.06724C30.3426 7.0701 30.4085 7.05062 30.4631 7.01189C30.5177 6.97315 30.5578 6.91735 30.5771 6.8533L30.9387 5.67208C30.9623 5.59576 30.9545 5.51322 30.9172 5.44259C30.88 5.37196 30.8161 5.31903 30.7398 5.29542L29.5436 4.93081C29.504 4.91913 29.4625 4.91537 29.4215 4.91973C29.3805 4.92409 29.3407 4.93648 29.3045 4.95621C29.2682 4.97593 29.2362 5.00261 29.2103 5.0347C29.1844 5.06679 29.165 5.10367 29.1533 5.14325C29.1417 5.18282 29.1379 5.2243 29.1423 5.26533C29.1466 5.30635 29.159 5.34612 29.1787 5.38235C29.1985 5.41859 29.2251 5.45058 29.2572 5.47651C29.2893 5.50244 29.3262 5.52179 29.3658 5.53347L29.872 5.69016C29.0189 6.25333 28.3772 7.08405 28.0477 8.05171C27.7182 9.01938 27.7196 10.0691 28.0518 11.0359C28.3839 12.0026 29.028 12.8316 29.8826 13.3924C30.7373 13.9532 31.7541 14.2141 32.7732 14.134C33.7923 14.0539 34.7558 13.6374 35.5124 12.9499C36.2689 12.2625 36.7756 11.3431 36.9526 10.3363C37.1297 9.32956 36.9671 8.29249 36.4905 7.38818C36.0139 6.48387 35.2503 5.7636 34.3197 5.34062L34.3227 5.32856Z" fill="url(#paint2_linear_1320_8475)"/>
<path d="M32.1098 10.5202V10.7432C32.1098 10.8231 32.1415 10.8997 32.1981 10.9562C32.2546 11.0127 32.3312 11.0445 32.4111 11.0445C32.491 11.0445 32.5677 11.0127 32.6242 10.9562C32.6807 10.8997 32.7125 10.8231 32.7125 10.7432V10.5202C32.9272 10.457 33.1157 10.3259 33.2498 10.1467C33.3839 9.96746 33.4563 9.74962 33.4563 9.52578C33.4563 9.30194 33.3839 9.0841 33.2498 8.90486C33.1157 8.72562 32.9272 8.5946 32.7125 8.53139V5.21675C32.7125 5.13683 32.6807 5.06019 32.6242 5.00368C32.5677 4.94717 32.491 4.91542 32.4111 4.91542C32.3312 4.91542 32.2546 4.94717 32.1981 5.00368C32.1415 5.06019 32.1098 5.13683 32.1098 5.21675V8.54645C31.8951 8.60966 31.7066 8.74069 31.5725 8.91993C31.4384 9.09917 31.3659 9.317 31.3659 9.54085C31.3659 9.76469 31.4384 9.98252 31.5725 10.1618C31.7066 10.341 31.8951 10.472 32.1098 10.5352V10.5202ZM32.4111 9.08584C32.4981 9.08584 32.5832 9.11164 32.6555 9.15998C32.7279 9.20832 32.7843 9.27703 32.8176 9.35742C32.8509 9.43781 32.8596 9.52627 32.8426 9.61161C32.8256 9.69695 32.7837 9.77534 32.7222 9.83687C32.6607 9.89839 32.5823 9.94029 32.497 9.95727C32.4116 9.97424 32.3232 9.96553 32.2428 9.93223C32.1624 9.89894 32.0937 9.84255 32.0453 9.7702C31.997 9.69785 31.9712 9.61279 31.9712 9.52578C31.9712 9.4091 32.0175 9.2972 32.1 9.21469C32.1825 9.13219 32.2944 9.08584 32.4111 9.08584ZM30.6363 2.6253H34.186C34.2659 2.6253 34.3425 2.59356 34.399 2.53705C34.4556 2.48054 34.4873 2.40389 34.4873 2.32397V1.31451C34.4873 1.2346 34.4556 1.15795 34.399 1.10144C34.3425 1.04493 34.2659 1.01318 34.186 1.01318H30.6363C30.5564 1.01318 30.4797 1.04493 30.4232 1.10144C30.3667 1.15795 30.335 1.2346 30.335 1.31451V2.32397C30.335 2.40389 30.3667 2.48054 30.4232 2.53705C30.4797 2.59356 30.5564 2.6253 30.6363 2.6253ZM30.9376 1.61585H33.8846V2.02264H30.9406L30.9376 1.61585Z" fill="url(#paint3_linear_1320_8475)"/>
<path d="M14.3492 32.5045C14.3489 32.5595 14.3595 32.6139 14.3802 32.6647C14.401 32.7157 14.4317 32.762 14.4705 32.8011L14.4706 32.8013L16.9258 35.2685C16.9259 35.2686 16.926 35.2687 16.9261 35.2688C17.0041 35.3483 17.1105 35.3936 17.2218 35.3948C17.3334 35.3959 17.4408 35.3528 17.5205 35.2747C17.6002 35.1967 17.6456 35.0902 17.6468 34.9787C17.6479 34.8672 17.6048 34.7597 17.5267 34.6801L17.5259 34.6792L15.1856 32.3389V29.9405C15.1856 29.8296 15.1415 29.7232 15.0631 29.6448C14.9847 29.5664 14.8783 29.5223 14.7674 29.5223H13.1462C13.0353 29.5223 12.929 29.5664 12.8505 29.6448C12.787 29.7084 12.746 29.7903 12.7327 29.8781L14.4661 30.3587H14.3492M14.3492 32.5045C14.3492 32.5044 14.3492 32.5043 14.3492 32.5042L14.4661 32.5049H14.3492V32.5045ZM14.3492 32.5045V30.3587M14.3492 30.3587V30.2419H13.5645V30.3587M14.3492 30.3587H13.5645M13.5645 30.3587H13.4476V30.8867M13.5645 30.3587V30.8864M13.5645 30.8864C13.5645 30.8863 13.5645 30.8862 13.5645 30.886L13.4476 30.8867M13.5645 30.8864V30.8867H13.4476M13.5645 30.8864C13.5649 30.9693 13.5406 31.0505 13.4947 31.1197C13.4488 31.1889 13.3833 31.2429 13.3066 31.2747C13.2299 31.3066 13.1454 31.3148 13.064 31.2985C12.9826 31.2822 12.908 31.242 12.8495 31.1832L12.8497 31.1833L12.9323 31.1007L12.8493 31.183L11.6198 29.7881M13.4476 30.8867C13.4479 30.9466 13.4304 31.0052 13.3973 31.055C13.3643 31.1049 13.3171 31.1438 13.2618 31.1668C13.2065 31.1897 13.1457 31.1957 13.087 31.1839C13.0283 31.1721 12.9744 31.1432 12.9323 31.1007L11.6198 29.7881M11.6198 29.7881L11.5371 29.8708M11.6198 29.7881L11.5371 29.7055L11.4545 29.7881M11.5371 29.8708L11.7511 29.0667C11.6946 29.0106 11.6182 28.9791 11.5386 28.9791C11.459 28.9791 11.3827 29.0106 11.3262 29.0667L5.63105 34.7618C5.58169 34.8195 5.55589 34.8936 5.55882 34.9695C5.56175 35.0453 5.59319 35.1172 5.64685 35.1709C5.70052 35.2246 5.77246 35.256 5.84829 35.2589C5.92413 35.2619 5.99828 35.2361 6.05593 35.1867L11.4545 29.7881M11.5371 29.8708L11.4545 29.7881M11.5371 29.8708L11.4545 29.7881M36.9787 4.61815L37.6063 3.8532L37.974 4.15554L37.9741 4.15567C38.0601 4.22607 38.1704 4.25945 38.2809 4.24847C38.3915 4.2375 38.4931 4.18307 38.5635 4.09715C38.6339 4.01124 38.6673 3.90088 38.6563 3.79036C38.6453 3.67983 38.5909 3.57819 38.505 3.50779L38.5049 3.50771L37.812 2.94134L37.8118 2.94121L37.1069 2.36279L37.1068 2.36274C37.0209 2.29234 36.9105 2.25896 36.8 2.26994C36.6895 2.28091 36.5878 2.33534 36.5175 2.42126C36.4471 2.50717 36.4137 2.61753 36.4246 2.72806C36.4356 2.83858 36.4901 2.94022 36.576 3.01062L36.5765 3.01108L36.9582 3.31977L36.3353 4.0794C34.9489 3.05808 33.2228 2.60476 31.5108 2.8153C29.7615 3.03043 28.1658 3.92164 27.0652 5.29825C25.9646 6.67486 25.4464 8.42755 25.6215 10.1813C25.7966 11.9351 26.6512 13.5507 28.0023 14.6825C29.3534 15.8143 31.0938 16.3724 32.8511 16.2373C34.6085 16.1023 36.2432 15.2849 37.4055 13.96C38.5679 12.635 39.1655 10.9078 39.0707 9.14787C38.9778 7.42475 38.2282 5.80421 36.9787 4.61815ZM38.2869 9.5255C38.2869 10.6877 37.9422 11.8239 37.2965 12.7902C36.6508 13.7566 35.733 14.5099 34.6592 14.9546C33.5854 15.3994 32.4038 15.5158 31.2639 15.2891C30.1239 15.0623 29.0768 14.5026 28.2549 13.6808C27.4331 12.8589 26.8734 11.8118 26.6466 10.6718C26.4199 9.5319 26.5363 8.35031 26.9811 7.2765C27.4258 6.2027 28.1791 5.2849 29.1455 4.63917C30.1118 3.99347 31.248 3.64881 32.4102 3.64879C33.9683 3.65035 35.4622 4.27001 36.5639 5.37176C37.6657 6.47352 38.2853 7.96738 38.2869 9.5255Z" fill="url(#paint4_linear_1320_8475)"/>
<path d="M14.3492 32.5045C14.3489 32.5595 14.3595 32.6139 14.3802 32.6647C14.401 32.7157 14.4317 32.762 14.4705 32.8011L14.4706 32.8013L16.9258 35.2685C16.9259 35.2686 16.926 35.2687 16.9261 35.2688C17.0041 35.3483 17.1105 35.3936 17.2218 35.3948C17.3334 35.3959 17.4408 35.3528 17.5205 35.2747C17.6002 35.1967 17.6456 35.0902 17.6468 34.9787C17.6479 34.8672 17.6048 34.7597 17.5267 34.6801L17.5259 34.6792L15.1856 32.3389V29.9405C15.1856 29.8296 15.1415 29.7232 15.0631 29.6448C14.9847 29.5664 14.8783 29.5223 14.7674 29.5223H13.1462C13.0353 29.5223 12.929 29.5664 12.8505 29.6448C12.787 29.7084 12.746 29.7903 12.7327 29.8781L14.4661 30.3587H14.3492M14.3492 32.5045C14.3492 32.5044 14.3492 32.5043 14.3492 32.5042L14.4661 32.5049H14.3492V32.5045ZM14.3492 32.5045V30.3587M14.3492 30.3587V30.2419H13.5645V30.3587M14.3492 30.3587H13.5645M13.5645 30.3587H13.4476V30.8867M13.5645 30.3587V30.8864M13.5645 30.8864C13.5645 30.8863 13.5645 30.8862 13.5645 30.886L13.4476 30.8867M13.5645 30.8864V30.8867H13.4476M13.5645 30.8864C13.5649 30.9693 13.5406 31.0505 13.4947 31.1197C13.4488 31.1889 13.3833 31.2429 13.3066 31.2747C13.2299 31.3066 13.1454 31.3148 13.064 31.2985C12.9826 31.2822 12.908 31.242 12.8495 31.1832L12.8497 31.1833L12.9323 31.1007L12.8493 31.183L11.6198 29.7881M13.4476 30.8867C13.4479 30.9466 13.4304 31.0052 13.3973 31.055C13.3643 31.1049 13.3171 31.1438 13.2618 31.1668C13.2065 31.1897 13.1457 31.1957 13.087 31.1839C13.0283 31.1721 12.9744 31.1432 12.9323 31.1007L11.6198 29.7881M11.6198 29.7881L11.5371 29.8708M11.6198 29.7881L11.5371 29.7055L11.4545 29.7881M11.5371 29.8708L11.7511 29.0667C11.6946 29.0106 11.6182 28.9791 11.5386 28.9791C11.459 28.9791 11.3827 29.0106 11.3262 29.0667L5.63105 34.7618C5.58169 34.8195 5.55589 34.8936 5.55882 34.9695C5.56175 35.0453 5.59319 35.1172 5.64685 35.1709C5.70052 35.2246 5.77246 35.256 5.84829 35.2589C5.92413 35.2619 5.99828 35.2361 6.05593 35.1867L11.4545 29.7881M11.5371 29.8708L11.4545 29.7881M11.5371 29.8708L11.4545 29.7881M36.9787 4.61815L37.6063 3.8532L37.974 4.15554L37.9741 4.15567C38.0601 4.22607 38.1704 4.25945 38.2809 4.24847C38.3915 4.2375 38.4931 4.18307 38.5635 4.09715C38.6339 4.01124 38.6673 3.90088 38.6563 3.79036C38.6453 3.67983 38.5909 3.57819 38.505 3.50779L38.5049 3.50771L37.812 2.94134L37.8118 2.94121L37.1069 2.36279L37.1068 2.36274C37.0209 2.29234 36.9105 2.25896 36.8 2.26994C36.6895 2.28091 36.5878 2.33534 36.5175 2.42126C36.4471 2.50717 36.4137 2.61753 36.4246 2.72806C36.4356 2.83858 36.4901 2.94022 36.576 3.01062L36.5765 3.01108L36.9582 3.31977L36.3353 4.0794C34.9489 3.05808 33.2228 2.60476 31.5108 2.8153C29.7615 3.03043 28.1658 3.92164 27.0652 5.29825C25.9646 6.67486 25.4464 8.42755 25.6215 10.1813C25.7966 11.9351 26.6512 13.5507 28.0023 14.6825C29.3534 15.8143 31.0938 16.3724 32.8511 16.2373C34.6085 16.1023 36.2432 15.2849 37.4055 13.96C38.5679 12.635 39.1655 10.9078 39.0707 9.14787C38.9778 7.42475 38.2282 5.80421 36.9787 4.61815ZM38.2869 9.5255C38.2869 10.6877 37.9422 11.8239 37.2965 12.7902C36.6508 13.7566 35.733 14.5099 34.6592 14.9546C33.5854 15.3994 32.4038 15.5158 31.2639 15.2891C30.1239 15.0623 29.0768 14.5026 28.2549 13.6808C27.4331 12.8589 26.8734 11.8118 26.6466 10.6718C26.4199 9.5319 26.5363 8.35031 26.9811 7.2765C27.4258 6.2027 28.1791 5.2849 29.1455 4.63917C30.1118 3.99347 31.248 3.64881 32.4102 3.64879C33.9683 3.65035 35.4622 4.27001 36.5639 5.37176C37.6657 6.47352 38.2853 7.96738 38.2869 9.5255Z" stroke="url(#paint5_linear_1320_8475)" stroke-width="0.23376"/>
<path d="M14.3492 32.5045C14.3489 32.5595 14.3595 32.6139 14.3802 32.6647C14.401 32.7157 14.4317 32.762 14.4705 32.8011L14.4706 32.8013L16.9258 35.2685C16.9259 35.2686 16.926 35.2687 16.9261 35.2688C17.0041 35.3483 17.1105 35.3936 17.2218 35.3948C17.3334 35.3959 17.4408 35.3528 17.5205 35.2747C17.6002 35.1967 17.6456 35.0902 17.6468 34.9787C17.6479 34.8672 17.6048 34.7597 17.5267 34.6801L17.5259 34.6792L15.1856 32.3389V29.9405C15.1856 29.8296 15.1415 29.7232 15.0631 29.6448C14.9847 29.5664 14.8783 29.5223 14.7674 29.5223H13.1462C13.0353 29.5223 12.929 29.5664 12.8505 29.6448C12.787 29.7084 12.746 29.7903 12.7327 29.8781L14.4661 30.3587H14.3492M14.3492 32.5045C14.3492 32.5044 14.3492 32.5043 14.3492 32.5042L14.4661 32.5049H14.3492V32.5045ZM14.3492 32.5045V30.3587M14.3492 30.3587V30.2419H13.5645V30.3587M14.3492 30.3587H13.5645M13.5645 30.3587H13.4476V30.8867M13.5645 30.3587V30.8864M13.5645 30.8864C13.5645 30.8863 13.5645 30.8862 13.5645 30.886L13.4476 30.8867M13.5645 30.8864V30.8867H13.4476M13.5645 30.8864C13.5649 30.9693 13.5406 31.0505 13.4947 31.1197C13.4488 31.1889 13.3833 31.2429 13.3066 31.2747C13.2299 31.3066 13.1454 31.3148 13.064 31.2985C12.9826 31.2822 12.908 31.242 12.8495 31.1832L12.8497 31.1833L12.9323 31.1007L12.8493 31.183L11.6198 29.7881M13.4476 30.8867C13.4479 30.9466 13.4304 31.0052 13.3973 31.055C13.3643 31.1049 13.3171 31.1438 13.2618 31.1668C13.2065 31.1897 13.1457 31.1957 13.087 31.1839C13.0283 31.1721 12.9744 31.1432 12.9323 31.1007L11.6198 29.7881M11.6198 29.7881L11.5371 29.8708M11.6198 29.7881L11.5371 29.7055L11.4545 29.7881M11.5371 29.8708L11.7511 29.0667C11.6946 29.0106 11.6182 28.9791 11.5386 28.9791C11.459 28.9791 11.3827 29.0106 11.3262 29.0667L5.63105 34.7618C5.58169 34.8195 5.55589 34.8936 5.55882 34.9695C5.56175 35.0453 5.59319 35.1172 5.64685 35.1709C5.70052 35.2246 5.77246 35.256 5.84829 35.2589C5.92413 35.2619 5.99828 35.2361 6.05593 35.1867L11.4545 29.7881M11.5371 29.8708L11.4545 29.7881M11.5371 29.8708L11.4545 29.7881M36.9787 4.61815L37.6063 3.8532L37.974 4.15554L37.9741 4.15567C38.0601 4.22607 38.1704 4.25945 38.2809 4.24847C38.3915 4.2375 38.4931 4.18307 38.5635 4.09715C38.6339 4.01124 38.6673 3.90088 38.6563 3.79036C38.6453 3.67983 38.5909 3.57819 38.505 3.50779L38.5049 3.50771L37.812 2.94134L37.8118 2.94121L37.1069 2.36279L37.1068 2.36274C37.0209 2.29234 36.9105 2.25896 36.8 2.26994C36.6895 2.28091 36.5878 2.33534 36.5175 2.42126C36.4471 2.50717 36.4137 2.61753 36.4246 2.72806C36.4356 2.83858 36.4901 2.94022 36.576 3.01062L36.5765 3.01108L36.9582 3.31977L36.3353 4.0794C34.9489 3.05808 33.2228 2.60476 31.5108 2.8153C29.7615 3.03043 28.1658 3.92164 27.0652 5.29825C25.9646 6.67486 25.4464 8.42755 25.6215 10.1813C25.7966 11.9351 26.6512 13.5507 28.0023 14.6825C29.3534 15.8143 31.0938 16.3724 32.8511 16.2373C34.6085 16.1023 36.2432 15.2849 37.4055 13.96C38.5679 12.635 39.1655 10.9078 39.0707 9.14787C38.9778 7.42475 38.2282 5.80421 36.9787 4.61815ZM38.2869 9.5255C38.2869 10.6877 37.9422 11.8239 37.2965 12.7902C36.6508 13.7566 35.733 14.5099 34.6592 14.9546C33.5854 15.3994 32.4038 15.5158 31.2639 15.2891C30.1239 15.0623 29.0768 14.5026 28.2549 13.6808C27.4331 12.8589 26.8734 11.8118 26.6466 10.6718C26.4199 9.5319 26.5363 8.35031 26.9811 7.2765C27.4258 6.2027 28.1791 5.2849 29.1455 4.63917C30.1118 3.99347 31.248 3.64881 32.4102 3.64879C33.9683 3.65035 35.4622 4.27001 36.5639 5.37176C37.6657 6.47352 38.2853 7.96738 38.2869 9.5255Z" stroke="black" stroke-opacity="0.2" stroke-width="0.23376"/>
<path d="M15.2345 33.9906L15.2345 33.9906H15.231C15.1201 33.9906 15.0137 34.0346 14.9353 34.1131C14.8568 34.1915 14.8128 34.2979 14.8128 34.4088V38.8631H13.2114V36.3584C13.2114 36.2475 13.1674 36.1411 13.0889 36.0627C13.0105 35.9843 12.9041 35.9402 12.7932 35.9402H10.2168C10.1059 35.9402 9.99954 35.9843 9.92111 36.0627C9.84268 36.1411 9.79862 36.2475 9.79862 36.3584V38.8631H8.20632V34.4088C8.20632 34.2979 8.16226 34.1915 8.08383 34.1131C8.0054 34.0346 7.89902 33.9906 7.78811 33.9906C7.67719 33.9906 7.57082 34.0346 7.49239 34.1131C7.41396 34.1915 7.3699 34.2979 7.3699 34.4088V39.2813C7.3699 39.3922 7.41396 39.4986 7.49239 39.577C7.57082 39.6555 7.67719 39.6995 7.78811 39.6995H10.2168C10.3277 39.6995 10.4341 39.6555 10.5126 39.577C10.591 39.4986 10.635 39.3922 10.635 39.2813V36.7766H12.375V39.2813C12.375 39.3922 12.4191 39.4986 12.4975 39.577C12.5759 39.6555 12.6823 39.6995 12.7932 39.6995H15.2219C15.3329 39.6995 15.4392 39.6555 15.5177 39.577C15.5961 39.4986 15.6402 39.3922 15.6402 39.2813V34.4088C15.6402 34.4088 15.6402 34.4088 15.6402 34.4088C15.6402 34.3 15.5978 34.1955 15.5221 34.1175C15.4464 34.0394 15.3432 33.9939 15.2345 33.9906ZM4.88629 32.4056C4.77538 32.4056 4.669 32.4496 4.59057 32.5281C4.51214 32.6065 4.46808 32.7129 4.46808 32.8238V39.2813C4.46808 39.3922 4.51214 39.4986 4.59057 39.577C4.669 39.6555 4.77538 39.6995 4.88629 39.6995C4.99721 39.6995 5.10358 39.6555 5.18201 39.577C5.26044 39.4986 5.3045 39.3922 5.3045 39.2813V32.8238C5.3045 32.7129 5.26044 32.6065 5.18201 32.5281C5.10358 32.4496 4.99721 32.4056 4.88629 32.4056Z" fill="url(#paint6_linear_1320_8475)"/>
<path d="M15.2345 33.9906L15.2345 33.9906H15.231C15.1201 33.9906 15.0137 34.0346 14.9353 34.1131C14.8568 34.1915 14.8128 34.2979 14.8128 34.4088V38.8631H13.2114V36.3584C13.2114 36.2475 13.1674 36.1411 13.0889 36.0627C13.0105 35.9843 12.9041 35.9402 12.7932 35.9402H10.2168C10.1059 35.9402 9.99954 35.9843 9.92111 36.0627C9.84268 36.1411 9.79862 36.2475 9.79862 36.3584V38.8631H8.20632V34.4088C8.20632 34.2979 8.16226 34.1915 8.08383 34.1131C8.0054 34.0346 7.89902 33.9906 7.78811 33.9906C7.67719 33.9906 7.57082 34.0346 7.49239 34.1131C7.41396 34.1915 7.3699 34.2979 7.3699 34.4088V39.2813C7.3699 39.3922 7.41396 39.4986 7.49239 39.577C7.57082 39.6555 7.67719 39.6995 7.78811 39.6995H10.2168C10.3277 39.6995 10.4341 39.6555 10.5126 39.577C10.591 39.4986 10.635 39.3922 10.635 39.2813V36.7766H12.375V39.2813C12.375 39.3922 12.4191 39.4986 12.4975 39.577C12.5759 39.6555 12.6823 39.6995 12.7932 39.6995H15.2219C15.3329 39.6995 15.4392 39.6555 15.5177 39.577C15.5961 39.4986 15.6402 39.3922 15.6402 39.2813V34.4088C15.6402 34.4088 15.6402 34.4088 15.6402 34.4088C15.6402 34.3 15.5978 34.1955 15.5221 34.1175C15.4464 34.0394 15.3432 33.9939 15.2345 33.9906ZM4.88629 32.4056C4.77538 32.4056 4.669 32.4496 4.59057 32.5281C4.51214 32.6065 4.46808 32.7129 4.46808 32.8238V39.2813C4.46808 39.3922 4.51214 39.4986 4.59057 39.577C4.669 39.6555 4.77538 39.6995 4.88629 39.6995C4.99721 39.6995 5.10358 39.6555 5.18201 39.577C5.26044 39.4986 5.3045 39.3922 5.3045 39.2813V32.8238C5.3045 32.7129 5.26044 32.6065 5.18201 32.5281C5.10358 32.4496 4.99721 32.4056 4.88629 32.4056Z" stroke="url(#paint7_linear_1320_8475)" stroke-width="0.23376"/>
<path d="M15.2345 33.9906L15.2345 33.9906H15.231C15.1201 33.9906 15.0137 34.0346 14.9353 34.1131C14.8568 34.1915 14.8128 34.2979 14.8128 34.4088V38.8631H13.2114V36.3584C13.2114 36.2475 13.1674 36.1411 13.0889 36.0627C13.0105 35.9843 12.9041 35.9402 12.7932 35.9402H10.2168C10.1059 35.9402 9.99954 35.9843 9.92111 36.0627C9.84268 36.1411 9.79862 36.2475 9.79862 36.3584V38.8631H8.20632V34.4088C8.20632 34.2979 8.16226 34.1915 8.08383 34.1131C8.0054 34.0346 7.89902 33.9906 7.78811 33.9906C7.67719 33.9906 7.57082 34.0346 7.49239 34.1131C7.41396 34.1915 7.3699 34.2979 7.3699 34.4088V39.2813C7.3699 39.3922 7.41396 39.4986 7.49239 39.577C7.57082 39.6555 7.67719 39.6995 7.78811 39.6995H10.2168C10.3277 39.6995 10.4341 39.6555 10.5126 39.577C10.591 39.4986 10.635 39.3922 10.635 39.2813V36.7766H12.375V39.2813C12.375 39.3922 12.4191 39.4986 12.4975 39.577C12.5759 39.6555 12.6823 39.6995 12.7932 39.6995H15.2219C15.3329 39.6995 15.4392 39.6555 15.5177 39.577C15.5961 39.4986 15.6402 39.3922 15.6402 39.2813V34.4088C15.6402 34.4088 15.6402 34.4088 15.6402 34.4088C15.6402 34.3 15.5978 34.1955 15.5221 34.1175C15.4464 34.0394 15.3432 33.9939 15.2345 33.9906ZM4.88629 32.4056C4.77538 32.4056 4.669 32.4496 4.59057 32.5281C4.51214 32.6065 4.46808 32.7129 4.46808 32.8238V39.2813C4.46808 39.3922 4.51214 39.4986 4.59057 39.577C4.669 39.6555 4.77538 39.6995 4.88629 39.6995C4.99721 39.6995 5.10358 39.6555 5.18201 39.577C5.26044 39.4986 5.3045 39.3922 5.3045 39.2813V32.8238C5.3045 32.7129 5.26044 32.6065 5.18201 32.5281C5.10358 32.4496 4.99721 32.4056 4.88629 32.4056Z" stroke="black" stroke-opacity="0.2" stroke-width="0.23376"/>
<mask id="path-7-outside-1_1320_8475" maskUnits="userSpaceOnUse" x="-0.56543" y="0.0166016" width="40" height="40" fill="black">
<rect fill="white" x="-0.56543" y="0.0166016" width="40" height="40"/>
<path d="M3.69588 35.9465C3.59659 35.9659 3.49571 35.976 3.39455 35.9766C3.08842 35.9763 2.78868 35.889 2.53026 35.7249C2.27184 35.5608 2.06539 35.3266 1.93496 35.0496C1.80453 34.7727 1.75551 34.4644 1.79359 34.1606C1.83167 33.8568 1.95529 33.5702 2.15005 33.334C2.19808 33.2758 2.22256 33.2018 2.21865 33.1265C2.21475 33.0512 2.18274 32.98 2.12896 32.9272C1.69477 32.5035 1.37557 31.9763 1.20142 31.3952C1.02727 30.8142 1.0039 30.1983 1.13352 29.6057C1.26313 29.0131 1.54147 28.4632 1.9423 28.0079C2.34314 27.5525 2.85328 27.2067 3.42468 27.003C3.49877 26.977 3.55975 26.923 3.59464 26.8527C3.62954 26.7823 3.63559 26.7011 3.61151 26.6264C3.52959 26.3767 3.51175 26.1106 3.55961 25.8523C3.60748 25.5939 3.71952 25.3518 3.88544 25.1481C4.05135 24.9445 4.26581 24.7858 4.5091 24.6866C4.75239 24.5875 5.01669 24.5512 5.27771 24.5809C5.53872 24.6107 5.78807 24.7055 6.00282 24.8569C6.21757 25.0082 6.39083 25.211 6.50667 25.4468C6.6225 25.6826 6.6772 25.9437 6.66573 26.2062C6.65425 26.4686 6.57698 26.724 6.441 26.9488C6.4004 27.0162 6.38776 27.0967 6.40578 27.1733C6.4238 27.2499 6.47104 27.3164 6.53743 27.3586C7.04559 27.6801 7.46407 28.1251 7.75386 28.652C8.04366 29.1789 8.19533 29.7706 8.19475 30.3719C8.19485 30.5433 8.18277 30.7145 8.15859 30.8842C8.147 30.9641 8.16763 31.0453 8.21595 31.11C8.26427 31.1747 8.33631 31.2176 8.41623 31.2292C8.49614 31.2408 8.57739 31.2201 8.6421 31.1718C8.7068 31.1235 8.74966 31.0515 8.76125 30.9715C8.78959 30.7719 8.80369 30.5705 8.80344 30.3689C8.80516 29.7126 8.65153 29.0652 8.3551 28.4797C8.05867 27.8942 7.62786 27.3871 7.0979 27C7.23032 26.689 7.28821 26.3513 7.26697 26.0139C7.24572 25.6765 7.14592 25.3487 6.97553 25.0567C6.80514 24.7647 6.56888 24.5166 6.28559 24.3321C6.00229 24.1476 5.67981 24.0319 5.34385 23.9942C5.0079 23.9565 4.66778 23.9977 4.35062 24.1148C4.03345 24.2318 3.74803 24.4213 3.51711 24.6682C3.28619 24.9152 3.11616 25.2126 3.02059 25.5369C2.92502 25.8612 2.90655 26.2033 2.96666 26.536C2.21664 26.8594 1.57764 27.3952 1.12841 28.0773C0.679184 28.7595 0.439358 29.5581 0.438494 30.3749C0.434952 31.4096 0.818695 32.4082 1.51425 33.1743C1.30426 33.5091 1.18758 33.894 1.17629 34.2891C1.165 34.6842 1.2595 35.0752 1.45002 35.4215C1.64054 35.7678 1.92015 36.0569 2.25991 36.2589C2.59967 36.4609 2.98724 36.5684 3.3825 36.5703C3.52504 36.5705 3.66728 36.5574 3.80737 36.5311C3.88729 36.5159 3.9579 36.4696 4.00368 36.4024C4.04945 36.3351 4.06663 36.2524 4.05145 36.1725C4.03627 36.0926 3.98996 36.022 3.92271 35.9762C3.85546 35.9304 3.77278 35.9133 3.69287 35.9284L3.69588 35.9465ZM1.68902 13.6179C1.72451 13.6319 1.76234 13.6391 1.80051 13.639C1.86086 13.6391 1.91984 13.621 1.9698 13.5871C2.01977 13.5533 2.05842 13.5052 2.08075 13.4492C2.29168 12.9098 2.54781 12.3704 2.79791 11.8611C5.02678 7.49099 8.87923 4.1681 13.5292 2.60495C18.1793 1.0418 23.2567 1.36283 27.6728 3.49922C27.7447 3.53438 27.8276 3.53953 27.9034 3.51354C27.9409 3.50067 27.9755 3.48054 28.0052 3.4543C28.0349 3.42806 28.0591 3.39622 28.0766 3.36061C28.094 3.32499 28.1042 3.2863 28.1066 3.24673C28.1091 3.20717 28.1037 3.1675 28.0909 3.13001C28.078 3.09251 28.0579 3.05792 28.0316 3.02821C28.0054 2.99849 27.9736 2.97424 27.9379 2.95682C23.3795 0.746303 18.1362 0.410616 13.3331 2.02179C8.53001 3.63297 4.54979 7.06263 2.24648 11.5749C1.97227 12.1143 1.72518 12.6687 1.50521 13.2262C1.49091 13.2639 1.48433 13.3041 1.48588 13.3445C1.48742 13.3848 1.49705 13.4244 1.51419 13.4609C1.53134 13.4975 1.55565 13.5302 1.58568 13.5572C1.61571 13.5841 1.65085 13.6048 1.68902 13.6179ZM0.691612 17.4478H0.739825C0.811612 17.4489 0.881412 17.4242 0.936657 17.3784C0.991901 17.3325 1.02896 17.2685 1.04116 17.1977C1.11649 16.7457 1.21291 16.2937 1.32139 15.8387C1.3304 15.7654 1.31217 15.6914 1.27018 15.6306C1.22819 15.5699 1.16535 15.5267 1.09361 15.5092C1.02186 15.4917 0.946195 15.5012 0.880978 15.5359C0.81576 15.5705 0.76553 15.6279 0.739825 15.6971C0.62532 16.1611 0.528894 16.6312 0.438494 17.1013C0.432072 17.1407 0.433545 17.181 0.442828 17.2198C0.452111 17.2587 0.46902 17.2953 0.492571 17.3275C0.516121 17.3597 0.545845 17.387 0.580015 17.4076C0.614184 17.4283 0.652118 17.442 0.691612 17.4478ZM38.4453 23.4322C38.4064 23.4248 38.3663 23.4252 38.3274 23.4333C38.2886 23.4414 38.2517 23.4571 38.219 23.4795C38.1862 23.5019 38.1582 23.5306 38.1366 23.5638C38.1149 23.5971 38.1 23.6343 38.0928 23.6733C37.9873 24.2458 37.8517 24.8214 37.692 25.3819C36.4488 29.7608 33.6511 33.536 29.8234 35.9996C25.9957 38.4632 21.4008 39.4461 16.9002 38.764C16.8203 38.752 16.7389 38.7722 16.6739 38.8203C16.6089 38.8683 16.5657 38.9402 16.5537 39.0201C16.5417 39.1 16.5619 39.1814 16.61 39.2464C16.658 39.3114 16.7299 39.3546 16.8098 39.3666C21.4556 40.0795 26.2017 39.0685 30.1537 36.5242C34.1057 33.9798 36.9905 30.0778 38.2645 25.5536C38.4303 24.9721 38.5659 24.3784 38.6774 23.7908C38.6858 23.752 38.6864 23.712 38.6793 23.6729C38.6722 23.6339 38.6574 23.5967 38.6359 23.5633C38.6143 23.53 38.5864 23.5013 38.5537 23.4788C38.521 23.4563 38.4842 23.4405 38.4453 23.4322ZM38.7075 19.4848C38.6276 19.4848 38.5509 19.5166 38.4944 19.5731C38.4379 19.6296 38.4062 19.7062 38.4062 19.7861C38.4062 20.2472 38.4062 20.7142 38.3911 21.1753C38.3911 21.2552 38.4229 21.3318 38.4794 21.3884C38.5359 21.4449 38.6125 21.4766 38.6924 21.4766C38.7724 21.4766 38.849 21.4449 38.9055 21.3884C38.962 21.3318 38.9938 21.2552 38.9938 21.1753C39.0179 20.6992 39.0209 20.2171 39.0088 19.7409C38.9979 19.6691 38.9614 19.6036 38.9061 19.5565C38.8507 19.5095 38.7802 19.484 38.7075 19.4848Z"/>
</mask>
<path d="M3.69588 35.9465C3.59659 35.9659 3.49571 35.976 3.39455 35.9766C3.08842 35.9763 2.78868 35.889 2.53026 35.7249C2.27184 35.5608 2.06539 35.3266 1.93496 35.0496C1.80453 34.7727 1.75551 34.4644 1.79359 34.1606C1.83167 33.8568 1.95529 33.5702 2.15005 33.334C2.19808 33.2758 2.22256 33.2018 2.21865 33.1265C2.21475 33.0512 2.18274 32.98 2.12896 32.9272C1.69477 32.5035 1.37557 31.9763 1.20142 31.3952C1.02727 30.8142 1.0039 30.1983 1.13352 29.6057C1.26313 29.0131 1.54147 28.4632 1.9423 28.0079C2.34314 27.5525 2.85328 27.2067 3.42468 27.003C3.49877 26.977 3.55975 26.923 3.59464 26.8527C3.62954 26.7823 3.63559 26.7011 3.61151 26.6264C3.52959 26.3767 3.51175 26.1106 3.55961 25.8523C3.60748 25.5939 3.71952 25.3518 3.88544 25.1481C4.05135 24.9445 4.26581 24.7858 4.5091 24.6866C4.75239 24.5875 5.01669 24.5512 5.27771 24.5809C5.53872 24.6107 5.78807 24.7055 6.00282 24.8569C6.21757 25.0082 6.39083 25.211 6.50667 25.4468C6.6225 25.6826 6.6772 25.9437 6.66573 26.2062C6.65425 26.4686 6.57698 26.724 6.441 26.9488C6.4004 27.0162 6.38776 27.0967 6.40578 27.1733C6.4238 27.2499 6.47104 27.3164 6.53743 27.3586C7.04559 27.6801 7.46407 28.1251 7.75386 28.652C8.04366 29.1789 8.19533 29.7706 8.19475 30.3719C8.19485 30.5433 8.18277 30.7145 8.15859 30.8842C8.147 30.9641 8.16763 31.0453 8.21595 31.11C8.26427 31.1747 8.33631 31.2176 8.41623 31.2292C8.49614 31.2408 8.57739 31.2201 8.6421 31.1718C8.7068 31.1235 8.74966 31.0515 8.76125 30.9715C8.78959 30.7719 8.80369 30.5705 8.80344 30.3689C8.80516 29.7126 8.65153 29.0652 8.3551 28.4797C8.05867 27.8942 7.62786 27.3871 7.0979 27C7.23032 26.689 7.28821 26.3513 7.26697 26.0139C7.24572 25.6765 7.14592 25.3487 6.97553 25.0567C6.80514 24.7647 6.56888 24.5166 6.28559 24.3321C6.00229 24.1476 5.67981 24.0319 5.34385 23.9942C5.0079 23.9565 4.66778 23.9977 4.35062 24.1148C4.03345 24.2318 3.74803 24.4213 3.51711 24.6682C3.28619 24.9152 3.11616 25.2126 3.02059 25.5369C2.92502 25.8612 2.90655 26.2033 2.96666 26.536C2.21664 26.8594 1.57764 27.3952 1.12841 28.0773C0.679184 28.7595 0.439358 29.5581 0.438494 30.3749C0.434952 31.4096 0.818695 32.4082 1.51425 33.1743C1.30426 33.5091 1.18758 33.894 1.17629 34.2891C1.165 34.6842 1.2595 35.0752 1.45002 35.4215C1.64054 35.7678 1.92015 36.0569 2.25991 36.2589C2.59967 36.4609 2.98724 36.5684 3.3825 36.5703C3.52504 36.5705 3.66728 36.5574 3.80737 36.5311C3.88729 36.5159 3.9579 36.4696 4.00368 36.4024C4.04945 36.3351 4.06663 36.2524 4.05145 36.1725C4.03627 36.0926 3.98996 36.022 3.92271 35.9762C3.85546 35.9304 3.77278 35.9133 3.69287 35.9284L3.69588 35.9465ZM1.68902 13.6179C1.72451 13.6319 1.76234 13.6391 1.80051 13.639C1.86086 13.6391 1.91984 13.621 1.9698 13.5871C2.01977 13.5533 2.05842 13.5052 2.08075 13.4492C2.29168 12.9098 2.54781 12.3704 2.79791 11.8611C5.02678 7.49099 8.87923 4.1681 13.5292 2.60495C18.1793 1.0418 23.2567 1.36283 27.6728 3.49922C27.7447 3.53438 27.8276 3.53953 27.9034 3.51354C27.9409 3.50067 27.9755 3.48054 28.0052 3.4543C28.0349 3.42806 28.0591 3.39622 28.0766 3.36061C28.094 3.32499 28.1042 3.2863 28.1066 3.24673C28.1091 3.20717 28.1037 3.1675 28.0909 3.13001C28.078 3.09251 28.0579 3.05792 28.0316 3.02821C28.0054 2.99849 27.9736 2.97424 27.9379 2.95682C23.3795 0.746303 18.1362 0.410616 13.3331 2.02179C8.53001 3.63297 4.54979 7.06263 2.24648 11.5749C1.97227 12.1143 1.72518 12.6687 1.50521 13.2262C1.49091 13.2639 1.48433 13.3041 1.48588 13.3445C1.48742 13.3848 1.49705 13.4244 1.51419 13.4609C1.53134 13.4975 1.55565 13.5302 1.58568 13.5572C1.61571 13.5841 1.65085 13.6048 1.68902 13.6179ZM0.691612 17.4478H0.739825C0.811612 17.4489 0.881412 17.4242 0.936657 17.3784C0.991901 17.3325 1.02896 17.2685 1.04116 17.1977C1.11649 16.7457 1.21291 16.2937 1.32139 15.8387C1.3304 15.7654 1.31217 15.6914 1.27018 15.6306C1.22819 15.5699 1.16535 15.5267 1.09361 15.5092C1.02186 15.4917 0.946195 15.5012 0.880978 15.5359C0.81576 15.5705 0.76553 15.6279 0.739825 15.6971C0.62532 16.1611 0.528894 16.6312 0.438494 17.1013C0.432072 17.1407 0.433545 17.181 0.442828 17.2198C0.452111 17.2587 0.46902 17.2953 0.492571 17.3275C0.516121 17.3597 0.545845 17.387 0.580015 17.4076C0.614184 17.4283 0.652118 17.442 0.691612 17.4478ZM38.4453 23.4322C38.4064 23.4248 38.3663 23.4252 38.3274 23.4333C38.2886 23.4414 38.2517 23.4571 38.219 23.4795C38.1862 23.5019 38.1582 23.5306 38.1366 23.5638C38.1149 23.5971 38.1 23.6343 38.0928 23.6733C37.9873 24.2458 37.8517 24.8214 37.692 25.3819C36.4488 29.7608 33.6511 33.536 29.8234 35.9996C25.9957 38.4632 21.4008 39.4461 16.9002 38.764C16.8203 38.752 16.7389 38.7722 16.6739 38.8203C16.6089 38.8683 16.5657 38.9402 16.5537 39.0201C16.5417 39.1 16.5619 39.1814 16.61 39.2464C16.658 39.3114 16.7299 39.3546 16.8098 39.3666C21.4556 40.0795 26.2017 39.0685 30.1537 36.5242C34.1057 33.9798 36.9905 30.0778 38.2645 25.5536C38.4303 24.9721 38.5659 24.3784 38.6774 23.7908C38.6858 23.752 38.6864 23.712 38.6793 23.6729C38.6722 23.6339 38.6574 23.5967 38.6359 23.5633C38.6143 23.53 38.5864 23.5013 38.5537 23.4788C38.521 23.4563 38.4842 23.4405 38.4453 23.4322ZM38.7075 19.4848C38.6276 19.4848 38.5509 19.5166 38.4944 19.5731C38.4379 19.6296 38.4062 19.7062 38.4062 19.7861C38.4062 20.2472 38.4062 20.7142 38.3911 21.1753C38.3911 21.2552 38.4229 21.3318 38.4794 21.3884C38.5359 21.4449 38.6125 21.4766 38.6924 21.4766C38.7724 21.4766 38.849 21.4449 38.9055 21.3884C38.962 21.3318 38.9938 21.2552 38.9938 21.1753C39.0179 20.6992 39.0209 20.2171 39.0088 19.7409C38.9979 19.6691 38.9614 19.6036 38.9061 19.5565C38.8507 19.5095 38.7802 19.484 38.7075 19.4848Z" fill="url(#paint8_linear_1320_8475)"/>
<path d="M3.69588 35.9465C3.59659 35.9659 3.49571 35.976 3.39455 35.9766C3.08842 35.9763 2.78868 35.889 2.53026 35.7249C2.27184 35.5608 2.06539 35.3266 1.93496 35.0496C1.80453 34.7727 1.75551 34.4644 1.79359 34.1606C1.83167 33.8568 1.95529 33.5702 2.15005 33.334C2.19808 33.2758 2.22256 33.2018 2.21865 33.1265C2.21475 33.0512 2.18274 32.98 2.12896 32.9272C1.69477 32.5035 1.37557 31.9763 1.20142 31.3952C1.02727 30.8142 1.0039 30.1983 1.13352 29.6057C1.26313 29.0131 1.54147 28.4632 1.9423 28.0079C2.34314 27.5525 2.85328 27.2067 3.42468 27.003C3.49877 26.977 3.55975 26.923 3.59464 26.8527C3.62954 26.7823 3.63559 26.7011 3.61151 26.6264C3.52959 26.3767 3.51175 26.1106 3.55961 25.8523C3.60748 25.5939 3.71952 25.3518 3.88544 25.1481C4.05135 24.9445 4.26581 24.7858 4.5091 24.6866C4.75239 24.5875 5.01669 24.5512 5.27771 24.5809C5.53872 24.6107 5.78807 24.7055 6.00282 24.8569C6.21757 25.0082 6.39083 25.211 6.50667 25.4468C6.6225 25.6826 6.6772 25.9437 6.66573 26.2062C6.65425 26.4686 6.57698 26.724 6.441 26.9488C6.4004 27.0162 6.38776 27.0967 6.40578 27.1733C6.4238 27.2499 6.47104 27.3164 6.53743 27.3586C7.04559 27.6801 7.46407 28.1251 7.75386 28.652C8.04366 29.1789 8.19533 29.7706 8.19475 30.3719C8.19485 30.5433 8.18277 30.7145 8.15859 30.8842C8.147 30.9641 8.16763 31.0453 8.21595 31.11C8.26427 31.1747 8.33631 31.2176 8.41623 31.2292C8.49614 31.2408 8.57739 31.2201 8.6421 31.1718C8.7068 31.1235 8.74966 31.0515 8.76125 30.9715C8.78959 30.7719 8.80369 30.5705 8.80344 30.3689C8.80516 29.7126 8.65153 29.0652 8.3551 28.4797C8.05867 27.8942 7.62786 27.3871 7.0979 27C7.23032 26.689 7.28821 26.3513 7.26697 26.0139C7.24572 25.6765 7.14592 25.3487 6.97553 25.0567C6.80514 24.7647 6.56888 24.5166 6.28559 24.3321C6.00229 24.1476 5.67981 24.0319 5.34385 23.9942C5.0079 23.9565 4.66778 23.9977 4.35062 24.1148C4.03345 24.2318 3.74803 24.4213 3.51711 24.6682C3.28619 24.9152 3.11616 25.2126 3.02059 25.5369C2.92502 25.8612 2.90655 26.2033 2.96666 26.536C2.21664 26.8594 1.57764 27.3952 1.12841 28.0773C0.679184 28.7595 0.439358 29.5581 0.438494 30.3749C0.434952 31.4096 0.818695 32.4082 1.51425 33.1743C1.30426 33.5091 1.18758 33.894 1.17629 34.2891C1.165 34.6842 1.2595 35.0752 1.45002 35.4215C1.64054 35.7678 1.92015 36.0569 2.25991 36.2589C2.59967 36.4609 2.98724 36.5684 3.3825 36.5703C3.52504 36.5705 3.66728 36.5574 3.80737 36.5311C3.88729 36.5159 3.9579 36.4696 4.00368 36.4024C4.04945 36.3351 4.06663 36.2524 4.05145 36.1725C4.03627 36.0926 3.98996 36.022 3.92271 35.9762C3.85546 35.9304 3.77278 35.9133 3.69287 35.9284L3.69588 35.9465ZM1.68902 13.6179C1.72451 13.6319 1.76234 13.6391 1.80051 13.639C1.86086 13.6391 1.91984 13.621 1.9698 13.5871C2.01977 13.5533 2.05842 13.5052 2.08075 13.4492C2.29168 12.9098 2.54781 12.3704 2.79791 11.8611C5.02678 7.49099 8.87923 4.1681 13.5292 2.60495C18.1793 1.0418 23.2567 1.36283 27.6728 3.49922C27.7447 3.53438 27.8276 3.53953 27.9034 3.51354C27.9409 3.50067 27.9755 3.48054 28.0052 3.4543C28.0349 3.42806 28.0591 3.39622 28.0766 3.36061C28.094 3.32499 28.1042 3.2863 28.1066 3.24673C28.1091 3.20717 28.1037 3.1675 28.0909 3.13001C28.078 3.09251 28.0579 3.05792 28.0316 3.02821C28.0054 2.99849 27.9736 2.97424 27.9379 2.95682C23.3795 0.746303 18.1362 0.410616 13.3331 2.02179C8.53001 3.63297 4.54979 7.06263 2.24648 11.5749C1.97227 12.1143 1.72518 12.6687 1.50521 13.2262C1.49091 13.2639 1.48433 13.3041 1.48588 13.3445C1.48742 13.3848 1.49705 13.4244 1.51419 13.4609C1.53134 13.4975 1.55565 13.5302 1.58568 13.5572C1.61571 13.5841 1.65085 13.6048 1.68902 13.6179ZM0.691612 17.4478H0.739825C0.811612 17.4489 0.881412 17.4242 0.936657 17.3784C0.991901 17.3325 1.02896 17.2685 1.04116 17.1977C1.11649 16.7457 1.21291 16.2937 1.32139 15.8387C1.3304 15.7654 1.31217 15.6914 1.27018 15.6306C1.22819 15.5699 1.16535 15.5267 1.09361 15.5092C1.02186 15.4917 0.946195 15.5012 0.880978 15.5359C0.81576 15.5705 0.76553 15.6279 0.739825 15.6971C0.62532 16.1611 0.528894 16.6312 0.438494 17.1013C0.432072 17.1407 0.433545 17.181 0.442828 17.2198C0.452111 17.2587 0.46902 17.2953 0.492571 17.3275C0.516121 17.3597 0.545845 17.387 0.580015 17.4076C0.614184 17.4283 0.652118 17.442 0.691612 17.4478ZM38.4453 23.4322C38.4064 23.4248 38.3663 23.4252 38.3274 23.4333C38.2886 23.4414 38.2517 23.4571 38.219 23.4795C38.1862 23.5019 38.1582 23.5306 38.1366 23.5638C38.1149 23.5971 38.1 23.6343 38.0928 23.6733C37.9873 24.2458 37.8517 24.8214 37.692 25.3819C36.4488 29.7608 33.6511 33.536 29.8234 35.9996C25.9957 38.4632 21.4008 39.4461 16.9002 38.764C16.8203 38.752 16.7389 38.7722 16.6739 38.8203C16.6089 38.8683 16.5657 38.9402 16.5537 39.0201C16.5417 39.1 16.5619 39.1814 16.61 39.2464C16.658 39.3114 16.7299 39.3546 16.8098 39.3666C21.4556 40.0795 26.2017 39.0685 30.1537 36.5242C34.1057 33.9798 36.9905 30.0778 38.2645 25.5536C38.4303 24.9721 38.5659 24.3784 38.6774 23.7908C38.6858 23.752 38.6864 23.712 38.6793 23.6729C38.6722 23.6339 38.6574 23.5967 38.6359 23.5633C38.6143 23.53 38.5864 23.5013 38.5537 23.4788C38.521 23.4563 38.4842 23.4405 38.4453 23.4322ZM38.7075 19.4848C38.6276 19.4848 38.5509 19.5166 38.4944 19.5731C38.4379 19.6296 38.4062 19.7062 38.4062 19.7861C38.4062 20.2472 38.4062 20.7142 38.3911 21.1753C38.3911 21.2552 38.4229 21.3318 38.4794 21.3884C38.5359 21.4449 38.6125 21.4766 38.6924 21.4766C38.7724 21.4766 38.849 21.4449 38.9055 21.3884C38.962 21.3318 38.9938 21.2552 38.9938 21.1753C39.0179 20.6992 39.0209 20.2171 39.0088 19.7409C38.9979 19.6691 38.9614 19.6036 38.9061 19.5565C38.8507 19.5095 38.7802 19.484 38.7075 19.4848Z" stroke="url(#paint9_linear_1320_8475)" stroke-width="0.467519" mask="url(#path-7-outside-1_1320_8475)"/>
<path d="M3.69588 35.9465C3.59659 35.9659 3.49571 35.976 3.39455 35.9766C3.08842 35.9763 2.78868 35.889 2.53026 35.7249C2.27184 35.5608 2.06539 35.3266 1.93496 35.0496C1.80453 34.7727 1.75551 34.4644 1.79359 34.1606C1.83167 33.8568 1.95529 33.5702 2.15005 33.334C2.19808 33.2758 2.22256 33.2018 2.21865 33.1265C2.21475 33.0512 2.18274 32.98 2.12896 32.9272C1.69477 32.5035 1.37557 31.9763 1.20142 31.3952C1.02727 30.8142 1.0039 30.1983 1.13352 29.6057C1.26313 29.0131 1.54147 28.4632 1.9423 28.0079C2.34314 27.5525 2.85328 27.2067 3.42468 27.003C3.49877 26.977 3.55975 26.923 3.59464 26.8527C3.62954 26.7823 3.63559 26.7011 3.61151 26.6264C3.52959 26.3767 3.51175 26.1106 3.55961 25.8523C3.60748 25.5939 3.71952 25.3518 3.88544 25.1481C4.05135 24.9445 4.26581 24.7858 4.5091 24.6866C4.75239 24.5875 5.01669 24.5512 5.27771 24.5809C5.53872 24.6107 5.78807 24.7055 6.00282 24.8569C6.21757 25.0082 6.39083 25.211 6.50667 25.4468C6.6225 25.6826 6.6772 25.9437 6.66573 26.2062C6.65425 26.4686 6.57698 26.724 6.441 26.9488C6.4004 27.0162 6.38776 27.0967 6.40578 27.1733C6.4238 27.2499 6.47104 27.3164 6.53743 27.3586C7.04559 27.6801 7.46407 28.1251 7.75386 28.652C8.04366 29.1789 8.19533 29.7706 8.19475 30.3719C8.19485 30.5433 8.18277 30.7145 8.15859 30.8842C8.147 30.9641 8.16763 31.0453 8.21595 31.11C8.26427 31.1747 8.33631 31.2176 8.41623 31.2292C8.49614 31.2408 8.57739 31.2201 8.6421 31.1718C8.7068 31.1235 8.74966 31.0515 8.76125 30.9715C8.78959 30.7719 8.80369 30.5705 8.80344 30.3689C8.80516 29.7126 8.65153 29.0652 8.3551 28.4797C8.05867 27.8942 7.62786 27.3871 7.0979 27C7.23032 26.689 7.28821 26.3513 7.26697 26.0139C7.24572 25.6765 7.14592 25.3487 6.97553 25.0567C6.80514 24.7647 6.56888 24.5166 6.28559 24.3321C6.00229 24.1476 5.67981 24.0319 5.34385 23.9942C5.0079 23.9565 4.66778 23.9977 4.35062 24.1148C4.03345 24.2318 3.74803 24.4213 3.51711 24.6682C3.28619 24.9152 3.11616 25.2126 3.02059 25.5369C2.92502 25.8612 2.90655 26.2033 2.96666 26.536C2.21664 26.8594 1.57764 27.3952 1.12841 28.0773C0.679184 28.7595 0.439358 29.5581 0.438494 30.3749C0.434952 31.4096 0.818695 32.4082 1.51425 33.1743C1.30426 33.5091 1.18758 33.894 1.17629 34.2891C1.165 34.6842 1.2595 35.0752 1.45002 35.4215C1.64054 35.7678 1.92015 36.0569 2.25991 36.2589C2.59967 36.4609 2.98724 36.5684 3.3825 36.5703C3.52504 36.5705 3.66728 36.5574 3.80737 36.5311C3.88729 36.5159 3.9579 36.4696 4.00368 36.4024C4.04945 36.3351 4.06663 36.2524 4.05145 36.1725C4.03627 36.0926 3.98996 36.022 3.92271 35.9762C3.85546 35.9304 3.77278 35.9133 3.69287 35.9284L3.69588 35.9465ZM1.68902 13.6179C1.72451 13.6319 1.76234 13.6391 1.80051 13.639C1.86086 13.6391 1.91984 13.621 1.9698 13.5871C2.01977 13.5533 2.05842 13.5052 2.08075 13.4492C2.29168 12.9098 2.54781 12.3704 2.79791 11.8611C5.02678 7.49099 8.87923 4.1681 13.5292 2.60495C18.1793 1.0418 23.2567 1.36283 27.6728 3.49922C27.7447 3.53438 27.8276 3.53953 27.9034 3.51354C27.9409 3.50067 27.9755 3.48054 28.0052 3.4543C28.0349 3.42806 28.0591 3.39622 28.0766 3.36061C28.094 3.32499 28.1042 3.2863 28.1066 3.24673C28.1091 3.20717 28.1037 3.1675 28.0909 3.13001C28.078 3.09251 28.0579 3.05792 28.0316 3.02821C28.0054 2.99849 27.9736 2.97424 27.9379 2.95682C23.3795 0.746303 18.1362 0.410616 13.3331 2.02179C8.53001 3.63297 4.54979 7.06263 2.24648 11.5749C1.97227 12.1143 1.72518 12.6687 1.50521 13.2262C1.49091 13.2639 1.48433 13.3041 1.48588 13.3445C1.48742 13.3848 1.49705 13.4244 1.51419 13.4609C1.53134 13.4975 1.55565 13.5302 1.58568 13.5572C1.61571 13.5841 1.65085 13.6048 1.68902 13.6179ZM0.691612 17.4478H0.739825C0.811612 17.4489 0.881412 17.4242 0.936657 17.3784C0.991901 17.3325 1.02896 17.2685 1.04116 17.1977C1.11649 16.7457 1.21291 16.2937 1.32139 15.8387C1.3304 15.7654 1.31217 15.6914 1.27018 15.6306C1.22819 15.5699 1.16535 15.5267 1.09361 15.5092C1.02186 15.4917 0.946195 15.5012 0.880978 15.5359C0.81576 15.5705 0.76553 15.6279 0.739825 15.6971C0.62532 16.1611 0.528894 16.6312 0.438494 17.1013C0.432072 17.1407 0.433545 17.181 0.442828 17.2198C0.452111 17.2587 0.46902 17.2953 0.492571 17.3275C0.516121 17.3597 0.545845 17.387 0.580015 17.4076C0.614184 17.4283 0.652118 17.442 0.691612 17.4478ZM38.4453 23.4322C38.4064 23.4248 38.3663 23.4252 38.3274 23.4333C38.2886 23.4414 38.2517 23.4571 38.219 23.4795C38.1862 23.5019 38.1582 23.5306 38.1366 23.5638C38.1149 23.5971 38.1 23.6343 38.0928 23.6733C37.9873 24.2458 37.8517 24.8214 37.692 25.3819C36.4488 29.7608 33.6511 33.536 29.8234 35.9996C25.9957 38.4632 21.4008 39.4461 16.9002 38.764C16.8203 38.752 16.7389 38.7722 16.6739 38.8203C16.6089 38.8683 16.5657 38.9402 16.5537 39.0201C16.5417 39.1 16.5619 39.1814 16.61 39.2464C16.658 39.3114 16.7299 39.3546 16.8098 39.3666C21.4556 40.0795 26.2017 39.0685 30.1537 36.5242C34.1057 33.9798 36.9905 30.0778 38.2645 25.5536C38.4303 24.9721 38.5659 24.3784 38.6774 23.7908C38.6858 23.752 38.6864 23.712 38.6793 23.6729C38.6722 23.6339 38.6574 23.5967 38.6359 23.5633C38.6143 23.53 38.5864 23.5013 38.5537 23.4788C38.521 23.4563 38.4842 23.4405 38.4453 23.4322ZM38.7075 19.4848C38.6276 19.4848 38.5509 19.5166 38.4944 19.5731C38.4379 19.6296 38.4062 19.7062 38.4062 19.7861C38.4062 20.2472 38.4062 20.7142 38.3911 21.1753C38.3911 21.2552 38.4229 21.3318 38.4794 21.3884C38.5359 21.4449 38.6125 21.4766 38.6924 21.4766C38.7724 21.4766 38.849 21.4449 38.9055 21.3884C38.962 21.3318 38.9938 21.2552 38.9938 21.1753C39.0179 20.6992 39.0209 20.2171 39.0088 19.7409C38.9979 19.6691 38.9614 19.6036 38.9061 19.5565C38.8507 19.5095 38.7802 19.484 38.7075 19.4848Z" stroke="black" stroke-opacity="0.2" stroke-width="0.467519" mask="url(#path-7-outside-1_1320_8475)"/>
<defs>
<linearGradient id="paint0_linear_1320_8475" x1="8.37305" y1="12.2463" x2="25.9276" y2="15.4996" gradientUnits="userSpaceOnUse">
<stop offset="0.158241" stop-color="#002D31"/>
<stop offset="0.32869" stop-color="#005961"/>
<stop offset="0.509791" stop-color="#00818C"/>
<stop offset="0.786145" stop-color="#005961"/>
<stop offset="0.988044" stop-color="#002D31"/>
</linearGradient>
<linearGradient id="paint1_linear_1320_8475" x1="10.5615" y1="9.33627" x2="33.3339" y2="12.4599" gradientUnits="userSpaceOnUse">
<stop offset="0.158241" stop-color="#002D31"/>
<stop offset="0.32869" stop-color="#005961"/>
<stop offset="0.509791" stop-color="#00818C"/>
<stop offset="0.786145" stop-color="#005961"/>
<stop offset="0.988044" stop-color="#002D31"/>
</linearGradient>
<linearGradient id="paint2_linear_1320_8475" x1="18.2422" y1="5.41214" x2="38.6886" y2="7.35814" gradientUnits="userSpaceOnUse">
<stop offset="0.158241" stop-color="#002D31"/>
<stop offset="0.32869" stop-color="#005961"/>
<stop offset="0.509791" stop-color="#00818C"/>
<stop offset="0.786145" stop-color="#005961"/>
<stop offset="0.988044" stop-color="#002D31"/>
</linearGradient>
<linearGradient id="paint3_linear_1320_8475" x1="30.335" y1="1.19454" x2="34.8817" y2="1.45526" gradientUnits="userSpaceOnUse">
<stop offset="0.158241" stop-color="#002D31"/>
<stop offset="0.32869" stop-color="#005961"/>
<stop offset="0.509791" stop-color="#00818C"/>
<stop offset="0.786145" stop-color="#005961"/>
<stop offset="0.988044" stop-color="#002D31"/>
</linearGradient>
<linearGradient id="paint4_linear_1320_8475" x1="5.55859" y1="2.97943" x2="41.5447" y2="8.04207" gradientUnits="userSpaceOnUse">
<stop offset="0.158241" stop-color="#002D31"/>
<stop offset="0.32869" stop-color="#005961"/>
<stop offset="0.509791" stop-color="#00818C"/>
<stop offset="0.786145" stop-color="#005961"/>
<stop offset="0.988044" stop-color="#002D31"/>
</linearGradient>
<linearGradient id="paint5_linear_1320_8475" x1="6.63769" y1="4.91501" x2="37.0919" y2="27.8179" gradientUnits="userSpaceOnUse">
<stop offset="0.03125" stop-color="#003B40"/>
<stop offset="0.265625" stop-color="#005961"/>
<stop offset="0.509791" stop-color="#00818C"/>
<stop offset="0.760417" stop-color="#005961"/>
<stop offset="0.994792" stop-color="#003B40"/>
</linearGradient>
<linearGradient id="paint6_linear_1320_8475" x1="4.58496" y1="32.6501" x2="16.0725" y2="35.1156" gradientUnits="userSpaceOnUse">
<stop offset="0.158241" stop-color="#002D31"/>
<stop offset="0.32869" stop-color="#005961"/>
<stop offset="0.509791" stop-color="#00818C"/>
<stop offset="0.786145" stop-color="#005961"/>
<stop offset="0.988044" stop-color="#002D31"/>
</linearGradient>
<linearGradient id="paint7_linear_1320_8475" x1="4.93831" y1="33.0656" x2="11.6785" y2="40.7984" gradientUnits="userSpaceOnUse">
<stop offset="0.03125" stop-color="#003B40"/>
<stop offset="0.265625" stop-color="#005961"/>
<stop offset="0.509791" stop-color="#00818C"/>
<stop offset="0.760417" stop-color="#005961"/>
<stop offset="0.994792" stop-color="#003B40"/>
</linearGradient>
<linearGradient id="paint8_linear_1320_8475" x1="0.43457" y1="1.71395" x2="42.021" y2="7.47606" gradientUnits="userSpaceOnUse">
<stop offset="0.158241" stop-color="#002D31"/>
<stop offset="0.32869" stop-color="#005961"/>
<stop offset="0.509791" stop-color="#00818C"/>
<stop offset="0.786145" stop-color="#005961"/>
<stop offset="0.988044" stop-color="#002D31"/>
</linearGradient>
<linearGradient id="paint9_linear_1320_8475" x1="1.68087" y1="3.98374" x2="37.2393" y2="30.3211" gradientUnits="userSpaceOnUse">
<stop offset="0.03125" stop-color="#003B40"/>
<stop offset="0.265625" stop-color="#005961"/>
<stop offset="0.509791" stop-color="#00818C"/>
<stop offset="0.760417" stop-color="#005961"/>
<stop offset="0.994792" stop-color="#003B40"/>
</linearGradient>
</defs>
</svg>
