<svg width="25" height="25" viewBox="0 0 25 25" fill="none" xmlns="http://www.w3.org/2000/svg">
<path d="M14.9497 7.47772C15.5572 7.58097 16.1005 7.92485 16.4612 8.43427C16.8219 8.9437 16.9706 9.5773 16.8748 10.1968C16.8599 10.2894 16.8631 10.3841 16.8842 10.4756C16.9054 10.5671 16.944 10.6534 16.9979 10.7297C17.0518 10.806 17.12 10.8708 17.1985 10.9202C17.2769 10.9697 17.3642 11.0028 17.4552 11.0179C17.639 11.0485 17.8269 11.0037 17.978 10.8933C18.1291 10.783 18.2311 10.616 18.2615 10.4289C18.4176 9.43409 18.1802 8.41568 17.6015 7.59678C17.0227 6.77788 16.1498 6.22529 15.1738 6.06008C15.081 6.04019 14.9853 6.03965 14.8924 6.0585C14.7995 6.07735 14.7113 6.1152 14.6333 6.16977C14.5552 6.22433 14.4889 6.29448 14.4382 6.37598C14.3875 6.45748 14.3536 6.54864 14.3385 6.64397C14.3234 6.73929 14.3274 6.83681 14.3503 6.93063C14.3731 7.02445 14.4144 7.11263 14.4715 7.18985C14.5287 7.26708 14.6006 7.33175 14.6829 7.37995C14.7652 7.42816 14.8561 7.4589 14.9502 7.47034L14.9497 7.47772ZM15.7779 4.51191C17.0819 4.73113 18.2486 5.46865 19.0219 6.56248C19.7952 7.65631 20.1119 9.01702 19.9023 10.3458C19.8831 10.4403 19.8828 10.5379 19.9016 10.6326C19.9203 10.7274 19.9577 10.8173 20.0115 10.8971C20.0652 10.9768 20.1342 11.0446 20.2143 11.0965C20.2944 11.1484 20.384 11.1832 20.4775 11.1989C20.5711 11.2146 20.6668 11.2108 20.7587 11.1877C20.8507 11.1647 20.9371 11.1229 21.0127 11.0648C21.0883 11.0068 21.1516 10.9337 21.1986 10.85C21.2457 10.7663 21.2756 10.6736 21.2865 10.5777C21.5557 8.87465 21.1503 7.13037 20.1594 5.72811C19.1685 4.32585 17.6731 3.3803 16.0017 3.09919C15.8178 3.06808 15.6296 3.11266 15.4784 3.22311C15.3272 3.33357 15.2254 3.50085 15.1954 3.68817C15.1654 3.87548 15.2096 4.06748 15.3184 4.22193C15.4272 4.37638 15.5917 4.48063 15.7755 4.51173L15.7779 4.51191ZM16.8308 0.155699C16.7382 0.136045 16.6427 0.135662 16.55 0.154573C16.4573 0.173485 16.3694 0.211299 16.2916 0.265748C16.2137 0.320197 16.1475 0.390156 16.0969 0.471425C16.0462 0.552694 16.0123 0.643596 15.9971 0.738673C15.9818 0.83375 15.9856 0.931041 16.0082 1.0247C16.0307 1.11836 16.0716 1.20647 16.1284 1.28372C16.1852 1.36097 16.2566 1.42577 16.3385 1.47425C16.4204 1.52272 16.5109 1.55385 16.6048 1.56578C18.5971 1.90227 20.3793 3.03007 21.5607 4.70178C22.742 6.3735 23.2259 8.45265 22.9063 10.4832C22.887 10.5777 22.8868 10.6753 22.9055 10.77C22.9243 10.8648 22.9617 10.9547 23.0154 11.0345C23.0692 11.1142 23.1382 11.182 23.2183 11.2339C23.2984 11.2858 23.3879 11.3206 23.4815 11.3363C23.5751 11.352 23.6707 11.3482 23.7627 11.3251C23.8547 11.3021 23.9411 11.2603 24.0167 11.2022C24.0923 11.1442 24.1555 11.0711 24.2026 10.9874C24.2496 10.9037 24.2796 10.8111 24.2905 10.7151C24.6697 8.31093 24.0973 5.84886 22.6987 3.86921C21.3002 1.88955 19.1899 0.554023 16.8308 0.155699Z" fill="#E6EDED"/>
<path d="M22.0588 19.0939C22.0588 19.4689 21.9784 19.8543 21.8078 20.2293C21.6371 20.6043 21.4162 20.9585 21.125 21.2918C20.6331 21.8543 20.0909 22.2606 19.4785 22.521C18.8761 22.7814 18.2235 22.9168 17.5207 22.9168C16.4966 22.9168 15.4022 22.6668 14.2476 22.1564C13.093 21.646 11.9384 20.9585 10.7938 20.0939C9.63923 19.2189 8.54486 18.2502 7.5007 17.1772C6.46657 16.0939 5.53285 14.9585 4.69952 13.771C3.87624 12.5835 3.2136 11.396 2.73167 10.2189C2.24975 9.03141 2.00879 7.896 2.00879 6.81266C2.00879 6.10433 2.12927 5.42725 2.37023 4.80225C2.61119 4.16683 2.99271 3.5835 3.52484 3.06266C4.1674 2.40641 4.8702 2.0835 5.61317 2.0835C5.89429 2.0835 6.17541 2.146 6.42641 2.271C6.68745 2.396 6.91837 2.5835 7.09909 2.85433L9.42839 6.26058C9.60911 6.521 9.73963 6.76058 9.82999 6.98975C9.92035 7.2085 9.97055 7.42725 9.97055 7.62516C9.97055 7.87516 9.90027 8.12516 9.75971 8.36475C9.62919 8.60433 9.43843 8.85433 9.19747 9.10433L8.43442 9.92725C8.32398 10.0418 8.27378 10.1772 8.27378 10.3439C8.27378 10.4272 8.28382 10.5002 8.3039 10.5835C8.33402 10.6668 8.36414 10.7293 8.38422 10.7918C8.56494 11.1356 8.87618 11.5835 9.31795 12.1252C9.76975 12.6668 10.2517 13.2189 10.7738 13.771C11.3159 14.3231 11.838 14.8335 12.3701 15.3022C12.8922 15.7606 13.3239 16.0731 13.6653 16.2606C13.7155 16.2814 13.7757 16.3127 13.846 16.3439C13.9263 16.3752 14.0066 16.3856 14.097 16.3856C14.2677 16.3856 14.3982 16.3231 14.5087 16.2085L15.2717 15.4272C15.5227 15.1668 15.7637 14.9689 15.9946 14.8439C16.2255 14.6981 16.4564 14.6252 16.7074 14.6252C16.8982 14.6252 17.099 14.6668 17.3199 14.7606C17.5407 14.8543 17.7717 14.9897 18.0227 15.1668L21.3459 17.6147C21.607 17.8022 21.7877 18.021 21.8981 18.2814C21.9985 18.5418 22.0588 18.8022 22.0588 19.0939Z" fill="#E6EDED"/>
</svg>
