<svg width="26" height="26" viewBox="0 0 26 26" fill="none" xmlns="http://www.w3.org/2000/svg">
<g clip-path="url(#clip0_807_4238)">
<path d="M11.6388 2.0068L7.73249 5.91309C7.21962 6.42596 6.86275 7.16133 6.92413 7.9436L6.92413 17.9798C6.92413 18.6812 7.20966 19.2495 7.62547 19.6654C8.05418 20.0941 8.73417 20.3667 9.31106 20.3667H16.3745C17.0759 20.3667 17.6443 20.0812 18.0601 19.6654C18.4888 19.2366 18.7614 18.5567 18.7614 17.9798L18.7614 7.91974C18.7614 7.13722 18.4945 6.45457 17.9531 5.91309L14.0468 2.0068C13.397 1.35706 12.2885 1.35706 11.6388 2.0068Z" stroke="#E6EDED" stroke-width="1.13514" stroke-linecap="round" stroke-linejoin="round"/>
<path d="M11.7726 7.49141C12.3636 8.08247 13.3219 8.08247 13.913 7.49141C14.5041 6.90034 14.5041 5.94204 13.913 5.35098C13.3219 4.75991 12.3636 4.75991 11.7726 5.35098C11.1815 5.94204 11.1815 6.90034 11.7726 7.49141Z" stroke="#E6EDED" stroke-width="0.756757" stroke-linecap="round" stroke-linejoin="round"/>
<path fill-rule="evenodd" clip-rule="evenodd" d="M10.4308 15.8905L10.4452 15.8602H11.7244C11.7244 16.2659 11.8181 16.5578 12.009 16.7285C12.1964 16.9029 12.445 16.9901 12.7477 16.9901C13.0432 16.9901 13.2666 16.9143 13.4143 16.7588C13.562 16.6071 13.6377 16.3986 13.6377 16.1332C13.6377 15.8715 13.5656 15.663 13.4251 15.5075C13.2846 15.3483 13.0324 15.1966 12.6684 15.0525C11.9874 14.8099 11.483 14.5293 11.1515 14.207C10.8236 13.8847 10.6578 13.4335 10.6578 12.8496C10.6578 12.3112 10.8236 11.8751 11.1515 11.5301C11.483 11.1888 11.9298 10.9879 12.4955 10.9272V9.90723H13.2125V10.9424C13.7602 11.022 14.189 11.2419 14.4989 11.6135C14.8088 11.9813 14.9601 12.459 14.9493 13.0467L14.9385 13.0695H13.6377C13.6377 12.7207 13.562 12.4552 13.4143 12.2694C13.263 12.0837 13.054 11.9927 12.7873 11.9927C12.5063 11.9927 12.3009 12.0723 12.1748 12.2239C12.0487 12.3794 11.9874 12.5917 11.9874 12.8534C11.9874 13.096 12.0559 13.2932 12.1856 13.4411C12.3189 13.589 12.5747 13.7444 12.9531 13.915C13.6269 14.1463 14.1313 14.4231 14.4664 14.7568C14.8015 15.0905 14.9673 15.5455 14.9673 16.1256C14.9673 16.6792 14.8015 17.1228 14.4701 17.4565C14.1422 17.7901 13.6881 17.9873 13.1152 18.048V18.9883H12.3982V18.048C11.8181 17.9949 11.3424 17.7901 10.9677 17.4375C10.5966 17.0887 10.4164 16.5692 10.4272 15.8905H10.4308Z" fill="#E6EDED"/>
</g>
<defs>
<clipPath id="clip0_807_4238">
<rect width="18.1622" height="18.1622" fill="white" transform="translate(12.8428) rotate(45)"/>
</clipPath>
</defs>
</svg>
