<svg width="19" height="19" viewBox="0 0 19 19" fill="none" xmlns="http://www.w3.org/2000/svg">
<g clip-path="url(#clip0_807_4238)">
<path d="M16.6425 1.32062L11.1181 1.32777C10.3928 1.32871 9.62084 1.59735 9.11186 2.19456L2.02441 9.30038C1.52909 9.79698 1.32987 10.401 1.33063 10.9891C1.33141 11.5954 1.62032 12.2686 2.02878 12.676L7.02983 17.6641C7.52644 18.1595 8.1305 18.3587 8.71855 18.3579C9.32484 18.3571 9.99807 18.0682 10.4055 17.6598L17.5098 10.5371C18.0624 9.98301 18.3555 9.31121 18.3545 8.54544L18.3474 3.02112C18.3462 2.10225 17.5613 1.31943 16.6425 1.32062Z" stroke="#E6EDED" stroke-width="1.13514" stroke-linecap="round" stroke-linejoin="round"/>
<path d="M12.8641 5.29819C12.8652 6.13408 13.5437 6.81083 14.3796 6.80975C15.2155 6.80866 15.8922 6.13016 15.8911 5.29427C15.89 4.45838 15.2115 3.78164 14.3756 3.78272C13.5398 3.7838 12.863 4.4623 12.8641 5.29819Z" stroke="#E6EDED" stroke-width="0.756757" stroke-linecap="round" stroke-linejoin="round"/>
<path fill-rule="evenodd" clip-rule="evenodd" d="M5.98262 10.2977L6.01424 10.2865L6.91991 11.1898C6.6334 11.477 6.49355 11.7499 6.50827 12.0056C6.51776 12.2614 6.6322 12.4987 6.8465 12.7124C7.0557 12.9211 7.26742 13.0252 7.48181 13.0194C7.69351 13.0164 7.89435 12.9222 8.08179 12.7342C8.26655 12.549 8.3628 12.3505 8.37308 12.1411C8.38605 11.9292 8.31457 11.6437 8.15866 11.2846C7.84786 10.6319 7.68884 10.077 7.68173 9.61471C7.67717 9.15496 7.87846 8.71844 8.29082 8.30501C8.67105 7.9238 9.09633 7.73212 9.57215 7.71938C10.0478 7.71187 10.5061 7.88511 10.9495 8.24166L11.6698 7.5195L12.1775 8.02587L11.4465 8.75877C11.778 9.20192 11.9263 9.66043 11.8833 10.1424C11.843 10.6216 11.6127 11.0667 11.19 11.4752L11.1663 11.4837L10.2453 10.5651C10.4917 10.3181 10.6255 10.0767 10.6521 9.84087C10.6762 9.60245 10.5925 9.39044 10.4037 9.20214C10.2047 9.00366 10.0031 8.915 9.80668 8.93332C9.6076 8.95433 9.41428 9.06141 9.22952 9.24665C9.05815 9.41846 8.96739 9.60641 8.9548 9.80271C8.94477 10.0016 9.01612 10.2923 9.1635 10.6803C9.47723 11.3199 9.63892 11.8721 9.64055 12.345C9.64217 12.8179 9.43821 13.2571 9.02853 13.6678C8.63759 14.0598 8.20695 14.2568 7.73661 14.259C7.26882 14.2636 6.80813 14.0826 6.35966 13.721L5.6956 14.3868L5.18792 13.8804L5.85197 13.2146C5.47872 12.7674 5.28656 12.2865 5.27026 11.7722C5.25383 11.2631 5.49311 10.7681 5.98007 10.2952L5.98262 10.2977Z" fill="#E6EDED"/>
</g>
<defs>
<clipPath id="clip0_807_4238">
<rect width="18.1622" height="18.1622" fill="white" transform="translate(18.9121 0.75) rotate(89.9258)"/>
</clipPath>
</defs>
</svg>
