<svg width="32" height="32" viewBox="0 0 32 32" fill="none" xmlns="http://www.w3.org/2000/svg">
<path d="M19.0282 12.5491C18.883 12.5491 18.7456 12.6079 18.6435 12.7061L17.5444 13.8052L17.3325 13.5932C16.8732 13.1339 16.2255 12.973 15.6053 13.0476C14.9851 13.1261 14.3688 13.4283 13.8703 13.9269C13.3718 14.4254 13.0656 15.0417 12.9871 15.658C12.9086 16.2782 13.0774 16.9259 13.5366 17.3812L14.0234 17.8719L14.514 18.3547C14.7103 18.551 14.7967 18.8297 14.7535 19.1869C14.7103 19.5401 14.518 19.9523 14.1765 20.2938C13.835 20.6353 13.4306 20.8198 13.0734 20.8669C12.7162 20.9101 12.4375 20.8237 12.2413 20.6275L11.8762 20.2624C11.8762 20.2624 11.8644 20.2506 11.8605 20.2467L10.3846 18.7708C10.1726 18.5627 9.835 18.5627 9.62303 18.7708C9.52097 18.8728 9.46209 19.0102 9.46209 19.1515C9.46209 19.2928 9.52097 19.4302 9.62303 19.5323L10.7143 20.6275L9.61126 21.7266C9.40321 21.9346 9.40321 22.2761 9.61126 22.4842C9.71332 22.5862 9.85071 22.6412 9.99202 22.6412C10.1333 22.6412 10.2746 22.5862 10.3728 22.4842L11.4719 21.389C11.9311 21.8483 12.5788 22.0092 13.199 21.9346C13.8192 21.8561 14.4355 21.5499 14.9341 21.0514C15.4326 20.5529 15.7388 19.9405 15.8173 19.3242C15.8958 18.704 15.727 18.0524 15.2677 17.5971L14.781 17.1103L14.2903 16.6236C14.094 16.4273 14.0077 16.1486 14.0508 15.7914C14.094 15.4381 14.2864 15.0299 14.6279 14.6884C14.9694 14.3469 15.3737 14.1545 15.7309 14.1114C16.0881 14.0682 16.3668 14.1545 16.5631 14.3508L18.4198 16.2075C18.6317 16.4156 18.9693 16.4156 19.1813 16.2075C19.2834 16.1054 19.3383 15.9681 19.3383 15.8267C19.3383 15.6854 19.2794 15.548 19.1813 15.446L18.302 14.5667L19.4011 13.4715C19.5032 13.3695 19.5581 13.2321 19.5581 13.0908C19.5581 12.9495 19.4993 12.8121 19.4011 12.71C19.303 12.6119 19.1656 12.553 19.0243 12.553M23.8368 6.01333C24.3628 6.01333 24.8888 6.21745 25.2931 6.62176C26.1017 7.43039 26.1017 8.72184 25.2931 9.53046C24.4845 10.3391 23.1891 10.3391 22.3805 9.53046C21.5718 8.72184 21.5718 7.43039 22.3805 6.62176C22.7848 6.21745 23.3108 6.01333 23.8368 6.01333ZM23.8368 4.94563C23.0321 4.94563 22.2274 5.25181 21.615 5.86024C20.3942 7.07711 20.3942 9.07119 21.615 10.292C22.8358 11.5128 24.8299 11.5088 26.0546 10.292C27.2754 9.07119 27.2754 7.08103 26.0546 5.86024C25.4423 5.25181 24.6415 4.94563 23.8368 4.94563ZM16.092 1.73468L29.0536 2.85734L30.1802 15.7993L15.6249 30.331C15.0086 30.9473 14.0351 30.9473 13.4149 30.331L1.53678 18.4724C0.920498 17.8562 0.920498 16.8827 1.53678 16.2664L16.092 1.73468ZM15.935 0.639506C15.778 0.62773 15.621 0.682685 15.5072 0.792596L0.771334 15.5049C-0.257111 16.5294 -0.257111 18.2055 0.771334 19.23L12.6534 31.0886C13.6819 32.1131 15.358 32.1131 16.3864 31.0886L31.1183 16.3842C31.2322 16.2703 31.2871 16.1133 31.2714 15.9524L30.086 2.31564C30.0663 2.05264 29.8583 1.84459 29.5953 1.82104L15.935 0.639506Z" fill="url(#paint0_linear_721_14652)"/>
<defs>
<linearGradient id="paint0_linear_721_14652" x1="7.45428e-08" y1="1.20234" x2="33.7082" y2="5.88009" gradientUnits="userSpaceOnUse">
<stop offset="0.158241" stop-color="#002D31"/>
<stop offset="0.32869" stop-color="#005961"/>
<stop offset="0.509791" stop-color="#00818C"/>
<stop offset="0.786145" stop-color="#005961"/>
<stop offset="0.988044" stop-color="#002D31"/>
</linearGradient>
</defs>
</svg>
