<svg width="47" height="45" viewBox="0 0 47 45" fill="none" xmlns="http://www.w3.org/2000/svg">
<path d="M29.209 24.9761V15.1308C29.209 14.709 28.8609 14.3795 28.4459 14.3795C28.3656 14.3795 28.2853 14.3795 28.2184 14.4059L18.2181 17.4372C17.8968 17.5295 17.6692 17.8326 17.6692 18.1621V25.7273H19.2087V18.7157L27.6695 16.1588V18.9134H24.5904V20.429H27.6695V21.9447H22.2878V23.4604H27.6695V24.9761H29.209Z" fill="url(#paint0_linear_847_3626)"/>
<path d="M13.0649 4.54714H18.4466V6.06281H13.0649V4.54714ZM14.6044 1.5158H16.9071V3.03147H14.6044V1.5158ZM11.5254 7.56531H19.9861V15.1305H21.5257V6.80088C21.5257 6.37913 21.1776 6.03646 20.7626 6.03646H19.9995V3.76954C19.9995 3.34778 19.6514 3.01829 19.2364 3.01829H18.4734V0.751369C18.4466 0.342796 18.1119 0.00012207 17.6835 0.00012207H13.8414C13.413 0.00012207 13.0783 0.342796 13.0783 0.751369V3.01829H12.3152C11.8868 3.01829 11.5521 3.36096 11.5521 3.76954V6.03646H10.7891C10.3607 6.03646 10.026 6.37913 10.026 6.80088V15.8817H11.5655V7.55213L11.5254 7.56531Z" fill="url(#paint1_linear_847_3626)"/>
<path d="M29.9883 2.4252L33.0674 3.50594V6.44503L29.9883 5.36429V2.4252ZM26.1462 5.6147L35.37 8.85692V15.8949H36.9095V8.32973C36.9095 8.01342 36.7087 7.72346 36.4008 7.61803L34.6069 6.9854V2.97875C34.6069 2.66243 34.4061 2.37248 34.0982 2.26704L32.3043 1.63441V0.00012207H30.7648V1.09404L29.4796 0.645931C29.078 0.500953 28.6362 0.711829 28.5023 1.10722C28.4756 1.1863 28.4622 1.27856 28.4622 1.35764V4.82392L25.6509 3.83543C25.2492 3.69046 24.8075 3.90133 24.6736 4.29673C24.6468 4.3758 24.6334 4.46806 24.6334 4.54714V13.628H26.173V5.6147H26.1462Z" fill="url(#paint2_linear_847_3626)"/>
<path d="M11.5264 28.7586H19.2107V43.1378H11.5264V28.7586ZM13.066 26.4917C13.066 26.07 13.414 25.7405 13.829 25.7405C14.244 25.7405 14.5921 26.0832 14.5921 26.4917V27.243H13.0526V26.4917H13.066ZM26.1319 31.79H35.3558V43.1378H26.1319V31.79ZM24.5924 28.6796L36.8953 27.3352V30.2743H24.5924V28.6796ZM44.5796 43.1378V18.1621C44.5796 17.7404 44.2315 17.4109 43.8165 17.4109H43.0534V15.8952H41.5139V17.4109H39.9744V15.8952H38.4348V17.4109H33.0531C32.6248 17.4109 32.2901 17.7535 32.2901 18.1621V24.9761H33.8296V18.9265H43.0534V21.1935H36.1322V22.7091H43.0534V24.2248H39.9744V25.7405H43.0534V27.2562H39.9744V28.7718H43.0534V30.2875H39.9744V31.8032H43.0534V33.3188H39.2113V34.8345H43.0534V36.3502H39.2113V37.8659H43.0534V39.3815H39.2113V40.8972H43.0534V43.1641H36.9087V31.8163H37.6717C38.1001 31.8163 38.4348 31.4737 38.4348 31.0651V26.5181C38.4348 26.0963 38.0868 25.7668 37.6717 25.7668C37.645 25.7668 37.6182 25.7668 37.5914 25.7668L23.749 27.2825C23.3608 27.3221 23.0662 27.6515 23.0662 28.0338V31.0651C23.0662 31.4869 23.4143 31.8163 23.8293 31.8163H24.5924V43.1641H20.7503V28.0206C20.7503 27.5988 20.4022 27.2693 19.9872 27.2693H16.145V26.5181C16.145 25.556 15.5292 24.6993 14.6055 24.383V22.7355H13.066V24.383C12.1422 24.6993 11.5264 25.556 11.5264 26.5181V27.2693H10.7634C10.335 27.2693 10.0003 27.612 10.0003 28.0206V43.1641H3.07907V40.8972H7.69767V39.3815H3.07907V37.8659H6.92121V36.3502H3.07907V34.8345H6.92121V33.3188H3.07907V31.8032H7.69767V30.2875H3.07907V28.7718H6.92121V27.2562H3.07907V25.7405H9.22382V24.2248H3.07907V22.7091H10.0003V21.1935H3.07907V18.9265H13.0794V21.1935H14.6189V18.1621C14.6189 17.7404 14.2708 17.4109 13.8558 17.4109H8.47414V15.8952H6.9346V17.4109H5.39507V14.3795H3.85553V17.4109H2.316C1.8876 17.4109 1.55292 17.7535 1.55292 18.1621V43.1378H0V44.6534H46.1325V43.1378H44.593H44.5796Z" fill="url(#paint3_linear_847_3626)"/>
<path d="M29.9873 33.3053H28.4478V34.821H29.9873V33.3053Z" fill="url(#paint4_linear_847_3626)"/>
<path d="M15.3832 9.08093H13.8436V10.5966H15.3832V9.08093Z" fill="url(#paint5_linear_847_3626)"/>
<path d="M14.605 14.3795H13.0654V15.8952H14.605V14.3795Z" fill="url(#paint6_linear_847_3626)"/>
<path d="M18.4477 12.1123H16.9082V13.628H18.4477V12.1123Z" fill="url(#paint7_linear_847_3626)"/>
<path d="M33.0674 33.3053H31.5278V34.821H33.0674V33.3053Z" fill="url(#paint8_linear_847_3626)"/>
<path d="M29.9873 36.3368H28.4478V37.8525H29.9873V36.3368Z" fill="url(#paint9_linear_847_3626)"/>
<path d="M33.0674 36.3368H31.5278V37.8525H33.0674V36.3368Z" fill="url(#paint10_linear_847_3626)"/>
<path d="M29.9873 39.3555H28.4478V40.8711H29.9873V39.3555Z" fill="url(#paint11_linear_847_3626)"/>
<path d="M33.0674 39.3555H31.5278V40.8711H33.0674V39.3555Z" fill="url(#paint12_linear_847_3626)"/>
<path d="M14.605 31.0382H13.0654V40.8835H14.605V31.0382Z" fill="url(#paint13_linear_847_3626)"/>
<path d="M17.6855 31.0382H16.146V40.8835H17.6855V31.0382Z" fill="url(#paint14_linear_847_3626)"/>
<path d="M29.2246 9.08093H27.6851V10.5966H29.2246V9.08093Z" fill="url(#paint15_linear_847_3626)"/>
<path d="M33.8285 10.5969H32.2889V12.1126H33.8285V10.5969Z" fill="url(#paint16_linear_847_3626)"/>
<path d="M32.2892 14.3795H30.7496V15.8952H32.2892V14.3795Z" fill="url(#paint17_linear_847_3626)"/>
<defs>
<linearGradient id="paint0_linear_847_3626" x1="17.6692" y1="14.5847" x2="30.1" y2="16.3358" gradientUnits="userSpaceOnUse">
<stop offset="0.158241" stop-color="#002D31"/>
<stop offset="0.32869" stop-color="#005961"/>
<stop offset="0.509791" stop-color="#00818C"/>
<stop offset="0.786145" stop-color="#005961"/>
<stop offset="0.988044" stop-color="#002D31"/>
</linearGradient>
<linearGradient id="paint1_linear_847_3626" x1="10.026" y1="0.287243" x2="22.5336" y2="1.54182" gradientUnits="userSpaceOnUse">
<stop offset="0.158241" stop-color="#002D31"/>
<stop offset="0.32869" stop-color="#005961"/>
<stop offset="0.509791" stop-color="#00818C"/>
<stop offset="0.786145" stop-color="#005961"/>
<stop offset="0.988044" stop-color="#002D31"/>
</linearGradient>
<linearGradient id="paint2_linear_847_3626" x1="24.6334" y1="0.287481" x2="37.9672" y2="1.71406" gradientUnits="userSpaceOnUse">
<stop offset="0.158241" stop-color="#002D31"/>
<stop offset="0.32869" stop-color="#005961"/>
<stop offset="0.509791" stop-color="#00818C"/>
<stop offset="0.786145" stop-color="#005961"/>
<stop offset="0.988044" stop-color="#002D31"/>
</linearGradient>
<linearGradient id="paint3_linear_847_3626" x1="1.09958e-07" y1="14.9268" x2="48.5187" y2="25.1688" gradientUnits="userSpaceOnUse">
<stop offset="0.158241" stop-color="#002D31"/>
<stop offset="0.32869" stop-color="#005961"/>
<stop offset="0.509791" stop-color="#00818C"/>
<stop offset="0.786145" stop-color="#005961"/>
<stop offset="0.988044" stop-color="#002D31"/>
</linearGradient>
<linearGradient id="paint4_linear_847_3626" x1="28.4478" y1="33.3327" x2="30.1062" y2="33.5661" gradientUnits="userSpaceOnUse">
<stop offset="0.158241" stop-color="#002D31"/>
<stop offset="0.32869" stop-color="#005961"/>
<stop offset="0.509791" stop-color="#00818C"/>
<stop offset="0.786145" stop-color="#005961"/>
<stop offset="0.988044" stop-color="#002D31"/>
</linearGradient>
<linearGradient id="paint5_linear_847_3626" x1="13.8436" y1="9.10833" x2="15.5021" y2="9.3417" gradientUnits="userSpaceOnUse">
<stop offset="0.158241" stop-color="#002D31"/>
<stop offset="0.32869" stop-color="#005961"/>
<stop offset="0.509791" stop-color="#00818C"/>
<stop offset="0.786145" stop-color="#005961"/>
<stop offset="0.988044" stop-color="#002D31"/>
</linearGradient>
<linearGradient id="paint6_linear_847_3626" x1="13.0654" y1="14.4069" x2="14.7239" y2="14.6403" gradientUnits="userSpaceOnUse">
<stop offset="0.158241" stop-color="#002D31"/>
<stop offset="0.32869" stop-color="#005961"/>
<stop offset="0.509791" stop-color="#00818C"/>
<stop offset="0.786145" stop-color="#005961"/>
<stop offset="0.988044" stop-color="#002D31"/>
</linearGradient>
<linearGradient id="paint7_linear_847_3626" x1="16.9082" y1="12.1397" x2="18.5667" y2="12.3731" gradientUnits="userSpaceOnUse">
<stop offset="0.158241" stop-color="#002D31"/>
<stop offset="0.32869" stop-color="#005961"/>
<stop offset="0.509791" stop-color="#00818C"/>
<stop offset="0.786145" stop-color="#005961"/>
<stop offset="0.988044" stop-color="#002D31"/>
</linearGradient>
<linearGradient id="paint8_linear_847_3626" x1="31.5278" y1="33.3327" x2="33.1863" y2="33.5661" gradientUnits="userSpaceOnUse">
<stop offset="0.158241" stop-color="#002D31"/>
<stop offset="0.32869" stop-color="#005961"/>
<stop offset="0.509791" stop-color="#00818C"/>
<stop offset="0.786145" stop-color="#005961"/>
<stop offset="0.988044" stop-color="#002D31"/>
</linearGradient>
<linearGradient id="paint9_linear_847_3626" x1="28.4478" y1="36.3642" x2="30.1062" y2="36.5976" gradientUnits="userSpaceOnUse">
<stop offset="0.158241" stop-color="#002D31"/>
<stop offset="0.32869" stop-color="#005961"/>
<stop offset="0.509791" stop-color="#00818C"/>
<stop offset="0.786145" stop-color="#005961"/>
<stop offset="0.988044" stop-color="#002D31"/>
</linearGradient>
<linearGradient id="paint10_linear_847_3626" x1="31.5278" y1="36.3642" x2="33.1863" y2="36.5976" gradientUnits="userSpaceOnUse">
<stop offset="0.158241" stop-color="#002D31"/>
<stop offset="0.32869" stop-color="#005961"/>
<stop offset="0.509791" stop-color="#00818C"/>
<stop offset="0.786145" stop-color="#005961"/>
<stop offset="0.988044" stop-color="#002D31"/>
</linearGradient>
<linearGradient id="paint11_linear_847_3626" x1="28.4478" y1="39.3829" x2="30.1062" y2="39.6162" gradientUnits="userSpaceOnUse">
<stop offset="0.158241" stop-color="#002D31"/>
<stop offset="0.32869" stop-color="#005961"/>
<stop offset="0.509791" stop-color="#00818C"/>
<stop offset="0.786145" stop-color="#005961"/>
<stop offset="0.988044" stop-color="#002D31"/>
</linearGradient>
<linearGradient id="paint12_linear_847_3626" x1="31.5278" y1="39.3829" x2="33.1863" y2="39.6162" gradientUnits="userSpaceOnUse">
<stop offset="0.158241" stop-color="#002D31"/>
<stop offset="0.32869" stop-color="#005961"/>
<stop offset="0.509791" stop-color="#00818C"/>
<stop offset="0.786145" stop-color="#005961"/>
<stop offset="0.988044" stop-color="#002D31"/>
</linearGradient>
<linearGradient id="paint13_linear_847_3626" x1="13.0654" y1="31.2162" x2="14.756" y2="31.2528" gradientUnits="userSpaceOnUse">
<stop offset="0.158241" stop-color="#002D31"/>
<stop offset="0.32869" stop-color="#005961"/>
<stop offset="0.509791" stop-color="#00818C"/>
<stop offset="0.786145" stop-color="#005961"/>
<stop offset="0.988044" stop-color="#002D31"/>
</linearGradient>
<linearGradient id="paint14_linear_847_3626" x1="16.146" y1="31.2162" x2="17.8365" y2="31.2528" gradientUnits="userSpaceOnUse">
<stop offset="0.158241" stop-color="#002D31"/>
<stop offset="0.32869" stop-color="#005961"/>
<stop offset="0.509791" stop-color="#00818C"/>
<stop offset="0.786145" stop-color="#005961"/>
<stop offset="0.988044" stop-color="#002D31"/>
</linearGradient>
<linearGradient id="paint15_linear_847_3626" x1="27.6851" y1="9.10833" x2="29.3435" y2="9.3417" gradientUnits="userSpaceOnUse">
<stop offset="0.158241" stop-color="#002D31"/>
<stop offset="0.32869" stop-color="#005961"/>
<stop offset="0.509791" stop-color="#00818C"/>
<stop offset="0.786145" stop-color="#005961"/>
<stop offset="0.988044" stop-color="#002D31"/>
</linearGradient>
<linearGradient id="paint16_linear_847_3626" x1="32.2889" y1="10.6243" x2="33.9474" y2="10.8577" gradientUnits="userSpaceOnUse">
<stop offset="0.158241" stop-color="#002D31"/>
<stop offset="0.32869" stop-color="#005961"/>
<stop offset="0.509791" stop-color="#00818C"/>
<stop offset="0.786145" stop-color="#005961"/>
<stop offset="0.988044" stop-color="#002D31"/>
</linearGradient>
<linearGradient id="paint17_linear_847_3626" x1="30.7496" y1="14.4069" x2="32.4081" y2="14.6403" gradientUnits="userSpaceOnUse">
<stop offset="0.158241" stop-color="#002D31"/>
<stop offset="0.32869" stop-color="#005961"/>
<stop offset="0.509791" stop-color="#00818C"/>
<stop offset="0.786145" stop-color="#005961"/>
<stop offset="0.988044" stop-color="#002D31"/>
</linearGradient>
</defs>
</svg>
