<svg width="32" height="32" viewBox="0 0 32 32" fill="none" xmlns="http://www.w3.org/2000/svg">
<path d="M11.525 10.875C11.575 11.1 11.775 11.25 12 11.25H20C20.225 11.25 20.425 11.1 20.475 10.875C20.525 10.65 20.425 10.425 20.2 10.325L16.2 8.325C16.05 8.25 15.9 8.25 15.75 8.325L11.75 10.325C11.575 10.4 11.45 10.65 11.525 10.875ZM16 9.3L17.875 10.25H14.125L16 9.3ZM3.97498 13.35C4.24998 13.35 4.47498 13.125 4.47498 12.85V10.85C4.47498 10.575 4.24998 10.35 3.97498 10.35C3.69998 10.35 3.47498 10.575 3.47498 10.85V12.85C3.47498 13.125 3.69998 13.35 3.97498 13.35ZM5.97498 13.35C6.24998 13.35 6.47498 13.125 6.47498 12.85V10.85C6.47498 10.575 6.24998 10.35 5.97498 10.35C5.69998 10.35 5.47498 10.575 5.47498 10.85V12.85C5.47498 13.125 5.69998 13.35 5.97498 13.35ZM7.97498 13.35C8.24998 13.35 8.47498 13.125 8.47498 12.85V10.85C8.47498 10.575 8.24998 10.35 7.97498 10.35C7.69998 10.35 7.47498 10.575 7.47498 10.85V12.85C7.47498 13.125 7.69998 13.35 7.97498 13.35ZM9.97498 13.35C10.25 13.35 10.475 13.125 10.475 12.85V10.85C10.475 10.575 10.25 10.35 9.97498 10.35C9.69998 10.35 9.47498 10.575 9.47498 10.85V12.85C9.47498 13.125 9.69998 13.35 9.97498 13.35ZM3.47498 16.85C3.47498 17.125 3.69998 17.35 3.97498 17.35C4.24998 17.35 4.47498 17.125 4.47498 16.85V14.85C4.47498 14.575 4.24998 14.35 3.97498 14.35C3.69998 14.35 3.47498 14.575 3.47498 14.85V16.85ZM5.47498 16.775C5.62498 16.7 5.79998 16.625 5.97498 16.6C6.12498 16.425 6.29998 16.3 6.47498 16.2V14.85C6.47498 14.575 6.24998 14.35 5.97498 14.35C5.69998 14.35 5.47498 14.575 5.47498 14.85V16.775ZM7.47498 16C7.84998 16.05 8.19998 16.2 8.47498 16.475V14.85C8.47498 14.575 8.24998 14.35 7.97498 14.35C7.69998 14.35 7.47498 14.575 7.47498 14.85V16ZM9.47498 16.85V16.9C9.67498 17 9.87498 17.15 9.99998 17.35C10.25 17.325 10.475 17.125 10.475 16.85V14.85C10.475 14.575 10.25 14.35 9.97498 14.35C9.69998 14.35 9.47498 14.575 9.47498 14.85V16.85ZM28.025 13.35C28.3 13.35 28.525 13.125 28.525 12.85V10.85C28.525 10.575 28.3 10.35 28.025 10.35C27.75 10.35 27.525 10.575 27.525 10.85V12.85C27.525 13.125 27.75 13.35 28.025 13.35ZM26.025 13.35C26.3 13.35 26.525 13.125 26.525 12.85V10.85C26.525 10.575 26.3 10.35 26.025 10.35C25.75 10.35 25.525 10.575 25.525 10.85V12.85C25.525 13.125 25.75 13.35 26.025 13.35ZM24.025 13.35C24.3 13.35 24.525 13.125 24.525 12.85V10.85C24.525 10.575 24.3 10.35 24.025 10.35C23.75 10.35 23.525 10.575 23.525 10.85V12.85C23.525 13.125 23.75 13.35 24.025 13.35ZM22.025 13.35C22.3 13.35 22.525 13.125 22.525 12.85V10.85C22.525 10.575 22.3 10.35 22.025 10.35C21.75 10.35 21.525 10.575 21.525 10.85V12.85C21.525 13.125 21.75 13.35 22.025 13.35ZM27.525 16.85C27.525 17.125 27.75 17.35 28.025 17.35C28.3 17.35 28.525 17.125 28.525 16.85V14.85C28.525 14.575 28.3 14.35 28.025 14.35C27.75 14.35 27.525 14.575 27.525 14.85V16.85ZM23.525 16.475C23.8 16.225 24.15 16.05 24.525 16V14.85C24.525 14.575 24.3 14.35 24.025 14.35C23.75 14.35 23.525 14.575 23.525 14.85V16.475ZM25.525 16.2C25.725 16.3 25.9 16.45 26.025 16.6C26.2 16.625 26.375 16.7 26.525 16.775V14.85C26.525 14.575 26.3 14.35 26.025 14.35C25.75 14.35 25.525 14.575 25.525 14.85V16.2ZM21.525 16.85C21.525 17.125 21.725 17.325 22 17.35C22.125 17.15 22.325 17 22.525 16.9V14.85C22.525 14.575 22.3 14.35 22.025 14.35C21.75 14.35 21.525 14.575 21.525 14.85V16.85ZM10.875 6.4C10.825 6.45 10.75 6.45 10.65 6.45C10.575 6.45 10.525 6.45 10.5 6.425L10.425 6.35C10.4 6.325 10.375 6.275 10.35 6.225C10.325 6.15 10.3 6.1 10.25 6.075C10.15 5.975 9.94998 5.975 9.84998 6.1C9.79998 6.15 9.77497 6.225 9.77497 6.3C9.77497 6.4 9.79998 6.5 9.87498 6.625C9.94998 6.725 10.025 6.8 10.125 6.875C10.275 6.95 10.45 7 10.65 7C10.825 7 10.975 6.975 11.125 6.9C11.25 6.85 11.375 6.75 11.45 6.625C11.525 6.525 11.55 6.375 11.55 6.25C11.55 6.125 11.525 6.025 11.475 5.95C11.425 5.875 11.375 5.8 11.3 5.75C11.225 5.7 11.15 5.65 11.05 5.625C10.95 5.6 10.85 5.575 10.75 5.525C10.675 5.5 10.6 5.475 10.575 5.475C10.55 5.475 10.525 5.45 10.475 5.425C10.45 5.4 10.425 5.4 10.425 5.375V5.35C10.425 5.35 10.425 5.325 10.475 5.275C10.525 5.25 10.575 5.225 10.65 5.225C10.75 5.225 10.8 5.25 10.825 5.25C10.85 5.275 10.9 5.325 10.925 5.4C10.95 5.475 11 5.5 11.025 5.55C11.125 5.65 11.3 5.65 11.425 5.525C11.475 5.475 11.5 5.4 11.5 5.325C11.5 5.25 11.475 5.175 11.45 5.125C11.425 5.05 11.375 5 11.3 4.925C11.225 4.875 11.15 4.825 11.05 4.775C10.95 4.75 10.825 4.725 10.7 4.725C10.525 4.725 10.4 4.75 10.275 4.8C10.15 4.85 10.05 4.925 9.97498 5.025C9.89998 5.125 9.87498 5.25 9.87498 5.375C9.87498 5.5 9.89998 5.625 9.97498 5.725C10.05 5.825 10.125 5.9 10.25 5.95C10.35 6 10.475 6.05 10.625 6.075C10.725 6.1 10.8 6.125 10.875 6.15C10.925 6.175 10.95 6.175 10.975 6.225C10.975 6.225 11 6.25 11 6.3C10.925 6.3 10.925 6.35 10.875 6.4ZM12.75 5.25C12.825 5.25 12.9 5.275 12.95 5.3C13 5.325 13.05 5.4 13.1 5.475C13.125 5.55 13.175 5.6 13.2 5.625C13.3 5.7 13.475 5.725 13.6 5.6C13.65 5.55 13.675 5.475 13.675 5.4C13.675 5.3 13.625 5.175 13.55 5.075C13.475 4.975 13.375 4.875 13.225 4.8C12.975 4.675 12.625 4.65 12.35 4.775C12.225 4.825 12.1 4.9 12 5C11.9 5.1 11.825 5.225 11.775 5.35C11.725 5.475 11.7 5.65 11.7 5.8C11.7 5.9 11.7 6 11.725 6.1C11.75 6.2 11.775 6.275 11.825 6.375L11.975 6.6C12.05 6.675 12.125 6.75 12.2 6.775C12.275 6.825 12.375 6.85 12.45 6.875C12.55 6.9 12.65 6.9 12.75 6.9C12.9 6.9 13.025 6.875 13.15 6.825C13.3592 6.73999 13.5288 6.57934 13.625 6.375C13.65 6.3 13.675 6.2 13.675 6.125C13.675 6.05 13.65 5.975 13.6 5.925C13.55 5.875 13.475 5.85 13.4 5.85C13.275 5.85 13.225 5.9 13.2 5.95L13.125 6.1C13.1 6.2 13.05 6.25 13 6.3C12.875 6.375 12.7 6.375 12.575 6.3C12.525 6.275 12.475 6.2 12.45 6.125C12.425 6.05 12.4 5.925 12.4 5.8C12.4 5.6 12.45 5.45 12.525 5.35C12.525 5.3 12.6 5.25 12.75 5.25ZM14.425 4.825C14.3 4.7 14.075 4.7 13.975 4.825C13.925 4.875 13.9 4.975 13.9 5.075V6.6C13.9 6.7 13.925 6.8 13.975 6.85C14.1 6.975 14.3 6.975 14.425 6.85C14.475 6.8 14.5 6.7 14.5 6.6V6.05H15.125V6.6C15.125 6.7 15.15 6.8 15.2 6.85C15.25 6.925 15.325 6.95 15.425 6.95C15.525 6.95 15.6 6.925 15.65 6.85C15.7 6.8 15.725 6.7 15.725 6.6V5.075C15.725 4.975 15.7 4.875 15.65 4.825C15.525 4.7 15.3 4.7 15.2 4.825C15.15 4.875 15.125 4.975 15.125 5.075V5.525H14.5V5.075C14.525 4.975 14.5 4.875 14.425 4.825ZM16.05 5.4C16 5.525 15.975 5.7 15.975 5.85C15.975 6 16 6.15 16.05 6.3C16.1 6.45 16.175 6.575 16.25 6.675C16.35 6.775 16.45 6.85 16.6 6.925C16.725 6.975 16.875 7 17.05 7C17.225 7 17.375 6.975 17.5 6.925C17.625 6.875 17.75 6.8 17.85 6.7C17.95 6.6 18 6.475 18.05 6.35C18.1 6.225 18.125 6.075 18.125 5.9C18.125 5.675 18.075 5.475 18 5.325C17.925 5.15 17.8 5.025 17.625 4.925C17.475 4.825 17.275 4.775 17.05 4.775C16.875 4.775 16.75 4.8 16.6 4.85C16.475 4.9 16.35 4.975 16.25 5.075C16.175 5.125 16.1 5.25 16.05 5.4ZM16.65 5.575C16.675 5.5 16.7 5.45 16.75 5.4C16.775 5.35 16.825 5.325 16.875 5.3C16.925 5.275 16.975 5.275 17.05 5.275C17.15 5.275 17.225 5.3 17.275 5.35C17.35 5.4 17.4 5.45 17.425 5.525C17.475 5.625 17.475 5.725 17.475 5.85C17.475 5.975 17.45 6.1 17.4 6.2C17.35 6.275 17.3 6.35 17.25 6.375C17.125 6.45 16.975 6.45 16.85 6.4C16.8 6.375 16.75 6.35 16.725 6.3C16.675 6.25 16.65 6.2 16.625 6.125C16.6 6.05 16.6 5.95 16.6 5.85C16.625 5.75 16.625 5.65 16.65 5.575ZM18.875 6.875C19 6.925 19.15 6.95 19.325 6.95C19.5 6.95 19.65 6.925 19.775 6.875C19.9 6.825 20.025 6.75 20.125 6.65C20.225 6.55 20.275 6.425 20.325 6.3C20.375 6.175 20.4 6.025 20.4 5.85C20.4 5.625 20.35 5.425 20.275 5.275C20.2 5.1 20.075 4.975 19.9 4.875C19.75 4.775 19.55 4.725 19.325 4.725C19.15 4.725 19.025 4.75 18.875 4.8C18.75 4.85 18.625 4.925 18.525 5.025C18.425 5.125 18.35 5.25 18.325 5.375C18.275 5.5 18.25 5.675 18.25 5.825C18.25 5.975 18.275 6.125 18.325 6.275C18.375 6.425 18.45 6.55 18.525 6.65C18.625 6.75 18.725 6.825 18.875 6.875ZM18.925 5.575C18.95 5.5 18.975 5.45 19.025 5.4C19.075 5.35 19.1 5.325 19.15 5.3C19.2 5.275 19.25 5.275 19.325 5.275C19.425 5.275 19.5 5.3 19.55 5.35C19.625 5.4 19.675 5.45 19.7 5.525C19.75 5.625 19.75 5.725 19.75 5.85C19.75 5.975 19.725 6.1 19.675 6.2C19.625 6.275 19.575 6.35 19.525 6.375C19.4 6.45 19.25 6.45 19.125 6.4C19.075 6.375 19.025 6.35 19 6.3C18.95 6.25 18.925 6.2 18.9 6.125C18.875 6.05 18.875 5.95 18.875 5.85C18.875 5.75 18.9 5.65 18.925 5.575ZM21.15 4.825C21.025 4.7 20.8 4.7 20.7 4.825C20.65 4.875 20.625 4.975 20.625 5.075V6.575C20.625 6.7 20.65 6.775 20.725 6.85C20.775 6.9 20.875 6.95 21 6.95H21.95C22.05 6.95 22.125 6.925 22.175 6.875C22.225 6.825 22.275 6.75 22.275 6.675C22.275 6.6 22.25 6.525 22.175 6.475C22.125 6.425 22.05 6.4 21.95 6.4H21.25V5.1C21.225 4.975 21.2 4.875 21.15 4.825ZM15.75 1.75L15.45 2.4L14.75 2.525L15.25 3.025L15.125 3.75L15.75 3.4L16.375 3.75L16.25 3.025L16.75 2.525L16.05 2.4L15.75 1.75ZM7.49998 26.75C7.22498 26.75 6.99998 26.975 6.99998 27.25C6.99998 27.525 7.22498 27.75 7.49998 27.75H24.5C24.775 27.75 25 27.525 25 27.25C25 26.975 24.775 26.75 24.5 26.75H7.49998Z" fill="url(#paint0_linear_1611_12551)"/>
<path d="M30.2 26.25C30.25 26.2 30.275 26.125 30.275 26.05C30.275 26.025 30.3 26 30.325 26H30.4C30.475 26.05 30.575 26.075 30.675 26.075C30.925 26.075 31.15 25.925 31.2 25.7C31.2 25.675 31.25 25.65 31.275 25.65H31.3C31.7 25.65 32 25.35 32 24.975C32 24.6 31.675 24.3 31.3 24.3H31.275C31.25 24.3 31.225 24.275 31.2 24.25C31.175 24.225 31.2 24.2 31.2 24.175C31.275 24.075 31.325 23.975 31.325 23.85C31.325 23.575 31.075 23.325 30.775 23.325C30.675 23.325 30.6 23.35 30.525 23.375H30.475C30.45 23.375 30.45 23.35 30.425 23.325C30.4 23 30.075 22.725 29.725 22.725C29.375 22.725 29.075 22.975 29.025 23.325C29.025 23.35 29 23.375 28.975 23.375H28.9C28.85 23.35 28.8 23.35 28.75 23.35C28.65 23.35 28.55 23.4 28.475 23.475C28.45 23.5 28.425 23.5 28.4 23.5H28.375C28.325 23.475 28.25 23.45 28.175 23.45C27.925 23.45 27.7 23.65 27.7 23.9C27.7 24.05 27.8 24.2 27.925 24.275C27.95 24.3 27.975 24.325 27.975 24.35C27.975 24.375 27.95 24.4 27.925 24.425C27.65 24.525 27.475 24.775 27.475 25.05C27.475 25.425 27.8 25.725 28.175 25.725C28.225 25.725 28.275 25.725 28.325 25.7H28.35C28.375 25.7 28.375 25.7 28.4 25.725C28.425 25.725 28.425 25.75 28.425 25.775C28.45 25.925 28.6 26.025 28.75 26.025C28.85 26.025 28.925 25.975 29 25.925C29.025 25.9 29.025 25.9 29.05 25.9H29.075C29.1 25.9 29.125 25.95 29.125 25.975V28.2L25.125 23.75V20.5H25.15C25.2 20.45 25.225 20.375 25.225 20.3C25.225 20.275 25.25 20.25 25.275 20.25H25.35C25.425 20.3 25.525 20.325 25.625 20.325C25.875 20.325 26.1 20.175 26.15 19.95C26.15 19.925 26.2 19.9 26.225 19.9H26.25C26.65 19.9 26.95 19.6 26.95 19.225C26.95 18.85 26.625 18.55 26.25 18.55H26.225C26.2 18.55 26.175 18.525 26.15 18.5C26.125 18.475 26.15 18.45 26.15 18.425C26.225 18.325 26.275 18.225 26.275 18.1C26.275 17.825 26.025 17.575 25.725 17.575C25.625 17.575 25.55 17.6 25.475 17.625H25.425C25.4 17.625 25.4 17.6 25.375 17.575C25.35 17.25 25.025 16.975 24.675 16.975C24.325 16.975 24.025 17.225 23.975 17.575C23.975 17.6 23.95 17.625 23.925 17.625H23.85C23.8 17.6 23.75 17.6 23.7 17.6C23.6 17.6 23.5 17.65 23.425 17.725C23.4 17.75 23.375 17.75 23.35 17.75H23.2C22.95 17.75 22.725 17.95 22.725 18.2C22.725 18.35 22.825 18.5 22.95 18.575C22.975 18.6 23 18.625 23 18.65C23 18.675 22.975 18.7 22.95 18.725C22.675 18.825 22.5 19.075 22.5 19.35C22.5 19.725 22.825 20.025 23.2 20.025C23.25 20.025 23.3 20.025 23.35 20H23.375C23.4 20 23.4 20 23.425 20.025C23.45 20.025 23.45 20.05 23.45 20.075C23.475 20.225 23.625 20.325 23.775 20.325C23.875 20.325 23.95 20.275 24.025 20.225C24.05 20.2 24.05 20.2 24.075 20.2H24.1C24.125 20.2 24.15 20.25 24.15 20.275V22.675L21.55 19.725C21.525 19.6 21.5 19.475 21.5 19.325C21.5 19.125 21.525 18.925 21.6 18.725H19V13.225C19 12.675 18.55 12.25 18 12.25H14C13.45 12.25 13 12.7 13 13.225V18.75H10.4C10.475 18.925 10.5 19.125 10.5 19.35C10.5 19.475 10.475 19.625 10.45 19.75L7.825 22.625V20.225C7.825 20.2 7.85 20.175 7.875 20.15H7.9C7.925 20.15 7.95 20.15 7.95 20.175C8 20.25 8.1 20.275 8.2 20.275C8.35 20.275 8.5 20.175 8.525 20.025C8.525 20 8.55 19.975 8.55 19.975C8.575 19.975 8.575 19.95 8.6 19.95H8.625C8.675 19.95 8.725 19.975 8.775 19.975C9.15 19.975 9.475 19.675 9.475 19.3C9.475 19.025 9.3 18.775 9.025 18.675C9 18.675 8.975 18.65 8.975 18.6C8.975 18.575 8.975 18.55 9.025 18.525C9.175 18.45 9.25 18.3 9.25 18.15C9.25 17.9 9.05 17.7 8.775 17.7C8.7 17.7 8.625 17.725 8.575 17.75H8.55C8.525 17.75 8.5 17.75 8.475 17.725C8.425 17.65 8.3 17.6 8.2 17.6C8.15 17.6 8.1 17.6 8.05 17.625H7.975C7.95 17.625 7.95 17.6 7.925 17.575C7.95 17.25 7.65 17 7.275 17C6.9 17 6.625 17.25 6.575 17.6C6.575 17.625 6.55 17.65 6.525 17.65H6.475C6.4 17.6 6.325 17.6 6.225 17.6C5.925 17.6 5.675 17.825 5.675 18.125C5.675 18.25 5.725 18.35 5.8 18.45C5.825 18.475 5.825 18.5 5.8 18.525C5.775 18.55 5.75 18.575 5.725 18.575H5.7C5.325 18.575 5 18.875 5 19.25C5 19.625 5.325 19.925 5.7 19.925H5.725C5.75 19.925 5.8 19.95 5.8 19.975C5.85 20.2 6.075 20.35 6.325 20.35C6.425 20.35 6.525 20.325 6.6 20.275H6.675C6.7 20.275 6.725 20.3 6.725 20.325C6.725 20.4 6.775 20.475 6.8 20.525H6.825V23.775L2.825 28.225V26C2.825 25.975 2.85 25.95 2.875 25.925H2.9C2.925 25.925 2.95 25.925 2.95 25.95C3 26.025 3.1 26.05 3.2 26.05C3.35 26.05 3.5 25.95 3.525 25.8C3.525 25.775 3.55 25.75 3.55 25.75C3.575 25.75 3.575 25.725 3.6 25.725H3.625C3.675 25.725 3.725 25.75 3.775 25.75C4.15 25.75 4.475 25.45 4.475 25.075C4.475 24.8 4.3 24.55 4.025 24.45C4 24.45 3.975 24.425 3.975 24.375C3.975 24.35 3.975 24.325 4.025 24.3C4.175 24.225 4.25 24.075 4.25 23.925C4.25 23.675 4.05 23.475 3.775 23.475C3.7 23.475 3.625 23.5 3.575 23.525H3.55C3.525 23.525 3.5 23.525 3.475 23.5C3.425 23.425 3.3 23.375 3.2 23.375C3.15 23.375 3.1 23.375 3.05 23.4H2.975C2.95 23.4 2.95 23.375 2.925 23.35C2.95 23 2.65 22.75 2.275 22.75C1.9 22.75 1.625 23 1.575 23.35C1.575 23.375 1.55 23.4 1.525 23.4H1.475C1.4 23.35 1.325 23.35 1.225 23.35C0.925 23.35 0.675 23.575 0.675 23.875C0.675 24 0.725 24.1 0.8 24.2C0.825 24.225 0.825 24.25 0.8 24.275C0.775 24.3 0.75 24.325 0.725 24.325H0.7C0.325 24.325 0 24.625 0 25C0 25.375 0.325 25.675 0.7 25.675H0.725C0.75 25.675 0.8 25.7 0.8 25.725C0.85 25.95 1.075 26.1 1.325 26.1C1.425 26.1 1.525 26.075 1.6 26.025H1.675C1.7 26.025 1.725 26.05 1.725 26.075C1.725 26.15 1.775 26.225 1.8 26.275H1.825V29.35L0.15 31.2C-0.025 31.4 -0.025 31.725 0.2 31.9C0.3 31.975 0.425 32.025 0.525 32.025C0.65 32.025 0.8 31.975 0.9 31.85L11.75 19.775C11.75 19.775 11.75 19.75 11.775 19.75H20.25C20.25 19.75 20.25 19.775 20.275 19.775L31.1 31.85C31.2 31.95 31.325 32.025 31.475 32.025C31.6 32.025 31.725 31.975 31.8 31.9C32 31.725 32.025 31.4 31.85 31.2L30.175 29.35V26.25H30.2ZM2.525 24.975C2.4 25.025 2.3 25.075 2.225 25.15C2.175 25.125 2.15 25.1 2.1 25.075C1.95 25 1.8 24.975 1.625 24.975H1.525L1.5 24.95C1.55 24.9 1.6 24.825 1.65 24.75C1.725 24.625 1.775 24.5 1.8 24.35C1.85 24.325 1.925 24.3 1.975 24.275H2L2.025 24.25C2.125 24.2 2.2 24.125 2.275 24.05C2.375 24.15 2.475 24.225 2.575 24.275C2.7 24.325 2.85 24.375 2.975 24.375V24.475C3 24.6 3.025 24.7 3.075 24.8C3.075 24.8 3.05 24.8 3.05 24.825L3 24.85V24.9H2.9C2.8 24.9 2.675 24.925 2.525 24.975ZM7.525 19.225C7.4 19.275 7.3 19.325 7.225 19.4C7.175 19.375 7.15 19.35 7.1 19.325C6.95 19.25 6.8 19.225 6.625 19.225H6.525L6.5 19.2C6.55 19.15 6.6 19.075 6.65 19C6.725 18.875 6.775 18.75 6.8 18.6C6.85 18.575 6.925 18.55 6.975 18.525L7 18.5L7.025 18.475C7.125 18.425 7.2 18.35 7.275 18.275C7.375 18.375 7.475 18.45 7.575 18.5C7.7 18.55 7.85 18.6 7.975 18.6V18.7C8 18.825 8.025 18.925 8.075 19.025C8.075 19.025 8.05 19.025 8.05 19.05L8 19.075V19.15H7.9C7.8 19.15 7.675 19.175 7.525 19.225ZM18 18.75H14V13.25H18V18.75ZM24.775 19.4C24.7 19.325 24.6 19.275 24.475 19.225H24.425C24.3 19.175 24.2 19.175 24.075 19.175H23.975L23.95 19.15L23.9 19.125C23.9 19.125 23.875 19.125 23.875 19.1C23.925 19 23.95 18.875 23.975 18.775V18.675C24.125 18.675 24.25 18.625 24.375 18.575C24.5 18.525 24.6 18.45 24.675 18.35C24.75 18.425 24.825 18.475 24.925 18.55L24.95 18.575L24.975 18.6C25.025 18.625 25.1 18.65 25.15 18.675C25.175 18.825 25.225 18.95 25.3 19.075C25.35 19.15 25.4 19.2 25.45 19.275L25.425 19.3H25.325C25.175 19.3 25 19.325 24.875 19.4C24.85 19.35 24.825 19.375 24.775 19.4ZM29.9 25.075C29.85 25.1 29.825 25.125 29.775 25.15C29.7 25.075 29.6 25.025 29.475 24.975H29.425C29.3 24.925 29.2 24.925 29.075 24.925H28.975L28.95 24.9L28.9 24.875C28.9 24.875 28.875 24.875 28.875 24.85C28.925 24.75 28.95 24.625 28.975 24.525V24.425C29.125 24.425 29.25 24.375 29.375 24.325C29.5 24.275 29.6 24.2 29.675 24.1C29.75 24.175 29.825 24.225 29.925 24.3L29.95 24.325L29.975 24.35C30.025 24.375 30.1 24.4 30.15 24.425C30.175 24.575 30.225 24.7 30.3 24.825C30.35 24.9 30.4 24.95 30.45 25.025L30.425 25.05H30.325C30.2 24.975 30.05 25.025 29.9 25.075Z" fill="url(#paint1_linear_1611_12551)"/>
<path d="M20.75 23.7502C21.025 23.7502 21.25 23.5252 21.25 23.2502C21.25 22.9752 21.025 22.7502 20.75 22.7502H11.25C10.975 22.7502 10.75 22.9752 10.75 23.2502C10.75 23.5252 10.975 23.7502 11.25 23.7502H20.75ZM0 17.7502C0 18.8502 0.9 19.7502 2 19.7502H4.1C4.05 19.5752 4 19.4002 4 19.2002C4 19.0502 4.025 18.9002 4.075 18.7502H2C1.45 18.7502 1 18.3002 1 17.7502V8.75021H10C10.275 8.75021 10.5 8.5252 10.5 8.25021C10.5 7.9752 10.275 7.75021 10 7.75021H1V6.75021C1 6.20021 1.45 5.75021 2 5.75021H8.75V3.60021L15.875 1.02521L23.25 3.60021V5.75021H30C30.55 5.75021 31 6.20021 31 6.75021V7.75021H22C21.725 7.75021 21.5 7.9752 21.5 8.25021C21.5 8.5252 21.725 8.75021 22 8.75021H31V17.7502C31 18.3002 30.55 18.7502 30 18.7502H27.925C27.975 18.9002 28 19.0502 28 19.2002C28 19.4002 27.975 19.5752 27.9 19.7502H30C31.1 19.7502 32 18.8502 32 17.7502V6.75021C32 5.65021 31.1 4.75021 30 4.75021H24.25V3.25021C24.25 3.02521 24.125 2.85021 23.925 2.77521L16.05 0.0252054C15.95 -0.0247946 15.825 0.000205405 15.725 0.0252054L8.1 2.77521C7.9 2.85021 7.775 3.02521 7.775 3.25021V4.75021H2C0.9 4.75021 0 5.65021 0 6.75021V17.7502Z" fill="url(#paint2_linear_1611_12551)"/>
<defs>
<linearGradient id="paint0_linear_1611_12551" x1="3.47498" y1="2.22005" x2="30.513" y2="5.8287" gradientUnits="userSpaceOnUse">
<stop offset="0.158241" stop-color="#002D31"/>
<stop offset="0.32869" stop-color="#005961"/>
<stop offset="0.509791" stop-color="#00818C"/>
<stop offset="0.786145" stop-color="#005961"/>
<stop offset="0.988044" stop-color="#002D31"/>
</linearGradient>
<linearGradient id="paint1_linear_1611_12551" x1="7.62731e-08" y1="12.6075" x2="33.4729" y2="20.111" gradientUnits="userSpaceOnUse">
<stop offset="0.158241" stop-color="#002D31"/>
<stop offset="0.32869" stop-color="#005961"/>
<stop offset="0.509791" stop-color="#00818C"/>
<stop offset="0.786145" stop-color="#005961"/>
<stop offset="0.988044" stop-color="#002D31"/>
</linearGradient>
<linearGradient id="paint2_linear_1611_12551" x1="7.62731e-08" y1="0.425779" x2="33.9718" y2="6.76549" gradientUnits="userSpaceOnUse">
<stop offset="0.158241" stop-color="#002D31"/>
<stop offset="0.32869" stop-color="#005961"/>
<stop offset="0.509791" stop-color="#00818C"/>
<stop offset="0.786145" stop-color="#005961"/>
<stop offset="0.988044" stop-color="#002D31"/>
</linearGradient>
</defs>
</svg>
