<svg width="45" height="42" viewBox="0 0 45 42" fill="none" xmlns="http://www.w3.org/2000/svg">
<path d="M22.1565 0L27.3554 16.0007H44.1796L30.5685 25.8897L35.7675 41.8904L22.1565 32.0014L8.54543 41.8904L13.7444 25.8897L0.133358 16.0007H16.9575L22.1565 0Z" fill="url(#paint0_angular_821_23158)"/>
<path d="M22.1565 0L27.3554 16.0007H44.1796L30.5685 25.8897L35.7675 41.8904L22.1565 32.0014L8.54543 41.8904L13.7444 25.8897L0.133358 16.0007H16.9575L22.1565 0Z" fill="#002D31" fill-opacity="0.2"/>
<path d="M22.1565 0L27.3554 16.0007H44.1796L30.5685 25.8897L35.7675 41.8904L22.1565 32.0014L8.54543 41.8904L13.7444 25.8897L0.133358 16.0007H16.9575L22.1565 0Z" fill="black" fill-opacity="0.2"/>
<defs>
<radialGradient id="paint0_angular_821_23158" cx="0" cy="0" r="1" gradientUnits="userSpaceOnUse" gradientTransform="translate(22.1565 22.3906) rotate(55.2626) scale(23.0989 23.0989)">
<stop offset="0.0940427" stop-color="#248F99"/>
<stop offset="0.247062" stop-color="#00464D"/>
<stop offset="0.472333" stop-color="#248F99"/>
<stop offset="0.654785" stop-color="#00464D"/>
<stop offset="0.818154" stop-color="#008D99"/>
<stop offset="0.947734" stop-color="#04474D"/>
</radialGradient>
</defs>
</svg>
