<svg width="32" height="32" viewBox="0 0 32 32" fill="none" xmlns="http://www.w3.org/2000/svg">
<path d="M15.7124 28.8615V30.8763M15.7124 22.811V24.8258M15.7124 0.623779V2.63853M15.7124 6.67427V8.68903M9.67439 24.8258V30.8763M21.7504 30.8763V24.8258M9.68063 0.623779V8.68903M21.7567 8.68903V0.623779M23.3784 18.7753C24.2143 18.7753 24.9628 19.2992 25.256 20.0852L27.3581 25.6803C27.7011 26.6035 28.7303 27.0713 29.6535 26.722C30.3459 26.46 30.8075 25.7926 30.8075 25.0503V14.7395C30.8075 13.623 29.9092 12.7248 28.7927 12.7248H2.63835C1.52805 12.7248 0.623596 13.6292 0.623596 14.7395V25.0566C0.623596 26.0421 1.42201 26.8405 2.40756 26.8405C3.14983 26.8405 3.81726 26.3789 4.073 25.6803L6.16884 20.0789C6.46201 19.293 7.21053 18.7753 8.04637 18.769H23.3722L23.3784 18.7753Z" stroke="#004D71" stroke-width="1.24752" stroke-linecap="round" stroke-linejoin="round"/>
</svg>
