<svg width="30" height="30" viewBox="0 0 30 30" fill="none" xmlns="http://www.w3.org/2000/svg">
<circle cx="15" cy="15" r="15" fill="#E6EDED"/>
<path d="M22.9525 10.9204C22.9647 11.0967 22.9647 11.273 22.9647 11.4509C22.9647 16.8724 18.8371 23.125 11.2897 23.125V23.1217C9.06013 23.125 6.8769 22.4864 5 21.2824C5.32419 21.3214 5.65001 21.3409 5.97664 21.3417C7.82429 21.3433 9.61913 20.7234 11.0727 19.5819C9.31688 19.5486 7.77717 18.4039 7.23928 16.7327C7.85436 16.8513 8.48812 16.8269 9.09181 16.662C7.17753 16.2752 5.80032 14.5935 5.80032 12.6403C5.80032 12.6225 5.80032 12.6054 5.80032 12.5884C6.37071 12.906 7.00934 13.0823 7.6626 13.1018C5.85964 11.897 5.30388 9.49861 6.39265 7.62348C8.47593 10.1868 11.5497 11.745 14.8493 11.91C14.5186 10.4849 14.9703 8.99164 16.0364 7.98989C17.689 6.43649 20.2882 6.51611 21.8418 8.16782C22.7607 7.98664 23.6415 7.64948 24.4475 7.17176C24.1412 8.12151 23.5001 8.92827 22.6437 9.44093C23.457 9.34506 24.2517 9.12732 25 8.79503C24.4491 9.62048 23.7552 10.3395 22.9525 10.9204Z" fill="#002D31"/>
</svg>
