<svg width="29" height="23" viewBox="0 0 29 23" fill="none" xmlns="http://www.w3.org/2000/svg">
<g filter="url(#filter0_dd_1206_8602)">
<g clip-path="url(#clip0_1206_8602)">
<g clip-path="url(#clip1_1206_8602)">
<path d="M23.1226 2.96429H5.94912C4.83328 2.96429 3.92871 3.88531 3.92871 5.02144V16.3357C3.92871 17.4719 4.83328 18.3929 5.94912 18.3929H23.1226C24.2384 18.3929 25.143 17.4719 25.143 16.3357V5.02144C25.143 3.88531 24.2384 2.96429 23.1226 2.96429Z" fill="white"/>
<path fill-rule="evenodd" clip-rule="evenodd" d="M3.92871 13.5714H25.143V18.3928H3.92871V13.5714Z" fill="#151515"/>
<path fill-rule="evenodd" clip-rule="evenodd" d="M3.92871 2.96429H25.143V7.78572H3.92871V2.96429Z" fill="#249F58"/>
<path fill-rule="evenodd" clip-rule="evenodd" d="M3.92871 2.96429V18.3929H9.71442V2.96429H3.92871Z" fill="#F93939"/>
</g>
</g>
</g>
<defs>
<filter id="filter0_dd_1206_8602" x="-1.375" y="-0.25" width="33.75" height="24.75" filterUnits="userSpaceOnUse" color-interpolation-filters="sRGB">
<feFlood flood-opacity="0" result="BackgroundImageFix"/>
<feColorMatrix in="SourceAlpha" type="matrix" values="0 0 0 0 0 0 0 0 0 0 0 0 0 0 0 0 0 0 127 0" result="hardAlpha"/>
<feOffset dy="1.125"/>
<feGaussianBlur stdDeviation="1.125"/>
<feColorMatrix type="matrix" values="0 0 0 0 0.0627451 0 0 0 0 0.0941176 0 0 0 0 0.156863 0 0 0 0.06 0"/>
<feBlend mode="normal" in2="BackgroundImageFix" result="effect1_dropShadow_1206_8602"/>
<feColorMatrix in="SourceAlpha" type="matrix" values="0 0 0 0 0 0 0 0 0 0 0 0 0 0 0 0 0 0 127 0" result="hardAlpha"/>
<feOffset dy="1.125"/>
<feGaussianBlur stdDeviation="1.6875"/>
<feColorMatrix type="matrix" values="0 0 0 0 0.0627451 0 0 0 0 0.0941176 0 0 0 0 0.156863 0 0 0 0.1 0"/>
<feBlend mode="normal" in2="effect1_dropShadow_1206_8602" result="effect2_dropShadow_1206_8602"/>
<feBlend mode="normal" in="SourceGraphic" in2="effect2_dropShadow_1206_8602" result="shape"/>
</filter>
<clipPath id="clip0_1206_8602">
<rect width="21.2143" height="15.4286" fill="white" transform="translate(3.92871 2.96429)"/>
</clipPath>
<clipPath id="clip1_1206_8602">
<rect x="3.92871" y="2.96429" width="21.2143" height="15.4286" rx="1.92857" fill="white"/>
</clipPath>
</defs>
</svg>
