<svg width="52" height="49" viewBox="0 0 52 49" fill="none" xmlns="http://www.w3.org/2000/svg">
<path d="M38.3951 33.6358C38.1837 33.6358 37.9811 33.5518 37.8316 33.4024C37.6822 33.253 37.5983 33.0503 37.5983 32.839V18.2925L31.2238 16.3802V30.4486C31.2238 30.6599 31.1399 30.8626 30.9904 31.012C30.841 31.1614 30.6383 31.2454 30.427 31.2454C30.2157 31.2454 30.013 31.1614 29.8636 31.012C29.7142 30.8626 29.6302 30.6599 29.6302 30.4486V15.3093C29.6302 15.1851 29.6592 15.0626 29.715 14.9516C29.7707 14.8407 29.8516 14.7442 29.9513 14.6701C30.0509 14.5959 30.1665 14.5461 30.2888 14.5245C30.4111 14.503 30.5367 14.5103 30.6557 14.546L38.6237 16.9364C38.788 16.9856 38.9319 17.0864 39.0343 17.2239C39.1366 17.3614 39.1919 17.5283 39.1919 17.6997V32.839C39.1919 33.0503 39.1079 33.253 38.9585 33.4024C38.8091 33.5518 38.6064 33.6358 38.3951 33.6358ZM18.1435 13.0695C18.0412 12.9957 17.9228 12.9473 17.7982 12.9282C17.6735 12.909 17.5461 12.9198 17.4264 12.9595L7.86472 16.1467C7.70599 16.1996 7.56793 16.3011 7.47011 16.4368C7.37228 16.5725 7.31966 16.7356 7.3197 16.9029V28.0582C7.3197 28.2695 7.40365 28.4722 7.55308 28.6216C7.70251 28.771 7.90518 28.855 8.11651 28.855C8.20206 28.8549 8.28706 28.8412 8.3683 28.8143L17.9299 25.6271C18.0887 25.5743 18.2267 25.4728 18.3246 25.337C18.4224 25.2013 18.475 25.0382 18.475 24.8709V13.7157C18.4749 13.5894 18.4448 13.465 18.3871 13.3526C18.3295 13.2403 18.246 13.1432 18.1435 13.0695ZM16.8814 14.8209V17.1252L8.91331 19.781V17.4774L16.8814 14.8209ZM8.91331 26.953V21.4614L12.1005 20.3993V24.0741C12.1005 24.2855 12.1845 24.4881 12.3339 24.6376C12.4833 24.787 12.686 24.8709 12.8973 24.8709C13.1087 24.8709 13.3113 24.787 13.4608 24.6376C13.6102 24.4881 13.6941 24.2855 13.6941 24.0741V19.8678L16.8814 18.8057V24.2965L8.91331 26.953Z" fill="url(#paint0_linear_1360_10493)"/>
<path d="M50.3472 37.6199C50.5585 37.6199 50.7612 37.5359 50.9106 37.3865C51.0601 37.2371 51.144 37.0344 51.144 36.8231V8.13812C51.144 7.9615 51.0853 7.78991 50.9771 7.6503C50.8689 7.51068 50.7174 7.41097 50.5464 7.36681L25.8455 0.99238C25.7148 0.95892 25.5778 0.95892 25.4471 0.99238L0.746163 7.36681C0.575156 7.41097 0.423666 7.51068 0.315495 7.6503C0.207324 7.78991 0.148603 7.9615 0.14856 8.13812V40.0103C0.148511 40.1789 0.201941 40.3431 0.301164 40.4795C0.400388 40.6158 0.54029 40.7171 0.700745 40.7688L13.0512 44.7529H13.056L25.4065 48.7369C25.5655 48.7879 25.7366 48.7879 25.8957 48.7369L50.5966 40.7688C50.756 40.7164 50.8948 40.6151 50.9932 40.4791C51.0916 40.3432 51.1446 40.1797 51.1446 40.0119C51.1446 39.8441 51.0916 39.6805 50.9932 39.5446C50.8948 39.4087 50.756 39.3073 50.5966 39.2549L26.4431 31.4622V5.74771C26.4431 5.53638 26.3591 5.33371 26.2097 5.18428C26.0603 5.03485 25.8576 4.9509 25.6463 4.9509C25.435 4.9509 25.2323 5.03485 25.0829 5.18428C24.9334 5.33371 24.8495 5.53638 24.8495 5.74771V31.4622L1.74217 38.9163V8.75564L25.6463 2.58678L49.5504 8.75564V36.8231C49.5504 37.0344 49.6344 37.2371 49.7838 37.3865C49.9332 37.5359 50.1359 37.6199 50.3472 37.6199ZM25.6463 47.1409L15.891 43.9943L25.6463 40.8477L35.4008 43.9943L25.6463 47.1409ZM37.9968 43.1569L28.2407 40.0103L37.9968 36.8637L47.752 40.0103L37.9968 43.1569ZM25.6463 32.8797L35.4008 36.0263L25.6463 39.1728L15.891 36.0263L25.6463 32.8797ZM13.2958 36.8637L23.0503 40.0103L13.2958 43.1569L3.54056 40.0103L13.2958 36.8637Z" fill="url(#paint1_linear_1360_10493)"/>
<defs>
<linearGradient id="paint0_linear_1360_10493" x1="7.3197" y1="13.2935" x2="40.8129" y2="20.4315" gradientUnits="userSpaceOnUse">
<stop offset="0.158241" stop-color="#002D31"/>
<stop offset="0.32869" stop-color="#005961"/>
<stop offset="0.509791" stop-color="#00818C"/>
<stop offset="0.786145" stop-color="#005961"/>
<stop offset="0.988044" stop-color="#002D31"/>
</linearGradient>
<linearGradient id="paint1_linear_1360_10493" x1="0.14856" y1="1.83159" x2="54.9752" y2="9.93308" gradientUnits="userSpaceOnUse">
<stop offset="0.158241" stop-color="#002D31"/>
<stop offset="0.32869" stop-color="#005961"/>
<stop offset="0.509791" stop-color="#00818C"/>
<stop offset="0.786145" stop-color="#005961"/>
<stop offset="0.988044" stop-color="#002D31"/>
</linearGradient>
</defs>
</svg>
