<svg width="30" height="30" viewBox="0 0 30 30" fill="none" xmlns="http://www.w3.org/2000/svg">
<path d="M14.7261 16.8735C13.3305 16.8735 11.9663 16.4597 10.8059 15.6843C9.64552 14.909 8.74111 13.8069 8.20705 12.5176C7.67298 11.2282 7.53324 9.80948 7.80551 8.44071C8.07777 7.07194 8.74981 5.81465 9.73664 4.82782C10.7235 3.841 11.9808 3.16896 13.3495 2.89669C14.7183 2.62443 16.1371 2.76417 17.4264 3.29823C18.7158 3.8323 19.8178 4.73671 20.5931 5.89709C21.3685 7.05748 21.7823 8.42172 21.7823 9.81731C21.7791 11.6877 21.0346 13.4806 19.712 14.8032C18.3894 16.1258 16.5965 16.8703 14.7261 16.8735V16.8735ZM14.7261 4.60186C13.6946 4.60186 12.6862 4.90774 11.8286 5.48082C10.9709 6.0539 10.3024 6.86844 9.90767 7.82144C9.51293 8.77444 9.40965 9.82309 9.61089 10.8348C9.81212 11.8465 10.3088 12.7758 11.0382 13.5052C11.7676 14.2346 12.6969 14.7313 13.7086 14.9325C14.7203 15.1338 15.769 15.0305 16.722 14.6358C17.675 14.241 18.4895 13.5725 19.0626 12.7149C19.6357 11.8572 19.9416 10.8488 19.9416 9.81731C19.9383 8.43508 19.3878 7.11039 18.4104 6.13301C17.433 5.15562 16.1083 4.6051 14.7261 4.60186V4.60186Z" fill="#E6EDED"/>
<path d="M25.771 26.6908C25.5279 26.6876 25.2957 26.5896 25.1238 26.4177C24.9518 26.2458 24.8539 26.0135 24.8507 25.7704C24.8474 23.4118 23.909 21.1507 22.2412 19.4829C20.5734 17.8151 18.3124 16.8767 15.9537 16.8735H13.4994C11.1408 16.8767 8.8797 17.8151 7.2119 19.4829C5.54411 21.1507 4.60571 23.4118 4.60247 25.7704C4.60247 26.0145 4.5055 26.2486 4.33289 26.4212C4.16029 26.5938 3.92619 26.6908 3.68209 26.6908C3.43799 26.6908 3.20389 26.5938 3.03129 26.4212C2.85869 26.2486 2.76172 26.0145 2.76172 25.7704C2.76497 22.9236 3.8973 20.1943 5.9103 18.1813C7.9233 16.1683 10.6526 15.036 13.4994 15.0327H15.9537C18.8005 15.036 21.5298 16.1683 23.5428 18.1813C25.5558 20.1943 26.6882 22.9236 26.6914 25.7704C26.6882 26.0135 26.5903 26.2458 26.4183 26.4177C26.2464 26.5896 26.0142 26.6876 25.771 26.6908Z" fill="#E6EDED"/>
</svg>
