<svg width="24" height="25" viewBox="0 0 24 25" fill="none" xmlns="http://www.w3.org/2000/svg">
<path d="M11.7695 14.2604C10.6664 14.2604 9.58802 13.9333 8.6708 13.3204C7.75357 12.7075 7.03868 11.8364 6.61653 10.8172C6.19437 9.79808 6.08392 8.67661 6.29913 7.59467C6.51434 6.51273 7.04555 5.5189 7.82559 4.73886C8.60563 3.95882 9.59946 3.42761 10.6814 3.2124C11.7633 2.99719 12.8848 3.10764 13.904 3.52979C14.9231 3.95195 15.7942 4.66684 16.4071 5.58407C17.02 6.50129 17.3471 7.57966 17.3471 8.6828C17.3445 10.1613 16.7561 11.5785 15.7106 12.6239C14.6652 13.6693 13.248 14.2578 11.7695 14.2604ZM11.7695 4.56025C10.9542 4.56025 10.1571 4.80203 9.47916 5.25502C8.80121 5.70801 8.27281 6.35187 7.96079 7.10517C7.64876 7.85846 7.56712 8.68737 7.72619 9.48707C7.88526 10.2868 8.27789 11.0213 8.85444 11.5979C9.43099 12.1744 10.1656 12.5671 10.9653 12.7261C11.765 12.8852 12.5939 12.8036 13.3472 12.4915C14.1005 12.1795 14.7443 11.6511 15.1973 10.9732C15.6503 10.2952 15.8921 9.49816 15.8921 8.6828C15.8895 7.59022 15.4544 6.54312 14.6818 5.77054C13.9092 4.99797 12.8621 4.56281 11.7695 4.56025Z" fill="url(#paint0_linear_691_19910)"/>
<path d="M11.7695 14.2604C10.6664 14.2604 9.58802 13.9333 8.6708 13.3204C7.75357 12.7075 7.03868 11.8364 6.61653 10.8172C6.19437 9.79808 6.08392 8.67661 6.29913 7.59467C6.51434 6.51273 7.04555 5.5189 7.82559 4.73886C8.60563 3.95882 9.59946 3.42761 10.6814 3.2124C11.7633 2.99719 12.8848 3.10764 13.904 3.52979C14.9231 3.95195 15.7942 4.66684 16.4071 5.58407C17.02 6.50129 17.3471 7.57966 17.3471 8.6828C17.3445 10.1613 16.7561 11.5785 15.7106 12.6239C14.6652 13.6693 13.248 14.2578 11.7695 14.2604ZM11.7695 4.56025C10.9542 4.56025 10.1571 4.80203 9.47916 5.25502C8.80121 5.70801 8.27281 6.35187 7.96079 7.10517C7.64876 7.85846 7.56712 8.68737 7.72619 9.48707C7.88526 10.2868 8.27789 11.0213 8.85444 11.5979C9.43099 12.1744 10.1656 12.5671 10.9653 12.7261C11.765 12.8852 12.5939 12.8036 13.3472 12.4915C14.1005 12.1795 14.7443 11.6511 15.1973 10.9732C15.6503 10.2952 15.8921 9.49816 15.8921 8.6828C15.8895 7.59022 15.4544 6.54312 14.6818 5.77054C13.9092 4.99797 12.8621 4.56281 11.7695 4.56025Z" fill="black" fill-opacity="0.2"/>
<path d="M20.4996 22.0203C20.3075 22.0178 20.1239 21.9403 19.988 21.8044C19.8521 21.6685 19.7746 21.485 19.7721 21.2928C19.7695 19.4284 19.0278 17.6411 17.7095 16.3228C16.3912 15.0045 14.6039 14.2628 12.7395 14.2602H10.7995C8.93513 14.2628 7.14785 15.0045 5.82954 16.3228C4.51123 17.6411 3.76947 19.4284 3.76691 21.2928C3.76691 21.4857 3.69026 21.6708 3.55383 21.8072C3.41739 21.9436 3.23235 22.0203 3.0394 22.0203C2.84645 22.0203 2.66141 21.9436 2.52497 21.8072C2.38854 21.6708 2.31189 21.4857 2.31189 21.2928C2.31446 19.0425 3.20951 16.8852 4.80069 15.294C6.39187 13.7028 8.54923 12.8077 10.7995 12.8052H12.7395C14.9898 12.8077 17.1472 13.7028 18.7383 15.294C20.3295 16.8852 21.2246 19.0425 21.2271 21.2928C21.2246 21.485 21.1472 21.6685 21.0113 21.8044C20.8754 21.9403 20.6918 22.0178 20.4996 22.0203Z" fill="url(#paint1_linear_691_19910)"/>
<path d="M20.4996 22.0203C20.3075 22.0178 20.1239 21.9403 19.988 21.8044C19.8521 21.6685 19.7746 21.485 19.7721 21.2928C19.7695 19.4284 19.0278 17.6411 17.7095 16.3228C16.3912 15.0045 14.6039 14.2628 12.7395 14.2602H10.7995C8.93513 14.2628 7.14785 15.0045 5.82954 16.3228C4.51123 17.6411 3.76947 19.4284 3.76691 21.2928C3.76691 21.4857 3.69026 21.6708 3.55383 21.8072C3.41739 21.9436 3.23235 22.0203 3.0394 22.0203C2.84645 22.0203 2.66141 21.9436 2.52497 21.8072C2.38854 21.6708 2.31189 21.4857 2.31189 21.2928C2.31446 19.0425 3.20951 16.8852 4.80069 15.294C6.39187 13.7028 8.54923 12.8077 10.7995 12.8052H12.7395C14.9898 12.8077 17.1472 13.7028 18.7383 15.294C20.3295 16.8852 21.2246 19.0425 21.2271 21.2928C21.2246 21.485 21.1472 21.6685 21.0113 21.8044C20.8754 21.9403 20.6918 22.0178 20.4996 22.0203Z" fill="black" fill-opacity="0.2"/>
<defs>
<linearGradient id="paint0_linear_691_19910" x1="6.5523" y1="3.96331" x2="16.835" y2="11.5779" gradientUnits="userSpaceOnUse">
<stop offset="0.03125" stop-color="#003B40"/>
<stop offset="0.265625" stop-color="#005961"/>
<stop offset="0.509791" stop-color="#00818C"/>
<stop offset="0.760417" stop-color="#005961"/>
<stop offset="0.994792" stop-color="#003B40"/>
</linearGradient>
<linearGradient id="paint1_linear_691_19910" x1="2.92292" y1="13.514" x2="11.0781" y2="25.91" gradientUnits="userSpaceOnUse">
<stop offset="0.03125" stop-color="#003B40"/>
<stop offset="0.265625" stop-color="#005961"/>
<stop offset="0.509791" stop-color="#00818C"/>
<stop offset="0.760417" stop-color="#005961"/>
<stop offset="0.994792" stop-color="#003B40"/>
</linearGradient>
</defs>
</svg>
