<svg width="27" height="27" viewBox="0 0 27 27" fill="none" xmlns="http://www.w3.org/2000/svg">
<g clip-path="url(#clip0_937_5737)">
<path d="M14.0772 0.319056L15.2065 1.82405C15.3245 1.9812 15.4963 2.0893 15.689 2.12764C15.8817 2.16598 16.0818 2.13187 16.251 2.03183L17.8701 1.07353C17.9767 1.01047 18.0965 0.973107 18.2201 0.964389C18.3437 0.955672 18.4676 0.975844 18.582 1.02331C18.6964 1.07077 18.7982 1.14422 18.8793 1.23785C18.9604 1.33147 19.0185 1.44269 19.0492 1.5627L19.5167 3.38518C19.5655 3.57548 19.6828 3.74109 19.8462 3.85026C20.0095 3.95944 20.2074 4.00451 20.4019 3.97684L22.2654 3.71129C22.3879 3.69382 22.5129 3.70512 22.6303 3.74429C22.7478 3.78346 22.8545 3.84943 22.9421 3.93698C23.0296 4.02453 23.0956 4.13125 23.1347 4.2487C23.1739 4.36615 23.1852 4.49111 23.1677 4.61368L22.9022 6.47717C22.8745 6.67167 22.9196 6.86954 23.0288 7.03287C23.138 7.19621 23.3036 7.31351 23.4939 7.36232L25.3163 7.82982C25.4363 7.86049 25.5476 7.91868 25.6412 7.99978C25.7348 8.08088 25.8083 8.18267 25.8557 8.29708C25.9032 8.41149 25.9234 8.53538 25.9146 8.65894C25.9059 8.7825 25.8686 8.90233 25.8055 9.00894L24.8472 10.6281C24.7472 10.7972 24.7131 10.9973 24.7514 11.19C24.7897 11.3828 24.8978 11.5546 25.055 11.6726L26.56 12.8018C26.659 12.8762 26.7393 12.9726 26.7947 13.0833C26.85 13.1941 26.8788 13.3162 26.8788 13.4401C26.8788 13.5639 26.85 13.686 26.7947 13.7968C26.7393 13.9076 26.659 14.0039 26.56 14.0783L25.055 15.2076C24.8978 15.3256 24.7897 15.4974 24.7514 15.6901C24.7131 15.8828 24.7472 16.0829 24.8472 16.2521L25.8055 17.8712C25.8686 17.9778 25.9059 18.0976 25.9146 18.2212C25.9234 18.3448 25.9032 18.4686 25.8557 18.5831C25.8083 18.6975 25.7348 18.7993 25.6412 18.8804C25.5476 18.9615 25.4363 19.0196 25.3163 19.0503L23.4939 19.5178C23.3036 19.5666 23.138 19.6839 23.0288 19.8473C22.9196 20.0106 22.8745 20.2085 22.9022 20.403L23.1677 22.2665C23.1852 22.389 23.1739 22.514 23.1347 22.6314C23.0956 22.7489 23.0296 22.8556 22.9421 22.9432C22.8545 23.0307 22.7478 23.0967 22.6303 23.1358C22.5129 23.175 22.3879 23.1863 22.2654 23.1688L20.4019 22.9033C20.2074 22.8756 20.0095 22.9207 19.8462 23.0299C19.6828 23.1391 19.5655 23.3046 19.5167 23.495L19.0492 25.3174C19.0185 25.4374 18.9604 25.5487 18.8793 25.6423C18.7982 25.7359 18.6964 25.8094 18.582 25.8568C18.4676 25.9043 18.3437 25.9245 18.2201 25.9157C18.0965 25.907 17.9767 25.8697 17.8701 25.8066L16.251 24.8483C16.0818 24.7483 15.8817 24.7142 15.689 24.7525C15.4963 24.7908 15.3245 24.8989 15.2065 25.0561L14.0772 26.5611C14.0028 26.6601 13.9065 26.7404 13.7957 26.7958C13.6849 26.8511 13.5628 26.8799 13.439 26.8799C13.3151 26.8799 13.193 26.8511 13.0823 26.7958C12.9715 26.7404 12.8751 26.6601 12.8007 26.5611L11.6715 25.0561C11.5535 24.8989 11.3817 24.7908 11.1889 24.7525C10.9962 24.7142 10.7961 24.7483 10.627 24.8483L9.00784 25.8066C8.90123 25.8697 8.7814 25.907 8.65784 25.9157C8.53428 25.9245 8.41039 25.9043 8.29598 25.8568C8.18157 25.8094 8.07978 25.7359 7.99868 25.6423C7.91758 25.5487 7.85939 25.4374 7.82872 25.3174L7.36122 23.495C7.31241 23.3046 7.19511 23.1391 7.03178 23.0299C6.86844 22.9207 6.67057 22.8756 6.47607 22.9033L4.61258 23.1688C4.49001 23.1863 4.36506 23.175 4.2476 23.1358C4.13015 23.0967 4.02343 23.0307 3.93588 22.9432C3.84834 22.8556 3.78237 22.7489 3.74319 22.6314C3.70402 22.514 3.69272 22.389 3.71019 22.2665L3.97574 20.403C4.00341 20.2085 3.95834 20.0106 3.84916 19.8473C3.73999 19.6839 3.57439 19.5666 3.38408 19.5178L1.5616 19.0503C1.44159 19.0196 1.33037 18.9615 1.23675 18.8804C1.14312 18.7993 1.06967 18.6975 1.02221 18.5831C0.974744 18.4686 0.954573 18.3448 0.963291 18.2212C0.972008 18.0976 1.00938 17.9778 1.07243 17.8712L2.03073 16.2521C2.13077 16.0829 2.16489 15.8828 2.12655 15.6901C2.08821 15.4974 1.98011 15.3256 1.82295 15.2076L0.317957 14.0783C0.218957 14.0039 0.138614 13.9076 0.0832817 13.7968C0.0279497 13.686 -0.000854492 13.5639 -0.000854492 13.4401C-0.000854492 13.3162 0.0279497 13.1941 0.0832817 13.0833C0.138614 12.9726 0.218957 12.8762 0.317957 12.8018L1.82295 11.6726C1.98011 11.5546 2.08821 11.3828 2.12655 11.19C2.16489 10.9973 2.13077 10.7972 2.03073 10.6281L1.07243 9.00894C1.00938 8.90233 0.972008 8.7825 0.963291 8.65894C0.954573 8.53538 0.974744 8.41149 1.02221 8.29708C1.06967 8.18267 1.14312 8.08088 1.23675 7.99978C1.33037 7.91868 1.44159 7.86049 1.5616 7.82982L3.38408 7.36232C3.57439 7.31351 3.73999 7.19621 3.84916 7.03287C3.95834 6.86954 4.00341 6.67167 3.97574 6.47717L3.71019 4.61368C3.69272 4.49111 3.70402 4.36615 3.74319 4.2487C3.78237 4.13125 3.84834 4.02453 3.93588 3.93698C4.02343 3.84943 4.13015 3.78346 4.2476 3.74429C4.36506 3.70512 4.49001 3.69382 4.61258 3.71129L6.47607 3.97684C6.67057 4.00451 6.86844 3.95944 7.03178 3.85026C7.19511 3.74109 7.31241 3.57548 7.36122 3.38518L7.82872 1.5627C7.85939 1.44269 7.91758 1.33147 7.99868 1.23785C8.07978 1.14422 8.18157 1.07077 8.29598 1.02331C8.41039 0.975844 8.53428 0.955672 8.65784 0.964389C8.7814 0.973107 8.90123 1.01047 9.00784 1.07353L10.627 2.03183C10.7961 2.13187 10.9962 2.16598 11.1889 2.12764C11.3817 2.0893 11.5535 1.9812 11.6715 1.82405L12.8007 0.319056C12.8751 0.220056 12.9715 0.139713 13.0823 0.0843811C13.193 0.029049 13.3151 0.000244141 13.439 0.000244141C13.5628 0.000244141 13.6849 0.029049 13.7957 0.0843811C13.9065 0.139713 14.0028 0.220056 14.0772 0.319056Z" fill="url(#paint0_linear_937_5737)"/>
<path d="M11.5824 18.4335L6.95044 13.8016L8.64295 12.1091L11.5824 15.0485L18.2334 8.39746L19.9259 10.09L11.5824 18.4335Z" fill="white"/>
</g>
<defs>
<linearGradient id="paint0_linear_937_5737" x1="-0.000854428" y1="0.486196" x2="28.9728" y2="4.49985" gradientUnits="userSpaceOnUse">
<stop offset="0.158241" stop-color="#002D31"/>
<stop offset="0.32869" stop-color="#005961"/>
<stop offset="0.509791" stop-color="#00818C"/>
<stop offset="0.786145" stop-color="#005961"/>
<stop offset="0.988044" stop-color="#002D31"/>
</linearGradient>
<clipPath id="clip0_937_5737">
<rect width="26.8775" height="26.8775" fill="white"/>
</clipPath>
</defs>
</svg>
