<svg width="20" height="20" viewBox="0 0 20 20" fill="none" xmlns="http://www.w3.org/2000/svg">
<path fill-rule="evenodd" clip-rule="evenodd" d="M10.2511 7.21797C8.92253 7.21797 7.8455 8.295 7.8455 9.62358C7.8455 10.9522 8.92253 12.0292 10.2511 12.0292C11.5797 12.0292 12.6567 10.9522 12.6567 9.62358C12.6567 8.295 11.5797 7.21797 10.2511 7.21797ZM9.44924 9.62358C9.44924 9.18072 9.80824 8.82171 10.2511 8.82171C10.694 8.82171 11.053 9.18072 11.053 9.62358C11.053 10.0664 10.694 10.4254 10.2511 10.4254C9.80824 10.4254 9.44924 10.0664 9.44924 9.62358Z" fill="url(#paint0_linear_714_10292)"/>
<path fill-rule="evenodd" clip-rule="evenodd" d="M18.1334 9.04682C16.2988 5.73601 13.308 4.0105 10.2511 4.0105C7.1942 4.0105 4.20338 5.73601 2.36876 9.04682C2.18941 9.37048 2.18721 9.76958 2.36095 10.0947C4.1664 13.4736 7.17418 15.2367 10.2511 15.2367C13.328 15.2367 16.3358 13.4736 18.1413 10.0947C18.315 9.76958 18.3128 9.37048 18.1334 9.04682ZM10.2511 13.6329C7.89439 13.6329 5.47238 12.3278 3.90972 9.58242C5.49492 6.89413 7.90419 5.61423 10.2511 5.61423C12.598 5.61423 15.0073 6.89413 16.5925 9.58242C15.0298 12.3278 12.6078 13.6329 10.2511 13.6329Z" fill="url(#paint1_linear_714_10292)"/>
<defs>
<linearGradient id="paint0_linear_714_10292" x1="2.99508" y1="6.80597" x2="13.2355" y2="17.4746" gradientUnits="userSpaceOnUse">
<stop stop-color="#002E33"/>
<stop offset="0.515422" stop-color="#18494E"/>
<stop offset="0.994225" stop-color="#00474D"/>
</linearGradient>
<linearGradient id="paint1_linear_714_10292" x1="2.99508" y1="6.80597" x2="13.2355" y2="17.4746" gradientUnits="userSpaceOnUse">
<stop stop-color="#002E33"/>
<stop offset="0.515422" stop-color="#18494E"/>
<stop offset="0.994225" stop-color="#00474D"/>
</linearGradient>
</defs>
</svg>
