<svg width="30" height="30" viewBox="0 0 30 30" fill="none" xmlns="http://www.w3.org/2000/svg">
<circle cx="15" cy="15" r="15" fill="#E6EDED"/>
<path fill-rule="evenodd" clip-rule="evenodd" d="M6.41275 19.8646L5 25L10.2791 23.6221C11.7392 24.4137 13.3752 24.8285 15.0377 24.8285H15.042C20.5301 24.8285 24.9977 20.382 25 14.9179C25.0011 12.2879 23.9524 9.76525 22.0847 7.90516C20.2171 6.04507 17.6836 5.00001 15.0418 5C9.5526 5 5.0858 9.44561 5.0836 14.9099C5.08147 16.6491 5.53992 18.3581 6.41275 19.8646ZM10.8258 22.0064L10.5234 21.828L7.39081 22.6456L8.22708 19.606L8.03003 19.2944C7.20112 17.9814 6.76246 16.4616 6.76477 14.9107C6.76659 10.369 10.4793 6.67409 15.0448 6.67409C19.6159 6.67593 23.3201 10.3665 23.3183 14.9173C23.3164 19.4594 19.6035 23.1548 15.0417 23.1548H15.0384C13.5562 23.1549 12.1012 22.7583 10.8258 22.0064Z" fill="#002D31"/>
<path fill-rule="evenodd" clip-rule="evenodd" d="M12.5528 10.7666C12.3666 10.3541 12.1702 10.3458 11.9929 10.3388C11.8479 10.3326 11.6819 10.333 11.5161 10.333C11.2611 10.3396 11.0205 10.452 10.8524 10.6429C10.6243 10.8908 9.98145 11.49 9.98145 12.7087C9.98145 13.9274 10.8731 15.1052 10.9975 15.2707C11.1218 15.4363 12.7188 18.0168 15.2478 19.0097C17.3497 19.8348 17.7774 19.6707 18.2336 19.6294C18.6899 19.5881 19.7057 19.0305 19.9131 18.4519C20.1205 17.8733 20.1204 17.3776 20.0582 17.2742C19.996 17.1708 19.8301 17.1091 19.5812 16.9852C19.3324 16.8613 18.1092 16.262 17.8811 16.1794C17.6529 16.0968 17.4871 16.0555 17.3211 16.3035C17.1552 16.5516 16.6787 17.1091 16.5333 17.2742C16.388 17.4393 16.243 17.4604 15.9942 17.3365C15.7453 17.2126 14.9437 16.951 13.9933 16.1071C13.2536 15.4506 12.7542 14.6398 12.6091 14.3918C12.4639 14.1438 12.5935 14.0099 12.7183 13.8864C12.83 13.7754 12.9672 13.5972 13.0916 13.4526C13.216 13.308 13.2572 13.2047 13.3402 13.0395C13.4232 12.8744 13.3817 12.7295 13.3194 12.6056C13.2572 12.4817 12.774 11.2564 12.5528 10.7666Z" fill="#002D31"/>
</svg>
