<svg width="19" height="19" viewBox="0 0 19 19" fill="none" xmlns="http://www.w3.org/2000/svg">
<ellipse cx="9.09" cy="9.5" rx="9.09" ry="9.5" fill="url(#paint0_linear_691_18951)"/>
<path fill-rule="evenodd" clip-rule="evenodd" d="M3.88612 12.5807L3.03 15.8332L6.22916 14.9605C7.11394 15.4618 8.10535 15.7245 9.11283 15.7246H9.11543C12.4412 15.7246 15.1486 12.9084 15.15 9.44786C15.1506 7.78218 14.5151 6.18449 13.3834 5.00644C12.2516 3.82838 10.7162 3.16651 9.11531 3.1665C5.78887 3.1665 3.08199 5.98206 3.08066 9.4428C3.07937 10.5443 3.35719 11.6266 3.88612 12.5807ZM6.5606 13.9374L6.37736 13.8244L4.47901 14.3422L4.98578 12.4172L4.86637 12.2198C4.36406 11.3882 4.09823 10.4257 4.09963 9.44348C4.10073 6.56706 6.35065 4.22694 9.11731 4.22694C11.8874 4.2281 14.1321 6.56548 14.1311 9.44764C14.1299 12.3243 11.8799 14.6647 9.11543 14.6647H9.11346C8.21523 14.6648 7.3335 14.4136 6.5606 13.9374Z" fill="url(#paint1_linear_691_18951)"/>
<path fill-rule="evenodd" clip-rule="evenodd" d="M7.60718 6.81905C7.49434 6.5578 7.37531 6.55256 7.26788 6.54811C7.17997 6.5442 7.07937 6.54444 6.97891 6.54444C6.82441 6.54863 6.67861 6.61979 6.57673 6.74072C6.43851 6.89771 6.04892 7.2772 6.04892 8.04904C6.04892 8.82088 6.58929 9.56681 6.66463 9.67166C6.73998 9.77651 7.70776 11.4108 9.24036 12.0397C10.5141 12.5622 10.7732 12.4583 11.0497 12.4322C11.3262 12.406 11.9418 12.0528 12.0675 11.6864C12.1932 11.3199 12.1931 11.006 12.1554 10.9405C12.1177 10.875 12.0172 10.8359 11.8664 10.7575C11.7156 10.679 10.9743 10.2995 10.8361 10.2471C10.6978 10.1948 10.5973 10.1687 10.4968 10.3258C10.3962 10.4828 10.1074 10.8359 10.0194 10.9405C9.9313 11.0451 9.84342 11.0584 9.69262 10.98C9.54182 10.9015 9.05608 10.7358 8.48009 10.2014C8.03185 9.78557 7.72923 9.27206 7.64127 9.115C7.55331 8.95795 7.63183 8.87312 7.70747 8.7949C7.77517 8.72464 7.85827 8.61178 7.93367 8.52017C8.00907 8.42857 8.03404 8.36318 8.08433 8.25857C8.13462 8.15396 8.10945 8.0622 8.07175 7.98375C8.03404 7.9053 7.74123 7.12927 7.60718 6.81905Z" fill="white"/>
<defs>
<linearGradient id="paint0_linear_691_18951" x1="0.864546" y1="4.73127" x2="17.1454" y2="16.092" gradientUnits="userSpaceOnUse">
<stop stop-color="#002E33"/>
<stop offset="0.515422" stop-color="#18494E"/>
<stop offset="0.994225" stop-color="#00474D"/>
</linearGradient>
<linearGradient id="paint1_linear_691_18951" x1="15.15" y1="15.8332" x2="15.15" y2="3.1665" gradientUnits="userSpaceOnUse">
<stop stop-color="#F9F9F9"/>
<stop offset="1" stop-color="white"/>
</linearGradient>
</defs>
</svg>
