<svg width="35" height="26" viewBox="0 0 35 26" fill="none" xmlns="http://www.w3.org/2000/svg">
<path d="M11.072 1.29419C11.0719 1.29419 11.0717 1.29419 11.0716 1.29419C10.7989 1.29436 10.5544 1.43893 10.4333 1.67157L6.79214 8.669C6.68191 8.88084 6.69426 9.12722 6.82516 9.32805C6.9561 9.52892 7.18251 9.64888 7.43081 9.64888H8.54465C8.59544 9.64888 8.6215 9.6789 8.6325 9.69684C8.64354 9.71475 8.6583 9.7511 8.63342 9.79328L7.10387 12.3876C7.02128 12.5277 7.07361 12.705 7.22073 12.7836C7.36781 12.8623 7.55402 12.8124 7.63665 12.6724L9.16618 10.078C9.29144 9.86557 9.28905 9.6132 9.15975 9.40297C9.03047 9.1927 8.80052 9.06717 8.54465 9.06717H7.43081C7.38153 9.06717 7.35544 9.03847 7.3443 9.02138C7.33313 9.00424 7.31771 8.96928 7.33959 8.92723L10.9808 1.92977C11.0052 1.88291 11.0484 1.87589 11.072 1.87585C11.072 1.87585 11.072 1.87585 11.072 1.87585C11.0956 1.87585 11.1388 1.88287 11.1632 1.92964L14.8151 8.9271C14.837 8.96916 14.8216 9.00419 14.8105 9.02133C14.7993 9.03842 14.7732 9.06717 14.7239 9.06717H13.6008C13.3447 9.06717 13.1147 9.19283 12.9854 9.4033C12.8562 9.61379 12.854 9.86628 12.9796 10.0787L16.1041 15.3627C16.129 15.4049 16.1143 15.4412 16.1033 15.4592C16.0923 15.4771 16.0662 15.5072 16.0154 15.5072H13.8785C13.7098 15.5072 13.573 15.6375 13.573 15.7981C13.573 15.9587 13.7098 16.0889 13.8785 16.0889H16.0154C16.2715 16.0889 16.5015 15.9632 16.6307 15.7528C16.76 15.5423 16.7621 15.2898 16.6365 15.0774L13.512 9.79336C13.4871 9.75122 13.5018 9.71483 13.5129 9.69687C13.5239 9.67893 13.5499 9.64887 13.6008 9.64887H14.7239C14.9724 9.64887 15.1989 9.52883 15.3298 9.32774C15.4607 9.12665 15.4728 8.88015 15.3622 8.66831L11.7103 1.6708C11.5891 1.43848 11.3445 1.29419 11.072 1.29419ZM0.0922627 24.9892C-0.032997 25.2017 -0.0305871 25.4541 0.098721 25.6643C0.227993 25.8745 0.457945 26.0001 0.713838 26.0001H8.3679C8.53662 26.0001 8.67337 25.8698 8.67337 25.7092C8.67337 25.5486 8.53662 25.4183 8.3679 25.4183H0.713838C0.66304 25.4183 0.636978 25.3883 0.625966 25.3704C0.614929 25.3525 0.600169 25.3161 0.62505 25.2739L3.82976 19.8383C3.95502 19.6258 3.95263 19.3735 3.82335 19.1632C3.69408 18.953 3.46413 18.8275 3.20824 18.8275H2.07601C2.02522 18.8275 1.99916 18.7975 1.98816 18.7795C1.97712 18.7616 1.96234 18.7253 1.98722 18.6831L5.68968 12.4032C5.71503 12.3602 5.75612 12.3538 5.77836 12.3537C5.77841 12.3537 5.77845 12.3537 5.77845 12.3537C5.80071 12.3537 5.8418 12.3602 5.86719 12.4031L9.58053 18.683C9.60547 18.7251 9.59071 18.7615 9.57971 18.7795C9.56869 18.7974 9.54261 18.8275 9.49179 18.8275H8.35014C8.09406 18.8275 7.86403 18.9531 7.73479 19.1636C7.60555 19.3741 7.6034 19.6266 7.72903 19.839L9.10169 22.1604C9.18443 22.3003 9.37061 22.35 9.51775 22.2712C9.66476 22.1924 9.71684 22.015 9.63407 21.8751L8.26141 19.5537C8.23647 19.5115 8.25123 19.4751 8.26224 19.4572C8.27325 19.4392 8.29931 19.4092 8.35014 19.4092H9.49179C9.74786 19.4092 9.9779 19.2835 10.1072 19.073C10.2364 18.8626 10.2386 18.6101 10.1129 18.3976L6.39958 12.1177C6.27153 11.9012 6.03939 11.7721 5.77847 11.7721C5.77831 11.7721 5.77811 11.7721 5.77794 11.7721C5.51687 11.7722 5.28468 11.9017 5.15691 12.1185L1.45444 18.3983C1.32921 18.6108 1.33162 18.8631 1.46091 19.0734C1.59019 19.2836 1.82014 19.4092 2.07601 19.4092H3.20824C3.25902 19.4092 3.28508 19.4392 3.29611 19.4571C3.30712 19.475 3.32188 19.5114 3.297 19.5535L0.0922627 24.9892Z" fill="url(#paint0_linear_1611_12554)"/>
<path d="M30.1827 25.9623C32.8389 25.9623 35 23.9048 35 21.3759C35 18.847 32.8389 16.7895 30.1827 16.7895C29.6394 16.7895 29.1169 16.8757 28.6293 17.0342L26.5476 12.2364C26.5004 12.1276 26.3889 12.0565 26.2652 12.0565H23.6496C23.6291 12.0565 23.6092 12.0491 23.5987 12.0375C23.455 11.8791 23.4142 11.7121 23.4838 11.5674C23.5428 11.4447 23.6725 11.3654 23.8141 11.3654C23.9829 11.3654 24.1196 11.2351 24.1196 11.0745C24.1196 10.9139 23.9829 10.7836 23.8141 10.7836C23.4342 10.7836 23.0865 10.9963 22.9283 11.3252C22.7585 11.6783 22.8362 12.0867 23.1362 12.4176C23.2633 12.5578 23.4504 12.6382 23.6495 12.6382H26.0609L26.4837 13.6128L20.4679 15.3448L19.2935 12.6382H20.4329C20.6017 12.6382 20.7384 12.508 20.7384 12.3474C20.7384 12.1868 20.6017 12.0565 20.4329 12.0565H18.8398C18.8393 12.0565 18.8389 12.0565 18.8384 12.0565H17.5599C17.3912 12.0565 17.2544 12.1868 17.2544 12.3474C17.2544 12.508 17.3912 12.6382 17.5599 12.6382H18.6325L19.9337 15.6373L17.8211 17.7822C16.9991 17.161 15.9601 16.7895 14.8316 16.7895C12.1753 16.7895 10.0143 18.847 10.0143 21.3759C10.0143 23.9048 12.1753 25.9623 14.8316 25.9623C17.3852 25.9623 19.4808 24.0607 19.6389 21.6667H22.7537C22.7539 21.6667 22.7541 21.6668 22.7543 21.6668C22.7546 21.6668 22.7549 21.6667 22.7552 21.6667H22.8793C22.8907 21.6667 22.902 21.666 22.9132 21.6648C22.9155 21.6646 22.9178 21.6641 22.9201 21.6638C22.9291 21.6627 22.938 21.6613 22.9467 21.6594C22.9495 21.6588 22.9524 21.658 22.9552 21.6573C22.9633 21.6553 22.9713 21.6531 22.9791 21.6505C22.9823 21.6495 22.9854 21.6484 22.9886 21.6472C22.9959 21.6445 23.0031 21.6416 23.0102 21.6384C23.0134 21.6369 23.0167 21.6355 23.0199 21.6339C23.0272 21.6303 23.0343 21.6263 23.0413 21.6221C23.0438 21.6206 23.0465 21.6193 23.049 21.6177C23.058 21.6119 23.0666 21.6058 23.0749 21.5992C23.0777 21.597 23.0802 21.5945 23.083 21.5922C23.0887 21.5873 23.0943 21.5822 23.0997 21.5769C23.1024 21.5742 23.1051 21.5713 23.1078 21.5684C23.1132 21.5626 23.1184 21.5565 23.1233 21.5503C23.1246 21.5486 23.1261 21.5472 23.1274 21.5455L27.4421 15.8217L28.065 17.2571C26.4675 18.0047 25.3653 19.5699 25.3653 21.3759C25.3654 23.9048 27.5264 25.9623 30.1827 25.9623ZM22.2975 21.085H19.6389C19.5643 19.9547 19.0577 18.9343 18.2748 18.1719L20.1899 16.2276L22.2975 21.085ZM17.8568 18.5964C18.5213 19.2518 18.9538 20.1217 19.0268 21.085H15.4055L17.8568 18.5964ZM14.8316 25.3806C12.5122 25.3806 10.6253 23.5841 10.6253 21.3759C10.6253 19.1677 12.5122 17.3712 14.8316 17.3712C15.7987 17.3712 16.6904 17.6837 17.4017 18.208L14.4774 21.1769C14.4753 21.1791 14.4735 21.1814 14.4715 21.1836C14.4679 21.1875 14.4644 21.1914 14.461 21.1954C14.4579 21.1991 14.4551 21.2028 14.4523 21.2065C14.4493 21.2105 14.4464 21.2144 14.4437 21.2185C14.4409 21.2225 14.4383 21.2266 14.4358 21.2308C14.4333 21.2348 14.431 21.2389 14.4287 21.243C14.4264 21.2473 14.4242 21.2517 14.4221 21.2561C14.4201 21.2603 14.4182 21.2646 14.4164 21.2689C14.4145 21.2734 14.4128 21.2779 14.4112 21.2824C14.4096 21.2868 14.4081 21.2913 14.4068 21.2958C14.4054 21.3004 14.4042 21.305 14.403 21.3097C14.4019 21.3142 14.4009 21.3188 14.4 21.3234C14.3991 21.3283 14.3983 21.3332 14.3976 21.3382C14.397 21.3426 14.3965 21.347 14.3961 21.3515C14.3956 21.3568 14.3954 21.3622 14.3952 21.3675C14.3952 21.3703 14.3948 21.3731 14.3948 21.3759C14.3948 21.3774 14.395 21.3788 14.395 21.3803C14.3951 21.3856 14.3955 21.3909 14.3959 21.3963C14.3962 21.4007 14.3964 21.4051 14.397 21.4094C14.3976 21.4142 14.3984 21.419 14.3993 21.4237C14.4001 21.4284 14.4008 21.4332 14.4019 21.4378C14.4029 21.4422 14.4042 21.4465 14.4054 21.4509C14.4068 21.4557 14.408 21.4605 14.4096 21.4652C14.4111 21.4695 14.4129 21.4737 14.4146 21.478C14.4163 21.4825 14.418 21.487 14.42 21.4914C14.422 21.4959 14.4244 21.5002 14.4267 21.5046C14.4287 21.5086 14.4307 21.5127 14.433 21.5166C14.4355 21.521 14.4384 21.5252 14.4412 21.5295C14.4437 21.5332 14.4461 21.537 14.4487 21.5407C14.4515 21.5446 14.4547 21.5484 14.4577 21.5522C14.4608 21.556 14.4639 21.5599 14.4671 21.5636C14.4701 21.5669 14.4733 21.5701 14.4764 21.5733C14.4802 21.5772 14.4841 21.5811 14.4881 21.5849C14.4892 21.5859 14.4902 21.587 14.4913 21.588C14.4936 21.59 14.496 21.5918 14.4984 21.5937C14.5023 21.597 14.5062 21.6003 14.5102 21.6033C14.5141 21.6063 14.518 21.609 14.522 21.6117C14.5259 21.6144 14.5298 21.6171 14.5338 21.6196C14.5382 21.6222 14.5426 21.6247 14.547 21.6272C14.551 21.6294 14.5549 21.6316 14.559 21.6336C14.5636 21.6359 14.5684 21.638 14.5732 21.6401C14.5772 21.6419 14.5813 21.6437 14.5855 21.6453C14.5904 21.6472 14.5953 21.6488 14.6003 21.6504C14.6046 21.6518 14.6088 21.6533 14.6132 21.6546C14.6183 21.656 14.6235 21.6572 14.6287 21.6584C14.633 21.6593 14.6372 21.6604 14.6416 21.6612C14.6475 21.6623 14.6535 21.6631 14.6595 21.6638C14.6632 21.6643 14.6669 21.6649 14.6706 21.6653C14.6804 21.6662 14.6903 21.6667 14.7002 21.6667H14.7003H14.7003H19.0268C18.8698 23.7397 17.0483 25.3806 14.8316 25.3806ZM22.8723 20.8863L20.7023 15.885L26.7181 14.153L27.1675 15.1886L22.8723 20.8863ZM28.2988 17.796L29.9003 21.4869C29.949 21.5991 30.0628 21.6668 30.1828 21.6668C30.2216 21.6668 30.2611 21.6597 30.2993 21.6447C30.4552 21.5833 30.5294 21.4133 30.465 21.2649L28.8632 17.5732C29.2784 17.4423 29.7219 17.3712 30.1827 17.3712C32.502 17.3712 34.389 19.1677 34.389 21.3759C34.389 23.5841 32.502 25.3806 30.1827 25.3806C27.8633 25.3806 25.9763 23.5841 25.9763 21.3759C25.9763 19.8121 26.9228 18.455 28.2988 17.796ZM17.9451 4.48749C17.66 4.8195 17.604 5.26892 17.799 5.66037C17.9989 6.06174 18.411 6.31108 18.8747 6.31108H32.5725C33.0115 6.31108 33.4138 6.08096 33.6223 5.71058C33.8285 5.34438 33.8089 4.92142 33.5699 4.57907C33.0611 3.85058 32.2097 3.41563 31.2924 3.41563C31.1208 3.41563 30.9517 3.4306 30.7871 3.46027C30.3553 2.60992 29.4414 2.05471 28.4335 2.05471C28.1056 2.05471 27.7803 2.11462 27.4753 2.22981C27.0368 0.85708 25.6588 -0.0787936 24.1201 0.0052336C22.5863 0.0869665 21.2937 1.19687 21.0466 2.64419C20.9971 2.93309 20.99 3.22254 21.025 3.50952C20.788 3.45339 20.5447 3.42511 20.2975 3.42511C19.3823 3.42512 18.525 3.81233 17.9451 4.48749ZM21.303 4.21591C21.4116 4.26307 21.5393 4.24572 21.6296 4.17134C21.72 4.09693 21.7566 3.97919 21.7231 3.86999C21.6094 3.49814 21.5846 3.11722 21.6496 2.73767C21.8511 1.55752 22.9045 0.652604 24.1548 0.585968C25.5194 0.511049 26.7283 1.41987 26.9664 2.69999C26.9839 2.79376 27.0484 2.87343 27.1392 2.91332C27.23 2.95325 27.3356 2.94832 27.4219 2.90005C27.7305 2.72758 28.0803 2.63642 28.4335 2.63642C29.2772 2.63642 30.035 3.14396 30.319 3.8994C30.3738 4.0453 30.5392 4.12472 30.6951 4.07974C30.8849 4.02506 31.0858 3.99733 31.2924 3.99733C32.0047 3.99733 32.6659 4.33517 33.0611 4.90114C33.1733 5.06188 33.1818 5.26173 33.0838 5.43578C32.9803 5.61964 32.7892 5.7294 32.5725 5.7294H18.8747C18.6054 5.7294 18.4276 5.56505 18.3511 5.4112C18.2568 5.22199 18.2819 5.01431 18.4181 4.85565C18.8814 4.31621 19.5664 4.00682 20.2975 4.00682C20.6455 4.00682 20.9838 4.07716 21.303 4.21591Z" fill="url(#paint1_linear_1611_12554)"/>
<defs>
<linearGradient id="paint0_linear_1611_12554" x1="3.98746e-08" y1="1.74084" x2="18.2182" y2="3.44974" gradientUnits="userSpaceOnUse">
<stop offset="0.158241" stop-color="#002D31"/>
<stop offset="0.32869" stop-color="#005961"/>
<stop offset="0.509791" stop-color="#00818C"/>
<stop offset="0.786145" stop-color="#005961"/>
<stop offset="0.988044" stop-color="#002D31"/>
</linearGradient>
<linearGradient id="paint1_linear_1611_12554" x1="10.0143" y1="0.469367" x2="36.984" y2="4.06487" gradientUnits="userSpaceOnUse">
<stop offset="0.158241" stop-color="#002D31"/>
<stop offset="0.32869" stop-color="#005961"/>
<stop offset="0.509791" stop-color="#00818C"/>
<stop offset="0.786145" stop-color="#005961"/>
<stop offset="0.988044" stop-color="#002D31"/>
</linearGradient>
</defs>
</svg>
