<svg width="74" height="54" viewBox="0 0 74 54" fill="none" xmlns="http://www.w3.org/2000/svg">
<g opacity="0.8">
<path d="M26.1529 42.1763C26.005 42.2373 26.0833 42.3678 26.1268 42.3852C26.1703 42.4026 26.1965 42.7507 25.8483 43.0988C25.5002 43.4556 25.0999 43.2729 24.7605 43.1162C24.4211 42.9596 24.6996 42.6463 24.9259 42.2198C25.1521 41.7934 25.0999 41.1581 24.4994 40.7839C23.8903 40.4097 20.8182 38.3907 18.9559 35.1881C17.0935 31.9855 17.2153 28.7046 17.2936 27.9736C17.372 27.2426 16.815 27.5211 16.815 27.5211L15.3007 28.4523C15.2224 30.0884 15.353 33.2387 17.4938 36.7459C19.6347 40.253 23.7684 42.7942 24.0034 42.9335C24.2384 43.0727 24.9433 43.4469 24.9433 43.4469C25.2392 43.5688 25.7091 43.5688 26.0746 43.1858C26.4401 42.8029 26.3096 42.4287 26.3183 42.3591C26.327 42.2895 26.3009 42.1154 26.1616 42.1676" fill="url(#paint0_angular_1523_11424)"/>
<path d="M26.1529 42.1763C26.005 42.2373 26.0833 42.3678 26.1268 42.3852C26.1703 42.4026 26.1965 42.7507 25.8483 43.0988C25.5002 43.4556 25.0999 43.2729 24.7605 43.1162C24.4211 42.9596 24.6996 42.6463 24.9259 42.2198C25.1521 41.7934 25.0999 41.1581 24.4994 40.7839C23.8903 40.4097 20.8182 38.3907 18.9559 35.1881C17.0935 31.9855 17.2153 28.7046 17.2936 27.9736C17.372 27.2426 16.815 27.5211 16.815 27.5211L15.3007 28.4523C15.2224 30.0884 15.353 33.2387 17.4938 36.7459C19.6347 40.253 23.7684 42.7942 24.0034 42.9335C24.2384 43.0727 24.9433 43.4469 24.9433 43.4469C25.2392 43.5688 25.7091 43.5688 26.0746 43.1858C26.4401 42.8029 26.3096 42.4287 26.3183 42.3591C26.327 42.2895 26.3009 42.1154 26.1616 42.1676" fill="#002D31" fill-opacity="0.2"/>
<path d="M26.1529 42.1763C26.005 42.2373 26.0833 42.3678 26.1268 42.3852C26.1703 42.4026 26.1965 42.7507 25.8483 43.0988C25.5002 43.4556 25.0999 43.2729 24.7605 43.1162C24.4211 42.9596 24.6996 42.6463 24.9259 42.2198C25.1521 41.7934 25.0999 41.1581 24.4994 40.7839C23.8903 40.4097 20.8182 38.3907 18.9559 35.1881C17.0935 31.9855 17.2153 28.7046 17.2936 27.9736C17.372 27.2426 16.815 27.5211 16.815 27.5211L15.3007 28.4523C15.2224 30.0884 15.353 33.2387 17.4938 36.7459C19.6347 40.253 23.7684 42.7942 24.0034 42.9335C24.2384 43.0727 24.9433 43.4469 24.9433 43.4469C25.2392 43.5688 25.7091 43.5688 26.0746 43.1858C26.4401 42.8029 26.3096 42.4287 26.3183 42.3591C26.327 42.2895 26.3009 42.1154 26.1616 42.1676" fill="black" fill-opacity="0.2"/>
<path d="M15.7011 26.3724C16.1536 26.6596 16.6584 26.1984 17.1109 25.946C17.5635 25.6936 17.8942 25.4412 18.016 24.9365C18.1378 24.4317 19.0951 22.4911 20.3396 21.0551C23.3072 17.6002 28.8595 14.5455 33.8026 14.2496C38.7457 13.945 45.6295 14.1017 51.6082 18.688C57.0213 22.8479 57.1257 28.3479 57.1518 28.7744C57.1779 29.2008 57.7523 29.2008 58.5878 29.3313C59.4232 29.4619 59.1621 28.4524 59.1621 28.4524C58.8837 25.8329 58.6661 23.2047 55.0284 19.1231C51.3994 15.0416 45.6991 12.7441 41.4609 12.1871C37.2228 11.6301 28.4505 11.5779 22.4457 16.2251C16.4408 20.8637 15.6663 25.45 15.6402 25.7023C15.6141 25.9547 15.4922 26.2593 15.6924 26.3811" fill="url(#paint1_angular_1523_11424)"/>
<path d="M15.7011 26.3724C16.1536 26.6596 16.6584 26.1984 17.1109 25.946C17.5635 25.6936 17.8942 25.4412 18.016 24.9365C18.1378 24.4317 19.0951 22.4911 20.3396 21.0551C23.3072 17.6002 28.8595 14.5455 33.8026 14.2496C38.7457 13.945 45.6295 14.1017 51.6082 18.688C57.0213 22.8479 57.1257 28.3479 57.1518 28.7744C57.1779 29.2008 57.7523 29.2008 58.5878 29.3313C59.4232 29.4619 59.1621 28.4524 59.1621 28.4524C58.8837 25.8329 58.6661 23.2047 55.0284 19.1231C51.3994 15.0416 45.6991 12.7441 41.4609 12.1871C37.2228 11.6301 28.4505 11.5779 22.4457 16.2251C16.4408 20.8637 15.6663 25.45 15.6402 25.7023C15.6141 25.9547 15.4922 26.2593 15.6924 26.3811" fill="#002D31" fill-opacity="0.2"/>
<path d="M15.7011 26.3724C16.1536 26.6596 16.6584 26.1984 17.1109 25.946C17.5635 25.6936 17.8942 25.4412 18.016 24.9365C18.1378 24.4317 19.0951 22.4911 20.3396 21.0551C23.3072 17.6002 28.8595 14.5455 33.8026 14.2496C38.7457 13.945 45.6295 14.1017 51.6082 18.688C57.0213 22.8479 57.1257 28.3479 57.1518 28.7744C57.1779 29.2008 57.7523 29.2008 58.5878 29.3313C59.4232 29.4619 59.1621 28.4524 59.1621 28.4524C58.8837 25.8329 58.6661 23.2047 55.0284 19.1231C51.3994 15.0416 45.6991 12.7441 41.4609 12.1871C37.2228 11.6301 28.4505 11.5779 22.4457 16.2251C16.4408 20.8637 15.6663 25.45 15.6402 25.7023C15.6141 25.9547 15.4922 26.2593 15.6924 26.3811" fill="black" fill-opacity="0.2"/>
<path d="M58.7616 30.5843L57.6999 30.3842C57.6999 30.3842 57.2995 30.1318 57.0472 31.0369C56.7948 31.9419 56.1421 34.544 54.4712 36.6849C52.809 38.8257 50.1111 40.6446 49.5281 41.071C48.945 41.4974 48.945 41.7759 48.8754 42.0283C48.797 42.2807 49.6412 43.3337 49.6412 43.3337C49.6412 43.3337 48.9102 43.8298 48.5708 43.8036C47.8746 43.7514 47.7092 43.3076 47.6657 42.9943C47.6222 42.6897 47.7701 42.8028 47.7353 42.7071C47.6744 42.5418 47.5177 42.6636 47.5352 42.916C47.5526 43.1683 47.57 43.5861 48.1356 43.8472C48.7013 44.1082 49.2409 43.6992 49.9545 43.3076C52.4086 41.9587 54.6191 40.1224 56.5337 37.4942C58.4483 34.8747 58.953 31.9506 59.0575 31.3414C59.1532 30.741 58.7529 30.5843 58.7529 30.5843" fill="url(#paint2_angular_1523_11424)"/>
<path d="M58.7616 30.5843L57.6999 30.3842C57.6999 30.3842 57.2995 30.1318 57.0472 31.0369C56.7948 31.9419 56.1421 34.544 54.4712 36.6849C52.809 38.8257 50.1111 40.6446 49.5281 41.071C48.945 41.4974 48.945 41.7759 48.8754 42.0283C48.797 42.2807 49.6412 43.3337 49.6412 43.3337C49.6412 43.3337 48.9102 43.8298 48.5708 43.8036C47.8746 43.7514 47.7092 43.3076 47.6657 42.9943C47.6222 42.6897 47.7701 42.8028 47.7353 42.7071C47.6744 42.5418 47.5177 42.6636 47.5352 42.916C47.5526 43.1683 47.57 43.5861 48.1356 43.8472C48.7013 44.1082 49.2409 43.6992 49.9545 43.3076C52.4086 41.9587 54.6191 40.1224 56.5337 37.4942C58.4483 34.8747 58.953 31.9506 59.0575 31.3414C59.1532 30.741 58.7529 30.5843 58.7529 30.5843" fill="#002D31" fill-opacity="0.2"/>
<path d="M58.7616 30.5843L57.6999 30.3842C57.6999 30.3842 57.2995 30.1318 57.0472 31.0369C56.7948 31.9419 56.1421 34.544 54.4712 36.6849C52.809 38.8257 50.1111 40.6446 49.5281 41.071C48.945 41.4974 48.945 41.7759 48.8754 42.0283C48.797 42.2807 49.6412 43.3337 49.6412 43.3337C49.6412 43.3337 48.9102 43.8298 48.5708 43.8036C47.8746 43.7514 47.7092 43.3076 47.6657 42.9943C47.6222 42.6897 47.7701 42.8028 47.7353 42.7071C47.6744 42.5418 47.5177 42.6636 47.5352 42.916C47.5526 43.1683 47.57 43.5861 48.1356 43.8472C48.7013 44.1082 49.2409 43.6992 49.9545 43.3076C52.4086 41.9587 54.6191 40.1224 56.5337 37.4942C58.4483 34.8747 58.953 31.9506 59.0575 31.3414C59.1532 30.741 58.7529 30.5843 58.7529 30.5843" fill="black" fill-opacity="0.2"/>
<path d="M39.0675 37.9903C38.9892 37.9555 37.9797 37.9468 37.4575 37.9381V37.9207C37.4575 37.9207 35.1078 37.8598 34.9251 37.9555C34.5944 38.1296 34.6118 38.3123 34.6118 38.3123L34.4986 42.916H34.4899L34.3855 49.3473C34.4116 50.4786 35.4733 50.8006 35.63 50.9486C35.7953 51.0965 35.7692 52.8284 35.7692 52.8284L37.2139 52.7848C37.3444 52.0451 37.24 51.1139 37.3618 51.0095C37.4227 50.9573 38.0406 50.7832 38.4583 50.3829L38.6063 50.2785C38.85 50.0696 38.9718 49.9565 39.0066 49.4169L39.1458 43.1423H39.1546L39.2329 38.2688C39.2329 38.2688 39.259 38.0687 39.0762 37.9903" fill="url(#paint3_angular_1523_11424)"/>
<path d="M39.0675 37.9903C38.9892 37.9555 37.9797 37.9468 37.4575 37.9381V37.9207C37.4575 37.9207 35.1078 37.8598 34.9251 37.9555C34.5944 38.1296 34.6118 38.3123 34.6118 38.3123L34.4986 42.916H34.4899L34.3855 49.3473C34.4116 50.4786 35.4733 50.8006 35.63 50.9486C35.7953 51.0965 35.7692 52.8284 35.7692 52.8284L37.2139 52.7848C37.3444 52.0451 37.24 51.1139 37.3618 51.0095C37.4227 50.9573 38.0406 50.7832 38.4583 50.3829L38.6063 50.2785C38.85 50.0696 38.9718 49.9565 39.0066 49.4169L39.1458 43.1423H39.1546L39.2329 38.2688C39.2329 38.2688 39.259 38.0687 39.0762 37.9903" fill="#002D31" fill-opacity="0.2"/>
<path d="M39.0675 37.9903C38.9892 37.9555 37.9797 37.9468 37.4575 37.9381V37.9207C37.4575 37.9207 35.1078 37.8598 34.9251 37.9555C34.5944 38.1296 34.6118 38.3123 34.6118 38.3123L34.4986 42.916H34.4899L34.3855 49.3473C34.4116 50.4786 35.4733 50.8006 35.63 50.9486C35.7953 51.0965 35.7692 52.8284 35.7692 52.8284L37.2139 52.7848C37.3444 52.0451 37.24 51.1139 37.3618 51.0095C37.4227 50.9573 38.0406 50.7832 38.4583 50.3829L38.6063 50.2785C38.85 50.0696 38.9718 49.9565 39.0066 49.4169L39.1458 43.1423H39.1546L39.2329 38.2688C39.2329 38.2688 39.259 38.0687 39.0762 37.9903" fill="black" fill-opacity="0.2"/>
<path d="M43.2624 33.404C45.5163 34.5963 46.7173 35.7189 47.4744 36.4064L48.0401 36.9025C48.1184 36.9982 48.336 37.1287 48.4752 37.1287C48.7363 37.1287 48.9452 36.9373 48.9626 36.6762C48.9626 36.537 48.9104 36.4151 48.8146 36.3281C48.8146 36.3281 47.1263 34.2656 43.6018 32.525C40.0772 30.7845 38.0147 30.6627 38.0147 30.6627L38.0495 30.2624C38.0495 30.2624 40.9039 30.0883 44.2022 30.9847C47.5005 31.881 48.3534 32.5947 49.9547 33.6651L50.9033 34.4222C50.9816 34.4918 51.0773 34.5266 51.1905 34.5354C51.4515 34.5441 51.6604 34.3439 51.6691 34.0828C51.6691 33.9262 51.6082 33.7869 51.4864 33.6999C51.4864 33.6999 48.7798 31.4024 44.7766 30.1753C41.4957 29.1658 38.0408 29.4878 38.0408 29.4878L38.006 29.0614C38.006 29.0614 40.8169 28.0519 44.7679 28.4435C48.7189 28.8351 50.5726 30.0361 51.7561 30.7062L52.5568 31.2545C52.6177 31.2893 52.6873 31.3067 52.7569 31.3067C53.018 31.3067 53.2269 31.1152 53.2356 30.8541C53.2356 30.6975 53.166 30.5582 53.0528 30.4712C53.0528 30.4712 49.5022 27.9474 45.4815 27.5297C40.8517 27.0511 38.093 28.1041 38.093 28.1041L38.0495 27.8256C38.0495 27.8256 41.313 26.1199 44.6287 25.7631C47.9444 25.3976 49.302 25.824 51.2514 26.3462L51.8693 26.5028C51.9389 26.5289 52.0085 26.5463 52.0868 26.5463C52.4349 26.555 52.7221 26.2852 52.7308 25.9458C52.7308 25.6935 52.6003 25.4672 52.374 25.3628C52.374 25.3628 49.7023 24.3358 44.9594 24.7362C41.5827 25.0147 38.1191 26.7987 38.1191 26.7987L38.0669 26.3375C38.0669 26.3375 39.9118 24.7362 42.7228 23.6744C45.5337 22.6127 48.1097 22.5518 48.1097 22.5518L48.7711 22.5257C49.067 22.5257 49.3194 22.2994 49.3281 22.0035C49.3368 21.7076 49.1018 21.4553 48.8059 21.4466C48.7798 21.4466 46.23 21.4727 42.9142 22.5518C40.7473 23.2567 38.18 25.0843 38.18 25.0843L38.1191 24.5273C38.1191 24.5273 39.5898 22.8129 40.7299 21.9165C41.8699 21.0201 42.862 20.5067 43.6453 20.0977L44.3328 19.6538C44.3763 19.5842 44.4024 19.5059 44.4111 19.4188C44.4198 19.1665 44.2196 18.9489 43.9586 18.9402C43.8628 18.9402 43.7671 18.9663 43.6801 19.0098C43.6801 19.0098 41.4174 20.1238 40.347 20.994C39.2852 21.8643 38.415 22.9434 38.415 22.9434C38.415 22.9434 37.8928 22.9782 37.9537 22.6214C38.0147 22.2733 38.7196 21.1333 39.2417 20.4458C39.7726 19.7583 40.4427 19.1491 40.4427 19.1491L40.7299 18.8532C40.7821 18.7836 40.8604 18.653 40.8604 18.566C40.8691 18.3049 40.6167 18.0438 40.3557 18.0351C40.2164 18.0351 39.9989 18.0699 39.8422 18.2701C39.8422 18.2701 39.2504 19.0794 38.9807 19.2448C38.9807 19.2448 38.7892 19.3666 38.3541 19.21C37.6753 18.975 38.2061 17.8698 37.2053 17.9655L36.9877 18.0438C36.7267 18.1657 36.8746 18.418 36.5613 18.9576C36.3699 19.2883 35.8738 19.2622 35.8738 19.2622C35.1428 19.297 34.9078 17.8959 34.2986 17.922C34.0375 17.9394 33.8287 18.0699 33.7765 18.3658C33.7591 18.4529 33.8026 18.6095 33.8548 18.6791L34.1159 18.975C34.1159 18.975 34.8382 19.6886 35.3429 20.4022C35.8477 21.1072 36.4743 22.3429 36.5265 22.6997C36.5787 23.0566 36.1523 22.926 36.1523 22.926C36.1523 22.926 35.3168 21.8121 34.2899 20.907C33.2543 20.0019 31.0351 18.8097 31.0351 18.8097C30.9568 18.7574 30.8611 18.7226 30.7653 18.7226C30.5043 18.7226 30.2954 18.9315 30.2954 19.1926C30.2954 19.2796 30.3041 19.4711 30.513 19.5842L31.0351 19.8975C31.8097 20.3239 32.7844 20.8809 33.8896 21.8121C35.0035 22.7433 36.4134 24.5099 36.4134 24.5099L36.335 25.0669C36.335 25.0669 33.8374 23.1523 31.6965 22.369C28.4243 21.1768 25.8658 21.0549 25.8484 21.0549C25.5525 21.0549 25.3088 21.2986 25.3088 21.5945C25.3088 21.8904 25.5525 22.1341 25.8484 22.1341L26.5098 22.1863C26.5098 22.1863 29.077 22.3342 31.8532 23.5004C34.6293 24.6578 36.4134 26.32 36.4134 26.32L36.3612 26.7726C36.3612 26.7726 32.9932 24.8406 29.5818 24.4751C24.7257 23.9529 22.1497 24.8406 22.1497 24.8406C21.9235 24.9363 21.7755 25.1539 21.7755 25.4063C21.7755 25.7544 22.054 26.0329 22.4021 26.0329C22.4804 26.0329 22.5588 26.0155 22.6284 25.9893L23.255 25.8501C25.2218 25.3976 26.5881 25.0147 29.8864 25.4933C33.1934 25.9719 36.3873 27.7908 36.3873 27.7908L36.335 28.0693C36.335 28.0693 33.6111 26.9205 28.9726 27.2338C24.9346 27.5123 21.3056 29.9055 21.3056 29.9055C21.1837 29.9926 21.1054 30.1318 21.1054 30.2798C21.1054 30.5408 21.3143 30.7497 21.5753 30.7497C21.645 30.7497 21.7146 30.7323 21.7755 30.7062L22.5936 30.184C23.8032 29.5487 25.7004 28.4174 29.6601 28.165C33.6198 27.9126 36.396 29.0179 36.396 29.0179L36.3437 29.4443C36.3437 29.4443 32.9062 29.0005 29.5818 29.8968C25.5438 30.9847 22.7589 33.1864 22.7589 33.1864C22.6371 33.2735 22.5588 33.404 22.5588 33.5607C22.5588 33.8217 22.7676 34.0306 23.0287 34.0306C23.1418 34.0306 23.2376 33.9958 23.3159 33.9262L24.2906 33.2038C25.9267 32.1943 26.8056 31.5068 30.1388 30.7236C33.4632 29.9404 36.3176 30.2188 36.3176 30.2188L36.3437 30.6192C36.3437 30.6192 34.2725 30.6714 30.6957 32.2814C27.1189 33.8914 25.3523 35.9017 25.3523 35.9017C25.2566 35.9887 25.1957 36.1105 25.1957 36.2411C25.1957 36.5022 25.4045 36.711 25.6656 36.711C25.8048 36.711 26.0224 36.5892 26.1094 36.4935L26.6925 36.0148C27.4757 35.3621 28.7115 34.2743 31.0003 33.169C33.2978 32.0551 35.9695 31.6026 35.9695 31.6026L35.9956 31.8288C35.9956 31.8288 34.9774 32.0116 32.4363 33.5955C29.8603 35.2055 28.0327 37.8859 28.0327 37.8859C27.9718 37.9729 27.8152 38.2514 27.8152 38.3645C27.8152 38.6691 28.0675 38.9215 28.3721 38.9215C28.5549 38.9215 28.7115 38.8345 28.816 38.6952L28.9987 38.4515C29.8429 37.1723 30.8524 35.98 31.9837 35.0575C33.4632 33.8391 35.4996 32.8993 36.161 32.7513L36.2915 33.1864C36.2915 33.1864 35.9347 33.2648 35.9434 33.5607C35.9434 33.8565 35.9956 33.8827 36.074 33.9784L36.0566 34.1089C36.0566 34.1089 35.7607 34.0741 35.8303 34.3004L35.7781 34.3352L35.7955 34.4135C35.7955 34.4135 35.5257 34.5441 35.2733 34.8225L35.1863 34.7964L35.1515 34.8312C35.1515 34.8312 35.0732 34.7355 34.9774 34.8573C34.873 34.9792 34.9078 35.0314 34.96 35.0662V35.1184L34.9948 35.1793C34.9948 35.1793 34.8556 35.3447 34.7425 35.8059H34.6554V35.8669C34.6554 35.8669 34.5075 35.8059 34.4988 36.0061C34.4814 36.1976 34.5945 36.1714 34.6032 36.1714L34.6206 36.2324L34.6902 36.2498V36.5718L34.5597 36.7197L32.384 36.5631C32.384 36.5631 32.0533 36.4847 32.2361 36.7545C32.4276 37.0243 33.263 38.3558 33.263 38.3558C33.263 38.3558 33.3413 38.5821 33.5676 38.3819C33.7852 38.1818 34.6032 37.5117 34.6032 37.5117L39.3201 37.5987L40.3731 38.5473L40.4166 38.5908C40.5558 38.7039 40.6777 38.5038 40.6777 38.5038C40.6777 38.5038 41.5566 37.1984 41.7481 36.9286C41.9483 36.6588 41.6089 36.7284 41.6089 36.7284L39.4332 36.8241L39.3027 36.6762L39.3201 36.3542H39.3897L39.4158 36.2846C39.4245 36.2846 39.5376 36.3194 39.5289 36.1279C39.5289 35.9365 39.3723 35.9887 39.3723 35.9887V35.9365H39.2852C39.1895 35.4752 39.0503 35.3099 39.0503 35.3099L39.0938 35.249V35.1881C39.1373 35.1532 39.1721 35.101 39.0764 34.9792C38.9806 34.8573 38.9023 34.9531 38.9023 34.9531L38.8675 34.9183L38.7805 34.9357C38.5368 34.6485 38.2757 34.5179 38.2757 34.5179L38.2931 34.4396L38.2409 34.4048C38.3193 34.1785 38.0147 34.2134 38.0147 34.2134V34.0828C38.0843 33.9871 38.1278 33.9697 38.1452 33.6738C38.1626 33.3779 37.858 33.2909 37.858 33.2909L38.0321 32.8209C38.2583 32.908 39.2069 33.3518 39.2069 33.3518C39.2069 33.3518 41.1563 34.3439 42.2267 35.3273C43.3059 36.3107 44.2545 37.2941 45.0029 38.6604L45.1334 38.8867C45.2292 39.0259 45.3858 39.1129 45.5686 39.1216C45.8732 39.1304 46.1342 38.8954 46.1429 38.5821C46.1429 38.4689 46.0037 38.1818 45.9428 38.0947C45.9428 38.0947 44.2806 35.5362 41.7916 33.7869C39.3027 32.0377 38.093 31.8984 38.093 31.8984L38.1191 31.6722C38.1191 31.6722 40.991 32.2204 43.2449 33.4127" fill="url(#paint4_angular_1523_11424)"/>
<path d="M43.2624 33.404C45.5163 34.5963 46.7173 35.7189 47.4744 36.4064L48.0401 36.9025C48.1184 36.9982 48.336 37.1287 48.4752 37.1287C48.7363 37.1287 48.9452 36.9373 48.9626 36.6762C48.9626 36.537 48.9104 36.4151 48.8146 36.3281C48.8146 36.3281 47.1263 34.2656 43.6018 32.525C40.0772 30.7845 38.0147 30.6627 38.0147 30.6627L38.0495 30.2624C38.0495 30.2624 40.9039 30.0883 44.2022 30.9847C47.5005 31.881 48.3534 32.5947 49.9547 33.6651L50.9033 34.4222C50.9816 34.4918 51.0773 34.5266 51.1905 34.5354C51.4515 34.5441 51.6604 34.3439 51.6691 34.0828C51.6691 33.9262 51.6082 33.7869 51.4864 33.6999C51.4864 33.6999 48.7798 31.4024 44.7766 30.1753C41.4957 29.1658 38.0408 29.4878 38.0408 29.4878L38.006 29.0614C38.006 29.0614 40.8169 28.0519 44.7679 28.4435C48.7189 28.8351 50.5726 30.0361 51.7561 30.7062L52.5568 31.2545C52.6177 31.2893 52.6873 31.3067 52.7569 31.3067C53.018 31.3067 53.2269 31.1152 53.2356 30.8541C53.2356 30.6975 53.166 30.5582 53.0528 30.4712C53.0528 30.4712 49.5022 27.9474 45.4815 27.5297C40.8517 27.0511 38.093 28.1041 38.093 28.1041L38.0495 27.8256C38.0495 27.8256 41.313 26.1199 44.6287 25.7631C47.9444 25.3976 49.302 25.824 51.2514 26.3462L51.8693 26.5028C51.9389 26.5289 52.0085 26.5463 52.0868 26.5463C52.4349 26.555 52.7221 26.2852 52.7308 25.9458C52.7308 25.6935 52.6003 25.4672 52.374 25.3628C52.374 25.3628 49.7023 24.3358 44.9594 24.7362C41.5827 25.0147 38.1191 26.7987 38.1191 26.7987L38.0669 26.3375C38.0669 26.3375 39.9118 24.7362 42.7228 23.6744C45.5337 22.6127 48.1097 22.5518 48.1097 22.5518L48.7711 22.5257C49.067 22.5257 49.3194 22.2994 49.3281 22.0035C49.3368 21.7076 49.1018 21.4553 48.8059 21.4466C48.7798 21.4466 46.23 21.4727 42.9142 22.5518C40.7473 23.2567 38.18 25.0843 38.18 25.0843L38.1191 24.5273C38.1191 24.5273 39.5898 22.8129 40.7299 21.9165C41.8699 21.0201 42.862 20.5067 43.6453 20.0977L44.3328 19.6538C44.3763 19.5842 44.4024 19.5059 44.4111 19.4188C44.4198 19.1665 44.2196 18.9489 43.9586 18.9402C43.8628 18.9402 43.7671 18.9663 43.6801 19.0098C43.6801 19.0098 41.4174 20.1238 40.347 20.994C39.2852 21.8643 38.415 22.9434 38.415 22.9434C38.415 22.9434 37.8928 22.9782 37.9537 22.6214C38.0147 22.2733 38.7196 21.1333 39.2417 20.4458C39.7726 19.7583 40.4427 19.1491 40.4427 19.1491L40.7299 18.8532C40.7821 18.7836 40.8604 18.653 40.8604 18.566C40.8691 18.3049 40.6167 18.0438 40.3557 18.0351C40.2164 18.0351 39.9989 18.0699 39.8422 18.2701C39.8422 18.2701 39.2504 19.0794 38.9807 19.2448C38.9807 19.2448 38.7892 19.3666 38.3541 19.21C37.6753 18.975 38.2061 17.8698 37.2053 17.9655L36.9877 18.0438C36.7267 18.1657 36.8746 18.418 36.5613 18.9576C36.3699 19.2883 35.8738 19.2622 35.8738 19.2622C35.1428 19.297 34.9078 17.8959 34.2986 17.922C34.0375 17.9394 33.8287 18.0699 33.7765 18.3658C33.7591 18.4529 33.8026 18.6095 33.8548 18.6791L34.1159 18.975C34.1159 18.975 34.8382 19.6886 35.3429 20.4022C35.8477 21.1072 36.4743 22.3429 36.5265 22.6997C36.5787 23.0566 36.1523 22.926 36.1523 22.926C36.1523 22.926 35.3168 21.8121 34.2899 20.907C33.2543 20.0019 31.0351 18.8097 31.0351 18.8097C30.9568 18.7574 30.8611 18.7226 30.7653 18.7226C30.5043 18.7226 30.2954 18.9315 30.2954 19.1926C30.2954 19.2796 30.3041 19.4711 30.513 19.5842L31.0351 19.8975C31.8097 20.3239 32.7844 20.8809 33.8896 21.8121C35.0035 22.7433 36.4134 24.5099 36.4134 24.5099L36.335 25.0669C36.335 25.0669 33.8374 23.1523 31.6965 22.369C28.4243 21.1768 25.8658 21.0549 25.8484 21.0549C25.5525 21.0549 25.3088 21.2986 25.3088 21.5945C25.3088 21.8904 25.5525 22.1341 25.8484 22.1341L26.5098 22.1863C26.5098 22.1863 29.077 22.3342 31.8532 23.5004C34.6293 24.6578 36.4134 26.32 36.4134 26.32L36.3612 26.7726C36.3612 26.7726 32.9932 24.8406 29.5818 24.4751C24.7257 23.9529 22.1497 24.8406 22.1497 24.8406C21.9235 24.9363 21.7755 25.1539 21.7755 25.4063C21.7755 25.7544 22.054 26.0329 22.4021 26.0329C22.4804 26.0329 22.5588 26.0155 22.6284 25.9893L23.255 25.8501C25.2218 25.3976 26.5881 25.0147 29.8864 25.4933C33.1934 25.9719 36.3873 27.7908 36.3873 27.7908L36.335 28.0693C36.335 28.0693 33.6111 26.9205 28.9726 27.2338C24.9346 27.5123 21.3056 29.9055 21.3056 29.9055C21.1837 29.9926 21.1054 30.1318 21.1054 30.2798C21.1054 30.5408 21.3143 30.7497 21.5753 30.7497C21.645 30.7497 21.7146 30.7323 21.7755 30.7062L22.5936 30.184C23.8032 29.5487 25.7004 28.4174 29.6601 28.165C33.6198 27.9126 36.396 29.0179 36.396 29.0179L36.3437 29.4443C36.3437 29.4443 32.9062 29.0005 29.5818 29.8968C25.5438 30.9847 22.7589 33.1864 22.7589 33.1864C22.6371 33.2735 22.5588 33.404 22.5588 33.5607C22.5588 33.8217 22.7676 34.0306 23.0287 34.0306C23.1418 34.0306 23.2376 33.9958 23.3159 33.9262L24.2906 33.2038C25.9267 32.1943 26.8056 31.5068 30.1388 30.7236C33.4632 29.9404 36.3176 30.2188 36.3176 30.2188L36.3437 30.6192C36.3437 30.6192 34.2725 30.6714 30.6957 32.2814C27.1189 33.8914 25.3523 35.9017 25.3523 35.9017C25.2566 35.9887 25.1957 36.1105 25.1957 36.2411C25.1957 36.5022 25.4045 36.711 25.6656 36.711C25.8048 36.711 26.0224 36.5892 26.1094 36.4935L26.6925 36.0148C27.4757 35.3621 28.7115 34.2743 31.0003 33.169C33.2978 32.0551 35.9695 31.6026 35.9695 31.6026L35.9956 31.8288C35.9956 31.8288 34.9774 32.0116 32.4363 33.5955C29.8603 35.2055 28.0327 37.8859 28.0327 37.8859C27.9718 37.9729 27.8152 38.2514 27.8152 38.3645C27.8152 38.6691 28.0675 38.9215 28.3721 38.9215C28.5549 38.9215 28.7115 38.8345 28.816 38.6952L28.9987 38.4515C29.8429 37.1723 30.8524 35.98 31.9837 35.0575C33.4632 33.8391 35.4996 32.8993 36.161 32.7513L36.2915 33.1864C36.2915 33.1864 35.9347 33.2648 35.9434 33.5607C35.9434 33.8565 35.9956 33.8827 36.074 33.9784L36.0566 34.1089C36.0566 34.1089 35.7607 34.0741 35.8303 34.3004L35.7781 34.3352L35.7955 34.4135C35.7955 34.4135 35.5257 34.5441 35.2733 34.8225L35.1863 34.7964L35.1515 34.8312C35.1515 34.8312 35.0732 34.7355 34.9774 34.8573C34.873 34.9792 34.9078 35.0314 34.96 35.0662V35.1184L34.9948 35.1793C34.9948 35.1793 34.8556 35.3447 34.7425 35.8059H34.6554V35.8669C34.6554 35.8669 34.5075 35.8059 34.4988 36.0061C34.4814 36.1976 34.5945 36.1714 34.6032 36.1714L34.6206 36.2324L34.6902 36.2498V36.5718L34.5597 36.7197L32.384 36.5631C32.384 36.5631 32.0533 36.4847 32.2361 36.7545C32.4276 37.0243 33.263 38.3558 33.263 38.3558C33.263 38.3558 33.3413 38.5821 33.5676 38.3819C33.7852 38.1818 34.6032 37.5117 34.6032 37.5117L39.3201 37.5987L40.3731 38.5473L40.4166 38.5908C40.5558 38.7039 40.6777 38.5038 40.6777 38.5038C40.6777 38.5038 41.5566 37.1984 41.7481 36.9286C41.9483 36.6588 41.6089 36.7284 41.6089 36.7284L39.4332 36.8241L39.3027 36.6762L39.3201 36.3542H39.3897L39.4158 36.2846C39.4245 36.2846 39.5376 36.3194 39.5289 36.1279C39.5289 35.9365 39.3723 35.9887 39.3723 35.9887V35.9365H39.2852C39.1895 35.4752 39.0503 35.3099 39.0503 35.3099L39.0938 35.249V35.1881C39.1373 35.1532 39.1721 35.101 39.0764 34.9792C38.9806 34.8573 38.9023 34.9531 38.9023 34.9531L38.8675 34.9183L38.7805 34.9357C38.5368 34.6485 38.2757 34.5179 38.2757 34.5179L38.2931 34.4396L38.2409 34.4048C38.3193 34.1785 38.0147 34.2134 38.0147 34.2134V34.0828C38.0843 33.9871 38.1278 33.9697 38.1452 33.6738C38.1626 33.3779 37.858 33.2909 37.858 33.2909L38.0321 32.8209C38.2583 32.908 39.2069 33.3518 39.2069 33.3518C39.2069 33.3518 41.1563 34.3439 42.2267 35.3273C43.3059 36.3107 44.2545 37.2941 45.0029 38.6604L45.1334 38.8867C45.2292 39.0259 45.3858 39.1129 45.5686 39.1216C45.8732 39.1304 46.1342 38.8954 46.1429 38.5821C46.1429 38.4689 46.0037 38.1818 45.9428 38.0947C45.9428 38.0947 44.2806 35.5362 41.7916 33.7869C39.3027 32.0377 38.093 31.8984 38.093 31.8984L38.1191 31.6722C38.1191 31.6722 40.991 32.2204 43.2449 33.4127" fill="#002D31" fill-opacity="0.2"/>
<path d="M43.2624 33.404C45.5163 34.5963 46.7173 35.7189 47.4744 36.4064L48.0401 36.9025C48.1184 36.9982 48.336 37.1287 48.4752 37.1287C48.7363 37.1287 48.9452 36.9373 48.9626 36.6762C48.9626 36.537 48.9104 36.4151 48.8146 36.3281C48.8146 36.3281 47.1263 34.2656 43.6018 32.525C40.0772 30.7845 38.0147 30.6627 38.0147 30.6627L38.0495 30.2624C38.0495 30.2624 40.9039 30.0883 44.2022 30.9847C47.5005 31.881 48.3534 32.5947 49.9547 33.6651L50.9033 34.4222C50.9816 34.4918 51.0773 34.5266 51.1905 34.5354C51.4515 34.5441 51.6604 34.3439 51.6691 34.0828C51.6691 33.9262 51.6082 33.7869 51.4864 33.6999C51.4864 33.6999 48.7798 31.4024 44.7766 30.1753C41.4957 29.1658 38.0408 29.4878 38.0408 29.4878L38.006 29.0614C38.006 29.0614 40.8169 28.0519 44.7679 28.4435C48.7189 28.8351 50.5726 30.0361 51.7561 30.7062L52.5568 31.2545C52.6177 31.2893 52.6873 31.3067 52.7569 31.3067C53.018 31.3067 53.2269 31.1152 53.2356 30.8541C53.2356 30.6975 53.166 30.5582 53.0528 30.4712C53.0528 30.4712 49.5022 27.9474 45.4815 27.5297C40.8517 27.0511 38.093 28.1041 38.093 28.1041L38.0495 27.8256C38.0495 27.8256 41.313 26.1199 44.6287 25.7631C47.9444 25.3976 49.302 25.824 51.2514 26.3462L51.8693 26.5028C51.9389 26.5289 52.0085 26.5463 52.0868 26.5463C52.4349 26.555 52.7221 26.2852 52.7308 25.9458C52.7308 25.6935 52.6003 25.4672 52.374 25.3628C52.374 25.3628 49.7023 24.3358 44.9594 24.7362C41.5827 25.0147 38.1191 26.7987 38.1191 26.7987L38.0669 26.3375C38.0669 26.3375 39.9118 24.7362 42.7228 23.6744C45.5337 22.6127 48.1097 22.5518 48.1097 22.5518L48.7711 22.5257C49.067 22.5257 49.3194 22.2994 49.3281 22.0035C49.3368 21.7076 49.1018 21.4553 48.8059 21.4466C48.7798 21.4466 46.23 21.4727 42.9142 22.5518C40.7473 23.2567 38.18 25.0843 38.18 25.0843L38.1191 24.5273C38.1191 24.5273 39.5898 22.8129 40.7299 21.9165C41.8699 21.0201 42.862 20.5067 43.6453 20.0977L44.3328 19.6538C44.3763 19.5842 44.4024 19.5059 44.4111 19.4188C44.4198 19.1665 44.2196 18.9489 43.9586 18.9402C43.8628 18.9402 43.7671 18.9663 43.6801 19.0098C43.6801 19.0098 41.4174 20.1238 40.347 20.994C39.2852 21.8643 38.415 22.9434 38.415 22.9434C38.415 22.9434 37.8928 22.9782 37.9537 22.6214C38.0147 22.2733 38.7196 21.1333 39.2417 20.4458C39.7726 19.7583 40.4427 19.1491 40.4427 19.1491L40.7299 18.8532C40.7821 18.7836 40.8604 18.653 40.8604 18.566C40.8691 18.3049 40.6167 18.0438 40.3557 18.0351C40.2164 18.0351 39.9989 18.0699 39.8422 18.2701C39.8422 18.2701 39.2504 19.0794 38.9807 19.2448C38.9807 19.2448 38.7892 19.3666 38.3541 19.21C37.6753 18.975 38.2061 17.8698 37.2053 17.9655L36.9877 18.0438C36.7267 18.1657 36.8746 18.418 36.5613 18.9576C36.3699 19.2883 35.8738 19.2622 35.8738 19.2622C35.1428 19.297 34.9078 17.8959 34.2986 17.922C34.0375 17.9394 33.8287 18.0699 33.7765 18.3658C33.7591 18.4529 33.8026 18.6095 33.8548 18.6791L34.1159 18.975C34.1159 18.975 34.8382 19.6886 35.3429 20.4022C35.8477 21.1072 36.4743 22.3429 36.5265 22.6997C36.5787 23.0566 36.1523 22.926 36.1523 22.926C36.1523 22.926 35.3168 21.8121 34.2899 20.907C33.2543 20.0019 31.0351 18.8097 31.0351 18.8097C30.9568 18.7574 30.8611 18.7226 30.7653 18.7226C30.5043 18.7226 30.2954 18.9315 30.2954 19.1926C30.2954 19.2796 30.3041 19.4711 30.513 19.5842L31.0351 19.8975C31.8097 20.3239 32.7844 20.8809 33.8896 21.8121C35.0035 22.7433 36.4134 24.5099 36.4134 24.5099L36.335 25.0669C36.335 25.0669 33.8374 23.1523 31.6965 22.369C28.4243 21.1768 25.8658 21.0549 25.8484 21.0549C25.5525 21.0549 25.3088 21.2986 25.3088 21.5945C25.3088 21.8904 25.5525 22.1341 25.8484 22.1341L26.5098 22.1863C26.5098 22.1863 29.077 22.3342 31.8532 23.5004C34.6293 24.6578 36.4134 26.32 36.4134 26.32L36.3612 26.7726C36.3612 26.7726 32.9932 24.8406 29.5818 24.4751C24.7257 23.9529 22.1497 24.8406 22.1497 24.8406C21.9235 24.9363 21.7755 25.1539 21.7755 25.4063C21.7755 25.7544 22.054 26.0329 22.4021 26.0329C22.4804 26.0329 22.5588 26.0155 22.6284 25.9893L23.255 25.8501C25.2218 25.3976 26.5881 25.0147 29.8864 25.4933C33.1934 25.9719 36.3873 27.7908 36.3873 27.7908L36.335 28.0693C36.335 28.0693 33.6111 26.9205 28.9726 27.2338C24.9346 27.5123 21.3056 29.9055 21.3056 29.9055C21.1837 29.9926 21.1054 30.1318 21.1054 30.2798C21.1054 30.5408 21.3143 30.7497 21.5753 30.7497C21.645 30.7497 21.7146 30.7323 21.7755 30.7062L22.5936 30.184C23.8032 29.5487 25.7004 28.4174 29.6601 28.165C33.6198 27.9126 36.396 29.0179 36.396 29.0179L36.3437 29.4443C36.3437 29.4443 32.9062 29.0005 29.5818 29.8968C25.5438 30.9847 22.7589 33.1864 22.7589 33.1864C22.6371 33.2735 22.5588 33.404 22.5588 33.5607C22.5588 33.8217 22.7676 34.0306 23.0287 34.0306C23.1418 34.0306 23.2376 33.9958 23.3159 33.9262L24.2906 33.2038C25.9267 32.1943 26.8056 31.5068 30.1388 30.7236C33.4632 29.9404 36.3176 30.2188 36.3176 30.2188L36.3437 30.6192C36.3437 30.6192 34.2725 30.6714 30.6957 32.2814C27.1189 33.8914 25.3523 35.9017 25.3523 35.9017C25.2566 35.9887 25.1957 36.1105 25.1957 36.2411C25.1957 36.5022 25.4045 36.711 25.6656 36.711C25.8048 36.711 26.0224 36.5892 26.1094 36.4935L26.6925 36.0148C27.4757 35.3621 28.7115 34.2743 31.0003 33.169C33.2978 32.0551 35.9695 31.6026 35.9695 31.6026L35.9956 31.8288C35.9956 31.8288 34.9774 32.0116 32.4363 33.5955C29.8603 35.2055 28.0327 37.8859 28.0327 37.8859C27.9718 37.9729 27.8152 38.2514 27.8152 38.3645C27.8152 38.6691 28.0675 38.9215 28.3721 38.9215C28.5549 38.9215 28.7115 38.8345 28.816 38.6952L28.9987 38.4515C29.8429 37.1723 30.8524 35.98 31.9837 35.0575C33.4632 33.8391 35.4996 32.8993 36.161 32.7513L36.2915 33.1864C36.2915 33.1864 35.9347 33.2648 35.9434 33.5607C35.9434 33.8565 35.9956 33.8827 36.074 33.9784L36.0566 34.1089C36.0566 34.1089 35.7607 34.0741 35.8303 34.3004L35.7781 34.3352L35.7955 34.4135C35.7955 34.4135 35.5257 34.5441 35.2733 34.8225L35.1863 34.7964L35.1515 34.8312C35.1515 34.8312 35.0732 34.7355 34.9774 34.8573C34.873 34.9792 34.9078 35.0314 34.96 35.0662V35.1184L34.9948 35.1793C34.9948 35.1793 34.8556 35.3447 34.7425 35.8059H34.6554V35.8669C34.6554 35.8669 34.5075 35.8059 34.4988 36.0061C34.4814 36.1976 34.5945 36.1714 34.6032 36.1714L34.6206 36.2324L34.6902 36.2498V36.5718L34.5597 36.7197L32.384 36.5631C32.384 36.5631 32.0533 36.4847 32.2361 36.7545C32.4276 37.0243 33.263 38.3558 33.263 38.3558C33.263 38.3558 33.3413 38.5821 33.5676 38.3819C33.7852 38.1818 34.6032 37.5117 34.6032 37.5117L39.3201 37.5987L40.3731 38.5473L40.4166 38.5908C40.5558 38.7039 40.6777 38.5038 40.6777 38.5038C40.6777 38.5038 41.5566 37.1984 41.7481 36.9286C41.9483 36.6588 41.6089 36.7284 41.6089 36.7284L39.4332 36.8241L39.3027 36.6762L39.3201 36.3542H39.3897L39.4158 36.2846C39.4245 36.2846 39.5376 36.3194 39.5289 36.1279C39.5289 35.9365 39.3723 35.9887 39.3723 35.9887V35.9365H39.2852C39.1895 35.4752 39.0503 35.3099 39.0503 35.3099L39.0938 35.249V35.1881C39.1373 35.1532 39.1721 35.101 39.0764 34.9792C38.9806 34.8573 38.9023 34.9531 38.9023 34.9531L38.8675 34.9183L38.7805 34.9357C38.5368 34.6485 38.2757 34.5179 38.2757 34.5179L38.2931 34.4396L38.2409 34.4048C38.3193 34.1785 38.0147 34.2134 38.0147 34.2134V34.0828C38.0843 33.9871 38.1278 33.9697 38.1452 33.6738C38.1626 33.3779 37.858 33.2909 37.858 33.2909L38.0321 32.8209C38.2583 32.908 39.2069 33.3518 39.2069 33.3518C39.2069 33.3518 41.1563 34.3439 42.2267 35.3273C43.3059 36.3107 44.2545 37.2941 45.0029 38.6604L45.1334 38.8867C45.2292 39.0259 45.3858 39.1129 45.5686 39.1216C45.8732 39.1304 46.1342 38.8954 46.1429 38.5821C46.1429 38.4689 46.0037 38.1818 45.9428 38.0947C45.9428 38.0947 44.2806 35.5362 41.7916 33.7869C39.3027 32.0377 38.093 31.8984 38.093 31.8984L38.1191 31.6722C38.1191 31.6722 40.991 32.2204 43.2449 33.4127" fill="black" fill-opacity="0.2"/>
</g>
<defs>
<radialGradient id="paint0_angular_1523_11424" cx="0" cy="0" r="1" gradientUnits="userSpaceOnUse" gradientTransform="translate(20.8094 35.2286) rotate(64.482) scale(7.2894 6.052)">
<stop offset="0.0940427" stop-color="#248F99"/>
<stop offset="0.247062" stop-color="#00464D"/>
<stop offset="0.472333" stop-color="#248F99"/>
<stop offset="0.654785" stop-color="#00464D"/>
<stop offset="0.818154" stop-color="#008D99"/>
<stop offset="0.947734" stop-color="#04474D"/>
</radialGradient>
<radialGradient id="paint1_angular_1523_11424" cx="0" cy="0" r="1" gradientUnits="userSpaceOnUse" gradientTransform="translate(37.3902 20.3479) rotate(29.9306) scale(14.305 13.2097)">
<stop offset="0.0940427" stop-color="#248F99"/>
<stop offset="0.247062" stop-color="#00464D"/>
<stop offset="0.472333" stop-color="#248F99"/>
<stop offset="0.654785" stop-color="#00464D"/>
<stop offset="0.818154" stop-color="#008D99"/>
<stop offset="0.947734" stop-color="#04474D"/>
</radialGradient>
<radialGradient id="paint2_angular_1523_11424" cx="0" cy="0" r="1" gradientUnits="userSpaceOnUse" gradientTransform="translate(53.303 36.9161) rotate(59.491) scale(6.45932 6.03345)">
<stop offset="0.0940427" stop-color="#248F99"/>
<stop offset="0.247062" stop-color="#00464D"/>
<stop offset="0.472333" stop-color="#248F99"/>
<stop offset="0.654785" stop-color="#00464D"/>
<stop offset="0.818154" stop-color="#008D99"/>
<stop offset="0.947734" stop-color="#04474D"/>
</radialGradient>
<radialGradient id="paint3_angular_1523_11424" cx="0" cy="0" r="1" gradientUnits="userSpaceOnUse" gradientTransform="translate(36.8098 45.1181) rotate(77.3067) scale(6.27122 2.87088)">
<stop offset="0.0940427" stop-color="#248F99"/>
<stop offset="0.247062" stop-color="#00464D"/>
<stop offset="0.472333" stop-color="#248F99"/>
<stop offset="0.654785" stop-color="#00464D"/>
<stop offset="0.818154" stop-color="#008D99"/>
<stop offset="0.947734" stop-color="#04474D"/>
</radialGradient>
<radialGradient id="paint4_angular_1523_11424" cx="0" cy="0" r="1" gradientUnits="userSpaceOnUse" gradientTransform="translate(37.1705 28.1712) rotate(43.5787) scale(12.605 13.4429)">
<stop offset="0.0940427" stop-color="#248F99"/>
<stop offset="0.247062" stop-color="#00464D"/>
<stop offset="0.472333" stop-color="#248F99"/>
<stop offset="0.654785" stop-color="#00464D"/>
<stop offset="0.818154" stop-color="#008D99"/>
<stop offset="0.947734" stop-color="#04474D"/>
</radialGradient>
</defs>
</svg>
