<svg width="36" height="27" viewBox="0 0 36 27" fill="none" xmlns="http://www.w3.org/2000/svg">
<path d="M2.06819 19.5108C2.06819 19.19 2.12664 18.8733 2.24771 18.5525L2.30615 18.4455C2.77791 17.4872 3.78821 16.8456 5.02813 16.8456H31.4338C32.4984 16.8456 33.3876 17.3268 33.922 18.0713L34.3353 19.1365C34.3353 19.2435 34.3937 19.4039 34.3937 19.5108V22.176H2.06819V19.5108ZM6.33067 6.92929C6.33067 3.99676 8.9942 1.59891 12.2505 1.59891H24.2072C27.4635 1.59891 30.1271 3.99676 30.1271 6.92929V8.58269H26.4574V5.06201C26.4574 4.7412 26.2195 4.52733 25.8646 4.52733H10.5931C10.2383 4.52733 10.0003 4.7412 10.0003 5.06201V8.58269H6.33067V6.92929ZM17.6402 10.7132H11.186V5.59258H17.6402V10.7132ZM25.2759 10.7132H18.8217V5.59258H25.2759V10.7132ZM5.97581 9.64795H10.0003V11.2479C10.0003 11.5687 10.2383 11.7826 10.5931 11.7826H25.8688C26.2236 11.7826 26.4616 11.5687 26.4616 11.2479V9.64795H30.4861L33.0912 16.1012C32.5568 15.8873 32.0266 15.7804 31.3753 15.7804H5.0323C4.38103 15.7804 3.78821 15.8873 3.25384 16.1546L5.97581 9.64795ZM35.5168 18.9802V18.9268C35.4583 18.4455 35.2788 18.0219 34.9824 17.6476L31.3127 8.58269V6.92929C31.3169 3.4086 28.119 0.529541 24.2114 0.529541H12.2505C8.34293 0.529541 5.14502 3.4086 5.14502 6.92929V8.58269L1.24158 18.0713C1.18313 18.1782 1.12468 18.3386 1.06624 18.4455L0.886719 18.7664V26.5522H2.07236V23.2454H34.3979V26.5522H35.5836V19.2476C35.5836 19.1406 35.5836 19.0872 35.5251 18.9802H35.5168Z" fill="url(#paint0_linear_823_3627)"/>
<defs>
<linearGradient id="paint0_linear_823_3627" x1="0.886719" y1="0.999999" x2="37.7468" y2="7.80818" gradientUnits="userSpaceOnUse">
<stop offset="0.158241" stop-color="#002D31"/>
<stop offset="0.32869" stop-color="#005961"/>
<stop offset="0.509791" stop-color="#00818C"/>
<stop offset="0.786145" stop-color="#005961"/>
<stop offset="0.988044" stop-color="#002D31"/>
</linearGradient>
</defs>
</svg>
