<svg width="35" height="28" viewBox="0 0 35 28" fill="none" xmlns="http://www.w3.org/2000/svg">
<path d="M1.18147 19.9793C1.18147 19.6585 1.23992 19.3418 1.36099 19.021L1.41943 18.9141C1.89119 17.9557 2.90149 17.3141 4.14141 17.3141H30.5471C31.6116 17.3141 32.5009 17.7953 33.0353 18.5398L33.4486 19.605C33.4486 19.712 33.507 19.8724 33.507 19.9793V22.6445H1.18147V19.9793ZM5.44395 7.39779C5.44395 4.46526 8.10748 2.06741 11.3638 2.06741H23.3205C26.5768 2.06741 29.2404 4.46526 29.2404 7.39779V9.0512H25.5707V5.53052C25.5707 5.20971 25.3327 4.99583 24.9779 4.99583H9.70643C9.35157 4.99583 9.11361 5.20971 9.11361 5.53052V9.0512H5.44395V7.39779ZM16.7535 11.1817H10.2993V6.06109H16.7535V11.1817ZM24.3892 11.1817H17.935V6.06109H24.3892V11.1817ZM5.08909 10.1165H9.11361V11.7164C9.11361 12.0372 9.35157 12.2511 9.70643 12.2511H24.9821C25.3369 12.2511 25.5749 12.0372 25.5749 11.7164V10.1165H29.5994L32.2045 16.5697C31.6701 16.3558 31.1399 16.2489 30.4886 16.2489H4.14558C3.49431 16.2489 2.90149 16.3558 2.36712 16.6231L5.08909 10.1165ZM34.63 19.4487V19.3953C34.5716 18.9141 34.3921 18.4904 34.0957 18.1161L30.426 9.0512V7.39779C30.4302 3.87711 27.2323 0.998047 23.3247 0.998047H11.3638C7.45621 0.998047 4.2583 3.87711 4.2583 7.39779V9.0512L0.354859 18.5398C0.296411 18.6467 0.237964 18.8071 0.179517 18.9141L0 19.2349V27.0207H1.18565V23.7139H33.5112V27.0207H34.6968V19.7161C34.6968 19.6091 34.6968 19.5557 34.6384 19.4487H34.63Z" fill="url(#paint0_linear_807_4959)"/>
<path d="M1.18147 19.9793C1.18147 19.6585 1.23992 19.3418 1.36099 19.021L1.41943 18.9141C1.89119 17.9557 2.90149 17.3141 4.14141 17.3141H30.5471C31.6116 17.3141 32.5009 17.7953 33.0353 18.5398L33.4486 19.605C33.4486 19.712 33.507 19.8724 33.507 19.9793V22.6445H1.18147V19.9793ZM5.44395 7.39779C5.44395 4.46526 8.10748 2.06741 11.3638 2.06741H23.3205C26.5768 2.06741 29.2404 4.46526 29.2404 7.39779V9.0512H25.5707V5.53052C25.5707 5.20971 25.3327 4.99583 24.9779 4.99583H9.70643C9.35157 4.99583 9.11361 5.20971 9.11361 5.53052V9.0512H5.44395V7.39779ZM16.7535 11.1817H10.2993V6.06109H16.7535V11.1817ZM24.3892 11.1817H17.935V6.06109H24.3892V11.1817ZM5.08909 10.1165H9.11361V11.7164C9.11361 12.0372 9.35157 12.2511 9.70643 12.2511H24.9821C25.3369 12.2511 25.5749 12.0372 25.5749 11.7164V10.1165H29.5994L32.2045 16.5697C31.6701 16.3558 31.1399 16.2489 30.4886 16.2489H4.14558C3.49431 16.2489 2.90149 16.3558 2.36712 16.6231L5.08909 10.1165ZM34.63 19.4487V19.3953C34.5716 18.9141 34.3921 18.4904 34.0957 18.1161L30.426 9.0512V7.39779C30.4302 3.87711 27.2323 0.998047 23.3247 0.998047H11.3638C7.45621 0.998047 4.2583 3.87711 4.2583 7.39779V9.0512L0.354859 18.5398C0.296411 18.6467 0.237964 18.8071 0.179517 18.9141L0 19.2349V27.0207H1.18565V23.7139H33.5112V27.0207H34.6968V19.7161C34.6968 19.6091 34.6968 19.5557 34.6384 19.4487H34.63Z" fill="#E6EDED"/>
<defs>
<linearGradient id="paint0_linear_807_4959" x1="6.60419" y1="5.15869" x2="23.364" y2="28.0092" gradientUnits="userSpaceOnUse">
<stop offset="0.158241" stop-color="#003B40"/>
<stop offset="0.32869" stop-color="#005961"/>
<stop offset="0.509791" stop-color="#00818C"/>
<stop offset="0.685566" stop-color="#005961"/>
<stop offset="0.898627" stop-color="#003B40"/>
</linearGradient>
</defs>
</svg>
