<svg width="61" height="60" viewBox="0 0 61 60" fill="none" xmlns="http://www.w3.org/2000/svg">
<path d="M44.7597 5.02879C44.5782 3.76702 43.9023 2.62897 42.8807 1.86502C41.8592 1.10107 40.5756 0.773795 39.3125 0.955174C38.0494 1.13655 36.9101 1.81174 36.1454 2.8322C35.3806 3.85266 35.0529 5.1348 35.2345 6.39657L44.7597 5.02879Z" fill="#7D9699"/>
<path d="M15.2964 5.02886C15.3678 4.38881 15.5673 3.76963 15.883 3.20811C16.1987 2.64659 16.6242 2.15417 17.1341 1.76011C17.644 1.36605 18.228 1.07838 18.8514 0.914192C19.4748 0.750001 20.1249 0.712642 20.763 0.804328C21.4012 0.896014 22.0144 1.11488 22.5662 1.44792C23.118 1.78096 23.5971 2.22138 23.9752 2.74303C24.3533 3.26468 24.6226 3.85692 24.767 4.48455C24.9115 5.11219 24.9282 5.76242 24.8162 6.39664L15.2964 5.02886Z" fill="#7D9699"/>
<path d="M30.0882 40.278C31.9623 40.278 33.4815 38.7604 33.4815 36.8883C33.4815 35.0162 31.9623 33.4985 30.0882 33.4985C28.2141 33.4985 26.6948 35.0162 26.6948 36.8883C26.6948 38.7604 28.2141 40.278 30.0882 40.278Z" fill="white"/>
<path d="M33.2533 21.48C33.2533 20.6413 32.9198 19.8368 32.326 19.2437C31.7323 18.6506 30.927 18.3174 30.0873 18.3174C29.2476 18.3174 28.4423 18.6506 27.8485 19.2437C27.2548 19.8368 26.9212 20.6413 26.9212 21.48L26.813 36.8987C26.813 36.0628 27.1454 35.2611 27.7371 34.67C28.3289 34.0789 29.1314 33.7469 29.9682 33.7469C30.805 33.7469 31.6076 34.0789 32.1993 34.67C32.791 35.2611 33.1234 36.0628 33.1234 36.8987L33.2533 21.48Z" fill="#7D9699"/>
<path d="M18.9005 4.63946C16.9863 4.60009 15.1169 5.22114 13.6076 6.39796C12.0983 7.57478 11.0413 9.23539 10.6147 11.0999L2.56152 39.8612C3.99583 37.4041 6.20566 35.4918 8.84474 34.4239C11.4838 33.356 14.403 33.1929 17.1448 33.9602C19.8867 34.7274 22.2962 36.3817 23.9958 38.6637C25.6955 40.9457 26.5892 43.7266 26.5369 46.5704L27.0781 13.1003C27.0975 12.0083 26.9013 10.9232 26.5008 9.907C26.1003 8.89079 25.5033 7.96334 24.7439 7.17765C23.9845 6.39196 23.0776 5.76342 22.075 5.32791C21.0723 4.8924 19.9936 4.65846 18.9005 4.63946Z" fill="#E6EDED"/>
<path d="M2.56204 39.8618C1.45507 41.756 0.853193 43.9022 0.813965 46.0952L2.56204 39.8618Z" fill="white"/>
<path d="M41.2048 4.63965C43.1169 4.6038 44.9832 5.22639 46.4901 6.40284C47.997 7.57929 49.0526 9.23792 49.4798 11.1001L57.5492 39.8614C56.1149 37.4043 53.905 35.492 51.2659 34.4241C48.6269 33.3562 45.7077 33.1931 42.9659 33.9604C40.224 34.7276 37.8145 36.3819 36.1148 38.6639C34.4152 40.9459 33.5215 43.7267 33.5738 46.5706L33.0326 13.1004C32.9935 10.896 33.8324 8.76637 35.3649 7.17974C36.8974 5.59311 38.998 4.67944 41.2048 4.63965Z" fill="#E6EDED"/>
<path d="M57.5483 39.8618C58.6559 41.7555 59.2561 43.9023 59.291 46.0952L57.5483 39.8618Z" fill="white"/>
<path d="M46.519 59.0161C53.573 59.0161 59.2914 53.3038 59.2914 46.2573C59.2914 39.2108 53.573 33.4985 46.519 33.4985C39.465 33.4985 33.7466 39.2108 33.7466 46.2573C33.7466 53.3038 39.465 59.0161 46.519 59.0161Z" fill="#CCD9D9"/>
<path d="M13.6728 59.0161C20.7269 59.0161 26.4453 53.3038 26.4453 46.2573C26.4453 39.2108 20.7269 33.4985 13.6728 33.4985C6.61881 33.4985 0.900391 39.2108 0.900391 46.2573C0.900391 53.3038 6.61881 59.0161 13.6728 59.0161Z" fill="#CCD9D9"/>
<path d="M46.5132 59.9995C42.9284 59.9677 39.4993 58.531 36.9643 55.9987C34.4293 53.4665 32.991 50.0411 32.959 46.46C32.9271 42.879 34.3041 39.4286 36.7936 36.8516C39.2831 34.2747 42.686 32.7772 46.2697 32.6816H46.5241C50.1054 32.6866 53.5422 34.093 56.0978 36.5993C58.6533 39.1056 60.1241 42.5124 60.1949 46.0892C60.2572 49.7105 58.8792 53.2086 56.363 55.8163C53.8469 58.424 50.3981 59.9284 46.773 59.9995H46.5132ZM46.5132 34.3035H46.286C43.9035 34.3495 41.5882 35.1003 39.6329 36.4608C37.6776 37.8213 36.1702 39.7306 35.3012 41.947C34.4322 44.1634 34.2408 46.5875 34.751 48.9126C35.2613 51.2377 36.4504 53.3595 38.1679 55.0095C39.3025 56.1128 40.6461 56.979 42.1199 57.5574C43.5938 58.1357 45.1683 58.4146 46.7514 58.3776C49.9458 58.3137 52.9844 56.987 55.2012 54.6886C57.4179 52.3901 58.6318 49.3073 58.5767 46.1162C58.513 42.9639 57.2156 39.962 54.9627 37.7539C52.7097 35.5457 49.6804 34.3071 46.5241 34.3035H46.5132Z" fill="#283133"/>
<path d="M32.3286 13.9114V13.1005C32.2825 10.8402 33.078 8.64322 34.561 6.93535C36.0439 5.22749 38.1087 4.13029 40.3552 3.85633C42.6017 3.58238 44.8701 4.15117 46.7208 5.45252C48.5714 6.75387 49.8727 8.69512 50.3723 10.9001L50.5563 11.6895L48.9706 12.0463L48.792 11.2569C48.3731 9.45028 47.2999 7.86235 45.7789 6.79901C44.2579 5.73566 42.3969 5.27212 40.5542 5.49768C38.7115 5.72324 37.0175 6.62193 35.7986 8.02066C34.5797 9.41939 33.9219 11.2192 33.9522 13.0735V13.8844L32.3286 13.9114Z" fill="#283133"/>
<path d="M50.122 10.0974L48.562 10.5469L57.3681 41.0437L58.9281 40.5942L50.122 10.0974Z" fill="#283133"/>
<path d="M33.9237 12.2749L32.3003 12.3013L32.8732 47.5563L34.4966 47.5299L33.9237 12.2749Z" fill="#283133"/>
<path d="M46.5132 59.9995C42.9284 59.9677 39.4993 58.531 36.9643 55.9987C34.4293 53.4665 32.991 50.0411 32.959 46.46C32.9271 42.879 34.3041 39.4286 36.7936 36.8516C39.2831 34.2747 42.686 32.7772 46.2697 32.6816H46.5241C50.1054 32.6866 53.5422 34.093 56.0978 36.5993C58.6533 39.1056 60.1241 42.5124 60.1949 46.0892C60.2572 49.7105 58.8792 53.2086 56.363 55.8163C53.8469 58.424 50.3981 59.9284 46.773 59.9995H46.5132ZM46.5132 34.3035H46.286C43.9035 34.3495 41.5882 35.1003 39.6329 36.4608C37.6776 37.8213 36.1702 39.7306 35.3012 41.947C34.4322 44.1634 34.2408 46.5875 34.751 48.9126C35.2613 51.2377 36.4504 53.3595 38.1679 55.0095C39.3025 56.1128 40.6461 56.979 42.1199 57.5574C43.5938 58.1357 45.1683 58.4146 46.7514 58.3776C49.9458 58.3137 52.9844 56.987 55.2012 54.6886C57.4179 52.3901 58.6318 49.3073 58.5767 46.1162C58.513 42.9639 57.2156 39.962 54.9627 37.7539C52.7097 35.5457 49.6804 34.3071 46.5241 34.3035H46.5132Z" fill="url(#paint0_angular_815_6357)"/>
<path d="M46.5132 59.9995C42.9284 59.9677 39.4993 58.531 36.9643 55.9987C34.4293 53.4665 32.991 50.0411 32.959 46.46C32.9271 42.879 34.3041 39.4286 36.7936 36.8516C39.2831 34.2747 42.686 32.7772 46.2697 32.6816H46.5241C50.1054 32.6866 53.5422 34.093 56.0978 36.5993C58.6533 39.1056 60.1241 42.5124 60.1949 46.0892C60.2572 49.7105 58.8792 53.2086 56.363 55.8163C53.8469 58.424 50.3981 59.9284 46.773 59.9995H46.5132ZM46.5132 34.3035H46.286C43.9035 34.3495 41.5882 35.1003 39.6329 36.4608C37.6776 37.8213 36.1702 39.7306 35.3012 41.947C34.4322 44.1634 34.2408 46.5875 34.751 48.9126C35.2613 51.2377 36.4504 53.3595 38.1679 55.0095C39.3025 56.1128 40.6461 56.979 42.1199 57.5574C43.5938 58.1357 45.1683 58.4146 46.7514 58.3776C49.9458 58.3137 52.9844 56.987 55.2012 54.6886C57.4179 52.3901 58.6318 49.3073 58.5767 46.1162C58.513 42.9639 57.2156 39.962 54.9627 37.7539C52.7097 35.5457 49.6804 34.3071 46.5241 34.3035H46.5132Z" fill="#002D31" fill-opacity="0.2"/>
<path d="M46.5132 59.9995C42.9284 59.9677 39.4993 58.531 36.9643 55.9987C34.4293 53.4665 32.991 50.0411 32.959 46.46C32.9271 42.879 34.3041 39.4286 36.7936 36.8516C39.2831 34.2747 42.686 32.7772 46.2697 32.6816H46.5241C50.1054 32.6866 53.5422 34.093 56.0978 36.5993C58.6533 39.1056 60.1241 42.5124 60.1949 46.0892C60.2572 49.7105 58.8792 53.2086 56.363 55.8163C53.8469 58.424 50.3981 59.9284 46.773 59.9995H46.5132ZM46.5132 34.3035H46.286C43.9035 34.3495 41.5882 35.1003 39.6329 36.4608C37.6776 37.8213 36.1702 39.7306 35.3012 41.947C34.4322 44.1634 34.2408 46.5875 34.751 48.9126C35.2613 51.2377 36.4504 53.3595 38.1679 55.0095C39.3025 56.1128 40.6461 56.979 42.1199 57.5574C43.5938 58.1357 45.1683 58.4146 46.7514 58.3776C49.9458 58.3137 52.9844 56.987 55.2012 54.6886C57.4179 52.3901 58.6318 49.3073 58.5767 46.1162C58.513 42.9639 57.2156 39.962 54.9627 37.7539C52.7097 35.5457 49.6804 34.3071 46.5241 34.3035H46.5132Z" fill="black" fill-opacity="0.2"/>
<path d="M32.3286 13.9114V13.1005C32.2825 10.8402 33.078 8.64322 34.561 6.93535C36.0439 5.22749 38.1087 4.13029 40.3552 3.85633C42.6017 3.58238 44.8701 4.15117 46.7208 5.45252C48.5714 6.75387 49.8727 8.69512 50.3723 10.9001L50.5563 11.6895L48.9706 12.0463L48.792 11.2569C48.3731 9.45028 47.2999 7.86235 45.7789 6.79901C44.2579 5.73566 42.3969 5.27212 40.5542 5.49768C38.7115 5.72324 37.0175 6.62193 35.7986 8.02066C34.5797 9.41939 33.9219 11.2192 33.9522 13.0735V13.8844L32.3286 13.9114Z" fill="url(#paint1_angular_815_6357)"/>
<path d="M32.3286 13.9114V13.1005C32.2825 10.8402 33.078 8.64322 34.561 6.93535C36.0439 5.22749 38.1087 4.13029 40.3552 3.85633C42.6017 3.58238 44.8701 4.15117 46.7208 5.45252C48.5714 6.75387 49.8727 8.69512 50.3723 10.9001L50.5563 11.6895L48.9706 12.0463L48.792 11.2569C48.3731 9.45028 47.2999 7.86235 45.7789 6.79901C44.2579 5.73566 42.3969 5.27212 40.5542 5.49768C38.7115 5.72324 37.0175 6.62193 35.7986 8.02066C34.5797 9.41939 33.9219 11.2192 33.9522 13.0735V13.8844L32.3286 13.9114Z" fill="#002D31" fill-opacity="0.2"/>
<path d="M32.3286 13.9114V13.1005C32.2825 10.8402 33.078 8.64322 34.561 6.93535C36.0439 5.22749 38.1087 4.13029 40.3552 3.85633C42.6017 3.58238 44.8701 4.15117 46.7208 5.45252C48.5714 6.75387 49.8727 8.69512 50.3723 10.9001L50.5563 11.6895L48.9706 12.0463L48.792 11.2569C48.3731 9.45028 47.2999 7.86235 45.7789 6.79901C44.2579 5.73566 42.3969 5.27212 40.5542 5.49768C38.7115 5.72324 37.0175 6.62193 35.7986 8.02066C34.5797 9.41939 33.9219 11.2192 33.9522 13.0735V13.8844L32.3286 13.9114Z" fill="black" fill-opacity="0.2"/>
<path d="M50.122 10.0974L48.562 10.5469L57.3681 41.0437L58.9281 40.5942L50.122 10.0974Z" fill="url(#paint2_angular_815_6357)"/>
<path d="M50.122 10.0974L48.562 10.5469L57.3681 41.0437L58.9281 40.5942L50.122 10.0974Z" fill="#002D31" fill-opacity="0.2"/>
<path d="M50.122 10.0974L48.562 10.5469L57.3681 41.0437L58.9281 40.5942L50.122 10.0974Z" fill="black" fill-opacity="0.2"/>
<path d="M33.9237 12.2749L32.3003 12.3013L32.8732 47.5563L34.4966 47.5299L33.9237 12.2749Z" fill="url(#paint3_angular_815_6357)"/>
<path d="M33.9237 12.2749L32.3003 12.3013L32.8732 47.5563L34.4966 47.5299L33.9237 12.2749Z" fill="#002D31" fill-opacity="0.2"/>
<path d="M33.9237 12.2749L32.3003 12.3013L32.8732 47.5563L34.4966 47.5299L33.9237 12.2749Z" fill="black" fill-opacity="0.2"/>
<path d="M13.6837 60H13.4239C9.79889 59.929 6.35006 58.4246 3.8339 55.8169C1.31774 53.2091 -0.060295 49.711 0.0020254 46.0897H0.813833H0.0020254C0.0510654 43.399 0.894503 40.7828 2.42653 38.5692C3.95856 36.3556 6.11093 34.6433 8.61355 33.6472C11.1162 32.6511 13.8576 32.4154 16.4937 32.9699C19.1299 33.5243 21.5435 34.8441 23.4315 36.7638C25.3196 38.6834 26.598 41.1172 27.1065 43.7599C27.6149 46.4027 27.3307 49.1366 26.2895 51.6185C25.2483 54.1005 23.4965 56.22 21.2538 57.7111C19.0112 59.2022 16.3777 59.9985 13.6837 60ZM13.6837 34.304C10.5271 34.3352 7.50878 35.6022 5.27739 37.8327C3.046 40.0632 1.77968 43.0791 1.75062 46.2323C1.72156 49.3856 2.93206 52.4243 5.12196 54.6955C7.31185 56.9666 10.3063 58.2889 13.4618 58.3781C16.6572 58.436 19.7449 57.2244 22.0464 55.0094C24.348 52.7944 25.6752 49.7573 25.7363 46.5654C25.7914 43.3743 24.5775 40.2916 22.3608 37.9931C20.1441 35.6946 17.1054 34.368 13.911 34.304H13.6837Z" fill="url(#paint4_angular_815_6357)"/>
<path d="M13.6837 60H13.4239C9.79889 59.929 6.35006 58.4246 3.8339 55.8169C1.31774 53.2091 -0.060295 49.711 0.0020254 46.0897H0.813833H0.0020254C0.0510654 43.399 0.894503 40.7828 2.42653 38.5692C3.95856 36.3556 6.11093 34.6433 8.61355 33.6472C11.1162 32.6511 13.8576 32.4154 16.4937 32.9699C19.1299 33.5243 21.5435 34.8441 23.4315 36.7638C25.3196 38.6834 26.598 41.1172 27.1065 43.7599C27.6149 46.4027 27.3307 49.1366 26.2895 51.6185C25.2483 54.1005 23.4965 56.22 21.2538 57.7111C19.0112 59.2022 16.3777 59.9985 13.6837 60ZM13.6837 34.304C10.5271 34.3352 7.50878 35.6022 5.27739 37.8327C3.046 40.0632 1.77968 43.0791 1.75062 46.2323C1.72156 49.3856 2.93206 52.4243 5.12196 54.6955C7.31185 56.9666 10.3063 58.2889 13.4618 58.3781C16.6572 58.436 19.7449 57.2244 22.0464 55.0094C24.348 52.7944 25.6752 49.7573 25.7363 46.5654C25.7914 43.3743 24.5775 40.2916 22.3608 37.9931C20.1441 35.6946 17.1054 34.368 13.911 34.304H13.6837Z" fill="#002D31" fill-opacity="0.2"/>
<path d="M13.6837 60H13.4239C9.79889 59.929 6.35006 58.4246 3.8339 55.8169C1.31774 53.2091 -0.060295 49.711 0.0020254 46.0897H0.813833H0.0020254C0.0510654 43.399 0.894503 40.7828 2.42653 38.5692C3.95856 36.3556 6.11093 34.6433 8.61355 33.6472C11.1162 32.6511 13.8576 32.4154 16.4937 32.9699C19.1299 33.5243 21.5435 34.8441 23.4315 36.7638C25.3196 38.6834 26.598 41.1172 27.1065 43.7599C27.6149 46.4027 27.3307 49.1366 26.2895 51.6185C25.2483 54.1005 23.4965 56.22 21.2538 57.7111C19.0112 59.2022 16.3777 59.9985 13.6837 60ZM13.6837 34.304C10.5271 34.3352 7.50878 35.6022 5.27739 37.8327C3.046 40.0632 1.77968 43.0791 1.75062 46.2323C1.72156 49.3856 2.93206 52.4243 5.12196 54.6955C7.31185 56.9666 10.3063 58.2889 13.4618 58.3781C16.6572 58.436 19.7449 57.2244 22.0464 55.0094C24.348 52.7944 25.6752 49.7573 25.7363 46.5654C25.7914 43.3743 24.5775 40.2916 22.3608 37.9931C20.1441 35.6946 17.1054 34.368 13.911 34.304H13.6837Z" fill="black" fill-opacity="0.2"/>
<path d="M27.8689 13.9114L26.2453 13.8844V13.0735C26.2755 11.2192 25.6178 9.41939 24.3988 8.02066C23.1799 6.62193 21.4859 5.72324 19.6433 5.49768C17.8006 5.27212 15.9395 5.73566 14.4185 6.79901C12.8976 7.86235 11.8243 9.45028 11.4054 11.2569L11.2268 12.0463L9.64111 11.6895L9.82512 10.9001C10.3248 8.69512 11.626 6.75387 13.4767 5.45252C15.3273 4.15117 17.5957 3.58238 19.8422 3.85633C22.0888 4.13029 24.1536 5.22749 25.6365 6.93535C27.1194 8.64322 27.9149 10.8402 27.8689 13.1005V13.9114Z" fill="url(#paint5_angular_815_6357)"/>
<path d="M27.8689 13.9114L26.2453 13.8844V13.0735C26.2755 11.2192 25.6178 9.41939 24.3988 8.02066C23.1799 6.62193 21.4859 5.72324 19.6433 5.49768C17.8006 5.27212 15.9395 5.73566 14.4185 6.79901C12.8976 7.86235 11.8243 9.45028 11.4054 11.2569L11.2268 12.0463L9.64111 11.6895L9.82512 10.9001C10.3248 8.69512 11.626 6.75387 13.4767 5.45252C15.3273 4.15117 17.5957 3.58238 19.8422 3.85633C22.0888 4.13029 24.1536 5.22749 25.6365 6.93535C27.1194 8.64322 27.9149 10.8402 27.8689 13.1005V13.9114Z" fill="#002D31" fill-opacity="0.2"/>
<path d="M27.8689 13.9114L26.2453 13.8844V13.0735C26.2755 11.2192 25.6178 9.41939 24.3988 8.02066C23.1799 6.62193 21.4859 5.72324 19.6433 5.49768C17.8006 5.27212 15.9395 5.73566 14.4185 6.79901C12.8976 7.86235 11.8243 9.45028 11.4054 11.2569L11.2268 12.0463L9.64111 11.6895L9.82512 10.9001C10.3248 8.69512 11.626 6.75387 13.4767 5.45252C15.3273 4.15117 17.5957 3.58238 19.8422 3.85633C22.0888 4.13029 24.1536 5.22749 25.6365 6.93535C27.1194 8.64322 27.9149 10.8402 27.8689 13.1005V13.9114Z" fill="black" fill-opacity="0.2"/>
<path d="M10.0658 10.0828L1.25439 40.5781L2.81433 41.0279L11.6258 10.5326L10.0658 10.0828Z" fill="url(#paint6_angular_815_6357)"/>
<path d="M10.0658 10.0828L1.25439 40.5781L2.81433 41.0279L11.6258 10.5326L10.0658 10.0828Z" fill="#002D31" fill-opacity="0.2"/>
<path d="M10.0658 10.0828L1.25439 40.5781L2.81433 41.0279L11.6258 10.5326L10.0658 10.0828Z" fill="black" fill-opacity="0.2"/>
<path d="M26.2604 12.2821L25.6875 47.5371L27.3109 47.5634L27.8838 12.3084L26.2604 12.2821Z" fill="#323232"/>
<path d="M27.5335 32.7301L25.9099 32.703V31.8921C25.9522 29.5352 25.1602 27.239 23.6735 25.4084C22.1868 23.5777 20.1008 22.3301 17.7834 21.8855C15.4659 21.4408 13.0657 21.8277 11.0058 22.9779C8.946 24.1281 7.35875 25.9677 6.5239 28.1726L6.23707 28.9349L4.72168 28.3618L5.00853 27.5995C5.98017 25.0392 7.82507 22.9035 10.2183 21.5685C12.6115 20.2335 15.3996 19.785 18.0914 20.3018C20.7832 20.8187 23.2061 22.2678 24.9333 24.3939C26.6605 26.5201 27.5813 29.1868 27.5335 31.9245V32.7301Z" fill="url(#paint7_angular_815_6357)"/>
<path d="M27.5335 32.7301L25.9099 32.703V31.8921C25.9522 29.5352 25.1602 27.239 23.6735 25.4084C22.1868 23.5777 20.1008 22.3301 17.7834 21.8855C15.4659 21.4408 13.0657 21.8277 11.0058 22.9779C8.946 24.1281 7.35875 25.9677 6.5239 28.1726L6.23707 28.9349L4.72168 28.3618L5.00853 27.5995C5.98017 25.0392 7.82507 22.9035 10.2183 21.5685C12.6115 20.2335 15.3996 19.785 18.0914 20.3018C20.7832 20.8187 23.2061 22.2678 24.9333 24.3939C26.6605 26.5201 27.5813 29.1868 27.5335 31.9245V32.7301Z" fill="#002D31" fill-opacity="0.2"/>
<path d="M27.5335 32.7301L25.9099 32.703V31.8921C25.9522 29.5352 25.1602 27.239 23.6735 25.4084C22.1868 23.5777 20.1008 22.3301 17.7834 21.8855C15.4659 21.4408 13.0657 21.8277 11.0058 22.9779C8.946 24.1281 7.35875 25.9677 6.5239 28.1726L6.23707 28.9349L4.72168 28.3618L5.00853 27.5995C5.98017 25.0392 7.82507 22.9035 10.2183 21.5685C12.6115 20.2335 15.3996 19.785 18.0914 20.3018C20.7832 20.8187 23.2061 22.2678 24.9333 24.3939C26.6605 26.5201 27.5813 29.1868 27.5335 31.9245V32.7301Z" fill="black" fill-opacity="0.2"/>
<path d="M32.6419 32.7311V31.9202C32.5941 29.1824 33.5149 26.5157 35.2421 24.3895C36.9694 22.2634 39.3923 20.8143 42.084 20.2975C44.7758 19.7806 47.5639 20.2292 49.9571 21.5641C52.3503 22.8991 54.1952 25.0348 55.1669 27.5951L55.4537 28.3574L53.9383 28.9305L53.6515 28.1682C52.9106 26.2416 51.5947 24.5891 49.8822 23.4345C48.1697 22.2799 46.1433 21.6789 44.0776 21.7131C41.4263 21.7643 38.9037 22.8646 37.064 24.7723C35.2242 26.68 34.2177 29.2392 34.2655 31.8877V32.6987L32.6419 32.7311Z" fill="url(#paint8_angular_815_6357)"/>
<path d="M32.6419 32.7311V31.9202C32.5941 29.1824 33.5149 26.5157 35.2421 24.3895C36.9694 22.2634 39.3923 20.8143 42.084 20.2975C44.7758 19.7806 47.5639 20.2292 49.9571 21.5641C52.3503 22.8991 54.1952 25.0348 55.1669 27.5951L55.4537 28.3574L53.9383 28.9305L53.6515 28.1682C52.9106 26.2416 51.5947 24.5891 49.8822 23.4345C48.1697 22.2799 46.1433 21.6789 44.0776 21.7131C41.4263 21.7643 38.9037 22.8646 37.064 24.7723C35.2242 26.68 34.2177 29.2392 34.2655 31.8877V32.6987L32.6419 32.7311Z" fill="#002D31" fill-opacity="0.2"/>
<path d="M32.6419 32.7311V31.9202C32.5941 29.1824 33.5149 26.5157 35.2421 24.3895C36.9694 22.2634 39.3923 20.8143 42.084 20.2975C44.7758 19.7806 47.5639 20.2292 49.9571 21.5641C52.3503 22.8991 54.1952 25.0348 55.1669 27.5951L55.4537 28.3574L53.9383 28.9305L53.6515 28.1682C52.9106 26.2416 51.5947 24.5891 49.8822 23.4345C48.1697 22.2799 46.1433 21.6789 44.0776 21.7131C41.4263 21.7643 38.9037 22.8646 37.064 24.7723C35.2242 26.68 34.2177 29.2392 34.2655 31.8877V32.6987L32.6419 32.7311Z" fill="black" fill-opacity="0.2"/>
<path d="M29.9685 40.846C29.1839 40.846 28.4169 40.6136 27.7645 40.1782C27.1122 39.7427 26.6037 39.1238 26.3034 38.3997C26.0032 37.6756 25.9246 36.8788 26.0777 36.1101C26.2308 35.3414 26.6086 34.6353 27.1634 34.0811C27.7182 33.5269 28.425 33.1495 29.1946 32.9966C29.9641 32.8437 30.7617 32.9221 31.4866 33.2221C32.2115 33.522 32.831 34.0299 33.2669 34.6816C33.7028 35.3333 33.9355 36.0994 33.9355 36.8832C33.9341 37.9338 33.5157 38.9409 32.772 39.6837C32.0284 40.4266 31.0202 40.8446 29.9685 40.846ZM29.9685 34.5423C29.505 34.5423 29.0519 34.6796 28.6666 34.9368C28.2812 35.194 27.9808 35.5596 27.8035 35.9874C27.6261 36.4151 27.5797 36.8858 27.6701 37.3399C27.7605 37.794 27.9837 38.2111 28.3115 38.5385C28.6392 38.8659 29.0567 39.0888 29.5113 39.1791C29.9659 39.2695 30.4371 39.2231 30.8653 39.0459C31.2935 38.8687 31.6595 38.5687 31.917 38.1838C32.1745 37.7988 32.3119 37.3462 32.3119 36.8832C32.3119 36.2624 32.065 35.6669 31.6255 35.2279C31.1861 34.7889 30.59 34.5423 29.9685 34.5423Z" fill="url(#paint9_angular_815_6357)"/>
<path d="M29.9685 40.846C29.1839 40.846 28.4169 40.6136 27.7645 40.1782C27.1122 39.7427 26.6037 39.1238 26.3034 38.3997C26.0032 37.6756 25.9246 36.8788 26.0777 36.1101C26.2308 35.3414 26.6086 34.6353 27.1634 34.0811C27.7182 33.5269 28.425 33.1495 29.1946 32.9966C29.9641 32.8437 30.7617 32.9221 31.4866 33.2221C32.2115 33.522 32.831 34.0299 33.2669 34.6816C33.7028 35.3333 33.9355 36.0994 33.9355 36.8832C33.9341 37.9338 33.5157 38.9409 32.772 39.6837C32.0284 40.4266 31.0202 40.8446 29.9685 40.846ZM29.9685 34.5423C29.505 34.5423 29.0519 34.6796 28.6666 34.9368C28.2812 35.194 27.9808 35.5596 27.8035 35.9874C27.6261 36.4151 27.5797 36.8858 27.6701 37.3399C27.7605 37.794 27.9837 38.2111 28.3115 38.5385C28.6392 38.8659 29.0567 39.0888 29.5113 39.1791C29.9659 39.2695 30.4371 39.2231 30.8653 39.0459C31.2935 38.8687 31.6595 38.5687 31.917 38.1838C32.1745 37.7988 32.3119 37.3462 32.3119 36.8832C32.3119 36.2624 32.065 35.6669 31.6255 35.2279C31.1861 34.7889 30.59 34.5423 29.9685 34.5423Z" fill="#002D31" fill-opacity="0.2"/>
<path d="M29.9685 40.846C29.1839 40.846 28.4169 40.6136 27.7645 40.1782C27.1122 39.7427 26.6037 39.1238 26.3034 38.3997C26.0032 37.6756 25.9246 36.8788 26.0777 36.1101C26.2308 35.3414 26.6086 34.6353 27.1634 34.0811C27.7182 33.5269 28.425 33.1495 29.1946 32.9966C29.9641 32.8437 30.7617 32.9221 31.4866 33.2221C32.2115 33.522 32.831 34.0299 33.2669 34.6816C33.7028 35.3333 33.9355 36.0994 33.9355 36.8832C33.9341 37.9338 33.5157 38.9409 32.772 39.6837C32.0284 40.4266 31.0202 40.8446 29.9685 40.846ZM29.9685 34.5423C29.505 34.5423 29.0519 34.6796 28.6666 34.9368C28.2812 35.194 27.9808 35.5596 27.8035 35.9874C27.6261 36.4151 27.5797 36.8858 27.6701 37.3399C27.7605 37.794 27.9837 38.2111 28.3115 38.5385C28.6392 38.8659 29.0567 39.0888 29.5113 39.1791C29.9659 39.2695 30.4371 39.2231 30.8653 39.0459C31.2935 38.8687 31.6595 38.5687 31.917 38.1838C32.1745 37.7988 32.3119 37.3462 32.3119 36.8832C32.3119 36.2624 32.065 35.6669 31.6255 35.2279C31.1861 34.7889 30.59 34.5423 29.9685 34.5423Z" fill="black" fill-opacity="0.2"/>
<path d="M34.0651 22.2752H32.4415V21.4804C32.4415 20.8567 32.1934 20.2585 31.7519 19.8175C31.3104 19.3765 30.7116 19.1287 30.0872 19.1287C29.4629 19.1287 28.864 19.3765 28.4225 19.8175C27.981 20.2585 27.733 20.8567 27.733 21.4804V22.2914H26.1094V21.4804C26.1094 20.9586 26.2123 20.4419 26.4122 19.9598C26.6121 19.4777 26.9051 19.0397 27.2745 18.6707C27.6438 18.3017 28.0824 18.009 28.565 17.8093C29.0476 17.6096 29.5649 17.5068 30.0872 17.5068C30.6096 17.5068 31.1269 17.6096 31.6095 17.8093C32.0921 18.009 32.5306 18.3017 32.9 18.6707C33.2694 19.0397 33.5624 19.4777 33.7623 19.9598C33.9622 20.4419 34.0651 20.9586 34.0651 21.4804V22.2752Z" fill="url(#paint10_angular_815_6357)"/>
<path d="M34.0651 22.2752H32.4415V21.4804C32.4415 20.8567 32.1934 20.2585 31.7519 19.8175C31.3104 19.3765 30.7116 19.1287 30.0872 19.1287C29.4629 19.1287 28.864 19.3765 28.4225 19.8175C27.981 20.2585 27.733 20.8567 27.733 21.4804V22.2914H26.1094V21.4804C26.1094 20.9586 26.2123 20.4419 26.4122 19.9598C26.6121 19.4777 26.9051 19.0397 27.2745 18.6707C27.6438 18.3017 28.0824 18.009 28.565 17.8093C29.0476 17.6096 29.5649 17.5068 30.0872 17.5068C30.6096 17.5068 31.1269 17.6096 31.6095 17.8093C32.0921 18.009 32.5306 18.3017 32.9 18.6707C33.2694 19.0397 33.5624 19.4777 33.7623 19.9598C33.9622 20.4419 34.0651 20.9586 34.0651 21.4804V22.2752Z" fill="#002D31" fill-opacity="0.2"/>
<path d="M34.0651 22.2752H32.4415V21.4804C32.4415 20.8567 32.1934 20.2585 31.7519 19.8175C31.3104 19.3765 30.7116 19.1287 30.0872 19.1287C29.4629 19.1287 28.864 19.3765 28.4225 19.8175C27.981 20.2585 27.733 20.8567 27.733 21.4804V22.2914H26.1094V21.4804C26.1094 20.9586 26.2123 20.4419 26.4122 19.9598C26.6121 19.4777 26.9051 19.0397 27.2745 18.6707C27.6438 18.3017 28.0824 18.009 28.565 17.8093C29.0476 17.6096 29.5649 17.5068 30.0872 17.5068C30.6096 17.5068 31.1269 17.6096 31.6095 17.8093C32.0921 18.009 32.5306 18.3017 32.9 18.6707C33.2694 19.0397 33.5624 19.4777 33.7623 19.9598C33.9622 20.4419 34.0651 20.9586 34.0651 21.4804V22.2752Z" fill="black" fill-opacity="0.2"/>
<path d="M34.2064 29.325H32.5828V28.5087C32.5828 27.8477 32.3199 27.2138 31.852 26.7464C31.3841 26.279 30.7495 26.0164 30.0878 26.0164C29.4261 26.0164 28.7915 26.279 28.3236 26.7464C27.8557 27.2138 27.5929 27.8477 27.5929 28.5087V29.3196H25.9692V28.5087C25.9692 27.4175 26.4032 26.3711 27.1755 25.5995C27.9479 24.828 28.9955 24.3945 30.0878 24.3945C31.1801 24.3945 32.2277 24.828 33.0001 25.5995C33.7725 26.3711 34.2064 27.4175 34.2064 28.5087V29.325Z" fill="url(#paint11_angular_815_6357)"/>
<path d="M34.2064 29.325H32.5828V28.5087C32.5828 27.8477 32.3199 27.2138 31.852 26.7464C31.3841 26.279 30.7495 26.0164 30.0878 26.0164C29.4261 26.0164 28.7915 26.279 28.3236 26.7464C27.8557 27.2138 27.5929 27.8477 27.5929 28.5087V29.3196H25.9692V28.5087C25.9692 27.4175 26.4032 26.3711 27.1755 25.5995C27.9479 24.828 28.9955 24.3945 30.0878 24.3945C31.1801 24.3945 32.2277 24.828 33.0001 25.5995C33.7725 26.3711 34.2064 27.4175 34.2064 28.5087V29.325Z" fill="#002D31" fill-opacity="0.2"/>
<path d="M34.2064 29.325H32.5828V28.5087C32.5828 27.8477 32.3199 27.2138 31.852 26.7464C31.3841 26.279 30.7495 26.0164 30.0878 26.0164C29.4261 26.0164 28.7915 26.279 28.3236 26.7464C27.8557 27.2138 27.5929 27.8477 27.5929 28.5087V29.3196H25.9692V28.5087C25.9692 27.4175 26.4032 26.3711 27.1755 25.5995C27.9479 24.828 28.9955 24.3945 30.0878 24.3945C31.1801 24.3945 32.2277 24.828 33.0001 25.5995C33.7725 26.3711 34.2064 27.4175 34.2064 28.5087V29.325Z" fill="black" fill-opacity="0.2"/>
<path d="M47.2115 56.8748H46.3997C43.6361 56.8719 40.9864 55.774 39.0323 53.8219C37.0781 51.8698 35.9789 49.223 35.9761 46.4623V45.6514H37.5997V46.4623C37.6026 48.7928 38.5306 51.0271 40.1803 52.675C41.83 54.323 44.0667 55.25 46.3997 55.2529H47.2115V56.8748Z" fill="url(#paint12_angular_815_6357)"/>
<path d="M47.2115 56.8748H46.3997C43.6361 56.8719 40.9864 55.774 39.0323 53.8219C37.0781 51.8698 35.9789 49.223 35.9761 46.4623V45.6514H37.5997V46.4623C37.6026 48.7928 38.5306 51.0271 40.1803 52.675C41.83 54.323 44.0667 55.25 46.3997 55.2529H47.2115V56.8748Z" fill="#002D31" fill-opacity="0.2"/>
<path d="M47.2115 56.8748H46.3997C43.6361 56.8719 40.9864 55.774 39.0323 53.8219C37.0781 51.8698 35.9789 49.223 35.9761 46.4623V45.6514H37.5997V46.4623C37.6026 48.7928 38.5306 51.0271 40.1803 52.675C41.83 54.323 44.0667 55.25 46.3997 55.2529H47.2115V56.8748Z" fill="black" fill-opacity="0.2"/>
<path d="M14.3546 56.6214H13.5428C10.7791 56.6185 8.1295 55.5205 6.17531 53.5685C4.22113 51.6164 3.12201 48.9696 3.11914 46.2089V45.3979H4.74276V46.2089C4.74705 48.539 5.67557 50.7724 7.32496 52.42C8.97435 54.0677 11.2102 54.9952 13.5428 54.9995H14.3546V56.6214Z" fill="#323232"/>
<path d="M25.3729 7.60774L23.7871 7.28336L23.9495 6.48864C24.1648 5.45055 23.9585 4.36954 23.3759 3.48342C22.7933 2.5973 21.8822 1.97865 20.843 1.76357C19.8038 1.5485 18.7216 1.75461 17.8346 2.33657C16.9475 2.91853 16.3282 3.82867 16.1129 4.86676L15.9505 5.66148L14.3594 5.33712L14.5217 4.5424C14.821 3.08276 15.6885 1.80166 16.9333 0.980928C18.1782 0.160199 19.6984 -0.132925 21.1596 0.166029C22.6208 0.464982 23.9033 1.33153 24.7249 2.57504C25.5465 3.81855 25.8399 5.33716 25.5406 6.7968L25.3729 7.60774Z" fill="url(#paint13_angular_815_6357)"/>
<path d="M25.3729 7.60774L23.7871 7.28336L23.9495 6.48864C24.1648 5.45055 23.9585 4.36954 23.3759 3.48342C22.7933 2.5973 21.8822 1.97865 20.843 1.76357C19.8038 1.5485 18.7216 1.75461 17.8346 2.33657C16.9475 2.91853 16.3282 3.82867 16.1129 4.86676L15.9505 5.66148L14.3594 5.33712L14.5217 4.5424C14.821 3.08276 15.6885 1.80166 16.9333 0.980928C18.1782 0.160199 19.6984 -0.132925 21.1596 0.166029C22.6208 0.464982 23.9033 1.33153 24.7249 2.57504C25.5465 3.81855 25.8399 5.33716 25.5406 6.7968L25.3729 7.60774Z" fill="#002D31" fill-opacity="0.2"/>
<path d="M25.3729 7.60774L23.7871 7.28336L23.9495 6.48864C24.1648 5.45055 23.9585 4.36954 23.3759 3.48342C22.7933 2.5973 21.8822 1.97865 20.843 1.76357C19.8038 1.5485 18.7216 1.75461 17.8346 2.33657C16.9475 2.91853 16.3282 3.82867 16.1129 4.86676L15.9505 5.66148L14.3594 5.33712L14.5217 4.5424C14.821 3.08276 15.6885 1.80166 16.9333 0.980928C18.1782 0.160199 19.6984 -0.132925 21.1596 0.166029C22.6208 0.464982 23.9033 1.33153 24.7249 2.57504C25.5465 3.81855 25.8399 5.33716 25.5406 6.7968L25.3729 7.60774Z" fill="black" fill-opacity="0.2"/>
<path d="M34.5465 7.31592L34.4329 6.5104C34.3143 5.77522 34.3433 5.02384 34.5181 4.29995C34.6929 3.57606 35.01 2.89411 35.4511 2.29377C35.8921 1.69343 36.4483 1.18669 37.0872 0.803007C37.726 0.419328 38.4349 0.166372 39.1725 0.0588552C39.9102 -0.0486618 40.6619 -0.00858271 41.3838 0.176738C42.1058 0.362058 42.7837 0.688925 43.3781 1.13834C43.9725 1.58776 44.4715 2.15074 44.8461 2.79455C45.2207 3.43837 45.4633 4.15016 45.56 4.88852L45.6791 5.69405L44.0555 5.92112L43.9364 5.12099C43.7837 4.07381 43.2218 3.12976 42.3738 2.49547C41.5259 1.86118 40.4609 1.58834 39.412 1.73668C38.3626 1.88921 37.4166 2.45124 36.7815 3.29952C36.1464 4.14781 35.874 5.21308 36.024 6.26171L36.1377 7.06183L34.5465 7.31592Z" fill="url(#paint14_angular_815_6357)"/>
<path d="M34.5465 7.31592L34.4329 6.5104C34.3143 5.77522 34.3433 5.02384 34.5181 4.29995C34.6929 3.57606 35.01 2.89411 35.4511 2.29377C35.8921 1.69343 36.4483 1.18669 37.0872 0.803007C37.726 0.419328 38.4349 0.166372 39.1725 0.0588552C39.9102 -0.0486618 40.6619 -0.00858271 41.3838 0.176738C42.1058 0.362058 42.7837 0.688925 43.3781 1.13834C43.9725 1.58776 44.4715 2.15074 44.8461 2.79455C45.2207 3.43837 45.4633 4.15016 45.56 4.88852L45.6791 5.69405L44.0555 5.92112L43.9364 5.12099C43.7837 4.07381 43.2218 3.12976 42.3738 2.49547C41.5259 1.86118 40.4609 1.58834 39.412 1.73668C38.3626 1.88921 37.4166 2.45124 36.7815 3.29952C36.1464 4.14781 35.874 5.21308 36.024 6.26171L36.1377 7.06183L34.5465 7.31592Z" fill="#002D31" fill-opacity="0.2"/>
<path d="M34.5465 7.31592L34.4329 6.5104C34.3143 5.77522 34.3433 5.02384 34.5181 4.29995C34.6929 3.57606 35.01 2.89411 35.4511 2.29377C35.8921 1.69343 36.4483 1.18669 37.0872 0.803007C37.726 0.419328 38.4349 0.166372 39.1725 0.0588552C39.9102 -0.0486618 40.6619 -0.00858271 41.3838 0.176738C42.1058 0.362058 42.7837 0.688925 43.3781 1.13834C43.9725 1.58776 44.4715 2.15074 44.8461 2.79455C45.2207 3.43837 45.4633 4.15016 45.56 4.88852L45.6791 5.69405L44.0555 5.92112L43.9364 5.12099C43.7837 4.07381 43.2218 3.12976 42.3738 2.49547C41.5259 1.86118 40.4609 1.58834 39.412 1.73668C38.3626 1.88921 37.4166 2.45124 36.7815 3.29952C36.1464 4.14781 35.874 5.21308 36.024 6.26171L36.1377 7.06183L34.5465 7.31592Z" fill="black" fill-opacity="0.2"/>
<defs>
<radialGradient id="paint0_angular_815_6357" cx="0" cy="0" r="1" gradientUnits="userSpaceOnUse" gradientTransform="translate(46.5777 45.8888) rotate(55.3406) scale(13.6121 13.5982)">
<stop offset="0.0940427" stop-color="#248F99"/>
<stop offset="0.247062" stop-color="#00464D"/>
<stop offset="0.472333" stop-color="#248F99"/>
<stop offset="0.654785" stop-color="#00464D"/>
<stop offset="0.818154" stop-color="#008D99"/>
<stop offset="0.947734" stop-color="#04474D"/>
</radialGradient>
<radialGradient id="paint1_angular_815_6357" cx="0" cy="0" r="1" gradientUnits="userSpaceOnUse" gradientTransform="translate(41.4415 8.68285) rotate(38.6874) scale(6.63733 6.91587)">
<stop offset="0.0940427" stop-color="#248F99"/>
<stop offset="0.247062" stop-color="#00464D"/>
<stop offset="0.472333" stop-color="#248F99"/>
<stop offset="0.654785" stop-color="#00464D"/>
<stop offset="0.818154" stop-color="#008D99"/>
<stop offset="0.947734" stop-color="#04474D"/>
</radialGradient>
<radialGradient id="paint2_angular_815_6357" cx="0" cy="0" r="1" gradientUnits="userSpaceOnUse" gradientTransform="translate(53.5994 25.0662) rotate(71.8626) scale(13.0187 0.9847)">
<stop offset="0.0940427" stop-color="#248F99"/>
<stop offset="0.247062" stop-color="#00464D"/>
<stop offset="0.472333" stop-color="#248F99"/>
<stop offset="0.654785" stop-color="#00464D"/>
<stop offset="0.818154" stop-color="#008D99"/>
<stop offset="0.947734" stop-color="#04474D"/>
</radialGradient>
<radialGradient id="paint3_angular_815_6357" cx="0" cy="0" r="1" gradientUnits="userSpaceOnUse" gradientTransform="translate(33.389 29.3326) rotate(87.2402) scale(14.4591 0.984919)">
<stop offset="0.0940427" stop-color="#248F99"/>
<stop offset="0.247062" stop-color="#00464D"/>
<stop offset="0.472333" stop-color="#248F99"/>
<stop offset="0.654785" stop-color="#00464D"/>
<stop offset="0.818154" stop-color="#008D99"/>
<stop offset="0.947734" stop-color="#04474D"/>
</radialGradient>
<radialGradient id="paint4_angular_815_6357" cx="0" cy="0" r="1" gradientUnits="userSpaceOnUse" gradientTransform="translate(13.6761 45.8865) rotate(55.2341) scale(13.6324 13.6375)">
<stop offset="0.0940427" stop-color="#248F99"/>
<stop offset="0.247062" stop-color="#00464D"/>
<stop offset="0.472333" stop-color="#248F99"/>
<stop offset="0.654785" stop-color="#00464D"/>
<stop offset="0.818154" stop-color="#008D99"/>
<stop offset="0.947734" stop-color="#04474D"/>
</radialGradient>
<radialGradient id="paint5_angular_815_6357" cx="0" cy="0" r="1" gradientUnits="userSpaceOnUse" gradientTransform="translate(18.7559 8.68285) rotate(38.6874) scale(6.63733 6.91587)">
<stop offset="0.0940427" stop-color="#248F99"/>
<stop offset="0.247062" stop-color="#00464D"/>
<stop offset="0.472333" stop-color="#248F99"/>
<stop offset="0.654785" stop-color="#00464D"/>
<stop offset="0.818154" stop-color="#008D99"/>
<stop offset="0.947734" stop-color="#04474D"/>
</radialGradient>
<radialGradient id="paint6_angular_815_6357" cx="0" cy="0" r="1" gradientUnits="userSpaceOnUse" gradientTransform="translate(6.41429 25.5479) rotate(-69.6653) scale(9.0462 1.41712)">
<stop offset="0.0940427" stop-color="#248F99"/>
<stop offset="0.247062" stop-color="#00464D"/>
<stop offset="0.472333" stop-color="#248F99"/>
<stop offset="0.654785" stop-color="#00464D"/>
<stop offset="0.818154" stop-color="#008D99"/>
<stop offset="0.947734" stop-color="#04474D"/>
</radialGradient>
<radialGradient id="paint7_angular_815_6357" cx="0" cy="0" r="1" gradientUnits="userSpaceOnUse" gradientTransform="translate(16.1285 26.2024) rotate(38.6203) scale(8.29854 8.64224)">
<stop offset="0.0940427" stop-color="#248F99"/>
<stop offset="0.247062" stop-color="#00464D"/>
<stop offset="0.472333" stop-color="#248F99"/>
<stop offset="0.654785" stop-color="#00464D"/>
<stop offset="0.818154" stop-color="#008D99"/>
<stop offset="0.947734" stop-color="#04474D"/>
</radialGradient>
<radialGradient id="paint8_angular_815_6357" cx="0" cy="0" r="1" gradientUnits="userSpaceOnUse" gradientTransform="translate(44.0469 26.2007) rotate(38.6323) scale(8.29992 8.64449)">
<stop offset="0.0940427" stop-color="#248F99"/>
<stop offset="0.247062" stop-color="#00464D"/>
<stop offset="0.472333" stop-color="#248F99"/>
<stop offset="0.654785" stop-color="#00464D"/>
<stop offset="0.818154" stop-color="#008D99"/>
<stop offset="0.947734" stop-color="#04474D"/>
</radialGradient>
<radialGradient id="paint9_angular_815_6357" cx="0" cy="0" r="1" gradientUnits="userSpaceOnUse" gradientTransform="translate(29.9685 36.7521) rotate(55.234) scale(3.95432 3.9558)">
<stop offset="0.0940427" stop-color="#248F99"/>
<stop offset="0.247062" stop-color="#00464D"/>
<stop offset="0.472333" stop-color="#248F99"/>
<stop offset="0.654785" stop-color="#00464D"/>
<stop offset="0.818154" stop-color="#008D99"/>
<stop offset="0.947734" stop-color="#04474D"/>
</radialGradient>
<radialGradient id="paint10_angular_815_6357" cx="0" cy="0" r="1" gradientUnits="userSpaceOnUse" gradientTransform="translate(30.0872 19.82) rotate(40.9356) scale(2.99296 3.16373)">
<stop offset="0.0940427" stop-color="#248F99"/>
<stop offset="0.247062" stop-color="#00464D"/>
<stop offset="0.472333" stop-color="#248F99"/>
<stop offset="0.654785" stop-color="#00464D"/>
<stop offset="0.818154" stop-color="#008D99"/>
<stop offset="0.947734" stop-color="#04474D"/>
</radialGradient>
<radialGradient id="paint11_angular_815_6357" cx="0" cy="0" r="1" gradientUnits="userSpaceOnUse" gradientTransform="translate(30.0878 26.7782) rotate(40.8019) scale(3.09259 3.26683)">
<stop offset="0.0940427" stop-color="#248F99"/>
<stop offset="0.247062" stop-color="#00464D"/>
<stop offset="0.472333" stop-color="#248F99"/>
<stop offset="0.654785" stop-color="#00464D"/>
<stop offset="0.818154" stop-color="#008D99"/>
<stop offset="0.947734" stop-color="#04474D"/>
</radialGradient>
<radialGradient id="paint12_angular_815_6357" cx="0" cy="0" r="1" gradientUnits="userSpaceOnUse" gradientTransform="translate(41.5938 51.0775) rotate(55.2338) scale(5.59971 5.60181)">
<stop offset="0.0940427" stop-color="#248F99"/>
<stop offset="0.247062" stop-color="#00464D"/>
<stop offset="0.472333" stop-color="#248F99"/>
<stop offset="0.654785" stop-color="#00464D"/>
<stop offset="0.818154" stop-color="#008D99"/>
<stop offset="0.947734" stop-color="#04474D"/>
</radialGradient>
<radialGradient id="paint13_angular_815_6357" cx="0" cy="0" r="1" gradientUnits="userSpaceOnUse" gradientTransform="translate(20.0072 3.7048) rotate(43.9709) scale(4.46056 4.75985)">
<stop offset="0.0940427" stop-color="#248F99"/>
<stop offset="0.247062" stop-color="#00464D"/>
<stop offset="0.472333" stop-color="#248F99"/>
<stop offset="0.654785" stop-color="#00464D"/>
<stop offset="0.818154" stop-color="#008D99"/>
<stop offset="0.947734" stop-color="#04474D"/>
</radialGradient>
<radialGradient id="paint14_angular_815_6357" cx="0" cy="0" r="1" gradientUnits="userSpaceOnUse" gradientTransform="translate(40.0202 3.53698) rotate(42.9913) scale(4.39742 4.68395)">
<stop offset="0.0940427" stop-color="#248F99"/>
<stop offset="0.247062" stop-color="#00464D"/>
<stop offset="0.472333" stop-color="#248F99"/>
<stop offset="0.654785" stop-color="#00464D"/>
<stop offset="0.818154" stop-color="#008D99"/>
<stop offset="0.947734" stop-color="#04474D"/>
</radialGradient>
</defs>
</svg>
