<svg width="45" height="50" viewBox="0 0 45 50" fill="none" xmlns="http://www.w3.org/2000/svg">
<path d="M27.332 26.5507H10.1524V32.182L7.71488 32.787C7.70864 31.5 6.66648 30.455 5.38564 30.455H0V32.0169H0.780578H5.38495C5.80819 32.0169 6.15303 32.3666 6.15303 32.7975V33.2838V34.106V34.9276V44.5117V45.2923H5.38495H4.60437H0.781965H0.00138693V46.8541H7.71627V46.1068L18.7332 50L23.6664 49.1861L35.3189 44.8281C35.9218 44.6296 36.5761 44.2362 37.2367 43.7304H44.5124V26.5507H27.332ZM42.9505 42.1686H38.9692C39.457 41.6662 39.9246 41.1354 40.3507 40.6067C40.9682 40.6067 40.0731 40.6067 41.3894 40.6067V39.2079C41.6044 38.8901 41.796 38.5855 41.9555 38.3052C42.3406 37.628 42.2012 36.7829 41.6156 36.25C41.175 35.8483 40.7413 35.5756 40.325 35.4382C39.5798 35.1919 38.7708 35.3716 38.2011 35.9066L35.4216 38.0298C35.7449 37.1264 35.9232 36.1536 35.9232 35.1399C35.9232 32.2368 34.4745 29.6675 32.2625 28.1119H42.9505V42.1686ZM34.7992 43.355L33.8001 43.7304L24.4505 47.2399L21.6175 45.805L20.9112 47.1982L22.192 47.847L18.8747 48.3937L7.88835 44.5117H7.71558V34.4113L7.94177 34.3364L10.1524 33.7897L10.9329 33.5968L11.1709 33.5385C11.3513 33.4941 11.5324 33.4552 11.7142 33.4171C13.496 33.0396 15.3125 32.9577 17.1248 33.1811L18.9191 33.4039L19.699 33.5003L20.3623 33.5822L20.4858 33.5732L29.7334 32.9001C30.3759 32.8648 30.9393 33.2977 31.0628 33.9097C31.1322 34.2525 31.0566 34.5987 30.8498 34.8845C30.6375 35.1767 30.3218 35.3612 29.9402 35.4049L22.9018 36.4041C22.0484 36.5033 21.2962 37.0112 20.891 37.764C20.8751 37.7932 20.8647 37.8244 20.8501 37.8535C20.6635 38.2344 20.576 38.6487 20.5871 39.0629C20.5975 39.4396 20.6857 39.815 20.8605 40.1606C21.2262 40.8842 21.8936 41.3901 22.7242 41.5538L22.9254 41.5857L26.6375 42.1686L26.6909 42.1769L26.7499 42.1686L26.9025 42.147L29.7112 41.7453L31.3209 41.5149L32.386 41.0875L34.1248 40.3895L35.6728 39.7678L39.1836 37.1208L39.2586 37.0549C39.4077 36.9078 39.6332 36.8537 39.8338 36.9203C40.035 36.9869 40.2938 37.159 40.563 37.4039C40.5963 37.4344 40.622 37.4885 40.597 37.5323C39.7484 39.0213 38.1498 40.9286 36.6781 42.1679C36.3118 42.4766 35.9545 42.7396 35.6179 42.9484C35.3272 43.1302 35.0497 43.2725 34.7992 43.355ZM11.7142 28.1126H22.4022C21.068 29.0521 20.0119 30.3593 19.384 31.8878L17.3163 31.6325C15.4409 31.3987 13.5612 31.4646 11.7142 31.8226V28.1126ZM33.1173 39.1226L31.0046 39.9822L26.702 40.5984L22.9976 40.0162C22.6728 39.9517 22.4022 39.7477 22.2551 39.4563C22.1011 39.1517 22.1053 38.8048 22.2669 38.5043C22.4328 38.1963 22.7297 37.9964 23.1016 37.9527L30.14 36.9543C30.9303 36.8627 31.6498 36.4422 32.1147 35.8025C32.5747 35.169 32.7496 34.3662 32.5942 33.6002C32.318 32.2299 31.0434 31.2516 29.6314 31.3425L21.0707 31.9641C22.2329 29.6821 24.6003 28.1119 27.332 28.1119C31.2072 28.1119 34.36 31.2647 34.36 35.1399C34.3607 36.6185 33.8993 37.9895 33.1173 39.1226ZM41.3887 31.2363C39.8268 31.2363 41.3887 31.2363 39.8268 31.2363V29.6744H41.3887V31.2363ZM13.2761 29.6744H14.8379V31.2363C13.2761 31.2363 14.8379 31.2363 13.2761 31.2363V29.6744ZM4.6238 35.1406C3.06195 35.1406 4.6238 35.1406 3.06195 35.1406V33.5787H4.6238V33.789V34.5404V35.1406ZM15.6192 21.8652H24.9903V24.6905L30.6403 21.8652H39.0462C40.7684 21.8652 42.1699 20.4643 42.1699 18.7415V3.1237C42.1699 1.40088 40.7684 0 39.0462 0H15.6192C13.8971 0 12.4955 1.40088 12.4955 3.1237V18.7415C12.4955 20.4643 13.8964 21.8652 15.6192 21.8652ZM14.0566 3.1237C14.0566 2.26264 14.7574 1.56185 15.6185 1.56185H39.0455C39.9066 1.56185 40.6074 2.26264 40.6074 3.1237V18.7415C40.6074 19.6026 39.9073 20.3034 39.0455 20.3034H30.2718L26.5514 22.1636V20.3034H15.6192C14.7581 20.3034 14.0573 19.6026 14.0573 18.7415L14.0566 3.1237ZM22.6472 17.9602H26.5514H28.1133H32.0176V11.9085H34.7194L27.332 3.50254L19.9453 11.9085H22.6472V17.9602ZM27.332 5.86856L31.2682 10.3473H30.4564V16.3991H28.1133V14.8372H26.5514V16.3991H24.2083V10.3473H23.3965L27.332 5.86856ZM28.1133 12.4941H26.5514V10.1517H28.1133V12.4941Z" fill="url(#paint0_linear_1626_12760)"/>
<path d="M27.332 26.5507H10.1524V32.182L7.71488 32.787C7.70864 31.5 6.66648 30.455 5.38564 30.455H0V32.0169H0.780578H5.38495C5.80819 32.0169 6.15303 32.3666 6.15303 32.7975V33.2838V34.106V34.9276V44.5117V45.2923H5.38495H4.60437H0.781965H0.00138693V46.8541H7.71627V46.1068L18.7332 50L23.6664 49.1861L35.3189 44.8281C35.9218 44.6296 36.5761 44.2362 37.2367 43.7304H44.5124V26.5507H27.332ZM42.9505 42.1686H38.9692C39.457 41.6662 39.9246 41.1354 40.3507 40.6067C40.9682 40.6067 40.0731 40.6067 41.3894 40.6067V39.2079C41.6044 38.8901 41.796 38.5855 41.9555 38.3052C42.3406 37.628 42.2012 36.7829 41.6156 36.25C41.175 35.8483 40.7413 35.5756 40.325 35.4382C39.5798 35.1919 38.7708 35.3716 38.2011 35.9066L35.4216 38.0298C35.7449 37.1264 35.9232 36.1536 35.9232 35.1399C35.9232 32.2368 34.4745 29.6675 32.2625 28.1119H42.9505V42.1686ZM34.7992 43.355L33.8001 43.7304L24.4505 47.2399L21.6175 45.805L20.9112 47.1982L22.192 47.847L18.8747 48.3937L7.88835 44.5117H7.71558V34.4113L7.94177 34.3364L10.1524 33.7897L10.9329 33.5968L11.1709 33.5385C11.3513 33.4941 11.5324 33.4552 11.7142 33.4171C13.496 33.0396 15.3125 32.9577 17.1248 33.1811L18.9191 33.4039L19.699 33.5003L20.3623 33.5822L20.4858 33.5732L29.7334 32.9001C30.3759 32.8648 30.9393 33.2977 31.0628 33.9097C31.1322 34.2525 31.0566 34.5987 30.8498 34.8845C30.6375 35.1767 30.3218 35.3612 29.9402 35.4049L22.9018 36.4041C22.0484 36.5033 21.2962 37.0112 20.891 37.764C20.8751 37.7932 20.8647 37.8244 20.8501 37.8535C20.6635 38.2344 20.576 38.6487 20.5871 39.0629C20.5975 39.4396 20.6857 39.815 20.8605 40.1606C21.2262 40.8842 21.8936 41.3901 22.7242 41.5538L22.9254 41.5857L26.6375 42.1686L26.6909 42.1769L26.7499 42.1686L26.9025 42.147L29.7112 41.7453L31.3209 41.5149L32.386 41.0875L34.1248 40.3895L35.6728 39.7678L39.1836 37.1208L39.2586 37.0549C39.4077 36.9078 39.6332 36.8537 39.8338 36.9203C40.035 36.9869 40.2938 37.159 40.563 37.4039C40.5963 37.4344 40.622 37.4885 40.597 37.5323C39.7484 39.0213 38.1498 40.9286 36.6781 42.1679C36.3118 42.4766 35.9545 42.7396 35.6179 42.9484C35.3272 43.1302 35.0497 43.2725 34.7992 43.355ZM11.7142 28.1126H22.4022C21.068 29.0521 20.0119 30.3593 19.384 31.8878L17.3163 31.6325C15.4409 31.3987 13.5612 31.4646 11.7142 31.8226V28.1126ZM33.1173 39.1226L31.0046 39.9822L26.702 40.5984L22.9976 40.0162C22.6728 39.9517 22.4022 39.7477 22.2551 39.4563C22.1011 39.1517 22.1053 38.8048 22.2669 38.5043C22.4328 38.1963 22.7297 37.9964 23.1016 37.9527L30.14 36.9543C30.9303 36.8627 31.6498 36.4422 32.1147 35.8025C32.5747 35.169 32.7496 34.3662 32.5942 33.6002C32.318 32.2299 31.0434 31.2516 29.6314 31.3425L21.0707 31.9641C22.2329 29.6821 24.6003 28.1119 27.332 28.1119C31.2072 28.1119 34.36 31.2647 34.36 35.1399C34.3607 36.6185 33.8993 37.9895 33.1173 39.1226ZM41.3887 31.2363C39.8268 31.2363 41.3887 31.2363 39.8268 31.2363V29.6744H41.3887V31.2363ZM13.2761 29.6744H14.8379V31.2363C13.2761 31.2363 14.8379 31.2363 13.2761 31.2363V29.6744ZM4.6238 35.1406C3.06195 35.1406 4.6238 35.1406 3.06195 35.1406V33.5787H4.6238V33.789V34.5404V35.1406ZM15.6192 21.8652H24.9903V24.6905L30.6403 21.8652H39.0462C40.7684 21.8652 42.1699 20.4643 42.1699 18.7415V3.1237C42.1699 1.40088 40.7684 0 39.0462 0H15.6192C13.8971 0 12.4955 1.40088 12.4955 3.1237V18.7415C12.4955 20.4643 13.8964 21.8652 15.6192 21.8652ZM14.0566 3.1237C14.0566 2.26264 14.7574 1.56185 15.6185 1.56185H39.0455C39.9066 1.56185 40.6074 2.26264 40.6074 3.1237V18.7415C40.6074 19.6026 39.9073 20.3034 39.0455 20.3034H30.2718L26.5514 22.1636V20.3034H15.6192C14.7581 20.3034 14.0573 19.6026 14.0573 18.7415L14.0566 3.1237ZM22.6472 17.9602H26.5514H28.1133H32.0176V11.9085H34.7194L27.332 3.50254L19.9453 11.9085H22.6472V17.9602ZM27.332 5.86856L31.2682 10.3473H30.4564V16.3991H28.1133V14.8372H26.5514V16.3991H24.2083V10.3473H23.3965L27.332 5.86856ZM28.1133 12.4941H26.5514V10.1517H28.1133V12.4941Z" fill="black" fill-opacity="0.2"/>
<defs>
<linearGradient id="paint0_linear_1626_12760" x1="1.4379" y1="3.84615" x2="45.7229" y2="33.0408" gradientUnits="userSpaceOnUse">
<stop offset="0.03125" stop-color="#003B40"/>
<stop offset="0.265625" stop-color="#005961"/>
<stop offset="0.509791" stop-color="#00818C"/>
<stop offset="0.760417" stop-color="#005961"/>
<stop offset="0.994792" stop-color="#003B40"/>
</linearGradient>
</defs>
</svg>
