<svg width="43" height="47" viewBox="0 0 43 47" fill="none" xmlns="http://www.w3.org/2000/svg">
<path d="M21.4986 11.2982C21.7393 11.2985 21.9701 11.3986 22.1404 11.5764C22.3106 11.7542 22.4064 11.9952 22.4067 12.2466H23.8129C23.8112 11.7358 23.6543 11.2387 23.3647 10.827C23.0752 10.4153 22.6679 10.1102 22.2017 9.95575V9.00507H20.7955V9.95602C20.2704 10.1302 19.8223 10.4949 19.5323 10.9842C19.2423 11.4734 19.1296 12.055 19.2146 12.6235C19.2996 13.1921 19.5766 13.7101 19.9955 14.0838C20.4145 14.4575 20.9477 14.6623 21.4986 14.661C21.678 14.6607 21.8534 14.7159 22.0027 14.8197C22.1521 14.9236 22.2685 15.0713 22.3375 15.2443C22.4064 15.4173 22.4246 15.6077 22.3899 15.7915C22.3552 15.9753 22.269 16.1442 22.1424 16.2769C22.0157 16.4096 21.8543 16.5001 21.6784 16.5369C21.5025 16.5737 21.3201 16.5552 21.1543 16.4838C20.9885 16.4123 20.8467 16.2911 20.7468 16.1355C20.6469 15.9798 20.5935 15.7968 20.5933 15.6094H19.187C19.1887 16.1196 19.3453 16.616 19.6344 17.0272C19.9234 17.4384 20.33 17.7432 20.7955 17.8977V18.8485H22.2017V17.898C22.7275 17.7244 23.1763 17.3598 23.4669 16.8703C23.7574 16.3807 23.8704 15.7987 23.7854 15.2297C23.7003 14.6606 23.4229 14.1422 23.0034 13.7684C22.5839 13.3947 22.05 13.1902 21.4986 13.1922C21.2581 13.1922 21.0275 13.0924 20.8575 12.9148C20.6874 12.7372 20.5919 12.4964 20.5919 12.2452C20.5919 11.994 20.6874 11.7532 20.8575 11.5756C21.0275 11.398 21.2581 11.2982 21.4986 11.2982Z" fill="url(#paint0_linear_1517_11804)"/>
<path d="M21.5 6.72845C20.1369 6.72849 18.8044 7.1507 17.671 7.9417C16.5377 8.73269 15.6543 9.85694 15.1327 11.1723C14.6111 12.4876 14.4747 13.935 14.7406 15.3313C15.0066 16.7276 15.663 18.0102 16.6269 19.0169C17.5908 20.0236 18.8189 20.7091 20.1558 20.9869C21.4927 21.2646 22.8785 21.122 24.1378 20.5771C25.3972 20.0323 26.4735 19.1096 27.2308 17.9258C27.9881 16.7421 28.3923 15.3503 28.3922 13.9266C28.3901 12.0182 27.6633 10.1885 26.3712 8.83907C25.0791 7.48963 23.3273 6.73058 21.5 6.72845ZM21.5 19.6564C20.415 19.6564 19.3544 19.3203 18.4523 18.6907C17.5502 18.0611 16.8471 17.1663 16.432 16.1193C16.0168 15.0724 15.9081 13.9204 16.1198 12.809C16.3315 11.6975 16.854 10.6766 17.6212 9.87536C18.3883 9.07407 19.3658 8.52839 20.4299 8.30731C21.494 8.08622 22.597 8.19967 23.5994 8.63331C24.6018 9.06695 25.4586 9.8013 26.0614 10.7435C26.6642 11.6857 26.9859 12.7934 26.986 13.9266C26.9843 15.4457 26.4058 16.9021 25.3774 17.9763C24.3489 19.0505 22.9545 19.6547 21.5 19.6564ZM33.0353 25.1832C33.2761 25.1836 33.5068 25.2836 33.6771 25.4614C33.8473 25.6392 33.9431 25.8802 33.9434 26.1317H35.3497C35.3479 25.6208 35.191 25.1237 34.9014 24.712C34.6119 24.3003 34.2046 23.9953 33.7384 23.8408V22.8901H32.3322V23.841C31.8071 24.0152 31.359 24.3799 31.069 24.8692C30.779 25.3585 30.6663 25.94 30.7513 26.5085C30.8363 27.0771 31.1133 27.5951 31.5322 27.9688C31.9512 28.3425 32.4844 28.5473 33.0353 28.546C33.2147 28.5457 33.3901 28.6009 33.5394 28.7047C33.6888 28.8086 33.8052 28.9563 33.8742 29.1293C33.9431 29.3023 33.9613 29.4927 33.9266 29.6765C33.8919 29.8603 33.8057 30.0293 33.6791 30.1619C33.5524 30.2946 33.391 30.3851 33.2151 30.4219C33.0392 30.4587 32.8568 30.4402 32.691 30.3688C32.5252 30.2973 32.3834 30.1761 32.2835 30.0205C32.1836 29.8649 32.1302 29.6818 32.13 29.4944H30.7237C30.7254 30.0046 30.882 30.501 31.1711 30.9122C31.4601 31.3235 31.8667 31.6283 32.3322 31.7828V32.7335H33.7384V31.783C34.2642 31.6094 34.7131 31.2448 35.0036 30.7553C35.2941 30.2658 35.4071 29.6837 35.3221 29.1147C35.2371 28.5456 34.9596 28.0272 34.5401 27.6535C34.1206 27.2797 33.5867 27.0752 33.0353 27.0772C32.7948 27.0772 32.5642 26.9775 32.3942 26.7999C32.2241 26.6223 32.1286 26.3814 32.1286 26.1302C32.1286 25.8791 32.2241 25.6382 32.3942 25.4606C32.5642 25.283 32.7948 25.1832 33.0353 25.1832ZM23.7168 38.9137C23.8557 38.9138 23.9888 38.9715 24.0869 39.074C24.1851 39.1765 24.2403 39.3155 24.2404 39.4605H25.6467C25.6458 39.0559 25.5283 38.6609 25.3095 38.3269C25.0907 37.993 24.7808 37.7356 24.42 37.5882V36.9924H23.0137V37.5884C22.5955 37.7593 22.2476 38.0774 22.0301 38.4878C21.8126 38.8981 21.7392 39.375 21.8226 39.8359C21.906 40.2967 22.1409 40.7127 22.4868 41.0119C22.8327 41.3111 23.2678 41.4746 23.7168 41.4743C23.8202 41.4741 23.9213 41.5059 24.0073 41.5657C24.0934 41.6255 24.1605 41.7106 24.2002 41.8102C24.24 41.9099 24.2505 42.0196 24.2306 42.1255C24.2106 42.2314 24.161 42.3287 24.0881 42.4052C24.0152 42.4817 23.9221 42.5338 23.8208 42.5551C23.7195 42.5764 23.6144 42.5658 23.5189 42.5247C23.4233 42.4836 23.3416 42.4138 23.284 42.3241C23.2264 42.2345 23.1955 42.1291 23.1953 42.0211H21.7891C21.7899 42.4252 21.9072 42.8196 22.1256 43.1532C22.344 43.4867 22.6535 43.7438 23.0137 43.8912V44.4871H24.42V43.8914C24.8387 43.721 25.1872 43.403 25.4051 42.9925C25.623 42.582 25.6966 42.1048 25.6132 41.6436C25.5297 41.1824 25.2945 40.7661 24.9481 40.467C24.6018 40.1679 24.1663 40.0046 23.7168 40.0056C23.5782 40.0056 23.4453 39.948 23.3472 39.8457C23.2492 39.7433 23.1941 39.6044 23.1941 39.4596C23.1941 39.3148 23.2492 39.176 23.3472 39.0736C23.4453 38.9712 23.5782 38.9137 23.7168 38.9137Z" fill="url(#paint1_linear_1517_11804)"/>
<path d="M23.7179 34.6634C22.5672 34.6633 21.4424 35.0197 20.4857 35.6873C19.5289 36.355 18.7832 37.3039 18.3428 38.4142C17.9025 39.5245 17.7872 40.7463 18.0117 41.925C18.2361 43.1037 18.7902 44.1864 19.6038 45.0362C20.4174 45.886 21.454 46.4648 22.5825 46.6993C23.7111 46.9338 24.8808 46.8135 25.9439 46.3536C27.007 45.8937 27.9156 45.1149 28.5549 44.1157C29.1942 43.1165 29.5354 41.9417 29.5355 40.7399C29.5338 39.1289 28.9203 37.5844 27.8297 36.4452C26.7391 35.306 25.2603 34.6652 23.7179 34.6634ZM23.7179 45.3473C22.8453 45.3473 21.9924 45.0771 21.2669 44.5709C20.5414 44.0646 19.9759 43.345 19.642 42.503C19.3081 41.6611 19.2207 40.7347 19.3909 39.8409C19.5611 38.9471 19.9813 38.126 20.5983 37.4817C21.2152 36.8373 22.0013 36.3984 22.8571 36.2206C23.7129 36.0429 24.5999 36.1341 25.406 36.4829C26.2121 36.8316 26.9011 37.4222 27.3858 38.18C27.8705 38.9377 28.1293 39.8286 28.1292 40.7399C28.1279 41.9614 27.6627 43.1325 26.8357 43.9963C26.0087 44.8601 24.8874 45.3459 23.7179 45.3473ZM1.46094 27.6717H26.1512C26.1504 27.7187 26.1445 27.7644 26.1445 27.8116C26.1436 28.7575 26.3212 29.6944 26.6671 30.5686C27.0131 31.4428 27.5206 32.2372 28.1607 32.9064C28.8008 33.5756 29.5609 34.1065 30.3975 34.4687C31.2342 34.831 32.131 35.0174 33.0367 35.0174C33.9424 35.0174 34.8392 34.831 35.6758 34.4687C36.5125 34.1065 37.2726 33.5756 37.9127 32.9064C38.5528 32.2372 39.0603 31.4428 39.4062 30.5686C39.7522 29.6944 39.9298 28.7575 39.9289 27.8116C39.9289 27.7644 39.923 27.7187 39.9221 27.6717H41.5391C41.7255 27.6717 41.9044 27.5944 42.0362 27.4566C42.1681 27.3189 42.2422 27.1321 42.2422 26.9374V0.918335C42.2422 0.723567 42.1681 0.536775 42.0362 0.399053C41.9044 0.261331 41.7255 0.18396 41.5391 0.18396H1.46094C1.27446 0.18396 1.09561 0.261331 0.963753 0.399053C0.831891 0.536775 0.757813 0.723567 0.757812 0.918335V26.9374C0.757813 27.1321 0.831891 27.3189 0.963753 27.4566C1.09561 27.5944 1.27446 27.6717 1.46094 27.6717ZM33.0367 33.5414C31.9517 33.5413 30.8911 33.2053 29.989 32.5757C29.0869 31.9461 28.3838 31.0512 27.9686 30.0043C27.5535 28.9573 27.4448 27.8053 27.6565 26.6939C27.8682 25.5825 28.3907 24.5616 29.1579 23.7603C29.925 22.959 30.9025 22.4134 31.9666 22.1923C33.0307 21.9712 34.1337 22.0846 35.1361 22.5183C36.1385 22.9519 36.9953 23.6863 37.5981 24.6285C38.2009 25.5707 38.5226 26.6784 38.5227 27.8116C38.521 29.3307 37.9425 30.7871 36.914 31.8613C35.8856 32.9355 34.4911 33.5397 33.0367 33.5414ZM32.8811 20.6217C31.4613 20.6539 30.0862 21.1467 28.9464 22.0316H10.5113C10.3574 20.8818 9.84939 19.8156 9.06401 18.994C8.27863 18.1724 7.25856 17.6402 6.15794 17.4776V10.3705C7.25768 10.2089 8.2772 9.67793 9.06249 8.85773C9.84778 8.03753 10.3562 6.9727 10.5109 5.82408H32.4891C32.6438 6.9727 33.1522 8.03753 33.9375 8.85773C34.7228 9.67793 35.7423 10.2089 36.8421 10.3705V17.4773C35.9791 17.6026 35.1614 17.9576 34.4678 18.5083C33.7741 19.059 33.2277 19.7867 32.8811 20.6217ZM2.16406 1.65271H40.8359V26.203H39.7492C39.4511 24.8545 38.7881 23.624 37.8391 22.6581C36.8901 21.6923 35.6952 21.0319 34.3968 20.7556C34.7236 20.1884 35.1852 19.7192 35.7369 19.3934C36.2885 19.0675 36.9114 18.8961 37.5452 18.8958C37.7317 18.8958 37.9105 18.8184 38.0424 18.6807C38.1742 18.543 38.2483 18.3562 38.2483 18.1614V9.68676C38.2483 9.49199 38.1742 9.3052 38.0424 9.16748C37.9105 9.02975 37.7317 8.95238 37.5452 8.95238C36.5647 8.95126 35.6246 8.54394 34.9313 7.8198C34.238 7.09566 33.848 6.11383 33.8469 5.08974C33.8469 4.89497 33.7728 4.70819 33.641 4.57047C33.5091 4.43275 33.3303 4.35538 33.1438 4.35536H9.85621C9.66973 4.35538 9.4909 4.43275 9.35904 4.57047C9.22718 4.70819 9.15309 4.89497 9.15308 5.08974C9.15201 6.11383 8.76203 7.09566 8.0687 7.8198C7.37537 8.54394 6.43533 8.95126 5.45481 8.95238C5.26833 8.95238 5.08949 9.02975 4.95763 9.16748C4.82577 9.3052 4.75169 9.49199 4.75169 9.68676V18.1614C4.7517 18.3562 4.82578 18.543 4.95764 18.6807C5.0895 18.8184 5.26834 18.8958 5.45481 18.8958C6.43627 18.898 7.37683 19.3067 8.07015 20.0322C8.76347 20.7577 9.15293 21.7409 9.15308 22.766C9.15309 22.9607 9.22718 23.1475 9.35904 23.2852C9.4909 23.423 9.66973 23.5003 9.85621 23.5004H27.5305C26.9513 24.3028 26.5402 25.2237 26.3241 26.203H2.16406V1.65271Z" fill="url(#paint2_linear_1517_11804)"/>
<defs>
<linearGradient id="paint0_linear_1517_11804" x1="19.187" y1="9.18302" x2="24.2476" y2="9.51247" gradientUnits="userSpaceOnUse">
<stop offset="0.158241" stop-color="#002D31"/>
<stop offset="0.32869" stop-color="#005961"/>
<stop offset="0.509791" stop-color="#00818C"/>
<stop offset="0.786145" stop-color="#005961"/>
<stop offset="0.988044" stop-color="#002D31"/>
</linearGradient>
<linearGradient id="paint1_linear_1517_11804" x1="14.6082" y1="7.41108" x2="37.2634" y2="9.13505" gradientUnits="userSpaceOnUse">
<stop offset="0.158241" stop-color="#002D31"/>
<stop offset="0.32869" stop-color="#005961"/>
<stop offset="0.509791" stop-color="#00818C"/>
<stop offset="0.786145" stop-color="#005961"/>
<stop offset="0.988044" stop-color="#002D31"/>
</linearGradient>
<linearGradient id="paint2_linear_1517_11804" x1="0.757813" y1="1.02701" x2="45.6503" y2="6.55936" gradientUnits="userSpaceOnUse">
<stop offset="0.158241" stop-color="#002D31"/>
<stop offset="0.32869" stop-color="#005961"/>
<stop offset="0.509791" stop-color="#00818C"/>
<stop offset="0.786145" stop-color="#005961"/>
<stop offset="0.988044" stop-color="#002D31"/>
</linearGradient>
</defs>
</svg>
