<svg width="45" height="49" viewBox="0 0 45 49" fill="none" xmlns="http://www.w3.org/2000/svg">
<path d="M43.9521 19.6238H1M43.9521 25.4402V16.8319C43.9521 12.9233 43.9521 10.969 43.1718 9.47529C42.4855 8.16203 41.3904 7.09432 40.0434 6.42516C38.5115 5.66437 36.507 5.66437 32.4982 5.66437H12.4539C8.44503 5.66437 6.44059 5.66437 4.90864 6.42516C3.56171 7.09432 2.46661 8.16203 1.7803 9.47529C1 10.969 1 12.9233 1 16.8319V36.3751C1 40.2837 1 42.2381 1.7803 43.7317C2.46661 45.045 3.56171 46.1127 4.90864 46.7818C6.44059 47.5426 8.44503 47.5426 12.4539 47.5426H22.476M32.0209 1.01123V10.3175M12.9311 1.01123V10.3175M28.4416 40.5629L33.214 45.2161L43.9521 34.7465" stroke="url(#paint0_linear_1034_12935)" stroke-width="1.12903" stroke-linecap="round" stroke-linejoin="round"/>
<defs>
<linearGradient id="paint0_linear_1034_12935" x1="1" y1="1.85246" x2="47.4276" y2="7.78922" gradientUnits="userSpaceOnUse">
<stop offset="0.158241" stop-color="#002D31"/>
<stop offset="0.32869" stop-color="#005961"/>
<stop offset="0.509791" stop-color="#00818C"/>
<stop offset="0.786145" stop-color="#005961"/>
<stop offset="0.988044" stop-color="#002D31"/>
</linearGradient>
</defs>
</svg>
