<svg width="125" height="63" viewBox="0 0 125 63" fill="none" xmlns="http://www.w3.org/2000/svg">
<path opacity="0.4" d="M73.0501 3.945C74.1395 3.945 75.0226 3.06189 75.0226 1.9725C75.0226 0.883122 74.1395 0 73.0501 0C71.9608 0 71.0776 0.883122 71.0776 1.9725C71.0776 3.06189 71.9608 3.945 73.0501 3.945Z" fill="#DDE4E4"/>
<path opacity="0.4" d="M51.45 3.945C52.5394 3.945 53.4225 3.06189 53.4225 1.9725C53.4225 0.883122 52.5394 0 51.45 0C50.3607 0 49.4775 0.883122 49.4775 1.9725C49.4775 3.06189 50.3607 3.945 51.45 3.945Z" fill="#DDE4E4"/>
<path opacity="0.4" d="M60.045 42.5396V6.11965C60.045 4.19965 58.4925 2.64715 56.58 2.64715C54.6675 2.64715 53.115 4.19965 53.115 6.11965V9.55466V42.5997C53.115 49.8897 47.205 55.7996 39.9225 55.7996H8.91C7.8 55.7996 6.89246 54.8997 6.89246 53.7822V22.7472C6.89246 15.4572 12.795 9.54715 20.085 9.54715H41.1C41.6925 9.54715 42.18 10.0271 42.18 10.6271V42.6071C42.18 43.8521 41.175 44.8571 39.93 44.8571H18.9075C18.3075 44.8571 17.8275 44.3696 17.8275 43.7771V22.7397C17.8275 21.4947 18.8325 20.4821 20.0775 20.4821H34.7025C36.6075 20.4821 38.1525 18.9371 38.1525 17.0246C38.1525 15.1196 36.6075 13.5671 34.7025 13.5671H20.0925C15.03 13.5671 10.92 17.6772 10.92 22.7472V50.6847C10.92 51.2772 11.4 51.7647 12 51.7647H39.915C44.9775 51.7647 49.0875 47.6547 49.0875 42.5846V20.4972V4.64215C49.0875 3.53965 48.195 2.63965 47.085 2.63965H20.175C9.03002 2.63965 0 11.6772 0 22.8297V60.7047C0 61.8147 0.899956 62.7222 2.01746 62.7222H39.87C51.015 62.7222 60.045 53.6847 60.045 42.5322V42.5396Z" fill="#DDE4E4"/>
<path opacity="0.4" d="M64.0801 42.502V6.08205C64.0801 4.16205 65.6326 2.60955 67.5451 2.60955C69.4576 2.60955 71.0101 4.16205 71.0101 6.08205V9.51705V42.562C71.0101 49.8521 76.9201 55.7621 84.2026 55.7621H115.215C116.325 55.7621 117.233 54.8621 117.233 53.7446V22.7095C117.233 15.4195 111.33 9.50954 104.04 9.50954H83.0251C82.4326 9.50954 81.9451 9.98955 81.9451 10.5895V42.5695C81.9451 43.8145 82.9501 44.8195 84.1951 44.8195H105.218C105.818 44.8195 106.298 44.3321 106.298 43.7396V22.7021C106.298 21.4571 105.293 20.4445 104.048 20.4445H89.4226C87.5176 20.4445 85.9726 18.8995 85.9726 16.987C85.9726 15.082 87.5176 13.5295 89.4226 13.5295H104.033C109.095 13.5295 113.205 17.6395 113.205 22.7095V50.647C113.205 51.2395 112.725 51.7271 112.125 51.7271H84.2101C79.1476 51.7271 75.0377 47.617 75.0377 42.547V20.4595V4.60455C75.0377 3.50205 75.9301 2.60205 77.0401 2.60205H103.95C115.095 2.60205 124.125 11.6395 124.125 22.792V60.667C124.125 61.7771 123.225 62.6846 122.108 62.6846H84.2551C73.1101 62.6846 64.0801 53.6471 64.0801 42.4946V42.502Z" fill="#DDE4E4"/>
</svg>
