<svg width="30" height="30" viewBox="0 0 30 30" fill="none" xmlns="http://www.w3.org/2000/svg">
<path d="M28.2272 23.0174C27.8181 22.881 27.409 22.8356 26.909 22.881V15.6538H28.5C28.7727 15.6538 28.9545 15.4719 28.9545 15.1992C28.9545 15.0628 28.909 14.9265 28.8181 14.881L27.3181 12.881V8.1083C27.3181 7.97193 27.2727 7.88102 27.1818 7.79012C27.0909 7.69921 27 7.65375 26.8636 7.65375H24.2272C23.9545 7.65375 23.7727 7.83557 23.7727 8.1083V9.51739L22.2727 8.1083C22.2727 7.92648 22.3181 7.69921 22.3181 7.47193C22.409 4.19921 19.7272 1.56284 16.4545 1.56284C15.8636 1.56284 15.2727 1.65375 14.7272 1.83557C13.2272 0.0628427 10.5454 -0.0735208 8.90905 1.56284C7.86359 2.6083 7.49996 4.15375 7.9545 5.56284L2.09086 11.4265C1.99996 11.5174 1.9545 11.6083 1.9545 11.7447L1.90905 13.7901C1.90905 14.0628 2.09086 14.2447 2.36359 14.2447L4.40905 14.1992C4.59086 14.1992 4.77268 14.0628 4.81814 13.881L5.22723 12.5174L6.31814 12.381C6.49996 12.3356 6.63632 12.1992 6.68177 12.0174L6.90905 11.1083L7.72723 10.9719C7.90905 10.9265 8.04541 10.7901 8.09086 10.6083L8.31814 9.69921L9.18177 9.51739C9.27268 9.51739 9.36359 9.47193 9.40905 9.38102L10.5454 8.24466C10.7727 10.0628 11.8181 11.6992 13.3636 12.6083L11.0909 14.881C10.9545 15.0174 10.909 15.1992 11 15.381C11.0909 15.5628 11.2272 15.6538 11.409 15.6538H13V18.881C11.5454 18.3356 9.77268 18.7901 8.31814 19.381L8.27268 19.1538C8.22723 18.9265 7.99996 18.7447 7.77268 18.7447L0.954501 19.5174C0.681774 19.5628 0.54541 19.7901 0.54541 20.0174L1.59086 28.6992C1.63632 28.9265 1.81814 29.1083 2.04541 29.1083H2.09086L8.9545 28.2901C9.22723 28.2447 9.36359 28.0174 9.36359 27.7901L9.27268 27.1992C12.1818 27.8356 15.9545 29.3356 16 29.3356C18.2727 30.3356 20.7727 30.0628 23.0454 29.0628C24.6818 28.3356 27.5454 27.381 28.8636 26.1538C29.8636 25.2447 29.5454 23.4265 28.2272 23.0174ZM17.3636 21.2901V18.2447H22.5909V23.881L22.3636 23.9719C22 22.4719 19.1818 22.1083 17.3636 21.2901ZM10.0909 7.33557L8.81814 8.6083L7.81814 8.83557C7.63632 8.88102 7.49996 9.01739 7.4545 9.15375L7.22723 10.0628L6.40905 10.1992C6.22723 10.2447 6.09086 10.381 6.04541 10.5174L5.81814 11.4265L4.77268 11.5628C4.59086 11.5628 4.4545 11.6992 4.40905 11.881L4.04541 13.2447L2.81814 13.2901L2.86359 11.9265L8.77268 6.01739C8.90905 5.88102 8.9545 5.69921 8.86359 5.51739C8.40905 4.38102 8.68177 3.06284 9.54541 2.19921C10.6818 1.06284 12.5454 1.01739 13.8181 2.15375C13.5909 2.24466 13.409 2.38102 13.1818 2.51739C12.5 2.06284 11.5909 2.1083 11 2.69921C10.3181 3.38102 10.3181 4.42648 11 5.1083C11.6818 5.79012 12.7727 5.79012 13.409 5.1083C13.909 4.6083 14.0454 3.88102 13.7727 3.19921C13.9545 3.06284 14.1818 2.97193 14.3636 2.88102C15.0454 4.06284 14.8636 5.6083 13.909 6.56284C13 7.47193 11.6818 7.65375 10.5909 7.24466C10.409 7.19921 10.2272 7.24466 10.0909 7.33557ZM12.7727 3.38102C13.0909 3.69921 13.0909 4.19921 12.7727 4.51739C12.4545 4.83557 11.9545 4.83557 11.6363 4.51739C11.3181 4.19921 11.3181 3.69921 11.6363 3.38102C11.9545 3.06284 12.4545 3.06284 12.7727 3.38102ZM11.5 8.38102H11.7727C12.8181 8.38102 13.8181 7.97193 14.5454 7.24466C15.7727 6.01739 16.0454 4.1083 15.2727 2.6083C15.6363 2.51739 16.0454 2.47193 16.4545 2.47193C19.1818 2.47193 21.3636 4.6083 21.5 7.29012L20.3181 6.19921C20.1363 6.01739 19.8636 6.01739 19.6818 6.19921L14.0454 11.9265C12.6818 11.1538 11.7272 9.88102 11.5 8.38102ZM12.5454 14.7447L14.2272 13.0174C14.909 13.2901 15.6818 13.4719 16.4545 13.4719C17.1818 13.4719 17.8636 13.3356 18.5454 13.0628C18.909 13.4719 19.409 13.7447 20 13.7447C21.0454 13.7447 21.909 12.881 21.909 11.8356C21.909 10.7901 21.0454 9.92648 20 9.92648C18.9545 9.92648 18.0909 10.7901 18.0909 11.8356C18.0909 11.9719 18.0909 12.1083 18.1363 12.1992C17.0909 12.5628 15.9545 12.5628 14.9545 12.2447L20 7.15375L23.9545 10.881C24.0909 11.0174 24.2727 11.0174 24.4545 10.9719C24.6363 10.881 24.7272 10.7447 24.7272 10.5628V8.56284H26.4545V13.0174C26.4545 13.1083 26.5 13.1992 26.5454 13.2901L27.6363 14.7447H26.5C26.2272 14.7447 26.0454 14.9265 26.0454 15.1992V22.9719C25.4545 23.0628 24.5454 23.2447 23.5 23.6083V17.7901C23.5 17.5174 23.3181 17.3356 23.0454 17.3356H16.909C16.6363 17.3356 16.4545 17.5174 16.4545 17.7901V20.8356C15.8636 20.5174 14.2272 19.6083 13.9545 19.381V15.1992C13.9545 14.9265 13.7727 14.7447 13.5 14.7447H12.5454ZM19 11.8356C19 11.2901 19.4545 10.8356 20 10.8356C20.5454 10.8356 21 11.2901 21 11.8356C21 12.381 20.5454 12.8356 20 12.8356C19.4545 12.8356 19 12.381 19 11.8356ZM2.40905 28.1538L1.49996 20.381L7.49996 19.6538C8.09086 24.6538 8.09086 24.6083 8.40905 27.4265L2.40905 28.1538ZM28.2272 25.5174C27.0454 26.6083 24.409 27.4265 22.6363 28.2447C21.3636 28.8356 18.909 29.6083 16.3181 28.5174C16.1363 28.4265 12.1363 26.8356 9.13632 26.2447L8.4545 20.2901C9.68177 19.7447 11.3636 19.2901 12.6363 19.6992C13.2727 19.9265 13.1363 20.0174 15.1818 21.1538C16.5 21.881 17.6818 22.4719 19.1363 22.881C20 23.1083 21.2727 23.6538 21.4545 24.1538C21.5 24.1992 21.5 24.2901 21.4545 24.4265C20.409 25.3356 19 25.4719 17.6363 24.5628C16.4545 23.7901 15 23.5174 14.9545 23.5174C14.7272 23.4719 14.4545 23.6538 14.409 23.881C14.3636 24.1083 14.5454 24.381 14.7727 24.4265C14.7727 24.4265 16.0909 24.6992 17.1363 25.3356C18.8636 26.4719 20.7272 26.3356 22.0909 25.1083C23.5 24.4719 26.5 23.4265 28 23.881C28.5909 24.0628 28.7727 25.0174 28.2272 25.5174Z" fill="url(#paint0_linear_1048_26346)"/>
<path d="M28.2272 23.0174C27.8181 22.881 27.409 22.8356 26.909 22.881V15.6538H28.5C28.7727 15.6538 28.9545 15.4719 28.9545 15.1992C28.9545 15.0628 28.909 14.9265 28.8181 14.881L27.3181 12.881V8.1083C27.3181 7.97193 27.2727 7.88102 27.1818 7.79012C27.0909 7.69921 27 7.65375 26.8636 7.65375H24.2272C23.9545 7.65375 23.7727 7.83557 23.7727 8.1083V9.51739L22.2727 8.1083C22.2727 7.92648 22.3181 7.69921 22.3181 7.47193C22.409 4.19921 19.7272 1.56284 16.4545 1.56284C15.8636 1.56284 15.2727 1.65375 14.7272 1.83557C13.2272 0.0628427 10.5454 -0.0735208 8.90905 1.56284C7.86359 2.6083 7.49996 4.15375 7.9545 5.56284L2.09086 11.4265C1.99996 11.5174 1.9545 11.6083 1.9545 11.7447L1.90905 13.7901C1.90905 14.0628 2.09086 14.2447 2.36359 14.2447L4.40905 14.1992C4.59086 14.1992 4.77268 14.0628 4.81814 13.881L5.22723 12.5174L6.31814 12.381C6.49996 12.3356 6.63632 12.1992 6.68177 12.0174L6.90905 11.1083L7.72723 10.9719C7.90905 10.9265 8.04541 10.7901 8.09086 10.6083L8.31814 9.69921L9.18177 9.51739C9.27268 9.51739 9.36359 9.47193 9.40905 9.38102L10.5454 8.24466C10.7727 10.0628 11.8181 11.6992 13.3636 12.6083L11.0909 14.881C10.9545 15.0174 10.909 15.1992 11 15.381C11.0909 15.5628 11.2272 15.6538 11.409 15.6538H13V18.881C11.5454 18.3356 9.77268 18.7901 8.31814 19.381L8.27268 19.1538C8.22723 18.9265 7.99996 18.7447 7.77268 18.7447L0.954501 19.5174C0.681774 19.5628 0.54541 19.7901 0.54541 20.0174L1.59086 28.6992C1.63632 28.9265 1.81814 29.1083 2.04541 29.1083H2.09086L8.9545 28.2901C9.22723 28.2447 9.36359 28.0174 9.36359 27.7901L9.27268 27.1992C12.1818 27.8356 15.9545 29.3356 16 29.3356C18.2727 30.3356 20.7727 30.0628 23.0454 29.0628C24.6818 28.3356 27.5454 27.381 28.8636 26.1538C29.8636 25.2447 29.5454 23.4265 28.2272 23.0174ZM17.3636 21.2901V18.2447H22.5909V23.881L22.3636 23.9719C22 22.4719 19.1818 22.1083 17.3636 21.2901ZM10.0909 7.33557L8.81814 8.6083L7.81814 8.83557C7.63632 8.88102 7.49996 9.01739 7.4545 9.15375L7.22723 10.0628L6.40905 10.1992C6.22723 10.2447 6.09086 10.381 6.04541 10.5174L5.81814 11.4265L4.77268 11.5628C4.59086 11.5628 4.4545 11.6992 4.40905 11.881L4.04541 13.2447L2.81814 13.2901L2.86359 11.9265L8.77268 6.01739C8.90905 5.88102 8.9545 5.69921 8.86359 5.51739C8.40905 4.38102 8.68177 3.06284 9.54541 2.19921C10.6818 1.06284 12.5454 1.01739 13.8181 2.15375C13.5909 2.24466 13.409 2.38102 13.1818 2.51739C12.5 2.06284 11.5909 2.1083 11 2.69921C10.3181 3.38102 10.3181 4.42648 11 5.1083C11.6818 5.79012 12.7727 5.79012 13.409 5.1083C13.909 4.6083 14.0454 3.88102 13.7727 3.19921C13.9545 3.06284 14.1818 2.97193 14.3636 2.88102C15.0454 4.06284 14.8636 5.6083 13.909 6.56284C13 7.47193 11.6818 7.65375 10.5909 7.24466C10.409 7.19921 10.2272 7.24466 10.0909 7.33557ZM12.7727 3.38102C13.0909 3.69921 13.0909 4.19921 12.7727 4.51739C12.4545 4.83557 11.9545 4.83557 11.6363 4.51739C11.3181 4.19921 11.3181 3.69921 11.6363 3.38102C11.9545 3.06284 12.4545 3.06284 12.7727 3.38102ZM11.5 8.38102H11.7727C12.8181 8.38102 13.8181 7.97193 14.5454 7.24466C15.7727 6.01739 16.0454 4.1083 15.2727 2.6083C15.6363 2.51739 16.0454 2.47193 16.4545 2.47193C19.1818 2.47193 21.3636 4.6083 21.5 7.29012L20.3181 6.19921C20.1363 6.01739 19.8636 6.01739 19.6818 6.19921L14.0454 11.9265C12.6818 11.1538 11.7272 9.88102 11.5 8.38102ZM12.5454 14.7447L14.2272 13.0174C14.909 13.2901 15.6818 13.4719 16.4545 13.4719C17.1818 13.4719 17.8636 13.3356 18.5454 13.0628C18.909 13.4719 19.409 13.7447 20 13.7447C21.0454 13.7447 21.909 12.881 21.909 11.8356C21.909 10.7901 21.0454 9.92648 20 9.92648C18.9545 9.92648 18.0909 10.7901 18.0909 11.8356C18.0909 11.9719 18.0909 12.1083 18.1363 12.1992C17.0909 12.5628 15.9545 12.5628 14.9545 12.2447L20 7.15375L23.9545 10.881C24.0909 11.0174 24.2727 11.0174 24.4545 10.9719C24.6363 10.881 24.7272 10.7447 24.7272 10.5628V8.56284H26.4545V13.0174C26.4545 13.1083 26.5 13.1992 26.5454 13.2901L27.6363 14.7447H26.5C26.2272 14.7447 26.0454 14.9265 26.0454 15.1992V22.9719C25.4545 23.0628 24.5454 23.2447 23.5 23.6083V17.7901C23.5 17.5174 23.3181 17.3356 23.0454 17.3356H16.909C16.6363 17.3356 16.4545 17.5174 16.4545 17.7901V20.8356C15.8636 20.5174 14.2272 19.6083 13.9545 19.381V15.1992C13.9545 14.9265 13.7727 14.7447 13.5 14.7447H12.5454ZM19 11.8356C19 11.2901 19.4545 10.8356 20 10.8356C20.5454 10.8356 21 11.2901 21 11.8356C21 12.381 20.5454 12.8356 20 12.8356C19.4545 12.8356 19 12.381 19 11.8356ZM2.40905 28.1538L1.49996 20.381L7.49996 19.6538C8.09086 24.6538 8.09086 24.6083 8.40905 27.4265L2.40905 28.1538ZM28.2272 25.5174C27.0454 26.6083 24.409 27.4265 22.6363 28.2447C21.3636 28.8356 18.909 29.6083 16.3181 28.5174C16.1363 28.4265 12.1363 26.8356 9.13632 26.2447L8.4545 20.2901C9.68177 19.7447 11.3636 19.2901 12.6363 19.6992C13.2727 19.9265 13.1363 20.0174 15.1818 21.1538C16.5 21.881 17.6818 22.4719 19.1363 22.881C20 23.1083 21.2727 23.6538 21.4545 24.1538C21.5 24.1992 21.5 24.2901 21.4545 24.4265C20.409 25.3356 19 25.4719 17.6363 24.5628C16.4545 23.7901 15 23.5174 14.9545 23.5174C14.7272 23.4719 14.4545 23.6538 14.409 23.881C14.3636 24.1083 14.5454 24.381 14.7727 24.4265C14.7727 24.4265 16.0909 24.6992 17.1363 25.3356C18.8636 26.4719 20.7272 26.3356 22.0909 25.1083C23.5 24.4719 26.5 23.4265 28 23.881C28.5909 24.0628 28.7727 25.0174 28.2272 25.5174Z" fill="black" fill-opacity="0.2"/>
<defs>
<linearGradient id="paint0_linear_1048_26346" x1="1.47917" y1="2.68903" x2="28.5356" y2="22.2902" gradientUnits="userSpaceOnUse">
<stop offset="0.03125" stop-color="#003B40"/>
<stop offset="0.265625" stop-color="#005961"/>
<stop offset="0.509791" stop-color="#00818C"/>
<stop offset="0.760417" stop-color="#005961"/>
<stop offset="0.994792" stop-color="#003B40"/>
</linearGradient>
</defs>
</svg>
