<svg width="36" height="36" viewBox="0 0 36 36" fill="none" xmlns="http://www.w3.org/2000/svg">
<g clip-path="url(#clip0_1240_27189)">
<path d="M33.7207 26.9631C33.2425 26.8037 32.7644 26.7506 32.18 26.8037V18.3565H34.0394C34.3582 18.3565 34.5707 18.144 34.5707 17.8252C34.5707 17.6658 34.5176 17.5065 34.4113 17.4533L32.6581 15.1157V9.53739C32.6581 9.37801 32.605 9.27175 32.4987 9.1655C32.3925 9.05924 32.2862 9.00611 32.1269 9.00611H29.0455C28.7267 9.00611 28.5142 9.21862 28.5142 9.53739V11.1843L26.761 9.53739C26.761 9.32488 26.8141 9.05924 26.8141 8.79361C26.9204 4.96845 23.7859 1.88707 19.9607 1.88707C19.2701 1.88707 18.5794 1.99332 17.9419 2.20583C16.1887 0.133873 13.0542 -0.0255083 11.1416 1.88707C9.91969 3.109 9.49467 4.91532 10.0259 6.56226L3.17254 13.4157C3.06628 13.5219 3.01315 13.6282 3.01315 13.7876L2.96003 16.1783C2.96003 16.497 3.17254 16.7096 3.4913 16.7096L5.88202 16.6564C6.09453 16.6564 6.30704 16.497 6.36017 16.2845L6.83831 14.6907L8.11336 14.5313C8.32587 14.4782 8.48525 14.3188 8.53838 14.1063L8.80402 13.0438L9.76031 12.8844C9.97282 12.8313 10.1322 12.6719 10.1853 12.4594L10.451 11.3968L11.4604 11.1843C11.5666 11.1843 11.6729 11.1312 11.726 11.0249L13.0542 9.69677C13.3198 11.8219 14.5418 13.7344 16.3481 14.797L13.6917 17.4533C13.5323 17.6127 13.4792 17.8252 13.5855 18.0377C13.6917 18.2502 13.8511 18.3565 14.0636 18.3565H15.9231V22.1285C14.223 21.491 12.151 22.0223 10.451 22.7129L10.3978 22.4473C10.3447 22.1817 10.0791 21.9691 9.81343 21.9691L1.84436 22.8723C1.52559 22.9254 1.36621 23.1911 1.36621 23.4567L2.58814 33.604C2.64126 33.8696 2.85377 34.0821 3.11941 34.0821H3.17254L11.1947 33.1259C11.5135 33.0727 11.6729 32.8071 11.6729 32.5415L11.5666 31.8508C14.9668 32.5946 19.3763 34.3478 19.4295 34.3478C22.0858 35.5166 25.0078 35.1978 27.6642 34.029C29.5767 33.179 32.9238 32.0633 34.4644 30.6289C35.6332 29.5663 35.2614 27.4413 33.7207 26.9631ZM21.0233 24.9443V21.3848H27.1329V27.9725L26.8673 28.0788C26.4422 26.3256 23.1484 25.9006 21.0233 24.9443ZM12.5229 8.63422L11.0354 10.1218L9.86656 10.3874C9.65405 10.4405 9.49467 10.5999 9.44154 10.7593L9.17591 11.8219L8.21962 11.9812C8.00711 12.0344 7.84773 12.1937 7.7946 12.3531L7.52896 13.4157L6.30704 13.5751C6.09453 13.5751 5.93515 13.7344 5.88202 13.9469L5.457 15.5408L4.02257 15.5939L4.0757 14.0001L10.9822 7.09354C11.1416 6.93415 11.1947 6.72165 11.0885 6.50914C10.5572 5.18096 10.876 3.64027 11.8854 2.63085C13.2136 1.30267 15.3918 1.24954 16.8793 2.57772C16.6137 2.68398 16.4012 2.84336 16.1356 3.00274C15.3387 2.47147 14.2761 2.5246 13.5855 3.21525C12.7886 4.01216 12.7886 5.23408 13.5855 6.03099C14.3824 6.8279 15.6574 6.8279 16.4012 6.03099C16.9856 5.44659 17.145 4.59656 16.8262 3.79965C17.0387 3.64027 17.3044 3.53401 17.5169 3.42776C18.3138 4.80907 18.1013 6.61539 16.9856 7.73106C15.9231 8.79361 14.3824 9.00611 13.1073 8.52797C12.8948 8.47484 12.6823 8.52797 12.5229 8.63422ZM15.6574 4.01216C16.0293 4.38405 16.0293 4.96845 15.6574 5.34034C15.2855 5.71223 14.7011 5.71223 14.3292 5.34034C13.9574 4.96845 13.9574 4.38405 14.3292 4.01216C14.7011 3.64027 15.2855 3.64027 15.6574 4.01216ZM14.1699 9.85615H14.4886C15.7106 9.85615 16.8793 9.37801 17.7294 8.52797C19.1638 7.09354 19.4826 4.86219 18.5794 3.109C19.0044 3.00274 19.4826 2.94961 19.9607 2.94961C23.1484 2.94961 25.6985 5.44659 25.8578 8.5811L24.4765 7.30604C24.264 7.09354 23.9453 7.09354 23.7328 7.30604L17.145 14.0001C15.5512 13.0969 14.4355 11.6093 14.1699 9.85615ZM15.3918 17.294L17.3575 15.2751C18.1544 15.5939 19.0576 15.8064 19.9607 15.8064C20.8108 15.8064 21.6077 15.647 22.4046 15.3282C22.8296 15.8064 23.414 16.1252 24.1046 16.1252C25.3266 16.1252 26.336 15.1157 26.336 13.8938C26.336 12.6719 25.3266 11.6625 24.1046 11.6625C22.8827 11.6625 21.8733 12.6719 21.8733 13.8938C21.8733 14.0532 21.8733 14.2126 21.9264 14.3188C20.7045 14.7439 19.3763 14.7439 18.2075 14.372L24.1046 8.42172L28.7267 12.7781C28.8861 12.9375 29.0986 12.9375 29.3111 12.8844C29.5236 12.7781 29.6299 12.6188 29.6299 12.4063V10.0687H31.6487V15.2751C31.6487 15.3814 31.7018 15.4876 31.755 15.5939L33.03 17.294H31.7018C31.3831 17.294 31.1706 17.5065 31.1706 17.8252V26.91C30.4799 27.0162 29.4174 27.2287 28.1954 27.6538V20.8535C28.1954 20.5347 27.9829 20.3222 27.6642 20.3222H20.492C20.1732 20.3222 19.9607 20.5347 19.9607 20.8535V24.413C19.2701 24.0411 17.3575 22.9786 17.0387 22.7129V17.8252C17.0387 17.5065 16.8262 17.294 16.5075 17.294H15.3918ZM22.9358 13.8938C22.9358 13.2563 23.4671 12.725 24.1046 12.725C24.7422 12.725 25.2734 13.2563 25.2734 13.8938C25.2734 14.5313 24.7422 15.0626 24.1046 15.0626C23.4671 15.0626 22.9358 14.5313 22.9358 13.8938ZM3.54443 32.9665L2.48188 23.8817L9.49467 23.0317C10.1853 28.8757 10.1853 28.8226 10.5572 32.1164L3.54443 32.9665ZM33.7207 29.8851C32.3394 31.1602 29.258 32.1164 27.186 33.0727C25.6985 33.7634 22.8296 34.6665 19.8013 33.3915C19.5888 33.2852 14.9136 31.4258 11.4072 30.7351L10.6103 23.7755C12.0448 23.1379 14.0105 22.6067 15.498 23.0848C16.2418 23.3505 16.0824 23.4567 18.4732 24.7849C20.0139 25.6349 21.3952 26.3256 23.0952 26.8037C24.1046 27.0694 25.5922 27.7069 25.8047 28.2913C25.8578 28.3444 25.8578 28.4507 25.8047 28.61C24.5828 29.6726 22.9358 29.832 21.342 28.7694C19.9607 27.8663 18.2607 27.5475 18.2075 27.5475C17.9419 27.4944 17.6231 27.7069 17.57 27.9725C17.5169 28.2382 17.7294 28.5569 17.995 28.61C17.995 28.61 19.5357 28.9288 20.7576 29.6726C22.7765 31.0008 24.9547 30.8414 26.5485 29.407C28.1954 28.6632 31.7018 27.4412 33.455 27.9725C34.1457 28.185 34.3582 29.3007 33.7207 29.8851Z" fill="url(#paint0_linear_1240_27189)"/>
<path d="M33.7207 26.9631C33.2425 26.8037 32.7644 26.7506 32.18 26.8037V18.3565H34.0394C34.3582 18.3565 34.5707 18.144 34.5707 17.8252C34.5707 17.6658 34.5176 17.5065 34.4113 17.4533L32.6581 15.1157V9.53739C32.6581 9.37801 32.605 9.27175 32.4987 9.1655C32.3925 9.05924 32.2862 9.00611 32.1269 9.00611H29.0455C28.7267 9.00611 28.5142 9.21862 28.5142 9.53739V11.1843L26.761 9.53739C26.761 9.32488 26.8141 9.05924 26.8141 8.79361C26.9204 4.96845 23.7859 1.88707 19.9607 1.88707C19.2701 1.88707 18.5794 1.99332 17.9419 2.20583C16.1887 0.133873 13.0542 -0.0255083 11.1416 1.88707C9.91969 3.109 9.49467 4.91532 10.0259 6.56226L3.17254 13.4157C3.06628 13.5219 3.01315 13.6282 3.01315 13.7876L2.96003 16.1783C2.96003 16.497 3.17254 16.7096 3.4913 16.7096L5.88202 16.6564C6.09453 16.6564 6.30704 16.497 6.36017 16.2845L6.83831 14.6907L8.11336 14.5313C8.32587 14.4782 8.48525 14.3188 8.53838 14.1063L8.80402 13.0438L9.76031 12.8844C9.97282 12.8313 10.1322 12.6719 10.1853 12.4594L10.451 11.3968L11.4604 11.1843C11.5666 11.1843 11.6729 11.1312 11.726 11.0249L13.0542 9.69677C13.3198 11.8219 14.5418 13.7344 16.3481 14.797L13.6917 17.4533C13.5323 17.6127 13.4792 17.8252 13.5855 18.0377C13.6917 18.2502 13.8511 18.3565 14.0636 18.3565H15.9231V22.1285C14.223 21.491 12.151 22.0223 10.451 22.7129L10.3978 22.4473C10.3447 22.1817 10.0791 21.9691 9.81343 21.9691L1.84436 22.8723C1.52559 22.9254 1.36621 23.1911 1.36621 23.4567L2.58814 33.604C2.64126 33.8696 2.85377 34.0821 3.11941 34.0821H3.17254L11.1947 33.1259C11.5135 33.0727 11.6729 32.8071 11.6729 32.5415L11.5666 31.8508C14.9668 32.5946 19.3763 34.3478 19.4295 34.3478C22.0858 35.5166 25.0078 35.1978 27.6642 34.029C29.5767 33.179 32.9238 32.0633 34.4644 30.6289C35.6332 29.5663 35.2614 27.4413 33.7207 26.9631ZM21.0233 24.9443V21.3848H27.1329V27.9725L26.8673 28.0788C26.4422 26.3256 23.1484 25.9006 21.0233 24.9443ZM12.5229 8.63422L11.0354 10.1218L9.86656 10.3874C9.65405 10.4405 9.49467 10.5999 9.44154 10.7593L9.17591 11.8219L8.21962 11.9812C8.00711 12.0344 7.84773 12.1937 7.7946 12.3531L7.52896 13.4157L6.30704 13.5751C6.09453 13.5751 5.93515 13.7344 5.88202 13.9469L5.457 15.5408L4.02257 15.5939L4.0757 14.0001L10.9822 7.09354C11.1416 6.93415 11.1947 6.72165 11.0885 6.50914C10.5572 5.18096 10.876 3.64027 11.8854 2.63085C13.2136 1.30267 15.3918 1.24954 16.8793 2.57772C16.6137 2.68398 16.4012 2.84336 16.1356 3.00274C15.3387 2.47147 14.2761 2.5246 13.5855 3.21525C12.7886 4.01216 12.7886 5.23408 13.5855 6.03099C14.3824 6.8279 15.6574 6.8279 16.4012 6.03099C16.9856 5.44659 17.145 4.59656 16.8262 3.79965C17.0387 3.64027 17.3044 3.53401 17.5169 3.42776C18.3138 4.80907 18.1013 6.61539 16.9856 7.73106C15.9231 8.79361 14.3824 9.00611 13.1073 8.52797C12.8948 8.47484 12.6823 8.52797 12.5229 8.63422ZM15.6574 4.01216C16.0293 4.38405 16.0293 4.96845 15.6574 5.34034C15.2855 5.71223 14.7011 5.71223 14.3292 5.34034C13.9574 4.96845 13.9574 4.38405 14.3292 4.01216C14.7011 3.64027 15.2855 3.64027 15.6574 4.01216ZM14.1699 9.85615H14.4886C15.7106 9.85615 16.8793 9.37801 17.7294 8.52797C19.1638 7.09354 19.4826 4.86219 18.5794 3.109C19.0044 3.00274 19.4826 2.94961 19.9607 2.94961C23.1484 2.94961 25.6985 5.44659 25.8578 8.5811L24.4765 7.30604C24.264 7.09354 23.9453 7.09354 23.7328 7.30604L17.145 14.0001C15.5512 13.0969 14.4355 11.6093 14.1699 9.85615ZM15.3918 17.294L17.3575 15.2751C18.1544 15.5939 19.0576 15.8064 19.9607 15.8064C20.8108 15.8064 21.6077 15.647 22.4046 15.3282C22.8296 15.8064 23.414 16.1252 24.1046 16.1252C25.3266 16.1252 26.336 15.1157 26.336 13.8938C26.336 12.6719 25.3266 11.6625 24.1046 11.6625C22.8827 11.6625 21.8733 12.6719 21.8733 13.8938C21.8733 14.0532 21.8733 14.2126 21.9264 14.3188C20.7045 14.7439 19.3763 14.7439 18.2075 14.372L24.1046 8.42172L28.7267 12.7781C28.8861 12.9375 29.0986 12.9375 29.3111 12.8844C29.5236 12.7781 29.6299 12.6188 29.6299 12.4063V10.0687H31.6487V15.2751C31.6487 15.3814 31.7018 15.4876 31.755 15.5939L33.03 17.294H31.7018C31.3831 17.294 31.1706 17.5065 31.1706 17.8252V26.91C30.4799 27.0162 29.4174 27.2287 28.1954 27.6538V20.8535C28.1954 20.5347 27.9829 20.3222 27.6642 20.3222H20.492C20.1732 20.3222 19.9607 20.5347 19.9607 20.8535V24.413C19.2701 24.0411 17.3575 22.9786 17.0387 22.7129V17.8252C17.0387 17.5065 16.8262 17.294 16.5075 17.294H15.3918ZM22.9358 13.8938C22.9358 13.2563 23.4671 12.725 24.1046 12.725C24.7422 12.725 25.2734 13.2563 25.2734 13.8938C25.2734 14.5313 24.7422 15.0626 24.1046 15.0626C23.4671 15.0626 22.9358 14.5313 22.9358 13.8938ZM3.54443 32.9665L2.48188 23.8817L9.49467 23.0317C10.1853 28.8757 10.1853 28.8226 10.5572 32.1164L3.54443 32.9665ZM33.7207 29.8851C32.3394 31.1602 29.258 32.1164 27.186 33.0727C25.6985 33.7634 22.8296 34.6665 19.8013 33.3915C19.5888 33.2852 14.9136 31.4258 11.4072 30.7351L10.6103 23.7755C12.0448 23.1379 14.0105 22.6067 15.498 23.0848C16.2418 23.3505 16.0824 23.4567 18.4732 24.7849C20.0139 25.6349 21.3952 26.3256 23.0952 26.8037C24.1046 27.0694 25.5922 27.7069 25.8047 28.2913C25.8578 28.3444 25.8578 28.4507 25.8047 28.61C24.5828 29.6726 22.9358 29.832 21.342 28.7694C19.9607 27.8663 18.2607 27.5475 18.2075 27.5475C17.9419 27.4944 17.6231 27.7069 17.57 27.9725C17.5169 28.2382 17.7294 28.5569 17.995 28.61C17.995 28.61 19.5357 28.9288 20.7576 29.6726C22.7765 31.0008 24.9547 30.8414 26.5485 29.407C28.1954 28.6632 31.7018 27.4412 33.455 27.9725C34.1457 28.185 34.3582 29.3007 33.7207 29.8851Z" fill="black" fill-opacity="0.2"/>
</g>
<defs>
<linearGradient id="paint0_linear_1240_27189" x1="2.45758" y1="3.20335" x2="34.0811" y2="26.1132" gradientUnits="userSpaceOnUse">
<stop offset="0.03125" stop-color="#003B40"/>
<stop offset="0.265625" stop-color="#005961"/>
<stop offset="0.509791" stop-color="#00818C"/>
<stop offset="0.760417" stop-color="#005961"/>
<stop offset="0.994792" stop-color="#003B40"/>
</linearGradient>
<clipPath id="clip0_1240_27189">
<rect width="35.0639" height="35.0639" fill="white" transform="translate(0.727539 0.293945)"/>
</clipPath>
</defs>
</svg>
