<svg width="125" height="61" viewBox="0 0 125 61" fill="none" xmlns="http://www.w3.org/2000/svg">
<path opacity="0.4" d="M60.045 39.9376V3.5176C60.045 1.5976 58.4925 0.0450993 56.58 0.0450993C54.6675 0.0450993 53.115 1.5976 53.115 3.5176V6.9526V39.9976C53.115 47.2876 47.205 53.1976 39.9225 53.1976H8.91C7.8 53.1976 6.89246 52.2976 6.89246 51.1801V20.1451C6.89246 12.8551 12.795 6.9451 20.085 6.9451H41.1C41.6925 6.9451 42.18 7.4251 42.18 8.0251V40.0051C42.18 41.2501 41.175 42.2551 39.93 42.2551H18.9075C18.3075 42.2551 17.8275 41.7676 17.8275 41.1751V20.1376C17.8275 18.8926 18.8325 17.8801 20.0775 17.8801H34.7025C36.6075 17.8801 38.1525 16.3351 38.1525 14.4226C38.1525 12.5176 36.6075 10.9651 34.7025 10.9651H20.0925C15.03 10.9651 10.92 15.0751 10.92 20.1451V48.0826C10.92 48.6751 11.4 49.1626 12 49.1626H39.915C44.9775 49.1626 49.0875 45.0526 49.0875 39.9826V17.8951V2.0401C49.0875 0.937602 48.195 0.0375977 47.085 0.0375977H20.175C9.03002 0.0375977 0 9.0751 0 20.2276V58.1026C0 59.2126 0.899956 60.1201 2.01746 60.1201H39.87C51.015 60.1201 60.045 51.0826 60.045 39.9301V39.9376Z" fill="#DDE4E4"/>
<path opacity="0.4" d="M64.0801 39.9V3.48C64.0801 1.56 65.6326 0.0075016 67.5451 0.0075016C69.4576 0.0075016 71.0101 1.56 71.0101 3.48V6.915V39.96C71.0101 47.25 76.9201 53.16 84.2026 53.16H115.215C116.325 53.16 117.233 52.26 117.233 51.1425V20.1075C117.233 12.8175 111.33 6.90749 104.04 6.90749H83.0251C82.4326 6.90749 81.9451 7.3875 81.9451 7.9875V39.9675C81.9451 41.2125 82.9501 42.2175 84.1951 42.2175H105.218C105.818 42.2175 106.298 41.73 106.298 41.1375V20.1C106.298 18.855 105.293 17.8425 104.048 17.8425H89.4226C87.5176 17.8425 85.9726 16.2975 85.9726 14.385C85.9726 12.48 87.5176 10.9275 89.4226 10.9275H104.033C109.095 10.9275 113.205 15.0375 113.205 20.1075V48.045C113.205 48.6375 112.725 49.125 112.125 49.125H84.2101C79.1476 49.125 75.0377 45.015 75.0377 39.945V17.8575V2.0025C75.0377 0.899999 75.9301 0 77.0401 0H103.95C115.095 0 124.125 9.0375 124.125 20.19V58.065C124.125 59.175 123.225 60.0825 122.108 60.0825H84.2551C73.1101 60.0825 64.0801 51.045 64.0801 39.8925V39.9Z" fill="#DDE4E4"/>
</svg>
