<svg width="57" height="31" viewBox="0 0 57 31" fill="none" xmlns="http://www.w3.org/2000/svg">
<path d="M56.4723 29.7439H35.8909V30.6015H56.4723V29.7439Z" fill="url(#paint0_linear_1629_12762)"/>
<path d="M54.3283 30.6015H38.0347V13.8791H41.4649V11.3064H46.6102V17.3093H50.0405V13.8791H54.3283V30.6015ZM38.8922 29.7439H53.4707V14.7366H50.898V18.1669H45.7527V12.164H42.3225V14.7366H38.8922V29.7439Z" fill="url(#paint1_linear_1629_12762)"/>
<path d="M49.1831 30.6013H43.1802V25.8848H49.1831V30.6013ZM44.0377 29.7438H48.3255V26.7423H44.0377V29.7438Z" fill="url(#paint2_linear_1629_12762)"/>
<path d="M46.6102 26.3137H45.7527V30.1727H46.6102V26.3137Z" fill="url(#paint3_linear_1629_12762)"/>
<path d="M42.3224 25.0273H39.7498V22.4546H42.3224V25.0273ZM40.6073 24.1698H41.4649V23.3122H40.6073V24.1698ZM45.7527 25.0273H43.18V22.4546H45.7527V25.0273ZM44.0375 24.1698H44.8951V23.3122H44.0375V24.1698ZM49.1829 25.0273H46.6102V22.4546H49.1829V25.0273ZM47.4678 24.1698H48.3253V23.3122H47.4678V24.1698ZM52.6131 25.0273H50.0405V22.4546H52.6131V25.0273ZM50.898 24.1698H51.7556V23.3122H50.898V24.1698ZM42.3224 21.5971H39.7498V19.0244H42.3224V21.5971ZM40.6073 20.7395H41.4649V19.882H40.6073V20.7395ZM45.7527 21.5971H43.18V19.0244H45.7527V21.5971ZM44.0375 20.7395H44.8951V19.882H44.0375V20.7395Z" fill="url(#paint4_linear_1629_12762)"/>
<path d="M42.3226 21.1683H41.465V19.882H40.1787V19.0244H42.3226V21.1683Z" fill="url(#paint5_linear_1629_12762)"/>
<path d="M42.3224 18.1669H39.7498V15.5942H42.3224V18.1669ZM40.6073 17.3094H41.4649V16.4518H40.6073V17.3094Z" fill="url(#paint6_linear_1629_12762)"/>
<path d="M42.3226 17.7381H41.465V16.4518H40.1787V15.5942H42.3226V17.7381Z" fill="url(#paint7_linear_1629_12762)"/>
<path d="M44.0377 21.1683H43.1802V19.0244H45.3241V19.882H44.0377V21.1683Z" fill="url(#paint8_linear_1629_12762)"/>
<path d="M49.183 21.5971H46.6104V19.0244H49.183V21.5971ZM47.4679 20.7395H48.3255V19.882H47.4679V20.7395ZM52.6133 21.5971H50.0406V19.0244H52.6133V21.5971ZM50.8981 20.7395H51.7557V19.882H50.8981V20.7395Z" fill="url(#paint9_linear_1629_12762)"/>
<path d="M39.7499 4.87476H38.8923V14.7367H39.7499V4.87476Z" fill="url(#paint10_linear_1629_12762)"/>
<path d="M49.183 7.44727H48.3254V18.1667H49.183V7.44727Z" fill="url(#paint11_linear_1629_12762)"/>
<path d="M44.4664 4.87476H43.6089V12.164H44.4664V4.87476Z" fill="url(#paint12_linear_1629_12762)"/>
<path d="M54.3283 9.16235H38.0347V10.0199H54.3283V9.16235Z" fill="url(#paint13_linear_1629_12762)"/>
<path d="M45.3239 5.73218H38.0347V6.58974H45.3239V5.73218Z" fill="url(#paint14_linear_1629_12762)"/>
<path d="M54.3283 12.1638H45.7527V13.0214H54.3283V12.1638Z" fill="url(#paint15_linear_1629_12762)"/>
<path d="M31.5581 5.94799C31.5581 5.93955 31.5581 5.93111 31.5581 5.92267V5.90398C31.5581 5.89674 31.5581 5.88951 31.5551 5.88227L31.5513 5.86057C31.5513 5.85454 31.5513 5.84851 31.547 5.84248C31.5427 5.83646 31.5427 5.82621 31.5402 5.81837L31.5347 5.80269C31.5316 5.79425 31.5285 5.78642 31.5248 5.77858C31.5211 5.77074 31.5204 5.76833 31.5186 5.76351C31.5167 5.75868 31.5106 5.74844 31.5062 5.7406C31.5019 5.73276 31.4963 5.73035 31.4963 5.72553L31.4834 5.70503L31.4722 5.68935C31.4679 5.68393 31.4636 5.6779 31.4586 5.67247L31.4457 5.6562L31.4314 5.64173L31.4154 5.62545L31.4005 5.61279C31.3929 5.60589 31.3849 5.59945 31.3764 5.5935C31.3676 5.58653 31.3583 5.58009 31.3486 5.5742C31.3447 5.57144 31.3406 5.56902 31.3363 5.56697L31.3097 5.5519L31.2967 5.54587L31.2683 5.53321H31.2633L16.7134 0.0289498C16.7067 0.0262006 16.6999 0.0239826 16.693 0.0223182L16.6781 0.0174952C16.6579 0.0114909 16.6372 0.00705592 16.6163 0.00423192H16.6089C16.5896 0.00164935 16.5702 0.000239911 16.5508 1.17891e-05H14.9203C14.8996 -0.000145191 14.879 0.00126577 14.8585 0.00423192H14.8517C14.8309 0.00763855 14.8102 0.012269 14.7899 0.0180981L14.7757 0.0223182L14.7541 0.0295527L0.294338 5.5314H0.290012L0.259726 5.54466L0.248601 5.55009C0.238712 5.55491 0.228823 5.56094 0.218934 5.56697L0.209663 5.57179L0.175669 5.59591L0.157127 5.61158L0.142911 5.62364L0.126224 5.64052L0.113244 5.65439L0.0984104 5.67308L0.0854309 5.68935L0.0743057 5.70623C0.0698275 5.71244 0.0657009 5.71888 0.0619443 5.72553L0.0526733 5.7412L0.041548 5.76351C0.041548 5.76893 0.0366034 5.77376 0.0347492 5.77918C0.032895 5.78461 0.0279505 5.79486 0.0248601 5.80269L0.0192975 5.81897C0.0192975 5.82681 0.014971 5.83465 0.0131168 5.84248C0.0112626 5.85032 0.0131168 5.85514 0.00817225 5.86117L0.00446384 5.88227C0.00446384 5.88951 0.00446383 5.89735 0.00137349 5.90458C-0.00171686 5.91182 0.00137349 5.91664 0.00137349 5.92267C0.00137349 5.9287 0.00137349 5.93955 0.00137349 5.94799C0.00137349 5.95643 0.00137349 5.95281 0.00137349 5.95281V8.13703C0.00137349 8.25695 0.0502119 8.37196 0.137145 8.45675C0.224078 8.54155 0.341984 8.58919 0.464926 8.58919H1.829V10.8801C1.82917 11.1279 1.93015 11.3655 2.10978 11.5407C2.28941 11.7159 2.53298 11.8144 2.78701 11.8146H4.4558C4.70983 11.8144 4.95341 11.7159 5.13303 11.5407C5.31266 11.3655 5.41364 11.1279 5.41381 10.8801V8.58919H11.257C11.3275 8.76429 11.4506 8.91457 11.61 9.02041C11.7694 9.12624 11.9579 9.1827 12.1508 9.18242H13.2281V27.8511H10.8219C10.4532 27.8514 10.0997 27.9944 9.83893 28.2487C9.57821 28.5031 9.43159 28.8479 9.43126 29.2076V29.9678H2.93473C2.81179 29.9678 2.69388 30.0154 2.60695 30.1002C2.52002 30.185 2.47118 30.3 2.47118 30.4199C2.47118 30.5399 2.52002 30.6549 2.60695 30.7397C2.69388 30.8245 2.81179 30.8721 2.93473 30.8721L28.6223 30.8655C28.7453 30.8655 28.8632 30.8178 28.9501 30.733C29.037 30.6482 29.0859 30.5332 29.0859 30.4133C29.0859 30.2934 29.037 30.1784 28.9501 30.0936C28.8632 30.0088 28.7453 29.9611 28.6223 29.9611H22.0399V29.2076C22.0395 28.8479 21.8929 28.5031 21.6322 28.2487C21.3715 27.9944 21.0179 27.8514 20.6492 27.8511H18.2455V9.18242H19.3204C19.513 9.18212 19.701 9.12526 19.86 9.01923C20.0189 8.9132 20.1415 8.76292 20.2116 8.58798H25.8101V18.7477H25.7675C25.6445 18.7477 25.5266 18.7953 25.4397 18.8801C25.3527 18.9649 25.3039 19.0799 25.3039 19.1998V20.9481C25.3039 21.0364 25.3304 21.1227 25.3802 21.1965C25.4299 21.2702 25.5008 21.328 25.5839 21.3629L26.7372 21.8452V22.8761C26.7372 22.9961 26.786 23.1111 26.873 23.1959C26.9599 23.2807 27.0778 23.3283 27.2008 23.3283H27.2317C27.2944 23.3283 27.3562 23.3439 27.4111 23.3735C27.4661 23.4031 27.5124 23.4459 27.5458 23.4978C27.5791 23.5496 27.5984 23.6089 27.6019 23.6701C27.6054 23.7312 27.5929 23.7922 27.5656 23.8474C27.5383 23.9025 27.497 23.95 27.4458 23.9853C27.3945 24.0207 27.3349 24.0428 27.2725 24.0496C27.2101 24.0563 27.147 24.0475 27.089 24.0239C27.0311 24.0004 26.9802 23.9629 26.9412 23.9149C26.8646 23.821 26.753 23.7607 26.6308 23.7471C26.5086 23.7336 26.3859 23.7679 26.2897 23.8426C26.1935 23.9172 26.1316 24.0261 26.1177 24.1453C26.1038 24.2645 26.139 24.3841 26.2156 24.478C26.3403 24.6322 26.5001 24.7561 26.6823 24.8397C26.8645 24.9233 27.0642 24.9644 27.2656 24.9597C27.4669 24.955 27.6644 24.9047 27.8424 24.8128C28.0203 24.7208 28.1739 24.5897 28.2909 24.4298C28.408 24.27 28.4853 24.0857 28.5168 23.8917C28.5482 23.6977 28.5329 23.4992 28.4721 23.3119C28.4113 23.1246 28.3067 22.9537 28.1665 22.8127C28.0263 22.6716 27.8544 22.5644 27.6643 22.4993V21.8464L28.8176 21.3641C28.9007 21.3293 28.9716 21.2714 29.0213 21.1977C29.0711 21.1239 29.0976 21.0376 29.0976 20.9494V19.201C29.0976 19.0811 29.0488 18.9661 28.9618 18.8813C28.8749 18.7965 28.757 18.7489 28.6341 18.7489H28.5914V8.58798H31.1026H31.128H31.1496L31.1725 8.58437L31.1947 8.58015L31.2157 8.57532L31.238 8.56869C31.2451 8.56664 31.2521 8.56423 31.259 8.56146L31.28 8.55362L31.301 8.54337L31.3202 8.53433L31.3406 8.52167L31.3585 8.51081L31.377 8.49695L31.395 8.48308L31.4104 8.46922L31.429 8.45173L31.4345 8.44631L31.4426 8.43726C31.4483 8.43111 31.4536 8.42467 31.4586 8.41797L31.4716 8.40169L31.4852 8.3824L31.4963 8.36371L31.5075 8.34442L31.5174 8.32453C31.5204 8.31789 31.5229 8.31066 31.526 8.30403L31.5334 8.28353C31.5334 8.27629 31.5384 8.26966 31.5402 8.26243C31.5421 8.25519 31.5445 8.24796 31.5458 8.24073C31.547 8.23349 31.5489 8.22686 31.5501 8.21962C31.5519 8.21208 31.5531 8.20443 31.5538 8.19672C31.5538 8.18948 31.5538 8.18285 31.5538 8.17562C31.5538 8.16838 31.5538 8.15934 31.5538 8.1509C31.5538 8.14246 31.5538 8.14306 31.5538 8.13884V5.94799H31.5581ZM15.2411 0.902517H16.23L17.1052 3.09819H14.3505L15.2411 0.902517ZM0.926005 7.68367V7.12179L1.7604 7.68367H0.926005ZM1.34567 6.30549L4.80068 5.90639L3.18876 7.54501L1.34567 6.30549ZM4.4867 10.8801C4.4867 10.8881 4.48345 10.8958 4.47765 10.9014C4.47186 10.9071 4.464 10.9103 4.4558 10.9103H2.78701C2.77882 10.9103 2.77096 10.9071 2.76516 10.9014C2.75936 10.8958 2.75611 10.8881 2.75611 10.8801V8.58919H4.4867V10.8801ZM4.33404 7.68487L6.03188 5.95763L7.72971 7.68367L4.33404 7.68487ZM7.01028 5.64715L10.5908 5.22996L8.78352 7.45035L7.01028 5.64715ZM11.1903 7.68487H9.77614L11.1903 5.94799V7.68487ZM11.1903 4.03386V4.24848L4.02624 5.08226L14.1008 1.24857L13.3535 3.09819H12.1508C12.0248 3.09795 11.9 3.12195 11.7835 3.16879C11.667 3.21564 11.5611 3.28442 11.4719 3.37121C11.3827 3.458 11.3119 3.56109 11.2636 3.67459C11.2153 3.78808 11.1904 3.90975 11.1903 4.03265V4.03386ZM20.6492 28.7554C20.7722 28.7554 20.8901 28.803 20.977 28.8878C21.0639 28.9726 21.1128 29.0876 21.1128 29.2076V29.9611L10.3584 29.9648V29.2076C10.3584 29.0876 10.4072 28.9726 10.4941 28.8878C10.5811 28.803 10.699 28.7554 10.8219 28.7554H20.6492ZM14.1527 10.8735V9.18543H15.4346L14.1527 10.8735ZM16.5873 9.18543H17.3184V14.4069L14.5044 11.9315L16.5873 9.18543ZM16.8963 15.257L14.1527 17.6685V12.8395L16.8963 15.257ZM17.3172 16.1046V20.9337L14.5724 18.5222L17.3172 16.1046ZM16.8963 21.7813L14.1515 24.1958V19.3668L16.8963 21.7813ZM17.3172 22.629V27.8511H16.5873L14.5044 25.102L17.3172 22.629ZM15.4346 27.8511H14.1527V26.163L15.4346 27.8511ZM19.3537 4.58971V8.24796C19.3537 8.25596 19.3505 8.26362 19.3447 8.26928C19.3389 8.27493 19.331 8.2781 19.3228 8.2781H12.1508C12.1426 8.2781 12.1347 8.27493 12.1289 8.26928C12.1231 8.26362 12.1199 8.25596 12.1199 8.24796V4.03265C12.1199 4.02466 12.1231 4.01699 12.1289 4.01134C12.1347 4.00568 12.1426 4.00251 12.1508 4.00251H19.3204C19.3286 4.00251 19.3364 4.00568 19.3422 4.01134C19.348 4.01699 19.3513 4.02466 19.3513 4.03265L19.3537 4.58971ZM19.3204 3.09819H18.0966L17.3549 1.24314L27.4554 5.06236L20.2808 4.20206V4.03265C20.2808 3.90975 20.2558 3.78808 20.2075 3.67459C20.1592 3.56109 20.0884 3.458 19.9992 3.37121C19.91 3.28442 19.8041 3.21564 19.6876 3.16879C19.5712 3.12195 19.4464 3.09795 19.3204 3.09819ZM20.2784 5.11361L21.8001 5.29447L20.2784 6.95178V5.11361ZM20.8519 7.68367L22.729 5.63932L24.5171 7.68367H20.8519ZM25.5629 7.48412L23.8657 5.54466L27.2619 5.951L25.5629 7.48412ZM28.1699 20.6485L27.2008 21.0567L26.231 20.6485V19.652H28.1705L28.1699 20.6485ZM26.7372 18.7477V8.58798H27.6643V18.7477H26.7372ZM26.7069 7.68367L28.3096 6.23677L29.9122 7.68367H26.7069ZM30.631 7.10069L29.6767 6.23857L30.631 6.35312V7.10069Z" fill="url(#paint16_linear_1629_12762)"/>
<path d="M31.5581 5.94799C31.5581 5.93955 31.5581 5.93111 31.5581 5.92267V5.90398C31.5581 5.89674 31.5581 5.88951 31.5551 5.88227L31.5513 5.86057C31.5513 5.85454 31.5513 5.84851 31.547 5.84248C31.5427 5.83646 31.5427 5.82621 31.5402 5.81837L31.5347 5.80269C31.5316 5.79425 31.5285 5.78642 31.5248 5.77858C31.5211 5.77074 31.5204 5.76833 31.5186 5.76351C31.5167 5.75868 31.5106 5.74844 31.5062 5.7406C31.5019 5.73276 31.4963 5.73035 31.4963 5.72553L31.4834 5.70503L31.4722 5.68935C31.4679 5.68393 31.4636 5.6779 31.4586 5.67247L31.4457 5.6562L31.4314 5.64173L31.4154 5.62545L31.4005 5.61279C31.3929 5.60589 31.3849 5.59945 31.3764 5.5935C31.3676 5.58653 31.3583 5.58009 31.3486 5.5742C31.3447 5.57144 31.3406 5.56902 31.3363 5.56697L31.3097 5.5519L31.2967 5.54587L31.2683 5.53321H31.2633L16.7134 0.0289498C16.7067 0.0262006 16.6999 0.0239826 16.693 0.0223182L16.6781 0.0174952C16.6579 0.0114909 16.6372 0.00705592 16.6163 0.00423192H16.6089C16.5896 0.00164935 16.5702 0.000239911 16.5508 1.17891e-05H14.9203C14.8996 -0.000145191 14.879 0.00126577 14.8585 0.00423192H14.8517C14.8309 0.00763855 14.8102 0.012269 14.7899 0.0180981L14.7757 0.0223182L14.7541 0.0295527L0.294338 5.5314H0.290012L0.259726 5.54466L0.248601 5.55009C0.238712 5.55491 0.228823 5.56094 0.218934 5.56697L0.209663 5.57179L0.175669 5.59591L0.157127 5.61158L0.142911 5.62364L0.126224 5.64052L0.113244 5.65439L0.0984104 5.67308L0.0854309 5.68935L0.0743057 5.70623C0.0698275 5.71244 0.0657009 5.71888 0.0619443 5.72553L0.0526733 5.7412L0.041548 5.76351C0.041548 5.76893 0.0366034 5.77376 0.0347492 5.77918C0.032895 5.78461 0.0279505 5.79486 0.0248601 5.80269L0.0192975 5.81897C0.0192975 5.82681 0.014971 5.83465 0.0131168 5.84248C0.0112626 5.85032 0.0131168 5.85514 0.00817225 5.86117L0.00446384 5.88227C0.00446384 5.88951 0.00446383 5.89735 0.00137349 5.90458C-0.00171686 5.91182 0.00137349 5.91664 0.00137349 5.92267C0.00137349 5.9287 0.00137349 5.93955 0.00137349 5.94799C0.00137349 5.95643 0.00137349 5.95281 0.00137349 5.95281V8.13703C0.00137349 8.25695 0.0502119 8.37196 0.137145 8.45675C0.224078 8.54155 0.341984 8.58919 0.464926 8.58919H1.829V10.8801C1.82917 11.1279 1.93015 11.3655 2.10978 11.5407C2.28941 11.7159 2.53298 11.8144 2.78701 11.8146H4.4558C4.70983 11.8144 4.95341 11.7159 5.13303 11.5407C5.31266 11.3655 5.41364 11.1279 5.41381 10.8801V8.58919H11.257C11.3275 8.76429 11.4506 8.91457 11.61 9.02041C11.7694 9.12624 11.9579 9.1827 12.1508 9.18242H13.2281V27.8511H10.8219C10.4532 27.8514 10.0997 27.9944 9.83893 28.2487C9.57821 28.5031 9.43159 28.8479 9.43126 29.2076V29.9678H2.93473C2.81179 29.9678 2.69388 30.0154 2.60695 30.1002C2.52002 30.185 2.47118 30.3 2.47118 30.4199C2.47118 30.5399 2.52002 30.6549 2.60695 30.7397C2.69388 30.8245 2.81179 30.8721 2.93473 30.8721L28.6223 30.8655C28.7453 30.8655 28.8632 30.8178 28.9501 30.733C29.037 30.6482 29.0859 30.5332 29.0859 30.4133C29.0859 30.2934 29.037 30.1784 28.9501 30.0936C28.8632 30.0088 28.7453 29.9611 28.6223 29.9611H22.0399V29.2076C22.0395 28.8479 21.8929 28.5031 21.6322 28.2487C21.3715 27.9944 21.0179 27.8514 20.6492 27.8511H18.2455V9.18242H19.3204C19.513 9.18212 19.701 9.12526 19.86 9.01923C20.0189 8.9132 20.1415 8.76292 20.2116 8.58798H25.8101V18.7477H25.7675C25.6445 18.7477 25.5266 18.7953 25.4397 18.8801C25.3527 18.9649 25.3039 19.0799 25.3039 19.1998V20.9481C25.3039 21.0364 25.3304 21.1227 25.3802 21.1965C25.4299 21.2702 25.5008 21.328 25.5839 21.3629L26.7372 21.8452V22.8761C26.7372 22.9961 26.786 23.1111 26.873 23.1959C26.9599 23.2807 27.0778 23.3283 27.2008 23.3283H27.2317C27.2944 23.3283 27.3562 23.3439 27.4111 23.3735C27.4661 23.4031 27.5124 23.4459 27.5458 23.4978C27.5791 23.5496 27.5984 23.6089 27.6019 23.6701C27.6054 23.7312 27.5929 23.7922 27.5656 23.8474C27.5383 23.9025 27.497 23.95 27.4458 23.9853C27.3945 24.0207 27.3349 24.0428 27.2725 24.0496C27.2101 24.0563 27.147 24.0475 27.089 24.0239C27.0311 24.0004 26.9802 23.9629 26.9412 23.9149C26.8646 23.821 26.753 23.7607 26.6308 23.7471C26.5086 23.7336 26.3859 23.7679 26.2897 23.8426C26.1935 23.9172 26.1316 24.0261 26.1177 24.1453C26.1038 24.2645 26.139 24.3841 26.2156 24.478C26.3403 24.6322 26.5001 24.7561 26.6823 24.8397C26.8645 24.9233 27.0642 24.9644 27.2656 24.9597C27.4669 24.955 27.6644 24.9047 27.8424 24.8128C28.0203 24.7208 28.1739 24.5897 28.2909 24.4298C28.408 24.27 28.4853 24.0857 28.5168 23.8917C28.5482 23.6977 28.5329 23.4992 28.4721 23.3119C28.4113 23.1246 28.3067 22.9537 28.1665 22.8127C28.0263 22.6716 27.8544 22.5644 27.6643 22.4993V21.8464L28.8176 21.3641C28.9007 21.3293 28.9716 21.2714 29.0213 21.1977C29.0711 21.1239 29.0976 21.0376 29.0976 20.9494V19.201C29.0976 19.0811 29.0488 18.9661 28.9618 18.8813C28.8749 18.7965 28.757 18.7489 28.6341 18.7489H28.5914V8.58798H31.1026H31.128H31.1496L31.1725 8.58437L31.1947 8.58015L31.2157 8.57532L31.238 8.56869C31.2451 8.56664 31.2521 8.56423 31.259 8.56146L31.28 8.55362L31.301 8.54337L31.3202 8.53433L31.3406 8.52167L31.3585 8.51081L31.377 8.49695L31.395 8.48308L31.4104 8.46922L31.429 8.45173L31.4345 8.44631L31.4426 8.43726C31.4483 8.43111 31.4536 8.42467 31.4586 8.41797L31.4716 8.40169L31.4852 8.3824L31.4963 8.36371L31.5075 8.34442L31.5174 8.32453C31.5204 8.31789 31.5229 8.31066 31.526 8.30403L31.5334 8.28353C31.5334 8.27629 31.5384 8.26966 31.5402 8.26243C31.5421 8.25519 31.5445 8.24796 31.5458 8.24073C31.547 8.23349 31.5489 8.22686 31.5501 8.21962C31.5519 8.21208 31.5531 8.20443 31.5538 8.19672C31.5538 8.18948 31.5538 8.18285 31.5538 8.17562C31.5538 8.16838 31.5538 8.15934 31.5538 8.1509C31.5538 8.14246 31.5538 8.14306 31.5538 8.13884V5.94799H31.5581ZM15.2411 0.902517H16.23L17.1052 3.09819H14.3505L15.2411 0.902517ZM0.926005 7.68367V7.12179L1.7604 7.68367H0.926005ZM1.34567 6.30549L4.80068 5.90639L3.18876 7.54501L1.34567 6.30549ZM4.4867 10.8801C4.4867 10.8881 4.48345 10.8958 4.47765 10.9014C4.47186 10.9071 4.464 10.9103 4.4558 10.9103H2.78701C2.77882 10.9103 2.77096 10.9071 2.76516 10.9014C2.75936 10.8958 2.75611 10.8881 2.75611 10.8801V8.58919H4.4867V10.8801ZM4.33404 7.68487L6.03188 5.95763L7.72971 7.68367L4.33404 7.68487ZM7.01028 5.64715L10.5908 5.22996L8.78352 7.45035L7.01028 5.64715ZM11.1903 7.68487H9.77614L11.1903 5.94799V7.68487ZM11.1903 4.03386V4.24848L4.02624 5.08226L14.1008 1.24857L13.3535 3.09819H12.1508C12.0248 3.09795 11.9 3.12195 11.7835 3.16879C11.667 3.21564 11.5611 3.28442 11.4719 3.37121C11.3827 3.458 11.3119 3.56109 11.2636 3.67459C11.2153 3.78808 11.1904 3.90975 11.1903 4.03265V4.03386ZM20.6492 28.7554C20.7722 28.7554 20.8901 28.803 20.977 28.8878C21.0639 28.9726 21.1128 29.0876 21.1128 29.2076V29.9611L10.3584 29.9648V29.2076C10.3584 29.0876 10.4072 28.9726 10.4941 28.8878C10.5811 28.803 10.699 28.7554 10.8219 28.7554H20.6492ZM14.1527 10.8735V9.18543H15.4346L14.1527 10.8735ZM16.5873 9.18543H17.3184V14.4069L14.5044 11.9315L16.5873 9.18543ZM16.8963 15.257L14.1527 17.6685V12.8395L16.8963 15.257ZM17.3172 16.1046V20.9337L14.5724 18.5222L17.3172 16.1046ZM16.8963 21.7813L14.1515 24.1958V19.3668L16.8963 21.7813ZM17.3172 22.629V27.8511H16.5873L14.5044 25.102L17.3172 22.629ZM15.4346 27.8511H14.1527V26.163L15.4346 27.8511ZM19.3537 4.58971V8.24796C19.3537 8.25596 19.3505 8.26362 19.3447 8.26928C19.3389 8.27493 19.331 8.2781 19.3228 8.2781H12.1508C12.1426 8.2781 12.1347 8.27493 12.1289 8.26928C12.1231 8.26362 12.1199 8.25596 12.1199 8.24796V4.03265C12.1199 4.02466 12.1231 4.01699 12.1289 4.01134C12.1347 4.00568 12.1426 4.00251 12.1508 4.00251H19.3204C19.3286 4.00251 19.3364 4.00568 19.3422 4.01134C19.348 4.01699 19.3513 4.02466 19.3513 4.03265L19.3537 4.58971ZM19.3204 3.09819H18.0966L17.3549 1.24314L27.4554 5.06236L20.2808 4.20206V4.03265C20.2808 3.90975 20.2558 3.78808 20.2075 3.67459C20.1592 3.56109 20.0884 3.458 19.9992 3.37121C19.91 3.28442 19.8041 3.21564 19.6876 3.16879C19.5712 3.12195 19.4464 3.09795 19.3204 3.09819ZM20.2784 5.11361L21.8001 5.29447L20.2784 6.95178V5.11361ZM20.8519 7.68367L22.729 5.63932L24.5171 7.68367H20.8519ZM25.5629 7.48412L23.8657 5.54466L27.2619 5.951L25.5629 7.48412ZM28.1699 20.6485L27.2008 21.0567L26.231 20.6485V19.652H28.1705L28.1699 20.6485ZM26.7372 18.7477V8.58798H27.6643V18.7477H26.7372ZM26.7069 7.68367L28.3096 6.23677L29.9122 7.68367H26.7069ZM30.631 7.10069L29.6767 6.23857L30.631 6.35312V7.10069Z" fill="black" fill-opacity="0.2"/>
<defs>
<linearGradient id="paint0_linear_1629_12762" x1="36.8696" y1="29.9574" x2="36.9588" y2="31.5182" gradientUnits="userSpaceOnUse">
<stop stop-color="#002E33"/>
<stop offset="0.515422" stop-color="#18494E"/>
<stop offset="0.994225" stop-color="#00474D"/>
</linearGradient>
<linearGradient id="paint1_linear_1629_12762" x1="38.8095" y1="16.1111" x2="54.5402" y2="25.7985" gradientUnits="userSpaceOnUse">
<stop stop-color="#002E33"/>
<stop offset="0.515422" stop-color="#18494E"/>
<stop offset="0.994225" stop-color="#00474D"/>
</linearGradient>
<linearGradient id="paint2_linear_1629_12762" x1="43.4656" y1="27.0593" x2="47.7598" y2="31.0449" gradientUnits="userSpaceOnUse">
<stop stop-color="#002E33"/>
<stop offset="0.515422" stop-color="#18494E"/>
<stop offset="0.994225" stop-color="#00474D"/>
</linearGradient>
<linearGradient id="paint3_linear_1629_12762" x1="45.7935" y1="27.2747" x2="46.9062" y2="27.455" gradientUnits="userSpaceOnUse">
<stop stop-color="#002E33"/>
<stop offset="0.515422" stop-color="#18494E"/>
<stop offset="0.994225" stop-color="#00474D"/>
</linearGradient>
<linearGradient id="paint4_linear_1629_12762" x1="40.3615" y1="20.5192" x2="45.3377" y2="28.2957" gradientUnits="userSpaceOnUse">
<stop stop-color="#002E33"/>
<stop offset="0.515422" stop-color="#18494E"/>
<stop offset="0.994225" stop-color="#00474D"/>
</linearGradient>
<linearGradient id="paint5_linear_1629_12762" x1="40.2807" y1="19.5583" x2="42.1443" y2="20.9174" gradientUnits="userSpaceOnUse">
<stop stop-color="#002E33"/>
<stop offset="0.515422" stop-color="#18494E"/>
<stop offset="0.994225" stop-color="#00474D"/>
</linearGradient>
<linearGradient id="paint6_linear_1629_12762" x1="39.8721" y1="16.2349" x2="42.1085" y2="17.8658" gradientUnits="userSpaceOnUse">
<stop stop-color="#002E33"/>
<stop offset="0.515422" stop-color="#18494E"/>
<stop offset="0.994225" stop-color="#00474D"/>
</linearGradient>
<linearGradient id="paint7_linear_1629_12762" x1="40.2807" y1="16.1281" x2="42.1443" y2="17.4872" gradientUnits="userSpaceOnUse">
<stop stop-color="#002E33"/>
<stop offset="0.515422" stop-color="#18494E"/>
<stop offset="0.994225" stop-color="#00474D"/>
</linearGradient>
<linearGradient id="paint8_linear_1629_12762" x1="43.2821" y1="19.5583" x2="45.1458" y2="20.9174" gradientUnits="userSpaceOnUse">
<stop stop-color="#002E33"/>
<stop offset="0.515422" stop-color="#18494E"/>
<stop offset="0.994225" stop-color="#00474D"/>
</linearGradient>
<linearGradient id="paint9_linear_1629_12762" x1="46.8958" y1="19.665" x2="48.9478" y2="23.1567" gradientUnits="userSpaceOnUse">
<stop stop-color="#002E33"/>
<stop offset="0.515422" stop-color="#18494E"/>
<stop offset="0.994225" stop-color="#00474D"/>
</linearGradient>
<linearGradient id="paint10_linear_1629_12762" x1="38.9331" y1="7.33051" x2="40.0705" y2="7.40264" gradientUnits="userSpaceOnUse">
<stop stop-color="#002E33"/>
<stop offset="0.515422" stop-color="#18494E"/>
<stop offset="0.994225" stop-color="#00474D"/>
</linearGradient>
<linearGradient id="paint11_linear_1629_12762" x1="48.3662" y1="10.1166" x2="49.5043" y2="10.183" gradientUnits="userSpaceOnUse">
<stop stop-color="#002E33"/>
<stop offset="0.515422" stop-color="#18494E"/>
<stop offset="0.994225" stop-color="#00474D"/>
</linearGradient>
<linearGradient id="paint12_linear_1629_12762" x1="43.6497" y1="6.68988" x2="44.7832" y2="6.78714" gradientUnits="userSpaceOnUse">
<stop stop-color="#002E33"/>
<stop offset="0.515422" stop-color="#18494E"/>
<stop offset="0.994225" stop-color="#00474D"/>
</linearGradient>
<linearGradient id="paint13_linear_1629_12762" x1="38.8095" y1="9.3759" x2="38.9219" y2="10.9336" gradientUnits="userSpaceOnUse">
<stop stop-color="#002E33"/>
<stop offset="0.515422" stop-color="#18494E"/>
<stop offset="0.994225" stop-color="#00474D"/>
</linearGradient>
<linearGradient id="paint14_linear_1629_12762" x1="38.3813" y1="5.94572" x2="38.6275" y2="7.47184" gradientUnits="userSpaceOnUse">
<stop stop-color="#002E33"/>
<stop offset="0.515422" stop-color="#18494E"/>
<stop offset="0.994225" stop-color="#00474D"/>
</linearGradient>
<linearGradient id="paint15_linear_1629_12762" x1="46.1605" y1="12.3774" x2="46.3712" y2="13.9143" gradientUnits="userSpaceOnUse">
<stop stop-color="#002E33"/>
<stop offset="0.515422" stop-color="#18494E"/>
<stop offset="0.994225" stop-color="#00474D"/>
</linearGradient>
<linearGradient id="paint16_linear_1629_12762" x1="1.01943" y1="2.37478" x2="29.6538" y2="24.0503" gradientUnits="userSpaceOnUse">
<stop offset="0.03125" stop-color="#003B40"/>
<stop offset="0.265625" stop-color="#005961"/>
<stop offset="0.509791" stop-color="#00818C"/>
<stop offset="0.760417" stop-color="#005961"/>
<stop offset="0.994792" stop-color="#003B40"/>
</linearGradient>
</defs>
</svg>
