<svg width="46" height="46" viewBox="0 0 46 46" fill="none" xmlns="http://www.w3.org/2000/svg">
<path d="M43.5714 39.9999V37.857C43.5714 37.6676 43.4962 37.4859 43.3622 37.352C43.2283 37.218 43.0466 37.1428 42.8572 37.1428H37.1429C36.9534 37.1428 36.7718 37.218 36.6378 37.352C36.5038 37.4859 36.4286 37.6676 36.4286 37.857V39.9999C36.2392 39.9999 36.0575 40.0751 35.9235 40.2091C35.7896 40.3431 35.7143 40.5247 35.7143 40.7142V42.857H34.2857V31.4285H35.7143C35.9037 31.4285 36.0854 31.3532 36.2194 31.2193C36.3533 31.0853 36.4286 30.9036 36.4286 30.7142V28.5713C36.4286 28.3819 36.3533 28.2002 36.2194 28.0662C36.0854 27.9323 35.9037 27.857 35.7143 27.857H34.2857V24.9999H35.7143C35.9037 24.9999 36.0854 24.9246 36.2194 24.7907C36.3533 24.6567 36.4286 24.475 36.4286 24.2856V22.1428C36.4286 21.9533 36.3533 21.7716 36.2194 21.6377C36.0854 21.5037 35.9037 21.4285 35.7143 21.4285H34.2857V19.2856C34.2857 19.0962 34.2105 18.9145 34.0765 18.7805C33.9426 18.6466 33.7609 18.5713 33.5714 18.5713H30.7143C30.5249 18.5713 30.3432 18.6466 30.2092 18.7805C30.0753 18.9145 30 19.0962 30 19.2856V21.4285H27.1429V19.2856C27.1429 19.0962 27.0676 18.9145 26.9337 18.7805C26.7997 18.6466 26.618 18.5713 26.4286 18.5713H23.5714C23.382 18.5713 23.2003 18.6466 23.0664 18.7805C22.9324 18.9145 22.8572 19.0962 22.8572 19.2856V21.4285H20V19.2856C20 19.0962 19.9248 18.9145 19.7908 18.7805C19.6569 18.6466 19.4752 18.5713 19.2857 18.5713H16.4286C16.2391 18.5713 16.0575 18.6466 15.9235 18.7805C15.7896 18.9145 15.7143 19.0962 15.7143 19.2856V21.4285H14.2857C14.0963 21.4285 13.9146 21.5037 13.7807 21.6377C13.6467 21.7716 13.5714 21.9533 13.5714 22.1428V24.2856C13.5714 24.475 13.6467 24.6567 13.7807 24.7907C13.9146 24.9246 14.0963 24.9999 14.2857 24.9999H15.7143V27.857H14.2857C14.0963 27.857 13.9146 27.9323 13.7807 28.0662C13.6467 28.2002 13.5714 28.3819 13.5714 28.5713V30.7142C13.5714 30.9036 13.6467 31.0853 13.7807 31.2193C13.9146 31.3532 14.0963 31.4285 14.2857 31.4285H15.7143V42.857H14.2857V36.4285C14.2857 36.3347 14.2673 36.2418 14.2314 36.1551C14.1955 36.0685 14.1429 35.9897 14.0765 35.9234L11.4286 33.2754V10.7142H12.1429C12.3323 10.7142 12.514 10.6389 12.648 10.505C12.7819 10.371 12.8572 10.1893 12.8572 9.9999H24.2857V10.987L20.5456 12.857H19.2857C19.0963 12.857 18.9146 12.9323 18.7807 13.0662C18.6467 13.2002 18.5714 13.3819 18.5714 13.5713V16.4285C18.5714 16.6179 18.6467 16.7996 18.7807 16.9335C18.9146 17.0675 19.0963 17.1428 19.2857 17.1428H30.7143C30.9037 17.1428 31.0854 17.0675 31.2194 16.9335C31.3533 16.7996 31.4286 16.6179 31.4286 16.4285V13.5713C31.4286 13.3819 31.3533 13.2002 31.2194 13.0662C31.0854 12.9323 30.9037 12.857 30.7143 12.857H29.4544L25.7143 10.987V9.9999H26.4286C26.618 9.9999 26.7997 9.92464 26.9337 9.79069C27.0676 9.65673 27.1429 9.47505 27.1429 9.28561V6.42847C27.1429 6.23903 27.0676 6.05735 26.9337 5.92339C26.7997 5.78944 26.618 5.71418 26.4286 5.71418H25.105L10.9286 1.46115L10.9244 1.4599L10.9198 1.45856C10.8532 1.43856 10.7839 1.42843 10.7143 1.42847H7.85716C7.68675 1.42841 7.52198 1.48956 7.39288 1.60079L2.59296 5.71418H2.14287C1.95343 5.71418 1.77175 5.78944 1.6378 5.92339C1.50384 6.05735 1.42859 6.23903 1.42859 6.42847V9.28561C1.42859 9.47505 1.50384 9.65673 1.6378 9.79069C1.77175 9.92464 1.95343 9.9999 2.14287 9.9999H5.7143C5.7143 10.1893 5.78956 10.371 5.92351 10.505C6.05747 10.6389 6.23915 10.7142 6.42859 10.7142H7.14287V33.2754L4.49493 35.9234C4.4286 35.9897 4.37599 36.0685 4.3401 36.1551C4.3042 36.2418 4.28573 36.3347 4.28573 36.4285V42.857H1.42859V44.2856H43.5714C43.7609 44.2856 43.9426 44.2104 44.0765 44.0764C44.2105 43.9424 44.2857 43.7608 44.2857 43.5713V40.7142C44.2857 40.5247 44.2105 40.3431 44.0765 40.2091C43.9426 40.0751 43.7609 39.9999 43.5714 39.9999ZM30 15.7142H20V14.2856H30V15.7142ZM23.7401 12.857L25 12.227L26.2599 12.857H23.7401ZM37.8572 38.5713H42.1429V39.9999H37.8572V38.5713ZM35 29.2856V29.9999H34.2857V29.2856H35ZM35 22.857V23.5713H34.2857V22.857H35ZM31.4286 19.9999H32.8572V40.7142H31.4286V19.9999ZM20 36.4285V35.7142H30V36.4285H20ZM30 29.2856V29.9999H20V29.2856H30ZM30 34.2856H27.1429V31.4285H30V34.2856ZM25.7143 31.4285V34.2856H24.2857V31.4285H25.7143ZM20 31.4285H22.8572V34.2856H20V31.4285ZM30 27.857H27.1429V24.9999H30V27.857ZM25.7143 27.857H24.2857V24.9999H25.7143V27.857ZM22.8572 27.857H20V24.9999H22.8572V27.857ZM20 37.857H22.8572V40.7142H20V37.857ZM24.2857 37.857H25.7143V40.7142H24.2857V37.857ZM27.1429 37.857H30V40.7142H27.1429V37.857ZM24.2857 19.9999H25.7143V21.4285H24.2857V19.9999ZM30 22.857V23.5713H20V22.857H30ZM17.1429 19.9999H18.5714V40.7142H17.1429V19.9999ZM15 23.5713V22.857H15.7143V23.5713H15ZM15 29.9999V29.2856H15.7143V29.9999H15ZM12.8572 36.7243V39.9999H11.4286V35.2957L12.8572 36.7243ZM8.86734 39.9999L10 38.8672V39.9999H8.86734ZM8.57145 13.1529L9.70421 14.2856L8.57145 15.4183V13.1529ZM10 33.5713V35.4183L8.86734 34.2856L10 33.1529V33.5713ZM8.57145 32.5611V30.2958L9.70421 31.4285L8.57145 32.5611ZM8.86734 28.5713L10 27.4386V29.704L8.86734 28.5713ZM10 16.0101V18.2754L8.86734 17.1428L10 16.0101ZM8.57145 18.8672L9.70421 19.9999L8.57145 21.1326V18.8672ZM10 21.7244V23.9897L8.86734 22.857L10 21.7244ZM8.57145 24.5815L9.70421 25.7142L8.57145 26.8469V24.5815ZM8.57145 36.0101L9.70421 37.1428L8.57145 38.2754V36.0101ZM7.14287 9.28561V6.42847H11.4286V9.28561H7.14287ZM3.98984 7.14275L2.85716 8.27543V7.14275H3.98984ZM12.8572 7.14275H14.7041L13.2756 8.57132H12.8572V7.14275ZM19.2857 8.27543L18.1531 7.14275H20.4184L19.2857 8.27543ZM22.1429 7.43856L23.2756 8.57132H21.0102L22.1429 7.43856ZM17.5613 8.57132H15.2959L16.4286 7.43856L17.5613 8.57132ZM25.7143 8.57132H25.2959L23.8673 7.14275H25.7143V8.57132ZM12.8572 5.71418C12.8572 5.52474 12.7819 5.34306 12.648 5.20911C12.514 5.07515 12.3323 4.9999 12.1429 4.9999H11.4286V3.10284L20.1331 5.71418H12.8572ZM8.57145 2.85704H10V4.9999H8.57145V2.85704ZM7.14287 3.69579V4.9999H6.42859C6.23915 4.9999 6.05747 5.07515 5.92351 5.20911C5.78956 5.34306 5.7143 5.52474 5.7143 5.71418H4.78805L7.14287 3.69579ZM4.58162 8.57132L5.7143 7.43865V8.57132H4.58162ZM10 10.7142V12.5611L8.57145 11.1326V10.7142H10ZM5.7143 36.7243L7.14287 35.2957V39.9999H5.7143V36.7243ZM5.7143 42.857V41.4285H12.8572V42.857H5.7143ZM17.1429 42.857V42.1428H18.5714V42.857H17.1429ZM20 42.857V42.1428H30V42.857H20ZM31.4286 42.857V42.1428H32.8572V42.857H31.4286ZM37.1429 42.857V41.4285H42.8572V42.857H37.1429Z" fill="url(#paint0_linear_703_4287)"/>
<path d="M43.5714 39.9999V37.857C43.5714 37.6676 43.4962 37.4859 43.3622 37.352C43.2283 37.218 43.0466 37.1428 42.8572 37.1428H37.1429C36.9534 37.1428 36.7718 37.218 36.6378 37.352C36.5038 37.4859 36.4286 37.6676 36.4286 37.857V39.9999C36.2392 39.9999 36.0575 40.0751 35.9235 40.2091C35.7896 40.3431 35.7143 40.5247 35.7143 40.7142V42.857H34.2857V31.4285H35.7143C35.9037 31.4285 36.0854 31.3532 36.2194 31.2193C36.3533 31.0853 36.4286 30.9036 36.4286 30.7142V28.5713C36.4286 28.3819 36.3533 28.2002 36.2194 28.0662C36.0854 27.9323 35.9037 27.857 35.7143 27.857H34.2857V24.9999H35.7143C35.9037 24.9999 36.0854 24.9246 36.2194 24.7907C36.3533 24.6567 36.4286 24.475 36.4286 24.2856V22.1428C36.4286 21.9533 36.3533 21.7716 36.2194 21.6377C36.0854 21.5037 35.9037 21.4285 35.7143 21.4285H34.2857V19.2856C34.2857 19.0962 34.2105 18.9145 34.0765 18.7805C33.9426 18.6466 33.7609 18.5713 33.5714 18.5713H30.7143C30.5249 18.5713 30.3432 18.6466 30.2092 18.7805C30.0753 18.9145 30 19.0962 30 19.2856V21.4285H27.1429V19.2856C27.1429 19.0962 27.0676 18.9145 26.9337 18.7805C26.7997 18.6466 26.618 18.5713 26.4286 18.5713H23.5714C23.382 18.5713 23.2003 18.6466 23.0664 18.7805C22.9324 18.9145 22.8572 19.0962 22.8572 19.2856V21.4285H20V19.2856C20 19.0962 19.9248 18.9145 19.7908 18.7805C19.6569 18.6466 19.4752 18.5713 19.2857 18.5713H16.4286C16.2391 18.5713 16.0575 18.6466 15.9235 18.7805C15.7896 18.9145 15.7143 19.0962 15.7143 19.2856V21.4285H14.2857C14.0963 21.4285 13.9146 21.5037 13.7807 21.6377C13.6467 21.7716 13.5714 21.9533 13.5714 22.1428V24.2856C13.5714 24.475 13.6467 24.6567 13.7807 24.7907C13.9146 24.9246 14.0963 24.9999 14.2857 24.9999H15.7143V27.857H14.2857C14.0963 27.857 13.9146 27.9323 13.7807 28.0662C13.6467 28.2002 13.5714 28.3819 13.5714 28.5713V30.7142C13.5714 30.9036 13.6467 31.0853 13.7807 31.2193C13.9146 31.3532 14.0963 31.4285 14.2857 31.4285H15.7143V42.857H14.2857V36.4285C14.2857 36.3347 14.2673 36.2418 14.2314 36.1551C14.1955 36.0685 14.1429 35.9897 14.0765 35.9234L11.4286 33.2754V10.7142H12.1429C12.3323 10.7142 12.514 10.6389 12.648 10.505C12.7819 10.371 12.8572 10.1893 12.8572 9.9999H24.2857V10.987L20.5456 12.857H19.2857C19.0963 12.857 18.9146 12.9323 18.7807 13.0662C18.6467 13.2002 18.5714 13.3819 18.5714 13.5713V16.4285C18.5714 16.6179 18.6467 16.7996 18.7807 16.9335C18.9146 17.0675 19.0963 17.1428 19.2857 17.1428H30.7143C30.9037 17.1428 31.0854 17.0675 31.2194 16.9335C31.3533 16.7996 31.4286 16.6179 31.4286 16.4285V13.5713C31.4286 13.3819 31.3533 13.2002 31.2194 13.0662C31.0854 12.9323 30.9037 12.857 30.7143 12.857H29.4544L25.7143 10.987V9.9999H26.4286C26.618 9.9999 26.7997 9.92464 26.9337 9.79069C27.0676 9.65673 27.1429 9.47505 27.1429 9.28561V6.42847C27.1429 6.23903 27.0676 6.05735 26.9337 5.92339C26.7997 5.78944 26.618 5.71418 26.4286 5.71418H25.105L10.9286 1.46115L10.9244 1.4599L10.9198 1.45856C10.8532 1.43856 10.7839 1.42843 10.7143 1.42847H7.85716C7.68675 1.42841 7.52198 1.48956 7.39288 1.60079L2.59296 5.71418H2.14287C1.95343 5.71418 1.77175 5.78944 1.6378 5.92339C1.50384 6.05735 1.42859 6.23903 1.42859 6.42847V9.28561C1.42859 9.47505 1.50384 9.65673 1.6378 9.79069C1.77175 9.92464 1.95343 9.9999 2.14287 9.9999H5.7143C5.7143 10.1893 5.78956 10.371 5.92351 10.505C6.05747 10.6389 6.23915 10.7142 6.42859 10.7142H7.14287V33.2754L4.49493 35.9234C4.4286 35.9897 4.37599 36.0685 4.3401 36.1551C4.3042 36.2418 4.28573 36.3347 4.28573 36.4285V42.857H1.42859V44.2856H43.5714C43.7609 44.2856 43.9426 44.2104 44.0765 44.0764C44.2105 43.9424 44.2857 43.7608 44.2857 43.5713V40.7142C44.2857 40.5247 44.2105 40.3431 44.0765 40.2091C43.9426 40.0751 43.7609 39.9999 43.5714 39.9999ZM30 15.7142H20V14.2856H30V15.7142ZM23.7401 12.857L25 12.227L26.2599 12.857H23.7401ZM37.8572 38.5713H42.1429V39.9999H37.8572V38.5713ZM35 29.2856V29.9999H34.2857V29.2856H35ZM35 22.857V23.5713H34.2857V22.857H35ZM31.4286 19.9999H32.8572V40.7142H31.4286V19.9999ZM20 36.4285V35.7142H30V36.4285H20ZM30 29.2856V29.9999H20V29.2856H30ZM30 34.2856H27.1429V31.4285H30V34.2856ZM25.7143 31.4285V34.2856H24.2857V31.4285H25.7143ZM20 31.4285H22.8572V34.2856H20V31.4285ZM30 27.857H27.1429V24.9999H30V27.857ZM25.7143 27.857H24.2857V24.9999H25.7143V27.857ZM22.8572 27.857H20V24.9999H22.8572V27.857ZM20 37.857H22.8572V40.7142H20V37.857ZM24.2857 37.857H25.7143V40.7142H24.2857V37.857ZM27.1429 37.857H30V40.7142H27.1429V37.857ZM24.2857 19.9999H25.7143V21.4285H24.2857V19.9999ZM30 22.857V23.5713H20V22.857H30ZM17.1429 19.9999H18.5714V40.7142H17.1429V19.9999ZM15 23.5713V22.857H15.7143V23.5713H15ZM15 29.9999V29.2856H15.7143V29.9999H15ZM12.8572 36.7243V39.9999H11.4286V35.2957L12.8572 36.7243ZM8.86734 39.9999L10 38.8672V39.9999H8.86734ZM8.57145 13.1529L9.70421 14.2856L8.57145 15.4183V13.1529ZM10 33.5713V35.4183L8.86734 34.2856L10 33.1529V33.5713ZM8.57145 32.5611V30.2958L9.70421 31.4285L8.57145 32.5611ZM8.86734 28.5713L10 27.4386V29.704L8.86734 28.5713ZM10 16.0101V18.2754L8.86734 17.1428L10 16.0101ZM8.57145 18.8672L9.70421 19.9999L8.57145 21.1326V18.8672ZM10 21.7244V23.9897L8.86734 22.857L10 21.7244ZM8.57145 24.5815L9.70421 25.7142L8.57145 26.8469V24.5815ZM8.57145 36.0101L9.70421 37.1428L8.57145 38.2754V36.0101ZM7.14287 9.28561V6.42847H11.4286V9.28561H7.14287ZM3.98984 7.14275L2.85716 8.27543V7.14275H3.98984ZM12.8572 7.14275H14.7041L13.2756 8.57132H12.8572V7.14275ZM19.2857 8.27543L18.1531 7.14275H20.4184L19.2857 8.27543ZM22.1429 7.43856L23.2756 8.57132H21.0102L22.1429 7.43856ZM17.5613 8.57132H15.2959L16.4286 7.43856L17.5613 8.57132ZM25.7143 8.57132H25.2959L23.8673 7.14275H25.7143V8.57132ZM12.8572 5.71418C12.8572 5.52474 12.7819 5.34306 12.648 5.20911C12.514 5.07515 12.3323 4.9999 12.1429 4.9999H11.4286V3.10284L20.1331 5.71418H12.8572ZM8.57145 2.85704H10V4.9999H8.57145V2.85704ZM7.14287 3.69579V4.9999H6.42859C6.23915 4.9999 6.05747 5.07515 5.92351 5.20911C5.78956 5.34306 5.7143 5.52474 5.7143 5.71418H4.78805L7.14287 3.69579ZM4.58162 8.57132L5.7143 7.43865V8.57132H4.58162ZM10 10.7142V12.5611L8.57145 11.1326V10.7142H10ZM5.7143 36.7243L7.14287 35.2957V39.9999H5.7143V36.7243ZM5.7143 42.857V41.4285H12.8572V42.857H5.7143ZM17.1429 42.857V42.1428H18.5714V42.857H17.1429ZM20 42.857V42.1428H30V42.857H20ZM31.4286 42.857V42.1428H32.8572V42.857H31.4286ZM37.1429 42.857V41.4285H42.8572V42.857H37.1429Z" fill="black" fill-opacity="0.2"/>
<path d="M8.57141 7.14282H9.99998V8.57139H8.57141V7.14282Z" fill="black"/>
<defs>
<linearGradient id="paint0_linear_703_4287" x1="2.81302" y1="4.72517" x2="42.3185" y2="33.9797" gradientUnits="userSpaceOnUse">
<stop offset="0.03125" stop-color="#003B40"/>
<stop offset="0.265625" stop-color="#005961"/>
<stop offset="0.509791" stop-color="#00818C"/>
<stop offset="0.760417" stop-color="#005961"/>
<stop offset="0.994792" stop-color="#003B40"/>
</linearGradient>
</defs>
</svg>
