<svg width="29" height="29" viewBox="0 0 29 29" fill="none" xmlns="http://www.w3.org/2000/svg">
<path d="M13.3 15.1C13.1 14.95 12.9 14.95 12.7 15.1C12.7 15.1 10.8 16.5 9.00005 16.5C7.20005 16.5 5.30005 15.1 5.30005 15.1C5.15005 14.95 4.90005 14.95 4.70005 15.1C4.50005 15.25 4.45005 15.45 4.50005 15.65C4.90005 16.8 6.30005 19 8.95005 19C11.6 19 13.05 16.8 13.4 15.65C13.55 15.45 13.45 15.2 13.3 15.1ZM9.00005 18C7.85005 18 7.00005 17.5 6.45005 16.9C7.20005 17.25 8.10005 17.5 9.00005 17.5C9.90005 17.5 10.8 17.2 11.55 16.9C11 17.5 10.15 18 9.00005 18ZM6.55005 9.7L7.45005 9.25C7.40005 9.2 6.80005 8 5.00005 8C3.20005 8 2.60005 9.2 2.55005 9.3L3.45005 9.75C3.45005 9.7 3.85005 9 5.00005 9C6.15005 9 6.55005 9.7 6.55005 9.7ZM13 9C14.15 9 14.55 9.7 14.55 9.7L15.45 9.25C15.4 9.2 14.8 8 13 8C11.2 8 10.6 9.2 10.55 9.3L11.45 9.75C11.45 9.7 11.85 9 13 9ZM21.7001 16.9C21.9501 16.95 22.2001 17 22.4501 17C23.7001 17 24.35 16.25 24.4 16.2L23.6 15.55C23.6 15.55 23.0501 16.15 21.9501 15.95C20.85 15.7 20.6 14.95 20.6 14.9L19.65 15.15C19.6 15.2 19.9501 16.55 21.7001 16.9Z" fill="url(#paint0_linear_1611_12553)"/>
<path d="M28.1 11.45L20.1 9.6L19.85 10.55L27.35 12.3L26.05 18.3C25.3 21.4 23.55 24.1 21.15 25.85C19.25 27.25 17.4 27.75 15.7 27.35C14 26.95 12.55 25.65 11.5 23.55C11.35 23.25 11.2 22.95 11.1 22.6C11.55 22.45 12.05 22.2 12.5 21.9C12.65 21.95 12.8 21.95 12.9 21.9C12.9 21.9 15.05 20.95 16.8 21.3C18.55 21.7 20.1 23.45 20.1 23.45C20.2 23.55 20.35 23.6 20.5 23.6C20.55 23.6 20.65 23.6 20.7 23.55C20.9 23.45 21 23.25 21 23.05C20.85 21.85 19.95 19.4 17.35 18.85C16.7 18.7 16.05 18.7 15.5 18.85C17.1 16.55 17.95 13.7 17.95 10.75V3.5C17.95 3.2 17.75 3 17.45 3H0.5C0.2 3 0 3.2 0 3.5V10.8C0 14.25 1.15 17.45 3.25 19.95C5 21.95 6.9 23 9 23C9.4 23 9.75 22.95 10.1 22.9C10.25 23.3 10.4 23.65 10.6 24C11.8 26.4 13.45 27.85 15.45 28.35C15.9 28.45 16.4 28.5 16.9 28.5C18.5 28.5 20.1 27.9 21.75 26.7C24.35 24.8 26.25 21.9 27.05 18.55L28.5 12C28.55 11.75 28.4 11.5 28.1 11.45ZM17.15 19.9C18.3 20.15 19 20.85 19.4 21.55C18.75 21.05 17.95 20.6 17.05 20.4C16.7 20.3 16.3 20.3 15.95 20.3C15.45 20.3 14.9 20.35 14.45 20.45C15.1 20 16 19.65 17.15 19.9ZM4 19.3C2.05 17 1 14 1 10.8V4H16.95V10.8C16.95 14 15.9 17 13.95 19.3C12.4 21.1 10.75 22 8.95 22C7.15 22 5.55 21.1 4 19.3ZM22.25 0H23.25V1H22.25V0ZM22.25 3.5H23.25V4.5H22.25V3.5ZM21.75 2.75V1.75H20.5V2.75H21.25H21.75ZM23.75 1.75H25V2.75H23.75V1.75Z" fill="url(#paint1_linear_1611_12553)"/>
<defs>
<linearGradient id="paint0_linear_1611_12553" x1="2.55005" y1="8.19887" x2="24.8647" y2="14.3391" gradientUnits="userSpaceOnUse">
<stop offset="0.158241" stop-color="#002D31"/>
<stop offset="0.32869" stop-color="#005961"/>
<stop offset="0.509791" stop-color="#00818C"/>
<stop offset="0.786145" stop-color="#005961"/>
<stop offset="0.988044" stop-color="#002D31"/>
</linearGradient>
<linearGradient id="paint1_linear_1611_12553" x1="6.79533e-08" y1="0.515245" x2="30.7301" y2="4.77362" gradientUnits="userSpaceOnUse">
<stop offset="0.158241" stop-color="#002D31"/>
<stop offset="0.32869" stop-color="#005961"/>
<stop offset="0.509791" stop-color="#00818C"/>
<stop offset="0.786145" stop-color="#005961"/>
<stop offset="0.988044" stop-color="#002D31"/>
</linearGradient>
</defs>
</svg>
