<svg width="53" height="50" viewBox="0 0 53 50" fill="none" xmlns="http://www.w3.org/2000/svg">
<path d="M52.9939 48.9582C52.9939 48.7275 52.8066 48.5405 52.5757 48.5405H0.716801C0.485841 48.5405 0.298584 48.7275 0.298584 48.9582C0.298584 49.1889 0.485841 49.376 0.716801 49.376H52.5757C52.8066 49.376 52.9939 49.1889 52.9939 48.9582ZM11.0886 0.0803566C10.8576 0.0803566 10.6704 0.26741 10.6704 0.498119V45.4968C10.6704 45.7275 10.8576 45.9145 11.0886 45.9145H42.2039C42.4349 45.9145 42.6221 45.7275 42.6221 45.4968V0.498119C42.6221 0.26741 42.4349 0.0803566 42.2039 0.0803566H11.0886ZM41.7857 45.079H27.0645V0.915878H41.7857V45.079ZM11.5068 0.915878H26.228V45.079H11.5068V0.915878ZM52.9939 35.1125V18.6707C52.9939 18.4399 52.8066 18.2529 52.5757 18.2529H44.7969C44.5659 18.2529 44.3786 18.4399 44.3786 18.6707V35.1125C44.3786 35.3432 44.5659 35.5303 44.7969 35.5303H52.5757C52.8066 35.5303 52.9939 35.3432 52.9939 35.1125ZM52.1575 34.6948H45.2151V19.0884H52.1575V34.6948ZM46.3806 29.7091C46.3056 29.8372 46.3042 29.9953 46.3769 30.1247L48.3216 33.5862C48.3956 33.7179 48.5351 33.7995 48.6863 33.7995C48.8375 33.7995 48.9769 33.7179 49.051 33.5862L50.9958 30.1247C51.0684 29.9953 51.0671 29.8372 50.992 29.7091C50.9169 29.5811 50.7795 29.5024 50.6311 29.5024H46.7417C46.5931 29.5025 46.4557 29.5812 46.3806 29.7091ZM47.4558 30.3381H49.9167L48.6863 32.5283L47.4558 30.3381ZM46.3769 23.6583C46.3042 23.7877 46.3056 23.9458 46.3806 24.0739C46.4557 24.2019 46.5931 24.2805 46.7416 24.2805H50.631C50.7794 24.2805 50.9168 24.2019 50.9919 24.0739C51.067 23.9457 51.0683 23.7877 50.9957 23.6583L49.0508 20.1968C48.9768 20.0651 48.8373 19.9836 48.6862 19.9836C48.535 19.9836 48.3955 20.0651 48.3215 20.1968L46.3769 23.6583ZM47.4559 23.445L48.6863 21.2549L49.9168 23.445H47.4559Z" fill="url(#paint0_linear_1427_11815)"/>
<defs>
<linearGradient id="paint0_linear_1427_11815" x1="2.8045" y1="37.1007" x2="46.4493" y2="3.07666" gradientUnits="userSpaceOnUse">
<stop stop-color="#002E33"/>
<stop offset="0.515422" stop-color="#18494E"/>
<stop offset="0.994225" stop-color="#00474D"/>
</linearGradient>
</defs>
</svg>
