<svg width="26" height="19" viewBox="0 0 26 19" fill="none" xmlns="http://www.w3.org/2000/svg">
<path d="M22.3633 18.0574H3.33367C1.50015 18.0574 0 16.6773 0 14.9618V3.09555C0 1.393 1.48626 0 3.33367 0H22.3633C24.1969 0 25.697 1.3801 25.697 3.09555V14.9618C25.697 16.6773 24.2107 18.0574 22.3633 18.0574Z" fill="#E6EDED"/>
<mask id="path-2-inside-1_1206_8835" fill="white">
<path d="M24.2675 0.993652L14.7248 9.79016C13.6553 10.7833 12.044 10.7833 10.9606 9.79016L1.41797 0.993652"/>
</mask>
<path d="M24.2675 0.993652L14.7248 9.79016C13.6553 10.7833 12.044 10.7833 10.9606 9.79016L1.41797 0.993652" fill="#E6EDED"/>
<path d="M24.8124 1.58482C25.1389 1.28385 25.1596 0.775199 24.8586 0.448707C24.5577 0.122214 24.049 0.10152 23.7225 0.402485L24.8124 1.58482ZM14.7248 9.79016L14.1799 9.19899L14.1778 9.20099L14.7248 9.79016ZM10.9606 9.79016L10.4156 10.3813L10.4173 10.3828L10.9606 9.79016ZM1.96291 0.402486C1.63642 0.10152 1.12777 0.122214 0.826802 0.448707C0.525837 0.775199 0.546531 1.28385 0.873023 1.58482L1.96291 0.402486ZM23.7225 0.402485L14.1799 9.199L15.2698 10.3813L24.8124 1.58482L23.7225 0.402485ZM14.1778 9.20099C13.4187 9.90586 12.2819 9.91069 11.5039 9.19748L10.4173 10.3828C11.8061 11.6559 13.8919 11.6608 15.2719 10.3793L14.1778 9.20099ZM11.5055 9.199L1.96291 0.402486L0.873023 1.58482L10.4156 10.3813L11.5055 9.199Z" fill="#002D31" mask="url(#path-2-inside-1_1206_8835)"/>
<path d="M1.42871 16.5484L9.98512 9.02881" stroke="#002D31" stroke-width="0.804017" stroke-linecap="round" stroke-linejoin="round"/>
<path d="M15.8086 8.92529L24.2678 16.5481" stroke="#002D31" stroke-width="0.804017" stroke-linecap="round" stroke-linejoin="round"/>
</svg>
