<svg width="60" height="13" viewBox="0 0 60 13" fill="none" xmlns="http://www.w3.org/2000/svg">
<path d="M9.45261 11.4729L9.27768 12.7195H0.922852C1.26846 11.8574 1.2465 11.3707 1.2465 10.7482V2.17933C1.2465 1.57588 1.26846 1.04643 0.922852 0.208008H9.07371L9.08858 1.47823C8.93561 1.41186 8.81238 1.35311 8.69906 1.29818C8.39736 1.17688 8.01493 1.06321 7.61833 1.06703H3.14948V5.9671H8.39311L8.13462 6.9314H3.14948V11.8353H7.87612C8.67286 11.8513 9.46606 11.3646 9.46606 11.3646L9.44411 11.4706C9.44411 11.4744 9.44765 11.4744 9.45119 11.4744L9.45261 11.4729ZM22.0284 12.7195C22.141 12.1038 22.141 11.2341 22.0504 10.5246L21.3081 4.62898L17.2543 12.7157H16.4831L12.3641 4.26432L11.5638 10.6536C11.4767 11.3905 11.4512 12.3235 11.5234 12.7195H10.0751C10.3556 12.0802 10.4243 11.8025 10.5553 10.752L11.8655 0.207245H12.5312L17.3379 10.0463L22.141 0.207245H22.6431L23.9965 10.7283C24.1311 11.775 24.2331 12.0771 24.5022 12.7195H22.0284ZM34.2295 12.7195L32.3011 8.13753H28.4222L26.5192 12.7195H25.0057C25.4859 12.0764 25.6495 11.7788 25.988 10.9793L30.4859 0.207245H30.9916L35.4165 10.6772C35.8896 11.7002 36.1113 12.0176 36.7883 12.7195H34.2295ZM46.3655 12.7195L44.4371 8.13753H40.5582L38.6552 12.7195H37.1417C37.6219 12.0764 37.7855 11.7788 38.124 10.9793L42.6219 0.207245H43.1276L47.556 10.6772C48.0291 11.7002 48.2508 12.0176 48.9279 12.7195H46.3655ZM57.362 12.7271C56.2012 11.5866 54.6984 10.073 52.8167 7.67445C52.2784 6.99624 51.8995 6.91003 51.6559 6.89478V10.7482C51.6559 11.3676 51.6559 11.8574 51.9831 12.7195H49.4286C49.7742 11.8574 49.7522 11.3707 49.7522 10.7482V2.1717C49.7522 1.56825 49.7742 1.0388 49.4286 0.200379H51.9321C53.6425 0.200379 57.685 0.0355938 57.685 3.63417C57.685 5.5353 56.2841 6.55834 54.6389 6.81696L54.151 6.86808C54.151 6.86808 59.486 12.4853 59.7147 12.7286H57.3606L57.362 12.7271ZM54.3379 6.09831L54.3344 6.10213C55.4116 5.66347 55.7756 4.56185 55.7388 3.62883C55.6984 2.7309 55.3238 0.779415 51.6595 0.935809V6.27073C51.6595 6.27073 53.7119 6.39203 54.2869 6.12196C54.3195 6.10594 54.3379 6.09831 54.3379 6.09831ZM40.9286 7.26249H44.0617L42.4824 3.5266L40.9286 7.26249ZM28.7961 7.26249H31.9293L30.3499 3.5266L28.7961 7.26249Z" fill="#E6EDED"/>
</svg>
