<svg width="237" height="87" viewBox="0 0 237 87" fill="none" xmlns="http://www.w3.org/2000/svg">
<g filter="url(#filter0_ii_1726_39586)">
<path fill-rule="evenodd" clip-rule="evenodd" d="M1.76521 82.3364C1 80.8633 1 78.928 1 75.0574V11.9426C1 8.07201 1 6.13669 1.76521 4.66359C2.41005 3.42222 3.42221 2.41006 4.66357 1.76522C6.13667 1.00001 8.07199 1.00001 11.9426 1.00001L74.0574 1C77.928 1 79.8633 1 81.3364 1.76521C82.5778 2.41005 83.59 3.42221 84.2348 4.66358C85 6.13668 85 8.072 85 11.9426V75H236V86H79.5C79.1622 86 78.8315 85.9695 78.5105 85.9112C77.3725 86 75.9451 86 74.0574 86L11.9426 86C8.07199 86 6.13667 86 4.66357 85.2348C3.42221 84.59 2.41005 83.5778 1.76521 82.3364Z" fill="#00494F"/>
</g>
<path d="M1.76521 82.3364L2.06679 82.1798L2.06679 82.1798L1.76521 82.3364ZM1.76521 4.66359L2.06679 4.82024L2.06679 4.82024L1.76521 4.66359ZM4.66357 1.76522L4.50692 1.46365L4.50692 1.46365L4.66357 1.76522ZM11.9426 1.00001L11.9426 1.33984L11.9426 1.33984L11.9426 1.00001ZM74.0574 1L74.0574 0.660166H74.0574V1ZM81.3364 1.76521L81.1798 2.06679L81.1798 2.06679L81.3364 1.76521ZM84.2348 4.66358L83.9332 4.82024L83.9332 4.82024L84.2348 4.66358ZM85 75V75.3398H84.6602V75H85ZM236 75V74.6602H236.34V75H236ZM236 86H236.34V86.3398H236V86ZM78.5105 85.9112L78.484 85.5724L78.5279 85.569L78.5712 85.5769L78.5105 85.9112ZM74.0574 86L74.0574 85.6602H74.0574V86ZM11.9426 86L11.9426 86.3398H11.9426V86ZM4.66357 85.2348L4.50692 85.5364L4.50692 85.5364L4.66357 85.2348ZM1.33983 75.0574C1.33983 76.9984 1.34011 78.4334 1.43432 79.5678C1.52819 80.6982 1.71358 81.4998 2.06679 82.1798L1.46364 82.4931C1.05164 81.6999 0.854412 80.7973 0.756984 79.6241C0.659893 78.455 0.660166 76.987 0.660166 75.0574H1.33983ZM1.33983 11.9426V75.0574H0.660166V11.9426H1.33983ZM2.06679 4.82024C1.71358 5.5002 1.52819 6.30176 1.43432 7.43217C1.34011 8.56664 1.33983 10.0016 1.33983 11.9426H0.660166C0.660166 10.013 0.659893 8.54504 0.756984 7.37592C0.854412 6.20272 1.05164 5.30008 1.46364 4.50694L2.06679 4.82024ZM4.82023 2.06679C3.64093 2.67939 2.67938 3.64094 2.06679 4.82024L1.46364 4.50694C2.14072 3.2035 3.20349 2.14073 4.50692 1.46365L4.82023 2.06679ZM11.9426 1.33984C10.0016 1.33984 8.56662 1.34011 7.43215 1.43433C6.30175 1.5282 5.50019 1.71358 4.82023 2.06679L4.50692 1.46365C5.30006 1.05164 6.20271 0.854419 7.3759 0.756991C8.54503 0.6599 10.013 0.660173 11.9426 0.660173L11.9426 1.33984ZM74.0574 1.33983L11.9426 1.33984L11.9426 0.660173L74.0574 0.660166L74.0574 1.33983ZM81.1798 2.06679C80.4998 1.71358 79.6982 1.52819 78.5678 1.43432C77.4334 1.34011 75.9984 1.33983 74.0574 1.33983V0.660166C75.987 0.660166 77.455 0.659893 78.6241 0.756984C79.7973 0.854412 80.6999 1.05164 81.4931 1.46364L81.1798 2.06679ZM83.9332 4.82024C83.3206 3.64093 82.3591 2.67938 81.1798 2.06679L81.4931 1.46364C82.7965 2.14072 83.8593 3.20349 84.5364 4.50693L83.9332 4.82024ZM84.6602 11.9426C84.6602 10.0016 84.6599 8.56663 84.5657 7.43216C84.4718 6.30176 84.2864 5.50019 83.9332 4.82024L84.5364 4.50693C84.9484 5.30007 85.1456 6.20272 85.243 7.37591C85.3401 8.54503 85.3398 10.013 85.3398 11.9426H84.6602ZM84.6602 75V11.9426H85.3398V75H84.6602ZM236 75.3398H85V74.6602H236V75.3398ZM235.66 86V75H236.34V86H235.66ZM79.5 85.6602H236V86.3398H79.5V85.6602ZM78.5712 85.5769C78.8723 85.6316 79.1826 85.6602 79.5 85.6602V86.3398C79.1417 86.3398 78.7907 86.3075 78.4497 86.2456L78.5712 85.5769ZM74.0574 85.6602C75.9504 85.6602 77.3624 85.6599 78.484 85.5724L78.5369 86.25C77.3827 86.3401 75.9398 86.3398 74.0574 86.3398V85.6602ZM11.9426 85.6602L74.0574 85.6602L74.0574 86.3398L11.9426 86.3398L11.9426 85.6602ZM4.82023 84.9332C5.50019 85.2864 6.30175 85.4718 7.43215 85.5657C8.56662 85.6599 10.0016 85.6602 11.9426 85.6602V86.3398C10.013 86.3398 8.54503 86.3401 7.3759 86.243C6.20271 86.1456 5.30006 85.9484 4.50692 85.5364L4.82023 84.9332ZM2.06679 82.1798C2.67938 83.3591 3.64093 84.3206 4.82023 84.9332L4.50692 85.5364C3.20349 84.8593 2.14072 83.7965 1.46364 82.4931L2.06679 82.1798Z" fill="#CED7D8"/>
<defs>
<filter id="filter0_ii_1726_39586" x="-2.27777" y="-2.27777" width="241.556" height="91.5555" filterUnits="userSpaceOnUse" color-interpolation-filters="sRGB">
<feFlood flood-opacity="0" result="BackgroundImageFix"/>
<feBlend mode="normal" in="SourceGraphic" in2="BackgroundImageFix" result="shape"/>
<feColorMatrix in="SourceAlpha" type="matrix" values="0 0 0 0 0 0 0 0 0 0 0 0 0 0 0 0 0 0 127 0" result="hardAlpha"/>
<feOffset dx="2.93792" dy="2.93792"/>
<feGaussianBlur stdDeviation="1.92099"/>
<feComposite in2="hardAlpha" operator="arithmetic" k2="-1" k3="1"/>
<feColorMatrix type="matrix" values="0 0 0 0 0 0 0 0 0 0.176471 0 0 0 0 0.192157 0 0 0 1 0"/>
<feBlend mode="normal" in2="shape" result="effect1_innerShadow_1726_39586"/>
<feColorMatrix in="SourceAlpha" type="matrix" values="0 0 0 0 0 0 0 0 0 0 0 0 0 0 0 0 0 0 127 0" result="hardAlpha"/>
<feMorphology radius="1.62892" operator="dilate" in="SourceAlpha" result="effect2_innerShadow_1726_39586"/>
<feOffset dx="-2.93792" dy="-2.93792"/>
<feGaussianBlur stdDeviation="2.44339"/>
<feComposite in2="hardAlpha" operator="arithmetic" k2="-1" k3="1"/>
<feColorMatrix type="matrix" values="0 0 0 0 0 0 0 0 0 0.459184 0 0 0 0 0.5 0 0 0 1 0"/>
<feBlend mode="normal" in2="effect1_innerShadow_1726_39586" result="effect2_innerShadow_1726_39586"/>
</filter>
</defs>
</svg>
