<svg width="25" height="24" viewBox="0 0 25 24" fill="none" xmlns="http://www.w3.org/2000/svg">
<path d="M0.833333 4.16589H0.951667C1.13356 4.88054 1.54838 5.51422 2.1306 5.96681C2.71281 6.4194 3.42923 6.66511 4.16667 6.66511C4.9041 6.66511 5.62052 6.4194 6.20274 5.96681C6.78495 5.51422 7.19977 4.88054 7.38167 4.16589H24.1667C24.3877 4.16589 24.5996 4.07809 24.7559 3.92181C24.9122 3.76553 25 3.55357 25 3.33255C25 3.11154 24.9122 2.89958 24.7559 2.7433C24.5996 2.58702 24.3877 2.49922 24.1667 2.49922H7.38167C7.19977 1.78457 6.78495 1.15089 6.20274 0.698297C5.62052 0.245705 4.9041 0 4.16667 0C3.42923 0 2.71281 0.245705 2.1306 0.698297C1.54838 1.15089 1.13356 1.78457 0.951667 2.49922H0.833333C0.61232 2.49922 0.400358 2.58702 0.244078 2.7433C0.0877973 2.89958 0 3.11154 0 3.33255C0 3.55357 0.0877973 3.76553 0.244078 3.92181C0.400358 4.07809 0.61232 4.16589 0.833333 4.16589ZM4.16667 1.66589C4.4963 1.66589 4.81853 1.76364 5.09262 1.94677C5.3667 2.12991 5.58032 2.3902 5.70647 2.69475C5.83261 2.99929 5.86562 3.3344 5.80131 3.6577C5.737 3.98101 5.57827 4.27798 5.34518 4.51107C5.11209 4.74415 4.81512 4.90289 4.49182 4.9672C4.16852 5.03151 3.8334 4.9985 3.52886 4.87235C3.22432 4.74621 2.96402 4.53259 2.78088 4.2585C2.59775 3.98442 2.5 3.66219 2.5 3.33255C2.5 2.89053 2.67559 2.4666 2.98816 2.15404C3.30072 1.84148 3.72464 1.66589 4.16667 1.66589ZM24.1667 10.8326H24.0483C23.8664 10.1179 23.4516 9.48422 22.8694 9.03163C22.2872 8.57904 21.5708 8.33333 20.8333 8.33333C20.0959 8.33333 19.3795 8.57904 18.7973 9.03163C18.215 9.48422 17.8002 10.1179 17.6183 10.8326H0.833333C0.61232 10.8326 0.400358 10.9204 0.244078 11.0766C0.0877973 11.2329 0 11.4449 0 11.6659C0 11.8869 0.0877973 12.0989 0.244078 12.2551C0.400358 12.4114 0.61232 12.4992 0.833333 12.4992H17.6183C17.8002 13.2139 18.215 13.8476 18.7973 14.3001C19.3795 14.7527 20.0959 14.9984 20.8333 14.9984C21.5708 14.9984 22.2872 14.7527 22.8694 14.3001C23.4516 13.8476 23.8664 13.2139 24.0483 12.4992H24.1667C24.3877 12.4992 24.5996 12.4114 24.7559 12.2551C24.9122 12.0989 25 11.8869 25 11.6659C25 11.4449 24.9122 11.2329 24.7559 11.0766C24.5996 10.9204 24.3877 10.8326 24.1667 10.8326ZM20.8333 13.3326C20.5037 13.3326 20.1815 13.2348 19.9074 13.0517C19.6333 12.8685 19.4197 12.6082 19.2935 12.3037C19.1674 11.9992 19.1344 11.664 19.1987 11.3407C19.263 11.0174 19.4217 10.7205 19.6548 10.4874C19.8879 10.2543 20.1849 10.0956 20.5082 10.0312C20.8315 9.96694 21.1666 9.99994 21.4711 10.1261C21.7757 10.2522 22.036 10.4659 22.2191 10.7399C22.4023 11.014 22.5 11.3363 22.5 11.6659C22.5 12.1079 22.3244 12.5318 22.0118 12.8444C21.6993 13.157 21.2754 13.3326 20.8333 13.3326ZM24.1667 19.1659H15.715C15.5331 18.4512 15.1183 17.8176 14.5361 17.365C13.9539 16.9124 13.2374 16.6667 12.5 16.6667C11.7626 16.6667 11.0461 16.9124 10.4639 17.365C9.88171 17.8176 9.46689 18.4512 9.285 19.1659H0.833333C0.61232 19.1659 0.400358 19.2537 0.244078 19.41C0.0877973 19.5662 0 19.7782 0 19.9992C0 20.2202 0.0877973 20.4322 0.244078 20.5885C0.400358 20.7448 0.61232 20.8326 0.833333 20.8326H9.285C9.46689 21.5472 9.88171 22.1809 10.4639 22.6335C11.0461 23.0861 11.7626 23.3318 12.5 23.3318C13.2374 23.3318 13.9539 23.0861 14.5361 22.6335C15.1183 22.1809 15.5331 21.5472 15.715 20.8326H24.1667C24.3877 20.8326 24.5996 20.7448 24.7559 20.5885C24.9122 20.4322 25 20.2202 25 19.9992C25 19.7782 24.9122 19.5662 24.7559 19.41C24.5996 19.2537 24.3877 19.1659 24.1667 19.1659ZM12.5 21.6659C12.1704 21.6659 11.8481 21.5681 11.574 21.385C11.3 21.2019 11.0863 20.9416 10.9602 20.637C10.8341 20.3325 10.801 19.9974 10.8654 19.6741C10.9297 19.3508 11.0884 19.0538 11.3215 18.8207C11.5546 18.5876 11.8515 18.4289 12.1748 18.3646C12.4982 18.3003 12.8333 18.3333 13.1378 18.4594C13.4423 18.5856 13.7026 18.7992 13.8858 19.0733C14.0689 19.3474 14.1667 19.6696 14.1667 19.9992C14.1667 20.4413 13.9911 20.8652 13.6785 21.1777C13.3659 21.4903 12.942 21.6659 12.5 21.6659Z" fill="url(#paint0_linear_1828_17368)"/>
<defs>
<linearGradient id="paint0_linear_1828_17368" x1="5.95883e-08" y1="0.42181" x2="26.8727" y2="4.41058" gradientUnits="userSpaceOnUse">
<stop offset="0.158241" stop-color="#002D31"/>
<stop offset="0.32869" stop-color="#005961"/>
<stop offset="0.509791" stop-color="#00818C"/>
<stop offset="0.786145" stop-color="#005961"/>
<stop offset="0.988044" stop-color="#002D31"/>
</linearGradient>
</defs>
</svg>
