<svg width="35" height="35" viewBox="0 0 35 35" fill="none" xmlns="http://www.w3.org/2000/svg">
<path d="M3.82812 33.9062H6.01562C6.3179 33.9062 6.5625 33.6614 6.5625 33.3594V29.5312H19.6875V33.3594C19.6875 33.6614 19.9321 33.9062 20.2344 33.9062H25.1562H28.4375H33.3594C33.6616 33.9062 33.9062 33.6614 33.9062 33.3594V25.1562C33.9062 25.0113 33.8486 24.8721 33.746 24.7696L32.8125 23.8361V19.1406V1.64062C32.8125 1.33861 32.5679 1.09375 32.2656 1.09375H3.82812C2.32048 1.09375 1.09375 2.32048 1.09375 3.82812V31.1719C1.09375 32.6795 2.32048 33.9062 3.82812 33.9062ZM25.7031 32.8125V27.3438H27.8906V32.8125H25.7031ZM32.8125 32.8125H28.9844V26.7969C28.9844 26.4949 28.7398 26.25 28.4375 26.25H25.1562C24.854 26.25 24.6094 26.4949 24.6094 26.7969V32.8125H20.7812V25.3827L26.7969 19.3671L29.1446 21.7148C29.3016 21.8715 29.5366 21.9183 29.7406 21.8333C29.9451 21.7487 30.0781 21.5492 30.0781 21.3281V19.6875H31.7188V24.0625C31.7188 24.2075 31.7764 24.3466 31.879 24.4492L32.8125 25.3827V32.8125ZM3.82812 2.1875H31.7188V18.5938H29.5312C29.229 18.5938 28.9844 18.8386 28.9844 19.1406V20.0079L27.1835 18.2071C26.9699 17.9935 26.6238 17.9935 26.4102 18.2071L19.8477 24.7696C19.7452 24.8721 19.6875 25.0113 19.6875 25.1562V28.4375H6.5625V6.01562C6.5625 5.71361 6.3179 5.46875 6.01562 5.46875H3.82812C2.92343 5.46875 2.1875 4.73282 2.1875 3.82812C2.1875 2.92343 2.92343 2.1875 3.82812 2.1875ZM2.1875 6.01429C2.64465 6.35822 3.21289 6.5625 3.82812 6.5625H5.46875V32.8125H3.82812C2.92343 32.8125 2.1875 32.0766 2.1875 31.1719V6.01429Z" fill="url(#paint0_linear_1733_53644)"/>
<path d="M8.75 23.5156H12.0312C12.3335 23.5156 12.5781 23.2708 12.5781 22.9688C12.5781 22.2558 13.0353 21.6475 13.6719 21.4219V22.9688C13.6719 23.2708 13.9165 23.5156 14.2188 23.5156H18.0469C18.3491 23.5156 18.5938 23.2708 18.5938 22.9688V15.8594H29.5312C29.8335 15.8594 30.0781 15.6145 30.0781 15.3125V4.375C30.0781 4.07299 29.8335 3.82812 29.5312 3.82812H8.75C8.44773 3.82812 8.20312 4.07299 8.20312 4.375V22.9688C8.20312 23.2708 8.44773 23.5156 8.75 23.5156ZM28.9844 14.7656H22.4219V13.6719H24.0625C24.3648 13.6719 24.6094 13.427 24.6094 13.125C24.6094 11.8045 23.6684 10.6996 22.4219 10.4456V4.92188H28.9844V14.7656ZM15.3125 4.92188V10.3906H14.7656V11.4844H15.8594C16.1616 11.4844 16.4062 11.2395 16.4062 10.9375V4.92188H21.3281V10.9375C21.3281 11.2395 21.5727 11.4844 21.875 11.4844C22.588 11.4844 23.1963 11.9415 23.4222 12.5781H21.875C21.5727 12.5781 21.3281 12.823 21.3281 13.125V14.7656H18.0469C17.7446 14.7656 17.5 15.0105 17.5 15.3125V22.4219H14.7656V20.7812C14.7656 20.4792 14.521 20.2344 14.2188 20.2344C12.898 20.2344 11.7936 21.1754 11.5394 22.4219H9.29688V11.4844H13.125V10.3906H9.29688V4.92188H15.3125Z" fill="url(#paint1_linear_1733_53644)"/>
<path d="M8.75 26.25H7.65625V27.3438H8.75V26.25Z" fill="url(#paint2_linear_1733_53644)"/>
<path d="M10.9375 26.25H9.84375V27.3438H10.9375V26.25Z" fill="url(#paint3_linear_1733_53644)"/>
<path d="M13.125 26.25H12.0312V27.3438H13.125V26.25Z" fill="url(#paint4_linear_1733_53644)"/>
<defs>
<linearGradient id="paint0_linear_1733_53644" x1="1.09375" y1="1.68696" x2="36.4625" y2="6.5865" gradientUnits="userSpaceOnUse">
<stop offset="0.158241" stop-color="#002D31"/>
<stop offset="0.32869" stop-color="#005961"/>
<stop offset="0.509791" stop-color="#00818C"/>
<stop offset="0.786145" stop-color="#005961"/>
<stop offset="0.988044" stop-color="#002D31"/>
</linearGradient>
<linearGradient id="paint1_linear_1733_53644" x1="8.20313" y1="4.18405" x2="31.6786" y2="7.79738" gradientUnits="userSpaceOnUse">
<stop offset="0.158241" stop-color="#002D31"/>
<stop offset="0.32869" stop-color="#005961"/>
<stop offset="0.509791" stop-color="#00818C"/>
<stop offset="0.786145" stop-color="#005961"/>
<stop offset="0.988044" stop-color="#002D31"/>
</linearGradient>
<linearGradient id="paint2_linear_1733_53644" x1="7.65625" y1="26.2698" x2="8.83521" y2="26.4331" gradientUnits="userSpaceOnUse">
<stop offset="0.158241" stop-color="#002D31"/>
<stop offset="0.32869" stop-color="#005961"/>
<stop offset="0.509791" stop-color="#00818C"/>
<stop offset="0.786145" stop-color="#005961"/>
<stop offset="0.988044" stop-color="#002D31"/>
</linearGradient>
<linearGradient id="paint3_linear_1733_53644" x1="9.84375" y1="26.2698" x2="11.0227" y2="26.4331" gradientUnits="userSpaceOnUse">
<stop offset="0.158241" stop-color="#002D31"/>
<stop offset="0.32869" stop-color="#005961"/>
<stop offset="0.509791" stop-color="#00818C"/>
<stop offset="0.786145" stop-color="#005961"/>
<stop offset="0.988044" stop-color="#002D31"/>
</linearGradient>
<linearGradient id="paint4_linear_1733_53644" x1="12.0313" y1="26.2698" x2="13.2102" y2="26.4331" gradientUnits="userSpaceOnUse">
<stop offset="0.158241" stop-color="#002D31"/>
<stop offset="0.32869" stop-color="#005961"/>
<stop offset="0.509791" stop-color="#00818C"/>
<stop offset="0.786145" stop-color="#005961"/>
<stop offset="0.988044" stop-color="#002D31"/>
</linearGradient>
</defs>
</svg>
