<svg width="327" height="119" viewBox="0 0 327 119" fill="none" xmlns="http://www.w3.org/2000/svg">
<g filter="url(#filter0_d_1202_8634)">
<g filter="url(#filter1_dd_1202_8634)">
<rect x="7" y="7" width="310" height="102" rx="15" fill="#002D31"/>
<rect x="7.5" y="7.5" width="309" height="101" rx="14.5" stroke="#19464B"/>
</g>
<path d="M72.6529 39.2635V55.9743C72.6529 56.8518 71.9403 57.5691 71.0592 57.5691C70.178 57.5691 69.4654 56.8594 69.4654 55.9743V54.4024V39.2329C69.4654 35.8908 66.7453 33.1743 63.3893 33.1743H49.0993C48.5859 33.1743 48.1722 33.5863 48.1722 34.0976V48.3361C48.1722 51.6783 50.8922 54.3948 54.2483 54.3948H63.9256C64.2015 54.3948 64.4237 54.1735 64.4237 53.8988V39.2329C64.4237 38.6606 63.9563 38.2028 63.3893 38.2028H53.7043C53.4284 38.2028 53.2062 38.4241 53.2062 38.6988V48.3514C53.2062 48.9237 53.6736 49.3892 54.2406 49.3892H60.9757C61.8568 49.3892 62.5618 50.0988 62.5618 50.9763C62.5618 51.8538 61.8492 52.5635 60.9757 52.5635H54.2483C51.9113 52.5635 50.0264 50.6787 50.0264 48.3514V35.5245C50.0264 35.2498 50.2486 35.0285 50.5244 35.0285H63.3816C65.7186 35.0285 67.6035 36.9133 67.6035 39.2406V49.3739V56.6458C67.6035 57.1494 67.1897 57.5614 66.684 57.5614H54.2943C49.1606 57.5614 45 53.4181 45 48.298V30.9233C45 30.412 45.4138 30 45.9271 30H63.3586C68.4923 30 72.6529 34.1434 72.6529 39.2635Z" fill="white"/>
<path d="M74.5068 39.2781V55.9889C74.5068 56.8665 75.2194 57.5837 76.1006 57.5837C76.9817 57.5837 77.6943 56.8741 77.6943 55.9889V54.4171V39.2476C77.6943 35.9054 80.4144 33.1889 83.7704 33.1889H98.0528C98.5662 33.1889 98.9799 33.601 98.9799 34.1122V48.3508C98.9799 51.693 96.2598 54.4094 92.9038 54.4094H83.2264C82.9506 54.4094 82.7284 54.1881 82.7284 53.9134V39.2476C82.7284 38.6753 83.1958 38.2175 83.7628 38.2175H93.4478C93.7236 38.2175 93.9458 38.4387 93.9458 38.7134V48.3661C93.9458 48.9383 93.4785 49.4038 92.9114 49.4038H86.1764C85.2952 49.4038 84.5903 50.1134 84.5903 50.991C84.5903 51.8685 85.3029 52.5781 86.1764 52.5781H92.9038C95.2408 52.5781 97.1257 50.6934 97.1257 48.3661V35.5391C97.1257 35.2644 96.9035 35.0432 96.6276 35.0432H83.7704C81.4335 35.0432 79.5486 36.9279 79.5486 39.2552V49.3885V56.6604C79.5486 57.164 79.9623 57.5761 80.468 57.5761H92.8655C97.9992 57.5761 102.16 53.4327 102.16 48.3126V30.9379C102.16 30.4267 101.746 30.0146 101.233 30.0146H83.8011C78.6674 30.0146 74.5068 34.158 74.5068 39.2781Z" fill="white"/>
<path d="M78.6442 59.4464C79.1478 59.4464 79.556 59.0399 79.556 58.5384C79.556 58.0369 79.1478 57.6304 78.6442 57.6304C78.1406 57.6304 77.7324 58.0369 77.7324 58.5384C77.7324 59.0399 78.1406 59.4464 78.6442 59.4464Z" fill="white"/>
<path d="M68.6911 59.4464C69.1947 59.4464 69.6029 59.0399 69.6029 58.5384C69.6029 58.0369 69.1947 57.6304 68.6911 57.6304C68.1875 57.6304 67.7793 58.0369 67.7793 58.5384C67.7793 59.0399 68.1875 59.4464 68.6911 59.4464Z" fill="white"/>
<path d="M72.6529 77.7362V61.0253C72.6529 60.1478 71.9403 59.4305 71.0592 59.4305C70.178 59.4305 69.4654 60.1402 69.4654 61.0253V62.5972V77.7591C69.4654 81.1012 66.7453 83.8177 63.3893 83.8177H49.0993C48.5859 83.8177 48.1722 83.4057 48.1722 82.8944V68.6558C48.1722 65.3137 50.8922 62.5972 54.2483 62.5972H63.9256C64.2015 62.5972 64.4237 62.8185 64.4237 63.0932V77.7591C64.4237 78.3314 63.9563 78.7892 63.3893 78.7892H53.7043C53.4284 78.7892 53.2062 78.5679 53.2062 78.2932V68.6406C53.2062 68.0683 53.6736 67.6028 54.2406 67.6028H60.9757C61.8568 67.6028 62.5618 66.8932 62.5618 66.0157C62.5618 65.1382 61.8492 64.4285 60.9757 64.4285H54.2483C51.9113 64.4285 50.0264 66.3133 50.0264 68.6406V81.4522C50.0264 81.7269 50.2486 81.9482 50.5244 81.9482H63.3816C65.7186 81.9482 67.6035 80.0635 67.6035 77.7362V67.6028V60.3309C67.6035 59.8273 67.1897 59.4153 66.684 59.4153H54.2943C49.1606 59.4382 45 63.5816 45 68.7016V86.0763C45 86.5876 45.4138 86.9996 45.9271 86.9996H63.3586C68.4923 86.9996 72.6529 82.8563 72.6529 77.7362Z" fill="white"/>
<path d="M74.5137 77.7218V61.0109C74.5137 60.1334 75.2263 59.4161 76.1074 59.4161C76.9886 59.4161 77.7011 60.1258 77.7011 61.0109V62.5828V77.7447C77.7011 81.0868 80.4212 83.8033 83.7773 83.8033H98.0596C98.573 83.8033 98.9867 83.3912 98.9867 82.88V68.6414C98.9867 65.2993 96.2667 62.5828 92.9106 62.5828H83.2333C82.9574 62.5828 82.7352 62.8041 82.7352 63.0788V77.7447C82.7352 78.3169 83.2026 78.7748 83.7696 78.7748H93.4546C93.7305 78.7748 93.9527 78.5535 93.9527 78.2788V68.6262C93.9527 68.0539 93.4853 67.5884 92.9183 67.5884H86.1832C85.3021 67.5884 84.5971 66.8788 84.5971 66.0013C84.5971 65.1238 85.3097 64.4141 86.1832 64.4141H92.9106C95.2476 64.4141 97.1325 66.2989 97.1325 68.6262V81.4378C97.1325 81.7125 96.9103 81.9338 96.6345 81.9338H83.7773C81.4403 81.9338 79.5554 80.0491 79.5554 77.7218V67.5884V60.3165C79.5554 59.8129 79.9692 59.4009 80.4749 59.4009H92.8723C98.006 59.4009 102.167 63.5443 102.167 68.6643V86.039C102.167 86.5503 101.753 86.9623 101.239 86.9623H83.8079C78.6742 86.9623 74.5137 82.819 74.5137 77.6989V77.7218Z" fill="white"/>
<path d="M111.446 81.949H108.818V68.2217H119.323C121.07 68.2217 121.951 69.1373 121.951 70.9687V73.7157C121.951 75.547 121.078 76.4626 119.323 76.4626H111.446V81.9566V81.949ZM119.323 73.7157V70.9687H111.446V73.7157H119.323Z" fill="white"/>
<path d="M131.629 76.4623L129.944 74.7073V81.9563H127.315V68.229H137.82C139.567 68.229 140.448 69.1447 140.448 70.976V73.723C140.448 75.5543 139.59 76.47 137.866 76.47H135.2L140.448 81.9639H136.878L131.629 76.47V76.4623ZM129.944 70.9684V73.7154H137.82V70.9684H129.944Z" fill="white"/>
<path d="M148.455 68.2219H156.332C158.079 68.2219 158.96 69.1376 158.96 70.9689V79.2099C158.96 81.0412 158.087 81.9569 156.332 81.9569H148.455C146.708 81.9569 145.827 81.0412 145.827 79.2099V70.9689C145.827 69.1376 146.701 68.2219 148.455 68.2219ZM148.455 70.9689V79.2099H156.332V70.9689H148.455Z" fill="white"/>
<path d="M166.958 81.9495H164.33V68.2222H174.835C176.582 68.2222 177.463 69.1378 177.463 70.9692V73.7161C177.463 75.5475 176.59 76.4631 174.835 76.4631H166.958V81.9571V81.9495ZM174.835 73.7161V70.9692H166.958V73.7161H174.835Z" fill="white"/>
<path d="M195.967 68.2219V70.9689H182.842V68.2219H195.967ZM195.967 73.7159V76.4629H182.842V73.7159H195.967ZM195.967 79.2099V81.9569H182.842V79.2099H195.967Z" fill="white"/>
<path d="M205.654 76.4623L203.968 74.7073V81.9563H201.34V68.229H211.845C213.592 68.229 214.473 69.1447 214.473 70.976V73.723C214.473 75.5543 213.615 76.47 211.891 76.47H209.224L214.473 81.9639H210.902L205.654 76.47V76.4623ZM203.968 70.9684V73.7154H211.845V70.9684H203.968Z" fill="white"/>
<path d="M219.852 68.2219H232.977V70.9689H227.728V81.9492H225.1V70.9689H219.852V68.2219Z" fill="white"/>
<path d="M240.984 68.2219V81.9492H238.355V68.2219H240.984Z" fill="white"/>
<path d="M259.488 68.2219V70.9689H246.362V68.2219H259.488ZM259.488 73.7159V76.4629H246.362V73.7159H259.488ZM259.488 79.2099V81.9569H246.362V79.2099H259.488Z" fill="white"/>
<path d="M277.999 70.9689H267.494V73.7159H275.371C277.118 73.7159 277.999 74.6316 277.999 76.4629V79.2099C277.999 81.0412 277.126 81.9569 275.371 81.9569H264.866V79.2099H275.371V76.4629H267.494C265.747 76.4629 264.866 75.5472 264.866 73.7159V70.9689C264.866 69.1376 265.74 68.2219 267.494 68.2219H277.999V70.9689Z" fill="white"/>
<path d="M112.359 53.4861H108.834V35.0583H122.932C125.285 35.0583 126.457 36.2869 126.457 38.7439V42.4294C126.457 44.8865 125.285 46.115 122.932 46.115H112.359V53.4861ZM122.932 42.4294V38.7439H112.359V42.4294H122.932Z" fill="white"/>
<path d="M136.241 46.1147L133.981 43.7569V53.4934H130.456V35.0581H144.555C146.907 35.0581 148.079 36.2866 148.079 38.7436V42.4292C148.079 44.8862 146.922 46.1147 144.608 46.1147H141.03L148.079 53.4858H143.29L136.241 46.1147ZM133.981 38.7436V42.4292H144.555V38.7436H133.981Z" fill="white"/>
<path d="M155.619 35.0581H166.193C168.545 35.0581 169.718 36.2866 169.718 38.7436V49.8003C169.718 52.2573 168.545 53.4858 166.193 53.4858H155.619C153.267 53.4858 152.095 52.2573 152.095 49.8003V38.7436C152.095 36.2866 153.267 35.0581 155.619 35.0581ZM155.619 38.7436V49.8003H166.193V38.7436H155.619Z" fill="white"/>
<path d="M173.717 35.0581H191.34V38.7436H177.241V42.4292H191.34V46.1147H177.241V53.4858H173.717V35.0581Z" fill="white"/>
<path d="M198.872 35.0581H209.446C211.798 35.0581 212.971 36.2866 212.971 38.7436V49.8003C212.971 52.2573 211.798 53.4858 209.446 53.4858H198.872C196.52 53.4858 195.348 52.2573 195.348 49.8003V38.7436C195.348 36.2866 196.52 35.0581 198.872 35.0581ZM198.872 38.7436V49.8003H209.446V38.7436H198.872Z" fill="white"/>
<path d="M231.076 53.4858H220.502C218.15 53.4858 216.978 52.2573 216.978 49.8003V35.0581H220.502V49.8003H231.076V35.0581H234.601V49.8003C234.601 52.2573 233.428 53.4858 231.076 53.4858Z" fill="white"/>
<path d="M241.949 53.4856H238.256V35.0884H241.581L253.036 47.7856V35.0884H256.729V53.4856H253.427L241.949 40.7884V53.4856Z" fill="white"/>
<path d="M260.377 53.4858V35.0581H274.475C276.828 35.0581 278 36.2866 278 38.7436V49.8003C278 52.2573 276.828 53.4858 274.475 53.4858H260.377ZM263.902 49.8003H274.475V38.7436H263.902V49.8003Z" fill="white"/>
</g>
<defs>
<filter id="filter0_d_1202_8634" x="3" y="7" width="318" height="110" filterUnits="userSpaceOnUse" color-interpolation-filters="sRGB">
<feFlood flood-opacity="0" result="BackgroundImageFix"/>
<feColorMatrix in="SourceAlpha" type="matrix" values="0 0 0 0 0 0 0 0 0 0 0 0 0 0 0 0 0 0 127 0" result="hardAlpha"/>
<feOffset dy="4"/>
<feGaussianBlur stdDeviation="2"/>
<feComposite in2="hardAlpha" operator="out"/>
<feColorMatrix type="matrix" values="0 0 0 0 0 0 0 0 0 0 0 0 0 0 0 0 0 0 0.25 0"/>
<feBlend mode="normal" in2="BackgroundImageFix" result="effect1_dropShadow_1202_8634"/>
<feBlend mode="normal" in="SourceGraphic" in2="effect1_dropShadow_1202_8634" result="shape"/>
</filter>
<filter id="filter1_dd_1202_8634" x="0" y="0" width="327" height="119" filterUnits="userSpaceOnUse" color-interpolation-filters="sRGB">
<feFlood flood-opacity="0" result="BackgroundImageFix"/>
<feColorMatrix in="SourceAlpha" type="matrix" values="0 0 0 0 0 0 0 0 0 0 0 0 0 0 0 0 0 0 127 0" result="hardAlpha"/>
<feOffset dx="4" dy="4"/>
<feGaussianBlur stdDeviation="3"/>
<feComposite in2="hardAlpha" operator="out"/>
<feColorMatrix type="matrix" values="0 0 0 0 0.00392157 0 0 0 0 0.0862745 0 0 0 0 0.0941176 0 0 0 1 0"/>
<feBlend mode="normal" in2="BackgroundImageFix" result="effect1_dropShadow_1202_8634"/>
<feColorMatrix in="SourceAlpha" type="matrix" values="0 0 0 0 0 0 0 0 0 0 0 0 0 0 0 0 0 0 127 0" result="hardAlpha"/>
<feOffset dx="-3" dy="-3"/>
<feGaussianBlur stdDeviation="2"/>
<feComposite in2="hardAlpha" operator="out"/>
<feColorMatrix type="matrix" values="0 0 0 0 0.0140278 0 0 0 0 0.383432 0 0 0 0 0.420833 0 0 0 1 0"/>
<feBlend mode="normal" in2="effect1_dropShadow_1202_8634" result="effect2_dropShadow_1202_8634"/>
<feBlend mode="normal" in="SourceGraphic" in2="effect2_dropShadow_1202_8634" result="shape"/>
</filter>
</defs>
</svg>
