<svg width="1530" height="161" viewBox="0 0 1530 161" fill="none" xmlns="http://www.w3.org/2000/svg">
<path d="M0.0129392 157.53L0.012935 109.096C0.0129339 97.0304 8.27722 86.8943 19.4404 84.0627C21.4753 83.5444 23.6062 83.266 25.8043 83.266L60.225 83.266C60.9448 83.266 61.5976 83.5732 62.0583 84.0627C62.4999 84.5235 62.7687 85.1378 62.7687 85.8193L62.7687 134.34C62.7687 140.81 57.5182 146.07 51.0392 146.07L15.342 146.07C14.5934 146.07 13.9694 145.455 13.9694 144.687L13.9694 108.971C13.9694 102.502 19.2103 97.2416 25.699 97.2416L44.368 97.2416C45.5967 97.2416 46.691 97.7311 47.4877 98.5374C48.2939 99.3437 48.7931 100.438 48.7931 101.667C48.7931 104.095 46.8157 106.063 44.368 106.063L25.6796 106.063C24.0767 106.063 22.7904 107.359 22.7904 108.952L22.7904 135.857C22.7904 136.605 23.3951 137.249 24.1822 137.249L51.0583 137.249C52.6421 137.249 53.9379 135.972 53.9379 134.359L53.9379 93.479C53.9379 92.7111 53.3043 92.0872 52.5557 92.0872L25.6796 92.0872C16.3689 92.0872 8.81494 99.6413 8.81494 108.952L8.81494 148.652C8.81494 150.072 9.98596 151.243 11.397 151.243L51.0392 151.243C60.3594 151.243 67.9133 143.689 67.9133 134.359L67.9133 87.5566C67.9325 86.3856 68.4318 85.3297 69.1901 84.5811C69.3821 84.3891 69.5933 84.2163 69.8141 84.0627C70.5339 83.554 71.3977 83.266 72.3384 83.266L1530 83.266L1530 92.1448L76.629 92.1447L76.629 134.292C76.629 148.095 65.8209 159.364 52.2197 160.055C51.807 160.074 51.3942 160.084 50.9814 160.084L2.56616 160.084C1.16479 160.084 0.0129394 158.932 0.0129392 157.53Z" fill="#E6EDED"/>
<g opacity="0.1">
<path opacity="0.4" d="M65.3662 75.5805C63.972 75.5805 62.8418 76.7108 62.8418 78.105C62.8418 79.4992 63.972 80.6294 65.3662 80.6294C66.7604 80.6294 67.8906 79.4992 67.8906 78.105C67.8906 76.7108 66.7604 75.5805 65.3662 75.5805Z" fill="#DDE4E4"/>
<path opacity="0.4" d="M93.3926 75.5102C91.9984 75.5102 90.8681 76.6404 90.8681 78.0346C90.8681 79.4289 91.9984 80.5591 93.3926 80.5591C94.7868 80.5591 95.917 79.4289 95.917 78.0346C95.917 76.6404 94.7868 75.5102 93.3926 75.5102Z" fill="#DDE4E4"/>
<path opacity="0.4" d="M82.0111 25.83L82.0111 72.4408C82.0111 74.898 83.998 76.8849 86.4457 76.8849C88.8933 76.8849 90.8802 74.898 90.8802 72.4408L90.8802 68.0446L90.8802 25.7532C90.8802 16.4234 98.4439 8.85967 107.764 8.85967L147.454 8.85967C148.875 8.85967 150.036 10.0115 150.036 11.4417L150.036 51.1607C150.036 60.4905 142.482 68.0542 133.152 68.0542L106.257 68.0542C105.499 68.0542 104.875 67.4399 104.875 66.672L104.875 25.7436C104.875 24.1502 106.161 22.864 107.754 22.864L134.659 22.864C135.427 22.864 136.042 23.4879 136.042 24.2462L136.042 51.1703C136.042 52.7636 134.755 54.0595 133.162 54.0595L114.445 54.0595C112.007 54.0595 110.029 56.0368 110.029 58.4844C110.029 60.9225 112.007 62.9094 114.445 62.9094L133.143 62.9094C139.622 62.9094 144.882 57.6493 144.882 51.1607L144.882 15.4059C144.882 14.6476 144.268 14.0237 143.5 14.0237L107.774 14.0237C101.295 14.0237 96.0346 19.2837 96.0346 25.7724L96.0346 54.0403L96.0346 74.3317C96.0346 75.7427 97.1768 76.8945 98.5974 76.8945L133.037 76.8945C147.301 76.8945 158.857 65.3282 158.857 51.0551L158.857 2.58218C158.857 1.16158 157.706 0.000152689 156.275 0.000152814L107.831 0.000157049C93.5677 0.000158296 82.0111 11.5665 82.0111 25.8396L82.0111 25.83Z" fill="#DDE4E4"/>
<path opacity="0.4" d="M82.0131 134.254V87.6427C82.0131 85.1855 84 83.1986 86.4476 83.1986C88.8952 83.1986 90.8822 85.1855 90.8822 87.6427V92.0389V134.33C90.8822 143.66 98.4458 151.224 107.766 151.224H147.456C148.877 151.224 150.038 150.072 150.038 148.642V108.923C150.038 99.593 142.484 92.0293 133.154 92.0293H106.259C105.501 92.0293 104.877 92.6436 104.877 93.4115V134.34C104.877 135.933 106.163 137.219 107.756 137.219H134.661C135.429 137.219 136.043 136.596 136.043 135.837V108.913C136.043 107.32 134.757 106.024 133.164 106.024H114.447C112.009 106.024 110.031 104.047 110.031 101.599C110.031 99.161 112.009 97.1741 114.447 97.1741H133.145C139.624 97.1741 144.884 102.434 144.884 108.923V144.678C144.884 145.436 144.27 146.06 143.502 146.06H107.776C101.297 146.06 96.0366 140.8 96.0366 134.311V106.043V85.7518C96.0366 84.3408 97.1788 83.189 98.5993 83.189H133.039C147.303 83.189 158.859 94.7553 158.859 109.028V157.501C158.859 158.922 157.708 160.083 156.277 160.083H107.833C93.5697 160.083 82.0131 148.517 82.0131 134.244V134.254Z" fill="#DDE4E4"/>
<path opacity="0.4" d="M76.8467 25.8778L76.8467 72.4886C76.8467 74.9459 74.8598 76.9328 72.4121 76.9328C69.9645 76.9328 67.9776 74.9459 67.9776 72.4886L67.9776 68.0925L67.9776 25.8011C67.9776 16.4712 60.4138 8.90751 51.0936 8.90751L11.4034 8.90751C9.98278 8.90751 8.82141 10.0594 8.82141 11.4895L8.82142 51.2085C8.82142 60.5384 16.3755 68.1021 25.7053 68.1021L52.6006 68.1021C53.3589 68.1021 53.9828 67.4878 53.9828 66.7199L53.9827 25.7915C53.9827 24.1981 52.6965 22.9119 51.1032 22.9119L24.1983 22.9119C23.4304 22.9119 22.8161 23.5358 22.8161 24.2941L22.8161 51.2181C22.8161 52.8115 24.1023 54.1073 25.6957 54.1073L44.413 54.1073C46.851 54.1073 48.8283 56.0846 48.8283 58.5323C48.8283 60.9703 46.851 62.9572 44.413 62.9572L25.7149 62.9572C19.2359 62.9572 13.9759 57.6972 13.9759 51.2085L13.9759 15.4538C13.9759 14.6955 14.5901 14.0716 15.358 14.0716L51.084 14.0716C57.563 14.0716 62.823 19.3316 62.823 25.8203L62.823 54.0881L62.823 74.3796C62.823 75.7906 61.6809 76.9424 60.2603 76.9424L25.8205 76.9424C11.557 76.9424 0.000243129 65.3761 0.000241882 51.103L0.000237644 2.63004C0.00023752 1.20945 1.15213 0.0480184 2.58232 0.0480183L51.0264 0.048014C65.2899 0.0480128 76.8467 11.6143 76.8467 25.8874L76.8467 25.8778Z" fill="#DDE4E4"/>
<path opacity="0.05" d="M82.0101 134.252L82.0101 87.6414C82.0101 85.1842 83.997 83.1973 86.4447 83.1973C88.8923 83.1973 90.8792 85.1842 90.8792 87.6414L90.8792 92.0376L90.8792 134.329C90.8792 143.659 98.4429 151.223 107.763 151.223L147.453 151.223C148.874 151.223 150.035 150.071 150.035 148.641L150.035 108.922C150.035 99.5917 142.481 92.028 133.151 92.028L106.256 92.028C105.498 92.028 104.874 92.6423 104.874 93.4102L104.874 134.339C104.874 135.932 106.16 137.218 107.754 137.218L134.658 137.218C135.426 137.218 136.041 136.594 136.041 135.836L136.041 108.912C136.041 107.319 134.754 106.023 133.161 106.023L114.444 106.023C112.006 106.023 110.028 104.045 110.028 101.598C110.028 99.1597 112.006 97.1728 114.444 97.1728L133.142 97.1728C139.621 97.1728 144.881 102.433 144.881 108.922L144.881 144.676C144.881 145.435 144.267 146.058 143.499 146.058L107.773 146.058C101.294 146.058 96.0337 140.798 96.0337 134.31L96.0337 106.042L96.0337 85.7505C96.0337 84.3395 97.1758 83.1877 98.5964 83.1877L133.036 83.1877C147.3 83.1877 158.856 94.754 158.856 109.027L158.856 157.5C158.856 158.921 157.705 160.082 156.274 160.082L107.83 160.082C93.5667 160.082 82.0101 148.516 82.0101 134.243L82.0101 134.252Z" fill="#DDE4E4"/>
</g>
</svg>
