<svg width="284" height="300" viewBox="0 0 284 300" fill="none" xmlns="http://www.w3.org/2000/svg">
<path d="M0 0V24.8967C0.000725357 25.0395 0.039913 25.1797 0.113806 25.3038C0.1877 25.4278 0.293787 25.5315 0.421793 25.6049L43.7578 50.5016C43.8925 50.5787 44.0458 50.6207 44.2027 50.6233C44.3598 50.6221 44.5136 50.58 44.6476 50.5016L87.9837 25.6049C88.0188 25.584 88.0517 25.5599 88.0819 25.5329L88.1223 25.4997C88.1503 25.4767 88.1755 25.4507 88.1974 25.4223L88.2379 25.378L88.2899 25.295C88.2889 25.2766 88.2889 25.2581 88.2899 25.2397C88.2924 25.2121 88.2924 25.1843 88.2899 25.1567C88.2932 25.1328 88.2932 25.1087 88.2899 25.0848C88.2927 25.0609 88.2927 25.0368 88.2899 25.0129C88.2927 24.9816 88.2927 24.9501 88.2899 24.9188V0.0221182H86.5565V24.4209L44.0872 48.8197L1.61787 24.4209V0.0221182L0 0Z" fill="#E6EDED" fill-opacity="0.1"/>
<path d="M286.412 287.754L261.495 273.427V224.59L286.412 210.263V208.327L260.629 223.152L219.016 199.218L261.073 175.024C261.202 174.951 261.309 174.848 261.383 174.724C261.457 174.599 261.495 174.459 261.495 174.316V125.978L286.412 140.305V138.368L262.315 124.533L286.412 110.699V108.762L261.495 123.089V75.1771L286.412 60.85V58.9131L260.629 73.7383L219.016 49.8045L261.073 25.6106C261.202 25.5381 261.309 25.4345 261.383 25.3102C261.457 25.186 261.495 25.0453 261.495 24.9022V0H259.763V24.4042L217.33 48.8084L175.717 24.8746L217.775 0.68065L218.97 0H215.604L174.898 23.4081V0H173.166V23.4081L132.465 0H129.873C129.877 0.13771 129.918 0.272154 129.99 0.391056C130.063 0.509959 130.165 0.609517 130.289 0.68065L172.352 24.8746L130.289 49.0629L86.9899 73.9652C86.8615 74.0394 86.7553 74.1441 86.6815 74.2691C86.6077 74.3942 86.5687 74.5354 86.5684 74.679V123.017L44.5803 98.8674C44.386 98.7643 44.1579 98.7367 43.943 98.7903C43.7282 98.8438 43.5429 98.9745 43.4256 99.1552C43.367 99.2481 43.3281 99.3512 43.3111 99.4586C43.2942 99.5661 43.2995 99.6756 43.3269 99.781C43.3543 99.8865 43.403 99.9857 43.4705 100.073C43.538 100.16 43.6228 100.234 43.7201 100.29L85.7832 124.484L43.7201 148.672L0.421429 173.574C0.293081 173.648 0.186897 173.753 0.113074 173.878C0.0392505 174.003 0.000292257 174.144 0 174.288V224.092C0 224.313 0.0912311 224.524 0.253632 224.679C0.416034 224.835 0.636302 224.923 0.865973 224.923C1.09564 224.923 1.31591 224.835 1.47831 224.679C1.64071 224.524 1.73195 224.313 1.73195 224.092V174.786L44.1646 150.382L86.5973 174.786V222.654L44.6092 198.504C44.4149 198.401 44.1867 198.373 43.9719 198.427C43.757 198.48 43.5718 198.611 43.4545 198.792C43.345 198.977 43.3146 199.196 43.3695 199.402C43.4243 199.608 43.5603 199.786 43.749 199.899L85.8121 224.092L43.6912 248.281C43.5938 248.337 43.5088 248.411 43.4413 248.499C43.3737 248.587 43.3249 248.686 43.2976 248.792C43.2702 248.898 43.2649 249.008 43.2819 249.116C43.299 249.224 43.338 249.327 43.3968 249.421C43.4733 249.543 43.5815 249.645 43.711 249.716C43.8404 249.787 43.9867 249.824 44.1357 249.825C44.2921 249.825 44.4456 249.785 44.5803 249.709L87.8789 224.806L130.727 200.164L172.346 224.098L130.289 248.281C130.191 248.337 130.106 248.411 130.039 248.499C129.971 248.587 129.922 248.686 129.895 248.792C129.868 248.898 129.862 249.008 129.879 249.116C129.896 249.224 129.935 249.327 129.994 249.421C130.071 249.543 130.179 249.645 130.308 249.716C130.438 249.787 130.584 249.824 130.733 249.825C130.89 249.826 131.044 249.783 131.178 249.703L173.166 225.559V273.897C173.166 274.04 173.205 274.18 173.279 274.305C173.353 274.429 173.459 274.532 173.587 274.605L216.886 299.507C216.941 299.536 216.999 299.56 217.059 299.579H217.099C217.167 299.597 217.237 299.606 217.307 299.607C217.377 299.607 217.447 299.598 217.515 299.579H217.55C217.604 299.564 217.656 299.544 217.706 299.519H217.746C217.8 299.487 217.85 299.45 217.896 299.408V299.408C217.945 299.361 217.987 299.309 218.023 299.253V299.253V299.214C218.041 299.184 218.056 299.153 218.069 299.12C218.073 299.096 218.073 299.072 218.069 299.048C218.069 299.021 218.069 298.993 218.069 298.965C218.072 298.936 218.072 298.906 218.069 298.877C218.072 298.86 218.072 298.843 218.069 298.827V249.022C218.07 248.878 218.032 248.737 217.958 248.612C217.884 248.486 217.777 248.382 217.648 248.308L175.59 224.12L217.203 200.186L259.636 224.59V273.897C259.636 273.897 259.636 273.963 259.636 273.991C259.636 274.019 259.636 274.041 259.636 274.063C259.643 274.091 259.653 274.119 259.665 274.146C259.665 274.146 259.665 274.19 259.665 274.218L259.711 274.29C259.722 274.313 259.736 274.335 259.751 274.356C259.767 274.378 259.784 274.398 259.803 274.417L259.861 274.478L259.919 274.522L259.994 274.578L286.221 289.663L286.412 287.754ZM88.3003 75.1771L129.867 51.2709V99.1386L88.3003 123.045V75.1771ZM87.4344 173.347L45.8215 149.413L87.4344 125.48L129.053 149.413L87.4344 173.347ZM129.867 198.748L88.3003 222.654V174.786L129.867 150.88V198.748ZM89.1201 124.484L130.733 100.55L172.352 124.484L130.733 148.417L89.1201 124.484ZM173.166 222.626L131.599 198.72V150.852L173.166 174.758V222.626ZM173.166 172.822L132.419 149.386L173.166 125.95V172.822ZM173.166 123.017L131.599 99.1109V51.2433L173.166 75.1494V123.017ZM132.419 49.7768L174.032 25.843L215.65 49.7768L174.032 73.7106L132.419 49.7768ZM216.464 51.2433V99.1109L174.898 123.017V75.1771L216.464 51.2433ZM216.464 249.465V297.333L174.898 273.427V225.559L216.464 249.465ZM174.898 222.626V175.754L215.65 199.19L174.898 222.626ZM216.464 197.724L174.898 173.818V125.95L216.464 149.856V197.724ZM175.717 124.484L217.775 100.29C217.903 100.217 218.01 100.114 218.084 99.9893C218.158 99.865 218.197 99.7243 218.196 99.5813V51.2433L259.763 75.1494V124.013L217.33 148.417L175.717 124.484ZM218.196 149.884L259.763 125.978V173.845L218.196 197.751V149.884Z" fill="#E6EDED" fill-opacity="0.1"/>
</svg>
