<svg width="375" height="77" viewBox="0 0 375 77" fill="none" xmlns="http://www.w3.org/2000/svg">
<path d="M-1.06089e-07 75.7212L-2.11858e-06 52.4242C-2.61991e-06 46.6208 3.92794 41.7453 9.23364 40.3833C10.2008 40.134 11.2136 40.0001 12.2583 40.0001L28.618 40.0001C28.9601 40.0001 29.2704 40.1478 29.4894 40.3833C29.6992 40.6049 29.827 40.9004 29.827 41.2282L29.827 64.5667C29.827 67.6785 27.3315 70.2086 24.2521 70.2086L7.2857 70.2086C6.92986 70.2086 6.6333 69.9131 6.6333 69.5437L6.6333 52.3642C6.6333 49.2524 9.12428 46.7223 12.2082 46.7223L21.0814 46.7223C21.6654 46.7223 22.1854 46.9578 22.5641 47.3456C22.9473 47.7334 23.1846 48.2598 23.1846 48.8507C23.1846 50.0188 22.2447 50.9653 21.0814 50.9653L12.199 50.9653C11.4372 50.9653 10.8259 51.5885 10.8259 52.355L10.8259 65.2962C10.8259 65.6563 11.1133 65.9656 11.4874 65.9656L24.2612 65.9656C25.014 65.9656 25.6298 65.3516 25.6298 64.5759L25.6298 44.9125C25.6298 44.5431 25.3287 44.243 24.9728 44.243L12.199 44.243C7.77381 44.243 4.18347 47.8766 4.18347 52.355L4.18347 71.4505C4.18347 72.1338 4.74008 72.6971 5.41071 72.6971L24.2521 72.6971C28.6819 72.6971 32.2722 69.0636 32.2722 64.5759L32.2722 42.0639C32.2813 41.5006 32.5186 40.9927 32.879 40.6326C32.9702 40.5403 33.0706 40.4572 33.1755 40.3833C33.5177 40.1386 33.9282 40.0001 34.3753 40.0001L374.994 40.0001L374.994 44.2708L36.4146 44.2707L36.4146 64.5436C36.4146 71.1827 31.2776 76.603 24.8132 76.9354C24.617 76.9446 24.4208 76.9492 24.2247 76.9492L1.2135 76.9493C0.547437 76.9493 -4.78596e-08 76.3952 -1.06089e-07 75.7212Z" fill="#E6EDED"/>
<path opacity="0.05" d="M31.0676 36.3542C30.405 36.3542 29.8678 36.8979 29.8678 37.5685C29.8678 38.2391 30.405 38.7827 31.0676 38.7827C31.7303 38.7827 32.2675 38.2391 32.2675 37.5685C32.2675 36.8979 31.7303 36.3542 31.0676 36.3542Z" fill="#DDE4E4"/>
<path opacity="0.05" d="M44.3877 36.3205C43.725 36.3205 43.1879 36.8642 43.1879 37.5348C43.1879 38.2054 43.725 38.749 44.3877 38.749C45.0503 38.749 45.5875 38.2054 45.5875 37.5348C45.5875 36.8642 45.0503 36.3205 44.3877 36.3205Z" fill="#DDE4E4"/>
<path opacity="0.05" d="M38.9786 12.4244L38.9786 34.8441C38.9786 36.026 39.9229 36.9817 41.0862 36.9817C42.2496 36.9817 43.1939 36.026 43.1939 34.8441L43.1939 32.7295L43.1939 12.3874C43.1939 7.89978 46.7888 4.26166 51.2186 4.26166L70.0828 4.26165C70.758 4.26165 71.31 4.81568 71.31 5.5036L71.31 24.6084C71.31 29.096 67.7196 32.7342 63.2853 32.7342L50.5023 32.7342C50.1419 32.7342 49.8454 32.4387 49.8454 32.0693L49.8454 12.3828C49.8454 11.6164 50.4567 10.9977 51.214 10.9977L64.0016 10.9977C64.3665 10.9977 64.6585 11.2978 64.6585 11.6626L64.6585 24.613C64.6585 25.3794 64.0472 26.0027 63.2899 26.0027L54.3938 26.0027C53.235 26.0027 52.2952 26.9538 52.2952 28.1311C52.2952 29.3038 53.235 30.2595 54.3938 30.2595L63.2807 30.2595C66.3601 30.2595 68.8602 27.7294 68.8602 24.6084L68.8602 7.41038C68.8602 7.04565 68.5682 6.74555 68.2032 6.74555L51.2232 6.74555C48.1438 6.74555 45.6438 9.27562 45.6438 12.3967L45.6438 25.9935L45.6438 35.7536C45.6438 36.4323 46.1866 36.9863 46.8618 36.9863L63.2305 36.9863C70.0098 36.9863 75.5026 31.4229 75.5026 24.5576L75.5026 1.24219C75.5026 0.558885 74.9551 0.000237504 74.2754 0.000237565L51.2505 0.000239627C44.4713 0.000240234 38.9786 5.56362 38.9786 12.429L38.9786 12.4244Z" fill="#DDE4E4"/>
<path opacity="0.05" d="M36.524 12.4473L36.524 34.867C36.524 36.049 35.5797 37.0047 34.4164 37.0047C33.253 37.0047 32.3087 36.049 32.3087 34.867L32.3087 32.7525L32.3087 12.4104C32.3087 7.92273 28.7137 4.2846 24.2839 4.2846L5.41974 4.2846C4.74455 4.2846 4.19257 4.83863 4.19257 5.52655L4.19257 24.6313C4.19257 29.119 7.78291 32.7571 12.2173 32.7571L25.0002 32.7571C25.3606 32.7571 25.6571 32.4616 25.6571 32.0923L25.6571 12.4058C25.6571 11.6393 25.0458 11.0207 24.2885 11.0207L11.501 11.0207C11.136 11.0207 10.8441 11.3208 10.8441 11.6855L10.8441 24.636C10.8441 25.4024 11.4554 26.0256 12.2127 26.0256L21.1088 26.0256C22.2675 26.0256 23.2073 26.9767 23.2073 28.154C23.2073 29.3267 22.2675 30.2824 21.1088 30.2824L12.2218 30.2824C9.14242 30.2824 6.6424 27.7524 6.6424 24.6313L6.6424 7.43334C6.6424 7.0686 6.93435 6.7685 7.29932 6.7685L24.2794 6.7685C27.3588 6.7685 29.8588 9.29857 29.8588 12.4196L29.8588 26.0164L29.8588 35.7766C29.8588 36.4552 29.3159 37.0093 28.6408 37.0093L12.272 37.0093C5.49274 37.0093 -1.49452e-05 31.4459 -1.55312e-05 24.5806L-1.75214e-05 1.26515C-1.75797e-05 0.581843 0.547461 0.0231958 1.22721 0.0231957L24.252 0.0231937C31.0313 0.0231931 36.524 5.58657 36.524 12.4519L36.524 12.4473Z" fill="#DDE4E4"/>
<path opacity="0.05" d="M38.9776 64.5749L38.9776 42.1552C38.9776 40.9733 39.9219 40.0176 41.0853 40.0176C42.2486 40.0176 43.1929 40.9733 43.1929 42.1552L43.1929 44.2697L43.1929 64.6119C43.1929 69.0995 46.7878 72.7376 51.2176 72.7376L70.0818 72.7376C70.757 72.7376 71.3091 72.1836 71.3091 71.4957L71.3091 52.3909C71.3091 47.9032 67.7187 44.2651 63.2843 44.2651L50.5013 44.2651C50.1409 44.2651 49.8444 44.5606 49.8444 44.9299L49.8444 64.6165C49.8444 65.3829 50.4558 66.0015 51.2131 66.0015L64.0006 66.0015C64.3656 66.0015 64.6575 65.7014 64.6575 65.3367L64.6575 52.3863C64.6575 51.6199 64.0462 50.9966 63.2889 50.9966L54.3928 50.9966C53.2341 50.9966 52.2943 50.0455 52.2943 48.8682C52.2943 47.6955 53.2341 46.7398 54.3928 46.7398L63.2797 46.7398C66.3592 46.7398 68.8592 49.2698 68.8592 52.3909L68.8592 69.5889C68.8592 69.9536 68.5672 70.2537 68.2023 70.2537L51.2222 70.2537C48.1428 70.2537 45.6428 67.7236 45.6428 64.6026L45.6428 51.0058L45.6428 41.2457C45.6428 40.567 46.1856 40.0129 46.8608 40.0129L63.2296 40.0129C70.0088 40.0129 75.5016 45.5763 75.5016 52.4417L75.5016 75.7571C75.5016 76.4404 74.9542 76.999 74.2744 76.999L51.2495 76.999C44.4703 76.999 38.9776 71.4356 38.9776 64.5703L38.9776 64.5749Z" fill="#DDE4E4"/>
</svg>
