<svg width="375" height="77" viewBox="0 0 375 77" fill="none" xmlns="http://www.w3.org/2000/svg">
<path d="M0.00622548 75.7719L0.00622347 52.475C0.00622297 46.6715 3.93417 41.7961 9.23987 40.4341C10.207 40.1848 11.2198 40.0509 12.2645 40.0509L28.6242 40.0509C28.9664 40.0509 29.2766 40.1986 29.4956 40.4341C29.7055 40.6557 29.8332 40.9512 29.8332 41.279L29.8332 64.6175C29.8332 67.7293 27.3377 70.2593 24.2583 70.2593L7.29193 70.2593C6.9361 70.2593 6.63953 69.9639 6.63953 69.5945L6.63952 52.415C6.63952 49.3032 9.13052 46.7731 12.2145 46.7731L21.0876 46.7731C21.6716 46.7731 22.1916 47.0086 22.5703 47.3964C22.9535 47.7842 23.1908 48.3105 23.1908 48.9015C23.1908 50.0696 22.251 51.016 21.0876 51.016L12.2053 51.016C11.4434 51.016 10.8321 51.6393 10.8321 52.4057L10.8321 65.3469C10.8321 65.7071 11.1195 66.0164 11.4936 66.0164L24.2675 66.0164C25.0202 66.0164 25.636 65.4023 25.636 64.6267L25.636 44.9633C25.636 44.5939 25.3349 44.2938 24.9791 44.2938L12.2053 44.2938C7.78003 44.2938 4.18969 47.9273 4.1897 52.4057L4.1897 71.5013C4.1897 72.1846 4.74631 72.7479 5.41693 72.7479L24.2583 72.7479C28.6881 72.7479 32.2784 69.1143 32.2784 64.6267L32.2784 42.1146C32.2875 41.5514 32.5248 41.0435 32.8852 40.6834C32.9764 40.5911 33.0768 40.508 33.1818 40.4341C33.5239 40.1894 33.9344 40.0509 34.3815 40.0509L375 40.0509L375 44.3216L36.4208 44.3215L36.4208 64.5944C36.4208 71.2335 31.2839 76.6538 24.8194 76.9862C24.6232 76.9954 24.4271 77 24.2309 77L1.21973 77C0.55365 77 0.00622554 76.446 0.00622548 75.7719Z" fill="#E6EDED"/>
<path opacity="0.4" d="M31.0677 36.3542C30.4051 36.3542 29.8679 36.8979 29.8679 37.5685C29.8679 38.2391 30.4051 38.7827 31.0677 38.7827C31.7304 38.7827 32.2676 38.2391 32.2676 37.5685C32.2676 36.8979 31.7304 36.3542 31.0677 36.3542Z" fill="#DDE4E4"/>
<path opacity="0.4" d="M38.9787 12.4244L38.9787 34.8441C38.9787 36.026 39.923 36.9817 41.0864 36.9817C42.2497 36.9817 43.194 36.026 43.194 34.8441L43.194 32.7295L43.194 12.3874C43.194 7.89978 46.7889 4.26166 51.2187 4.26166L70.0829 4.26165C70.7581 4.26165 71.3102 4.81568 71.3102 5.5036L71.3102 24.6084C71.3102 29.096 67.7198 32.7342 63.2854 32.7342L50.5024 32.7342C50.142 32.7342 49.8455 32.4387 49.8455 32.0693L49.8455 12.3828C49.8455 11.6164 50.4569 10.9977 51.2142 10.9977L64.0017 10.9977C64.3667 10.9977 64.6586 11.2978 64.6586 11.6626L64.6586 24.613C64.6586 25.3794 64.0473 26.0027 63.29 26.0027L54.3939 26.0027C53.2351 26.0027 52.2954 26.9538 52.2954 28.1311C52.2954 29.3038 53.2351 30.2595 54.3939 30.2595L63.2808 30.2595C66.3603 30.2595 68.8603 27.7294 68.8603 24.6084L68.8603 7.41038C68.8603 7.04565 68.5683 6.74555 68.2034 6.74555L51.2233 6.74555C48.1439 6.74555 45.6439 9.27562 45.6439 12.3967L45.6439 25.9935L45.6439 35.7536C45.6439 36.4323 46.1867 36.9863 46.8619 36.9863L63.2307 36.9863C70.0099 36.9863 75.5027 31.4229 75.5027 24.5576L75.5027 1.24219C75.5027 0.558884 74.9553 0.00023656 74.2755 0.000236621L51.2506 0.000238683C44.4714 0.00023929 38.9787 5.56362 38.9787 12.429L38.9787 12.4244Z" fill="#DDE4E4"/>
<path opacity="0.4" d="M38.9797 64.5756L38.9797 42.1559C38.9797 40.974 39.924 40.0183 41.0873 40.0183C42.2507 40.0183 43.195 40.974 43.195 42.1559L43.195 44.2705L43.195 64.6126C43.195 69.1002 46.7899 72.7383 51.2197 72.7383L70.0839 72.7383C70.7591 72.7383 71.3111 72.1843 71.3111 71.4964L71.3111 52.3916C71.3111 47.904 67.7207 44.2658 63.2864 44.2658L50.5034 44.2658C50.143 44.2658 49.8465 44.5613 49.8465 44.9307L49.8465 64.6172C49.8465 65.3836 50.4578 66.0023 51.2151 66.0023L64.0027 66.0023C64.3676 66.0023 64.6596 65.7022 64.6596 65.3374L64.6596 52.387C64.6596 51.6206 64.0483 50.9973 63.291 50.9973L54.3949 50.9973C53.2361 50.9973 52.2963 50.0462 52.2963 48.8689C52.2963 47.6962 53.2361 46.7405 54.3949 46.7405L63.2818 46.7405C66.3612 46.7405 68.8613 49.2706 68.8613 52.3916L68.8613 69.5896C68.8613 69.9544 68.5693 70.2545 68.2043 70.2545L51.2243 70.2545C48.1449 70.2545 45.6449 67.7244 45.6449 64.6033L45.6449 51.0065L45.6449 41.2464C45.6449 40.5677 46.1877 40.0137 46.8629 40.0137L63.2316 40.0137C70.0109 40.0137 75.5037 45.5771 75.5037 52.4424L75.5037 75.7578C75.5037 76.4411 74.9562 76.9998 74.2765 76.9998L51.2516 76.9998C44.4724 76.9998 38.9797 71.4364 38.9797 64.571L38.9797 64.5756Z" fill="#DDE4E4"/>
<path opacity="0.4" d="M36.5242 12.4473L36.5242 34.867C36.5242 36.049 35.5798 37.0047 34.4165 37.0047C33.2532 37.0047 32.3088 36.049 32.3088 34.867L32.3088 32.7525L32.3088 12.4104C32.3088 7.92273 28.7138 4.2846 24.2841 4.2846L5.41986 4.2846C4.74467 4.2846 4.19269 4.83863 4.19269 5.52655L4.19269 24.6313C4.19269 29.119 7.78303 32.7571 12.2174 32.7571L25.0003 32.7571C25.3607 32.7571 25.6573 32.4616 25.6573 32.0923L25.6573 12.4058C25.6573 11.6393 25.0459 11.0207 24.2886 11.0207L11.5011 11.0207C11.1361 11.0207 10.8442 11.3208 10.8442 11.6855L10.8442 24.636C10.8442 25.4024 11.4555 26.0256 12.2128 26.0256L21.1089 26.0256C22.2676 26.0256 23.2074 26.9767 23.2074 28.154C23.2074 29.3267 22.2676 30.2824 21.1089 30.2824L12.2219 30.2824C9.14254 30.2824 6.64253 27.7524 6.64253 24.6313L6.64252 7.43334C6.64252 7.0686 6.93447 6.7685 7.29944 6.7685L24.2795 6.7685C27.3589 6.7685 29.8589 9.29857 29.8589 12.4196L29.8589 26.0164L29.8589 35.7766C29.8589 36.4552 29.3161 37.0093 28.6409 37.0093L12.2721 37.0093C5.49287 37.0093 0.000106337 31.4459 0.000105751 24.5806L0.00010376 1.26515C0.000103702 0.581844 0.547585 0.0231966 1.22733 0.0231965L24.2522 0.0231945C31.0314 0.0231939 36.5242 5.58657 36.5242 12.4519L36.5242 12.4473Z" fill="#DDE4E4"/>
<path opacity="0.05" d="M38.9777 64.5749L38.9777 42.1552C38.9777 40.9733 39.9221 40.0176 41.0854 40.0176C42.2487 40.0176 43.1931 40.9733 43.1931 42.1552L43.1931 44.2697L43.1931 64.6119C43.1931 69.0995 46.788 72.7376 51.2178 72.7376L70.082 72.7376C70.7571 72.7376 71.3092 72.1836 71.3092 71.4957L71.3092 52.3909C71.3092 47.9032 67.7188 44.2651 63.2844 44.2651L50.5015 44.2651C50.1411 44.2651 49.8446 44.5606 49.8446 44.9299L49.8446 64.6165C49.8446 65.3829 50.4559 66.0015 51.2132 66.0015L64.0007 66.0015C64.3657 66.0015 64.6576 65.7014 64.6576 65.3367L64.6576 52.3863C64.6576 51.6199 64.0463 50.9966 63.289 50.9966L54.3929 50.9966C53.2342 50.9966 52.2944 50.0455 52.2944 48.8682C52.2944 47.6955 53.2342 46.7398 54.3929 46.7398L63.2799 46.7398C66.3593 46.7398 68.8593 49.2699 68.8593 52.3909L68.8593 69.5889C68.8593 69.9536 68.5673 70.2537 68.2024 70.2537L51.2223 70.2537C48.1429 70.2537 45.6429 67.7236 45.6429 64.6026L45.6429 51.0058L45.6429 41.2457C45.6429 40.567 46.1857 40.0129 46.8609 40.0129L63.2297 40.0129C70.0089 40.0129 75.5017 45.5763 75.5017 52.4417L75.5017 75.7571C75.5017 76.4404 74.9543 76.999 74.2745 76.999L51.2497 76.999C44.4704 76.999 38.9777 71.4356 38.9777 64.5703L38.9777 64.5749Z" fill="#DDE4E4"/>
</svg>
