<svg width="99" height="90" viewBox="0 0 99 90" fill="none" xmlns="http://www.w3.org/2000/svg">
<path d="M45.3005 72.2666H46.9672V73.9333H45.3005V72.2666ZM45.3005 75.5999H46.9672V77.2666H45.3005V75.5999ZM45.3005 78.9333H46.9672V80.5999H45.3005V78.9333ZM45.3005 82.2666H46.9672V83.9333H45.3005V82.2666ZM45.3005 85.5999H46.9672V87.2666H45.3005V85.5999Z" fill="url(#paint0_linear_813_4385)"/>
<path d="M45.3005 72.2666H46.9672V73.9333H45.3005V72.2666ZM45.3005 75.5999H46.9672V77.2666H45.3005V75.5999ZM45.3005 78.9333H46.9672V80.5999H45.3005V78.9333ZM45.3005 82.2666H46.9672V83.9333H45.3005V82.2666ZM45.3005 85.5999H46.9672V87.2666H45.3005V85.5999Z" fill="black" fill-opacity="0.2"/>
<path d="M97.8005 68.0999H95.3005V63.9333C95.3005 63.4723 94.9282 63.0999 94.4672 63.0999H91.9672V41.7782L95.5447 45.3557L96.723 44.1774L91.9672 39.4216V24.7666C91.9672 24.3056 91.5948 23.9332 91.1338 23.9332H85.3005C84.8395 23.9332 84.4672 24.3056 84.4672 24.7666V31.9216L72.5563 20.0107C72.479 19.9333 72.3871 19.8719 72.286 19.83C72.1849 19.7882 72.0766 19.7666 71.9672 19.7666C71.8577 19.7666 71.7494 19.7882 71.6483 19.83C71.5472 19.8719 71.4553 19.9333 71.378 20.0107L56.8916 34.4971C54.835 31.1657 51.1611 28.9332 46.9671 28.9332H45.3005C37.6676 28.9332 33.6338 32.9671 33.6338 40.5999C33.6338 40.6396 33.6508 40.6729 33.6566 40.7112C32.2113 41.0757 31.1338 42.3759 31.1338 43.9332V45.5999C31.1338 47.4456 32.1423 49.0569 33.6338 49.9234V65.3363L30.783 66.6866C26.4398 68.7438 23.6338 73.2236 23.6338 78.0999V89.7666H25.3005V78.0999C25.3005 73.8643 27.7321 69.9749 31.4958 68.1918L36.6286 65.7614L41.2738 72.7289C41.4196 72.9489 41.6605 73.1001 41.9223 73.1001H41.9673C42.214 73.1001 42.4491 72.9908 42.608 72.8006L46.1338 68.5688L49.6598 72.8006C49.7382 72.8944 49.8362 72.9698 49.9469 73.0215C50.0576 73.0733 50.1783 73.1001 50.3005 73.1001H50.3455C50.6071 73.1001 50.8481 72.9491 50.994 72.7289L55.7941 65.5284L61.2876 68.2758C64.8345 70.0479 67.6347 74.2874 67.8006 78.0999V89.7666H69.4673V78.0641C69.4673 76.9664 69.2655 75.8531 68.9035 74.7666H97.8005C98.2615 74.7666 98.6338 74.3943 98.6338 73.9333V68.9333C98.6338 68.4723 98.2615 68.0999 97.8005 68.0999ZM86.1338 32.2666H89.4672V30.5999H86.1338V28.9332H89.4672V27.2666H86.1338V25.5999H90.3005V37.7549L86.1338 33.5882V32.2666ZM71.9672 21.7782L90.7888 40.5999H58.6338C58.6352 39.0331 58.319 37.4823 57.7041 36.0412L71.9672 21.7782ZM66.1338 46.4332V63.0999H59.4671V49.3167C60.488 48.4001 61.1338 47.0766 61.1338 45.5999V43.9332C61.1338 43.3239 60.9573 42.7587 60.6703 42.2666H90.3005V63.0999H77.8005V46.4332H66.1338ZM76.1338 48.0999V63.0999H67.8005V48.0999H76.1338ZM45.3005 30.5999H46.9671C52.2008 30.5999 56.5081 34.6416 56.9333 39.7666H52.042C49.5185 39.7666 47.3845 37.9691 46.96 35.4892C46.9345 35.3009 46.8454 35.1269 46.7077 34.996C46.5699 34.8651 46.3915 34.7851 46.2021 34.7692C45.7821 34.7457 45.3838 35.0349 45.3121 35.4632C45.1146 36.6672 44.4949 37.7615 43.5639 38.5501C42.6329 39.3386 41.4515 39.7699 40.2315 39.7666H35.3193C35.5941 33.6832 38.949 30.5999 45.3005 30.5999ZM56.1338 45.5999C56.1338 51.7509 53.5153 58.9333 46.1338 58.9333C38.7523 58.9333 36.1338 51.7509 36.1338 45.5999C36.1345 44.1907 36.3308 42.7884 36.7171 41.4332H40.2315C42.7341 41.4332 44.9463 40.0934 46.1338 38.0361C47.3213 40.0927 49.5361 41.4332 52.042 41.4332H55.5505C55.9368 42.7884 56.1332 44.1907 56.1338 45.5999ZM34.6495 48.5746C33.5563 48.0271 32.8005 46.9026 32.8005 45.5999V43.9332C32.8005 43.0146 33.5485 42.2666 34.4671 42.2666H34.8063C34.5935 43.3376 34.4671 44.4502 34.4671 45.5999C34.4671 46.6364 34.5335 47.6246 34.6495 48.5746ZM35.3005 64.5459V51.8082C36.1311 54.6156 37.561 56.8441 39.4671 58.3577V62.5726L35.3005 64.5459ZM42.0413 70.8759L38.1506 65.0399L40.2145 64.0621L43.8838 66.6833L44.7848 67.5843L42.0413 70.8759ZM41.1338 62.6709V59.4319C42.6065 60.1891 44.2816 60.5999 46.1338 60.5999C48.3435 60.5999 50.3076 60.0269 51.9671 58.9632V63.0733L46.1891 66.2829L41.1338 62.6709ZM50.2263 70.8759L47.419 67.5061L53.2595 64.2613L54.2913 64.7769L50.2263 70.8759ZM57.8005 64.6683L53.6338 62.5849V57.6156C55.3981 55.8799 56.6645 53.4462 57.3096 50.4541C57.4763 50.4144 57.6403 50.3656 57.8005 50.3082V64.6683ZM57.6181 48.5746C57.7392 47.5876 57.8001 46.5942 57.8005 45.5999C57.8005 44.4502 57.6741 43.3376 57.4613 42.2666H57.8005C58.7191 42.2666 59.4671 43.0146 59.4671 43.9332V45.5999C59.4671 46.9026 58.7113 48.0271 57.6181 48.5746ZM64.1051 68.0999C63.4463 67.5914 62.7536 67.1443 62.0335 66.7848L59.4671 65.5016V64.7666H93.6338V68.0999H64.1051ZM96.9672 73.0999H68.2138C67.6155 71.8988 66.8265 70.7693 65.9085 69.7666H96.9672V73.0999Z" fill="url(#paint1_linear_813_4385)"/>
<path d="M97.8005 68.0999H95.3005V63.9333C95.3005 63.4723 94.9282 63.0999 94.4672 63.0999H91.9672V41.7782L95.5447 45.3557L96.723 44.1774L91.9672 39.4216V24.7666C91.9672 24.3056 91.5948 23.9332 91.1338 23.9332H85.3005C84.8395 23.9332 84.4672 24.3056 84.4672 24.7666V31.9216L72.5563 20.0107C72.479 19.9333 72.3871 19.8719 72.286 19.83C72.1849 19.7882 72.0766 19.7666 71.9672 19.7666C71.8577 19.7666 71.7494 19.7882 71.6483 19.83C71.5472 19.8719 71.4553 19.9333 71.378 20.0107L56.8916 34.4971C54.835 31.1657 51.1611 28.9332 46.9671 28.9332H45.3005C37.6676 28.9332 33.6338 32.9671 33.6338 40.5999C33.6338 40.6396 33.6508 40.6729 33.6566 40.7112C32.2113 41.0757 31.1338 42.3759 31.1338 43.9332V45.5999C31.1338 47.4456 32.1423 49.0569 33.6338 49.9234V65.3363L30.783 66.6866C26.4398 68.7438 23.6338 73.2236 23.6338 78.0999V89.7666H25.3005V78.0999C25.3005 73.8643 27.7321 69.9749 31.4958 68.1918L36.6286 65.7614L41.2738 72.7289C41.4196 72.9489 41.6605 73.1001 41.9223 73.1001H41.9673C42.214 73.1001 42.4491 72.9908 42.608 72.8006L46.1338 68.5688L49.6598 72.8006C49.7382 72.8944 49.8362 72.9698 49.9469 73.0215C50.0576 73.0733 50.1783 73.1001 50.3005 73.1001H50.3455C50.6071 73.1001 50.8481 72.9491 50.994 72.7289L55.7941 65.5284L61.2876 68.2758C64.8345 70.0479 67.6347 74.2874 67.8006 78.0999V89.7666H69.4673V78.0641C69.4673 76.9664 69.2655 75.8531 68.9035 74.7666H97.8005C98.2615 74.7666 98.6338 74.3943 98.6338 73.9333V68.9333C98.6338 68.4723 98.2615 68.0999 97.8005 68.0999ZM86.1338 32.2666H89.4672V30.5999H86.1338V28.9332H89.4672V27.2666H86.1338V25.5999H90.3005V37.7549L86.1338 33.5882V32.2666ZM71.9672 21.7782L90.7888 40.5999H58.6338C58.6352 39.0331 58.319 37.4823 57.7041 36.0412L71.9672 21.7782ZM66.1338 46.4332V63.0999H59.4671V49.3167C60.488 48.4001 61.1338 47.0766 61.1338 45.5999V43.9332C61.1338 43.3239 60.9573 42.7587 60.6703 42.2666H90.3005V63.0999H77.8005V46.4332H66.1338ZM76.1338 48.0999V63.0999H67.8005V48.0999H76.1338ZM45.3005 30.5999H46.9671C52.2008 30.5999 56.5081 34.6416 56.9333 39.7666H52.042C49.5185 39.7666 47.3845 37.9691 46.96 35.4892C46.9345 35.3009 46.8454 35.1269 46.7077 34.996C46.5699 34.8651 46.3915 34.7851 46.2021 34.7692C45.7821 34.7457 45.3838 35.0349 45.3121 35.4632C45.1146 36.6672 44.4949 37.7615 43.5639 38.5501C42.6329 39.3386 41.4515 39.7699 40.2315 39.7666H35.3193C35.5941 33.6832 38.949 30.5999 45.3005 30.5999ZM56.1338 45.5999C56.1338 51.7509 53.5153 58.9333 46.1338 58.9333C38.7523 58.9333 36.1338 51.7509 36.1338 45.5999C36.1345 44.1907 36.3308 42.7884 36.7171 41.4332H40.2315C42.7341 41.4332 44.9463 40.0934 46.1338 38.0361C47.3213 40.0927 49.5361 41.4332 52.042 41.4332H55.5505C55.9368 42.7884 56.1332 44.1907 56.1338 45.5999ZM34.6495 48.5746C33.5563 48.0271 32.8005 46.9026 32.8005 45.5999V43.9332C32.8005 43.0146 33.5485 42.2666 34.4671 42.2666H34.8063C34.5935 43.3376 34.4671 44.4502 34.4671 45.5999C34.4671 46.6364 34.5335 47.6246 34.6495 48.5746ZM35.3005 64.5459V51.8082C36.1311 54.6156 37.561 56.8441 39.4671 58.3577V62.5726L35.3005 64.5459ZM42.0413 70.8759L38.1506 65.0399L40.2145 64.0621L43.8838 66.6833L44.7848 67.5843L42.0413 70.8759ZM41.1338 62.6709V59.4319C42.6065 60.1891 44.2816 60.5999 46.1338 60.5999C48.3435 60.5999 50.3076 60.0269 51.9671 58.9632V63.0733L46.1891 66.2829L41.1338 62.6709ZM50.2263 70.8759L47.419 67.5061L53.2595 64.2613L54.2913 64.7769L50.2263 70.8759ZM57.8005 64.6683L53.6338 62.5849V57.6156C55.3981 55.8799 56.6645 53.4462 57.3096 50.4541C57.4763 50.4144 57.6403 50.3656 57.8005 50.3082V64.6683ZM57.6181 48.5746C57.7392 47.5876 57.8001 46.5942 57.8005 45.5999C57.8005 44.4502 57.6741 43.3376 57.4613 42.2666H57.8005C58.7191 42.2666 59.4671 43.0146 59.4671 43.9332V45.5999C59.4671 46.9026 58.7113 48.0271 57.6181 48.5746ZM64.1051 68.0999C63.4463 67.5914 62.7536 67.1443 62.0335 66.7848L59.4671 65.5016V64.7666H93.6338V68.0999H64.1051ZM96.9672 73.0999H68.2138C67.6155 71.8988 66.8265 70.7693 65.9085 69.7666H96.9672V73.0999Z" fill="black" fill-opacity="0.2"/>
<path d="M71.1349 24.7666H72.8016V32.2666H71.1349V24.7666ZM71.1349 37.2666H72.8016V38.9333H71.1349V37.2666ZM71.1349 33.9333H72.8016V35.5999H71.1349V33.9333ZM80.3016 56.4333H87.8016C88.2626 56.4333 88.6349 56.061 88.6349 55.6V47.2666C88.6349 46.8056 88.2626 46.4333 87.8016 46.4333H80.3016C79.8406 46.4333 79.4683 46.8056 79.4683 47.2666V55.6C79.4683 56.061 79.8406 56.4333 80.3016 56.4333ZM81.1349 48.0999H86.9683V54.7666H81.1349V48.0999ZM69.4683 54.7666H71.1349V56.4333H69.4683V54.7666Z" fill="url(#paint2_linear_813_4385)"/>
<path d="M71.1349 24.7666H72.8016V32.2666H71.1349V24.7666ZM71.1349 37.2666H72.8016V38.9333H71.1349V37.2666ZM71.1349 33.9333H72.8016V35.5999H71.1349V33.9333ZM80.3016 56.4333H87.8016C88.2626 56.4333 88.6349 56.061 88.6349 55.6V47.2666C88.6349 46.8056 88.2626 46.4333 87.8016 46.4333H80.3016C79.8406 46.4333 79.4683 46.8056 79.4683 47.2666V55.6C79.4683 56.061 79.8406 56.4333 80.3016 56.4333ZM81.1349 48.0999H86.9683V54.7666H81.1349V48.0999ZM69.4683 54.7666H71.1349V56.4333H69.4683V54.7666Z" fill="black" fill-opacity="0.2"/>
<path d="M27.4018 32.333C26.8641 32.333 26.3384 32.1736 25.8912 31.8748C25.4441 31.576 25.0956 31.1514 24.8898 30.6545C24.684 30.1577 24.6301 29.611 24.735 29.0836C24.84 28.5561 25.0989 28.0716 25.4792 27.6914C25.8594 27.3111 26.3439 27.0522 26.8714 26.9472C27.3988 26.8423 27.9455 26.8962 28.4423 27.102C28.9392 27.3078 29.3638 27.6563 29.6626 28.1034C29.9614 28.5506 30.1208 29.0762 30.1208 29.614C30.1208 30.3352 29.8344 31.0267 29.3245 31.5367C28.8145 32.0466 28.123 32.333 27.4018 32.333ZM27.4018 28.7077C27.2226 28.7077 27.0473 28.7608 26.8983 28.8604C26.7492 28.96 26.6331 29.1016 26.5645 29.2672C26.4959 29.4328 26.4779 29.615 26.5129 29.7908C26.5479 29.9667 26.6342 30.1281 26.7609 30.2549C26.8877 30.3817 27.0492 30.468 27.225 30.5029C27.4008 30.5379 27.5831 30.52 27.7487 30.4514C27.9143 30.3828 28.0558 30.2666 28.1554 30.1176C28.255 29.9685 28.3082 29.7933 28.3082 29.614C28.3082 29.3736 28.2127 29.1431 28.0427 28.9731C27.8727 28.8032 27.6422 28.7077 27.4018 28.7077ZM17.4321 22.3633C17.4321 21.6463 17.6447 20.9453 18.043 20.3491C18.4414 19.7529 19.0076 19.2883 19.6701 19.0139C20.3325 18.7395 21.0614 18.6677 21.7647 18.8076C22.468 18.9475 23.1139 19.2927 23.6209 19.7998C24.128 20.3068 24.4733 20.9528 24.6131 21.656C24.753 22.3593 24.6812 23.0882 24.4068 23.7507C24.1324 24.4131 23.6678 24.9793 23.0716 25.3777C22.4754 25.776 21.7745 25.9887 21.0574 25.9887C20.0959 25.9887 19.1738 25.6067 18.4939 24.9268C17.814 24.2469 17.4321 23.3248 17.4321 22.3633ZM22.8701 22.3633C22.8701 22.0048 22.7638 21.6543 22.5646 21.3562C22.3654 21.0581 22.0823 20.8258 21.7511 20.6886C21.4199 20.5514 21.0554 20.5155 20.7038 20.5854C20.3522 20.6554 20.0292 20.828 19.7757 21.0815C19.5222 21.335 19.3495 21.658 19.2796 22.0096C19.2096 22.3613 19.2455 22.7257 19.3827 23.057C19.5199 23.3882 19.7523 23.6713 20.0504 23.8705C20.3484 24.0697 20.6989 24.176 21.0574 24.176C21.5382 24.176 21.9992 23.985 22.3392 23.645C22.6791 23.3051 22.8701 22.844 22.8701 22.3633ZM6.55595 3.3301C7.06297 3.32984 7.56887 3.37779 8.06682 3.4733C8.70582 2.55216 9.56675 1.807 10.57 1.30671C11.5733 0.806429 12.6865 0.567175 13.8067 0.611071C14.9269 0.567175 16.0401 0.806429 17.0434 1.30671C18.0466 1.807 18.9076 2.55216 19.5466 3.4733C20.0445 3.37779 20.5504 3.32984 21.0574 3.3301C24.555 3.3301 27.4018 5.56604 27.4018 8.31498C27.4007 8.77876 27.3188 9.23881 27.1598 9.67449C27.3188 10.1102 27.4007 10.5702 27.4018 11.034C27.4018 13.7829 24.555 16.0189 21.0574 16.0189C20.5504 16.0191 20.0445 15.9712 19.5466 15.8757C18.9076 16.7968 18.0466 17.542 17.0434 18.0423C16.0401 18.5426 14.9269 18.7818 13.8067 18.7379C12.6865 18.7818 11.5733 18.5426 10.57 18.0423C9.56675 17.542 8.70582 16.7968 8.06682 15.8757C7.56887 15.9712 7.06297 16.0191 6.55595 16.0189C3.05838 16.0189 0.211557 13.7829 0.211557 11.034C0.212681 10.5702 0.294567 10.1102 0.453548 9.67449C0.294567 9.23881 0.212681 8.77876 0.211557 8.31498C0.211557 5.56604 3.05838 3.3301 6.55595 3.3301ZM2.25354 10.0615C2.1059 10.3646 2.02757 10.6968 2.02424 11.034C2.02424 12.7561 4.09976 14.2062 6.55595 14.2062C7.14791 14.2072 7.73686 14.122 8.30429 13.9533C8.526 13.8872 8.76459 13.9084 8.97118 14.0126C9.17778 14.1167 9.33672 14.2959 9.41546 14.5135C9.93026 15.9337 11.7357 16.9252 13.8067 16.9252C15.8777 16.9252 17.6831 15.9337 18.1979 14.5135C18.2612 14.3383 18.377 14.1869 18.5295 14.0798C18.6819 13.9728 18.8636 13.9153 19.0499 13.9153C19.1377 13.915 19.2251 13.9278 19.3091 13.9533C19.8765 14.122 20.4655 14.2072 21.0574 14.2062C23.5136 14.2062 25.5891 12.7561 25.5891 11.034C25.5858 10.6968 25.5075 10.3646 25.3598 10.0615C25.3027 9.94049 25.2731 9.80832 25.2731 9.67449C25.2731 9.54067 25.3027 9.4085 25.3598 9.28749C25.5075 8.98435 25.5858 8.65215 25.5891 8.31498C25.5891 6.59293 23.5136 5.14278 21.0574 5.14278C20.4655 5.1418 19.8765 5.22698 19.3091 5.39565C19.0874 5.46175 18.8488 5.44056 18.6422 5.33642C18.4356 5.23228 18.2767 5.05308 18.1979 4.83553C17.6831 3.41529 15.8777 2.42376 13.8067 2.42376C11.7357 2.42376 9.93026 3.41529 9.41546 4.83553C9.33672 5.05308 9.17778 5.23228 8.97118 5.33642C8.76459 5.44056 8.526 5.46175 8.30429 5.39565C7.73686 5.22698 7.14791 5.1418 6.55595 5.14278C4.09976 5.14278 2.02424 6.59293 2.02424 8.31498C2.02757 8.65215 2.1059 8.98435 2.25354 9.28749C2.31069 9.4085 2.34033 9.54067 2.34033 9.67449C2.34033 9.80832 2.31069 9.94049 2.25354 10.0615Z" fill="url(#paint3_linear_813_4385)"/>
<path d="M27.4018 32.333C26.8641 32.333 26.3384 32.1736 25.8912 31.8748C25.4441 31.576 25.0956 31.1514 24.8898 30.6545C24.684 30.1577 24.6301 29.611 24.735 29.0836C24.84 28.5561 25.0989 28.0716 25.4792 27.6914C25.8594 27.3111 26.3439 27.0522 26.8714 26.9472C27.3988 26.8423 27.9455 26.8962 28.4423 27.102C28.9392 27.3078 29.3638 27.6563 29.6626 28.1034C29.9614 28.5506 30.1208 29.0762 30.1208 29.614C30.1208 30.3352 29.8344 31.0267 29.3245 31.5367C28.8145 32.0466 28.123 32.333 27.4018 32.333ZM27.4018 28.7077C27.2226 28.7077 27.0473 28.7608 26.8983 28.8604C26.7492 28.96 26.6331 29.1016 26.5645 29.2672C26.4959 29.4328 26.4779 29.615 26.5129 29.7908C26.5479 29.9667 26.6342 30.1281 26.7609 30.2549C26.8877 30.3817 27.0492 30.468 27.225 30.5029C27.4008 30.5379 27.5831 30.52 27.7487 30.4514C27.9143 30.3828 28.0558 30.2666 28.1554 30.1176C28.255 29.9685 28.3082 29.7933 28.3082 29.614C28.3082 29.3736 28.2127 29.1431 28.0427 28.9731C27.8727 28.8032 27.6422 28.7077 27.4018 28.7077ZM17.4321 22.3633C17.4321 21.6463 17.6447 20.9453 18.043 20.3491C18.4414 19.7529 19.0076 19.2883 19.6701 19.0139C20.3325 18.7395 21.0614 18.6677 21.7647 18.8076C22.468 18.9475 23.1139 19.2927 23.6209 19.7998C24.128 20.3068 24.4733 20.9528 24.6131 21.656C24.753 22.3593 24.6812 23.0882 24.4068 23.7507C24.1324 24.4131 23.6678 24.9793 23.0716 25.3777C22.4754 25.776 21.7745 25.9887 21.0574 25.9887C20.0959 25.9887 19.1738 25.6067 18.4939 24.9268C17.814 24.2469 17.4321 23.3248 17.4321 22.3633ZM22.8701 22.3633C22.8701 22.0048 22.7638 21.6543 22.5646 21.3562C22.3654 21.0581 22.0823 20.8258 21.7511 20.6886C21.4199 20.5514 21.0554 20.5155 20.7038 20.5854C20.3522 20.6554 20.0292 20.828 19.7757 21.0815C19.5222 21.335 19.3495 21.658 19.2796 22.0096C19.2096 22.3613 19.2455 22.7257 19.3827 23.057C19.5199 23.3882 19.7523 23.6713 20.0504 23.8705C20.3484 24.0697 20.6989 24.176 21.0574 24.176C21.5382 24.176 21.9992 23.985 22.3392 23.645C22.6791 23.3051 22.8701 22.844 22.8701 22.3633ZM6.55595 3.3301C7.06297 3.32984 7.56887 3.37779 8.06682 3.4733C8.70582 2.55216 9.56675 1.807 10.57 1.30671C11.5733 0.806429 12.6865 0.567175 13.8067 0.611071C14.9269 0.567175 16.0401 0.806429 17.0434 1.30671C18.0466 1.807 18.9076 2.55216 19.5466 3.4733C20.0445 3.37779 20.5504 3.32984 21.0574 3.3301C24.555 3.3301 27.4018 5.56604 27.4018 8.31498C27.4007 8.77876 27.3188 9.23881 27.1598 9.67449C27.3188 10.1102 27.4007 10.5702 27.4018 11.034C27.4018 13.7829 24.555 16.0189 21.0574 16.0189C20.5504 16.0191 20.0445 15.9712 19.5466 15.8757C18.9076 16.7968 18.0466 17.542 17.0434 18.0423C16.0401 18.5426 14.9269 18.7818 13.8067 18.7379C12.6865 18.7818 11.5733 18.5426 10.57 18.0423C9.56675 17.542 8.70582 16.7968 8.06682 15.8757C7.56887 15.9712 7.06297 16.0191 6.55595 16.0189C3.05838 16.0189 0.211557 13.7829 0.211557 11.034C0.212681 10.5702 0.294567 10.1102 0.453548 9.67449C0.294567 9.23881 0.212681 8.77876 0.211557 8.31498C0.211557 5.56604 3.05838 3.3301 6.55595 3.3301ZM2.25354 10.0615C2.1059 10.3646 2.02757 10.6968 2.02424 11.034C2.02424 12.7561 4.09976 14.2062 6.55595 14.2062C7.14791 14.2072 7.73686 14.122 8.30429 13.9533C8.526 13.8872 8.76459 13.9084 8.97118 14.0126C9.17778 14.1167 9.33672 14.2959 9.41546 14.5135C9.93026 15.9337 11.7357 16.9252 13.8067 16.9252C15.8777 16.9252 17.6831 15.9337 18.1979 14.5135C18.2612 14.3383 18.377 14.1869 18.5295 14.0798C18.6819 13.9728 18.8636 13.9153 19.0499 13.9153C19.1377 13.915 19.2251 13.9278 19.3091 13.9533C19.8765 14.122 20.4655 14.2072 21.0574 14.2062C23.5136 14.2062 25.5891 12.7561 25.5891 11.034C25.5858 10.6968 25.5075 10.3646 25.3598 10.0615C25.3027 9.94049 25.2731 9.80832 25.2731 9.67449C25.2731 9.54067 25.3027 9.4085 25.3598 9.28749C25.5075 8.98435 25.5858 8.65215 25.5891 8.31498C25.5891 6.59293 23.5136 5.14278 21.0574 5.14278C20.4655 5.1418 19.8765 5.22698 19.3091 5.39565C19.0874 5.46175 18.8488 5.44056 18.6422 5.33642C18.4356 5.23228 18.2767 5.05308 18.1979 4.83553C17.6831 3.41529 15.8777 2.42376 13.8067 2.42376C11.7357 2.42376 9.93026 3.41529 9.41546 4.83553C9.33672 5.05308 9.17778 5.23228 8.97118 5.33642C8.76459 5.44056 8.526 5.46175 8.30429 5.39565C7.73686 5.22698 7.14791 5.1418 6.55595 5.14278C4.09976 5.14278 2.02424 6.59293 2.02424 8.31498C2.02757 8.65215 2.1059 8.98435 2.25354 9.28749C2.31069 9.4085 2.34033 9.54067 2.34033 9.67449C2.34033 9.80832 2.31069 9.94049 2.25354 10.0615Z" fill="black" fill-opacity="0.2"/>
<path d="M10.1814 7.85645H11.9941V9.66913H10.1814V7.85645ZM13.8068 7.85645H15.6194V9.66913H13.8068V7.85645ZM17.4321 7.85645H19.2448V9.66913H17.4321V7.85645Z" fill="url(#paint4_linear_813_4385)"/>
<path d="M10.1814 7.85645H11.9941V9.66913H10.1814V7.85645ZM13.8068 7.85645H15.6194V9.66913H13.8068V7.85645ZM17.4321 7.85645H19.2448V9.66913H17.4321V7.85645Z" fill="black" fill-opacity="0.2"/>
<defs>
<linearGradient id="paint0_linear_813_4385" x1="45.3544" y1="73.4204" x2="47.7172" y2="73.6149" gradientUnits="userSpaceOnUse">
<stop offset="0.03125" stop-color="#003B40"/>
<stop offset="0.265625" stop-color="#005961"/>
<stop offset="0.509791" stop-color="#00818C"/>
<stop offset="0.760417" stop-color="#005961"/>
<stop offset="0.994792" stop-color="#003B40"/>
</linearGradient>
<linearGradient id="paint1_linear_813_4385" x1="26.0565" y1="25.1512" x2="91.7487" y2="77.2723" gradientUnits="userSpaceOnUse">
<stop offset="0.03125" stop-color="#003B40"/>
<stop offset="0.265625" stop-color="#005961"/>
<stop offset="0.509791" stop-color="#00818C"/>
<stop offset="0.760417" stop-color="#005961"/>
<stop offset="0.994792" stop-color="#003B40"/>
</linearGradient>
<linearGradient id="paint2_linear_813_4385" x1="70.0874" y1="27.2025" x2="92.8673" y2="37.4126" gradientUnits="userSpaceOnUse">
<stop offset="0.03125" stop-color="#003B40"/>
<stop offset="0.265625" stop-color="#005961"/>
<stop offset="0.509791" stop-color="#00818C"/>
<stop offset="0.760417" stop-color="#005961"/>
<stop offset="0.994792" stop-color="#003B40"/>
</linearGradient>
<linearGradient id="paint3_linear_813_4385" x1="29.1547" y1="3.0465" x2="0.453051" y2="23.0829" gradientUnits="userSpaceOnUse">
<stop offset="0.03125" stop-color="#003B40"/>
<stop offset="0.265625" stop-color="#005961"/>
<stop offset="0.509791" stop-color="#00818C"/>
<stop offset="0.760417" stop-color="#005961"/>
<stop offset="0.994792" stop-color="#003B40"/>
</linearGradient>
<linearGradient id="paint4_linear_813_4385" x1="10.4742" y1="7.99588" x2="11.3536" y2="11.2521" gradientUnits="userSpaceOnUse">
<stop offset="0.03125" stop-color="#003B40"/>
<stop offset="0.265625" stop-color="#005961"/>
<stop offset="0.509791" stop-color="#00818C"/>
<stop offset="0.760417" stop-color="#005961"/>
<stop offset="0.994792" stop-color="#003B40"/>
</linearGradient>
</defs>
</svg>
