<svg width="1530" height="95" viewBox="0 0 1530 95" fill="none" xmlns="http://www.w3.org/2000/svg">
<path d="M1530 0V32.845C1530 31.75 1529.1 30.85 1528.01 30.85H1490.18C1489.85 30.85 1489.53 30.8575 1489.21 30.8725C1478.58 31.4125 1470.14 40.2175 1470.14 51.0025V83.935H0V0H1530Z" fill="#002D31"/>
<path d="M1530 32.8446V70.6896C1530 80.1171 1523.54 88.0371 1514.82 90.2496C1513.23 90.6546 1511.57 90.8721 1509.85 90.8721H1482.95C1482.39 90.8721 1481.88 90.6321 1481.52 90.2496C1481.18 89.8896 1480.96 89.4096 1480.96 88.8771V50.9646C1480.96 45.9096 1485.07 41.7996 1490.13 41.7996H1518.02C1518.61 41.7996 1519.09 42.2796 1519.09 42.8796V70.7871C1519.09 75.8421 1515 79.9521 1509.93 79.9521H1495.34C1494.38 79.9521 1493.53 79.5696 1492.91 78.9396C1492.28 78.3096 1491.89 77.4546 1491.89 76.4946C1491.89 74.5971 1493.43 73.0596 1495.34 73.0596H1509.95C1511.2 73.0596 1512.2 72.0471 1512.2 70.8021V49.7796C1512.2 49.1946 1511.73 48.6921 1511.11 48.6921H1490.11C1488.88 48.6921 1487.86 49.6896 1487.86 50.9496V82.8921C1487.86 83.4921 1488.36 83.9796 1488.95 83.9796H1509.95C1517.22 83.9796 1523.12 78.0771 1523.12 70.8021V39.7821C1523.12 38.6721 1522.21 37.7571 1521.1 37.7571H1490.13C1482.85 37.7571 1476.95 43.6596 1476.95 50.9496V87.5196C1476.93 88.4346 1476.54 89.2596 1475.95 89.8446C1475.8 89.9946 1475.63 90.1296 1475.46 90.2496C1474.9 90.6471 1474.22 90.8721 1473.49 90.8721H0V83.9346H1470.14V51.0021C1470.14 40.2171 1478.58 31.4121 1489.21 30.8721C1489.53 30.8571 1489.85 30.8496 1490.18 30.8496H1528.01C1529.1 30.8496 1530 31.7496 1530 32.8446Z" fill="#E6EDED"/>
<path opacity="0.4" d="M1478.93 94.7497C1480.02 94.7497 1480.9 93.8666 1480.9 92.7772C1480.9 91.6878 1480.02 90.8047 1478.93 90.8047C1477.84 90.8047 1476.96 91.6878 1476.96 92.7772C1476.96 93.8666 1477.84 94.7497 1478.93 94.7497Z" fill="#DDE4E4"/>
<path opacity="0.4" d="M1457.33 92.7497C1458.42 92.7497 1459.3 91.8666 1459.3 90.7772C1459.3 89.6878 1458.42 88.8047 1457.33 88.8047C1456.24 88.8047 1455.36 89.6878 1455.36 90.7772C1455.36 91.8666 1456.24 92.7497 1457.33 92.7497Z" fill="#DDE4E4"/>
<path opacity="0.05" d="M1465.93 50.2596V86.6796C1465.93 88.5996 1464.37 90.1522 1462.46 90.1522C1460.55 90.1522 1459 88.5996 1459 86.6796V83.2446V50.1996C1459 42.9096 1453.09 36.9996 1445.8 36.9996H1414.79C1413.68 36.9996 1412.77 37.8996 1412.77 39.0171V70.0521C1412.77 77.3421 1418.68 83.2521 1425.97 83.2521H1446.98C1447.57 83.2521 1448.06 82.7722 1448.06 82.1722V50.1921C1448.06 48.9471 1447.06 47.9421 1445.81 47.9421H1424.79C1424.19 47.9421 1423.71 48.4296 1423.71 49.0221V70.0597C1423.71 71.3046 1424.71 72.3171 1425.96 72.3171H1440.58C1442.49 72.3171 1444.03 73.8621 1444.03 75.7746C1444.03 77.6796 1442.49 79.2321 1440.58 79.2321H1425.97C1420.91 79.2321 1416.8 75.1221 1416.8 70.0521V42.1146C1416.8 41.5221 1417.28 41.0346 1417.88 41.0346H1445.8C1450.86 41.0346 1454.97 45.1446 1454.97 50.2146V72.3021V88.1572C1454.97 89.2597 1454.08 90.1596 1452.97 90.1596H1426.06C1414.91 90.1596 1405.88 81.1221 1405.88 69.9696V32.0946C1405.88 30.9846 1406.78 30.0771 1407.9 30.0771H1445.75C1456.9 30.0771 1465.93 39.1146 1465.93 50.2672V50.2596Z" fill="#DDE4E4"/>
</svg>
