<svg width="69" height="69" viewBox="0 0 69 69" fill="none" xmlns="http://www.w3.org/2000/svg">
<path d="M64.1852 57.5744C64.0464 56.5373 63.6965 55.5397 63.1571 54.6431V29.0384H67.5321C67.7582 29.0375 67.9784 28.9666 68.1626 28.8353C68.3467 28.7041 68.4856 28.519 68.5602 28.3056C68.6346 28.0919 68.6409 27.8604 68.5782 27.6429C68.5156 27.4255 68.387 27.2328 68.2102 27.0915L35.3977 0.841549C35.2046 0.688961 34.9657 0.605957 34.7196 0.605957C34.4735 0.605957 34.2346 0.688961 34.0415 0.841549L1.22896 27.0915C1.05219 27.2328 0.923602 27.4255 0.860916 27.6429C0.79823 27.8604 0.804533 28.0919 0.878957 28.3056C0.953567 28.519 1.09249 28.7041 1.27661 28.8353C1.46072 28.9666 1.68098 29.0375 1.90708 29.0384H6.28208V54.6431C5.74268 55.5397 5.39277 56.5373 5.25396 57.5744C3.91827 57.8313 2.72625 58.5767 1.91058 59.6652C1.09491 60.7536 0.714134 62.107 0.842575 63.4611C0.971016 64.8152 1.59946 66.0728 2.60523 66.9885C3.611 67.9042 4.92191 68.4122 6.28208 68.4134H63.1571C64.5173 68.4122 65.8282 67.9042 66.8339 66.9885C67.8397 66.0728 68.4681 64.8152 68.5966 63.4611C68.725 62.107 68.3442 60.7536 67.5286 59.6652C66.7129 58.5767 65.5209 57.8313 64.1852 57.5744ZM34.7196 3.09467L64.4149 26.8509H5.02427L34.7196 3.09467ZM60.9696 29.0384V52.3025C60.3047 51.8214 59.5659 51.452 58.7821 51.2087V32.3197C58.7821 32.0296 58.6668 31.7514 58.4617 31.5463C58.2566 31.3412 57.9784 31.2259 57.6883 31.2259H11.7508C11.4608 31.2259 11.1826 31.3412 10.9774 31.5463C10.7723 31.7514 10.6571 32.0296 10.6571 32.3197V51.2306C9.8733 51.4738 9.13443 51.8433 8.46958 52.3244V29.0384H60.9696ZM49.0149 57.4759H47.8446V52.0072C47.8446 51.7171 47.7293 51.4389 47.5242 51.2338C47.3191 51.0287 47.0409 50.9134 46.7508 50.9134H38.0008V49.8197H39.0946C39.9648 49.8197 40.7994 49.474 41.4148 48.8586C42.0301 48.2433 42.3758 47.4087 42.3758 46.5384V42.1634C42.3758 41.2932 42.0301 40.4586 41.4148 39.8432C40.7994 39.2279 39.9648 38.8822 39.0946 38.8822H30.3446C29.4743 38.8822 28.6397 39.2279 28.0244 39.8432C27.409 40.4586 27.0633 41.2932 27.0633 42.1634V46.5384C27.0633 47.4087 27.409 48.2433 28.0244 48.8586C28.6397 49.474 29.4743 49.8197 30.3446 49.8197H31.4383V50.9134H22.6883C22.3983 50.9134 22.1201 51.0287 21.9149 51.2338C21.7098 51.4389 21.5946 51.7171 21.5946 52.0072V57.4759H20.4243C20.1612 55.6534 19.2501 53.9868 17.858 52.7814C16.4659 51.5761 14.686 50.913 12.8446 50.9134V33.4134H56.5946V50.9134C54.7532 50.913 52.9733 51.5761 51.5812 52.7814C50.189 53.9868 49.278 55.6534 49.0149 57.4759ZM24.7665 64.0384H44.6727C44.8291 64.8333 45.1659 65.5817 45.6571 66.2259H23.7821C24.2733 65.5817 24.61 64.8333 24.7665 64.0384ZM44.6836 61.8509H24.7555C24.5987 61.0581 24.2661 60.3106 23.7821 59.6634H45.6571C45.1731 60.3106 44.8404 61.0581 44.6836 61.8509ZM30.3446 47.6322C30.0545 47.6322 29.7763 47.5169 29.5712 47.3118C29.3661 47.1067 29.2508 46.8285 29.2508 46.5384V42.1634C29.2508 41.8733 29.3661 41.5951 29.5712 41.39C29.7763 41.1849 30.0545 41.0697 30.3446 41.0697H39.0946C39.3847 41.0697 39.6629 41.1849 39.868 41.39C40.0731 41.5951 40.1883 41.8733 40.1883 42.1634V46.5384C40.1883 46.8285 40.0731 47.1067 39.868 47.3118C39.6629 47.5169 39.3847 47.6322 39.0946 47.6322H30.3446ZM35.8133 49.8197V50.9134H33.6258V49.8197H35.8133ZM45.6571 53.1009V57.4759H23.7821V53.1009H45.6571ZM18.3133 66.2259H6.28208C5.41184 66.2259 4.57724 65.8802 3.96189 65.2649C3.34653 64.6495 3.00083 63.8149 3.00083 62.9447C3.00083 62.0744 3.34653 61.2398 3.96189 60.6245C4.57724 60.0091 5.41184 59.6634 6.28208 59.6634C6.57216 59.6634 6.85036 59.5482 7.05548 59.3431C7.2606 59.138 7.37583 58.8598 7.37583 58.5697C7.37583 57.1193 7.952 55.7283 8.97759 54.7027C10.0032 53.6771 11.3942 53.1009 12.8446 53.1009C14.295 53.1009 15.686 53.6771 16.7116 54.7027C17.7372 55.7283 18.3133 57.1193 18.3133 58.5697C18.3133 58.8598 18.4286 59.138 18.6337 59.3431C18.8388 59.5482 19.117 59.6634 19.4071 59.6634C20.2773 59.6634 21.1119 60.0091 21.7273 60.6245C22.3426 61.2398 22.6883 62.0744 22.6883 62.9447C22.6883 63.8149 22.3426 64.6495 21.7273 65.2649C21.1119 65.8802 20.2773 66.2259 19.4071 66.2259H18.3133ZM63.1571 66.2259H50.0321C49.1618 66.2259 48.3272 65.8802 47.7119 65.2649C47.0965 64.6495 46.7508 63.8149 46.7508 62.9447C46.7508 62.0744 47.0965 61.2398 47.7119 60.6245C48.3272 60.0091 49.1618 59.6634 50.0321 59.6634C50.3222 59.6634 50.6004 59.5482 50.8055 59.3431C51.0106 59.138 51.1258 58.8598 51.1258 58.5697C51.1258 57.1193 51.702 55.7283 52.7276 54.7027C53.7532 53.6771 55.1442 53.1009 56.5946 53.1009C58.045 53.1009 59.436 53.6771 60.4616 54.7027C61.4872 55.7283 62.0633 57.1193 62.0633 58.5697C62.0633 58.8598 62.1786 59.138 62.3837 59.3431C62.5888 59.5482 62.867 59.6634 63.1571 59.6634C64.0273 59.6634 64.8619 60.0091 65.4773 60.6245C66.0926 61.2398 66.4383 62.0744 66.4383 62.9447C66.4383 63.8149 66.0926 64.6495 65.4773 65.2649C64.8619 65.8802 64.0273 66.2259 63.1571 66.2259Z" fill="url(#paint0_linear_1310_10975)"/>
<path d="M64.1852 57.5744C64.0464 56.5373 63.6965 55.5397 63.1571 54.6431V29.0384H67.5321C67.7582 29.0375 67.9784 28.9666 68.1626 28.8353C68.3467 28.7041 68.4856 28.519 68.5602 28.3056C68.6346 28.0919 68.6409 27.8604 68.5782 27.6429C68.5156 27.4255 68.387 27.2328 68.2102 27.0915L35.3977 0.841549C35.2046 0.688961 34.9657 0.605957 34.7196 0.605957C34.4735 0.605957 34.2346 0.688961 34.0415 0.841549L1.22896 27.0915C1.05219 27.2328 0.923602 27.4255 0.860916 27.6429C0.79823 27.8604 0.804533 28.0919 0.878957 28.3056C0.953567 28.519 1.09249 28.7041 1.27661 28.8353C1.46072 28.9666 1.68098 29.0375 1.90708 29.0384H6.28208V54.6431C5.74268 55.5397 5.39277 56.5373 5.25396 57.5744C3.91827 57.8313 2.72625 58.5767 1.91058 59.6652C1.09491 60.7536 0.714134 62.107 0.842575 63.4611C0.971016 64.8152 1.59946 66.0728 2.60523 66.9885C3.611 67.9042 4.92191 68.4122 6.28208 68.4134H63.1571C64.5173 68.4122 65.8282 67.9042 66.8339 66.9885C67.8397 66.0728 68.4681 64.8152 68.5966 63.4611C68.725 62.107 68.3442 60.7536 67.5286 59.6652C66.7129 58.5767 65.5209 57.8313 64.1852 57.5744ZM34.7196 3.09467L64.4149 26.8509H5.02427L34.7196 3.09467ZM60.9696 29.0384V52.3025C60.3047 51.8214 59.5659 51.452 58.7821 51.2087V32.3197C58.7821 32.0296 58.6668 31.7514 58.4617 31.5463C58.2566 31.3412 57.9784 31.2259 57.6883 31.2259H11.7508C11.4608 31.2259 11.1826 31.3412 10.9774 31.5463C10.7723 31.7514 10.6571 32.0296 10.6571 32.3197V51.2306C9.8733 51.4738 9.13443 51.8433 8.46958 52.3244V29.0384H60.9696ZM49.0149 57.4759H47.8446V52.0072C47.8446 51.7171 47.7293 51.4389 47.5242 51.2338C47.3191 51.0287 47.0409 50.9134 46.7508 50.9134H38.0008V49.8197H39.0946C39.9648 49.8197 40.7994 49.474 41.4148 48.8586C42.0301 48.2433 42.3758 47.4087 42.3758 46.5384V42.1634C42.3758 41.2932 42.0301 40.4586 41.4148 39.8432C40.7994 39.2279 39.9648 38.8822 39.0946 38.8822H30.3446C29.4743 38.8822 28.6397 39.2279 28.0244 39.8432C27.409 40.4586 27.0633 41.2932 27.0633 42.1634V46.5384C27.0633 47.4087 27.409 48.2433 28.0244 48.8586C28.6397 49.474 29.4743 49.8197 30.3446 49.8197H31.4383V50.9134H22.6883C22.3983 50.9134 22.1201 51.0287 21.9149 51.2338C21.7098 51.4389 21.5946 51.7171 21.5946 52.0072V57.4759H20.4243C20.1612 55.6534 19.2501 53.9868 17.858 52.7814C16.4659 51.5761 14.686 50.913 12.8446 50.9134V33.4134H56.5946V50.9134C54.7532 50.913 52.9733 51.5761 51.5812 52.7814C50.189 53.9868 49.278 55.6534 49.0149 57.4759ZM24.7665 64.0384H44.6727C44.8291 64.8333 45.1659 65.5817 45.6571 66.2259H23.7821C24.2733 65.5817 24.61 64.8333 24.7665 64.0384ZM44.6836 61.8509H24.7555C24.5987 61.0581 24.2661 60.3106 23.7821 59.6634H45.6571C45.1731 60.3106 44.8404 61.0581 44.6836 61.8509ZM30.3446 47.6322C30.0545 47.6322 29.7763 47.5169 29.5712 47.3118C29.3661 47.1067 29.2508 46.8285 29.2508 46.5384V42.1634C29.2508 41.8733 29.3661 41.5951 29.5712 41.39C29.7763 41.1849 30.0545 41.0697 30.3446 41.0697H39.0946C39.3847 41.0697 39.6629 41.1849 39.868 41.39C40.0731 41.5951 40.1883 41.8733 40.1883 42.1634V46.5384C40.1883 46.8285 40.0731 47.1067 39.868 47.3118C39.6629 47.5169 39.3847 47.6322 39.0946 47.6322H30.3446ZM35.8133 49.8197V50.9134H33.6258V49.8197H35.8133ZM45.6571 53.1009V57.4759H23.7821V53.1009H45.6571ZM18.3133 66.2259H6.28208C5.41184 66.2259 4.57724 65.8802 3.96189 65.2649C3.34653 64.6495 3.00083 63.8149 3.00083 62.9447C3.00083 62.0744 3.34653 61.2398 3.96189 60.6245C4.57724 60.0091 5.41184 59.6634 6.28208 59.6634C6.57216 59.6634 6.85036 59.5482 7.05548 59.3431C7.2606 59.138 7.37583 58.8598 7.37583 58.5697C7.37583 57.1193 7.952 55.7283 8.97759 54.7027C10.0032 53.6771 11.3942 53.1009 12.8446 53.1009C14.295 53.1009 15.686 53.6771 16.7116 54.7027C17.7372 55.7283 18.3133 57.1193 18.3133 58.5697C18.3133 58.8598 18.4286 59.138 18.6337 59.3431C18.8388 59.5482 19.117 59.6634 19.4071 59.6634C20.2773 59.6634 21.1119 60.0091 21.7273 60.6245C22.3426 61.2398 22.6883 62.0744 22.6883 62.9447C22.6883 63.8149 22.3426 64.6495 21.7273 65.2649C21.1119 65.8802 20.2773 66.2259 19.4071 66.2259H18.3133ZM63.1571 66.2259H50.0321C49.1618 66.2259 48.3272 65.8802 47.7119 65.2649C47.0965 64.6495 46.7508 63.8149 46.7508 62.9447C46.7508 62.0744 47.0965 61.2398 47.7119 60.6245C48.3272 60.0091 49.1618 59.6634 50.0321 59.6634C50.3222 59.6634 50.6004 59.5482 50.8055 59.3431C51.0106 59.138 51.1258 58.8598 51.1258 58.5697C51.1258 57.1193 51.702 55.7283 52.7276 54.7027C53.7532 53.6771 55.1442 53.1009 56.5946 53.1009C58.045 53.1009 59.436 53.6771 60.4616 54.7027C61.4872 55.7283 62.0633 57.1193 62.0633 58.5697C62.0633 58.8598 62.1786 59.138 62.3837 59.3431C62.5888 59.5482 62.867 59.6634 63.1571 59.6634C64.0273 59.6634 64.8619 60.0091 65.4773 60.6245C66.0926 61.2398 66.4383 62.0744 66.4383 62.9447C66.4383 63.8149 66.0926 64.6495 65.4773 65.2649C64.8619 65.8802 64.0273 66.2259 63.1571 66.2259Z" fill="black" fill-opacity="0.2"/>
<path d="M52.2195 43.2573C53.0897 43.2573 53.9243 42.9116 54.5397 42.2963C55.155 41.6809 55.5007 40.8463 55.5007 39.9761V37.7886C55.5007 36.9183 55.155 36.0837 54.5397 35.4684C53.9243 34.853 53.0897 34.5073 52.2195 34.5073H47.8445C46.9742 34.5073 46.1396 34.853 45.5243 35.4684C44.9089 36.0837 44.5632 36.9183 44.5632 37.7886V39.9761C44.5632 40.8463 44.9089 41.6809 45.5243 42.2963C46.1396 42.9116 46.9742 43.2573 47.8445 43.2573V44.3511C47.8456 44.567 47.9105 44.7778 48.0312 44.9569C48.1519 45.1359 48.3229 45.2753 48.5226 45.3573C48.6524 45.4186 48.7948 45.4485 48.9382 45.4448C49.0822 45.4457 49.2249 45.4181 49.3581 45.3636C49.4914 45.3092 49.6126 45.229 49.7148 45.1276L51.5742 43.2573H52.2195ZM50.3492 41.387L49.9664 41.7808C49.8881 41.5714 49.7477 41.3911 49.5639 41.2639C49.38 41.1368 49.1617 41.0691 48.9382 41.0698H47.8445C47.5544 41.0698 47.2762 40.9546 47.0711 40.7495C46.866 40.5444 46.7507 40.2662 46.7507 39.9761V37.7886C46.7507 37.4985 46.866 37.2203 47.0711 37.0152C47.2762 36.8101 47.5544 36.6948 47.8445 36.6948H52.2195C52.5096 36.6948 52.7878 36.8101 52.9929 37.0152C53.198 37.2203 53.3132 37.4985 53.3132 37.7886V39.9761C53.3132 40.2662 53.198 40.5444 52.9929 40.7495C52.7878 40.9546 52.5096 41.0698 52.2195 41.0698H51.1257C50.9818 41.069 50.8391 41.0966 50.7058 41.151C50.5726 41.2054 50.4514 41.2856 50.3492 41.387ZM21.5945 36.6948H17.2195C16.3492 36.6948 15.5146 37.0405 14.8993 37.6559C14.2839 38.2712 13.9382 39.1058 13.9382 39.9761V42.1636C13.9382 43.0338 14.2839 43.8684 14.8993 44.4838C15.5146 45.0991 16.3492 45.4448 17.2195 45.4448H17.8648L19.7242 47.3151C19.8264 47.4165 19.9476 47.4967 20.0808 47.5511C20.2141 47.6056 20.3568 47.6332 20.5007 47.6323C20.6442 47.636 20.7866 47.6061 20.9164 47.5448C21.1161 47.4628 21.2871 47.3234 21.4078 47.1444C21.5284 46.9653 21.5934 46.7545 21.5945 46.5386V45.4448C22.4647 45.4448 23.2993 45.0991 23.9147 44.4838C24.53 43.8684 24.8757 43.0338 24.8757 42.1636V39.9761C24.8757 39.1058 24.53 38.2712 23.9147 37.6559C23.2993 37.0405 22.4647 36.6948 21.5945 36.6948ZM22.6882 42.1636C22.6882 42.4537 22.573 42.7319 22.3679 42.937C22.1628 43.1421 21.8846 43.2573 21.5945 43.2573H20.5007C20.2773 43.2566 20.0589 43.3243 19.8751 43.4515C19.6913 43.5786 19.5508 43.7589 19.4726 43.9683L19.0898 43.5745C18.9876 43.4731 18.8664 43.3929 18.7331 43.3385C18.5999 43.2841 18.4572 43.2565 18.3132 43.2573H17.2195C16.9294 43.2573 16.6512 43.1421 16.4461 42.937C16.241 42.7319 16.1257 42.4537 16.1257 42.1636V39.9761C16.1257 39.686 16.241 39.4078 16.4461 39.2027C16.6512 38.9976 16.9294 38.8823 17.2195 38.8823H21.5945C21.8846 38.8823 22.1628 38.9976 22.3679 39.2027C22.573 39.4078 22.6882 39.686 22.6882 39.9761V42.1636Z" fill="url(#paint1_linear_1310_10975)"/>
<path d="M52.2195 43.2573C53.0897 43.2573 53.9243 42.9116 54.5397 42.2963C55.155 41.6809 55.5007 40.8463 55.5007 39.9761V37.7886C55.5007 36.9183 55.155 36.0837 54.5397 35.4684C53.9243 34.853 53.0897 34.5073 52.2195 34.5073H47.8445C46.9742 34.5073 46.1396 34.853 45.5243 35.4684C44.9089 36.0837 44.5632 36.9183 44.5632 37.7886V39.9761C44.5632 40.8463 44.9089 41.6809 45.5243 42.2963C46.1396 42.9116 46.9742 43.2573 47.8445 43.2573V44.3511C47.8456 44.567 47.9105 44.7778 48.0312 44.9569C48.1519 45.1359 48.3229 45.2753 48.5226 45.3573C48.6524 45.4186 48.7948 45.4485 48.9382 45.4448C49.0822 45.4457 49.2249 45.4181 49.3581 45.3636C49.4914 45.3092 49.6126 45.229 49.7148 45.1276L51.5742 43.2573H52.2195ZM50.3492 41.387L49.9664 41.7808C49.8881 41.5714 49.7477 41.3911 49.5639 41.2639C49.38 41.1368 49.1617 41.0691 48.9382 41.0698H47.8445C47.5544 41.0698 47.2762 40.9546 47.0711 40.7495C46.866 40.5444 46.7507 40.2662 46.7507 39.9761V37.7886C46.7507 37.4985 46.866 37.2203 47.0711 37.0152C47.2762 36.8101 47.5544 36.6948 47.8445 36.6948H52.2195C52.5096 36.6948 52.7878 36.8101 52.9929 37.0152C53.198 37.2203 53.3132 37.4985 53.3132 37.7886V39.9761C53.3132 40.2662 53.198 40.5444 52.9929 40.7495C52.7878 40.9546 52.5096 41.0698 52.2195 41.0698H51.1257C50.9818 41.069 50.8391 41.0966 50.7058 41.151C50.5726 41.2054 50.4514 41.2856 50.3492 41.387ZM21.5945 36.6948H17.2195C16.3492 36.6948 15.5146 37.0405 14.8993 37.6559C14.2839 38.2712 13.9382 39.1058 13.9382 39.9761V42.1636C13.9382 43.0338 14.2839 43.8684 14.8993 44.4838C15.5146 45.0991 16.3492 45.4448 17.2195 45.4448H17.8648L19.7242 47.3151C19.8264 47.4165 19.9476 47.4967 20.0808 47.5511C20.2141 47.6056 20.3568 47.6332 20.5007 47.6323C20.6442 47.636 20.7866 47.6061 20.9164 47.5448C21.1161 47.4628 21.2871 47.3234 21.4078 47.1444C21.5284 46.9653 21.5934 46.7545 21.5945 46.5386V45.4448C22.4647 45.4448 23.2993 45.0991 23.9147 44.4838C24.53 43.8684 24.8757 43.0338 24.8757 42.1636V39.9761C24.8757 39.1058 24.53 38.2712 23.9147 37.6559C23.2993 37.0405 22.4647 36.6948 21.5945 36.6948ZM22.6882 42.1636C22.6882 42.4537 22.573 42.7319 22.3679 42.937C22.1628 43.1421 21.8846 43.2573 21.5945 43.2573H20.5007C20.2773 43.2566 20.0589 43.3243 19.8751 43.4515C19.6913 43.5786 19.5508 43.7589 19.4726 43.9683L19.0898 43.5745C18.9876 43.4731 18.8664 43.3929 18.7331 43.3385C18.5999 43.2841 18.4572 43.2565 18.3132 43.2573H17.2195C16.9294 43.2573 16.6512 43.1421 16.4461 42.937C16.241 42.7319 16.1257 42.4537 16.1257 42.1636V39.9761C16.1257 39.686 16.241 39.4078 16.4461 39.2027C16.6512 38.9976 16.9294 38.8823 17.2195 38.8823H21.5945C21.8846 38.8823 22.1628 38.9976 22.3679 39.2027C22.573 39.4078 22.6882 39.686 22.6882 39.9761V42.1636Z" fill="black" fill-opacity="0.2"/>
<defs>
<linearGradient id="paint0_linear_1310_10975" x1="3.00838" y1="5.82191" x2="65.5117" y2="52.1037" gradientUnits="userSpaceOnUse">
<stop offset="0.03125" stop-color="#003B40"/>
<stop offset="0.265625" stop-color="#005961"/>
<stop offset="0.509791" stop-color="#00818C"/>
<stop offset="0.760417" stop-color="#005961"/>
<stop offset="0.994792" stop-color="#003B40"/>
</linearGradient>
<linearGradient id="paint1_linear_1310_10975" x1="15.2808" y1="35.517" x2="24.4091" y2="56.9219" gradientUnits="userSpaceOnUse">
<stop offset="0.03125" stop-color="#003B40"/>
<stop offset="0.265625" stop-color="#005961"/>
<stop offset="0.509791" stop-color="#00818C"/>
<stop offset="0.760417" stop-color="#005961"/>
<stop offset="0.994792" stop-color="#003B40"/>
</linearGradient>
</defs>
</svg>
