<svg width="30" height="30" viewBox="0 0 30 30" fill="none" xmlns="http://www.w3.org/2000/svg">
<circle cx="15" cy="15" r="15" fill="#E6EDED"/>
<path fill-rule="evenodd" clip-rule="evenodd" d="M15 5C12.2842 5 11.9436 5.01151 10.877 5.06018C9.81263 5.10872 9.08569 5.27779 8.44962 5.52501C7.79203 5.78052 7.23436 6.12246 6.67839 6.67839C6.12246 7.23436 5.78052 7.79203 5.52501 8.44962C5.27779 9.08569 5.10872 9.81263 5.06018 10.877C5.01151 11.9436 5 12.2842 5 15C5 17.7158 5.01151 18.0564 5.06018 19.123C5.10872 20.1874 5.27779 20.9143 5.52501 21.5504C5.78052 22.208 6.12246 22.7656 6.67839 23.3216C7.23436 23.8775 7.79203 24.2195 8.44962 24.475C9.08569 24.7222 9.81263 24.8913 10.877 24.9398C11.9436 24.9885 12.2842 25 15 25C17.7158 25 18.0564 24.9885 19.123 24.9398C20.1874 24.8913 20.9143 24.7222 21.5504 24.475C22.208 24.2195 22.7656 23.8775 23.3216 23.3216C23.8775 22.7656 24.2195 22.208 24.475 21.5504C24.7222 20.9143 24.8913 20.1874 24.9398 19.123C24.9885 18.0564 25 17.7158 25 15C25 12.2842 24.9885 11.9436 24.9398 10.877C24.8913 9.81263 24.7222 9.08569 24.475 8.44962C24.2195 7.79203 23.8775 7.23436 23.3216 6.67839C22.7656 6.12246 22.208 5.78052 21.5504 5.52501C20.9143 5.27779 20.1874 5.10872 19.123 5.06018C18.0564 5.01151 17.7158 5 15 5ZM15.0002 6.80199C17.6703 6.80199 17.9866 6.81219 19.041 6.8603C20.016 6.90476 20.5455 7.06767 20.8979 7.20461C21.3647 7.38602 21.6978 7.60272 22.0477 7.95267C22.3977 8.30258 22.6144 8.6357 22.7958 9.10248C22.9327 9.45485 23.0956 9.98434 23.1401 10.9593C23.1882 12.0138 23.1984 12.3301 23.1984 15.0002C23.1984 17.6703 23.1882 17.9866 23.1401 19.041C23.0956 20.016 22.9327 20.5455 22.7958 20.8979C22.6144 21.3647 22.3977 21.6978 22.0477 22.0477C21.6978 22.3977 21.3647 22.6144 20.8979 22.7958C20.5455 22.9327 20.016 23.0956 19.041 23.1401C17.9867 23.1882 17.6705 23.1984 15.0002 23.1984C12.3299 23.1984 12.0137 23.1882 10.9593 23.1401C9.98434 23.0956 9.45485 22.9327 9.10248 22.7958C8.6357 22.6144 8.30258 22.3977 7.95267 22.0477C7.60276 21.6978 7.38602 21.3647 7.20461 20.8979C7.06767 20.5455 6.90476 20.016 6.8603 19.041C6.81219 17.9866 6.80199 17.6703 6.80199 15.0002C6.80199 12.3301 6.81219 12.0138 6.8603 10.9593C6.90476 9.98434 7.06767 9.45485 7.20461 9.10248C7.38602 8.6357 7.60272 8.30258 7.95267 7.95267C8.30258 7.60272 8.6357 7.38602 9.10248 7.20461C9.45485 7.06767 9.98434 6.90476 10.9593 6.8603C12.0138 6.81219 12.3301 6.80199 15.0002 6.80199V6.80199Z" fill="#002D31"/>
<path fill-rule="evenodd" clip-rule="evenodd" d="M15.0001 18.3334C13.1591 18.3334 11.6668 16.8411 11.6668 15.0001C11.6668 13.1591 13.1591 11.6668 15.0001 11.6668C16.8411 11.6668 18.3334 13.1591 18.3334 15.0001C18.3334 16.8411 16.8411 18.3334 15.0001 18.3334ZM14.9999 9.86475C12.1638 9.86475 9.86475 12.1638 9.86475 14.9999C9.86475 17.836 12.1638 20.135 14.9999 20.135C17.836 20.135 20.135 17.836 20.135 14.9999C20.135 12.1638 17.836 9.86475 14.9999 9.86475V9.86475Z" fill="#002D31"/>
<path fill-rule="evenodd" clip-rule="evenodd" d="M21.5382 9.66194C21.5382 10.3247 21.0009 10.8619 20.3382 10.8619C19.6755 10.8619 19.1382 10.3247 19.1382 9.66194C19.1382 8.99919 19.6755 8.46191 20.3382 8.46191C21.0009 8.46191 21.5382 8.99919 21.5382 9.66194" fill="#002D31"/>
</svg>
