<svg width="30" height="30" viewBox="0 0 30 30" fill="none" xmlns="http://www.w3.org/2000/svg">
<circle cx="15" cy="15" r="15" fill="#E6EDED"/>
<path d="M23.1234 21.875H20.0176V17.0028C20.0176 15.841 19.9969 14.3453 18.4024 14.3453C16.7848 14.3453 16.5373 15.6111 16.5373 16.9182V21.8746H13.4316V11.8554H16.4131V13.2246H16.4549C17.0619 12.1849 18.1948 11.5616 19.3965 11.6063C22.5443 11.6063 23.1247 13.6803 23.1247 16.3786L23.1234 21.875Z" fill="#002D31"/>
<path d="M9.92767 10.4858C9.92748 10.4858 9.92739 10.4858 9.92729 10.4858C8.93858 10.4858 8.125 9.6709 8.125 8.68045C8.125 7.69001 8.93858 6.875 9.92729 6.875C10.9159 6.875 11.7294 7.68982 11.7296 8.68008C11.7296 8.68017 11.7296 8.68027 11.7296 8.68045C11.7296 9.67071 10.9162 10.4857 9.92767 10.4858" fill="#002D31"/>
<path d="M11.4805 21.8751H8.37158V11.8555H11.4805V21.8751Z" fill="#002D31"/>
</svg>
