<svg width="230" height="89" viewBox="0 0 230 89" fill="none" xmlns="http://www.w3.org/2000/svg">
<g filter="url(#filter0_dd_531_13771)">
<rect x="5" y="7" width="213" height="70" rx="7.46533" fill="#002D31"/>
<rect x="5" y="7" width="213" height="70" rx="7.46533" stroke="url(#paint0_linear_531_13771)" stroke-width="1.0942"/>
</g>
<path d="M42.4814 27.2353V40.2874C42.4814 40.9728 41.9279 41.533 41.2434 41.533C40.5589 41.533 40.0053 40.9787 40.0053 40.2874V39.0596V27.2114C40.0053 24.601 37.8923 22.4793 35.2852 22.4793H24.1844C23.7856 22.4793 23.4642 22.8011 23.4642 23.2004V34.3215C23.4642 36.932 25.5772 39.0537 28.1843 39.0537H35.7019C35.9162 39.0537 36.0888 38.8808 36.0888 38.6663V27.2114C36.0888 26.7644 35.7257 26.4069 35.2852 26.4069H27.7617C27.5474 26.4069 27.3748 26.5797 27.3748 26.7942V34.3335C27.3748 34.7805 27.7379 35.144 28.1783 35.144H33.4103C34.0948 35.144 34.6424 35.6983 34.6424 36.3837C34.6424 37.069 34.0889 37.6233 33.4103 37.6233H28.1843C26.3689 37.6233 24.9046 36.1512 24.9046 34.3335V24.3149C24.9046 24.1004 25.0772 23.9275 25.2915 23.9275H35.2793C37.0947 23.9275 38.5589 25.3996 38.5589 27.2174V35.1321V40.8118C38.5589 41.2052 38.2375 41.527 37.8447 41.527H28.22C24.232 41.527 21 38.2908 21 34.2917V20.7211C21 20.3218 21.3214 20 21.7202 20H35.2614C39.2494 20 42.4814 23.2362 42.4814 27.2353Z" fill="white"/>
<path d="M43.9214 27.247V40.2991C43.9214 40.9845 44.4749 41.5447 45.1594 41.5447C45.8439 41.5447 46.3975 40.9904 46.3975 40.2991V39.0714V27.2232C46.3975 24.6127 48.5105 22.491 51.1176 22.491H62.2124C62.6112 22.491 62.9327 22.8129 62.9327 23.2122V34.3333C62.9327 36.9437 60.8196 39.0654 58.2126 39.0654H50.695C50.4807 39.0654 50.3081 38.8926 50.3081 38.678V27.2232C50.3081 26.7762 50.6712 26.4186 51.1116 26.4186H58.6352C58.8495 26.4186 59.0221 26.5914 59.0221 26.806V34.3452C59.0221 34.7922 58.659 35.1557 58.2185 35.1557H52.9866C52.3021 35.1557 51.7545 35.71 51.7545 36.3954C51.7545 37.0808 52.308 37.635 52.9866 37.635H58.2126C60.028 37.635 61.4922 36.1629 61.4922 34.3452V24.3267C61.4922 24.1121 61.3196 23.9393 61.1053 23.9393H51.1176C49.3022 23.9393 47.8379 25.4114 47.8379 27.2291V35.1438V40.8236C47.8379 41.2169 48.1593 41.5387 48.5522 41.5387H58.1828C62.1708 41.5387 65.4028 38.3025 65.4028 34.3035V20.7329C65.4028 20.3336 65.0814 20.0117 64.6826 20.0117H51.1414C47.1534 20.0117 43.9214 23.2479 43.9214 27.247Z" fill="white"/>
<path d="M47.136 42.999C47.5272 42.999 47.8444 42.6815 47.8444 42.2898C47.8444 41.8981 47.5272 41.5806 47.136 41.5806C46.7449 41.5806 46.4277 41.8981 46.4277 42.2898C46.4277 42.6815 46.7449 42.999 47.136 42.999Z" fill="white"/>
<path d="M39.4036 42.999C39.7948 42.999 40.1119 42.6815 40.1119 42.2898C40.1119 41.8981 39.7948 41.5806 39.4036 41.5806C39.0124 41.5806 38.6953 41.8981 38.6953 42.2898C38.6953 42.6815 39.0124 42.999 39.4036 42.999Z" fill="white"/>
<path d="M42.4814 57.2842V44.2321C42.4814 43.5468 41.9279 42.9865 41.2434 42.9865C40.5589 42.9865 40.0053 43.5408 40.0053 44.2321V45.4599V57.3021C40.0053 59.9125 37.8923 62.0342 35.2852 62.0342H24.1844C23.7856 62.0342 23.4642 61.7124 23.4642 61.3131V50.192C23.4642 47.5816 25.5772 45.4599 28.1843 45.4599H35.7019C35.9162 45.4599 36.0888 45.6327 36.0888 45.8473V57.3021C36.0888 57.7491 35.7257 58.1067 35.2852 58.1067H27.7617C27.5474 58.1067 27.3748 57.9339 27.3748 57.7193V50.1801C27.3748 49.7331 27.7379 49.3695 28.1783 49.3695H33.4103C34.0948 49.3695 34.6424 48.8153 34.6424 48.1299C34.6424 47.4445 34.0889 46.8902 33.4103 46.8902H28.1843C26.3689 46.8902 24.9046 48.3623 24.9046 50.1801V60.1867C24.9046 60.4012 25.0772 60.5741 25.2915 60.5741H35.2793C37.0947 60.5741 38.5589 59.102 38.5589 57.2842V49.3695V43.6898C38.5589 43.2964 38.2375 42.9746 37.8447 42.9746H28.22C24.232 42.9925 21 46.2287 21 50.2278V63.7984C21 64.1977 21.3214 64.5195 21.7202 64.5195H35.2614C39.2494 64.5195 42.4814 61.2833 42.4814 57.2842Z" fill="white"/>
<path d="M43.9268 57.2735V44.2214C43.9268 43.536 44.4803 42.9758 45.1648 42.9758C45.8493 42.9758 46.4029 43.5301 46.4029 44.2214V45.4491V57.2914C46.4029 59.9018 48.5159 62.0235 51.1229 62.0235H62.2178C62.6166 62.0235 62.938 61.7017 62.938 61.3024V50.1813C62.938 47.5708 60.825 45.4491 58.218 45.4491H50.7003C50.4861 45.4491 50.3135 45.622 50.3135 45.8365V57.2914C50.3135 57.7384 50.6765 58.096 51.117 58.096H58.6406C58.8548 58.096 59.0274 57.9231 59.0274 57.7086V50.1693C59.0274 49.7224 58.6644 49.3588 58.2239 49.3588H52.9919C52.3074 49.3588 51.7598 48.8045 51.7598 48.1191C51.7598 47.4338 52.3134 46.8795 52.9919 46.8795H58.218C60.0334 46.8795 61.4976 48.3516 61.4976 50.1693V60.1759C61.4976 60.3905 61.325 60.5633 61.1107 60.5633H51.1229C49.3075 60.5633 47.8433 59.0913 47.8433 57.2735V49.3588V43.6791C47.8433 43.2857 48.1647 42.9639 48.5576 42.9639H58.1882C62.1762 42.9639 65.4082 46.2001 65.4082 50.1991V63.7697C65.4082 64.1691 65.0868 64.4909 64.688 64.4909H51.1468C47.1588 64.4909 43.9268 61.2547 43.9268 57.2556V57.2735Z" fill="white"/>
<path d="M72.6173 60.5748H70.5757V49.853H78.7361C80.0932 49.853 80.7777 50.5682 80.7777 51.9986V54.1441C80.7777 55.5745 80.0992 56.2897 78.7361 56.2897H72.6173V60.5808V60.5748ZM78.7361 54.1441V51.9986H72.6173V54.1441H78.7361Z" fill="white"/>
<path d="M88.2959 56.2896L86.9864 54.9188V60.5807H84.9448V49.8589H93.1053C94.4624 49.8589 95.1469 50.5741 95.1469 52.0044V54.15C95.1469 55.5804 94.4802 56.2955 93.141 56.2955H91.0696L95.1469 60.5866H92.3732L88.2959 56.2955V56.2896ZM86.9864 51.9985V54.144H93.1053V51.9985H86.9864Z" fill="white"/>
<path d="M101.367 49.853H107.486C108.843 49.853 109.527 50.5682 109.527 51.9986V58.4352C109.527 59.8656 108.849 60.5808 107.486 60.5808H101.367C100.01 60.5808 99.3252 59.8656 99.3252 58.4352V51.9986C99.3252 50.5682 100.004 49.853 101.367 49.853ZM101.367 51.9986V58.4352H107.486V51.9986H101.367Z" fill="white"/>
<path d="M115.741 60.5748H113.699V49.853H121.86C123.217 49.853 123.901 50.5682 123.901 51.9986V54.1441C123.901 55.5745 123.223 56.2897 121.86 56.2897H115.741V60.5808V60.5748ZM121.86 54.1441V51.9986H115.741V54.1441H121.86Z" fill="white"/>
<path d="M138.275 49.853V51.9986H128.079V49.853H138.275ZM138.275 54.1441V56.2897H128.079V54.1441H138.275ZM138.275 58.4352V60.5808H128.079V58.4352H138.275Z" fill="white"/>
<path d="M145.8 56.2896L144.49 54.9188V60.5807H142.449V49.8589H150.609C151.966 49.8589 152.651 50.5741 152.651 52.0044V54.15C152.651 55.5804 151.984 56.2955 150.645 56.2955H148.574L152.651 60.5866H149.877L145.8 56.2955V56.2896ZM144.49 51.9985V54.144H150.609V51.9985H144.49Z" fill="white"/>
<path d="M156.829 49.853H167.025V51.9986H162.948V60.5748H160.906V51.9986H156.829V49.853Z" fill="white"/>
<path d="M173.245 49.853V60.5748H171.204V49.853H173.245Z" fill="white"/>
<path d="M187.619 49.853V51.9986H177.423V49.853H187.619ZM187.619 54.1441V56.2897H177.423V54.1441H187.619ZM187.619 58.4352V60.5808H177.423V58.4352H187.619Z" fill="white"/>
<path d="M202 51.9986H193.839V54.1441H199.958C201.315 54.1441 202 54.8593 202 56.2897V58.4352C202 59.8656 201.321 60.5808 199.958 60.5808H191.798V58.4352H199.958V56.2897H193.839C192.482 56.2897 191.798 55.5745 191.798 54.1441V51.9986C191.798 50.5682 192.476 49.853 193.839 49.853H202V51.9986Z" fill="white"/>
<path d="M73.3259 38.3442H70.5879V23.9512H81.5399C83.3672 23.9512 84.2779 24.9107 84.2779 26.8298V29.7084C84.2779 31.6275 83.3672 32.587 81.5399 32.587H73.3259V38.3442ZM81.5399 29.7084V26.8298H73.3259V29.7084H81.5399Z" fill="white"/>
<path d="M91.8787 32.587L90.1228 30.7454V38.3502H87.3848V23.9512H98.3368C100.164 23.9512 101.075 24.9107 101.075 26.8298V29.7084C101.075 31.6275 100.176 32.587 98.3784 32.587H95.5988L101.075 38.3442H97.3547L91.8787 32.587ZM90.1228 26.8298V29.7084H98.3368V26.8298H90.1228Z" fill="white"/>
<path d="M106.932 23.9512H115.146C116.974 23.9512 117.884 24.9107 117.884 26.8298V35.4656C117.884 37.3847 116.974 38.3442 115.146 38.3442H106.932C105.105 38.3442 104.194 37.3847 104.194 35.4656V26.8298C104.194 24.9107 105.105 23.9512 106.932 23.9512ZM106.932 26.8298V35.4656H115.146V26.8298H106.932Z" fill="white"/>
<path d="M120.991 23.9512H134.681V26.8298H123.729V29.7084H134.681V32.587H123.729V38.3442H120.991V23.9512Z" fill="white"/>
<path d="M140.531 23.9512H148.745C150.573 23.9512 151.483 24.9107 151.483 26.8298V35.4656C151.483 37.3847 150.573 38.3442 148.745 38.3442H140.531C138.704 38.3442 137.793 37.3847 137.793 35.4656V26.8298C137.793 24.9107 138.704 23.9512 140.531 23.9512ZM140.531 26.8298V35.4656H148.745V26.8298H140.531Z" fill="white"/>
<path d="M165.549 38.3442H157.335C155.507 38.3442 154.597 37.3847 154.597 35.4656V23.9512H157.335V35.4656H165.549V23.9512H168.287V35.4656C168.287 37.3847 167.376 38.3442 165.549 38.3442Z" fill="white"/>
<path d="M173.995 38.3438H171.126V23.9746H173.709L182.608 33.8918V23.9746H185.477V38.3438H182.911L173.995 28.4266V38.3438Z" fill="white"/>
<path d="M188.31 38.3442V23.9512H199.262C201.089 23.9512 202 24.9107 202 26.8298V35.4656C202 37.3847 201.089 38.3442 199.262 38.3442H188.31ZM191.048 35.4656H199.262V26.8298H191.048V35.4656Z" fill="white"/>
<defs>
<filter id="filter0_dd_531_13771" x="-3.65976" y="-1.65976" width="233.217" height="90.2174" filterUnits="userSpaceOnUse" color-interpolation-filters="sRGB">
<feFlood flood-opacity="0" result="BackgroundImageFix"/>
<feColorMatrix in="SourceAlpha" type="matrix" values="0 0 0 0 0 0 0 0 0 0 0 0 0 0 0 0 0 0 127 0" result="hardAlpha"/>
<feMorphology radius="2.13295" operator="dilate" in="SourceAlpha" result="effect1_dropShadow_531_13771"/>
<feOffset dx="3.84698" dy="3.84698"/>
<feGaussianBlur stdDeviation="2.51539"/>
<feComposite in2="hardAlpha" operator="out"/>
<feColorMatrix type="matrix" values="0 0 0 0 0 0 0 0 0 0.12549 0 0 0 0 0.137255 0 0 0 1 0"/>
<feBlend mode="normal" in2="BackgroundImageFix" result="effect1_dropShadow_531_13771"/>
<feColorMatrix in="SourceAlpha" type="matrix" values="0 0 0 0 0 0 0 0 0 0 0 0 0 0 0 0 0 0 127 0" result="hardAlpha"/>
<feMorphology radius="2.13295" operator="erode" in="SourceAlpha" result="effect2_dropShadow_531_13771"/>
<feOffset dx="-3.84698" dy="-3.84698"/>
<feGaussianBlur stdDeviation="3.19943"/>
<feComposite in2="hardAlpha" operator="out"/>
<feColorMatrix type="matrix" values="0 0 0 0 0 0 0 0 0 0.459184 0 0 0 0 0.5 0 0 0 1 0"/>
<feBlend mode="normal" in2="effect1_dropShadow_531_13771" result="effect2_dropShadow_531_13771"/>
<feBlend mode="normal" in="SourceGraphic" in2="effect2_dropShadow_531_13771" result="shape"/>
</filter>
<linearGradient id="paint0_linear_531_13771" x1="10.7054" y1="13.5389" x2="212.691" y2="72.4227" gradientUnits="userSpaceOnUse">
<stop stop-color="#007680"/>
<stop offset="1" stop-color="#003B40"/>
</linearGradient>
</defs>
</svg>
