<svg width="729" height="586" viewBox="0 0 729 586" fill="none" xmlns="http://www.w3.org/2000/svg">
<mask id="path-1-inside-1_1632_12543" fill="white">
<path fill-rule="evenodd" clip-rule="evenodd" d="M719.109 585.574C724.571 585.574 729 581.145 729 575.683V442.148L729 9.89147C729 4.42858 724.572 2.1933e-05 719.109 2.14336e-05L484.681 0C479.218 -4.99473e-07 474.79 4.42859 474.79 9.89149L474.79 432.257L9.8915 432.256C4.42854 432.256 1.55086e-05 436.685 1.49396e-05 442.148L0 575.682C0 581.145 4.42859 585.574 9.89148 585.574L484.661 585.574C484.668 585.574 484.674 585.574 484.681 585.574H719.109Z"/>
</mask>
<g filter="url(#filter0_ii_1632_12543)">
<path fill-rule="evenodd" clip-rule="evenodd" d="M719.109 585.574C724.571 585.574 729 581.145 729 575.683V442.148L729 9.89147C729 4.42858 724.572 2.1933e-05 719.109 2.14336e-05L484.681 0C479.218 -4.99473e-07 474.79 4.42859 474.79 9.89149L474.79 432.257L9.8915 432.256C4.42854 432.256 1.55086e-05 436.685 1.49396e-05 442.148L0 575.682C0 581.145 4.42859 585.574 9.89148 585.574L484.661 585.574C484.668 585.574 484.674 585.574 484.681 585.574H719.109Z" fill="#E6EDED"/>
</g>
<path d="M729 442.148L728.402 442.148V442.148H729ZM729 9.89147L729.598 9.89147V9.89147H729ZM719.109 2.14336e-05L719.109 -0.597502L719.109 2.14336e-05ZM484.681 0L484.681 0.597524L484.681 0ZM474.79 9.89149L475.387 9.89149V9.89149H474.79ZM474.79 432.257L474.79 432.854L475.387 432.854L475.387 432.257L474.79 432.257ZM9.8915 432.256L9.8915 431.659H9.8915V432.256ZM1.49396e-05 442.148L0.597539 442.148L1.49396e-05 442.148ZM0 575.682L-0.597524 575.682V575.682H0ZM9.89148 585.574L9.89148 584.976H9.89148V585.574ZM484.661 585.574L484.661 586.172H484.661V585.574ZM728.402 575.683C728.402 580.815 724.241 584.976 719.109 584.976V586.172C724.901 586.172 729.598 581.475 729.598 575.683H728.402ZM728.402 442.148V575.683H729.598V442.148H728.402ZM728.403 9.89147L728.402 442.148L729.598 442.148L729.598 9.89147L728.403 9.89147ZM719.109 0.597545C724.242 0.597546 728.403 4.75858 728.403 9.89147H729.598C729.598 4.09858 724.902 -0.597502 719.109 -0.597502L719.109 0.597545ZM484.681 0.597524L719.109 0.597545L719.109 -0.597502L484.681 -0.597524L484.681 0.597524ZM475.387 9.89149C475.387 4.75859 479.548 0.597523 484.681 0.597524L484.681 -0.597524C478.888 -0.597524 474.192 4.09859 474.192 9.89149H475.387ZM475.387 432.257L475.387 9.89149L474.192 9.89149L474.192 432.257L475.387 432.257ZM9.8915 432.854L474.79 432.854L474.79 431.659L9.8915 431.659L9.8915 432.854ZM0.597539 442.148C0.597539 437.015 4.75855 432.854 9.8915 432.854V431.659C4.09854 431.659 -0.597508 436.355 -0.597509 442.148L0.597539 442.148ZM0.597524 575.682L0.597539 442.148L-0.597509 442.148L-0.597524 575.682L0.597524 575.682ZM9.89148 584.976C4.75859 584.976 0.597524 580.815 0.597524 575.682H-0.597524C-0.597524 581.475 4.09859 586.171 9.89148 586.171V584.976ZM484.661 584.976L9.89148 584.976L9.89148 586.171L484.661 586.172L484.661 584.976ZM484.681 584.976C484.681 584.976 484.681 584.976 484.681 584.976C484.681 584.976 484.681 584.976 484.681 584.976C484.681 584.976 484.681 584.976 484.681 584.976C484.681 584.976 484.681 584.976 484.681 584.976C484.681 584.976 484.681 584.976 484.681 584.976C484.681 584.976 484.681 584.976 484.681 584.976C484.681 584.976 484.681 584.976 484.681 584.976C484.681 584.976 484.681 584.976 484.681 584.976C484.681 584.976 484.681 584.976 484.681 584.976C484.681 584.976 484.681 584.976 484.681 584.976C484.681 584.976 484.681 584.976 484.681 584.976C484.681 584.976 484.681 584.976 484.681 584.976C484.681 584.976 484.681 584.976 484.681 584.976C484.681 584.976 484.681 584.976 484.681 584.976C484.68 584.976 484.68 584.976 484.68 584.976C484.68 584.976 484.68 584.976 484.68 584.976C484.68 584.976 484.68 584.976 484.68 584.976C484.68 584.976 484.68 584.976 484.68 584.976C484.68 584.976 484.68 584.976 484.68 584.976C484.68 584.976 484.68 584.976 484.68 584.976C484.68 584.976 484.68 584.976 484.68 584.976C484.68 584.976 484.68 584.976 484.68 584.976C484.68 584.976 484.68 584.976 484.68 584.976C484.68 584.976 484.68 584.976 484.68 584.976C484.68 584.976 484.68 584.976 484.68 584.976C484.68 584.976 484.68 584.976 484.68 584.976C484.68 584.976 484.68 584.976 484.68 584.976C484.68 584.976 484.68 584.976 484.68 584.976C484.68 584.976 484.68 584.976 484.68 584.976C484.68 584.976 484.68 584.976 484.68 584.976C484.68 584.976 484.68 584.976 484.68 584.976C484.68 584.976 484.68 584.976 484.68 584.976C484.68 584.976 484.68 584.976 484.68 584.976C484.68 584.976 484.68 584.976 484.68 584.976C484.68 584.976 484.68 584.976 484.68 584.976C484.68 584.976 484.68 584.976 484.68 584.976C484.68 584.976 484.68 584.976 484.68 584.976C484.68 584.976 484.68 584.976 484.68 584.976C484.68 584.976 484.68 584.976 484.68 584.976C484.68 584.976 484.679 584.976 484.679 584.976C484.679 584.976 484.679 584.976 484.679 584.976C484.679 584.976 484.679 584.976 484.679 584.976C484.679 584.976 484.679 584.976 484.679 584.976C484.679 584.976 484.679 584.976 484.679 584.976C484.679 584.976 484.679 584.976 484.679 584.976C484.679 584.976 484.679 584.976 484.679 584.976C484.679 584.976 484.679 584.976 484.679 584.976C484.679 584.976 484.679 584.976 484.679 584.976C484.679 584.976 484.679 584.976 484.679 584.976C484.679 584.976 484.679 584.976 484.679 584.976C484.679 584.976 484.679 584.976 484.679 584.976C484.679 584.976 484.679 584.976 484.679 584.976C484.679 584.976 484.679 584.976 484.679 584.976C484.679 584.976 484.679 584.976 484.679 584.976C484.679 584.976 484.679 584.976 484.679 584.976C484.679 584.976 484.679 584.976 484.679 584.976C484.679 584.976 484.679 584.976 484.679 584.976C484.679 584.976 484.679 584.976 484.679 584.976C484.679 584.976 484.679 584.976 484.679 584.976C484.679 584.976 484.679 584.976 484.679 584.976C484.679 584.976 484.679 584.976 484.679 584.976C484.679 584.976 484.679 584.976 484.679 584.976C484.679 584.976 484.679 584.976 484.679 584.976C484.679 584.976 484.679 584.976 484.679 584.976C484.679 584.976 484.679 584.976 484.678 584.976C484.678 584.976 484.678 584.976 484.678 584.976C484.678 584.976 484.678 584.976 484.678 584.976C484.678 584.976 484.678 584.976 484.678 584.976C484.678 584.976 484.678 584.976 484.678 584.976C484.678 584.976 484.678 584.976 484.678 584.976C484.678 584.976 484.678 584.976 484.678 584.976C484.678 584.976 484.678 584.976 484.678 584.976C484.678 584.976 484.678 584.976 484.678 584.976C484.678 584.976 484.678 584.976 484.678 584.976C484.678 584.976 484.678 584.976 484.678 584.976C484.678 584.976 484.678 584.976 484.678 584.976C484.678 584.976 484.678 584.976 484.678 584.976C484.678 584.976 484.678 584.976 484.678 584.976C484.678 584.976 484.678 584.976 484.678 584.976C484.678 584.976 484.678 584.976 484.678 584.976C484.678 584.976 484.678 584.976 484.678 584.976C484.678 584.976 484.678 584.976 484.678 584.976C484.678 584.976 484.678 584.976 484.678 584.976C484.678 584.976 484.678 584.976 484.678 584.976C484.678 584.976 484.678 584.976 484.678 584.976C484.678 584.976 484.678 584.976 484.678 584.976C484.678 584.976 484.678 584.976 484.678 584.976C484.678 584.976 484.678 584.976 484.678 584.976C484.678 584.976 484.678 584.976 484.678 584.976C484.678 584.976 484.678 584.976 484.678 584.976C484.677 584.976 484.677 584.976 484.677 584.976C484.677 584.976 484.677 584.976 484.677 584.976C484.677 584.976 484.677 584.976 484.677 584.976C484.677 584.976 484.677 584.976 484.677 584.976C484.677 584.976 484.677 584.976 484.677 584.976C484.677 584.976 484.677 584.976 484.677 584.976C484.677 584.976 484.677 584.976 484.677 584.976C484.677 584.976 484.677 584.976 484.677 584.976C484.677 584.976 484.677 584.976 484.677 584.976C484.677 584.976 484.677 584.976 484.677 584.976C484.677 584.976 484.677 584.976 484.677 584.976C484.677 584.976 484.677 584.976 484.677 584.976C484.677 584.976 484.677 584.976 484.677 584.976C484.677 584.976 484.677 584.976 484.677 584.976C484.677 584.976 484.677 584.976 484.677 584.976C484.677 584.976 484.677 584.976 484.677 584.976C484.677 584.976 484.677 584.976 484.677 584.976C484.677 584.976 484.677 584.976 484.677 584.976C484.677 584.976 484.677 584.976 484.677 584.976C484.677 584.976 484.677 584.976 484.677 584.976C484.677 584.976 484.677 584.976 484.677 584.976C484.677 584.976 484.677 584.976 484.677 584.976C484.677 584.976 484.677 584.976 484.677 584.976C484.677 584.976 484.677 584.976 484.677 584.976C484.677 584.976 484.677 584.976 484.677 584.976C484.677 584.976 484.676 584.976 484.676 584.976C484.676 584.976 484.676 584.976 484.676 584.976C484.676 584.976 484.676 584.976 484.676 584.976C484.676 584.976 484.676 584.976 484.676 584.976C484.676 584.976 484.676 584.976 484.676 584.976C484.676 584.976 484.676 584.976 484.676 584.976C484.676 584.976 484.676 584.976 484.676 584.976C484.676 584.976 484.676 584.976 484.676 584.976C484.676 584.976 484.676 584.976 484.676 584.976C484.676 584.976 484.676 584.976 484.676 584.976C484.676 584.976 484.676 584.976 484.676 584.976C484.676 584.976 484.676 584.976 484.676 584.976C484.676 584.976 484.676 584.976 484.676 584.976C484.676 584.976 484.676 584.976 484.676 584.976C484.676 584.976 484.676 584.976 484.676 584.976C484.676 584.976 484.676 584.976 484.676 584.976C484.676 584.976 484.676 584.976 484.676 584.976C484.676 584.976 484.676 584.976 484.676 584.976C484.676 584.976 484.676 584.976 484.676 584.976C484.676 584.976 484.676 584.976 484.676 584.976C484.676 584.976 484.676 584.976 484.676 584.976C484.676 584.976 484.676 584.976 484.676 584.976C484.676 584.976 484.676 584.976 484.676 584.976C484.676 584.976 484.676 584.976 484.676 584.976C484.676 584.976 484.676 584.976 484.676 584.976C484.676 584.976 484.676 584.976 484.675 584.976C484.675 584.976 484.675 584.976 484.675 584.976C484.675 584.976 484.675 584.976 484.675 584.976C484.675 584.976 484.675 584.976 484.675 584.976C484.675 584.976 484.675 584.976 484.675 584.976C484.675 584.976 484.675 584.976 484.675 584.976C484.675 584.976 484.675 584.976 484.675 584.976C484.675 584.976 484.675 584.976 484.675 584.976C484.675 584.976 484.675 584.976 484.675 584.976C484.675 584.976 484.675 584.976 484.675 584.976C484.675 584.976 484.675 584.976 484.675 584.976C484.675 584.976 484.675 584.976 484.675 584.976C484.675 584.976 484.675 584.976 484.675 584.976C484.675 584.976 484.675 584.976 484.675 584.976C484.675 584.976 484.675 584.976 484.675 584.976C484.675 584.976 484.675 584.976 484.675 584.976C484.675 584.976 484.675 584.976 484.675 584.976C484.675 584.976 484.675 584.976 484.675 584.976C484.675 584.976 484.675 584.976 484.675 584.976C484.675 584.976 484.675 584.976 484.675 584.976C484.675 584.976 484.675 584.976 484.675 584.976C484.675 584.976 484.675 584.976 484.675 584.976C484.675 584.976 484.675 584.976 484.675 584.976C484.675 584.976 484.675 584.976 484.675 584.976C484.675 584.976 484.675 584.976 484.675 584.976C484.675 584.976 484.675 584.976 484.675 584.976C484.674 584.976 484.674 584.976 484.674 584.976C484.674 584.976 484.674 584.976 484.674 584.976C484.674 584.976 484.674 584.976 484.674 584.976C484.674 584.976 484.674 584.976 484.674 584.976C484.674 584.976 484.674 584.976 484.674 584.976C484.674 584.976 484.674 584.976 484.674 584.976C484.674 584.976 484.674 584.976 484.674 584.976C484.674 584.976 484.674 584.976 484.674 584.976C484.674 584.976 484.674 584.976 484.674 584.976C484.674 584.976 484.674 584.976 484.674 584.976C484.674 584.976 484.674 584.976 484.674 584.976C484.674 584.976 484.674 584.976 484.674 584.976C484.674 584.976 484.674 584.976 484.674 584.976C484.674 584.976 484.674 584.976 484.674 584.976C484.674 584.976 484.674 584.976 484.674 584.976C484.674 584.976 484.674 584.976 484.674 584.976C484.674 584.976 484.674 584.976 484.674 584.976C484.674 584.976 484.674 584.976 484.674 584.976C484.674 584.976 484.674 584.976 484.674 584.976C484.674 584.976 484.674 584.976 484.674 584.976C484.674 584.976 484.674 584.976 484.674 584.976C484.674 584.976 484.674 584.976 484.674 584.976C484.674 584.976 484.674 584.976 484.674 584.976C484.674 584.976 484.674 584.976 484.674 584.976C484.674 584.976 484.674 584.976 484.674 584.976C484.674 584.976 484.673 584.976 484.673 584.976C484.673 584.976 484.673 584.976 484.673 584.976C484.673 584.976 484.673 584.976 484.673 584.976C484.673 584.976 484.673 584.976 484.673 584.976C484.673 584.976 484.673 584.976 484.673 584.976C484.673 584.976 484.673 584.976 484.673 584.976C484.673 584.976 484.673 584.976 484.673 584.976C484.673 584.976 484.673 584.976 484.673 584.976C484.673 584.976 484.673 584.976 484.673 584.976C484.673 584.976 484.673 584.976 484.673 584.976C484.673 584.976 484.673 584.976 484.673 584.976C484.673 584.976 484.673 584.976 484.673 584.976C484.673 584.976 484.673 584.976 484.673 584.976C484.673 584.976 484.673 584.976 484.673 584.976C484.673 584.976 484.673 584.976 484.673 584.976C484.673 584.976 484.673 584.976 484.673 584.976C484.673 584.976 484.673 584.976 484.673 584.976C484.673 584.976 484.673 584.976 484.673 584.976C484.673 584.976 484.673 584.976 484.673 584.976C484.673 584.976 484.673 584.976 484.673 584.976C484.673 584.976 484.673 584.976 484.673 584.976C484.673 584.976 484.673 584.976 484.673 584.976C484.673 584.976 484.673 584.976 484.673 584.976C484.673 584.976 484.673 584.976 484.673 584.976C484.673 584.976 484.673 584.976 484.673 584.976C484.673 584.976 484.673 584.976 484.672 584.976C484.672 584.976 484.672 584.976 484.672 584.976C484.672 584.976 484.672 584.976 484.672 584.976C484.672 584.976 484.672 584.976 484.672 584.976C484.672 584.976 484.672 584.976 484.672 584.976C484.672 584.976 484.672 584.976 484.672 584.976C484.672 584.976 484.672 584.976 484.672 584.976C484.672 584.976 484.672 584.976 484.672 584.976C484.672 584.976 484.672 584.976 484.672 584.976C484.672 584.976 484.672 584.976 484.672 584.976C484.672 584.976 484.672 584.976 484.672 584.976C484.672 584.976 484.672 584.976 484.672 584.976C484.672 584.976 484.672 584.976 484.672 584.976C484.672 584.976 484.672 584.976 484.672 584.976C484.672 584.976 484.672 584.976 484.672 584.976C484.672 584.976 484.672 584.976 484.672 584.976C484.672 584.976 484.672 584.976 484.672 584.976C484.672 584.976 484.672 584.976 484.672 584.976C484.672 584.976 484.672 584.976 484.672 584.976C484.672 584.976 484.672 584.976 484.672 584.976C484.672 584.976 484.672 584.976 484.672 584.976C484.672 584.976 484.672 584.976 484.672 584.976C484.672 584.976 484.672 584.976 484.672 584.976C484.672 584.976 484.672 584.976 484.672 584.976C484.672 584.976 484.672 584.976 484.672 584.976C484.672 584.976 484.672 584.976 484.672 584.976C484.671 584.976 484.671 584.976 484.671 584.976C484.671 584.976 484.671 584.976 484.671 584.976C484.671 584.976 484.671 584.976 484.671 584.976C484.671 584.976 484.671 584.976 484.671 584.976C484.671 584.976 484.671 584.976 484.671 584.976C484.671 584.976 484.671 584.976 484.671 584.976C484.671 584.976 484.671 584.976 484.671 584.976C484.671 584.976 484.671 584.976 484.671 584.976C484.671 584.976 484.671 584.976 484.671 584.976C484.671 584.976 484.671 584.976 484.671 584.976C484.671 584.976 484.671 584.976 484.671 584.976C484.671 584.976 484.671 584.976 484.671 584.976C484.671 584.976 484.671 584.976 484.671 584.976C484.671 584.976 484.671 584.976 484.671 584.976C484.671 584.976 484.671 584.976 484.671 584.976C484.671 584.976 484.671 584.976 484.671 584.976C484.671 584.976 484.671 584.976 484.671 584.976C484.671 584.976 484.671 584.976 484.671 584.976C484.671 584.976 484.671 584.976 484.671 584.976C484.671 584.976 484.671 584.976 484.671 584.976C484.671 584.976 484.671 584.976 484.671 584.976C484.671 584.976 484.671 584.976 484.671 584.976C484.671 584.976 484.671 584.976 484.671 584.976C484.671 584.976 484.671 584.976 484.671 584.976C484.671 584.976 484.671 584.976 484.671 584.976C484.671 584.976 484.67 584.976 484.67 584.976C484.67 584.976 484.67 584.976 484.67 584.976C484.67 584.976 484.67 584.976 484.67 584.976C484.67 584.976 484.67 584.976 484.67 584.976C484.67 584.976 484.67 584.976 484.67 584.976C484.67 584.976 484.67 584.976 484.67 584.976C484.67 584.976 484.67 584.976 484.67 584.976C484.67 584.976 484.67 584.976 484.67 584.976C484.67 584.976 484.67 584.976 484.67 584.976C484.67 584.976 484.67 584.976 484.67 584.976C484.67 584.976 484.67 584.976 484.67 584.976C484.67 584.976 484.67 584.976 484.67 584.976C484.67 584.976 484.67 584.976 484.67 584.976C484.67 584.976 484.67 584.976 484.67 584.976C484.67 584.976 484.67 584.976 484.67 584.976C484.67 584.976 484.67 584.976 484.67 584.976C484.67 584.976 484.67 584.976 484.67 584.976C484.67 584.976 484.67 584.976 484.67 584.976C484.67 584.976 484.67 584.976 484.67 584.976C484.67 584.976 484.67 584.976 484.67 584.976C484.67 584.976 484.67 584.976 484.67 584.976C484.67 584.976 484.67 584.976 484.67 584.976C484.67 584.976 484.67 584.976 484.67 584.976C484.67 584.976 484.67 584.976 484.67 584.976C484.67 584.976 484.67 584.976 484.67 584.976C484.67 584.976 484.67 584.976 484.67 584.976C484.669 584.976 484.669 584.976 484.669 584.976C484.669 584.976 484.669 584.976 484.669 584.976C484.669 584.976 484.669 584.976 484.669 584.976C484.669 584.976 484.669 584.976 484.669 584.976C484.669 584.976 484.669 584.976 484.669 584.976C484.669 584.976 484.669 584.976 484.669 584.976C484.669 584.976 484.669 584.976 484.669 584.976C484.669 584.976 484.669 584.976 484.669 584.976C484.669 584.976 484.669 584.976 484.669 584.976C484.669 584.976 484.669 584.976 484.669 584.976C484.669 584.976 484.669 584.976 484.669 584.976C484.669 584.976 484.669 584.976 484.669 584.976C484.669 584.976 484.669 584.976 484.669 584.976C484.669 584.976 484.669 584.976 484.669 584.976C484.669 584.976 484.669 584.976 484.669 584.976C484.669 584.976 484.669 584.976 484.669 584.976C484.669 584.976 484.669 584.976 484.669 584.976C484.669 584.976 484.669 584.976 484.669 584.976C484.669 584.976 484.669 584.976 484.669 584.976C484.669 584.976 484.669 584.976 484.669 584.976C484.669 584.976 484.669 584.976 484.669 584.976C484.669 584.976 484.669 584.976 484.669 584.976C484.669 584.976 484.669 584.976 484.669 584.976C484.669 584.976 484.669 584.976 484.669 584.976C484.669 584.976 484.669 584.976 484.669 584.976C484.669 584.976 484.668 584.976 484.668 584.976C484.668 584.976 484.668 584.976 484.668 584.976C484.668 584.976 484.668 584.976 484.668 584.976C484.668 584.976 484.668 584.976 484.668 584.976C484.668 584.976 484.668 584.976 484.668 584.976C484.668 584.976 484.668 584.976 484.668 584.976C484.668 584.976 484.668 584.976 484.668 584.976C484.668 584.976 484.668 584.976 484.668 584.976C484.668 584.976 484.668 584.976 484.668 584.976C484.668 584.976 484.668 584.976 484.668 584.976C484.668 584.976 484.668 584.976 484.668 584.976C484.668 584.976 484.668 584.976 484.668 584.976C484.668 584.976 484.668 584.976 484.668 584.976C484.668 584.976 484.668 584.976 484.668 584.976C484.668 584.976 484.668 584.976 484.668 584.976C484.668 584.976 484.668 584.976 484.668 584.976C484.668 584.976 484.668 584.976 484.668 584.976C484.668 584.976 484.668 584.976 484.668 584.976C484.668 584.976 484.668 584.976 484.668 584.976C484.668 584.976 484.668 584.976 484.668 584.976C484.668 584.976 484.668 584.976 484.668 584.976C484.668 584.976 484.668 584.976 484.668 584.976C484.668 584.976 484.668 584.976 484.668 584.976C484.668 584.976 484.668 584.976 484.668 584.976C484.668 584.976 484.668 584.976 484.668 584.976C484.668 584.976 484.668 584.976 484.667 584.976C484.667 584.976 484.667 584.976 484.667 584.976C484.667 584.976 484.667 584.976 484.667 584.976C484.667 584.976 484.667 584.976 484.667 584.976C484.667 584.976 484.667 584.976 484.667 584.976C484.667 584.976 484.667 584.976 484.667 584.976C484.667 584.976 484.667 584.976 484.667 584.976C484.667 584.976 484.667 584.976 484.667 584.976C484.667 584.976 484.667 584.976 484.667 584.976C484.667 584.976 484.667 584.976 484.667 584.976C484.667 584.976 484.667 584.976 484.667 584.976C484.667 584.976 484.667 584.976 484.667 584.976C484.667 584.976 484.667 584.976 484.667 584.976C484.667 584.976 484.667 584.976 484.667 584.976C484.667 584.976 484.667 584.976 484.667 584.976C484.667 584.976 484.667 584.976 484.667 584.976C484.667 584.976 484.667 584.976 484.667 584.976C484.667 584.976 484.667 584.976 484.667 584.976C484.667 584.976 484.667 584.976 484.667 584.976C484.667 584.976 484.667 584.976 484.667 584.976C484.667 584.976 484.667 584.976 484.667 584.976C484.667 584.976 484.667 584.976 484.667 584.976C484.667 584.976 484.667 584.976 484.667 584.976C484.667 584.976 484.667 584.976 484.667 584.976C484.667 584.976 484.667 584.976 484.667 584.976C484.667 584.976 484.667 584.976 484.667 584.976C484.666 584.976 484.666 584.976 484.666 584.976C484.666 584.976 484.666 584.976 484.666 584.976C484.666 584.976 484.666 584.976 484.666 584.976C484.666 584.976 484.666 584.976 484.666 584.976C484.666 584.976 484.666 584.976 484.666 584.976C484.666 584.976 484.666 584.976 484.666 584.976C484.666 584.976 484.666 584.976 484.666 584.976C484.666 584.976 484.666 584.976 484.666 584.976C484.666 584.976 484.666 584.976 484.666 584.976C484.666 584.976 484.666 584.976 484.666 584.976C484.666 584.976 484.666 584.976 484.666 584.976C484.666 584.976 484.666 584.976 484.666 584.976C484.666 584.976 484.666 584.976 484.666 584.976C484.666 584.976 484.666 584.976 484.666 584.976C484.666 584.976 484.666 584.976 484.666 584.976C484.666 584.976 484.666 584.976 484.666 584.976C484.666 584.976 484.666 584.976 484.666 584.976C484.666 584.976 484.666 584.976 484.666 584.976C484.666 584.976 484.666 584.976 484.666 584.976C484.666 584.976 484.666 584.976 484.666 584.976C484.666 584.976 484.666 584.976 484.666 584.976C484.666 584.976 484.666 584.976 484.666 584.976C484.666 584.976 484.666 584.976 484.666 584.976C484.666 584.976 484.666 584.976 484.666 584.976C484.666 584.976 484.666 584.976 484.666 584.976C484.666 584.976 484.665 584.976 484.665 584.976C484.665 584.976 484.665 584.976 484.665 584.976C484.665 584.976 484.665 584.976 484.665 584.976C484.665 584.976 484.665 584.976 484.665 584.976C484.665 584.976 484.665 584.976 484.665 584.976C484.665 584.976 484.665 584.976 484.665 584.976C484.665 584.976 484.665 584.976 484.665 584.976C484.665 584.976 484.665 584.976 484.665 584.976C484.665 584.976 484.665 584.976 484.665 584.976C484.665 584.976 484.665 584.976 484.665 584.976C484.665 584.976 484.665 584.976 484.665 584.976C484.665 584.976 484.665 584.976 484.665 584.976C484.665 584.976 484.665 584.976 484.665 584.976C484.665 584.976 484.665 584.976 484.665 584.976C484.665 584.976 484.665 584.976 484.665 584.976C484.665 584.976 484.665 584.976 484.665 584.976C484.665 584.976 484.665 584.976 484.665 584.976C484.665 584.976 484.665 584.976 484.665 584.976C484.665 584.976 484.665 584.976 484.665 584.976C484.665 584.976 484.665 584.976 484.665 584.976C484.665 584.976 484.665 584.976 484.665 584.976C484.665 584.976 484.665 584.976 484.665 584.976C484.665 584.976 484.665 584.976 484.665 584.976C484.665 584.976 484.665 584.976 484.665 584.976C484.665 584.976 484.665 584.976 484.665 584.976C484.665 584.976 484.665 584.976 484.664 584.976C484.664 584.976 484.664 584.976 484.664 584.976C484.664 584.976 484.664 584.976 484.664 584.976C484.664 584.976 484.664 584.976 484.664 584.976C484.664 584.976 484.664 584.976 484.664 584.976C484.664 584.976 484.664 584.976 484.664 584.976C484.664 584.976 484.664 584.976 484.664 584.976C484.664 584.976 484.664 584.976 484.664 584.976C484.664 584.976 484.664 584.976 484.664 584.976C484.664 584.976 484.664 584.976 484.664 584.976C484.664 584.976 484.664 584.976 484.664 584.976C484.664 584.976 484.664 584.976 484.664 584.976C484.664 584.976 484.664 584.976 484.664 584.976C484.664 584.976 484.664 584.976 484.664 584.976C484.664 584.976 484.664 584.976 484.664 584.976C484.664 584.976 484.664 584.976 484.664 584.976C484.664 584.976 484.664 584.976 484.664 584.976C484.664 584.976 484.664 584.976 484.664 584.976C484.664 584.976 484.664 584.976 484.664 584.976C484.664 584.976 484.664 584.976 484.664 584.976C484.664 584.976 484.664 584.976 484.664 584.976C484.664 584.976 484.664 584.976 484.664 584.976C484.664 584.976 484.664 584.976 484.664 584.976C484.664 584.976 484.664 584.976 484.664 584.976C484.664 584.976 484.664 584.976 484.664 584.976C484.664 584.976 484.664 584.976 484.664 584.976C484.663 584.976 484.663 584.976 484.663 584.976C484.663 584.976 484.663 584.976 484.663 584.976C484.663 584.976 484.663 584.976 484.663 584.976C484.663 584.976 484.663 584.976 484.663 584.976C484.663 584.976 484.663 584.976 484.663 584.976C484.663 584.976 484.663 584.976 484.663 584.976C484.663 584.976 484.663 584.976 484.663 584.976C484.663 584.976 484.663 584.976 484.663 584.976C484.663 584.976 484.663 584.976 484.663 584.976C484.663 584.976 484.663 584.976 484.663 584.976C484.663 584.976 484.663 584.976 484.663 584.976C484.663 584.976 484.663 584.976 484.663 584.976C484.663 584.976 484.663 584.976 484.663 584.976C484.663 584.976 484.663 584.976 484.663 584.976C484.663 584.976 484.663 584.976 484.663 584.976C484.663 584.976 484.663 584.976 484.663 584.976C484.663 584.976 484.663 584.976 484.663 584.976C484.663 584.976 484.663 584.976 484.663 584.976C484.663 584.976 484.663 584.976 484.663 584.976C484.663 584.976 484.663 584.976 484.663 584.976C484.663 584.976 484.663 584.976 484.663 584.976C484.663 584.976 484.663 584.976 484.663 584.976C484.663 584.976 484.663 584.976 484.663 584.976C484.663 584.976 484.663 584.976 484.663 584.976C484.663 584.976 484.663 584.976 484.663 584.976C484.663 584.976 484.662 584.976 484.662 584.976C484.662 584.976 484.662 584.976 484.662 584.976C484.662 584.976 484.662 584.976 484.662 584.976C484.662 584.976 484.662 584.976 484.662 584.976C484.662 584.976 484.662 584.976 484.662 584.976C484.662 584.976 484.662 584.976 484.662 584.976C484.662 584.976 484.662 584.976 484.662 584.976C484.662 584.976 484.662 584.976 484.662 584.976C484.662 584.976 484.662 584.976 484.662 584.976C484.662 584.976 484.662 584.976 484.662 584.976C484.662 584.976 484.662 584.976 484.662 584.976C484.662 584.976 484.662 584.976 484.662 584.976C484.662 584.976 484.662 584.976 484.662 584.976C484.662 584.976 484.662 584.976 484.662 584.976C484.662 584.976 484.662 584.976 484.662 584.976C484.662 584.976 484.662 584.976 484.662 584.976C484.662 584.976 484.662 584.976 484.662 584.976C484.662 584.976 484.662 584.976 484.662 584.976C484.662 584.976 484.662 584.976 484.662 584.976C484.662 584.976 484.662 584.976 484.662 584.976C484.662 584.976 484.662 584.976 484.662 584.976C484.662 584.976 484.662 584.976 484.662 584.976C484.662 584.976 484.662 584.976 484.662 584.976C484.662 584.976 484.662 584.976 484.662 584.976C484.662 584.976 484.662 584.976 484.662 584.976C484.662 584.976 484.662 584.976 484.661 584.976C484.661 584.976 484.661 584.976 484.661 584.976C484.661 584.976 484.661 584.976 484.661 584.976C484.661 584.976 484.661 584.976 484.661 584.976C484.661 584.976 484.661 584.976 484.661 584.976C484.661 584.976 484.661 584.976 484.661 584.976C484.661 584.976 484.661 584.976 484.661 584.976C484.661 584.976 484.661 584.976 484.661 584.976C484.661 584.976 484.661 584.976 484.661 584.976C484.661 584.976 484.661 584.976 484.661 584.976C484.661 584.976 484.661 584.976 484.661 584.976C484.661 584.976 484.661 584.976 484.661 584.976C484.661 584.976 484.661 584.976 484.661 584.976C484.661 584.976 484.661 584.976 484.661 584.976C484.661 584.976 484.661 584.976 484.661 584.976C484.661 584.976 484.661 584.976 484.661 584.976C484.661 584.976 484.661 584.976 484.661 584.976V586.172C484.661 586.172 484.661 586.172 484.661 586.172C484.661 586.172 484.661 586.172 484.661 586.172C484.661 586.172 484.661 586.172 484.661 586.172C484.661 586.172 484.661 586.172 484.661 586.172C484.661 586.172 484.661 586.172 484.661 586.172C484.661 586.172 484.661 586.172 484.661 586.172C484.661 586.172 484.661 586.172 484.661 586.172C484.661 586.172 484.661 586.172 484.661 586.172C484.661 586.172 484.661 586.172 484.661 586.172C484.661 586.172 484.661 586.172 484.661 586.172C484.661 586.172 484.661 586.172 484.661 586.172C484.661 586.172 484.661 586.172 484.661 586.172C484.661 586.172 484.661 586.172 484.661 586.172C484.661 586.172 484.661 586.172 484.661 586.172C484.661 586.172 484.661 586.172 484.661 586.172C484.661 586.172 484.661 586.172 484.661 586.172C484.662 586.172 484.662 586.172 484.662 586.172C484.662 586.172 484.662 586.172 484.662 586.172C484.662 586.172 484.662 586.172 484.662 586.172C484.662 586.172 484.662 586.172 484.662 586.172C484.662 586.172 484.662 586.172 484.662 586.172C484.662 586.172 484.662 586.172 484.662 586.172C484.662 586.172 484.662 586.172 484.662 586.172C484.662 586.172 484.662 586.172 484.662 586.172C484.662 586.172 484.662 586.172 484.662 586.172C484.662 586.172 484.662 586.172 484.662 586.172C484.662 586.172 484.662 586.172 484.662 586.172C484.662 586.172 484.662 586.172 484.662 586.172C484.662 586.172 484.662 586.172 484.662 586.172C484.662 586.172 484.662 586.172 484.662 586.172C484.662 586.172 484.662 586.172 484.662 586.172C484.662 586.172 484.662 586.172 484.662 586.172C484.662 586.172 484.662 586.172 484.662 586.172C484.662 586.172 484.662 586.172 484.662 586.172C484.662 586.172 484.662 586.172 484.662 586.172C484.662 586.172 484.662 586.172 484.662 586.172C484.662 586.172 484.662 586.172 484.662 586.172C484.662 586.172 484.662 586.172 484.662 586.172C484.662 586.172 484.662 586.172 484.662 586.172C484.662 586.172 484.662 586.172 484.662 586.172C484.662 586.172 484.662 586.172 484.662 586.172C484.662 586.172 484.663 586.172 484.663 586.172C484.663 586.172 484.663 586.172 484.663 586.172C484.663 586.172 484.663 586.172 484.663 586.172C484.663 586.172 484.663 586.172 484.663 586.172C484.663 586.172 484.663 586.172 484.663 586.172C484.663 586.172 484.663 586.172 484.663 586.172C484.663 586.172 484.663 586.172 484.663 586.172C484.663 586.172 484.663 586.172 484.663 586.172C484.663 586.172 484.663 586.172 484.663 586.172C484.663 586.172 484.663 586.172 484.663 586.172C484.663 586.172 484.663 586.172 484.663 586.172C484.663 586.172 484.663 586.172 484.663 586.172C484.663 586.172 484.663 586.172 484.663 586.172C484.663 586.172 484.663 586.172 484.663 586.172C484.663 586.172 484.663 586.172 484.663 586.172C484.663 586.172 484.663 586.172 484.663 586.172C484.663 586.172 484.663 586.172 484.663 586.172C484.663 586.172 484.663 586.172 484.663 586.172C484.663 586.172 484.663 586.172 484.663 586.172C484.663 586.172 484.663 586.172 484.663 586.172C484.663 586.172 484.663 586.172 484.663 586.172C484.663 586.172 484.663 586.172 484.663 586.172C484.663 586.172 484.663 586.172 484.663 586.172C484.663 586.172 484.663 586.172 484.663 586.172C484.663 586.172 484.663 586.172 484.663 586.172C484.663 586.172 484.663 586.172 484.664 586.172C484.664 586.172 484.664 586.172 484.664 586.172C484.664 586.172 484.664 586.172 484.664 586.172C484.664 586.172 484.664 586.172 484.664 586.172C484.664 586.172 484.664 586.172 484.664 586.172C484.664 586.172 484.664 586.172 484.664 586.172C484.664 586.172 484.664 586.172 484.664 586.172C484.664 586.172 484.664 586.172 484.664 586.172C484.664 586.172 484.664 586.172 484.664 586.172C484.664 586.172 484.664 586.172 484.664 586.172C484.664 586.172 484.664 586.172 484.664 586.172C484.664 586.172 484.664 586.172 484.664 586.172C484.664 586.172 484.664 586.172 484.664 586.172C484.664 586.172 484.664 586.172 484.664 586.172C484.664 586.172 484.664 586.172 484.664 586.172C484.664 586.172 484.664 586.172 484.664 586.172C484.664 586.172 484.664 586.172 484.664 586.172C484.664 586.172 484.664 586.172 484.664 586.172C484.664 586.172 484.664 586.172 484.664 586.172C484.664 586.172 484.664 586.172 484.664 586.172C484.664 586.172 484.664 586.172 484.664 586.172C484.664 586.172 484.664 586.172 484.664 586.172C484.664 586.172 484.664 586.172 484.664 586.172C484.664 586.172 484.664 586.172 484.664 586.172C484.664 586.172 484.664 586.172 484.664 586.172C484.664 586.172 484.664 586.172 484.664 586.172C484.665 586.172 484.665 586.172 484.665 586.172C484.665 586.172 484.665 586.172 484.665 586.172C484.665 586.172 484.665 586.172 484.665 586.172C484.665 586.172 484.665 586.172 484.665 586.172C484.665 586.172 484.665 586.172 484.665 586.172C484.665 586.172 484.665 586.172 484.665 586.172C484.665 586.172 484.665 586.172 484.665 586.172C484.665 586.172 484.665 586.172 484.665 586.172C484.665 586.172 484.665 586.172 484.665 586.172C484.665 586.172 484.665 586.172 484.665 586.172C484.665 586.172 484.665 586.172 484.665 586.172C484.665 586.172 484.665 586.172 484.665 586.172C484.665 586.172 484.665 586.172 484.665 586.172C484.665 586.172 484.665 586.172 484.665 586.172C484.665 586.172 484.665 586.172 484.665 586.172C484.665 586.172 484.665 586.172 484.665 586.172C484.665 586.172 484.665 586.172 484.665 586.172C484.665 586.172 484.665 586.172 484.665 586.172C484.665 586.172 484.665 586.172 484.665 586.172C484.665 586.172 484.665 586.172 484.665 586.172C484.665 586.172 484.665 586.172 484.665 586.172C484.665 586.172 484.665 586.172 484.665 586.172C484.665 586.172 484.665 586.172 484.665 586.172C484.665 586.172 484.665 586.172 484.665 586.172C484.665 586.172 484.665 586.172 484.665 586.172C484.665 586.172 484.666 586.172 484.666 586.172C484.666 586.172 484.666 586.172 484.666 586.172C484.666 586.172 484.666 586.172 484.666 586.172C484.666 586.172 484.666 586.172 484.666 586.172C484.666 586.172 484.666 586.172 484.666 586.172C484.666 586.172 484.666 586.172 484.666 586.172C484.666 586.172 484.666 586.172 484.666 586.172C484.666 586.172 484.666 586.172 484.666 586.172C484.666 586.172 484.666 586.172 484.666 586.172C484.666 586.172 484.666 586.172 484.666 586.172C484.666 586.172 484.666 586.172 484.666 586.172C484.666 586.172 484.666 586.172 484.666 586.172C484.666 586.172 484.666 586.172 484.666 586.172C484.666 586.172 484.666 586.172 484.666 586.172C484.666 586.172 484.666 586.172 484.666 586.172C484.666 586.172 484.666 586.172 484.666 586.172C484.666 586.172 484.666 586.172 484.666 586.172C484.666 586.172 484.666 586.172 484.666 586.172C484.666 586.172 484.666 586.172 484.666 586.172C484.666 586.172 484.666 586.172 484.666 586.172C484.666 586.172 484.666 586.172 484.666 586.172C484.666 586.172 484.666 586.172 484.666 586.172C484.666 586.172 484.666 586.172 484.666 586.172C484.666 586.172 484.666 586.172 484.666 586.172C484.666 586.172 484.666 586.172 484.666 586.172C484.666 586.172 484.666 586.172 484.667 586.172C484.667 586.172 484.667 586.172 484.667 586.172C484.667 586.172 484.667 586.172 484.667 586.172C484.667 586.172 484.667 586.172 484.667 586.172C484.667 586.172 484.667 586.172 484.667 586.172C484.667 586.172 484.667 586.172 484.667 586.172C484.667 586.172 484.667 586.172 484.667 586.172C484.667 586.172 484.667 586.172 484.667 586.172C484.667 586.172 484.667 586.172 484.667 586.172C484.667 586.172 484.667 586.172 484.667 586.172C484.667 586.172 484.667 586.172 484.667 586.172C484.667 586.172 484.667 586.172 484.667 586.172C484.667 586.172 484.667 586.172 484.667 586.172C484.667 586.172 484.667 586.172 484.667 586.172C484.667 586.172 484.667 586.172 484.667 586.172C484.667 586.172 484.667 586.172 484.667 586.172C484.667 586.172 484.667 586.172 484.667 586.172C484.667 586.172 484.667 586.172 484.667 586.172C484.667 586.172 484.667 586.172 484.667 586.172C484.667 586.172 484.667 586.172 484.667 586.172C484.667 586.172 484.667 586.172 484.667 586.172C484.667 586.172 484.667 586.172 484.667 586.172C484.667 586.172 484.667 586.172 484.667 586.172C484.667 586.172 484.667 586.172 484.667 586.172C484.667 586.172 484.667 586.172 484.667 586.172C484.667 586.172 484.667 586.172 484.667 586.172C484.668 586.172 484.668 586.172 484.668 586.172C484.668 586.172 484.668 586.172 484.668 586.172C484.668 586.172 484.668 586.172 484.668 586.172C484.668 586.172 484.668 586.172 484.668 586.172C484.668 586.172 484.668 586.172 484.668 586.172C484.668 586.172 484.668 586.172 484.668 586.172C484.668 586.172 484.668 586.172 484.668 586.172C484.668 586.172 484.668 586.172 484.668 586.172C484.668 586.172 484.668 586.172 484.668 586.172C484.668 586.172 484.668 586.172 484.668 586.172C484.668 586.172 484.668 586.172 484.668 586.172C484.668 586.172 484.668 586.172 484.668 586.172C484.668 586.172 484.668 586.172 484.668 586.172C484.668 586.172 484.668 586.172 484.668 586.172C484.668 586.172 484.668 586.172 484.668 586.172C484.668 586.172 484.668 586.172 484.668 586.172C484.668 586.172 484.668 586.172 484.668 586.172C484.668 586.172 484.668 586.172 484.668 586.172C484.668 586.172 484.668 586.172 484.668 586.172C484.668 586.172 484.668 586.172 484.668 586.172C484.668 586.172 484.668 586.172 484.668 586.172C484.668 586.172 484.668 586.172 484.668 586.172C484.668 586.172 484.668 586.172 484.668 586.172C484.668 586.172 484.668 586.172 484.668 586.172C484.668 586.172 484.668 586.172 484.668 586.172C484.668 586.172 484.669 586.172 484.669 586.172C484.669 586.172 484.669 586.172 484.669 586.172C484.669 586.172 484.669 586.172 484.669 586.172C484.669 586.172 484.669 586.172 484.669 586.172C484.669 586.172 484.669 586.172 484.669 586.172C484.669 586.172 484.669 586.172 484.669 586.172C484.669 586.172 484.669 586.172 484.669 586.172C484.669 586.172 484.669 586.172 484.669 586.172C484.669 586.172 484.669 586.172 484.669 586.172C484.669 586.172 484.669 586.172 484.669 586.172C484.669 586.172 484.669 586.172 484.669 586.172C484.669 586.172 484.669 586.172 484.669 586.172C484.669 586.172 484.669 586.172 484.669 586.172C484.669 586.172 484.669 586.172 484.669 586.172C484.669 586.172 484.669 586.172 484.669 586.172C484.669 586.172 484.669 586.172 484.669 586.172C484.669 586.172 484.669 586.172 484.669 586.172C484.669 586.172 484.669 586.172 484.669 586.172C484.669 586.172 484.669 586.172 484.669 586.172C484.669 586.172 484.669 586.172 484.669 586.172C484.669 586.172 484.669 586.172 484.669 586.172C484.669 586.172 484.669 586.172 484.669 586.172C484.669 586.172 484.669 586.172 484.669 586.172C484.669 586.172 484.669 586.172 484.669 586.172C484.669 586.172 484.669 586.172 484.669 586.172C484.669 586.172 484.669 586.172 484.67 586.172C484.67 586.172 484.67 586.172 484.67 586.172C484.67 586.172 484.67 586.172 484.67 586.172C484.67 586.172 484.67 586.172 484.67 586.172C484.67 586.172 484.67 586.172 484.67 586.172C484.67 586.172 484.67 586.172 484.67 586.172C484.67 586.172 484.67 586.172 484.67 586.172C484.67 586.172 484.67 586.172 484.67 586.172C484.67 586.172 484.67 586.172 484.67 586.172C484.67 586.172 484.67 586.172 484.67 586.172C484.67 586.172 484.67 586.172 484.67 586.172C484.67 586.172 484.67 586.172 484.67 586.172C484.67 586.172 484.67 586.172 484.67 586.172C484.67 586.172 484.67 586.172 484.67 586.172C484.67 586.172 484.67 586.172 484.67 586.172C484.67 586.172 484.67 586.172 484.67 586.172C484.67 586.172 484.67 586.172 484.67 586.172C484.67 586.172 484.67 586.172 484.67 586.172C484.67 586.172 484.67 586.172 484.67 586.172C484.67 586.172 484.67 586.172 484.67 586.172C484.67 586.172 484.67 586.172 484.67 586.172C484.67 586.172 484.67 586.172 484.67 586.172C484.67 586.172 484.67 586.172 484.67 586.172C484.67 586.172 484.67 586.172 484.67 586.172C484.67 586.172 484.67 586.172 484.67 586.172C484.67 586.172 484.67 586.172 484.67 586.172C484.67 586.172 484.671 586.172 484.671 586.172C484.671 586.172 484.671 586.172 484.671 586.172C484.671 586.172 484.671 586.172 484.671 586.172C484.671 586.172 484.671 586.172 484.671 586.172C484.671 586.172 484.671 586.172 484.671 586.172C484.671 586.172 484.671 586.172 484.671 586.172C484.671 586.172 484.671 586.172 484.671 586.172C484.671 586.172 484.671 586.172 484.671 586.172C484.671 586.172 484.671 586.172 484.671 586.172C484.671 586.172 484.671 586.172 484.671 586.172C484.671 586.172 484.671 586.172 484.671 586.172C484.671 586.172 484.671 586.172 484.671 586.172C484.671 586.172 484.671 586.172 484.671 586.172C484.671 586.172 484.671 586.172 484.671 586.172C484.671 586.172 484.671 586.172 484.671 586.172C484.671 586.172 484.671 586.172 484.671 586.172C484.671 586.172 484.671 586.172 484.671 586.172C484.671 586.172 484.671 586.172 484.671 586.172C484.671 586.172 484.671 586.172 484.671 586.172C484.671 586.172 484.671 586.172 484.671 586.172C484.671 586.172 484.671 586.172 484.671 586.172C484.671 586.172 484.671 586.172 484.671 586.172C484.671 586.172 484.671 586.172 484.671 586.172C484.671 586.172 484.671 586.172 484.671 586.172C484.671 586.172 484.671 586.172 484.671 586.172C484.671 586.172 484.671 586.172 484.672 586.172C484.672 586.172 484.672 586.172 484.672 586.172C484.672 586.172 484.672 586.172 484.672 586.172C484.672 586.172 484.672 586.172 484.672 586.172C484.672 586.172 484.672 586.172 484.672 586.172C484.672 586.172 484.672 586.172 484.672 586.172C484.672 586.172 484.672 586.172 484.672 586.172C484.672 586.172 484.672 586.172 484.672 586.172C484.672 586.172 484.672 586.172 484.672 586.172C484.672 586.172 484.672 586.172 484.672 586.172C484.672 586.172 484.672 586.172 484.672 586.172C484.672 586.172 484.672 586.172 484.672 586.172C484.672 586.172 484.672 586.172 484.672 586.172C484.672 586.172 484.672 586.172 484.672 586.172C484.672 586.172 484.672 586.172 484.672 586.172C484.672 586.172 484.672 586.172 484.672 586.172C484.672 586.172 484.672 586.172 484.672 586.172C484.672 586.172 484.672 586.172 484.672 586.172C484.672 586.172 484.672 586.172 484.672 586.172C484.672 586.172 484.672 586.172 484.672 586.172C484.672 586.172 484.672 586.172 484.672 586.172C484.672 586.172 484.672 586.172 484.672 586.172C484.672 586.172 484.672 586.172 484.672 586.172C484.672 586.172 484.672 586.172 484.672 586.172C484.672 586.172 484.672 586.172 484.672 586.172C484.672 586.172 484.672 586.172 484.672 586.172C484.673 586.172 484.673 586.172 484.673 586.172C484.673 586.172 484.673 586.172 484.673 586.172C484.673 586.172 484.673 586.172 484.673 586.172C484.673 586.172 484.673 586.172 484.673 586.172C484.673 586.172 484.673 586.172 484.673 586.172C484.673 586.172 484.673 586.172 484.673 586.172C484.673 586.172 484.673 586.172 484.673 586.172C484.673 586.172 484.673 586.172 484.673 586.172C484.673 586.172 484.673 586.172 484.673 586.172C484.673 586.172 484.673 586.172 484.673 586.172C484.673 586.172 484.673 586.172 484.673 586.172C484.673 586.172 484.673 586.172 484.673 586.172C484.673 586.172 484.673 586.172 484.673 586.172C484.673 586.172 484.673 586.172 484.673 586.172C484.673 586.172 484.673 586.172 484.673 586.172C484.673 586.172 484.673 586.172 484.673 586.172C484.673 586.172 484.673 586.172 484.673 586.172C484.673 586.172 484.673 586.172 484.673 586.172C484.673 586.172 484.673 586.172 484.673 586.172C484.673 586.172 484.673 586.172 484.673 586.172C484.673 586.172 484.673 586.172 484.673 586.172C484.673 586.172 484.673 586.172 484.673 586.172C484.673 586.172 484.673 586.172 484.673 586.172C484.673 586.172 484.673 586.172 484.673 586.172C484.673 586.172 484.673 586.172 484.673 586.172C484.673 586.172 484.674 586.172 484.674 586.172C484.674 586.172 484.674 586.172 484.674 586.172C484.674 586.172 484.674 586.172 484.674 586.172C484.674 586.172 484.674 586.172 484.674 586.172C484.674 586.172 484.674 586.172 484.674 586.172C484.674 586.172 484.674 586.172 484.674 586.172C484.674 586.172 484.674 586.172 484.674 586.172C484.674 586.172 484.674 586.172 484.674 586.172C484.674 586.172 484.674 586.172 484.674 586.172C484.674 586.172 484.674 586.172 484.674 586.172C484.674 586.172 484.674 586.172 484.674 586.172C484.674 586.172 484.674 586.172 484.674 586.172C484.674 586.172 484.674 586.172 484.674 586.172C484.674 586.172 484.674 586.172 484.674 586.172C484.674 586.172 484.674 586.172 484.674 586.172C484.674 586.172 484.674 586.172 484.674 586.172C484.674 586.172 484.674 586.172 484.674 586.172C484.674 586.172 484.674 586.172 484.674 586.172C484.674 586.172 484.674 586.172 484.674 586.172C484.674 586.172 484.674 586.172 484.674 586.172C484.674 586.172 484.674 586.172 484.674 586.172C484.674 586.172 484.674 586.172 484.674 586.172C484.674 586.172 484.674 586.172 484.674 586.172C484.674 586.172 484.674 586.172 484.674 586.172C484.674 586.172 484.674 586.172 484.674 586.172C484.674 586.172 484.674 586.172 484.675 586.172C484.675 586.172 484.675 586.172 484.675 586.172C484.675 586.172 484.675 586.172 484.675 586.172C484.675 586.172 484.675 586.172 484.675 586.172C484.675 586.172 484.675 586.172 484.675 586.172C484.675 586.172 484.675 586.172 484.675 586.172C484.675 586.172 484.675 586.172 484.675 586.172C484.675 586.172 484.675 586.172 484.675 586.172C484.675 586.172 484.675 586.172 484.675 586.172C484.675 586.172 484.675 586.172 484.675 586.172C484.675 586.172 484.675 586.172 484.675 586.172C484.675 586.172 484.675 586.172 484.675 586.172C484.675 586.172 484.675 586.172 484.675 586.172C484.675 586.172 484.675 586.172 484.675 586.172C484.675 586.172 484.675 586.172 484.675 586.172C484.675 586.172 484.675 586.172 484.675 586.172C484.675 586.172 484.675 586.172 484.675 586.172C484.675 586.172 484.675 586.172 484.675 586.172C484.675 586.172 484.675 586.172 484.675 586.172C484.675 586.172 484.675 586.172 484.675 586.172C484.675 586.172 484.675 586.172 484.675 586.172C484.675 586.172 484.675 586.172 484.675 586.172C484.675 586.172 484.675 586.172 484.675 586.172C484.675 586.172 484.675 586.172 484.675 586.172C484.675 586.172 484.675 586.172 484.675 586.172C484.675 586.172 484.675 586.172 484.675 586.172C484.676 586.172 484.676 586.172 484.676 586.172C484.676 586.172 484.676 586.172 484.676 586.172C484.676 586.172 484.676 586.172 484.676 586.172C484.676 586.172 484.676 586.172 484.676 586.172C484.676 586.172 484.676 586.172 484.676 586.172C484.676 586.172 484.676 586.172 484.676 586.172C484.676 586.172 484.676 586.172 484.676 586.172C484.676 586.172 484.676 586.172 484.676 586.172C484.676 586.172 484.676 586.172 484.676 586.172C484.676 586.172 484.676 586.172 484.676 586.172C484.676 586.172 484.676 586.172 484.676 586.172C484.676 586.172 484.676 586.172 484.676 586.172C484.676 586.172 484.676 586.172 484.676 586.172C484.676 586.172 484.676 586.172 484.676 586.172C484.676 586.172 484.676 586.172 484.676 586.172C484.676 586.172 484.676 586.172 484.676 586.172C484.676 586.172 484.676 586.172 484.676 586.172C484.676 586.172 484.676 586.172 484.676 586.172C484.676 586.172 484.676 586.172 484.676 586.172C484.676 586.172 484.676 586.172 484.676 586.172C484.676 586.172 484.676 586.172 484.676 586.172C484.676 586.172 484.676 586.172 484.676 586.172C484.676 586.172 484.676 586.172 484.676 586.172C484.676 586.172 484.676 586.172 484.676 586.172C484.676 586.172 484.676 586.172 484.676 586.172C484.676 586.172 484.677 586.172 484.677 586.172C484.677 586.172 484.677 586.172 484.677 586.172C484.677 586.172 484.677 586.172 484.677 586.172C484.677 586.172 484.677 586.172 484.677 586.172C484.677 586.172 484.677 586.172 484.677 586.172C484.677 586.172 484.677 586.172 484.677 586.172C484.677 586.172 484.677 586.172 484.677 586.172C484.677 586.172 484.677 586.172 484.677 586.172C484.677 586.172 484.677 586.172 484.677 586.172C484.677 586.172 484.677 586.172 484.677 586.172C484.677 586.172 484.677 586.172 484.677 586.172C484.677 586.172 484.677 586.172 484.677 586.172C484.677 586.172 484.677 586.172 484.677 586.172C484.677 586.172 484.677 586.172 484.677 586.172C484.677 586.172 484.677 586.172 484.677 586.172C484.677 586.172 484.677 586.172 484.677 586.172C484.677 586.172 484.677 586.172 484.677 586.172C484.677 586.172 484.677 586.172 484.677 586.172C484.677 586.172 484.677 586.172 484.677 586.172C484.677 586.172 484.677 586.172 484.677 586.172C484.677 586.172 484.677 586.172 484.677 586.172C484.677 586.172 484.677 586.172 484.677 586.172C484.677 586.172 484.677 586.172 484.677 586.172C484.677 586.172 484.677 586.172 484.677 586.172C484.677 586.172 484.677 586.172 484.677 586.172C484.677 586.172 484.677 586.172 484.678 586.172C484.678 586.172 484.678 586.172 484.678 586.172C484.678 586.172 484.678 586.172 484.678 586.172C484.678 586.172 484.678 586.172 484.678 586.172C484.678 586.172 484.678 586.172 484.678 586.172C484.678 586.172 484.678 586.172 484.678 586.172C484.678 586.172 484.678 586.172 484.678 586.172C484.678 586.172 484.678 586.172 484.678 586.172C484.678 586.172 484.678 586.172 484.678 586.172C484.678 586.172 484.678 586.172 484.678 586.172C484.678 586.172 484.678 586.172 484.678 586.172C484.678 586.172 484.678 586.172 484.678 586.172C484.678 586.172 484.678 586.172 484.678 586.172C484.678 586.172 484.678 586.172 484.678 586.172C484.678 586.172 484.678 586.172 484.678 586.172C484.678 586.172 484.678 586.172 484.678 586.172C484.678 586.172 484.678 586.172 484.678 586.172C484.678 586.172 484.678 586.172 484.678 586.172C484.678 586.172 484.678 586.172 484.678 586.172C484.678 586.172 484.678 586.172 484.678 586.172C484.678 586.172 484.678 586.172 484.678 586.172C484.678 586.172 484.678 586.172 484.678 586.172C484.678 586.172 484.678 586.172 484.678 586.172C484.678 586.172 484.678 586.172 484.678 586.172C484.678 586.172 484.678 586.172 484.678 586.172C484.678 586.172 484.678 586.172 484.678 586.172C484.679 586.172 484.679 586.172 484.679 586.172C484.679 586.172 484.679 586.172 484.679 586.172C484.679 586.172 484.679 586.172 484.679 586.172C484.679 586.172 484.679 586.172 484.679 586.172C484.679 586.172 484.679 586.172 484.679 586.172C484.679 586.172 484.679 586.172 484.679 586.172C484.679 586.172 484.679 586.172 484.679 586.172C484.679 586.172 484.679 586.172 484.679 586.172C484.679 586.172 484.679 586.172 484.679 586.172C484.679 586.172 484.679 586.172 484.679 586.172C484.679 586.172 484.679 586.172 484.679 586.172C484.679 586.172 484.679 586.172 484.679 586.172C484.679 586.172 484.679 586.172 484.679 586.172C484.679 586.172 484.679 586.172 484.679 586.172C484.679 586.172 484.679 586.172 484.679 586.172C484.679 586.172 484.679 586.172 484.679 586.172C484.679 586.172 484.679 586.172 484.679 586.172C484.679 586.172 484.679 586.172 484.679 586.172C484.679 586.172 484.679 586.172 484.679 586.172C484.679 586.172 484.679 586.172 484.679 586.172C484.679 586.172 484.679 586.172 484.679 586.172C484.679 586.172 484.679 586.172 484.679 586.172C484.679 586.172 484.679 586.172 484.679 586.172C484.679 586.172 484.679 586.172 484.679 586.172C484.679 586.172 484.679 586.172 484.679 586.172C484.679 586.172 484.68 586.172 484.68 586.172C484.68 586.172 484.68 586.172 484.68 586.172C484.68 586.172 484.68 586.172 484.68 586.172C484.68 586.172 484.68 586.172 484.68 586.172C484.68 586.172 484.68 586.172 484.68 586.172C484.68 586.172 484.68 586.172 484.68 586.172C484.68 586.172 484.68 586.172 484.68 586.172C484.68 586.172 484.68 586.172 484.68 586.172C484.68 586.172 484.68 586.172 484.68 586.172C484.68 586.172 484.68 586.172 484.68 586.172C484.68 586.172 484.68 586.172 484.68 586.172C484.68 586.172 484.68 586.172 484.68 586.172C484.68 586.172 484.68 586.172 484.68 586.172C484.68 586.172 484.68 586.172 484.68 586.172C484.68 586.172 484.68 586.172 484.68 586.172C484.68 586.172 484.68 586.172 484.68 586.172C484.68 586.172 484.68 586.172 484.68 586.172C484.68 586.172 484.68 586.172 484.68 586.172C484.68 586.172 484.68 586.172 484.68 586.172C484.68 586.172 484.68 586.172 484.68 586.172C484.68 586.172 484.68 586.172 484.68 586.172C484.68 586.172 484.68 586.172 484.68 586.172C484.68 586.172 484.68 586.172 484.68 586.172C484.68 586.172 484.68 586.172 484.68 586.172C484.68 586.172 484.68 586.172 484.68 586.172C484.68 586.172 484.68 586.172 484.681 586.172C484.681 586.172 484.681 586.172 484.681 586.172C484.681 586.172 484.681 586.172 484.681 586.172C484.681 586.172 484.681 586.172 484.681 586.172C484.681 586.172 484.681 586.172 484.681 586.172C484.681 586.172 484.681 586.172 484.681 586.172C484.681 586.172 484.681 586.172 484.681 586.172C484.681 586.172 484.681 586.172 484.681 586.172C484.681 586.172 484.681 586.172 484.681 586.172C484.681 586.172 484.681 586.172 484.681 586.172C484.681 586.172 484.681 586.172 484.681 586.172C484.681 586.172 484.681 586.172 484.681 586.172C484.681 586.172 484.681 586.172 484.681 586.172C484.681 586.172 484.681 586.172 484.681 586.172C484.681 586.172 484.681 586.172 484.681 586.172V584.976ZM719.109 584.976H484.681V586.172H719.109V584.976Z" fill="#DCE3E3" mask="url(#path-1-inside-1_1632_12543)"/>
<defs>
<filter id="filter0_ii_1632_12543" x="-3.58514" y="-3.58514" width="736.17" height="592.745" filterUnits="userSpaceOnUse" color-interpolation-filters="sRGB">
<feFlood flood-opacity="0" result="BackgroundImageFix"/>
<feBlend mode="normal" in="SourceGraphic" in2="BackgroundImageFix" result="shape"/>
<feColorMatrix in="SourceAlpha" type="matrix" values="0 0 0 0 0 0 0 0 0 0 0 0 0 0 0 0 0 0 127 0" result="hardAlpha"/>
<feOffset dx="3.58514" dy="3.58514"/>
<feGaussianBlur stdDeviation="3.58514"/>
<feComposite in2="hardAlpha" operator="arithmetic" k2="-1" k3="1"/>
<feColorMatrix type="matrix" values="0 0 0 0 0.7275 0 0 0 0 0.748163 0 0 0 0 0.75 0 0 0 1 0"/>
<feBlend mode="normal" in2="shape" result="effect1_innerShadow_1632_12543"/>
<feColorMatrix in="SourceAlpha" type="matrix" values="0 0 0 0 0 0 0 0 0 0 0 0 0 0 0 0 0 0 127 0" result="hardAlpha"/>
<feMorphology radius="1.79257" operator="erode" in="SourceAlpha" result="effect2_innerShadow_1632_12543"/>
<feOffset dx="-3.58514" dy="-3.58514"/>
<feGaussianBlur stdDeviation="3.58514"/>
<feComposite in2="hardAlpha" operator="arithmetic" k2="-1" k3="1"/>
<feColorMatrix type="matrix" values="0 0 0 0 1 0 0 0 0 1 0 0 0 0 1 0 0 0 1 0"/>
<feBlend mode="normal" in2="effect1_innerShadow_1632_12543" result="effect2_innerShadow_1632_12543"/>
</filter>
</defs>
</svg>
