<svg width="13" height="13" viewBox="0 0 13 13" fill="none" xmlns="http://www.w3.org/2000/svg">
<path d="M12.6353 5.2725L10.6214 4.46562C10.522 4.42603 10.4111 4.42759 10.3129 4.46996C10.2147 4.51233 10.1373 4.59203 10.0978 4.69154C10.0582 4.79105 10.0598 4.90221 10.1021 5.00057C10.1444 5.09893 10.224 5.17643 10.3233 5.21602L12.0835 5.92204V11.8527L9.66678 10.6423V7.26147C9.66678 7.15447 9.62434 7.05186 9.54881 6.9762C9.47327 6.90054 9.37083 6.85803 9.264 6.85803C9.15718 6.85803 9.05473 6.90054 8.9792 6.9762C8.90366 7.05186 8.86122 7.15447 8.86122 7.26147V10.6585L6.84731 11.8123V10.0856C6.84731 9.97857 6.80486 9.87595 6.72933 9.80029C6.65379 9.72463 6.55135 9.68213 6.44452 9.68213C6.3377 9.68213 6.23526 9.72463 6.15972 9.80029C6.08418 9.87595 6.04174 9.97857 6.04174 10.0856V11.8123L4.02783 10.6585V7.26147C4.02783 7.15447 3.98539 7.05186 3.90985 6.9762C3.83431 6.90054 3.73187 6.85803 3.62504 6.85803C3.51822 6.85803 3.41578 6.90054 3.34024 6.9762C3.2647 7.05186 3.22226 7.15447 3.22226 7.26147V10.6423L0.805566 11.8527V5.92204L2.56572 5.21602C2.61492 5.19642 2.65977 5.1673 2.69773 5.13033C2.73569 5.09337 2.76601 5.04927 2.78695 5.00057C2.8079 4.95187 2.81906 4.89951 2.8198 4.84649C2.82054 4.79347 2.81085 4.74082 2.79128 4.69154C2.77171 4.64227 2.74265 4.59734 2.70574 4.55932C2.66884 4.5213 2.62481 4.49094 2.57618 4.46996C2.52756 4.44898 2.4753 4.4378 2.42236 4.43705C2.36943 4.43631 2.31686 4.44601 2.26767 4.46562L0.253756 5.2725C0.178812 5.3024 0.114558 5.35414 0.0693151 5.42104C0.0240721 5.48794 -7.72857e-05 5.5669 8.06534e-07 5.6477V12.5062C-0.000136171 12.5748 0.0171766 12.6423 0.0502995 12.7023C0.0834224 12.7623 0.131263 12.8128 0.189309 12.8492C0.253408 12.8889 0.327372 12.9099 0.402783 12.9097C0.465836 12.9093 0.527924 12.8941 0.584041 12.8653L3.62504 11.3483L6.25521 12.8532H6.29953L6.35188 12.8774C6.42076 12.8936 6.49245 12.8936 6.56133 12.8774L6.6137 12.8532H6.658L9.264 11.3483L12.2929 12.8653C12.3527 12.896 12.4191 12.9113 12.4863 12.9097C12.5617 12.9099 12.6356 12.8889 12.6997 12.8492C12.7578 12.8128 12.8056 12.7623 12.8387 12.7023C12.8719 12.6423 12.8892 12.5748 12.889 12.5062V5.6477C12.8891 5.5669 12.865 5.48794 12.8197 5.42104C12.7745 5.35414 12.7102 5.3024 12.6353 5.2725Z" fill="white"/>
<path d="M6.44541 8.87574C6.50692 8.87559 6.56759 8.86133 6.62274 8.83406C6.6779 8.80678 6.72609 8.76722 6.76361 8.71839C7.06167 8.31495 9.66767 4.87762 9.66767 3.22754C9.66767 2.37154 9.32818 1.55061 8.72389 0.945325C8.1196 0.340044 7.3 0 6.44541 0C5.59081 0 4.77121 0.340044 4.16692 0.945325C3.56263 1.55061 3.22314 2.37154 3.22314 3.22754C3.22314 4.87762 5.82915 8.33109 6.1272 8.71839C6.16473 8.76722 6.21291 8.80678 6.26807 8.83406C6.32323 8.86133 6.38389 8.87559 6.44541 8.87574ZM6.44541 0.806885C7.08635 0.806885 7.70105 1.06192 8.15427 1.51588C8.60749 1.96984 8.8621 2.58554 8.8621 3.22754C8.8621 4.25632 7.33153 6.57611 6.44541 7.79854C5.55928 6.58822 4.02871 4.25632 4.02871 3.22754C4.02871 2.58554 4.28332 1.96984 4.73654 1.51588C5.18976 1.06192 5.80446 0.806885 6.44541 0.806885Z" fill="white"/>
<path d="M8.05575 3.22705C8.05575 2.90788 7.96126 2.59587 7.78423 2.33049C7.60719 2.06511 7.35557 1.85827 7.06118 1.73612C6.76678 1.61398 6.44284 1.58202 6.13031 1.64429C5.81778 1.70656 5.5307 1.86026 5.30538 2.08595C5.08006 2.31164 4.92662 2.59918 4.86446 2.91222C4.80229 3.22526 4.83419 3.54974 4.95613 3.84462C5.07807 4.1395 5.28457 4.39153 5.54952 4.56886C5.81447 4.74618 6.12597 4.84082 6.44462 4.84082C6.87192 4.84082 7.28172 4.6708 7.58387 4.36816C7.88601 4.06552 8.05575 3.65505 8.05575 3.22705ZM5.63906 3.22705C5.63906 3.06747 5.68631 2.91146 5.77482 2.77877C5.86334 2.64608 5.98914 2.54266 6.13634 2.48159C6.28354 2.42052 6.44551 2.40454 6.60178 2.43567C6.75804 2.46681 6.90158 2.54365 7.01425 2.6565C7.12691 2.76934 7.20363 2.91312 7.23471 3.06964C7.2658 3.22616 7.24984 3.3884 7.18886 3.53583C7.12789 3.68327 7.02465 3.80929 6.89217 3.89796C6.7597 3.98662 6.60395 4.03394 6.44462 4.03394C6.23097 4.03394 6.02608 3.94893 5.875 3.79761C5.72393 3.64629 5.63906 3.44105 5.63906 3.22705Z" fill="white"/>
</svg>
