<svg width="81" height="81" viewBox="0 0 81 81" fill="none" xmlns="http://www.w3.org/2000/svg">
<path d="M42.2961 60.84L24.7309 66.1515C24.644 65.3679 24.2092 64.6713 23.6005 64.1488L18.3831 59.4468C17.2527 58.4019 15.6005 58.0536 14.1222 58.4889L5.94831 61.1012V60.5787C5.94831 60.0563 5.60048 59.708 5.07874 59.708H1.68744C1.1657 59.708 0.817871 60.0563 0.817871 60.5787V79.7352C0.817871 80.2577 1.1657 80.606 1.68744 80.606H5.25265C5.77439 80.606 6.12222 80.2577 6.12222 79.7352V79.2128L19.6005 80.1706H19.9483C20.644 80.1706 21.4266 79.9964 22.0353 79.6481L44.9918 67.2835C46.47 66.4998 47.1657 64.8454 46.7309 63.191C46.1222 61.4495 44.2092 60.3175 42.2961 60.84ZM4.38309 78.8645H2.557V61.4495H4.38309V78.8645ZM44.0353 65.8032L21.0787 78.1679C20.644 78.4291 20.1222 78.5162 19.6005 78.5162L6.03526 77.4713V62.7556L14.7309 60.0563C15.6005 59.7951 16.644 59.9692 17.3396 60.6658L22.557 65.3679C22.9918 65.7162 23.1657 66.3257 23.0787 66.8481C22.9918 67.3706 22.644 67.893 22.1222 68.1543C21.5135 68.4155 20.8179 68.4155 20.2961 67.9801L17.1657 65.4549C16.8179 65.1937 16.2092 65.1937 15.9483 65.6291C15.6874 65.9774 15.6874 66.5869 16.1222 66.8481L19.2527 69.3733C19.8613 69.8958 20.644 70.157 21.4266 70.157C21.9483 70.157 22.47 70.0699 22.9918 69.8087C23.7744 69.4604 24.2961 68.8509 24.644 68.0672L42.8179 62.5815C43.7744 62.3202 44.7309 62.9298 44.9918 63.8876C45.1657 64.5842 44.8179 65.4549 44.0353 65.8032ZM79.9483 8.07262H75.9483C75.4266 8.07262 75.0787 8.42092 75.0787 8.94337V9.81412L64.47 5.98283L62.47 1.10664C62.3831 0.932488 62.2092 0.758338 62.0353 0.671263C61.8613 0.584188 61.6005 0.584188 61.3396 0.671263L27.4266 14.6032C26.9918 14.7774 26.7309 15.2998 26.9918 15.7352L34.0353 32.7148C34.1222 32.889 34.2961 33.0631 34.47 33.1502C34.557 33.2372 34.7309 33.2372 34.8179 33.2372C34.9048 33.2372 35.0787 33.2372 35.1657 33.1502L52.47 25.923C52.644 26.0971 52.9048 26.2713 53.0787 26.4454L60.47 31.0604C61.2527 31.4958 62.1222 31.757 62.9918 31.757C63.4266 31.757 63.8613 31.6699 64.3831 31.5828L75.0787 28.3611V30.7121C75.0787 31.2345 75.4266 31.5828 75.9483 31.5828H79.9483C80.47 31.5828 80.8179 31.2345 80.8179 30.7121V8.94337C80.8179 8.42092 80.47 8.07262 79.9483 8.07262ZM28.9048 15.9094L61.1657 2.49983L62.9918 6.94065L67.5135 17.825L61.3396 20.4372L59.6005 19.4794L61.1657 18.7828C61.6005 18.6087 61.8613 18.0862 61.6005 17.6509C61.0787 16.5189 61.6874 15.1257 62.8179 14.6903C63.2527 14.5162 63.4266 13.9937 63.2527 13.5583L61.0787 8.42092C60.9918 8.24677 60.8179 8.07262 60.644 7.98555C60.47 7.89847 60.2092 7.89847 59.9483 7.98555C59.4266 8.24677 58.7309 8.24677 58.2092 7.98555C57.6874 7.72432 57.2527 7.28895 56.9918 6.7665C56.9048 6.59235 56.7309 6.4182 56.557 6.33113C56.3831 6.24405 56.1222 6.24405 55.8614 6.33113L35.0787 14.9515C34.9048 15.0386 34.7309 15.2128 34.644 15.3869C34.557 15.5611 34.557 15.8223 34.644 16.0835C34.9048 16.693 34.9048 17.3026 34.644 17.825C34.3831 18.3475 33.9483 18.7828 33.4266 19.0441C33.2527 19.1311 33.0787 19.3053 32.9918 19.4794C32.9048 19.6536 32.9048 19.9148 32.9918 20.176L35.1657 25.3134C35.2527 25.4876 35.4266 25.6617 35.6005 25.7488C35.7744 25.8359 36.0353 25.8359 36.2961 25.7488C36.8179 25.4876 37.5135 25.4876 38.0353 25.7488C38.557 26.01 38.9918 26.4454 39.2527 26.9679C39.4266 27.3162 39.6874 27.4903 40.0353 27.4903C40.1222 27.4903 40.2961 27.4903 40.3831 27.4032L50.9048 23.0495C50.9918 23.5719 51.0787 24.0073 51.3396 24.5298L35.2527 31.2345L28.9048 15.9094ZM52.7309 18.8699C51.9483 19.4794 51.4266 20.2631 51.1657 21.1338L40.47 25.5747C40.0353 24.9651 39.4266 24.4427 38.7309 24.1815C38.0353 23.9202 37.2527 23.8332 36.47 23.9202L34.9048 20.176C35.5135 19.7407 36.0353 19.1311 36.2961 18.4345C36.557 17.7379 36.644 16.9543 36.557 16.1706L55.8614 8.1597C56.2961 8.76922 56.9048 9.29167 57.6005 9.5529C58.2961 9.81412 59.0787 9.90119 59.8613 9.81412L61.4266 13.5583C60.1222 14.4291 59.5135 15.9964 59.7744 17.5638L57.6005 18.5216C56.0353 17.6509 54.1222 17.825 52.7309 18.8699ZM63.8613 30.0155C63.0787 30.2767 62.1222 30.1026 61.4266 29.6672L54.0353 25.0522C53.2527 24.5298 52.7309 23.659 52.7309 22.7012C52.7309 21.7434 53.0787 20.8726 53.8613 20.2631C54.7309 19.5665 55.9483 19.4794 56.9048 20.0019L57.2527 20.176L64.7309 24.1815C65.1657 24.4427 65.6874 24.2685 65.9483 23.8332C66.2092 23.3978 66.0353 22.8753 65.6005 22.6141L63.3396 21.3951L68.9918 19.0441C69.4266 18.8699 69.6874 18.3475 69.4266 17.9121L65.3396 7.98555L75.0787 11.4685V26.6196L63.8613 30.0155ZM79.0787 29.8413H76.8179V9.81412H79.0787V29.8413Z" fill="url(#paint0_linear_813_4412)"/>
<path d="M42.2961 60.84L24.7309 66.1515C24.644 65.3679 24.2092 64.6713 23.6005 64.1488L18.3831 59.4468C17.2527 58.4019 15.6005 58.0536 14.1222 58.4889L5.94831 61.1012V60.5787C5.94831 60.0563 5.60048 59.708 5.07874 59.708H1.68744C1.1657 59.708 0.817871 60.0563 0.817871 60.5787V79.7352C0.817871 80.2577 1.1657 80.606 1.68744 80.606H5.25265C5.77439 80.606 6.12222 80.2577 6.12222 79.7352V79.2128L19.6005 80.1706H19.9483C20.644 80.1706 21.4266 79.9964 22.0353 79.6481L44.9918 67.2835C46.47 66.4998 47.1657 64.8454 46.7309 63.191C46.1222 61.4495 44.2092 60.3175 42.2961 60.84ZM4.38309 78.8645H2.557V61.4495H4.38309V78.8645ZM44.0353 65.8032L21.0787 78.1679C20.644 78.4291 20.1222 78.5162 19.6005 78.5162L6.03526 77.4713V62.7556L14.7309 60.0563C15.6005 59.7951 16.644 59.9692 17.3396 60.6658L22.557 65.3679C22.9918 65.7162 23.1657 66.3257 23.0787 66.8481C22.9918 67.3706 22.644 67.893 22.1222 68.1543C21.5135 68.4155 20.8179 68.4155 20.2961 67.9801L17.1657 65.4549C16.8179 65.1937 16.2092 65.1937 15.9483 65.6291C15.6874 65.9774 15.6874 66.5869 16.1222 66.8481L19.2527 69.3733C19.8613 69.8958 20.644 70.157 21.4266 70.157C21.9483 70.157 22.47 70.0699 22.9918 69.8087C23.7744 69.4604 24.2961 68.8509 24.644 68.0672L42.8179 62.5815C43.7744 62.3202 44.7309 62.9298 44.9918 63.8876C45.1657 64.5842 44.8179 65.4549 44.0353 65.8032ZM79.9483 8.07262H75.9483C75.4266 8.07262 75.0787 8.42092 75.0787 8.94337V9.81412L64.47 5.98283L62.47 1.10664C62.3831 0.932488 62.2092 0.758338 62.0353 0.671263C61.8613 0.584188 61.6005 0.584188 61.3396 0.671263L27.4266 14.6032C26.9918 14.7774 26.7309 15.2998 26.9918 15.7352L34.0353 32.7148C34.1222 32.889 34.2961 33.0631 34.47 33.1502C34.557 33.2372 34.7309 33.2372 34.8179 33.2372C34.9048 33.2372 35.0787 33.2372 35.1657 33.1502L52.47 25.923C52.644 26.0971 52.9048 26.2713 53.0787 26.4454L60.47 31.0604C61.2527 31.4958 62.1222 31.757 62.9918 31.757C63.4266 31.757 63.8613 31.6699 64.3831 31.5828L75.0787 28.3611V30.7121C75.0787 31.2345 75.4266 31.5828 75.9483 31.5828H79.9483C80.47 31.5828 80.8179 31.2345 80.8179 30.7121V8.94337C80.8179 8.42092 80.47 8.07262 79.9483 8.07262ZM28.9048 15.9094L61.1657 2.49983L62.9918 6.94065L67.5135 17.825L61.3396 20.4372L59.6005 19.4794L61.1657 18.7828C61.6005 18.6087 61.8613 18.0862 61.6005 17.6509C61.0787 16.5189 61.6874 15.1257 62.8179 14.6903C63.2527 14.5162 63.4266 13.9937 63.2527 13.5583L61.0787 8.42092C60.9918 8.24677 60.8179 8.07262 60.644 7.98555C60.47 7.89847 60.2092 7.89847 59.9483 7.98555C59.4266 8.24677 58.7309 8.24677 58.2092 7.98555C57.6874 7.72432 57.2527 7.28895 56.9918 6.7665C56.9048 6.59235 56.7309 6.4182 56.557 6.33113C56.3831 6.24405 56.1222 6.24405 55.8614 6.33113L35.0787 14.9515C34.9048 15.0386 34.7309 15.2128 34.644 15.3869C34.557 15.5611 34.557 15.8223 34.644 16.0835C34.9048 16.693 34.9048 17.3026 34.644 17.825C34.3831 18.3475 33.9483 18.7828 33.4266 19.0441C33.2527 19.1311 33.0787 19.3053 32.9918 19.4794C32.9048 19.6536 32.9048 19.9148 32.9918 20.176L35.1657 25.3134C35.2527 25.4876 35.4266 25.6617 35.6005 25.7488C35.7744 25.8359 36.0353 25.8359 36.2961 25.7488C36.8179 25.4876 37.5135 25.4876 38.0353 25.7488C38.557 26.01 38.9918 26.4454 39.2527 26.9679C39.4266 27.3162 39.6874 27.4903 40.0353 27.4903C40.1222 27.4903 40.2961 27.4903 40.3831 27.4032L50.9048 23.0495C50.9918 23.5719 51.0787 24.0073 51.3396 24.5298L35.2527 31.2345L28.9048 15.9094ZM52.7309 18.8699C51.9483 19.4794 51.4266 20.2631 51.1657 21.1338L40.47 25.5747C40.0353 24.9651 39.4266 24.4427 38.7309 24.1815C38.0353 23.9202 37.2527 23.8332 36.47 23.9202L34.9048 20.176C35.5135 19.7407 36.0353 19.1311 36.2961 18.4345C36.557 17.7379 36.644 16.9543 36.557 16.1706L55.8614 8.1597C56.2961 8.76922 56.9048 9.29167 57.6005 9.5529C58.2961 9.81412 59.0787 9.90119 59.8613 9.81412L61.4266 13.5583C60.1222 14.4291 59.5135 15.9964 59.7744 17.5638L57.6005 18.5216C56.0353 17.6509 54.1222 17.825 52.7309 18.8699ZM63.8613 30.0155C63.0787 30.2767 62.1222 30.1026 61.4266 29.6672L54.0353 25.0522C53.2527 24.5298 52.7309 23.659 52.7309 22.7012C52.7309 21.7434 53.0787 20.8726 53.8613 20.2631C54.7309 19.5665 55.9483 19.4794 56.9048 20.0019L57.2527 20.176L64.7309 24.1815C65.1657 24.4427 65.6874 24.2685 65.9483 23.8332C66.2092 23.3978 66.0353 22.8753 65.6005 22.6141L63.3396 21.3951L68.9918 19.0441C69.4266 18.8699 69.6874 18.3475 69.4266 17.9121L65.3396 7.98555L75.0787 11.4685V26.6196L63.8613 30.0155ZM79.0787 29.8413H76.8179V9.81412H79.0787V29.8413Z" fill="black" fill-opacity="0.2"/>
<path d="M46.7303 13.384C44.8173 14.1677 43.8608 16.4316 44.6434 18.3473C45.2521 19.8275 46.6434 20.6983 48.2086 20.6983C48.7303 20.6983 49.1651 20.6112 49.6869 20.437C51.5999 19.6534 52.5564 17.3894 51.7738 15.4738C50.9043 13.4711 48.7303 12.5132 46.7303 13.384ZM48.9912 18.7826C47.9477 19.218 46.7303 18.6956 46.2956 17.6507C45.8608 16.6058 46.3825 15.3867 47.426 14.9513C47.6869 14.8643 47.9477 14.7772 48.2086 14.7772C48.9912 14.7772 49.7738 15.2996 50.1217 16.0833C50.5564 17.1282 50.0347 18.3473 48.9912 18.7826ZM19.0782 49.9554C19.2521 50.1296 19.513 50.2166 19.6869 50.2166C19.8608 50.2166 20.1217 50.1296 20.2956 49.9554L21.2521 48.9976V59.7078C21.2521 60.2303 21.5999 60.5785 22.1217 60.5785H39.9477C40.4695 60.5785 40.8173 60.2303 40.8173 59.7078V49.0847L41.7738 50.0425C41.9477 50.2166 42.1217 50.3037 42.3825 50.3037C42.6434 50.3037 42.8173 50.2166 42.9912 50.0425L45.2521 47.7785C45.5999 47.4302 45.5999 46.9078 45.2521 46.5595L31.5999 32.8017C31.2521 32.4534 30.7303 32.4534 30.3825 32.8017L16.7304 46.4724C16.5564 46.6466 16.4695 46.8207 16.4695 47.0819C16.4695 47.3432 16.5564 47.5173 16.7304 47.6915L19.0782 49.9554ZM33.339 58.8371V52.3064H36.2086V58.8371H33.339ZM39.0782 47.3432V58.8371H37.9477V51.4357C37.9477 50.9132 37.5999 50.5649 37.0782 50.5649H32.4695C31.9477 50.5649 31.5999 50.9132 31.5999 51.4357V58.8371H22.9043V47.3432L30.9912 39.2452L39.0782 47.3432ZM30.9912 34.7173L43.339 47.0819L42.2956 48.1268L40.4695 46.2983L31.5999 37.4166C31.2521 37.0683 30.7303 37.0683 30.3825 37.4166L21.426 46.3853L19.5999 48.2139L18.5564 47.169L30.9912 34.7173Z" fill="url(#paint1_linear_813_4412)"/>
<path d="M46.7303 13.384C44.8173 14.1677 43.8608 16.4316 44.6434 18.3473C45.2521 19.8275 46.6434 20.6983 48.2086 20.6983C48.7303 20.6983 49.1651 20.6112 49.6869 20.437C51.5999 19.6534 52.5564 17.3894 51.7738 15.4738C50.9043 13.4711 48.7303 12.5132 46.7303 13.384ZM48.9912 18.7826C47.9477 19.218 46.7303 18.6956 46.2956 17.6507C45.8608 16.6058 46.3825 15.3867 47.426 14.9513C47.6869 14.8643 47.9477 14.7772 48.2086 14.7772C48.9912 14.7772 49.7738 15.2996 50.1217 16.0833C50.5564 17.1282 50.0347 18.3473 48.9912 18.7826ZM19.0782 49.9554C19.2521 50.1296 19.513 50.2166 19.6869 50.2166C19.8608 50.2166 20.1217 50.1296 20.2956 49.9554L21.2521 48.9976V59.7078C21.2521 60.2303 21.5999 60.5785 22.1217 60.5785H39.9477C40.4695 60.5785 40.8173 60.2303 40.8173 59.7078V49.0847L41.7738 50.0425C41.9477 50.2166 42.1217 50.3037 42.3825 50.3037C42.6434 50.3037 42.8173 50.2166 42.9912 50.0425L45.2521 47.7785C45.5999 47.4302 45.5999 46.9078 45.2521 46.5595L31.5999 32.8017C31.2521 32.4534 30.7303 32.4534 30.3825 32.8017L16.7304 46.4724C16.5564 46.6466 16.4695 46.8207 16.4695 47.0819C16.4695 47.3432 16.5564 47.5173 16.7304 47.6915L19.0782 49.9554ZM33.339 58.8371V52.3064H36.2086V58.8371H33.339ZM39.0782 47.3432V58.8371H37.9477V51.4357C37.9477 50.9132 37.5999 50.5649 37.0782 50.5649H32.4695C31.9477 50.5649 31.5999 50.9132 31.5999 51.4357V58.8371H22.9043V47.3432L30.9912 39.2452L39.0782 47.3432ZM30.9912 34.7173L43.339 47.0819L42.2956 48.1268L40.4695 46.2983L31.5999 37.4166C31.2521 37.0683 30.7303 37.0683 30.3825 37.4166L21.426 46.3853L19.5999 48.2139L18.5564 47.169L30.9912 34.7173Z" fill="black" fill-opacity="0.2"/>
<path d="M24.9914 56.8345H29.5132C30.0349 56.8345 30.3827 56.4862 30.3827 55.9637V51.3488C30.3827 50.8263 30.0349 50.478 29.5132 50.478H24.9045C24.3827 50.478 24.0349 50.8263 24.0349 51.3488V55.9637C24.1219 56.3991 24.4697 56.8345 24.9914 56.8345ZM25.861 52.2195H28.6436V55.093H25.774V52.2195H25.861Z" fill="url(#paint2_linear_813_4412)"/>
<path d="M24.9914 56.8345H29.5132C30.0349 56.8345 30.3827 56.4862 30.3827 55.9637V51.3488C30.3827 50.8263 30.0349 50.478 29.5132 50.478H24.9045C24.3827 50.478 24.0349 50.8263 24.0349 51.3488V55.9637C24.1219 56.3991 24.4697 56.8345 24.9914 56.8345ZM25.861 52.2195H28.6436V55.093H25.774V52.2195H25.861Z" fill="black" fill-opacity="0.2"/>
<defs>
<linearGradient id="paint0_linear_813_4412" x1="3.40214" y1="6.7598" x2="77.1456" y2="61.3683" gradientUnits="userSpaceOnUse">
<stop offset="0.03125" stop-color="#003B40"/>
<stop offset="0.265625" stop-color="#005961"/>
<stop offset="0.509791" stop-color="#00818C"/>
<stop offset="0.760417" stop-color="#005961"/>
<stop offset="0.994792" stop-color="#003B40"/>
</linearGradient>
<linearGradient id="paint1_linear_813_4412" x1="17.6188" y1="16.7167" x2="56.4583" y2="38.2517" gradientUnits="userSpaceOnUse">
<stop offset="0.03125" stop-color="#003B40"/>
<stop offset="0.265625" stop-color="#005961"/>
<stop offset="0.509791" stop-color="#00818C"/>
<stop offset="0.760417" stop-color="#005961"/>
<stop offset="0.994792" stop-color="#003B40"/>
</linearGradient>
<linearGradient id="paint2_linear_813_4412" x1="24.24" y1="50.967" x2="30.097" y2="55.2983" gradientUnits="userSpaceOnUse">
<stop offset="0.03125" stop-color="#003B40"/>
<stop offset="0.265625" stop-color="#005961"/>
<stop offset="0.509791" stop-color="#00818C"/>
<stop offset="0.760417" stop-color="#005961"/>
<stop offset="0.994792" stop-color="#003B40"/>
</linearGradient>
</defs>
</svg>
