<svg width="79" height="74" viewBox="0 0 79 74" fill="none" xmlns="http://www.w3.org/2000/svg">
<g style="mix-blend-mode:multiply" opacity="0.35">
<g style="mix-blend-mode:multiply" opacity="0.35">
<path d="M20.1143 0.856713C21.0206 0.512701 21.7773 1.01967 23.2001 0.404065C23.6895 0.195847 23.7666 0.0645818 24.1427 0.0102641C24.6221 -0.0320216 25.1039 0.0568633 25.5366 0.267385C25.9693 0.477908 26.3364 0.802123 26.5986 1.20525C27.4233 2.62657 26.2135 5.25192 24.2786 6.15269C21.9495 7.23452 18.5918 5.79962 18.2882 3.88945C18.2491 3.25864 18.4028 2.63086 18.7289 2.08928C19.055 1.54769 19.5382 1.11785 20.1143 0.856713Z" fill="#95EDC7"/>
</g>
</g>
<path d="M41.6878 23.9918C42.4711 23.9918 43.1061 23.3575 43.1061 22.575C43.1061 21.7925 42.4711 21.1582 41.6878 21.1582C40.9045 21.1582 40.2695 21.7925 40.2695 22.575C40.2695 23.3575 40.9045 23.9918 41.6878 23.9918Z" fill="#CCD9D9"/>
<path d="M53.8731 26.0151H47.8147H41.7563V35.5524H47.8147H53.8731L49.3826 30.786L53.8731 26.0151Z" fill="#CCD9D9"/>
<path d="M35.3765 73.2211L44.4436 64.1636L47.1307 66.8478L54.6255 59.3656L56.5649 57.4282L62.2155 63.0727L64.7168 65.5759L72.3702 73.2211H35.3765Z" fill="#E6EDED"/>
<path d="M35.376 73.2215L44.4432 64.164L47.1303 66.8482L54.6251 59.366L54.1765 59.8141L41.7969 47.4478L38.6341 50.6118L26.404 62.8287L22.0132 58.4426L7.21387 73.2305L35.376 73.2215Z" fill="#7D9699"/>
<path d="M67.6071 73.9094H5.57324L22.0129 57.4828L26.4037 61.869L38.1535 50.1318L39.1141 51.0914L26.4037 63.7882L22.0129 59.4021L8.85392 72.5515H67.6071V73.9094Z" fill="url(#paint0_angular_815_6340)"/>
<path d="M67.6071 73.9094H5.57324L22.0129 57.4828L26.4037 61.869L38.1535 50.1318L39.1141 51.0914L26.4037 63.7882L22.0129 59.4021L8.85392 72.5515H67.6071V73.9094Z" fill="#002D31" fill-opacity="0.2"/>
<path d="M67.6071 73.9094H5.57324L22.0129 57.4828L26.4037 61.869L38.1535 50.1318L39.1141 51.0914L26.4037 63.7882L22.0129 59.4021L8.85392 72.5515H67.6071V73.9094Z" fill="black" fill-opacity="0.2"/>
<path d="M53.6963 60.2935L41.797 48.407L39.1144 51.0912L38.1538 50.1316L41.797 46.4878L54.6569 59.3339L53.6963 60.2935Z" fill="url(#paint1_angular_815_6340)"/>
<path d="M53.6963 60.2935L41.797 48.407L39.1144 51.0912L38.1538 50.1316L41.797 46.4878L54.6569 59.3339L53.6963 60.2935Z" fill="#002D31" fill-opacity="0.2"/>
<path d="M53.6963 60.2935L41.797 48.407L39.1144 51.0912L38.1538 50.1316L41.797 46.4878L54.6569 59.3339L53.6963 60.2935Z" fill="black" fill-opacity="0.2"/>
<path d="M74.0098 73.9005H33.7354L44.4429 63.2045L47.1299 65.8887L54.1444 58.8862L55.1051 59.8458L47.1299 67.8124L44.4429 65.1237L37.0206 72.5426H70.7291L61.7344 63.5576L62.695 62.5934L74.0098 73.9005Z" fill="url(#paint2_angular_815_6340)"/>
<path d="M74.0098 73.9005H33.7354L44.4429 63.2045L47.1299 65.8887L54.1444 58.8862L55.1051 59.8458L47.1299 67.8124L44.4429 65.1237L37.0206 72.5426H70.7291L61.7344 63.5576L62.695 62.5934L74.0098 73.9005Z" fill="#002D31" fill-opacity="0.2"/>
<path d="M74.0098 73.9005H33.7354L44.4429 63.2045L47.1299 65.8887L54.1444 58.8862L55.1051 59.8458L47.1299 67.8124L44.4429 65.1237L37.0206 72.5426H70.7291L61.7344 63.5576L62.695 62.5934L74.0098 73.9005Z" fill="black" fill-opacity="0.2"/>
<path d="M61.7345 63.5572L56.5643 58.388L55.1052 59.8455L54.1445 58.8859L56.5643 56.4688L62.6951 62.5931L61.7345 63.5572Z" fill="url(#paint3_angular_815_6340)"/>
<path d="M61.7345 63.5572L56.5643 58.388L55.1052 59.8455L54.1445 58.8859L56.5643 56.4688L62.6951 62.5931L61.7345 63.5572Z" fill="#002D31" fill-opacity="0.2"/>
<path d="M61.7345 63.5572L56.5643 58.388L55.1052 59.8455L54.1445 58.8859L56.5643 56.4688L62.6951 62.5931L61.7345 63.5572Z" fill="black" fill-opacity="0.2"/>
<path d="M76.0943 72.6421H2.60986V74H76.0943V72.6421Z" fill="url(#paint4_angular_815_6340)"/>
<path d="M76.0943 72.6421H2.60986V74H76.0943V72.6421Z" fill="#002D31" fill-opacity="0.2"/>
<path d="M76.0943 72.6421H2.60986V74H76.0943V72.6421Z" fill="black" fill-opacity="0.2"/>
<path d="M78.8449 72.6421H77.481V74H78.8449V72.6421Z" fill="url(#paint5_angular_815_6340)"/>
<path d="M78.8449 72.6421H77.481V74H78.8449V72.6421Z" fill="#002D31" fill-opacity="0.2"/>
<path d="M78.8449 72.6421H77.481V74H78.8449V72.6421Z" fill="black" fill-opacity="0.2"/>
<path d="M1.36393 72.6421H0V74H1.36393V72.6421Z" fill="url(#paint6_angular_815_6340)"/>
<path d="M1.36393 72.6421H0V74H1.36393V72.6421Z" fill="#002D31" fill-opacity="0.2"/>
<path d="M1.36393 72.6421H0V74H1.36393V72.6421Z" fill="black" fill-opacity="0.2"/>
<path d="M42.3682 23.9009H41.0088V48.2669H42.3682V23.9009Z" fill="url(#paint7_angular_815_6340)"/>
<path d="M42.3682 23.9009H41.0088V48.2669H42.3682V23.9009Z" fill="#002D31" fill-opacity="0.2"/>
<path d="M42.3682 23.9009H41.0088V48.2669H42.3682V23.9009Z" fill="black" fill-opacity="0.2"/>
<path d="M55.4363 36.2312H41.0811V25.3359H55.4363L50.3068 30.7677L55.4363 36.2312ZM42.4269 34.8732H52.2915L48.4399 30.7994L52.2915 26.7256H42.4405L42.4269 34.8732Z" fill="url(#paint8_angular_815_6340)"/>
<path d="M55.4363 36.2312H41.0811V25.3359H55.4363L50.3068 30.7677L55.4363 36.2312ZM42.4269 34.8732H52.2915L48.4399 30.7994L52.2915 26.7256H42.4405L42.4269 34.8732Z" fill="#002D31" fill-opacity="0.2"/>
<path d="M55.4363 36.2312H41.0811V25.3359H55.4363L50.3068 30.7677L55.4363 36.2312ZM42.4269 34.8732H52.2915L48.4399 30.7994L52.2915 26.7256H42.4405L42.4269 34.8732Z" fill="black" fill-opacity="0.2"/>
<path d="M41.6883 24.6837C41.2734 24.6837 40.8678 24.5608 40.5227 24.3305C40.1777 24.1002 39.9088 23.7729 39.75 23.39C39.5912 23.007 39.5497 22.5856 39.6306 22.1791C39.7116 21.7726 39.9114 21.3991 40.2048 21.106C40.4982 20.8129 40.8721 20.6133 41.279 20.5325C41.686 20.4516 42.1078 20.4931 42.4912 20.6517C42.8746 20.8103 43.2022 21.079 43.4328 21.4236C43.6633 21.7683 43.7863 22.1734 43.7863 22.588C43.7869 22.8633 43.7331 23.1361 43.6279 23.3907C43.5226 23.6452 43.3681 23.8765 43.1732 24.0712C42.9782 24.2659 42.7467 24.4203 42.4919 24.5254C42.2371 24.6305 41.964 24.6843 41.6883 24.6837ZM41.6883 21.8547C41.5421 21.8547 41.3991 21.8981 41.2775 21.9793C41.156 22.0606 41.0613 22.1761 41.0055 22.3112C40.9498 22.4463 40.9354 22.5948 40.9643 22.7381C40.9931 22.8813 41.0639 23.0128 41.1677 23.1158C41.2714 23.2188 41.4035 23.2887 41.547 23.3167C41.6906 23.3446 41.8393 23.3294 41.9741 23.2728C42.109 23.2163 42.2241 23.121 42.3047 22.9991C42.3853 22.8772 42.4278 22.7341 42.4269 22.588C42.4287 22.4899 42.411 22.3925 42.3747 22.3014C42.3384 22.2103 42.2842 22.1274 42.2155 22.0574C42.1467 21.9875 42.0647 21.9319 41.9742 21.894C41.8837 21.8561 41.7865 21.8365 41.6883 21.8366V21.8547Z" fill="url(#paint9_angular_815_6340)"/>
<path d="M41.6883 24.6837C41.2734 24.6837 40.8678 24.5608 40.5227 24.3305C40.1777 24.1002 39.9088 23.7729 39.75 23.39C39.5912 23.007 39.5497 22.5856 39.6306 22.1791C39.7116 21.7726 39.9114 21.3991 40.2048 21.106C40.4982 20.8129 40.8721 20.6133 41.279 20.5325C41.686 20.4516 42.1078 20.4931 42.4912 20.6517C42.8746 20.8103 43.2022 21.079 43.4328 21.4236C43.6633 21.7683 43.7863 22.1734 43.7863 22.588C43.7869 22.8633 43.7331 23.1361 43.6279 23.3907C43.5226 23.6452 43.3681 23.8765 43.1732 24.0712C42.9782 24.2659 42.7467 24.4203 42.4919 24.5254C42.2371 24.6305 41.964 24.6843 41.6883 24.6837ZM41.6883 21.8547C41.5421 21.8547 41.3991 21.8981 41.2775 21.9793C41.156 22.0606 41.0613 22.1761 41.0055 22.3112C40.9498 22.4463 40.9354 22.5948 40.9643 22.7381C40.9931 22.8813 41.0639 23.0128 41.1677 23.1158C41.2714 23.2188 41.4035 23.2887 41.547 23.3167C41.6906 23.3446 41.8393 23.3294 41.9741 23.2728C42.109 23.2163 42.2241 23.121 42.3047 22.9991C42.3853 22.8772 42.4278 22.7341 42.4269 22.588C42.4287 22.4899 42.411 22.3925 42.3747 22.3014C42.3384 22.2103 42.2842 22.1274 42.2155 22.0574C42.1467 21.9875 42.0647 21.9319 41.9742 21.894C41.8837 21.8561 41.7865 21.8365 41.6883 21.8366V21.8547Z" fill="#002D31" fill-opacity="0.2"/>
<path d="M41.6883 24.6837C41.2734 24.6837 40.8678 24.5608 40.5227 24.3305C40.1777 24.1002 39.9088 23.7729 39.75 23.39C39.5912 23.007 39.5497 22.5856 39.6306 22.1791C39.7116 21.7726 39.9114 21.3991 40.2048 21.106C40.4982 20.8129 40.8721 20.6133 41.279 20.5325C41.686 20.4516 42.1078 20.4931 42.4912 20.6517C42.8746 20.8103 43.2022 21.079 43.4328 21.4236C43.6633 21.7683 43.7863 22.1734 43.7863 22.588C43.7869 22.8633 43.7331 23.1361 43.6279 23.3907C43.5226 23.6452 43.3681 23.8765 43.1732 24.0712C42.9782 24.2659 42.7467 24.4203 42.4919 24.5254C42.2371 24.6305 41.964 24.6843 41.6883 24.6837ZM41.6883 21.8547C41.5421 21.8547 41.3991 21.8981 41.2775 21.9793C41.156 22.0606 41.0613 22.1761 41.0055 22.3112C40.9498 22.4463 40.9354 22.5948 40.9643 22.7381C40.9931 22.8813 41.0639 23.0128 41.1677 23.1158C41.2714 23.2188 41.4035 23.2887 41.547 23.3167C41.6906 23.3446 41.8393 23.3294 41.9741 23.2728C42.109 23.2163 42.2241 23.121 42.3047 22.9991C42.3853 22.8772 42.4278 22.7341 42.4269 22.588C42.4287 22.4899 42.411 22.3925 42.3747 22.3014C42.3384 22.2103 42.2842 22.1274 42.2155 22.0574C42.1467 21.9875 42.0647 21.9319 41.9742 21.894C41.8837 21.8561 41.7865 21.8365 41.6883 21.8366V21.8547Z" fill="black" fill-opacity="0.2"/>
<defs>
<radialGradient id="paint0_angular_815_6340" cx="0" cy="0" r="1" gradientUnits="userSpaceOnUse" gradientTransform="translate(36.5902 61.6274) rotate(28.9331) scale(20.1444 18.2147)">
<stop offset="0.0940427" stop-color="#248F99"/>
<stop offset="0.247062" stop-color="#00464D"/>
<stop offset="0.472333" stop-color="#248F99"/>
<stop offset="0.654785" stop-color="#00464D"/>
<stop offset="0.818154" stop-color="#008D99"/>
<stop offset="0.947734" stop-color="#04474D"/>
</radialGradient>
<radialGradient id="paint1_angular_815_6340" cx="0" cy="0" r="1" gradientUnits="userSpaceOnUse" gradientTransform="translate(46.4053 53.1624) rotate(50.3455) scale(7.34959 7.71155)">
<stop offset="0.0940427" stop-color="#248F99"/>
<stop offset="0.247062" stop-color="#00464D"/>
<stop offset="0.472333" stop-color="#248F99"/>
<stop offset="0.654785" stop-color="#00464D"/>
<stop offset="0.818154" stop-color="#008D99"/>
<stop offset="0.947734" stop-color="#04474D"/>
</radialGradient>
<radialGradient id="paint2_angular_815_6340" cx="0" cy="0" r="1" gradientUnits="userSpaceOnUse" gradientTransform="translate(53.8726 66.1451) rotate(28.2643) scale(12.9954 11.5751)">
<stop offset="0.0940427" stop-color="#248F99"/>
<stop offset="0.247062" stop-color="#00464D"/>
<stop offset="0.472333" stop-color="#248F99"/>
<stop offset="0.654785" stop-color="#00464D"/>
<stop offset="0.818154" stop-color="#008D99"/>
<stop offset="0.947734" stop-color="#04474D"/>
</radialGradient>
<radialGradient id="paint3_angular_815_6340" cx="0" cy="0" r="1" gradientUnits="userSpaceOnUse" gradientTransform="translate(58.4198 59.8958) rotate(50.0899) scale(3.78764 3.98071)">
<stop offset="0.0940427" stop-color="#248F99"/>
<stop offset="0.247062" stop-color="#00464D"/>
<stop offset="0.472333" stop-color="#248F99"/>
<stop offset="0.654785" stop-color="#00464D"/>
<stop offset="0.818154" stop-color="#008D99"/>
<stop offset="0.947734" stop-color="#04474D"/>
</radialGradient>
<radialGradient id="paint4_angular_815_6340" cx="0" cy="0" r="1" gradientUnits="userSpaceOnUse" gradientTransform="translate(39.3521 73.2986) rotate(1.52659) scale(20.8918 1.18818)">
<stop offset="0.0940427" stop-color="#248F99"/>
<stop offset="0.247062" stop-color="#00464D"/>
<stop offset="0.472333" stop-color="#248F99"/>
<stop offset="0.654785" stop-color="#00464D"/>
<stop offset="0.818154" stop-color="#008D99"/>
<stop offset="0.947734" stop-color="#04474D"/>
</radialGradient>
<radialGradient id="paint5_angular_815_6340" cx="0" cy="0" r="1" gradientUnits="userSpaceOnUse" gradientTransform="translate(78.1629 73.2986) rotate(55.1445) scale(0.678258 0.679299)">
<stop offset="0.0940427" stop-color="#248F99"/>
<stop offset="0.247062" stop-color="#00464D"/>
<stop offset="0.472333" stop-color="#248F99"/>
<stop offset="0.654785" stop-color="#00464D"/>
<stop offset="0.818154" stop-color="#008D99"/>
<stop offset="0.947734" stop-color="#04474D"/>
</radialGradient>
<radialGradient id="paint6_angular_815_6340" cx="0" cy="0" r="1" gradientUnits="userSpaceOnUse" gradientTransform="translate(0.681965 73.2986) rotate(55.1446) scale(0.678258 0.679298)">
<stop offset="0.0940427" stop-color="#248F99"/>
<stop offset="0.247062" stop-color="#00464D"/>
<stop offset="0.472333" stop-color="#248F99"/>
<stop offset="0.654785" stop-color="#00464D"/>
<stop offset="0.818154" stop-color="#008D99"/>
<stop offset="0.947734" stop-color="#04474D"/>
</radialGradient>
<radialGradient id="paint7_angular_815_6340" cx="0" cy="0" r="1" gradientUnits="userSpaceOnUse" gradientTransform="translate(41.6885 35.681) rotate(87.7846) scale(9.99426 0.824444)">
<stop offset="0.0940427" stop-color="#248F99"/>
<stop offset="0.247062" stop-color="#00464D"/>
<stop offset="0.472333" stop-color="#248F99"/>
<stop offset="0.654785" stop-color="#00464D"/>
<stop offset="0.818154" stop-color="#008D99"/>
<stop offset="0.947734" stop-color="#04474D"/>
</radialGradient>
<radialGradient id="paint8_angular_815_6340" cx="0" cy="0" r="1" gradientUnits="userSpaceOnUse" gradientTransform="translate(48.2587 30.6034) rotate(47.5851) scale(6.04863 6.43235)">
<stop offset="0.0940427" stop-color="#248F99"/>
<stop offset="0.247062" stop-color="#00464D"/>
<stop offset="0.472333" stop-color="#248F99"/>
<stop offset="0.654785" stop-color="#00464D"/>
<stop offset="0.818154" stop-color="#008D99"/>
<stop offset="0.947734" stop-color="#04474D"/>
</radialGradient>
<radialGradient id="paint9_angular_815_6340" cx="0" cy="0" r="1" gradientUnits="userSpaceOnUse" gradientTransform="translate(41.6883 22.5186) rotate(55.2339) scale(2.09129 2.09207)">
<stop offset="0.0940427" stop-color="#248F99"/>
<stop offset="0.247062" stop-color="#00464D"/>
<stop offset="0.472333" stop-color="#248F99"/>
<stop offset="0.654785" stop-color="#00464D"/>
<stop offset="0.818154" stop-color="#008D99"/>
<stop offset="0.947734" stop-color="#04474D"/>
</radialGradient>
</defs>
</svg>
