<svg width="77" height="43" viewBox="0 0 77 43" fill="none" xmlns="http://www.w3.org/2000/svg">
<path d="M22.7945 13.6327C24.7436 11.679 27.3214 10.5955 29.998 10.5984C30.3357 10.5984 30.6706 10.6159 31 10.648M16 13.2648C19.8845 11.8279 24.1891 13.3641 26.4731 17M27.9912 7.93203V10.7999M19.9696 9.53243V12.7887M28.3316 1.19458C28.2053 0.993069 27.95 0.940501 27.7634 1.07484C27.7194 1.10697 27.681 1.14785 27.6508 1.19458L25.5315 4.73415H26.7613L25.0373 7.28078C24.9248 7.48813 24.9934 7.75681 25.1883 7.87655C25.2515 7.91451 25.3201 7.93495 25.3942 7.93495H30.5882C30.8161 7.93495 30.9973 7.73928 31 7.49981C31 7.42388 30.9808 7.34795 30.9451 7.28078L29.2238 4.73415H30.4537L28.3344 1.19458H28.3316ZM20.3869 1.23838C20.2332 0.993068 19.923 0.925898 19.6924 1.08944C19.6374 1.12741 19.5908 1.17998 19.5523 1.23838L16.9608 5.80011H18.4652L16.5271 8.73515C16.3898 8.99215 16.4722 9.31632 16.7138 9.46235C16.7906 9.50907 16.8757 9.53243 16.9608 9.53243H22.9757C23.2529 9.53243 23.478 9.29296 23.478 8.99799C23.478 8.90454 23.4561 8.81401 23.4122 8.73224L21.474 5.79719H22.9784L20.3869 1.23546V1.23838Z" stroke="url(#paint0_linear_1921_15169)" stroke-width="1.25" stroke-linecap="round" stroke-linejoin="round"/>
<path d="M67.3293 19.334C66.9878 19.334 66.6462 19.3646 66.3097 19.4283C66.144 18.592 65.0199 17.947 63.6612 17.9521C62.1879 17.9572 60.9975 18.7195 61 19.6553C61.0026 20.591 62.1981 21.3483 63.6689 21.3432H63.7071C63.6816 21.4528 63.6714 21.565 63.6714 21.6772C63.674 22.9648 65.3181 24.0051 67.3421 24C69.366 23.9949 71.0051 22.9469 71 21.6568C70.9541 20.9888 70.5768 20.3896 69.9957 20.0607M68.6548 17.3325L65.9146 15.9709C65.8509 15.9378 65.7973 15.8868 65.7642 15.823C65.6826 15.6573 65.7464 15.4584 65.9121 15.3768L68.6447 14L68.665 21.6644" stroke="url(#paint1_linear_1921_15169)" stroke-linecap="round" stroke-linejoin="round"/>
<path d="M39.5449 36.5835H48.2722V33.3335H39.5449V36.5835ZM47.1403 35.6683H44.4786V34.242H47.1403V35.6683ZM40.6809 34.2454H43.3426V35.6716H40.6809V34.2454Z" fill="url(#paint2_linear_1921_15169)"/>
<path d="M26.4551 26.8335H35.1824V23.5835H26.4551V26.8335ZM34.0505 25.9216H31.3888V24.4954H34.0505V25.9216ZM27.5911 24.4954H30.2528V25.9216H27.5911V24.4954Z" fill="url(#paint3_linear_1921_15169)"/>
<path d="M41.7278 23.5835H38.4551V26.8335H41.7278V23.5835ZM40.9764 25.9216H39.2093V24.4954H40.9764V25.9216Z" fill="url(#paint4_linear_1921_15169)"/>
<path d="M55.5869 32.7964C56.5367 31.8738 57 30.4544 57 28.454C57 26.4536 56.5228 24.054 55.7259 22.129C54.7622 19.8048 53.5297 18.5806 52.1676 18.5806C50.8054 18.5806 49.5776 19.8048 48.6093 22.129C47.8124 24.0451 47.3351 26.4092 47.3351 28.454C47.3351 28.8887 47.3583 29.2967 47.4046 29.6782H45.6023V17.5383L47.59 17.2012C47.9328 17.1391 48.1691 16.8241 48.1042 16.5003C48.0394 16.1721 47.7104 15.9548 47.3676 16.008L19.99 20.7141C19.6471 20.7762 19.4154 21.0911 19.4757 21.4193C19.5313 21.7121 19.8 21.9161 20.0965 21.9161C20.1336 21.9161 20.1707 21.9117 20.2124 21.9028L21.5467 21.6721V29.6826H10.6726V40.7847H9.63475C9.28726 40.7847 9 41.0597 9 41.3923C9 41.725 9.28262 42 9.63475 42H54.1876C54.5351 42 54.8224 41.7294 54.8224 41.3923C54.8224 41.0552 54.5398 40.7847 54.1876 40.7847H52.8069V33.9407C53.9838 33.8431 54.9012 33.475 55.5869 32.8008M49.7861 22.5858C50.5042 20.8693 51.4124 19.8004 52.1676 19.8004C52.9228 19.8004 53.8309 20.8693 54.549 22.5858C55.2764 24.3423 55.7351 26.5911 55.7351 28.4629C55.7351 30.104 55.3784 31.2794 54.688 31.9536C54.2386 32.3883 53.6178 32.6455 52.8023 32.7298V29.1105L54.6 27.7532C54.8734 27.5492 54.9243 27.1633 54.7066 26.906C54.4888 26.6443 54.0903 26.5955 53.8216 26.804L52.8069 27.5669V24.9234C52.8069 24.5907 52.5243 24.3157 52.1722 24.3157C51.8201 24.3157 51.5421 24.5863 51.5421 24.9234V29.4476L50.1614 28.3564C49.888 28.1435 49.4896 28.179 49.2672 28.4363C49.0448 28.698 49.0818 29.0794 49.3506 29.2923L51.5374 31.0266V32.7431C50.722 32.6589 50.1012 32.4016 49.6517 31.9669C48.9568 31.2927 48.6046 30.1173 48.6046 28.4717C48.6046 26.6 49.0633 24.3512 49.7907 22.5903M15.0927 33.9097H17.59V40.7891H15.0927V33.9097ZM18.8502 33.9097H21.3475V40.7891H18.8502V33.9097ZM26.495 33.9097H28.9923V40.7891H26.495V33.9097ZM30.2525 33.9097H32.7498V40.7891H30.2525V33.9097ZM34.0147 40.7935V32.6988H25.2301V40.7935H22.6124V32.6988H13.8278V40.7935H11.9467V30.9024H25.8602C26.2077 30.9024 26.495 30.6318 26.495 30.2992C26.495 29.9665 26.2124 29.6915 25.8602 29.6915H22.8208V21.4725L44.3421 17.7733V29.7004H36.095V40.8024H34.01L34.0147 40.7935ZM44.9768 40.7891H37.3645V30.898H47.4834C47.539 30.898 47.5992 30.8935 47.6502 30.8758C47.8865 31.6697 48.2525 32.304 48.7575 32.8052C48.8363 32.8806 48.9151 32.9516 48.9985 33.0181C48.9614 33.0891 48.9429 33.1778 48.9429 33.2665V40.7847H44.9768V40.7891ZM50.2124 40.7935V33.6879C50.6108 33.8254 51.0556 33.9097 51.5513 33.9496V40.7891H50.2124V40.7935Z" fill="url(#paint5_linear_1921_15169)"/>
<path d="M41.5 7C42.8807 7 44 5.88071 44 4.5C44 3.11929 42.8807 2 41.5 2C40.1193 2 39 3.11929 39 4.5C39 5.88071 40.1193 7 41.5 7Z" stroke="url(#paint6_linear_1921_15169)" stroke-width="1.25" stroke-linecap="round" stroke-linejoin="round"/>
<path d="M63.8975 42V39.7635M67.6926 42V39.7635M62 39.7635H69.5902M62.9488 39.7635V36.4104C62.9488 35.7923 63.3723 35.2938 63.8975 35.2938H67.6926C68.2178 35.2938 68.6414 35.7956 68.6414 36.4104V39.7635M71.4877 42V38.6469M68.4155 33.0407L70.2537 30.1528C70.2848 30.1063 70.3017 30.0465 70.3017 29.9866C70.3017 29.8304 70.1944 29.7075 70.0645 29.7075H69.5704C69.5224 29.7075 69.4744 29.6875 69.4349 29.6543C69.3276 29.5646 69.305 29.3885 69.3812 29.2655L71.2929 26.1151C71.307 26.0918 71.3267 26.0686 71.3465 26.052C71.4538 25.9622 71.6006 25.9922 71.6769 26.1151L73.5885 29.2655C73.6168 29.312 73.6337 29.3685 73.6337 29.425C73.6337 29.5779 73.5292 29.7042 73.3994 29.7075H72.9109C72.86 29.7075 72.8092 29.7274 72.7697 29.764C72.6652 29.857 72.6426 30.0332 72.7217 30.1561L75.0004 33.7319C75.0315 33.7817 75.0484 33.8382 75.0484 33.898C75.0484 34.0509 74.9411 34.1772 74.8112 34.1772H73.8624C73.8116 34.1772 73.7608 34.1971 73.7213 34.2337C73.6168 34.3267 73.5942 34.5029 73.6733 34.6258L75.952 38.2016C75.9831 38.2514 76 38.3079 76 38.3677C76 38.5206 75.8927 38.6469 75.7628 38.6469H71.4933" stroke="url(#paint7_linear_1921_15169)" stroke-width="1.25" stroke-linecap="round" stroke-linejoin="round"/>
<path d="M55.6124 4.99716C56.3757 4.99999 56.9975 4.33157 57 3.50171C57.0025 2.67185 56.3858 1.99776 55.6225 1.99493C55.2409 1.99493 54.8769 2.16203 54.614 2.46226C54.3411 1.39731 53.325 0.777042 52.3469 1.07443C51.3688 1.37182 50.795 2.47359 51.068 3.53853C51.2904 4.40521 52.0183 5.00282 52.8448 4.99999H55.6099L55.6124 4.99716Z" stroke="url(#paint8_linear_1921_15169)" stroke-width="1.25" stroke-linecap="round" stroke-linejoin="round"/>
<path d="M53.1963 10.8815L59.7979 5.38086L65.5767 10.1932" stroke="url(#paint9_linear_1921_15169)" stroke-width="1.25" stroke-linecap="round" stroke-linejoin="round"/>
<path d="M40.5928 13.6288L48.0195 7.44287L55.4439 13.6288" stroke="url(#paint10_linear_1921_15169)" stroke-width="1.25" stroke-linecap="round" stroke-linejoin="round"/>
<path d="M9.85735 25.542C8.91808 25.542 8.02495 25.106 7.3823 24.3467V21.0477L9.17514 20.0667C9.36299 19.965 9.4388 19.7106 9.34652 19.5072C9.25424 19.3001 9.02684 19.2165 8.83569 19.3182L7.379 20.1139V18.3627C7.379 18.1302 7.20763 17.9449 7 17.9449C6.79238 17.9449 6.621 18.1338 6.621 18.3627V21.9778L5.16431 21.1821C4.97646 21.0804 4.74906 21.1639 4.65348 21.371C4.5612 21.5781 4.63701 21.8288 4.82486 21.9342L6.6177 22.9152V24.3503C5.97505 25.1096 5.08521 25.5456 4.14265 25.5456C2.2773 25.5456 0.758005 23.8707 0.758005 21.8143C0.758005 20.3101 1.56874 18.9622 2.82768 18.3736C2.96281 18.3118 3.05179 18.1665 3.05838 18.0066C3.15066 15.6704 4.88089 13.8393 7 13.8393C9.11912 13.8393 10.8493 15.6704 10.9416 18.0066C10.9482 18.1665 11.0372 18.3118 11.1723 18.3736C12.428 18.9585 13.2387 20.3101 13.2387 21.8143C13.2387 23.8707 11.7194 25.5456 9.85405 25.5456M11.6831 17.7087C11.4623 15.0492 9.44539 13 7 13C4.55462 13 2.53766 15.0492 2.31685 17.7087C0.903013 18.4753 0 20.0594 0 21.8106C0 24.3321 1.85876 26.3813 4.14595 26.3813C5.04567 26.3813 5.90913 26.0543 6.621 25.4693V29.5822C6.621 29.8147 6.79238 30 7 30C7.20763 30 7.379 29.8111 7.379 29.5822V25.4693C8.08757 26.0543 8.95433 26.3813 9.85405 26.3813C12.1412 26.3813 14 24.3321 14 21.8106C14 20.0558 13.097 18.4753 11.6831 17.7087Z" fill="url(#paint11_linear_1921_15169)"/>
<defs>
<linearGradient id="paint0_linear_1921_15169" x1="16" y1="1.28926" x2="32.2055" y2="3.39386" gradientUnits="userSpaceOnUse">
<stop offset="0.158241" stop-color="#002D31"/>
<stop offset="0.32869" stop-color="#005961"/>
<stop offset="0.509791" stop-color="#00818C"/>
<stop offset="0.786145" stop-color="#005961"/>
<stop offset="0.988044" stop-color="#002D31"/>
</linearGradient>
<linearGradient id="paint1_linear_1921_15169" x1="61" y1="14.1808" x2="71.779" y2="15.674" gradientUnits="userSpaceOnUse">
<stop offset="0.158241" stop-color="#002D31"/>
<stop offset="0.32869" stop-color="#005961"/>
<stop offset="0.509791" stop-color="#00818C"/>
<stop offset="0.786145" stop-color="#005961"/>
<stop offset="0.988044" stop-color="#002D31"/>
</linearGradient>
<linearGradient id="paint2_linear_1921_15169" x1="39.5449" y1="33.3923" x2="47.9672" y2="36.5252" gradientUnits="userSpaceOnUse">
<stop offset="0.158241" stop-color="#002D31"/>
<stop offset="0.32869" stop-color="#005961"/>
<stop offset="0.509791" stop-color="#00818C"/>
<stop offset="0.786145" stop-color="#005961"/>
<stop offset="0.988044" stop-color="#002D31"/>
</linearGradient>
<linearGradient id="paint3_linear_1921_15169" x1="26.4551" y1="23.6423" x2="34.8773" y2="26.7752" gradientUnits="userSpaceOnUse">
<stop offset="0.158241" stop-color="#002D31"/>
<stop offset="0.32869" stop-color="#005961"/>
<stop offset="0.509791" stop-color="#00818C"/>
<stop offset="0.786145" stop-color="#005961"/>
<stop offset="0.988044" stop-color="#002D31"/>
</linearGradient>
<linearGradient id="paint4_linear_1921_15169" x1="38.4551" y1="23.6423" x2="41.9818" y2="24.1342" gradientUnits="userSpaceOnUse">
<stop offset="0.158241" stop-color="#002D31"/>
<stop offset="0.32869" stop-color="#005961"/>
<stop offset="0.509791" stop-color="#00818C"/>
<stop offset="0.786145" stop-color="#005961"/>
<stop offset="0.988044" stop-color="#002D31"/>
</linearGradient>
<linearGradient id="paint5_linear_1921_15169" x1="9" y1="16.47" x2="58.4951" y2="29.1281" gradientUnits="userSpaceOnUse">
<stop offset="0.158241" stop-color="#002D31"/>
<stop offset="0.32869" stop-color="#005961"/>
<stop offset="0.509791" stop-color="#00818C"/>
<stop offset="0.786145" stop-color="#005961"/>
<stop offset="0.988044" stop-color="#002D31"/>
</linearGradient>
<linearGradient id="paint6_linear_1921_15169" x1="39" y1="2.09039" x2="44.3895" y2="2.83699" gradientUnits="userSpaceOnUse">
<stop offset="0.158241" stop-color="#002D31"/>
<stop offset="0.32869" stop-color="#005961"/>
<stop offset="0.509791" stop-color="#00818C"/>
<stop offset="0.786145" stop-color="#005961"/>
<stop offset="0.988044" stop-color="#002D31"/>
</linearGradient>
<linearGradient id="paint7_linear_1921_15169" x1="62" y1="26.2893" x2="77.1576" y2="28.1265" gradientUnits="userSpaceOnUse">
<stop offset="0.158241" stop-color="#002D31"/>
<stop offset="0.32869" stop-color="#005961"/>
<stop offset="0.509791" stop-color="#00818C"/>
<stop offset="0.786145" stop-color="#005961"/>
<stop offset="0.988044" stop-color="#002D31"/>
</linearGradient>
<linearGradient id="paint8_linear_1921_15169" x1="51" y1="1.07232" x2="57.3187" y2="2.38529" gradientUnits="userSpaceOnUse">
<stop offset="0.158241" stop-color="#002D31"/>
<stop offset="0.32869" stop-color="#005961"/>
<stop offset="0.509791" stop-color="#00818C"/>
<stop offset="0.786145" stop-color="#005961"/>
<stop offset="0.988044" stop-color="#002D31"/>
</linearGradient>
<linearGradient id="paint9_linear_1921_15169" x1="53.1963" y1="5.4803" x2="65.5922" y2="9.34518" gradientUnits="userSpaceOnUse">
<stop offset="0.158241" stop-color="#002D31"/>
<stop offset="0.32869" stop-color="#005961"/>
<stop offset="0.509791" stop-color="#00818C"/>
<stop offset="0.786145" stop-color="#005961"/>
<stop offset="0.988044" stop-color="#002D31"/>
</linearGradient>
<linearGradient id="paint10_linear_1921_15169" x1="40.5928" y1="7.55471" x2="55.2832" y2="12.4404" gradientUnits="userSpaceOnUse">
<stop offset="0.158241" stop-color="#002D31"/>
<stop offset="0.32869" stop-color="#005961"/>
<stop offset="0.509791" stop-color="#00818C"/>
<stop offset="0.786145" stop-color="#005961"/>
<stop offset="0.988044" stop-color="#002D31"/>
</linearGradient>
<linearGradient id="paint11_linear_1921_15169" x1="3.33695e-08" y1="13.3073" x2="15.1827" y2="15.0394" gradientUnits="userSpaceOnUse">
<stop offset="0.158241" stop-color="#002D31"/>
<stop offset="0.32869" stop-color="#005961"/>
<stop offset="0.509791" stop-color="#00818C"/>
<stop offset="0.786145" stop-color="#005961"/>
<stop offset="0.988044" stop-color="#002D31"/>
</linearGradient>
</defs>
</svg>
