<svg width="35" height="35" viewBox="0 0 35 35" fill="none" xmlns="http://www.w3.org/2000/svg">
<path d="M9.94926 10.4204H8.05176C7.98338 10.4204 7.91781 10.4476 7.86946 10.4959C7.82111 10.5443 7.79395 10.6098 7.79395 10.6782V20.7329C7.79395 20.8013 7.82111 20.8669 7.86946 20.9152C7.91781 20.9636 7.98338 20.9907 8.05176 20.9907H15.3736C15.442 20.9907 15.5076 20.9636 15.5559 20.9152C15.6043 20.8669 15.6314 20.8013 15.6314 20.7329C15.6314 20.6645 15.6043 20.599 15.5559 20.5506C15.5076 20.5023 15.442 20.4751 15.3736 20.4751H8.30957V10.936H9.94926C10.0176 10.936 10.0832 10.9089 10.1316 10.8605C10.1799 10.8122 10.2071 10.7466 10.2071 10.6782C10.2071 10.6098 10.1799 10.5443 10.1316 10.4959C10.0832 10.4476 10.0176 10.4204 9.94926 10.4204ZM21.6771 14.3082C21.7455 14.3082 21.8111 14.2811 21.8595 14.2327C21.9078 14.1844 21.935 14.1188 21.935 14.0504V10.6782C21.935 10.6098 21.9078 10.5443 21.8595 10.4959C21.8111 10.4476 21.7455 10.4204 21.6771 10.4204H19.7771C19.7087 10.4204 19.6431 10.4476 19.5948 10.4959C19.5464 10.5443 19.5193 10.6098 19.5193 10.6782C19.5193 10.7466 19.5464 10.8122 19.5948 10.8605C19.6431 10.9089 19.7087 10.936 19.7771 10.936H21.4193V14.0504C21.4193 14.1188 21.4465 14.1844 21.4948 14.2327C21.5432 14.2811 21.6088 14.3082 21.6771 14.3082ZM11.8854 10.6782C11.8854 10.7466 11.9126 10.8122 11.9609 10.8605C12.0093 10.9089 12.0749 10.936 12.1432 10.936H17.5857C17.654 10.936 17.7196 10.9089 17.768 10.8605C17.8163 10.8122 17.8435 10.7466 17.8435 10.6782C17.8435 10.6098 17.8163 10.5443 17.768 10.4959C17.7196 10.4476 17.654 10.4204 17.5857 10.4204H12.1432C12.0749 10.4204 12.0093 10.4476 11.9609 10.4959C11.9126 10.5443 11.8854 10.6098 11.8854 10.6782Z" fill="url(#paint0_linear_1048_26330)"/>
<path d="M10.1816 13.8909C10.1816 13.8225 10.1545 13.7569 10.1061 13.7086C10.0578 13.6602 9.9922 13.633 9.92383 13.633C9.85545 13.633 9.78988 13.6602 9.74153 13.7086C9.69318 13.7569 9.66602 13.8225 9.66602 13.8909V14.6411C9.66602 14.7095 9.69318 14.775 9.74153 14.8234C9.78988 14.8717 9.85545 14.8989 9.92383 14.8989H11.3573C11.4256 14.8989 11.4912 14.8717 11.5396 14.8234C11.5879 14.775 11.6151 14.7095 11.6151 14.6411C11.6151 14.5727 11.5879 14.5071 11.5396 14.4588C11.4912 14.4104 11.4256 14.3833 11.3573 14.3833H10.1816V13.8909ZM11.3573 16.3401H10.1816V15.8502C10.1816 15.7819 10.1545 15.7163 10.1061 15.6679C10.0578 15.6196 9.9922 15.5924 9.92383 15.5924C9.85545 15.5924 9.78988 15.6196 9.74153 15.6679C9.69318 15.7163 9.66602 15.7819 9.66602 15.8502V16.5979C9.66602 16.6663 9.69318 16.7318 9.74153 16.7802C9.78988 16.8285 9.85545 16.8557 9.92383 16.8557H11.3573C11.4256 16.8557 11.4912 16.8285 11.5396 16.7802C11.5879 16.7318 11.6151 16.6663 11.6151 16.5979C11.6151 16.5295 11.5879 16.4639 11.5396 16.4156C11.4912 16.3672 11.4256 16.3401 11.3573 16.3401ZM9.92383 17.5518C9.85545 17.5518 9.78988 17.579 9.74153 17.6273C9.69318 17.6757 9.66602 17.7412 9.66602 17.8096V18.5598C9.66602 18.6282 9.69318 18.6938 9.74153 18.7421C9.78988 18.7905 9.85545 18.8177 9.92383 18.8177H11.3573C11.4256 18.8177 11.4912 18.7905 11.5396 18.7421C11.5879 18.6938 11.6151 18.6282 11.6151 18.5598C11.6151 18.4915 11.5879 18.4259 11.5396 18.3775C11.4912 18.3292 11.4256 18.302 11.3573 18.302H10.1816V17.8096C10.1816 17.7412 10.1545 17.6757 10.1061 17.6273C10.0578 17.579 9.9922 17.5518 9.92383 17.5518ZM14.1726 14.3781H12.997V13.8909C12.997 13.8225 12.9698 13.7569 12.9214 13.7086C12.8731 13.6602 12.8075 13.633 12.7391 13.633C12.6708 13.633 12.6052 13.6602 12.5568 13.7086C12.5085 13.7569 12.4813 13.8225 12.4813 13.8909V14.6411C12.4813 14.7095 12.5085 14.775 12.5568 14.8234C12.6052 14.8717 12.6708 14.8989 12.7391 14.8989H14.1726C14.241 14.8989 14.3065 14.8717 14.3549 14.8234C14.4032 14.775 14.4304 14.7095 14.4304 14.6411C14.4304 14.5727 14.4032 14.5071 14.3549 14.4588C14.3065 14.4104 14.241 14.3833 14.1726 14.3833V14.3781ZM14.1726 16.3401H12.997V15.8502C12.997 15.7819 12.9698 15.7163 12.9214 15.6679C12.8731 15.6196 12.8075 15.5924 12.7391 15.5924C12.6708 15.5924 12.6052 15.6196 12.5568 15.6679C12.5085 15.7163 12.4813 15.7819 12.4813 15.8502V16.5979C12.4813 16.6663 12.5085 16.7318 12.5568 16.7802C12.6052 16.8285 12.6708 16.8557 12.7391 16.8557H14.1726C14.241 16.8557 14.3065 16.8285 14.3549 16.7802C14.4032 16.7318 14.4304 16.6663 14.4304 16.5979C14.4304 16.5295 14.4032 16.4639 14.3549 16.4156C14.3065 16.3672 14.241 16.3401 14.1726 16.3401ZM12.7391 17.5518C12.6708 17.5518 12.6052 17.579 12.5568 17.6273C12.5085 17.6757 12.4813 17.7412 12.4813 17.8096V18.5598C12.4813 18.6282 12.5085 18.6938 12.5568 18.7421C12.6052 18.7905 12.6708 18.8177 12.7391 18.8177H14.1726C14.241 18.8177 14.3065 18.7905 14.3549 18.7421C14.4032 18.6938 14.4304 18.6282 14.4304 18.5598C14.4304 18.4915 14.4032 18.4259 14.3549 18.3775C14.3065 18.3292 14.241 18.302 14.1726 18.302H12.997V17.8096C12.997 17.7412 12.9698 17.6757 12.9214 17.6273C12.8731 17.579 12.8075 17.5518 12.7391 17.5518ZM16.9879 14.3781H15.8123V13.8909C15.8123 13.8225 15.7851 13.7569 15.7368 13.7086C15.6884 13.6602 15.6228 13.633 15.5545 13.633C15.4861 13.633 15.4205 13.6602 15.3722 13.7086C15.3238 13.7569 15.2966 13.8225 15.2966 13.8909V14.6411C15.2966 14.7095 15.3238 14.775 15.3722 14.8234C15.4205 14.8717 15.4861 14.8989 15.5545 14.8989H16.9879C17.0563 14.8989 17.1218 14.8717 17.1702 14.8234C17.2185 14.775 17.2457 14.7095 17.2457 14.6411C17.2457 14.5727 17.2185 14.5071 17.1702 14.4588C17.1218 14.4104 17.0563 14.3833 16.9879 14.3833V14.3781ZM15.5545 15.5924C15.4861 15.5924 15.4205 15.6196 15.3722 15.6679C15.3238 15.7163 15.2966 15.7819 15.2966 15.8502V16.5979C15.2966 16.6663 15.3238 16.7318 15.3722 16.7802C15.4205 16.8285 15.4861 16.8557 15.5545 16.8557H16.9879C17.0563 16.8557 17.1218 16.8285 17.1702 16.7802C17.2185 16.7318 17.2457 16.6663 17.2457 16.5979C17.2457 16.5295 17.2185 16.4639 17.1702 16.4156C17.1218 16.3672 17.0563 16.3401 16.9879 16.3401H15.8123V15.8502C15.8123 15.7819 15.7851 15.7163 15.7368 15.6679C15.6884 15.6196 15.6228 15.5924 15.5545 15.5924ZM17.2457 18.5598C17.2457 18.4915 17.2185 18.4259 17.1702 18.3775C17.1218 18.3292 17.0563 18.302 16.9879 18.302H15.8123V17.8096C15.8123 17.7412 15.7851 17.6757 15.7368 17.6273C15.6884 17.579 15.6228 17.5518 15.5545 17.5518C15.4861 17.5518 15.4205 17.579 15.3722 17.6273C15.3238 17.6757 15.2966 17.7412 15.2966 17.8096V18.5598C15.2966 18.6282 15.3238 18.6938 15.3722 18.7421C15.4205 18.7905 15.4861 18.8177 15.5545 18.8177H16.9879C17.0563 18.8177 17.1218 18.7905 17.1702 18.7421C17.2185 18.6938 17.2457 18.6282 17.2457 18.5598ZM18.6276 13.8909C18.6276 13.8225 18.6004 13.7569 18.5521 13.7086C18.5037 13.6602 18.4381 13.633 18.3698 13.633C18.3014 13.633 18.2358 13.6602 18.1875 13.7086C18.1391 13.7569 18.112 13.8225 18.112 13.8909V14.6411C18.112 14.7095 18.1391 14.775 18.1875 14.8234C18.2358 14.8717 18.3014 14.8989 18.3698 14.8989H19.8032C19.8716 14.8989 19.9372 14.8717 19.9855 14.8234C20.0339 14.775 20.061 14.7095 20.061 14.6411C20.061 14.5727 20.0339 14.5071 19.9855 14.4588C19.9372 14.4104 19.8716 14.3833 19.8032 14.3833H18.6276V13.8909ZM19.8032 16.3401H18.6276V15.8502C18.6276 15.7819 18.6004 15.7163 18.5521 15.6679C18.5037 15.6196 18.4381 15.5924 18.3698 15.5924C18.3014 15.5924 18.2358 15.6196 18.1875 15.6679C18.1391 15.7163 18.112 15.7819 18.112 15.8502V16.5979C18.112 16.6663 18.1391 16.7318 18.1875 16.7802C18.2358 16.8285 18.3014 16.8557 18.3698 16.8557H19.8032C19.8716 16.8557 19.9372 16.8285 19.9855 16.7802C20.0339 16.7318 20.061 16.6663 20.061 16.5979C20.061 16.5295 20.0339 16.4639 19.9855 16.4156C19.9372 16.3672 19.8716 16.3401 19.8032 16.3401ZM18.3698 17.5518C18.3014 17.5518 18.2358 17.579 18.1875 17.6273C18.1391 17.6757 18.112 17.7412 18.112 17.8096V18.5598C18.112 18.6282 18.1391 18.6938 18.1875 18.7421C18.2358 18.7905 18.3014 18.8177 18.3698 18.8177H19.8032C19.8716 18.8177 19.9372 18.7905 19.9855 18.7421C20.0339 18.6938 20.061 18.6282 20.061 18.5598C20.061 18.4915 20.0339 18.4259 19.9855 18.3775C19.9372 18.3292 19.8716 18.302 19.8032 18.302H18.6276V17.8096C18.6276 17.7412 18.6004 17.6757 18.5521 17.6273C18.5037 17.579 18.4381 17.5518 18.3698 17.5518ZM11.316 12.2383V8.04883C11.316 7.98045 11.2889 7.91488 11.2405 7.86653C11.1922 7.81818 11.1266 7.79102 11.0582 7.79102C10.9898 7.79102 10.9243 7.81818 10.8759 7.86653C10.8276 7.91488 10.8004 7.98045 10.8004 8.04883V12.2383C10.8004 12.3067 10.8276 12.3722 10.8759 12.4206C10.9243 12.4689 10.9898 12.4961 11.0582 12.4961C11.1266 12.4961 11.1922 12.4689 11.2405 12.4206C11.2889 12.3722 11.316 12.3067 11.316 12.2383ZM18.6817 7.79102C18.6133 7.79102 18.5478 7.81818 18.4994 7.86653C18.4511 7.91488 18.4239 7.98045 18.4239 8.04883V12.2383C18.4239 12.3067 18.4511 12.3722 18.4994 12.4206C18.5478 12.4689 18.6133 12.4961 18.6817 12.4961C18.7501 12.4961 18.8157 12.4689 18.864 12.4206C18.9124 12.3722 18.9395 12.3067 18.9395 12.2383V8.04883C18.9395 7.98045 18.9124 7.91488 18.864 7.86653C18.8157 7.81818 18.7501 7.79102 18.6817 7.79102ZM24.4026 14.3652C22.5051 14.3652 21.0742 15.0562 21.0742 15.9714C21.0725 16.0023 21.0725 16.0333 21.0742 16.0642C21.0728 16.0797 21.0728 16.0952 21.0742 16.1106V18.7893C21.0742 18.8577 21.1014 18.9232 21.1497 18.9716C21.1981 19.0199 21.2637 19.0471 21.332 19.0471C21.4004 19.0471 21.466 19.0199 21.5143 18.9716C21.5627 18.9232 21.5898 18.8577 21.5898 18.7893V18.5315C22.1699 18.9749 23.1883 19.2559 24.4026 19.2559C25.6169 19.2559 26.6352 18.9723 27.2153 18.5315V19.3462C27.2153 19.8618 26.0139 20.4367 24.4026 20.4367H24.2556C24.0885 20.4425 23.9211 20.4339 23.7555 20.4109C23.6871 20.402 23.618 20.4207 23.5634 20.4627C23.5087 20.5048 23.473 20.5669 23.4641 20.6352C23.4553 20.7036 23.4739 20.7727 23.516 20.8273C23.558 20.882 23.6201 20.9177 23.6884 20.9266C23.8447 20.9486 24.0024 20.9589 24.1602 20.9575H24.4026C25.6143 20.9575 26.6352 20.6739 27.2153 20.233V21.0477C27.2153 21.5634 26.0139 22.1383 24.4026 22.1383H24.2556C24.0885 22.144 23.9211 22.1354 23.7555 22.1125C23.6878 22.1037 23.6194 22.1221 23.5653 22.1637C23.5111 22.2052 23.4757 22.2666 23.4667 22.3342C23.4609 22.4006 23.4809 22.4667 23.5228 22.5186C23.5646 22.5705 23.6249 22.6042 23.691 22.6127C23.8473 22.6347 24.005 22.645 24.1628 22.6436H24.4052C25.6169 22.6436 26.6378 22.36 27.2179 21.9191V22.7338C27.2179 23.2495 26.0165 23.8244 24.4052 23.8244H24.2582C24.0911 23.8303 23.9237 23.8216 23.758 23.7986C23.7242 23.7942 23.6898 23.7965 23.6568 23.8054C23.6239 23.8143 23.593 23.8296 23.5659 23.8504C23.5113 23.8925 23.4756 23.9545 23.4667 24.0229C23.4578 24.0913 23.4765 24.1604 23.5185 24.215C23.5606 24.2696 23.6226 24.3053 23.691 24.3142C23.8473 24.3362 24.005 24.3466 24.1628 24.3452H24.4052C25.6169 24.3452 26.6378 24.0616 27.2179 23.6207V24.4354C27.2179 24.951 26.0165 25.5259 24.4052 25.5259H24.2582C24.0911 25.5319 23.9237 25.5233 23.758 25.5002C23.7228 25.4913 23.6861 25.4901 23.6503 25.4964C23.6146 25.5028 23.5806 25.5167 23.5505 25.5371C23.5205 25.5575 23.4951 25.5841 23.4761 25.615C23.457 25.6459 23.4447 25.6805 23.4399 25.7165C23.4352 25.7526 23.4381 25.7892 23.4485 25.824C23.4589 25.8588 23.4765 25.891 23.5002 25.9185C23.5239 25.946 23.5531 25.9683 23.586 25.9837C23.6189 25.9991 23.6547 26.0074 23.691 26.008C23.8473 26.0301 24.005 26.0404 24.1628 26.039H24.4052C26.3027 26.039 27.7335 25.348 27.7335 24.4328V16.1106C27.7349 16.0952 27.7349 16.0797 27.7335 16.0642C27.7352 16.0333 27.7352 16.0023 27.7335 15.9714C27.7284 15.0562 26.2975 14.3652 24.4026 14.3652ZM24.4026 14.8809C26.0113 14.8809 27.2153 15.4558 27.2153 15.9714C27.2153 16.487 26.0113 17.0594 24.4026 17.0594C22.7938 17.0594 21.5898 16.4845 21.5898 15.9688C21.5898 15.4532 22.7913 14.8809 24.4026 14.8809ZM24.4026 18.7352C22.7938 18.7352 21.5898 18.1602 21.5898 17.6446V16.8505C22.1699 17.294 23.1883 17.575 24.4026 17.575C25.6169 17.575 26.6352 17.2914 27.2153 16.8505V17.6446C27.2127 18.1602 26.0113 18.7352 24.4026 18.7352Z" fill="url(#paint1_linear_1048_26330)"/>
<path d="M19.5659 19.4493C17.6684 19.4493 16.2376 20.1402 16.2376 21.0555C16.2359 21.0864 16.2359 21.1174 16.2376 21.1483C16.2362 21.1637 16.2362 21.1793 16.2376 21.1947V26.1215C16.2376 27.0367 17.6684 27.7277 19.5659 27.7277C21.4634 27.7277 22.8943 27.0393 22.8943 26.1215V21.1921C22.8957 21.1767 22.8957 21.1611 22.8943 21.1457C22.896 21.1148 22.896 21.0838 22.8943 21.0529C22.8943 20.1402 21.4634 19.4493 19.5659 19.4493ZM22.3787 24.4251C22.3787 24.9407 21.1773 25.5156 19.5659 25.5156C17.9546 25.5156 16.7558 24.9381 16.7558 24.4251V23.6104C17.3359 24.0538 18.3542 24.3348 19.5685 24.3348C20.7828 24.3348 21.8012 24.0513 22.3813 23.6104L22.3787 24.4251ZM22.3787 22.7287C22.3787 23.2443 21.1773 23.8192 19.5659 23.8192C17.9546 23.8192 16.7558 23.2443 16.7558 22.7287V21.9346C17.3333 22.3781 18.3542 22.6565 19.5659 22.6565C20.7777 22.6565 21.7986 22.3729 22.3787 21.932V22.7287ZM19.5659 19.9649C21.1747 19.9649 22.3787 20.5398 22.3787 21.0555C22.3787 21.5711 21.1773 22.1409 19.5659 22.1409C17.9546 22.1409 16.7558 21.5685 16.7558 21.0555C16.7558 20.5424 17.9572 19.9649 19.5659 19.9649ZM19.5659 27.2095C17.9572 27.2095 16.7532 26.6345 16.7532 26.1189V25.3042C17.3333 25.7502 18.3542 26.0313 19.5659 26.0313C20.7777 26.0313 21.7986 25.7477 22.3787 25.3068V26.1215C22.3787 26.6345 21.1773 27.2095 19.5659 27.2095ZM29.9945 4.69212C29.9636 4.67807 29.9304 4.67022 29.8965 4.66903C29.8627 4.66784 29.8289 4.67333 29.7972 4.68518C29.7655 4.69703 29.7364 4.71501 29.7117 4.7381C29.6869 4.76118 29.6669 4.78892 29.6529 4.81973C29.6388 4.85054 29.631 4.88382 29.6298 4.91766C29.6286 4.9515 29.6341 4.98524 29.6459 5.01697C29.6578 5.04869 29.6757 5.07776 29.6988 5.10253C29.7219 5.1273 29.7497 5.14728 29.7805 5.16134C30.4711 5.47418 31.0388 6.00679 31.395 6.6761C31.7512 7.34541 31.8759 8.11379 31.7496 8.86139C31.6233 9.60899 31.2532 10.2938 30.6969 10.809C30.1406 11.3242 29.4295 11.6408 28.6744 11.7094C27.9193 11.778 27.1628 11.5949 26.5227 11.1884C25.8827 10.782 25.3951 10.1752 25.1361 9.46262C24.877 8.75005 24.8611 7.97178 25.0908 7.24921C25.3205 6.52664 25.7828 5.90039 26.4057 5.46813L26.2871 5.85743C26.267 5.92273 26.2736 5.99335 26.3055 6.05378C26.3374 6.11421 26.392 6.1595 26.4573 6.17969C26.4821 6.18333 26.5072 6.18333 26.532 6.17969C26.5892 6.18214 26.6456 6.16548 26.6923 6.13233C26.739 6.09919 26.7733 6.05145 26.7898 5.99665L27.0992 4.98602C27.1194 4.92072 27.1128 4.8501 27.0808 4.78967C27.0489 4.72925 26.9943 4.68396 26.9291 4.66376L25.9056 4.3518C25.8717 4.34182 25.8362 4.3386 25.8011 4.34232C25.766 4.34605 25.732 4.35666 25.701 4.37354C25.67 4.39041 25.6426 4.41323 25.6204 4.44069C25.5982 4.46815 25.5817 4.49971 25.5717 4.53356C25.5617 4.56742 25.5585 4.60291 25.5622 4.63801C25.5659 4.67311 25.5765 4.70714 25.5934 4.73814C25.6103 4.76914 25.6331 4.79652 25.6606 4.8187C25.688 4.84088 25.7196 4.85744 25.7534 4.86743L26.1866 5.00149C25.4567 5.48332 24.9076 6.19407 24.6257 7.02199C24.3438 7.8499 24.345 8.74803 24.6292 9.57517C24.9134 10.4023 25.4644 11.1115 26.1957 11.5913C26.9269 12.0712 27.7968 12.2944 28.6687 12.2258C29.5406 12.1573 30.3651 11.801 31.0124 11.2128C31.6596 10.6246 32.0931 9.83804 32.2446 8.97667C32.3961 8.11529 32.257 7.228 31.8492 6.45428C31.4414 5.68057 30.7881 5.06432 29.9919 4.70243L29.9945 4.69212Z" fill="url(#paint2_linear_1048_26330)"/>
<path d="M28.102 9.13398V9.32477C28.102 9.39314 28.1292 9.45872 28.1775 9.50707C28.2259 9.55542 28.2914 9.58258 28.3598 9.58258C28.4282 9.58258 28.4938 9.55542 28.5421 9.50707C28.5905 9.45872 28.6176 9.39314 28.6176 9.32477V9.13398C28.8014 9.0799 28.9626 8.9678 29.0774 8.81445C29.1921 8.66109 29.2541 8.47472 29.2541 8.2832C29.2541 8.09169 29.1921 7.90531 29.0774 7.75196C28.9626 7.5986 28.8014 7.4865 28.6176 7.43242V4.59648C28.6176 4.52811 28.5905 4.46253 28.5421 4.41418C28.4938 4.36583 28.4282 4.33867 28.3598 4.33867C28.2914 4.33867 28.2259 4.36583 28.1775 4.41418C28.1292 4.46253 28.102 4.52811 28.102 4.59648V7.44531C27.9183 7.49939 27.757 7.61149 27.6423 7.76485C27.5276 7.91821 27.4656 8.10458 27.4656 8.29609C27.4656 8.48761 27.5276 8.67398 27.6423 8.82734C27.757 8.98069 27.9183 9.09279 28.102 9.14688V9.13398ZM28.3598 7.9068C28.4343 7.9068 28.507 7.92887 28.5689 7.97023C28.6308 8.01159 28.6791 8.07038 28.7076 8.13916C28.7361 8.20794 28.7435 8.28362 28.729 8.35664C28.7145 8.42965 28.6786 8.49672 28.626 8.54936C28.5733 8.602 28.5063 8.63785 28.4333 8.65238C28.3602 8.6669 28.2846 8.65945 28.2158 8.63096C28.147 8.60247 28.0882 8.55422 28.0469 8.49232C28.0055 8.43042 27.9834 8.35765 27.9834 8.2832C27.9834 8.18337 28.0231 8.08763 28.0937 8.01704C28.1643 7.94645 28.26 7.9068 28.3598 7.9068ZM26.8413 2.3793H29.8783C29.9467 2.3793 30.0123 2.35213 30.0606 2.30379C30.109 2.25544 30.1362 2.18986 30.1362 2.12148V1.25781C30.1362 1.18944 30.109 1.12386 30.0606 1.07551C30.0123 1.02716 29.9467 1 29.8783 1H26.8413C26.7729 1 26.7074 1.02716 26.659 1.07551C26.6107 1.12386 26.5835 1.18944 26.5835 1.25781V2.12148C26.5835 2.18986 26.6107 2.25544 26.659 2.30379C26.7074 2.35213 26.7729 2.3793 26.8413 2.3793ZM27.0991 1.51562H29.6205V1.86367H27.1017L27.0991 1.51562Z" fill="url(#paint3_linear_1048_26330)"/>
<path d="M13.0107 28.1976L13.0106 28.1974C12.9774 28.164 12.9512 28.1244 12.9334 28.0808C12.9156 28.0372 12.9066 27.9907 12.9068 27.9437M13.0107 28.1976L13.0068 27.944M13.0107 28.1976L15.1113 30.3085C15.1114 30.3086 15.1115 30.3086 15.1115 30.3087C15.1783 30.3767 15.2693 30.4155 15.3646 30.4165C15.46 30.4175 15.5519 30.3806 15.6201 30.3138C15.6883 30.2471 15.7271 30.156 15.7281 30.0605C15.7291 29.9651 15.6922 29.8732 15.6254 29.805L15.6247 29.8043L13.6224 27.802V25.75C13.6224 25.6551 13.5847 25.5641 13.5176 25.497C13.4505 25.4299 13.3595 25.3922 13.2646 25.3922H11.8776C11.7827 25.3922 11.6917 25.4299 11.6246 25.497C11.5702 25.5514 11.5351 25.6214 11.5238 25.6965L10.7544 24.9314L10.7544 24.9314C10.6874 24.8648 10.5967 24.8274 10.5022 24.8274C10.4076 24.8274 10.3169 24.8648 10.2499 24.9314L10.2497 24.9316L5.37702 29.8043L5.37681 29.8041L5.37178 29.8099C5.31316 29.8784 5.28253 29.9664 5.28601 30.0565C5.28949 30.1465 5.32682 30.232 5.39054 30.2957H5.39054C5.45427 30.3594 5.53969 30.3968 5.62974 30.4002C5.7198 30.4037 5.80785 30.3731 5.8763 30.3145L5.87649 30.3147L5.88196 30.3092L10.5009 25.6903M13.0107 28.1976L10.5009 25.6903M12.9068 27.9437C12.9068 27.9436 12.9068 27.9435 12.9068 27.9434L13.0068 27.944M12.9068 27.9437V27.944H13.0068M12.9068 27.9437V26.1078M13.0068 27.944V26.1078H12.9068M12.9068 26.1078V26.0078H12.2354V26.1078M12.9068 26.1078H12.2354M12.2354 26.1078H12.1354V26.5595M12.2354 26.1078V26.5592M12.2354 26.5592C12.2354 26.5591 12.2354 26.559 12.2354 26.5589L12.1354 26.5595M12.2354 26.5592V26.5595H12.1354M12.2354 26.5592C12.2358 26.6302 12.215 26.6997 12.1758 26.7588C12.1365 26.818 12.0804 26.8642 12.0148 26.8915L11.9764 26.7991M12.1354 26.5595C12.1357 26.6107 12.1207 26.6609 12.0924 26.7035C12.0641 26.7462 12.0237 26.7795 11.9764 26.7991M11.9764 26.7991L12.0148 26.8915C11.9492 26.9187 11.8769 26.9258 11.8072 26.9118C11.7376 26.8979 11.6738 26.8636 11.6238 26.8132C11.6237 26.8132 11.6236 26.8131 11.6235 26.813L10.5009 25.6903M11.9764 26.7991L10.5009 25.6903M32.2681 4.08466L32.8051 3.43019L33.1197 3.68887L33.1198 3.68898C33.1933 3.74921 33.2878 3.77777 33.3823 3.76838C33.4769 3.75899 33.5638 3.71242 33.6241 3.63891C33.6843 3.56541 33.7129 3.47098 33.7035 3.37642C33.6941 3.28186 33.6475 3.1949 33.574 3.13467L33.5739 3.13459L32.9811 2.65003L32.9809 2.64991L32.3778 2.15503L32.3778 2.15498C32.3043 2.09475 32.2098 2.06619 32.1153 2.07558C32.0207 2.08497 31.9337 2.13154 31.8735 2.20505C31.8133 2.27855 31.7847 2.37298 31.7941 2.46754C31.8035 2.5621 31.8501 2.64907 31.9236 2.70929L31.9241 2.70969L32.2506 2.9738L31.7177 3.62372C30.5315 2.7499 29.0547 2.36205 27.59 2.54218C26.0933 2.72625 24.728 3.48874 23.7864 4.66654C22.8447 5.84434 22.4013 7.34391 22.5512 8.84442C22.701 10.3449 23.4321 11.7272 24.5881 12.6955C25.7441 13.6639 27.2332 14.1413 28.7367 14.0258C30.2402 13.9103 31.6389 13.2109 32.6333 12.0773C33.6278 10.9437 34.1392 9.46599 34.058 7.9602C33.9785 6.48593 33.3372 5.09943 32.2681 4.08466ZM32.3144 2.23233L32.3144 2.23233L32.3144 2.23233ZM33.3874 8.28329C33.3874 9.27768 33.0925 10.2497 32.5401 11.0765C31.9876 11.9034 31.2024 12.5478 30.2836 12.9284C29.3649 13.3089 28.354 13.4085 27.3786 13.2145C26.4033 13.0205 25.5074 12.5416 24.8043 11.8384C24.1011 11.1353 23.6223 10.2394 23.4283 9.26408C23.2342 8.28877 23.3338 7.27783 23.7144 6.3591C24.0949 5.44037 24.7394 4.65513 25.5662 4.10265C26.393 3.5502 27.365 3.25532 28.3594 3.2553C29.6925 3.25664 30.9706 3.7868 31.9133 4.72944C32.8559 5.67209 33.3861 6.9502 33.3874 8.28329Z" fill="url(#paint4_linear_1048_26330)"/>
<path d="M13.0107 28.1976L13.0106 28.1974C12.9774 28.164 12.9512 28.1244 12.9334 28.0808C12.9156 28.0372 12.9066 27.9907 12.9068 27.9437M13.0107 28.1976L13.0068 27.944M13.0107 28.1976L15.1113 30.3085C15.1114 30.3086 15.1115 30.3086 15.1115 30.3087C15.1783 30.3767 15.2693 30.4155 15.3646 30.4165C15.46 30.4175 15.5519 30.3806 15.6201 30.3138C15.6883 30.2471 15.7271 30.156 15.7281 30.0605C15.7291 29.9651 15.6922 29.8732 15.6254 29.805L15.6247 29.8043L13.6224 27.802V25.75C13.6224 25.6551 13.5847 25.5641 13.5176 25.497C13.4505 25.4299 13.3595 25.3922 13.2646 25.3922H11.8776C11.7827 25.3922 11.6917 25.4299 11.6246 25.497C11.5702 25.5514 11.5351 25.6214 11.5238 25.6965L10.7544 24.9314L10.7544 24.9314C10.6874 24.8648 10.5967 24.8274 10.5022 24.8274C10.4076 24.8274 10.3169 24.8648 10.2499 24.9314L10.2497 24.9316L5.37702 29.8043L5.37681 29.8041L5.37178 29.8099C5.31316 29.8784 5.28253 29.9664 5.28601 30.0565C5.28949 30.1465 5.32682 30.232 5.39054 30.2957H5.39054C5.45427 30.3594 5.53969 30.3968 5.62974 30.4002C5.7198 30.4037 5.80785 30.3731 5.8763 30.3145L5.87649 30.3147L5.88196 30.3092L10.5009 25.6903M13.0107 28.1976L10.5009 25.6903M12.9068 27.9437C12.9068 27.9436 12.9068 27.9435 12.9068 27.9434L13.0068 27.944M12.9068 27.9437V27.944H13.0068M12.9068 27.9437V26.1078M13.0068 27.944V26.1078H12.9068M12.9068 26.1078V26.0078H12.2354V26.1078M12.9068 26.1078H12.2354M12.2354 26.1078H12.1354V26.5595M12.2354 26.1078V26.5592M12.2354 26.5592C12.2354 26.5591 12.2354 26.559 12.2354 26.5589L12.1354 26.5595M12.2354 26.5592V26.5595H12.1354M12.2354 26.5592C12.2358 26.6302 12.215 26.6997 12.1758 26.7588C12.1365 26.818 12.0804 26.8642 12.0148 26.8915L11.9764 26.7991M12.1354 26.5595C12.1357 26.6107 12.1207 26.6609 12.0924 26.7035C12.0641 26.7462 12.0237 26.7795 11.9764 26.7991M11.9764 26.7991L12.0148 26.8915C11.9492 26.9187 11.8769 26.9258 11.8072 26.9118C11.7376 26.8979 11.6738 26.8636 11.6238 26.8132C11.6237 26.8132 11.6236 26.8131 11.6235 26.813L10.5009 25.6903M11.9764 26.7991L10.5009 25.6903M32.2681 4.08466L32.8051 3.43019L33.1197 3.68887L33.1198 3.68898C33.1933 3.74921 33.2878 3.77777 33.3823 3.76838C33.4769 3.75899 33.5638 3.71242 33.6241 3.63891C33.6843 3.56541 33.7129 3.47098 33.7035 3.37642C33.6941 3.28186 33.6475 3.1949 33.574 3.13467L33.5739 3.13459L32.9811 2.65003L32.9809 2.64991L32.3778 2.15503L32.3778 2.15498C32.3043 2.09475 32.2098 2.06619 32.1153 2.07558C32.0207 2.08497 31.9337 2.13154 31.8735 2.20505C31.8133 2.27855 31.7847 2.37298 31.7941 2.46754C31.8035 2.5621 31.8501 2.64907 31.9236 2.70929L31.9241 2.70969L32.2506 2.9738L31.7177 3.62372C30.5315 2.7499 29.0547 2.36205 27.59 2.54218C26.0933 2.72625 24.728 3.48874 23.7864 4.66654C22.8447 5.84434 22.4013 7.34391 22.5512 8.84442C22.701 10.3449 23.4321 11.7272 24.5881 12.6955C25.7441 13.6639 27.2332 14.1413 28.7367 14.0258C30.2402 13.9103 31.6389 13.2109 32.6333 12.0773C33.6278 10.9437 34.1392 9.46599 34.058 7.9602C33.9785 6.48593 33.3372 5.09943 32.2681 4.08466ZM32.3144 2.23233L32.3144 2.23233L32.3144 2.23233ZM33.3874 8.28329C33.3874 9.27768 33.0925 10.2497 32.5401 11.0765C31.9876 11.9034 31.2024 12.5478 30.2836 12.9284C29.3649 13.3089 28.354 13.4085 27.3786 13.2145C26.4033 13.0205 25.5074 12.5416 24.8043 11.8384C24.1011 11.1353 23.6223 10.2394 23.4283 9.26408C23.2342 8.28877 23.3338 7.27783 23.7144 6.3591C24.0949 5.44037 24.7394 4.65513 25.5662 4.10265C26.393 3.5502 27.365 3.25532 28.3594 3.2553C29.6925 3.25664 30.9706 3.7868 31.9133 4.72944C32.8559 5.67209 33.3861 6.9502 33.3874 8.28329Z" stroke="url(#paint5_linear_1048_26330)" stroke-width="0.2"/>
<path d="M13.0107 28.1976L13.0106 28.1974C12.9774 28.164 12.9512 28.1244 12.9334 28.0808C12.9156 28.0372 12.9066 27.9907 12.9068 27.9437M13.0107 28.1976L13.0068 27.944M13.0107 28.1976L15.1113 30.3085C15.1114 30.3086 15.1115 30.3086 15.1115 30.3087C15.1783 30.3767 15.2693 30.4155 15.3646 30.4165C15.46 30.4175 15.5519 30.3806 15.6201 30.3138C15.6883 30.2471 15.7271 30.156 15.7281 30.0605C15.7291 29.9651 15.6922 29.8732 15.6254 29.805L15.6247 29.8043L13.6224 27.802V25.75C13.6224 25.6551 13.5847 25.5641 13.5176 25.497C13.4505 25.4299 13.3595 25.3922 13.2646 25.3922H11.8776C11.7827 25.3922 11.6917 25.4299 11.6246 25.497C11.5702 25.5514 11.5351 25.6214 11.5238 25.6965L10.7544 24.9314L10.7544 24.9314C10.6874 24.8648 10.5967 24.8274 10.5022 24.8274C10.4076 24.8274 10.3169 24.8648 10.2499 24.9314L10.2497 24.9316L5.37702 29.8043L5.37681 29.8041L5.37178 29.8099C5.31316 29.8784 5.28253 29.9664 5.28601 30.0565C5.28949 30.1465 5.32682 30.232 5.39054 30.2957H5.39054C5.45427 30.3594 5.53969 30.3968 5.62974 30.4002C5.7198 30.4037 5.80785 30.3731 5.8763 30.3145L5.87649 30.3147L5.88196 30.3092L10.5009 25.6903M13.0107 28.1976L10.5009 25.6903M12.9068 27.9437C12.9068 27.9436 12.9068 27.9435 12.9068 27.9434L13.0068 27.944M12.9068 27.9437V27.944H13.0068M12.9068 27.9437V26.1078M13.0068 27.944V26.1078H12.9068M12.9068 26.1078V26.0078H12.2354V26.1078M12.9068 26.1078H12.2354M12.2354 26.1078H12.1354V26.5595M12.2354 26.1078V26.5592M12.2354 26.5592C12.2354 26.5591 12.2354 26.559 12.2354 26.5589L12.1354 26.5595M12.2354 26.5592V26.5595H12.1354M12.2354 26.5592C12.2358 26.6302 12.215 26.6997 12.1758 26.7588C12.1365 26.818 12.0804 26.8642 12.0148 26.8915L11.9764 26.7991M12.1354 26.5595C12.1357 26.6107 12.1207 26.6609 12.0924 26.7035C12.0641 26.7462 12.0237 26.7795 11.9764 26.7991M11.9764 26.7991L12.0148 26.8915C11.9492 26.9187 11.8769 26.9258 11.8072 26.9118C11.7376 26.8979 11.6738 26.8636 11.6238 26.8132C11.6237 26.8132 11.6236 26.8131 11.6235 26.813L10.5009 25.6903M11.9764 26.7991L10.5009 25.6903M32.2681 4.08466L32.8051 3.43019L33.1197 3.68887L33.1198 3.68898C33.1933 3.74921 33.2878 3.77777 33.3823 3.76838C33.4769 3.75899 33.5638 3.71242 33.6241 3.63891C33.6843 3.56541 33.7129 3.47098 33.7035 3.37642C33.6941 3.28186 33.6475 3.1949 33.574 3.13467L33.5739 3.13459L32.9811 2.65003L32.9809 2.64991L32.3778 2.15503L32.3778 2.15498C32.3043 2.09475 32.2098 2.06619 32.1153 2.07558C32.0207 2.08497 31.9337 2.13154 31.8735 2.20505C31.8133 2.27855 31.7847 2.37298 31.7941 2.46754C31.8035 2.5621 31.8501 2.64907 31.9236 2.70929L31.9241 2.70969L32.2506 2.9738L31.7177 3.62372C30.5315 2.7499 29.0547 2.36205 27.59 2.54218C26.0933 2.72625 24.728 3.48874 23.7864 4.66654C22.8447 5.84434 22.4013 7.34391 22.5512 8.84442C22.701 10.3449 23.4321 11.7272 24.5881 12.6955C25.7441 13.6639 27.2332 14.1413 28.7367 14.0258C30.2402 13.9103 31.6389 13.2109 32.6333 12.0773C33.6278 10.9437 34.1392 9.46599 34.058 7.9602C33.9785 6.48593 33.3372 5.09943 32.2681 4.08466ZM32.3144 2.23233L32.3144 2.23233L32.3144 2.23233ZM33.3874 8.28329C33.3874 9.27768 33.0925 10.2497 32.5401 11.0765C31.9876 11.9034 31.2024 12.5478 30.2836 12.9284C29.3649 13.3089 28.354 13.4085 27.3786 13.2145C26.4033 13.0205 25.5074 12.5416 24.8043 11.8384C24.1011 11.1353 23.6223 10.2394 23.4283 9.26408C23.2342 8.28877 23.3338 7.27783 23.7144 6.3591C24.0949 5.44037 24.7394 4.65513 25.5662 4.10265C26.393 3.5502 27.365 3.25532 28.3594 3.2553C29.6925 3.25664 30.9706 3.7868 31.9133 4.72944C32.8559 5.67209 33.3861 6.9502 33.3874 8.28329Z" stroke="black" stroke-opacity="0.2" stroke-width="0.2"/>
<path d="M13.6623 29.2156L13.6623 29.2156H13.6593C13.5644 29.2156 13.4734 29.2533 13.4063 29.3204C13.3392 29.3875 13.3015 29.4785 13.3015 29.5734V33.3844H11.9314V31.2414C11.9314 31.1465 11.8937 31.0555 11.8266 30.9884C11.7595 30.9213 11.6685 30.8836 11.5736 30.8836H9.3693C9.2744 30.8836 9.18339 30.9213 9.11629 30.9884C9.04918 31.0555 9.01148 31.1465 9.01148 31.2414V33.3844H7.64914V29.5734C7.64914 29.4785 7.61144 29.3875 7.54434 29.3204C7.47724 29.2533 7.38623 29.2156 7.29133 29.2156C7.19643 29.2156 7.10542 29.2533 7.03832 29.3204C6.97121 29.3875 6.93352 29.4785 6.93352 29.5734V33.7422C6.93352 33.8371 6.97121 33.9281 7.03832 33.9952C7.10542 34.0623 7.19643 34.1 7.29133 34.1H9.3693C9.46419 34.1 9.55521 34.0623 9.62231 33.9952C9.68941 33.9281 9.72711 33.8371 9.72711 33.7422V31.5992H11.2158V33.7422C11.2158 33.8371 11.2535 33.9281 11.3206 33.9952C11.3877 34.0623 11.4787 34.1 11.5736 34.1H13.6516C13.7465 34.1 13.8375 34.0623 13.9046 33.9952C13.9717 33.9281 14.0094 33.8371 14.0094 33.7422V29.5734C14.0094 29.5734 14.0094 29.5734 14.0094 29.5734C14.0094 29.4803 13.9732 29.3909 13.9084 29.3241C13.8436 29.2573 13.7553 29.2184 13.6623 29.2156ZM4.80859 27.8595C4.7137 27.8595 4.62269 27.8972 4.55558 27.9643C4.48848 28.0314 4.45078 28.1224 4.45078 28.2173V33.7422C4.45078 33.8371 4.48848 33.9281 4.55558 33.9952C4.62269 34.0623 4.7137 34.1 4.80859 34.1C4.90349 34.1 4.9945 34.0623 5.06161 33.9952C5.12871 33.9281 5.16641 33.8371 5.16641 33.7422V28.2173C5.16641 28.1224 5.12871 28.0314 5.06161 27.9643C4.9945 27.8972 4.90349 27.8595 4.80859 27.8595Z" fill="url(#paint6_linear_1048_26330)"/>
<path d="M13.6623 29.2156L13.6623 29.2156H13.6593C13.5644 29.2156 13.4734 29.2533 13.4063 29.3204C13.3392 29.3875 13.3015 29.4785 13.3015 29.5734V33.3844H11.9314V31.2414C11.9314 31.1465 11.8937 31.0555 11.8266 30.9884C11.7595 30.9213 11.6685 30.8836 11.5736 30.8836H9.3693C9.2744 30.8836 9.18339 30.9213 9.11629 30.9884C9.04918 31.0555 9.01148 31.1465 9.01148 31.2414V33.3844H7.64914V29.5734C7.64914 29.4785 7.61144 29.3875 7.54434 29.3204C7.47724 29.2533 7.38623 29.2156 7.29133 29.2156C7.19643 29.2156 7.10542 29.2533 7.03832 29.3204C6.97121 29.3875 6.93352 29.4785 6.93352 29.5734V33.7422C6.93352 33.8371 6.97121 33.9281 7.03832 33.9952C7.10542 34.0623 7.19643 34.1 7.29133 34.1H9.3693C9.46419 34.1 9.55521 34.0623 9.62231 33.9952C9.68941 33.9281 9.72711 33.8371 9.72711 33.7422V31.5992H11.2158V33.7422C11.2158 33.8371 11.2535 33.9281 11.3206 33.9952C11.3877 34.0623 11.4787 34.1 11.5736 34.1H13.6516C13.7465 34.1 13.8375 34.0623 13.9046 33.9952C13.9717 33.9281 14.0094 33.8371 14.0094 33.7422V29.5734C14.0094 29.5734 14.0094 29.5734 14.0094 29.5734C14.0094 29.4803 13.9732 29.3909 13.9084 29.3241C13.8436 29.2573 13.7553 29.2184 13.6623 29.2156ZM4.80859 27.8595C4.7137 27.8595 4.62269 27.8972 4.55558 27.9643C4.48848 28.0314 4.45078 28.1224 4.45078 28.2173V33.7422C4.45078 33.8371 4.48848 33.9281 4.55558 33.9952C4.62269 34.0623 4.7137 34.1 4.80859 34.1C4.90349 34.1 4.9945 34.0623 5.06161 33.9952C5.12871 33.9281 5.16641 33.8371 5.16641 33.7422V28.2173C5.16641 28.1224 5.12871 28.0314 5.06161 27.9643C4.9945 27.8972 4.90349 27.8595 4.80859 27.8595Z" stroke="url(#paint7_linear_1048_26330)" stroke-width="0.2"/>
<path d="M13.6623 29.2156L13.6623 29.2156H13.6593C13.5644 29.2156 13.4734 29.2533 13.4063 29.3204C13.3392 29.3875 13.3015 29.4785 13.3015 29.5734V33.3844H11.9314V31.2414C11.9314 31.1465 11.8937 31.0555 11.8266 30.9884C11.7595 30.9213 11.6685 30.8836 11.5736 30.8836H9.3693C9.2744 30.8836 9.18339 30.9213 9.11629 30.9884C9.04918 31.0555 9.01148 31.1465 9.01148 31.2414V33.3844H7.64914V29.5734C7.64914 29.4785 7.61144 29.3875 7.54434 29.3204C7.47724 29.2533 7.38623 29.2156 7.29133 29.2156C7.19643 29.2156 7.10542 29.2533 7.03832 29.3204C6.97121 29.3875 6.93352 29.4785 6.93352 29.5734V33.7422C6.93352 33.8371 6.97121 33.9281 7.03832 33.9952C7.10542 34.0623 7.19643 34.1 7.29133 34.1H9.3693C9.46419 34.1 9.55521 34.0623 9.62231 33.9952C9.68941 33.9281 9.72711 33.8371 9.72711 33.7422V31.5992H11.2158V33.7422C11.2158 33.8371 11.2535 33.9281 11.3206 33.9952C11.3877 34.0623 11.4787 34.1 11.5736 34.1H13.6516C13.7465 34.1 13.8375 34.0623 13.9046 33.9952C13.9717 33.9281 14.0094 33.8371 14.0094 33.7422V29.5734C14.0094 29.5734 14.0094 29.5734 14.0094 29.5734C14.0094 29.4803 13.9732 29.3909 13.9084 29.3241C13.8436 29.2573 13.7553 29.2184 13.6623 29.2156ZM4.80859 27.8595C4.7137 27.8595 4.62269 27.8972 4.55558 27.9643C4.48848 28.0314 4.45078 28.1224 4.45078 28.2173V33.7422C4.45078 33.8371 4.48848 33.9281 4.55558 33.9952C4.62269 34.0623 4.7137 34.1 4.80859 34.1C4.90349 34.1 4.9945 34.0623 5.06161 33.9952C5.12871 33.9281 5.16641 33.8371 5.16641 33.7422V28.2173C5.16641 28.1224 5.12871 28.0314 5.06161 27.9643C4.9945 27.8972 4.90349 27.8595 4.80859 27.8595Z" stroke="black" stroke-opacity="0.2" stroke-width="0.2"/>
<mask id="path-7-outside-1_1048_26330" maskUnits="userSpaceOnUse" x="0" y="0.00292969" width="35" height="35" fill="black">
<rect fill="white" y="0.00292969" width="35" height="35"/>
<path d="M3.79031 30.8883C3.70536 30.9048 3.61905 30.9134 3.5325 30.914C3.27058 30.9138 3.01412 30.8391 2.79303 30.6987C2.57193 30.5582 2.39529 30.3579 2.2837 30.1209C2.17211 29.8839 2.13017 29.6202 2.16275 29.3603C2.19533 29.1004 2.3011 28.8551 2.46773 28.653C2.50882 28.6033 2.52977 28.5399 2.52643 28.4755C2.52308 28.4111 2.4957 28.3502 2.44969 28.305C2.0782 27.9425 1.8051 27.4915 1.6561 26.9943C1.5071 26.4971 1.48711 25.9702 1.59801 25.4632C1.7089 24.9561 1.94704 24.4857 2.28999 24.0961C2.63293 23.7065 3.0694 23.4107 3.55828 23.2364C3.62166 23.2141 3.67384 23.1679 3.70369 23.1077C3.73355 23.0475 3.73873 22.9781 3.71812 22.9141C3.64804 22.7006 3.63277 22.4728 3.67372 22.2518C3.71468 22.0308 3.81054 21.8236 3.95249 21.6494C4.09445 21.4751 4.27793 21.3393 4.48609 21.2545C4.69424 21.1697 4.92037 21.1386 5.14369 21.1641C5.36701 21.1895 5.58034 21.2707 5.76408 21.4002C5.94782 21.5296 6.09605 21.7032 6.19516 21.9049C6.29427 22.1067 6.34107 22.3301 6.33125 22.5546C6.32143 22.7792 6.25532 22.9977 6.13898 23.19C6.10425 23.2476 6.09343 23.3166 6.10885 23.3821C6.12426 23.4476 6.16469 23.5045 6.22148 23.5406C6.65625 23.8157 7.0143 24.1964 7.26224 24.6472C7.51018 25.098 7.63995 25.6042 7.63945 26.1187C7.63954 26.2654 7.6292 26.4118 7.60851 26.557C7.5986 26.6254 7.61625 26.6949 7.65759 26.7503C7.69893 26.8056 7.76057 26.8423 7.82894 26.8522C7.89732 26.8621 7.96683 26.8445 8.02219 26.8031C8.07755 26.7618 8.11422 26.7001 8.12414 26.6318C8.14839 26.461 8.16045 26.2887 8.16023 26.1161C8.16171 25.5546 8.03027 25.0008 7.77665 24.4998C7.52303 23.9988 7.15444 23.565 6.70101 23.2338C6.81431 22.9677 6.86384 22.6788 6.84566 22.3901C6.82748 22.1014 6.7421 21.821 6.59632 21.5712C6.45053 21.3213 6.24839 21.1091 6.00601 20.9512C5.76363 20.7934 5.48772 20.6944 5.20028 20.6621C4.91285 20.6298 4.62185 20.6651 4.35049 20.7653C4.07913 20.8654 3.83493 21.0275 3.63736 21.2388C3.43979 21.45 3.29431 21.7045 3.21255 21.982C3.13078 22.2594 3.11498 22.5521 3.1664 22.8368C2.5247 23.1135 1.97799 23.5719 1.59364 24.1555C1.20929 24.7392 1.0041 25.4225 1.00336 26.1213C1.00033 27.0066 1.32865 27.861 1.92375 28.5164C1.74409 28.8029 1.64426 29.1322 1.6346 29.4702C1.62494 29.8083 1.70579 30.1428 1.8688 30.4391C2.0318 30.7354 2.27103 30.9827 2.56173 31.1555C2.85242 31.3283 3.18401 31.4203 3.52219 31.4219C3.64414 31.4222 3.76584 31.4109 3.8857 31.3884C3.95408 31.3754 4.01449 31.3358 4.05365 31.2783C4.09282 31.2207 4.10752 31.15 4.09453 31.0816C4.08154 31.0132 4.04192 30.9528 3.98438 30.9137C3.92684 30.8745 3.85611 30.8598 3.78773 30.8728L3.79031 30.8883ZM2.07328 11.7844C2.10365 11.7964 2.13602 11.8025 2.16867 11.8024C2.2203 11.8024 2.27076 11.787 2.31351 11.758C2.35626 11.7291 2.38933 11.6879 2.40844 11.64C2.5889 11.1785 2.80805 10.717 3.02203 10.2813C4.929 6.54228 8.22508 3.69929 12.2035 2.36189C16.182 1.02448 20.5261 1.29916 24.3045 3.12701C24.366 3.15709 24.437 3.1615 24.5017 3.13926C24.5338 3.12825 24.5634 3.11102 24.5888 3.08857C24.6143 3.06612 24.635 3.03888 24.6499 3.00841C24.6648 2.97794 24.6736 2.94484 24.6757 2.91098C24.6778 2.87713 24.6732 2.8432 24.6622 2.81112C24.6512 2.77904 24.6339 2.74944 24.6115 2.72402C24.589 2.69859 24.5618 2.67784 24.5313 2.66294C20.6312 0.771667 16.1452 0.48446 12.0357 1.86295C7.9263 3.24144 4.5209 6.17579 2.55023 10.0364C2.31562 10.4979 2.10422 10.9722 1.91601 11.4492C1.90378 11.4815 1.89815 11.5159 1.89948 11.5504C1.9008 11.5849 1.90904 11.6188 1.9237 11.6501C1.93837 11.6813 1.95917 11.7093 1.98486 11.7324C2.01056 11.7555 2.04063 11.7731 2.07328 11.7844ZM1.21992 15.0611H1.26117C1.32259 15.062 1.38231 15.041 1.42957 15.0017C1.47684 14.9625 1.50855 14.9077 1.51898 14.8472C1.58344 14.4604 1.66594 14.0737 1.75875 13.6844C1.76645 13.6217 1.75086 13.5584 1.71493 13.5064C1.679 13.4544 1.62524 13.4175 1.56386 13.4025C1.50247 13.3876 1.43774 13.3957 1.38194 13.4253C1.32614 13.4549 1.28316 13.504 1.26117 13.5633C1.1632 13.9603 1.0807 14.3625 1.00336 14.7647C0.997862 14.7984 0.999123 14.8329 1.00707 14.8661C1.01501 14.8993 1.02947 14.9306 1.04962 14.9582C1.06977 14.9858 1.0952 15.0091 1.12444 15.0268C1.15367 15.0444 1.18613 15.0561 1.21992 15.0611ZM33.5212 20.1813C33.4879 20.175 33.4536 20.1753 33.4204 20.1822C33.3871 20.1892 33.3556 20.2026 33.3276 20.2218C33.2995 20.2409 33.2756 20.2654 33.2571 20.2939C33.2385 20.3223 33.2258 20.3542 33.2196 20.3876C33.1294 20.8774 33.0134 21.3698 32.8767 21.8494C31.8131 25.5959 29.4194 28.8258 26.1445 30.9336C22.8696 33.0415 18.9383 33.8824 15.0877 33.2988C15.0193 33.2885 14.9496 33.3059 14.894 33.347C14.8384 33.3881 14.8014 33.4496 14.7912 33.5179C14.7809 33.5863 14.7982 33.656 14.8393 33.7116C14.8804 33.7672 14.9419 33.8042 15.0103 33.8144C18.9852 34.4244 23.0459 33.5594 26.4271 31.3825C29.8083 29.2056 32.2765 25.8671 33.3666 21.9963C33.5084 21.4987 33.6244 20.9908 33.7198 20.4881C33.727 20.4549 33.7275 20.4206 33.7214 20.3872C33.7153 20.3538 33.7027 20.322 33.6842 20.2935C33.6658 20.265 33.6419 20.2404 33.6139 20.2211C33.586 20.2019 33.5545 20.1883 33.5212 20.1813ZM33.7455 16.804C33.6772 16.804 33.6116 16.8311 33.5632 16.8795C33.5149 16.9278 33.4877 16.9934 33.4877 17.0618C33.4877 17.4562 33.4877 17.8558 33.4748 18.2503C33.4748 18.3187 33.502 18.3842 33.5504 18.4326C33.5987 18.4809 33.6643 18.5081 33.7327 18.5081C33.801 18.5081 33.8666 18.4809 33.915 18.4326C33.9633 18.3842 33.9905 18.3187 33.9905 18.2503C34.0111 17.8429 34.0137 17.4304 34.0034 17.0231C33.994 16.9616 33.9628 16.9056 33.9154 16.8653C33.8681 16.825 33.8077 16.8033 33.7455 16.804Z"/>
</mask>
<path d="M3.79031 30.8883C3.70536 30.9048 3.61905 30.9134 3.5325 30.914C3.27058 30.9138 3.01412 30.8391 2.79303 30.6987C2.57193 30.5582 2.39529 30.3579 2.2837 30.1209C2.17211 29.8839 2.13017 29.6202 2.16275 29.3603C2.19533 29.1004 2.3011 28.8551 2.46773 28.653C2.50882 28.6033 2.52977 28.5399 2.52643 28.4755C2.52308 28.4111 2.4957 28.3502 2.44969 28.305C2.0782 27.9425 1.8051 27.4915 1.6561 26.9943C1.5071 26.4971 1.48711 25.9702 1.59801 25.4632C1.7089 24.9561 1.94704 24.4857 2.28999 24.0961C2.63293 23.7065 3.0694 23.4107 3.55828 23.2364C3.62166 23.2141 3.67384 23.1679 3.70369 23.1077C3.73355 23.0475 3.73873 22.9781 3.71812 22.9141C3.64804 22.7006 3.63277 22.4728 3.67372 22.2518C3.71468 22.0308 3.81054 21.8236 3.95249 21.6494C4.09445 21.4751 4.27793 21.3393 4.48609 21.2545C4.69424 21.1697 4.92037 21.1386 5.14369 21.1641C5.36701 21.1895 5.58034 21.2707 5.76408 21.4002C5.94782 21.5296 6.09605 21.7032 6.19516 21.9049C6.29427 22.1067 6.34107 22.3301 6.33125 22.5546C6.32143 22.7792 6.25532 22.9977 6.13898 23.19C6.10425 23.2476 6.09343 23.3166 6.10885 23.3821C6.12426 23.4476 6.16469 23.5045 6.22148 23.5406C6.65625 23.8157 7.0143 24.1964 7.26224 24.6472C7.51018 25.098 7.63995 25.6042 7.63945 26.1187C7.63954 26.2654 7.6292 26.4118 7.60851 26.557C7.5986 26.6254 7.61625 26.6949 7.65759 26.7503C7.69893 26.8056 7.76057 26.8423 7.82894 26.8522C7.89732 26.8621 7.96683 26.8445 8.02219 26.8031C8.07755 26.7618 8.11422 26.7001 8.12414 26.6318C8.14839 26.461 8.16045 26.2887 8.16023 26.1161C8.16171 25.5546 8.03027 25.0008 7.77665 24.4998C7.52303 23.9988 7.15444 23.565 6.70101 23.2338C6.81431 22.9677 6.86384 22.6788 6.84566 22.3901C6.82748 22.1014 6.7421 21.821 6.59632 21.5712C6.45053 21.3213 6.24839 21.1091 6.00601 20.9512C5.76363 20.7934 5.48772 20.6944 5.20028 20.6621C4.91285 20.6298 4.62185 20.6651 4.35049 20.7653C4.07913 20.8654 3.83493 21.0275 3.63736 21.2388C3.43979 21.45 3.29431 21.7045 3.21255 21.982C3.13078 22.2594 3.11498 22.5521 3.1664 22.8368C2.5247 23.1135 1.97799 23.5719 1.59364 24.1555C1.20929 24.7392 1.0041 25.4225 1.00336 26.1213C1.00033 27.0066 1.32865 27.861 1.92375 28.5164C1.74409 28.8029 1.64426 29.1322 1.6346 29.4702C1.62494 29.8083 1.70579 30.1428 1.8688 30.4391C2.0318 30.7354 2.27103 30.9827 2.56173 31.1555C2.85242 31.3283 3.18401 31.4203 3.52219 31.4219C3.64414 31.4222 3.76584 31.4109 3.8857 31.3884C3.95408 31.3754 4.01449 31.3358 4.05365 31.2783C4.09282 31.2207 4.10752 31.15 4.09453 31.0816C4.08154 31.0132 4.04192 30.9528 3.98438 30.9137C3.92684 30.8745 3.85611 30.8598 3.78773 30.8728L3.79031 30.8883ZM2.07328 11.7844C2.10365 11.7964 2.13602 11.8025 2.16867 11.8024C2.2203 11.8024 2.27076 11.787 2.31351 11.758C2.35626 11.7291 2.38933 11.6879 2.40844 11.64C2.5889 11.1785 2.80805 10.717 3.02203 10.2813C4.929 6.54228 8.22508 3.69929 12.2035 2.36189C16.182 1.02448 20.5261 1.29916 24.3045 3.12701C24.366 3.15709 24.437 3.1615 24.5017 3.13926C24.5338 3.12825 24.5634 3.11102 24.5888 3.08857C24.6143 3.06612 24.635 3.03888 24.6499 3.00841C24.6648 2.97794 24.6736 2.94484 24.6757 2.91098C24.6778 2.87713 24.6732 2.8432 24.6622 2.81112C24.6512 2.77904 24.6339 2.74944 24.6115 2.72402C24.589 2.69859 24.5618 2.67784 24.5313 2.66294C20.6312 0.771667 16.1452 0.48446 12.0357 1.86295C7.9263 3.24144 4.5209 6.17579 2.55023 10.0364C2.31562 10.4979 2.10422 10.9722 1.91601 11.4492C1.90378 11.4815 1.89815 11.5159 1.89948 11.5504C1.9008 11.5849 1.90904 11.6188 1.9237 11.6501C1.93837 11.6813 1.95917 11.7093 1.98486 11.7324C2.01056 11.7555 2.04063 11.7731 2.07328 11.7844ZM1.21992 15.0611H1.26117C1.32259 15.062 1.38231 15.041 1.42957 15.0017C1.47684 14.9625 1.50855 14.9077 1.51898 14.8472C1.58344 14.4604 1.66594 14.0737 1.75875 13.6844C1.76645 13.6217 1.75086 13.5584 1.71493 13.5064C1.679 13.4544 1.62524 13.4175 1.56386 13.4025C1.50247 13.3876 1.43774 13.3957 1.38194 13.4253C1.32614 13.4549 1.28316 13.504 1.26117 13.5633C1.1632 13.9603 1.0807 14.3625 1.00336 14.7647C0.997862 14.7984 0.999123 14.8329 1.00707 14.8661C1.01501 14.8993 1.02947 14.9306 1.04962 14.9582C1.06977 14.9858 1.0952 15.0091 1.12444 15.0268C1.15367 15.0444 1.18613 15.0561 1.21992 15.0611ZM33.5212 20.1813C33.4879 20.175 33.4536 20.1753 33.4204 20.1822C33.3871 20.1892 33.3556 20.2026 33.3276 20.2218C33.2995 20.2409 33.2756 20.2654 33.2571 20.2939C33.2385 20.3223 33.2258 20.3542 33.2196 20.3876C33.1294 20.8774 33.0134 21.3698 32.8767 21.8494C31.8131 25.5959 29.4194 28.8258 26.1445 30.9336C22.8696 33.0415 18.9383 33.8824 15.0877 33.2988C15.0193 33.2885 14.9496 33.3059 14.894 33.347C14.8384 33.3881 14.8014 33.4496 14.7912 33.5179C14.7809 33.5863 14.7982 33.656 14.8393 33.7116C14.8804 33.7672 14.9419 33.8042 15.0103 33.8144C18.9852 34.4244 23.0459 33.5594 26.4271 31.3825C29.8083 29.2056 32.2765 25.8671 33.3666 21.9963C33.5084 21.4987 33.6244 20.9908 33.7198 20.4881C33.727 20.4549 33.7275 20.4206 33.7214 20.3872C33.7153 20.3538 33.7027 20.322 33.6842 20.2935C33.6658 20.265 33.6419 20.2404 33.6139 20.2211C33.586 20.2019 33.5545 20.1883 33.5212 20.1813ZM33.7455 16.804C33.6772 16.804 33.6116 16.8311 33.5632 16.8795C33.5149 16.9278 33.4877 16.9934 33.4877 17.0618C33.4877 17.4562 33.4877 17.8558 33.4748 18.2503C33.4748 18.3187 33.502 18.3842 33.5504 18.4326C33.5987 18.4809 33.6643 18.5081 33.7327 18.5081C33.801 18.5081 33.8666 18.4809 33.915 18.4326C33.9633 18.3842 33.9905 18.3187 33.9905 18.2503C34.0111 17.8429 34.0137 17.4304 34.0034 17.0231C33.994 16.9616 33.9628 16.9056 33.9154 16.8653C33.8681 16.825 33.8077 16.8033 33.7455 16.804Z" fill="url(#paint8_linear_1048_26330)"/>
<path d="M3.79031 30.8883C3.70536 30.9048 3.61905 30.9134 3.5325 30.914C3.27058 30.9138 3.01412 30.8391 2.79303 30.6987C2.57193 30.5582 2.39529 30.3579 2.2837 30.1209C2.17211 29.8839 2.13017 29.6202 2.16275 29.3603C2.19533 29.1004 2.3011 28.8551 2.46773 28.653C2.50882 28.6033 2.52977 28.5399 2.52643 28.4755C2.52308 28.4111 2.4957 28.3502 2.44969 28.305C2.0782 27.9425 1.8051 27.4915 1.6561 26.9943C1.5071 26.4971 1.48711 25.9702 1.59801 25.4632C1.7089 24.9561 1.94704 24.4857 2.28999 24.0961C2.63293 23.7065 3.0694 23.4107 3.55828 23.2364C3.62166 23.2141 3.67384 23.1679 3.70369 23.1077C3.73355 23.0475 3.73873 22.9781 3.71812 22.9141C3.64804 22.7006 3.63277 22.4728 3.67372 22.2518C3.71468 22.0308 3.81054 21.8236 3.95249 21.6494C4.09445 21.4751 4.27793 21.3393 4.48609 21.2545C4.69424 21.1697 4.92037 21.1386 5.14369 21.1641C5.36701 21.1895 5.58034 21.2707 5.76408 21.4002C5.94782 21.5296 6.09605 21.7032 6.19516 21.9049C6.29427 22.1067 6.34107 22.3301 6.33125 22.5546C6.32143 22.7792 6.25532 22.9977 6.13898 23.19C6.10425 23.2476 6.09343 23.3166 6.10885 23.3821C6.12426 23.4476 6.16469 23.5045 6.22148 23.5406C6.65625 23.8157 7.0143 24.1964 7.26224 24.6472C7.51018 25.098 7.63995 25.6042 7.63945 26.1187C7.63954 26.2654 7.6292 26.4118 7.60851 26.557C7.5986 26.6254 7.61625 26.6949 7.65759 26.7503C7.69893 26.8056 7.76057 26.8423 7.82894 26.8522C7.89732 26.8621 7.96683 26.8445 8.02219 26.8031C8.07755 26.7618 8.11422 26.7001 8.12414 26.6318C8.14839 26.461 8.16045 26.2887 8.16023 26.1161C8.16171 25.5546 8.03027 25.0008 7.77665 24.4998C7.52303 23.9988 7.15444 23.565 6.70101 23.2338C6.81431 22.9677 6.86384 22.6788 6.84566 22.3901C6.82748 22.1014 6.7421 21.821 6.59632 21.5712C6.45053 21.3213 6.24839 21.1091 6.00601 20.9512C5.76363 20.7934 5.48772 20.6944 5.20028 20.6621C4.91285 20.6298 4.62185 20.6651 4.35049 20.7653C4.07913 20.8654 3.83493 21.0275 3.63736 21.2388C3.43979 21.45 3.29431 21.7045 3.21255 21.982C3.13078 22.2594 3.11498 22.5521 3.1664 22.8368C2.5247 23.1135 1.97799 23.5719 1.59364 24.1555C1.20929 24.7392 1.0041 25.4225 1.00336 26.1213C1.00033 27.0066 1.32865 27.861 1.92375 28.5164C1.74409 28.8029 1.64426 29.1322 1.6346 29.4702C1.62494 29.8083 1.70579 30.1428 1.8688 30.4391C2.0318 30.7354 2.27103 30.9827 2.56173 31.1555C2.85242 31.3283 3.18401 31.4203 3.52219 31.4219C3.64414 31.4222 3.76584 31.4109 3.8857 31.3884C3.95408 31.3754 4.01449 31.3358 4.05365 31.2783C4.09282 31.2207 4.10752 31.15 4.09453 31.0816C4.08154 31.0132 4.04192 30.9528 3.98438 30.9137C3.92684 30.8745 3.85611 30.8598 3.78773 30.8728L3.79031 30.8883ZM2.07328 11.7844C2.10365 11.7964 2.13602 11.8025 2.16867 11.8024C2.2203 11.8024 2.27076 11.787 2.31351 11.758C2.35626 11.7291 2.38933 11.6879 2.40844 11.64C2.5889 11.1785 2.80805 10.717 3.02203 10.2813C4.929 6.54228 8.22508 3.69929 12.2035 2.36189C16.182 1.02448 20.5261 1.29916 24.3045 3.12701C24.366 3.15709 24.437 3.1615 24.5017 3.13926C24.5338 3.12825 24.5634 3.11102 24.5888 3.08857C24.6143 3.06612 24.635 3.03888 24.6499 3.00841C24.6648 2.97794 24.6736 2.94484 24.6757 2.91098C24.6778 2.87713 24.6732 2.8432 24.6622 2.81112C24.6512 2.77904 24.6339 2.74944 24.6115 2.72402C24.589 2.69859 24.5618 2.67784 24.5313 2.66294C20.6312 0.771667 16.1452 0.48446 12.0357 1.86295C7.9263 3.24144 4.5209 6.17579 2.55023 10.0364C2.31562 10.4979 2.10422 10.9722 1.91601 11.4492C1.90378 11.4815 1.89815 11.5159 1.89948 11.5504C1.9008 11.5849 1.90904 11.6188 1.9237 11.6501C1.93837 11.6813 1.95917 11.7093 1.98486 11.7324C2.01056 11.7555 2.04063 11.7731 2.07328 11.7844ZM1.21992 15.0611H1.26117C1.32259 15.062 1.38231 15.041 1.42957 15.0017C1.47684 14.9625 1.50855 14.9077 1.51898 14.8472C1.58344 14.4604 1.66594 14.0737 1.75875 13.6844C1.76645 13.6217 1.75086 13.5584 1.71493 13.5064C1.679 13.4544 1.62524 13.4175 1.56386 13.4025C1.50247 13.3876 1.43774 13.3957 1.38194 13.4253C1.32614 13.4549 1.28316 13.504 1.26117 13.5633C1.1632 13.9603 1.0807 14.3625 1.00336 14.7647C0.997862 14.7984 0.999123 14.8329 1.00707 14.8661C1.01501 14.8993 1.02947 14.9306 1.04962 14.9582C1.06977 14.9858 1.0952 15.0091 1.12444 15.0268C1.15367 15.0444 1.18613 15.0561 1.21992 15.0611ZM33.5212 20.1813C33.4879 20.175 33.4536 20.1753 33.4204 20.1822C33.3871 20.1892 33.3556 20.2026 33.3276 20.2218C33.2995 20.2409 33.2756 20.2654 33.2571 20.2939C33.2385 20.3223 33.2258 20.3542 33.2196 20.3876C33.1294 20.8774 33.0134 21.3698 32.8767 21.8494C31.8131 25.5959 29.4194 28.8258 26.1445 30.9336C22.8696 33.0415 18.9383 33.8824 15.0877 33.2988C15.0193 33.2885 14.9496 33.3059 14.894 33.347C14.8384 33.3881 14.8014 33.4496 14.7912 33.5179C14.7809 33.5863 14.7982 33.656 14.8393 33.7116C14.8804 33.7672 14.9419 33.8042 15.0103 33.8144C18.9852 34.4244 23.0459 33.5594 26.4271 31.3825C29.8083 29.2056 32.2765 25.8671 33.3666 21.9963C33.5084 21.4987 33.6244 20.9908 33.7198 20.4881C33.727 20.4549 33.7275 20.4206 33.7214 20.3872C33.7153 20.3538 33.7027 20.322 33.6842 20.2935C33.6658 20.265 33.6419 20.2404 33.6139 20.2211C33.586 20.2019 33.5545 20.1883 33.5212 20.1813ZM33.7455 16.804C33.6772 16.804 33.6116 16.8311 33.5632 16.8795C33.5149 16.9278 33.4877 16.9934 33.4877 17.0618C33.4877 17.4562 33.4877 17.8558 33.4748 18.2503C33.4748 18.3187 33.502 18.3842 33.5504 18.4326C33.5987 18.4809 33.6643 18.5081 33.7327 18.5081C33.801 18.5081 33.8666 18.4809 33.915 18.4326C33.9633 18.3842 33.9905 18.3187 33.9905 18.2503C34.0111 17.8429 34.0137 17.4304 34.0034 17.0231C33.994 16.9616 33.9628 16.9056 33.9154 16.8653C33.8681 16.825 33.8077 16.8033 33.7455 16.804Z" stroke="url(#paint9_linear_1048_26330)" stroke-width="0.4" mask="url(#path-7-outside-1_1048_26330)"/>
<path d="M3.79031 30.8883C3.70536 30.9048 3.61905 30.9134 3.5325 30.914C3.27058 30.9138 3.01412 30.8391 2.79303 30.6987C2.57193 30.5582 2.39529 30.3579 2.2837 30.1209C2.17211 29.8839 2.13017 29.6202 2.16275 29.3603C2.19533 29.1004 2.3011 28.8551 2.46773 28.653C2.50882 28.6033 2.52977 28.5399 2.52643 28.4755C2.52308 28.4111 2.4957 28.3502 2.44969 28.305C2.0782 27.9425 1.8051 27.4915 1.6561 26.9943C1.5071 26.4971 1.48711 25.9702 1.59801 25.4632C1.7089 24.9561 1.94704 24.4857 2.28999 24.0961C2.63293 23.7065 3.0694 23.4107 3.55828 23.2364C3.62166 23.2141 3.67384 23.1679 3.70369 23.1077C3.73355 23.0475 3.73873 22.9781 3.71812 22.9141C3.64804 22.7006 3.63277 22.4728 3.67372 22.2518C3.71468 22.0308 3.81054 21.8236 3.95249 21.6494C4.09445 21.4751 4.27793 21.3393 4.48609 21.2545C4.69424 21.1697 4.92037 21.1386 5.14369 21.1641C5.36701 21.1895 5.58034 21.2707 5.76408 21.4002C5.94782 21.5296 6.09605 21.7032 6.19516 21.9049C6.29427 22.1067 6.34107 22.3301 6.33125 22.5546C6.32143 22.7792 6.25532 22.9977 6.13898 23.19C6.10425 23.2476 6.09343 23.3166 6.10885 23.3821C6.12426 23.4476 6.16469 23.5045 6.22148 23.5406C6.65625 23.8157 7.0143 24.1964 7.26224 24.6472C7.51018 25.098 7.63995 25.6042 7.63945 26.1187C7.63954 26.2654 7.6292 26.4118 7.60851 26.557C7.5986 26.6254 7.61625 26.6949 7.65759 26.7503C7.69893 26.8056 7.76057 26.8423 7.82894 26.8522C7.89732 26.8621 7.96683 26.8445 8.02219 26.8031C8.07755 26.7618 8.11422 26.7001 8.12414 26.6318C8.14839 26.461 8.16045 26.2887 8.16023 26.1161C8.16171 25.5546 8.03027 25.0008 7.77665 24.4998C7.52303 23.9988 7.15444 23.565 6.70101 23.2338C6.81431 22.9677 6.86384 22.6788 6.84566 22.3901C6.82748 22.1014 6.7421 21.821 6.59632 21.5712C6.45053 21.3213 6.24839 21.1091 6.00601 20.9512C5.76363 20.7934 5.48772 20.6944 5.20028 20.6621C4.91285 20.6298 4.62185 20.6651 4.35049 20.7653C4.07913 20.8654 3.83493 21.0275 3.63736 21.2388C3.43979 21.45 3.29431 21.7045 3.21255 21.982C3.13078 22.2594 3.11498 22.5521 3.1664 22.8368C2.5247 23.1135 1.97799 23.5719 1.59364 24.1555C1.20929 24.7392 1.0041 25.4225 1.00336 26.1213C1.00033 27.0066 1.32865 27.861 1.92375 28.5164C1.74409 28.8029 1.64426 29.1322 1.6346 29.4702C1.62494 29.8083 1.70579 30.1428 1.8688 30.4391C2.0318 30.7354 2.27103 30.9827 2.56173 31.1555C2.85242 31.3283 3.18401 31.4203 3.52219 31.4219C3.64414 31.4222 3.76584 31.4109 3.8857 31.3884C3.95408 31.3754 4.01449 31.3358 4.05365 31.2783C4.09282 31.2207 4.10752 31.15 4.09453 31.0816C4.08154 31.0132 4.04192 30.9528 3.98438 30.9137C3.92684 30.8745 3.85611 30.8598 3.78773 30.8728L3.79031 30.8883ZM2.07328 11.7844C2.10365 11.7964 2.13602 11.8025 2.16867 11.8024C2.2203 11.8024 2.27076 11.787 2.31351 11.758C2.35626 11.7291 2.38933 11.6879 2.40844 11.64C2.5889 11.1785 2.80805 10.717 3.02203 10.2813C4.929 6.54228 8.22508 3.69929 12.2035 2.36189C16.182 1.02448 20.5261 1.29916 24.3045 3.12701C24.366 3.15709 24.437 3.1615 24.5017 3.13926C24.5338 3.12825 24.5634 3.11102 24.5888 3.08857C24.6143 3.06612 24.635 3.03888 24.6499 3.00841C24.6648 2.97794 24.6736 2.94484 24.6757 2.91098C24.6778 2.87713 24.6732 2.8432 24.6622 2.81112C24.6512 2.77904 24.6339 2.74944 24.6115 2.72402C24.589 2.69859 24.5618 2.67784 24.5313 2.66294C20.6312 0.771667 16.1452 0.48446 12.0357 1.86295C7.9263 3.24144 4.5209 6.17579 2.55023 10.0364C2.31562 10.4979 2.10422 10.9722 1.91601 11.4492C1.90378 11.4815 1.89815 11.5159 1.89948 11.5504C1.9008 11.5849 1.90904 11.6188 1.9237 11.6501C1.93837 11.6813 1.95917 11.7093 1.98486 11.7324C2.01056 11.7555 2.04063 11.7731 2.07328 11.7844ZM1.21992 15.0611H1.26117C1.32259 15.062 1.38231 15.041 1.42957 15.0017C1.47684 14.9625 1.50855 14.9077 1.51898 14.8472C1.58344 14.4604 1.66594 14.0737 1.75875 13.6844C1.76645 13.6217 1.75086 13.5584 1.71493 13.5064C1.679 13.4544 1.62524 13.4175 1.56386 13.4025C1.50247 13.3876 1.43774 13.3957 1.38194 13.4253C1.32614 13.4549 1.28316 13.504 1.26117 13.5633C1.1632 13.9603 1.0807 14.3625 1.00336 14.7647C0.997862 14.7984 0.999123 14.8329 1.00707 14.8661C1.01501 14.8993 1.02947 14.9306 1.04962 14.9582C1.06977 14.9858 1.0952 15.0091 1.12444 15.0268C1.15367 15.0444 1.18613 15.0561 1.21992 15.0611ZM33.5212 20.1813C33.4879 20.175 33.4536 20.1753 33.4204 20.1822C33.3871 20.1892 33.3556 20.2026 33.3276 20.2218C33.2995 20.2409 33.2756 20.2654 33.2571 20.2939C33.2385 20.3223 33.2258 20.3542 33.2196 20.3876C33.1294 20.8774 33.0134 21.3698 32.8767 21.8494C31.8131 25.5959 29.4194 28.8258 26.1445 30.9336C22.8696 33.0415 18.9383 33.8824 15.0877 33.2988C15.0193 33.2885 14.9496 33.3059 14.894 33.347C14.8384 33.3881 14.8014 33.4496 14.7912 33.5179C14.7809 33.5863 14.7982 33.656 14.8393 33.7116C14.8804 33.7672 14.9419 33.8042 15.0103 33.8144C18.9852 34.4244 23.0459 33.5594 26.4271 31.3825C29.8083 29.2056 32.2765 25.8671 33.3666 21.9963C33.5084 21.4987 33.6244 20.9908 33.7198 20.4881C33.727 20.4549 33.7275 20.4206 33.7214 20.3872C33.7153 20.3538 33.7027 20.322 33.6842 20.2935C33.6658 20.265 33.6419 20.2404 33.6139 20.2211C33.586 20.2019 33.5545 20.1883 33.5212 20.1813ZM33.7455 16.804C33.6772 16.804 33.6116 16.8311 33.5632 16.8795C33.5149 16.9278 33.4877 16.9934 33.4877 17.0618C33.4877 17.4562 33.4877 17.8558 33.4748 18.2503C33.4748 18.3187 33.502 18.3842 33.5504 18.4326C33.5987 18.4809 33.6643 18.5081 33.7327 18.5081C33.801 18.5081 33.8666 18.4809 33.915 18.4326C33.9633 18.3842 33.9905 18.3187 33.9905 18.2503C34.0111 17.8429 34.0137 17.4304 34.0034 17.0231C33.994 16.9616 33.9628 16.9056 33.9154 16.8653C33.8681 16.825 33.8077 16.8033 33.7455 16.804Z" stroke="black" stroke-opacity="0.2" stroke-width="0.4" mask="url(#path-7-outside-1_1048_26330)"/>
<defs>
<linearGradient id="paint0_linear_1048_26330" x1="7.79395" y1="10.6115" x2="22.8133" y2="13.3949" gradientUnits="userSpaceOnUse">
<stop offset="0.158241" stop-color="#002D31"/>
<stop offset="0.32869" stop-color="#005961"/>
<stop offset="0.509791" stop-color="#00818C"/>
<stop offset="0.786145" stop-color="#005961"/>
<stop offset="0.988044" stop-color="#002D31"/>
</linearGradient>
<linearGradient id="paint1_linear_1048_26330" x1="9.66602" y1="8.12092" x2="29.1496" y2="10.7934" gradientUnits="userSpaceOnUse">
<stop offset="0.158241" stop-color="#002D31"/>
<stop offset="0.32869" stop-color="#005961"/>
<stop offset="0.509791" stop-color="#00818C"/>
<stop offset="0.786145" stop-color="#005961"/>
<stop offset="0.988044" stop-color="#002D31"/>
</linearGradient>
<linearGradient id="paint2_linear_1048_26330" x1="16.2363" y1="4.76363" x2="33.7299" y2="6.42858" gradientUnits="userSpaceOnUse">
<stop offset="0.158241" stop-color="#002D31"/>
<stop offset="0.32869" stop-color="#005961"/>
<stop offset="0.509791" stop-color="#00818C"/>
<stop offset="0.786145" stop-color="#005961"/>
<stop offset="0.988044" stop-color="#002D31"/>
</linearGradient>
<linearGradient id="paint3_linear_1048_26330" x1="26.5835" y1="1.15516" x2="30.4736" y2="1.37823" gradientUnits="userSpaceOnUse">
<stop offset="0.158241" stop-color="#002D31"/>
<stop offset="0.32869" stop-color="#005961"/>
<stop offset="0.509791" stop-color="#00818C"/>
<stop offset="0.786145" stop-color="#005961"/>
<stop offset="0.988044" stop-color="#002D31"/>
</linearGradient>
<linearGradient id="paint4_linear_1048_26330" x1="5.38574" y1="2.68261" x2="36.1747" y2="7.0141" gradientUnits="userSpaceOnUse">
<stop offset="0.158241" stop-color="#002D31"/>
<stop offset="0.32869" stop-color="#005961"/>
<stop offset="0.509791" stop-color="#00818C"/>
<stop offset="0.786145" stop-color="#005961"/>
<stop offset="0.988044" stop-color="#002D31"/>
</linearGradient>
<linearGradient id="paint5_linear_1048_26330" x1="6.30899" y1="4.33865" x2="32.365" y2="23.9339" gradientUnits="userSpaceOnUse">
<stop offset="0.03125" stop-color="#003B40"/>
<stop offset="0.265625" stop-color="#005961"/>
<stop offset="0.509791" stop-color="#00818C"/>
<stop offset="0.760417" stop-color="#005961"/>
<stop offset="0.994792" stop-color="#003B40"/>
</linearGradient>
<linearGradient id="paint6_linear_1048_26330" x1="4.55078" y1="28.0687" x2="14.3793" y2="30.1781" gradientUnits="userSpaceOnUse">
<stop offset="0.158241" stop-color="#002D31"/>
<stop offset="0.32869" stop-color="#005961"/>
<stop offset="0.509791" stop-color="#00818C"/>
<stop offset="0.786145" stop-color="#005961"/>
<stop offset="0.988044" stop-color="#002D31"/>
</linearGradient>
<linearGradient id="paint7_linear_1048_26330" x1="4.8531" y1="28.4241" x2="10.6199" y2="35.0402" gradientUnits="userSpaceOnUse">
<stop offset="0.03125" stop-color="#003B40"/>
<stop offset="0.265625" stop-color="#005961"/>
<stop offset="0.509791" stop-color="#00818C"/>
<stop offset="0.760417" stop-color="#005961"/>
<stop offset="0.994792" stop-color="#003B40"/>
</linearGradient>
<linearGradient id="paint8_linear_1048_26330" x1="1" y1="1.59957" x2="36.5805" y2="6.52951" gradientUnits="userSpaceOnUse">
<stop offset="0.158241" stop-color="#002D31"/>
<stop offset="0.32869" stop-color="#005961"/>
<stop offset="0.509791" stop-color="#00818C"/>
<stop offset="0.786145" stop-color="#005961"/>
<stop offset="0.988044" stop-color="#002D31"/>
</linearGradient>
<linearGradient id="paint9_linear_1048_26330" x1="2.06631" y1="3.54156" x2="32.4894" y2="26.0753" gradientUnits="userSpaceOnUse">
<stop offset="0.03125" stop-color="#003B40"/>
<stop offset="0.265625" stop-color="#005961"/>
<stop offset="0.509791" stop-color="#00818C"/>
<stop offset="0.760417" stop-color="#005961"/>
<stop offset="0.994792" stop-color="#003B40"/>
</linearGradient>
</defs>
</svg>
