<svg width="18" height="18" viewBox="0 0 18 18" fill="none" xmlns="http://www.w3.org/2000/svg">
<path d="M10.7602 5.18787C11.1974 5.25943 11.5885 5.49793 11.8481 5.85131C12.1076 6.20469 12.2146 6.64425 12.1456 7.07403C12.1349 7.13829 12.1372 7.20404 12.1523 7.2675C12.1675 7.33095 12.1953 7.39087 12.2342 7.4438C12.273 7.49673 12.322 7.54163 12.3785 7.57592C12.435 7.61021 12.4978 7.63322 12.5633 7.64362C12.6955 7.66483 12.8309 7.63374 12.9397 7.55715C13.0484 7.48056 13.1218 7.3647 13.1438 7.2349C13.2562 6.54471 13.0855 5.83819 12.669 5.27013C12.2525 4.70207 11.6242 4.3188 10.9217 4.20431C10.8549 4.19052 10.786 4.19016 10.7191 4.20325C10.6522 4.21634 10.5887 4.24261 10.5325 4.28048C10.4763 4.31834 10.4286 4.36702 10.3921 4.42357C10.3556 4.48012 10.3312 4.54337 10.3203 4.60951C10.3094 4.67565 10.3123 4.7433 10.3287 4.80839C10.3452 4.87347 10.3749 4.93465 10.416 4.98822C10.4571 5.04178 10.5089 5.08664 10.5681 5.12007C10.6273 5.15351 10.6928 5.17483 10.7606 5.18275L10.7602 5.18787ZM11.3567 3.13014C12.2953 3.28207 13.1351 3.79359 13.6916 4.55237C14.2481 5.31115 14.4759 6.25514 14.3249 7.17702C14.311 7.24261 14.3108 7.31031 14.3243 7.37605C14.3378 7.44178 14.3647 7.50418 14.4034 7.55948C14.4421 7.61479 14.4918 7.66185 14.5494 7.69782C14.6071 7.7338 14.6715 7.75795 14.7389 7.76882C14.8062 7.77968 14.8751 7.77704 14.9413 7.76104C15.0075 7.74505 15.0697 7.71604 15.1241 7.67576C15.1786 7.63547 15.2241 7.58476 15.258 7.52667C15.2919 7.46858 15.3134 7.40432 15.3213 7.33776C15.5153 6.15618 15.2237 4.94609 14.5105 3.97335C13.7974 3.00062 12.721 2.34481 11.518 2.15C11.3856 2.12844 11.2501 2.15939 11.1413 2.23604C11.0324 2.31269 10.9591 2.42876 10.9375 2.55872C10.9159 2.68868 10.9477 2.82188 11.026 2.92902C11.1043 3.03616 11.2226 3.10846 11.355 3.13002L11.3567 3.13014ZM12.1152 0.107757C12.0485 0.0941328 11.9797 0.0938797 11.913 0.107012C11.8463 0.120144 11.783 0.146391 11.727 0.184176C11.6709 0.221962 11.6232 0.270507 11.5868 0.326896C11.5504 0.383285 11.5259 0.446355 11.5149 0.51232C11.5039 0.578284 11.5067 0.645782 11.5229 0.71076C11.5391 0.775738 11.5685 0.836855 11.6094 0.890443C11.6502 0.944031 11.7017 0.988983 11.7606 1.0226C11.8195 1.05622 11.8847 1.07781 11.9523 1.08607C13.3864 1.31926 14.6692 2.10148 15.5193 3.26113C16.3695 4.42078 16.7176 5.86319 16.4873 7.27197C16.4734 7.33756 16.4732 7.40526 16.4867 7.47099C16.5002 7.53673 16.5271 7.59913 16.5658 7.65443C16.6044 7.70973 16.6541 7.75679 16.7118 7.79277C16.7694 7.82875 16.8339 7.8529 16.9012 7.86376C16.9686 7.87463 17.0374 7.87198 17.1037 7.85599C17.1699 7.84 17.2321 7.81098 17.2865 7.7707C17.3409 7.73042 17.3864 7.6797 17.4203 7.62161C17.4542 7.56352 17.4758 7.49926 17.4837 7.43271C17.7569 5.76468 17.3451 4.05662 16.3387 2.68336C15.3322 1.31009 13.8133 0.383801 12.1152 0.107757Z" fill="url(#paint0_linear_691_18955)"/>
<path d="M15.8778 13.2471C15.8778 13.5073 15.82 13.7747 15.6972 14.0348C15.5743 14.295 15.4153 14.5407 15.2057 14.772C14.8516 15.1623 14.4613 15.4441 14.0205 15.6248C13.5869 15.8055 13.1171 15.8994 12.6112 15.8994C11.874 15.8994 11.0863 15.726 10.2552 15.3718C9.42407 15.0177 8.59296 14.5407 7.76908 13.9409C6.93797 13.3338 6.15022 12.6617 5.3986 11.9173C4.65422 11.1657 3.9821 10.378 3.38225 9.55407C2.78964 8.73019 2.31265 7.9063 1.96575 7.08964C1.61885 6.26576 1.4454 5.47801 1.4454 4.7264C1.4454 4.23496 1.53213 3.7652 1.70558 3.33157C1.87903 2.89072 2.15366 2.48601 2.53669 2.12466C2.99922 1.66935 3.50512 1.44531 4.03992 1.44531C4.24227 1.44531 4.44463 1.48867 4.62531 1.5754C4.81321 1.66212 4.97943 1.79221 5.10952 1.98011L6.7862 4.34336C6.91629 4.52404 7.01024 4.69026 7.07528 4.84926C7.14032 5.00102 7.17646 5.15279 7.17646 5.29011C7.17646 5.46356 7.12587 5.637 7.02469 5.80323C6.93074 5.96945 6.79343 6.1429 6.61998 6.31635L6.07072 6.88729C5.99122 6.96678 5.95509 7.06074 5.95509 7.17637C5.95509 7.23418 5.96231 7.28477 5.97677 7.34259C5.99845 7.40041 6.02013 7.44377 6.03458 7.48713C6.16467 7.72562 6.38871 8.03639 6.7067 8.41219C7.03192 8.788 7.37882 9.17104 7.75462 9.55407C8.14488 9.9371 8.52069 10.2912 8.90373 10.6164C9.27953 10.9344 9.5903 11.1512 9.83602 11.2813C9.87215 11.2958 9.91551 11.3175 9.9661 11.3392C10.0239 11.3608 10.0817 11.3681 10.1468 11.3681C10.2696 11.3681 10.3636 11.3247 10.4431 11.2452L10.9923 10.7032C11.173 10.5225 11.3465 10.3852 11.5127 10.2985C11.6789 10.1973 11.8451 10.1467 12.0258 10.1467C12.1631 10.1467 12.3077 10.1756 12.4667 10.2406C12.6257 10.3057 12.7919 10.3996 12.9726 10.5225L15.3647 12.2209C15.5526 12.3509 15.6827 12.5027 15.7622 12.6834C15.8345 12.8641 15.8778 13.0447 15.8778 13.2471Z" fill="url(#paint1_linear_691_18955)"/>
<defs>
<linearGradient id="paint0_linear_691_18955" x1="10.8605" y1="1.8857" x2="16.9998" y2="6.9772" gradientUnits="userSpaceOnUse">
<stop stop-color="#002E33"/>
<stop offset="0.515422" stop-color="#18494E"/>
<stop offset="0.994225" stop-color="#00474D"/>
</linearGradient>
<linearGradient id="paint1_linear_691_18955" x1="2.13173" y1="5.04459" x2="14.6906" y2="14.1897" gradientUnits="userSpaceOnUse">
<stop stop-color="#002E33"/>
<stop offset="0.515422" stop-color="#18494E"/>
<stop offset="0.994225" stop-color="#00474D"/>
</linearGradient>
</defs>
</svg>
