<svg width="25" height="43" viewBox="0 0 25 43" fill="none" xmlns="http://www.w3.org/2000/svg">
<path d="M17.6895 32.3927C17.4651 32.8092 17.2461 33.2122 17.0327 33.6017C19.4924 34.3841 21.1641 35.7594 21.1641 37.2893C21.1641 39.6566 17.1644 41.6565 12.4297 41.6565C7.69532 41.6565 3.69531 39.6566 3.69531 37.2893C3.69531 35.7594 5.36694 34.3841 7.82667 33.6017C7.61391 33.2131 7.39499 32.81 7.16991 32.3923C4.25969 33.3837 2.35156 35.187 2.35156 37.2893C2.35156 40.4918 6.77855 43.0002 12.4297 43.0002C18.0808 43.0002 22.5078 40.4918 22.5078 37.2893C22.5078 35.1867 20.5997 33.3834 17.6895 32.3927Z" fill="url(#paint0_angular_1517_11422)"/>
<path d="M17.6895 32.3927C17.4651 32.8092 17.2461 33.2122 17.0327 33.6017C19.4924 34.3841 21.1641 35.7594 21.1641 37.2893C21.1641 39.6566 17.1644 41.6565 12.4297 41.6565C7.69532 41.6565 3.69531 39.6566 3.69531 37.2893C3.69531 35.7594 5.36694 34.3841 7.82667 33.6017C7.61391 33.2131 7.39499 32.81 7.16991 32.3923C4.25969 33.3837 2.35156 35.187 2.35156 37.2893C2.35156 40.4918 6.77855 43.0002 12.4297 43.0002C18.0808 43.0002 22.5078 40.4918 22.5078 37.2893C22.5078 35.1867 20.5997 33.3834 17.6895 32.3927Z" fill="#002D31" fill-opacity="0.2"/>
<path d="M17.6895 32.3927C17.4651 32.8092 17.2461 33.2122 17.0327 33.6017C19.4924 34.3841 21.1641 35.7594 21.1641 37.2893C21.1641 39.6566 17.1644 41.6565 12.4297 41.6565C7.69532 41.6565 3.69531 39.6566 3.69531 37.2893C3.69531 35.7594 5.36694 34.3841 7.82667 33.6017C7.61391 33.2131 7.39499 32.81 7.16991 32.3923C4.25969 33.3837 2.35156 35.187 2.35156 37.2893C2.35156 40.4918 6.77855 43.0002 12.4297 43.0002C18.0808 43.0002 22.5078 40.4918 22.5078 37.2893C22.5078 35.1867 20.5997 33.3834 17.6895 32.3927Z" fill="black" fill-opacity="0.2"/>
<path d="M12.4297 38.2969C12.5433 38.2969 12.6551 38.2681 12.7545 38.2131C12.854 38.1582 12.9379 38.0789 12.9984 37.9828C13.4829 37.2128 24.8594 19.0517 24.8594 12.4364C24.8594 5.69515 19.1672 0 12.4297 0C5.69213 0 0 5.69515 0 12.4364C0 19.0517 11.3765 37.2128 11.8609 37.9828C11.9215 38.0789 12.0054 38.1582 12.1048 38.2131C12.2043 38.2681 12.3161 38.2969 12.4297 38.2969ZM12.4297 1.34375C18.3355 1.34375 23.5156 6.52727 23.5156 12.4364C23.5156 17.8611 14.7692 32.5224 12.4297 36.3464C10.0902 32.5221 1.34375 17.8611 1.34375 12.4364C1.34375 6.52727 6.52391 1.34375 12.4297 1.34375Z" fill="url(#paint1_angular_1517_11422)"/>
<path d="M12.4297 38.2969C12.5433 38.2969 12.6551 38.2681 12.7545 38.2131C12.854 38.1582 12.9379 38.0789 12.9984 37.9828C13.4829 37.2128 24.8594 19.0517 24.8594 12.4364C24.8594 5.69515 19.1672 0 12.4297 0C5.69213 0 0 5.69515 0 12.4364C0 19.0517 11.3765 37.2128 11.8609 37.9828C11.9215 38.0789 12.0054 38.1582 12.1048 38.2131C12.2043 38.2681 12.3161 38.2969 12.4297 38.2969ZM12.4297 1.34375C18.3355 1.34375 23.5156 6.52727 23.5156 12.4364C23.5156 17.8611 14.7692 32.5224 12.4297 36.3464C10.0902 32.5221 1.34375 17.8611 1.34375 12.4364C1.34375 6.52727 6.52391 1.34375 12.4297 1.34375Z" fill="#002D31" fill-opacity="0.2"/>
<path d="M12.4297 38.2969C12.5433 38.2969 12.6551 38.2681 12.7545 38.2131C12.854 38.1582 12.9379 38.0789 12.9984 37.9828C13.4829 37.2128 24.8594 19.0517 24.8594 12.4364C24.8594 5.69515 19.1672 0 12.4297 0C5.69213 0 0 5.69515 0 12.4364C0 19.0517 11.3765 37.2128 11.8609 37.9828C11.9215 38.0789 12.0054 38.1582 12.1048 38.2131C12.2043 38.2681 12.3161 38.2969 12.4297 38.2969ZM12.4297 1.34375C18.3355 1.34375 23.5156 6.52727 23.5156 12.4364C23.5156 17.8611 14.7692 32.5224 12.4297 36.3464C10.0902 32.5221 1.34375 17.8611 1.34375 12.4364C1.34375 6.52727 6.52391 1.34375 12.4297 1.34375Z" fill="black" fill-opacity="0.2"/>
<path d="M19.1484 11.7578C19.1484 10.429 18.7544 9.12997 18.0161 8.02508C17.2779 6.92019 16.2285 6.05903 15.0008 5.5505C13.7732 5.04197 12.4222 4.90892 11.1189 5.16816C9.81562 5.42741 8.61845 6.06731 7.67882 7.00694C6.73918 7.94658 6.09928 9.14374 5.84004 10.4471C5.58079 11.7504 5.71385 13.1013 6.22237 14.329C6.7309 15.5567 7.59206 16.606 8.69695 17.3443C9.80185 18.0825 11.1008 18.4766 12.4297 18.4766C14.211 18.4745 15.9187 17.766 17.1783 16.5064C18.4379 15.2469 19.1464 13.5391 19.1484 11.7578ZM7.05469 11.7578C7.05469 10.6947 7.36993 9.65554 7.96054 8.77163C8.55115 7.88771 9.39061 7.19878 10.3728 6.79196C11.3549 6.38514 12.4357 6.2787 13.4783 6.48609C14.5209 6.69349 15.4787 7.20541 16.2304 7.95712C16.9821 8.70882 17.494 9.66656 17.7014 10.7092C17.9088 11.7519 17.8024 12.8326 17.3955 13.8147C16.9887 14.7969 16.2998 15.6364 15.4159 16.227C14.532 16.8176 13.4928 17.1328 12.4297 17.1328C11.0046 17.1312 9.63842 16.5644 8.63076 15.5567C7.6231 14.5491 7.05629 13.1829 7.05469 11.7578Z" fill="url(#paint2_angular_1517_11422)"/>
<path d="M19.1484 11.7578C19.1484 10.429 18.7544 9.12997 18.0161 8.02508C17.2779 6.92019 16.2285 6.05903 15.0008 5.5505C13.7732 5.04197 12.4222 4.90892 11.1189 5.16816C9.81562 5.42741 8.61845 6.06731 7.67882 7.00694C6.73918 7.94658 6.09928 9.14374 5.84004 10.4471C5.58079 11.7504 5.71385 13.1013 6.22237 14.329C6.7309 15.5567 7.59206 16.606 8.69695 17.3443C9.80185 18.0825 11.1008 18.4766 12.4297 18.4766C14.211 18.4745 15.9187 17.766 17.1783 16.5064C18.4379 15.2469 19.1464 13.5391 19.1484 11.7578ZM7.05469 11.7578C7.05469 10.6947 7.36993 9.65554 7.96054 8.77163C8.55115 7.88771 9.39061 7.19878 10.3728 6.79196C11.3549 6.38514 12.4357 6.2787 13.4783 6.48609C14.5209 6.69349 15.4787 7.20541 16.2304 7.95712C16.9821 8.70882 17.494 9.66656 17.7014 10.7092C17.9088 11.7519 17.8024 12.8326 17.3955 13.8147C16.9887 14.7969 16.2998 15.6364 15.4159 16.227C14.532 16.8176 13.4928 17.1328 12.4297 17.1328C11.0046 17.1312 9.63842 16.5644 8.63076 15.5567C7.6231 14.5491 7.05629 13.1829 7.05469 11.7578Z" fill="#002D31" fill-opacity="0.2"/>
<path d="M19.1484 11.7578C19.1484 10.429 18.7544 9.12997 18.0161 8.02508C17.2779 6.92019 16.2285 6.05903 15.0008 5.5505C13.7732 5.04197 12.4222 4.90892 11.1189 5.16816C9.81562 5.42741 8.61845 6.06731 7.67882 7.00694C6.73918 7.94658 6.09928 9.14374 5.84004 10.4471C5.58079 11.7504 5.71385 13.1013 6.22237 14.329C6.7309 15.5567 7.59206 16.606 8.69695 17.3443C9.80185 18.0825 11.1008 18.4766 12.4297 18.4766C14.211 18.4745 15.9187 17.766 17.1783 16.5064C18.4379 15.2469 19.1464 13.5391 19.1484 11.7578ZM7.05469 11.7578C7.05469 10.6947 7.36993 9.65554 7.96054 8.77163C8.55115 7.88771 9.39061 7.19878 10.3728 6.79196C11.3549 6.38514 12.4357 6.2787 13.4783 6.48609C14.5209 6.69349 15.4787 7.20541 16.2304 7.95712C16.9821 8.70882 17.494 9.66656 17.7014 10.7092C17.9088 11.7519 17.8024 12.8326 17.3955 13.8147C16.9887 14.7969 16.2998 15.6364 15.4159 16.227C14.532 16.8176 13.4928 17.1328 12.4297 17.1328C11.0046 17.1312 9.63842 16.5644 8.63076 15.5567C7.6231 14.5491 7.05629 13.1829 7.05469 11.7578Z" fill="black" fill-opacity="0.2"/>
<path d="M15.1172 11.7578C15.1172 11.2263 14.9596 10.7067 14.6643 10.2647C14.369 9.82276 13.9492 9.4783 13.4582 9.27489C12.9671 9.07148 12.4267 9.01826 11.9054 9.12195C11.3841 9.22565 10.9052 9.48161 10.5293 9.85746C10.1535 10.2333 9.89753 10.7122 9.79383 11.2335C9.69013 11.7548 9.74335 12.2952 9.94676 12.7863C10.1502 13.2774 10.4946 13.6971 10.9366 13.9924C11.3786 14.2877 11.8982 14.4453 12.4297 14.4453C13.1422 14.4444 13.8252 14.161 14.3291 13.6572C14.8329 13.1534 15.1163 12.4703 15.1172 11.7578ZM11.0859 11.7578C11.0859 11.492 11.1647 11.2322 11.3124 11.0113C11.4601 10.7903 11.6699 10.6181 11.9155 10.5164C12.161 10.4146 12.4312 10.388 12.6918 10.4399C12.9525 10.4917 13.1919 10.6197 13.3799 10.8076C13.5678 10.9956 13.6958 11.235 13.7476 11.4957C13.7995 11.7563 13.7729 12.0265 13.6712 12.272C13.5694 12.5176 13.3972 12.7274 13.1762 12.8751C12.9553 13.0228 12.6955 13.1016 12.4297 13.1016C12.0734 13.1011 11.7319 12.9594 11.48 12.7075C11.2281 12.4556 11.0864 12.1141 11.0859 11.7578Z" fill="url(#paint3_angular_1517_11422)"/>
<path d="M15.1172 11.7578C15.1172 11.2263 14.9596 10.7067 14.6643 10.2647C14.369 9.82276 13.9492 9.4783 13.4582 9.27489C12.9671 9.07148 12.4267 9.01826 11.9054 9.12195C11.3841 9.22565 10.9052 9.48161 10.5293 9.85746C10.1535 10.2333 9.89753 10.7122 9.79383 11.2335C9.69013 11.7548 9.74335 12.2952 9.94676 12.7863C10.1502 13.2774 10.4946 13.6971 10.9366 13.9924C11.3786 14.2877 11.8982 14.4453 12.4297 14.4453C13.1422 14.4444 13.8252 14.161 14.3291 13.6572C14.8329 13.1534 15.1163 12.4703 15.1172 11.7578ZM11.0859 11.7578C11.0859 11.492 11.1647 11.2322 11.3124 11.0113C11.4601 10.7903 11.6699 10.6181 11.9155 10.5164C12.161 10.4146 12.4312 10.388 12.6918 10.4399C12.9525 10.4917 13.1919 10.6197 13.3799 10.8076C13.5678 10.9956 13.6958 11.235 13.7476 11.4957C13.7995 11.7563 13.7729 12.0265 13.6712 12.272C13.5694 12.5176 13.3972 12.7274 13.1762 12.8751C12.9553 13.0228 12.6955 13.1016 12.4297 13.1016C12.0734 13.1011 11.7319 12.9594 11.48 12.7075C11.2281 12.4556 11.0864 12.1141 11.0859 11.7578Z" fill="#002D31" fill-opacity="0.2"/>
<path d="M15.1172 11.7578C15.1172 11.2263 14.9596 10.7067 14.6643 10.2647C14.369 9.82276 13.9492 9.4783 13.4582 9.27489C12.9671 9.07148 12.4267 9.01826 11.9054 9.12195C11.3841 9.22565 10.9052 9.48161 10.5293 9.85746C10.1535 10.2333 9.89753 10.7122 9.79383 11.2335C9.69013 11.7548 9.74335 12.2952 9.94676 12.7863C10.1502 13.2774 10.4946 13.6971 10.9366 13.9924C11.3786 14.2877 11.8982 14.4453 12.4297 14.4453C13.1422 14.4444 13.8252 14.161 14.3291 13.6572C14.8329 13.1534 15.1163 12.4703 15.1172 11.7578ZM11.0859 11.7578C11.0859 11.492 11.1647 11.2322 11.3124 11.0113C11.4601 10.7903 11.6699 10.6181 11.9155 10.5164C12.161 10.4146 12.4312 10.388 12.6918 10.4399C12.9525 10.4917 13.1919 10.6197 13.3799 10.8076C13.5678 10.9956 13.6958 11.235 13.7476 11.4957C13.7995 11.7563 13.7729 12.0265 13.6712 12.272C13.5694 12.5176 13.3972 12.7274 13.1762 12.8751C12.9553 13.0228 12.6955 13.1016 12.4297 13.1016C12.0734 13.1011 11.7319 12.9594 11.48 12.7075C11.2281 12.4556 11.0864 12.1141 11.0859 11.7578Z" fill="black" fill-opacity="0.2"/>
<defs>
<radialGradient id="paint0_angular_1517_11422" cx="0" cy="0" r="1" gradientUnits="userSpaceOnUse" gradientTransform="translate(12.4297 37.5209) rotate(37.1981) scale(7.19154 7.396)">
<stop offset="0.0940427" stop-color="#248F99"/>
<stop offset="0.247062" stop-color="#00464D"/>
<stop offset="0.472333" stop-color="#248F99"/>
<stop offset="0.654785" stop-color="#00464D"/>
<stop offset="0.818154" stop-color="#008D99"/>
<stop offset="0.947734" stop-color="#04474D"/>
</radialGradient>
<radialGradient id="paint1_angular_1517_11422" cx="0" cy="0" r="1" gradientUnits="userSpaceOnUse" gradientTransform="translate(12.4297 18.5151) rotate(65.7674) scale(17.2133 13.7585)">
<stop offset="0.0940427" stop-color="#248F99"/>
<stop offset="0.247062" stop-color="#00464D"/>
<stop offset="0.472333" stop-color="#248F99"/>
<stop offset="0.654785" stop-color="#00464D"/>
<stop offset="0.818154" stop-color="#008D99"/>
<stop offset="0.947734" stop-color="#04474D"/>
</radialGradient>
<radialGradient id="paint2_angular_1517_11422" cx="0" cy="0" r="1" gradientUnits="userSpaceOnUse" gradientTransform="translate(12.4297 11.5356) rotate(55.2626) scale(6.70206)">
<stop offset="0.0940427" stop-color="#248F99"/>
<stop offset="0.247062" stop-color="#00464D"/>
<stop offset="0.472333" stop-color="#248F99"/>
<stop offset="0.654785" stop-color="#00464D"/>
<stop offset="0.818154" stop-color="#008D99"/>
<stop offset="0.947734" stop-color="#04474D"/>
</radialGradient>
<radialGradient id="paint3_angular_1517_11422" cx="0" cy="0" r="1" gradientUnits="userSpaceOnUse" gradientTransform="translate(12.4297 11.6689) rotate(55.2626) scale(2.68083)">
<stop offset="0.0940427" stop-color="#248F99"/>
<stop offset="0.247062" stop-color="#00464D"/>
<stop offset="0.472333" stop-color="#248F99"/>
<stop offset="0.654785" stop-color="#00464D"/>
<stop offset="0.818154" stop-color="#008D99"/>
<stop offset="0.947734" stop-color="#04474D"/>
</radialGradient>
</defs>
</svg>
