<svg width="103" height="26" viewBox="0 0 103 26" fill="none" xmlns="http://www.w3.org/2000/svg">
<path d="M12.9408 4.30543V11.5974C12.9408 11.9804 12.6316 12.2933 12.2491 12.2933C11.8667 12.2933 11.5575 11.9837 11.5575 11.5974V10.9115V4.29211C11.5575 2.8337 10.3769 1.64833 8.92041 1.64833H2.71854C2.49574 1.64833 2.31617 1.82814 2.31617 2.05123V8.26442C2.31617 9.72283 3.49668 10.9082 4.95321 10.9082H9.15319C9.2729 10.9082 9.36934 10.8116 9.36934 10.6918V4.29211C9.36934 4.04238 9.16649 3.8426 8.92041 3.8426H4.71711C4.59739 3.8426 4.50096 3.93916 4.50096 4.05903V8.27108C4.50096 8.52081 4.7038 8.72392 4.94988 8.72392H7.87291C8.25533 8.72392 8.56127 9.03358 8.56127 9.4165C8.56127 9.79941 8.252 10.1091 7.87291 10.1091H4.95321C3.93896 10.1091 3.12091 9.28664 3.12091 8.27108V2.67388C3.12091 2.55401 3.21735 2.45745 3.33707 2.45745H8.91708C9.93133 2.45745 10.7494 3.27988 10.7494 4.29544V8.71726V11.8905C10.7494 12.1102 10.5698 12.29 10.3503 12.29H4.97316C2.74514 12.29 0.939453 10.482 0.939453 8.24778V0.666076C0.939453 0.442987 1.11902 0.263184 1.34183 0.263184H8.90711C11.1351 0.263184 12.9408 2.0712 12.9408 4.30543Z" fill="white"/>
<path d="M13.7454 4.31177V11.6038C13.7454 11.9867 14.0546 12.2997 14.437 12.2997C14.8195 12.2997 15.1287 11.99 15.1287 11.6038V10.9179V4.29845C15.1287 2.84005 16.3092 1.65468 17.7658 1.65468H23.9643C24.1871 1.65468 24.3667 1.83448 24.3667 2.05757V8.27077C24.3667 9.72917 23.1862 10.9145 21.7296 10.9145H17.5297C17.41 10.9145 17.3135 10.818 17.3135 10.6981V4.29845C17.3135 4.04873 17.5164 3.84895 17.7624 3.84895H21.9657C22.0855 3.84895 22.1819 3.94551 22.1819 4.06538V8.27743C22.1819 8.52716 21.979 8.73027 21.733 8.73027H18.8099C18.4275 8.73027 18.1216 9.03993 18.1216 9.42284C18.1216 9.80576 18.4308 10.1154 18.8099 10.1154H21.7296C22.7439 10.1154 23.5619 9.29299 23.5619 8.27743V2.68023C23.5619 2.56036 23.4655 2.4638 23.3458 2.4638H17.7658C16.7515 2.4638 15.9335 3.28623 15.9335 4.30178V8.72361V11.8968C15.9335 12.1166 16.113 12.2964 16.3325 12.2964H21.713C23.941 12.2964 25.7467 10.4883 25.7467 8.25412V0.672424C25.7467 0.449334 25.5672 0.269531 25.3444 0.269531H17.7791C15.5511 0.269531 13.7454 2.07755 13.7454 4.31177Z" fill="white"/>
<path d="M15.5412 13.1123C15.7598 13.1123 15.937 12.9349 15.937 12.7161C15.937 12.4972 15.7598 12.3198 15.5412 12.3198C15.3227 12.3198 15.1455 12.4972 15.1455 12.7161C15.1455 12.9349 15.3227 13.1123 15.5412 13.1123Z" fill="white"/>
<path d="M11.2209 13.1123C11.4395 13.1123 11.6166 12.9349 11.6166 12.7161C11.6166 12.4972 11.4395 12.3198 11.2209 12.3198C11.0024 12.3198 10.8252 12.4972 10.8252 12.7161C10.8252 12.9349 11.0024 13.1123 11.2209 13.1123Z" fill="white"/>
<path d="M12.9408 21.0932V13.8012C12.9408 13.4183 12.6316 13.1053 12.2491 13.1053C11.8667 13.1053 11.5575 13.415 11.5575 13.8012V14.4871V21.1032C11.5575 22.5616 10.3769 23.747 8.92041 23.747H2.71854C2.49574 23.747 2.31617 23.5672 2.31617 23.3441V17.1309C2.31617 15.6725 3.49668 14.4871 4.95321 14.4871H9.15319C9.2729 14.4871 9.36934 14.5837 9.36934 14.7035V21.1032C9.36934 21.3529 9.16649 21.5527 8.92041 21.5527H4.71711C4.59739 21.5527 4.50096 21.4562 4.50096 21.3363V17.1242C4.50096 16.8745 4.7038 16.6714 4.94988 16.6714H7.87291C8.25533 16.6714 8.56127 16.3617 8.56127 15.9788C8.56127 15.5959 8.252 15.2862 7.87291 15.2862H4.95321C3.93896 15.2862 3.12091 16.1087 3.12091 17.1242V22.7148C3.12091 22.8346 3.21735 22.9312 3.33707 22.9312H8.91708C9.93133 22.9312 10.7494 22.1088 10.7494 21.0932V16.6714V13.4982C10.7494 13.2784 10.5698 13.0986 10.3503 13.0986H4.97316C2.74514 13.1086 0.939453 14.9166 0.939453 17.1509V24.7326C0.939453 24.9557 1.11902 25.1355 1.34183 25.1355H8.90711C11.1351 25.1355 12.9408 23.3274 12.9408 21.0932Z" fill="white"/>
<path d="M13.748 21.0874V13.7953C13.748 13.4124 14.0573 13.0994 14.4397 13.0994C14.8221 13.0994 15.1314 13.4091 15.1314 13.7953V14.4813V21.0973C15.1314 22.5557 16.3119 23.7411 17.7685 23.7411H23.967C24.1898 23.7411 24.3694 23.5613 24.3694 23.3382V17.125C24.3694 15.6666 23.1889 14.4813 21.7323 14.4813H17.5324C17.4126 14.4813 17.3162 14.5778 17.3162 14.6977V21.0973C17.3162 21.3471 17.519 21.5469 17.7651 21.5469H21.9684C22.0881 21.5469 22.1846 21.4503 22.1846 21.3304V17.1184C22.1846 16.8686 21.9817 16.6655 21.7357 16.6655H18.8126C18.4302 16.6655 18.1243 16.3559 18.1243 15.973C18.1243 15.59 18.4335 15.2804 18.8126 15.2804H21.7323C22.7466 15.2804 23.5646 16.1028 23.5646 17.1184V22.7089C23.5646 22.8288 23.4682 22.9253 23.3485 22.9253H17.7685C16.7542 22.9253 15.9362 22.1029 15.9362 21.0874V16.6655V13.4923C15.9362 13.2726 16.1157 13.0928 16.3352 13.0928H21.7157C23.9437 13.0928 25.7494 14.9008 25.7494 17.135V24.7167C25.7494 24.9398 25.5698 25.1196 25.347 25.1196H17.7818C15.5537 25.1196 13.748 23.3116 13.748 21.0774V21.0874Z" fill="white"/>
<path d="M29.7773 22.9315H28.6367V16.9414H33.1958C33.954 16.9414 34.3365 17.341 34.3365 18.1401V19.3388C34.3365 20.1379 33.9574 20.5375 33.1958 20.5375H29.7773V22.9348V22.9315ZM33.1958 19.3388V18.1401H29.7773V19.3388H33.1958Z" fill="white"/>
<path d="M38.5363 20.5376L37.8047 19.7717V22.9349H36.6641V16.9448H41.2232C41.9814 16.9448 42.3638 17.3444 42.3638 18.1435V19.3422C42.3638 20.1413 41.9913 20.5409 41.2431 20.5409H40.0859L42.3638 22.9383H40.8142L38.5363 20.5409V20.5376ZM37.8047 18.1402V19.3389H41.2232V18.1402H37.8047Z" fill="white"/>
<path d="M45.8389 16.9414H49.2574C50.0156 16.9414 50.398 17.341 50.398 18.1401V21.7362C50.398 22.5353 50.0189 22.9348 49.2574 22.9348H45.8389C45.0807 22.9348 44.6982 22.5353 44.6982 21.7362V18.1401C44.6982 17.341 45.0773 16.9414 45.8389 16.9414ZM45.8389 18.1401V21.7362H49.2574V18.1401H45.8389Z" fill="white"/>
<path d="M53.8701 22.9315H52.7295V16.9414H57.2886C58.0468 16.9414 58.4292 17.341 58.4292 18.1401V19.3388C58.4292 20.1379 58.0501 20.5375 57.2886 20.5375H53.8701V22.9348V22.9315ZM57.2886 19.3388V18.1401H53.8701V19.3388H57.2886Z" fill="white"/>
<path d="M66.4591 16.9414V18.1401H60.7627V16.9414H66.4591ZM66.4591 19.3388V20.5375H60.7627V19.3388H66.4591ZM66.4591 21.7362V22.9348H60.7627V21.7362H66.4591Z" fill="white"/>
<path d="M70.6632 20.5376L69.9316 19.7717V22.9349H68.791V16.9448H73.3501C74.1083 16.9448 74.4907 17.3444 74.4907 18.1435V19.3422C74.4907 20.1413 74.1183 20.5409 73.3701 20.5409H72.2129L74.4907 22.9383H72.9411L70.6632 20.5409V20.5376ZM69.9316 18.1402V19.3389H73.3501V18.1402H69.9316Z" fill="white"/>
<path d="M76.8252 16.9414H82.5216V18.1401H80.2437V22.9315H79.1031V18.1401H76.8252V16.9414Z" fill="white"/>
<path d="M85.9971 16.9414V22.9315H84.8564V16.9414H85.9971Z" fill="white"/>
<path d="M94.0272 16.9414V18.1401H88.3308V16.9414H94.0272ZM94.0272 19.3388V20.5375H88.3308V19.3388H94.0272ZM94.0272 21.7362V22.9348H88.3308V21.7362H94.0272Z" fill="white"/>
<path d="M102.061 18.1401H97.5019V19.3388H100.92C101.679 19.3388 102.061 19.7383 102.061 20.5375V21.7362C102.061 22.5353 101.682 22.9348 100.92 22.9348H96.3613V21.7362H100.92V20.5375H97.5019C96.7437 20.5375 96.3613 20.1379 96.3613 19.3388V18.1401C96.3613 17.341 96.7404 16.9414 97.5019 16.9414H102.061V18.1401Z" fill="white"/>
<path d="M30.1732 10.5119H28.6436V2.4707H34.7623C35.7832 2.4707 36.292 3.00678 36.292 4.07894V5.68718C36.292 6.75934 35.7832 7.29542 34.7623 7.29542H30.1732V10.5119ZM34.7623 5.68718V4.07894H30.1732V5.68718H34.7623Z" fill="white"/>
<path d="M40.538 7.29542L39.557 6.26655V10.5152H38.0273V2.4707H44.1461C45.167 2.4707 45.6758 3.00678 45.6758 4.07894V5.68718C45.6758 6.75934 45.1736 7.29542 44.1694 7.29542H42.6164L45.6758 10.5119H43.5974L40.538 7.29542ZM39.557 4.07894V5.68718H44.1461V4.07894H39.557Z" fill="white"/>
<path d="M48.9486 2.4707H53.5377C54.5586 2.4707 55.0674 3.00678 55.0674 4.07894V8.90366C55.0674 9.97582 54.5586 10.5119 53.5377 10.5119H48.9486C47.9277 10.5119 47.4189 9.97582 47.4189 8.90366V4.07894C47.4189 3.00678 47.9277 2.4707 48.9486 2.4707ZM48.9486 4.07894V8.90366H53.5377V4.07894H48.9486Z" fill="white"/>
<path d="M56.8027 2.4707H64.4511V4.07894H58.3324V5.68718H64.4511V7.29542H58.3324V10.5119H56.8027V2.4707Z" fill="white"/>
<path d="M67.7199 2.4707H72.3089C73.3298 2.4707 73.8386 3.00678 73.8386 4.07894V8.90366C73.8386 9.97582 73.3298 10.5119 72.3089 10.5119H67.7199C66.699 10.5119 66.1902 9.97582 66.1902 8.90366V4.07894C66.1902 3.00678 66.699 2.4707 67.7199 2.4707ZM67.7199 4.07894V8.90366H72.3089V4.07894H67.7199Z" fill="white"/>
<path d="M81.6966 10.5119H77.1076C76.0867 10.5119 75.5779 9.97582 75.5779 8.90366V2.4707H77.1076V8.90366H81.6966V2.4707H83.2263V8.90366C83.2263 9.97582 82.7175 10.5119 81.6966 10.5119Z" fill="white"/>
<path d="M86.4156 10.5118H84.8127V2.48389H86.256L91.2274 8.02449V2.48389H92.8303V10.5118H91.397L86.4156 4.97116V10.5118Z" fill="white"/>
<path d="M94.4131 10.5119V2.4707H100.532C101.553 2.4707 102.062 3.00678 102.062 4.07894V8.90366C102.062 9.97582 101.553 10.5119 100.532 10.5119H94.4131ZM95.9428 8.90366H100.532V4.07894H95.9428V8.90366Z" fill="white"/>
</svg>
