<svg width="47" height="48" viewBox="0 0 47 48" fill="none" xmlns="http://www.w3.org/2000/svg">
<path d="M28.3612 18.3024C28.1447 18.3024 27.94 18.3902 27.7878 18.5364L26.1496 20.1746L25.8337 19.8587C25.1492 19.1741 24.1838 18.9343 23.2594 19.0454C22.335 19.1624 21.4164 19.6129 20.6734 20.356C19.9304 21.099 19.474 22.0176 19.357 22.9361C19.24 23.8605 19.4916 24.8259 20.1761 25.5046L20.9016 26.2359L21.6329 26.9556C21.9255 27.2481 22.0542 27.6635 21.9898 28.1959C21.9255 28.7225 21.6388 29.3368 21.1298 29.8458C20.6208 30.3548 20.0181 30.6298 19.4857 30.7C18.9533 30.7644 18.5379 30.6356 18.2454 30.3431L17.7013 29.799C17.7013 29.799 17.6837 29.7814 17.6779 29.7756L15.478 27.5757C15.1621 27.2657 14.6589 27.2657 14.343 27.5757C14.1908 27.7279 14.1031 27.9326 14.1031 28.1433C14.1031 28.3539 14.1908 28.5587 14.343 28.7108L15.9695 30.3431L14.3254 31.9813C14.0153 32.2914 14.0153 32.8004 14.3254 33.1105C14.4775 33.2626 14.6823 33.3445 14.8929 33.3445C15.1035 33.3445 15.3142 33.2626 15.4604 33.1105L17.0986 31.4781C17.7832 32.1627 18.7485 32.4026 19.6729 32.2914C20.5973 32.1744 21.5159 31.718 22.2589 30.975C23.002 30.232 23.4583 29.3192 23.5753 28.4007C23.6924 27.4763 23.4408 26.5051 22.7563 25.8264L22.0308 25.1009L21.2994 24.3754C21.0069 24.0829 20.8782 23.6675 20.9425 23.1351C21.0069 22.6085 21.2936 22 21.8026 21.491C22.3116 20.982 22.9142 20.6953 23.4466 20.631C23.979 20.5666 24.3944 20.6953 24.687 20.9879L27.4544 23.7552C27.7703 24.0653 28.2734 24.0653 28.5894 23.7552C28.7415 23.6031 28.8234 23.3983 28.8234 23.1877C28.8234 22.9771 28.7357 22.7723 28.5894 22.6202L27.2788 21.3097L28.917 19.6773C29.0691 19.5252 29.1511 19.3204 29.1511 19.1098C29.1511 18.8992 29.0633 18.6944 28.917 18.5423C28.7708 18.396 28.566 18.3082 28.3554 18.3082M35.5283 8.561C36.3123 8.561 37.0963 8.86524 37.6989 9.46786C38.9041 10.6731 38.9041 12.598 37.6989 13.8032C36.4937 15.0085 34.5629 15.0085 33.3577 13.8032C32.1525 12.598 32.1525 10.6731 33.3577 9.46786C33.9603 8.86524 34.7443 8.561 35.5283 8.561ZM35.5283 6.96961C34.3289 6.96961 33.1295 7.42597 32.2168 8.33282C30.3972 10.1465 30.3972 13.1187 32.2168 14.9383C34.0364 16.7578 37.0085 16.752 38.8339 14.9383C40.6535 13.1187 40.6535 10.1524 38.8339 8.33282C37.9212 7.42597 36.7277 6.96961 35.5283 6.96961ZM23.9849 2.18375L43.3039 3.85705L44.983 23.1468L23.2887 44.806C22.3701 45.7246 20.9191 45.7246 19.9947 44.806L2.29054 27.1311C1.37199 26.2125 1.37199 24.7616 2.29054 23.843L23.9849 2.18375ZM23.7509 0.551408C23.5168 0.533855 23.2828 0.615765 23.1131 0.779584L1.14966 22.708C-0.38322 24.235 -0.38322 26.7332 1.14966 28.2603L18.8597 45.9352C20.3926 47.4622 22.8908 47.4622 24.4237 45.9352L46.3813 24.0185C46.551 23.8489 46.6329 23.6148 46.6095 23.3749L44.8426 3.04965C44.8133 2.65766 44.5033 2.34757 44.1113 2.31246L23.7509 0.551408Z" fill="url(#paint0_linear_1034_12925)"/>
<path d="M28.3612 18.3024C28.1447 18.3024 27.94 18.3902 27.7878 18.5364L26.1496 20.1746L25.8337 19.8587C25.1492 19.1741 24.1838 18.9343 23.2594 19.0454C22.335 19.1624 21.4164 19.6129 20.6734 20.356C19.9304 21.099 19.474 22.0176 19.357 22.9361C19.24 23.8605 19.4916 24.8259 20.1761 25.5046L20.9016 26.2359L21.6329 26.9556C21.9255 27.2481 22.0542 27.6635 21.9898 28.1959C21.9255 28.7225 21.6388 29.3368 21.1298 29.8458C20.6208 30.3548 20.0181 30.6298 19.4857 30.7C18.9533 30.7644 18.5379 30.6356 18.2454 30.3431L17.7013 29.799C17.7013 29.799 17.6837 29.7814 17.6779 29.7756L15.478 27.5757C15.1621 27.2657 14.6589 27.2657 14.343 27.5757C14.1908 27.7279 14.1031 27.9326 14.1031 28.1433C14.1031 28.3539 14.1908 28.5587 14.343 28.7108L15.9695 30.3431L14.3254 31.9813C14.0153 32.2914 14.0153 32.8004 14.3254 33.1105C14.4775 33.2626 14.6823 33.3445 14.8929 33.3445C15.1035 33.3445 15.3142 33.2626 15.4604 33.1105L17.0986 31.4781C17.7832 32.1627 18.7485 32.4026 19.6729 32.2914C20.5973 32.1744 21.5159 31.718 22.2589 30.975C23.002 30.232 23.4583 29.3192 23.5753 28.4007C23.6924 27.4763 23.4408 26.5051 22.7563 25.8264L22.0308 25.1009L21.2994 24.3754C21.0069 24.0829 20.8782 23.6675 20.9425 23.1351C21.0069 22.6085 21.2936 22 21.8026 21.491C22.3116 20.982 22.9142 20.6953 23.4466 20.631C23.979 20.5666 24.3944 20.6953 24.687 20.9879L27.4544 23.7552C27.7703 24.0653 28.2734 24.0653 28.5894 23.7552C28.7415 23.6031 28.8234 23.3983 28.8234 23.1877C28.8234 22.9771 28.7357 22.7723 28.5894 22.6202L27.2788 21.3097L28.917 19.6773C29.0691 19.5252 29.1511 19.3204 29.1511 19.1098C29.1511 18.8992 29.0633 18.6944 28.917 18.5423C28.7708 18.396 28.566 18.3082 28.3554 18.3082M35.5283 8.561C36.3123 8.561 37.0963 8.86524 37.6989 9.46786C38.9041 10.6731 38.9041 12.598 37.6989 13.8032C36.4937 15.0085 34.5629 15.0085 33.3577 13.8032C32.1525 12.598 32.1525 10.6731 33.3577 9.46786C33.9603 8.86524 34.7443 8.561 35.5283 8.561ZM35.5283 6.96961C34.3289 6.96961 33.1295 7.42597 32.2168 8.33282C30.3972 10.1465 30.3972 13.1187 32.2168 14.9383C34.0364 16.7578 37.0085 16.752 38.8339 14.9383C40.6535 13.1187 40.6535 10.1524 38.8339 8.33282C37.9212 7.42597 36.7277 6.96961 35.5283 6.96961ZM23.9849 2.18375L43.3039 3.85705L44.983 23.1468L23.2887 44.806C22.3701 45.7246 20.9191 45.7246 19.9947 44.806L2.29054 27.1311C1.37199 26.2125 1.37199 24.7616 2.29054 23.843L23.9849 2.18375ZM23.7509 0.551408C23.5168 0.533855 23.2828 0.615765 23.1131 0.779584L1.14966 22.708C-0.38322 24.235 -0.38322 26.7332 1.14966 28.2603L18.8597 45.9352C20.3926 47.4622 22.8908 47.4622 24.4237 45.9352L46.3813 24.0185C46.551 23.8489 46.6329 23.6148 46.6095 23.3749L44.8426 3.04965C44.8133 2.65766 44.5033 2.34757 44.1113 2.31246L23.7509 0.551408Z" fill="black" fill-opacity="0.2"/>
<defs>
<linearGradient id="paint0_linear_1034_12925" x1="1.50577" y1="4.12841" x2="44.4201" y2="35.9633" gradientUnits="userSpaceOnUse">
<stop offset="0.03125" stop-color="#003B40"/>
<stop offset="0.265625" stop-color="#005961"/>
<stop offset="0.509791" stop-color="#00818C"/>
<stop offset="0.760417" stop-color="#005961"/>
<stop offset="0.994792" stop-color="#003B40"/>
</linearGradient>
</defs>
</svg>
