<svg width="47" height="41" viewBox="0 0 47 41" fill="none" xmlns="http://www.w3.org/2000/svg">
<path d="M22.4483 1.76562H4.67672C3.73889 1.76562 2.83947 2.13818 2.17632 2.80132C1.51318 3.46447 1.14063 4.36389 1.14062 5.30172V18.1045C1.14063 19.0424 1.51318 19.9418 2.17632 20.6049C2.83947 21.2681 3.73889 21.6406 4.67672 21.6406H11.0781V28.2656L16.3781 21.6406H22.4483C22.9126 21.6406 23.3725 21.5492 23.8015 21.3715C24.2305 21.1937 24.6203 20.9333 24.9487 20.6049C25.277 20.2766 25.5375 19.8868 25.7152 19.4577C25.8929 19.0287 25.9844 18.5689 25.9844 18.1045V5.30172C25.9844 4.83735 25.8929 4.37753 25.7152 3.94851C25.5375 3.5195 25.277 3.12968 24.9487 2.80132C24.6203 2.47297 24.2305 2.2125 23.8015 2.03479C23.3725 1.85709 22.9126 1.76562 22.4483 1.76562Z" stroke="url(#paint0_linear_1510_12151)" stroke-width="2" stroke-linecap="round" stroke-linejoin="round"/>
<path d="M21.0156 24.9532V26.3858C21.0156 26.8502 21.1071 27.31 21.2848 27.739C21.4625 28.168 21.723 28.5579 22.0513 28.8862C22.3797 29.2146 22.7695 29.475 23.1985 29.6527C23.6275 29.8304 24.0874 29.9219 24.5517 29.9219H32.2781L37.5781 36.5469V29.9219H42.3233C43.2611 29.9219 44.1605 29.5494 44.8237 28.8862C45.4868 28.2231 45.8594 27.3236 45.8594 26.3858V13.583C45.8612 12.6827 45.5195 11.8155 44.9039 11.1585C44.2884 10.5014 43.4454 10.1038 42.5469 10.0469H29.2969M10.25 9.21879C10.2498 8.61923 10.4122 8.03084 10.7201 7.51637C11.028 7.0019 11.4698 6.58064 11.9983 6.29751C12.5268 6.01438 13.1222 5.88001 13.7211 5.90871C14.3199 5.9374 14.8998 6.12811 15.3988 6.46048C15.8978 6.79285 16.2972 7.25442 16.5545 7.79597C16.8118 8.33753 16.9173 8.93875 16.8597 9.53554C16.8021 10.1323 16.5836 10.7023 16.2276 11.1847C15.8715 11.6671 15.3912 12.0437 14.8378 12.2746C14.4606 12.4326 14.1384 12.6984 13.9116 13.0387C13.6847 13.379 13.5633 13.7786 13.5625 14.1875" stroke="url(#paint1_linear_1510_12151)" stroke-width="2" stroke-linecap="round" stroke-linejoin="round"/>
<path d="M13.5625 18.3281C14.0199 18.3281 14.3906 17.9574 14.3906 17.5C14.3906 17.0426 14.0199 16.6719 13.5625 16.6719C13.1051 16.6719 12.7344 17.0426 12.7344 17.5C12.7344 17.9574 13.1051 18.3281 13.5625 18.3281Z" fill="url(#paint2_linear_1510_12151)"/>
<path d="M29.2969 15.0156H42.5469" stroke="url(#paint3_linear_1510_12151)" stroke-width="2" stroke-linecap="round" stroke-linejoin="round"/>
<path d="M29.2969 18.3281H42.5469" stroke="url(#paint4_linear_1510_12151)" stroke-width="2" stroke-linecap="round" stroke-linejoin="round"/>
<path d="M29.2969 21.6406H42.5469" stroke="url(#paint5_linear_1510_12151)" stroke-width="2" stroke-linecap="round" stroke-linejoin="round"/>
<path d="M29.2969 24.9531H33.4375" stroke="url(#paint6_linear_1510_12151)" stroke-width="2" stroke-linecap="round" stroke-linejoin="round"/>
<path d="M8.59375 39.0312C9.50847 39.0312 10.25 38.2897 10.25 37.375C10.25 36.4603 9.50847 35.7188 8.59375 35.7188C7.67903 35.7188 6.9375 36.4603 6.9375 37.375C6.9375 38.2897 7.67903 39.0312 8.59375 39.0312Z" stroke="url(#paint7_linear_1510_12151)" stroke-width="2" stroke-miterlimit="10"/>
<defs>
<linearGradient id="paint0_linear_1510_12151" x1="1.14063" y1="2.24471" x2="27.981" y2="5.73046" gradientUnits="userSpaceOnUse">
<stop offset="0.158241" stop-color="#002D31"/>
<stop offset="0.32869" stop-color="#005961"/>
<stop offset="0.509791" stop-color="#00818C"/>
<stop offset="0.786145" stop-color="#005961"/>
<stop offset="0.988044" stop-color="#002D31"/>
</linearGradient>
<linearGradient id="paint1_linear_1510_12151" x1="10.25" y1="6.45888" x2="48.3819" y2="12.5975" gradientUnits="userSpaceOnUse">
<stop offset="0.158241" stop-color="#002D31"/>
<stop offset="0.32869" stop-color="#005961"/>
<stop offset="0.509791" stop-color="#00818C"/>
<stop offset="0.786145" stop-color="#005961"/>
<stop offset="0.988044" stop-color="#002D31"/>
</linearGradient>
<linearGradient id="paint2_linear_1510_12151" x1="12.7344" y1="16.7018" x2="14.5197" y2="16.9491" gradientUnits="userSpaceOnUse">
<stop offset="0.158241" stop-color="#002D31"/>
<stop offset="0.32869" stop-color="#005961"/>
<stop offset="0.509791" stop-color="#00818C"/>
<stop offset="0.786145" stop-color="#005961"/>
<stop offset="0.988044" stop-color="#002D31"/>
</linearGradient>
<linearGradient id="paint3_linear_1510_12151" x1="29.2969" y1="15.0337" x2="32.6286" y2="21.149" gradientUnits="userSpaceOnUse">
<stop offset="0.158241" stop-color="#002D31"/>
<stop offset="0.32869" stop-color="#005961"/>
<stop offset="0.509791" stop-color="#00818C"/>
<stop offset="0.786145" stop-color="#005961"/>
<stop offset="0.988044" stop-color="#002D31"/>
</linearGradient>
<linearGradient id="paint4_linear_1510_12151" x1="29.2969" y1="18.3462" x2="32.6286" y2="24.4615" gradientUnits="userSpaceOnUse">
<stop offset="0.158241" stop-color="#002D31"/>
<stop offset="0.32869" stop-color="#005961"/>
<stop offset="0.509791" stop-color="#00818C"/>
<stop offset="0.786145" stop-color="#005961"/>
<stop offset="0.988044" stop-color="#002D31"/>
</linearGradient>
<linearGradient id="paint5_linear_1510_12151" x1="29.2969" y1="21.6587" x2="32.6286" y2="27.774" gradientUnits="userSpaceOnUse">
<stop offset="0.158241" stop-color="#002D31"/>
<stop offset="0.32869" stop-color="#005961"/>
<stop offset="0.509791" stop-color="#00818C"/>
<stop offset="0.786145" stop-color="#005961"/>
<stop offset="0.988044" stop-color="#002D31"/>
</linearGradient>
<linearGradient id="paint6_linear_1510_12151" x1="29.2969" y1="24.9712" x2="32.7196" y2="26.9345" gradientUnits="userSpaceOnUse">
<stop offset="0.158241" stop-color="#002D31"/>
<stop offset="0.32869" stop-color="#005961"/>
<stop offset="0.509791" stop-color="#00818C"/>
<stop offset="0.786145" stop-color="#005961"/>
<stop offset="0.988044" stop-color="#002D31"/>
</linearGradient>
<linearGradient id="paint7_linear_1510_12151" x1="6.9375" y1="35.7786" x2="10.5081" y2="36.2733" gradientUnits="userSpaceOnUse">
<stop offset="0.158241" stop-color="#002D31"/>
<stop offset="0.32869" stop-color="#005961"/>
<stop offset="0.509791" stop-color="#00818C"/>
<stop offset="0.786145" stop-color="#005961"/>
<stop offset="0.988044" stop-color="#002D31"/>
</linearGradient>
</defs>
</svg>
