<svg width="231" height="232" viewBox="0 0 231 232" fill="none" xmlns="http://www.w3.org/2000/svg">
<path d="M159.034 0L149.732 5.35146L140.43 0H138.858L148.945 5.80129L109.289 28.6187L69.6314 5.80129L79.7178 0H78.1486L69.2512 5.11878V0H68.4424V5.11878L59.545 0H57.9731L68.0595 5.80129L28.1939 28.7376C28.1345 28.772 28.0854 28.8205 28.0514 28.8785C28.0173 28.9365 27.9995 29.002 27.9997 29.0685V74.9204L0 58.8118V59.7166L27.6169 75.6029L0 91.4919V92.3967L28.4042 76.0554L68.0595 98.8702L28.1939 121.806L0 138.026V138.931L27.9997 122.822V167.987L0 151.881V152.785L27.9997 168.892V214.521L0 198.415V199.317L27.6169 215.206L0 231.095V232L28.6226 215.54L69.0652 192.273L69.0975 192.247C69.1125 192.237 69.127 192.227 69.1407 192.216C69.1549 192.201 69.1675 192.186 69.1784 192.169C69.1873 192.16 69.1954 192.151 69.2027 192.141V192.12C69.2133 192.099 69.2223 192.077 69.2296 192.055C69.2309 192.047 69.2309 192.038 69.2296 192.03C69.2296 192.006 69.2296 191.983 69.2296 191.962C69.2296 191.942 69.2296 191.962 69.2296 191.944V146.09L109.058 169.005H109.074C109.096 169.018 109.119 169.029 109.144 169.036H109.171C109.203 169.039 109.236 169.039 109.268 169.036C109.3 169.039 109.333 169.039 109.365 169.036H109.389C109.414 169.029 109.437 169.018 109.459 169.005H109.475L149.918 145.738C149.978 145.703 150.028 145.655 150.062 145.596C150.096 145.538 150.115 145.472 150.115 145.405V99.0925L190.153 76.0579L230.191 99.0925V145.407C230.191 145.51 230.234 145.609 230.31 145.681C230.385 145.754 230.488 145.795 230.596 145.795C230.703 145.795 230.806 145.754 230.882 145.681C230.957 145.609 231 145.51 231 145.407V98.8727C231 98.8056 230.982 98.7397 230.947 98.6812C230.913 98.6228 230.863 98.5739 230.803 98.5392L190.361 75.272C190.297 75.2366 190.225 75.2179 190.152 75.2179C190.078 75.2179 190.006 75.2366 189.943 75.272L149.5 98.5392C149.481 98.5507 149.463 98.5637 149.446 98.578C149.446 98.5935 149.419 98.6065 149.406 98.6246L149.376 98.6737C149.376 98.6797 149.376 98.6858 149.376 98.6918C149.376 98.6918 149.376 98.7228 149.36 98.7383V98.7642V98.8029C149.36 98.8029 149.36 98.8288 149.36 98.8417V145.185L109.726 167.987V122.137C109.726 122.071 109.708 122.005 109.673 121.947C109.639 121.889 109.589 121.841 109.529 121.806L69.6314 98.8702L109.508 75.9364L149.95 52.6692C150.01 52.6345 150.06 52.5856 150.094 52.5272C150.129 52.4688 150.147 52.4029 150.147 52.3357V6.48638L189.975 29.402C190.021 29.4283 190.071 29.4458 190.124 29.4534C190.176 29.4611 190.23 29.4587 190.281 29.4464C190.333 29.4342 190.381 29.4123 190.424 29.3821C190.467 29.3518 190.503 29.3138 190.53 29.2702C190.558 29.2265 190.576 29.1782 190.584 29.1278C190.592 29.0774 190.59 29.026 190.577 28.9766C190.564 28.9271 190.541 28.8805 190.51 28.8395C190.478 28.7985 190.438 28.7639 190.393 28.7376L150.517 5.80129L160.606 0H159.034ZM28.8086 29.2883L68.4424 6.48638V52.1186L28.8086 74.9204V29.2883ZM28.8086 122.822L68.0595 145.405L28.8086 167.987V122.822ZM28.8086 214.521V169.357L68.0595 191.939L28.8086 214.521ZM68.4424 191.254L29.1888 168.672L68.4424 146.09V191.254ZM68.4424 144.72L29.1888 122.137L68.4424 99.5552V144.72ZM108.885 122.357V167.987L69.2512 145.185V99.5552L108.885 122.357ZM68.8468 98.4203L29.1888 75.6029L68.8468 52.7881L108.502 75.6029L68.8468 98.4203ZM108.885 74.9204L69.2512 52.1186V6.48638L108.885 29.2883V74.9204ZM149.328 52.1186L109.694 74.9204V29.2883L149.328 6.48638V52.1186Z" fill="#E6EDED" fill-opacity="0.1"/>
</svg>
