<svg width="25" height="26" viewBox="0 0 25 26" fill="none" xmlns="http://www.w3.org/2000/svg">
<path d="M9.88661 1.09038C8.98518 1.69376 8.43996 2.71149 8.43996 3.79466V6.22996M18.9954 11.1006V3.79466C18.9954 1.99908 17.5414 0.545166 15.7459 0.545166C13.9503 0.545166 12.4964 1.99908 12.4964 3.79466V11.1006M5.38675 6.22996H12.4964M14.9317 6.22996H20.8127C21.6269 6.22996 22.3175 6.83333 22.4193 7.64025L24.433 23.0662C24.5493 23.9531 23.9241 24.7673 23.03 24.8836C22.9573 24.8909 22.8918 24.8982 22.8191 24.8982H9.25415M9.25415 24.8982H2.16634C1.27218 24.8982 0.545227 24.1712 0.545227 23.2771C0.545227 23.2044 0.545227 23.1389 0.559766 23.0662L2.57343 7.64025C2.68248 6.83333 3.36581 6.22996 4.18727 6.22996H5.39402C6.20821 6.22996 6.89882 6.83333 7.00786 7.64025L9.26142 24.8982H9.25415Z" stroke="url(#paint0_linear_1611_12549)" stroke-width="1.09043" stroke-linecap="round" stroke-linejoin="round"/>
<defs>
<linearGradient id="paint0_linear_1611_12549" x1="0.545227" y1="0.985439" x2="26.3268" y2="4.4907" gradientUnits="userSpaceOnUse">
<stop offset="0.158241" stop-color="#002D31"/>
<stop offset="0.32869" stop-color="#005961"/>
<stop offset="0.509791" stop-color="#00818C"/>
<stop offset="0.786145" stop-color="#005961"/>
<stop offset="0.988044" stop-color="#002D31"/>
</linearGradient>
</defs>
</svg>
