<svg width="35" height="32" viewBox="0 0 35 32" fill="none" xmlns="http://www.w3.org/2000/svg">
<path d="M27.5021 30.3433H23.3899C23.0583 30.3433 22.793 30.5874 22.793 30.8894C22.793 31.1914 23.0624 31.4355 23.3899 31.4355H27.5021C27.8338 31.4355 28.0991 31.1914 28.0991 30.8894C28.0991 30.5874 27.8296 30.3433 27.5021 30.3433Z" fill="url(#paint0_linear_1134_8124)"/>
<path d="M27.5021 30.3433H23.3899C23.0583 30.3433 22.793 30.5874 22.793 30.8894C22.793 31.1914 23.0624 31.4355 23.3899 31.4355H27.5021C27.8338 31.4355 28.0991 31.1914 28.0991 30.8894C28.0991 30.5874 27.8296 30.3433 27.5021 30.3433Z" fill="#E6EDED"/>
<path d="M19.2795 30.3433H15.1672C14.8356 30.3433 14.5703 30.5874 14.5703 30.8894C14.5703 31.1914 14.8356 31.4355 15.1672 31.4355H19.2795C19.6111 31.4355 19.8764 31.1914 19.8764 30.8894C19.8764 30.5915 19.6111 30.3433 19.2795 30.3433Z" fill="url(#paint1_linear_1134_8124)"/>
<path d="M19.2795 30.3433H15.1672C14.8356 30.3433 14.5703 30.5874 14.5703 30.8894C14.5703 31.1914 14.8356 31.4355 15.1672 31.4355H19.2795C19.6111 31.4355 19.8764 31.1914 19.8764 30.8894C19.8764 30.5915 19.6111 30.3433 19.2795 30.3433Z" fill="#E6EDED"/>
<path d="M11.0539 30.3433H6.94166C6.61003 30.3433 6.34473 30.5874 6.34473 30.8894C6.34473 31.1914 6.61003 31.4355 6.94166 31.4355H11.0539C11.3855 31.4355 11.6508 31.1914 11.6508 30.8894C11.6508 30.5874 11.3855 30.3433 11.058 30.3433" fill="url(#paint2_linear_1134_8124)"/>
<path d="M11.0539 30.3433H6.94166C6.61003 30.3433 6.34473 30.5874 6.34473 30.8894C6.34473 31.1914 6.61003 31.4355 6.94166 31.4355H11.0539C11.3855 31.4355 11.6508 31.1914 11.6508 30.8894C11.6508 30.5874 11.3855 30.3433 11.058 30.3433" fill="#E6EDED"/>
<path d="M0.596936 25.6389C0.928567 25.6389 1.19387 25.3948 1.19387 25.097V21.3445C1.19387 21.0424 0.928567 20.7983 0.596936 20.7983C0.265305 20.7983 0 21.0424 0 21.3445V25.097C0 25.3948 0.265305 25.6389 0.596936 25.6389Z" fill="url(#paint3_linear_1134_8124)"/>
<path d="M0.596936 25.6389C0.928567 25.6389 1.19387 25.3948 1.19387 25.097V21.3445C1.19387 21.0424 0.928567 20.7983 0.596936 20.7983C0.265305 20.7983 0 21.0424 0 21.3445V25.097C0 25.3948 0.265305 25.6389 0.596936 25.6389Z" fill="#E6EDED"/>
<path d="M0.596936 10.6326C0.928567 10.6326 1.19387 10.3885 1.19387 10.0906V6.33811C1.19387 6.03609 0.928567 5.79199 0.596936 5.79199C0.265305 5.79199 0 6.03609 0 6.33811V10.0906C0 10.3926 0.265305 10.6367 0.596936 10.6367" fill="url(#paint4_linear_1134_8124)"/>
<path d="M0.596936 10.6326C0.928567 10.6326 1.19387 10.3885 1.19387 10.0906V6.33811C1.19387 6.03609 0.928567 5.79199 0.596936 5.79199C0.265305 5.79199 0 6.03609 0 6.33811V10.0906C0 10.3926 0.265305 10.6367 0.596936 10.6367" fill="#E6EDED"/>
<path d="M0.596936 18.1336C0.928567 18.1336 1.19387 17.8895 1.19387 17.5916V13.8391C1.19387 13.5371 0.928567 13.293 0.596936 13.293C0.265305 13.293 0 13.5371 0 13.8391V17.5916C0 17.8936 0.265305 18.1336 0.596936 18.1336Z" fill="url(#paint5_linear_1134_8124)"/>
<path d="M0.596936 18.1336C0.928567 18.1336 1.19387 17.8895 1.19387 17.5916V13.8391C1.19387 13.5371 0.928567 13.293 0.596936 13.293C0.265305 13.293 0 13.5371 0 13.8391V17.5916C0 17.8936 0.265305 18.1336 0.596936 18.1336Z" fill="#E6EDED"/>
<path d="M6.94166 1.0881H11.0539C11.3855 1.0881 11.6508 0.844003 11.6508 0.546119C11.6508 0.248236 11.3855 0 11.0539 0H6.94166C6.61003 0 6.34473 0.244099 6.34473 0.546119C6.34473 0.84814 6.61418 1.09224 6.94166 1.09224" fill="url(#paint6_linear_1134_8124)"/>
<path d="M6.94166 1.0881H11.0539C11.3855 1.0881 11.6508 0.844003 11.6508 0.546119C11.6508 0.248236 11.3855 0 11.0539 0H6.94166C6.61003 0 6.34473 0.244099 6.34473 0.546119C6.34473 0.84814 6.61418 1.09224 6.94166 1.09224" fill="#E6EDED"/>
<path d="M15.1672 1.0881H19.2795C19.6111 1.0881 19.8764 0.844003 19.8764 0.546119C19.8764 0.248236 19.607 0 19.2795 0H15.1672C14.8356 0 14.5703 0.244099 14.5703 0.546119C14.5703 0.84814 14.8356 1.09224 15.1672 1.09224" fill="url(#paint7_linear_1134_8124)"/>
<path d="M15.1672 1.0881H19.2795C19.6111 1.0881 19.8764 0.844003 19.8764 0.546119C19.8764 0.248236 19.607 0 19.2795 0H15.1672C14.8356 0 14.5703 0.244099 14.5703 0.546119C14.5703 0.84814 14.8356 1.09224 15.1672 1.09224" fill="#E6EDED"/>
<path d="M23.3899 1.0881H27.5021C27.8338 1.0881 28.0991 0.844003 28.0991 0.546119C28.0991 0.248236 27.8296 0 27.5021 0H23.3899C23.0583 0 22.793 0.244099 22.793 0.546119C22.793 0.84814 23.0583 1.09224 23.3899 1.09224" fill="url(#paint8_linear_1134_8124)"/>
<path d="M23.3899 1.0881H27.5021C27.8338 1.0881 28.0991 0.844003 28.0991 0.546119C28.0991 0.248236 27.8296 0 27.5021 0H23.3899C23.0583 0 22.793 0.244099 22.793 0.546119C22.793 0.84814 23.0583 1.09224 23.3899 1.09224" fill="#E6EDED"/>
<path d="M33.8489 5.79199C33.5173 5.79199 33.252 6.03609 33.252 6.33811V10.0906C33.252 10.3926 33.5214 10.6326 33.8489 10.6326C34.1764 10.6326 34.4458 10.3885 34.4458 10.0906V6.33811C34.4458 6.04023 34.1805 5.79613 33.8489 5.79613" fill="url(#paint9_linear_1134_8124)"/>
<path d="M33.8489 5.79199C33.5173 5.79199 33.252 6.03609 33.252 6.33811V10.0906C33.252 10.3926 33.5214 10.6326 33.8489 10.6326C34.1764 10.6326 34.4458 10.3885 34.4458 10.0906V6.33811C34.4458 6.04023 34.1805 5.79613 33.8489 5.79613" fill="#E6EDED"/>
<path d="M33.8489 13.293C33.5173 13.293 33.252 13.5371 33.252 13.8391V17.5916C33.252 17.8936 33.5214 18.1336 33.8489 18.1336C34.1764 18.1336 34.4458 17.8895 34.4458 17.5916V13.8391C34.4458 13.5371 34.1805 13.293 33.8489 13.293Z" fill="url(#paint10_linear_1134_8124)"/>
<path d="M33.8489 13.293C33.5173 13.293 33.252 13.5371 33.252 13.8391V17.5916C33.252 17.8936 33.5214 18.1336 33.8489 18.1336C34.1764 18.1336 34.4458 17.8895 34.4458 17.5916V13.8391C34.4458 13.5371 34.1805 13.293 33.8489 13.293Z" fill="#E6EDED"/>
<path d="M33.8489 20.7944C33.5173 20.7944 33.252 21.0385 33.252 21.3406V25.0931C33.252 25.3951 33.5214 25.635 33.8489 25.635C34.1764 25.635 34.4458 25.3909 34.4458 25.0931V21.3406C34.4458 21.0427 34.1805 20.7944 33.8489 20.7944Z" fill="url(#paint11_linear_1134_8124)"/>
<path d="M33.8489 20.7944C33.5173 20.7944 33.252 21.0385 33.252 21.3406V25.0931C33.252 25.3951 33.5214 25.635 33.8489 25.635C34.1764 25.635 34.4458 25.3909 34.4458 25.0931V21.3406C34.4458 21.0427 34.1805 20.7944 33.8489 20.7944Z" fill="#E6EDED"/>
<path d="M6.28663 10.0993C6.61826 10.0993 6.88357 9.85524 6.88357 9.55736V6.33443H10.4154C10.7471 6.33443 11.0124 6.09033 11.0124 5.78831C11.0124 5.48629 10.7471 5.24219 10.4154 5.24219H6.28663C5.955 5.24219 5.6897 5.48629 5.6897 5.78831V9.55736C5.6897 9.85524 5.955 10.0993 6.28663 10.0993Z" fill="url(#paint12_linear_1134_8124)"/>
<path d="M6.28663 10.0993C6.61826 10.0993 6.88357 9.85524 6.88357 9.55736V6.33443H10.4154C10.7471 6.33443 11.0124 6.09033 11.0124 5.78831C11.0124 5.48629 10.7471 5.24219 10.4154 5.24219H6.28663C5.955 5.24219 5.6897 5.48629 5.6897 5.78831V9.55736C5.6897 9.85524 5.955 10.0993 6.28663 10.0993Z" fill="#E6EDED"/>
<path d="M11.0124 25.6431C11.0124 25.341 10.7471 25.1011 10.4154 25.1011H6.88357V21.8782C6.88357 21.5761 6.61826 21.332 6.28663 21.332C5.955 21.332 5.6897 21.5761 5.6897 21.8782V25.6472C5.6897 25.9492 5.955 26.1933 6.28663 26.1933H10.4154C10.7471 26.1933 11.0124 25.9492 11.0124 25.6472" fill="url(#paint13_linear_1134_8124)"/>
<path d="M11.0124 25.6431C11.0124 25.341 10.7471 25.1011 10.4154 25.1011H6.88357V21.8782C6.88357 21.5761 6.61826 21.332 6.28663 21.332C5.955 21.332 5.6897 21.5761 5.6897 21.8782V25.6472C5.6897 25.9492 5.955 26.1933 6.28663 26.1933H10.4154C10.7471 26.1933 11.0124 25.9492 11.0124 25.6472" fill="#E6EDED"/>
<path d="M28.1593 21.332C27.8277 21.332 27.5624 21.5761 27.5624 21.8782V25.1011H24.0305C23.6989 25.1011 23.4336 25.3452 23.4336 25.6472C23.4336 25.9492 23.703 26.1933 24.0305 26.1933H28.1593C28.491 26.1933 28.7563 25.9492 28.7563 25.6472V21.8782C28.7563 21.5803 28.4868 21.3362 28.1593 21.3362" fill="url(#paint14_linear_1134_8124)"/>
<path d="M28.1593 21.332C27.8277 21.332 27.5624 21.5761 27.5624 21.8782V25.1011H24.0305C23.6989 25.1011 23.4336 25.3452 23.4336 25.6472C23.4336 25.9492 23.703 26.1933 24.0305 26.1933H28.1593C28.491 26.1933 28.7563 25.9492 28.7563 25.6472V21.8782C28.7563 21.5803 28.4868 21.3362 28.1593 21.3362" fill="#E6EDED"/>
<path d="M14.2508 13.003H20.1911V18.4228H14.2508V13.003ZM26.6994 7.8604C26.9315 7.6494 26.9315 7.30601 26.6994 7.09087C26.4672 6.87987 26.0859 6.87987 25.8537 7.09087L20.5683 11.9149H13.9026L8.61718 7.09087C8.38504 6.87987 8.00781 6.87987 7.77567 7.09087C7.54353 7.30187 7.54353 7.6494 7.77567 7.8604L13.061 12.6845V18.7456L7.77567 23.5696C7.54353 23.7806 7.54353 24.1281 7.77567 24.3391C7.89174 24.4467 8.04512 24.5005 8.1985 24.5005C8.35188 24.5005 8.50526 24.4467 8.62133 24.3391L13.9067 19.5151H20.5476L25.833 24.3391C25.9491 24.4467 26.1024 24.5005 26.2558 24.5005C26.4092 24.5005 26.5626 24.4467 26.6786 24.3391C26.9108 24.1281 26.9108 23.7806 26.6786 23.5696L21.3933 18.7456V12.7093L26.7035 7.86454L26.6994 7.8604Z" fill="url(#paint15_linear_1134_8124)"/>
<path d="M14.2508 13.003H20.1911V18.4228H14.2508V13.003ZM26.6994 7.8604C26.9315 7.6494 26.9315 7.30601 26.6994 7.09087C26.4672 6.87987 26.0859 6.87987 25.8537 7.09087L20.5683 11.9149H13.9026L8.61718 7.09087C8.38504 6.87987 8.00781 6.87987 7.77567 7.09087C7.54353 7.30187 7.54353 7.6494 7.77567 7.8604L13.061 12.6845V18.7456L7.77567 23.5696C7.54353 23.7806 7.54353 24.1281 7.77567 24.3391C7.89174 24.4467 8.04512 24.5005 8.1985 24.5005C8.35188 24.5005 8.50526 24.4467 8.62133 24.3391L13.9067 19.5151H20.5476L25.833 24.3391C25.9491 24.4467 26.1024 24.5005 26.2558 24.5005C26.4092 24.5005 26.5626 24.4467 26.6786 24.3391C26.9108 24.1281 26.9108 23.7806 26.6786 23.5696L21.3933 18.7456V12.7093L26.7035 7.86454L26.6994 7.8604Z" fill="#E6EDED"/>
<path d="M28.1857 5.24219H24.0569C23.7253 5.24219 23.46 5.48629 23.46 5.78831C23.46 6.09033 23.7294 6.33443 24.0569 6.33443H27.5888V9.55736C27.5888 9.85938 27.8582 10.1035 28.1857 10.1035C28.5132 10.1035 28.7826 9.85938 28.7826 9.55736V5.78831C28.7826 5.48629 28.5173 5.24219 28.1899 5.24219" fill="url(#paint16_linear_1134_8124)"/>
<path d="M28.1857 5.24219H24.0569C23.7253 5.24219 23.46 5.48629 23.46 5.78831C23.46 6.09033 23.7294 6.33443 24.0569 6.33443H27.5888V9.55736C27.5888 9.85938 27.8582 10.1035 28.1857 10.1035C28.5132 10.1035 28.7826 9.85938 28.7826 9.55736V5.78831C28.7826 5.48629 28.5173 5.24219 28.1899 5.24219" fill="#E6EDED"/>
<defs>
<linearGradient id="paint0_linear_1134_8124" x1="23.8029" y1="30.5179" x2="24.0883" y2="31.9355" gradientUnits="userSpaceOnUse">
<stop offset="0.158241" stop-color="#003B40"/>
<stop offset="0.32869" stop-color="#005961"/>
<stop offset="0.509791" stop-color="#00818C"/>
<stop offset="0.685566" stop-color="#005961"/>
<stop offset="0.898627" stop-color="#003B40"/>
</linearGradient>
<linearGradient id="paint1_linear_1134_8124" x1="15.5803" y1="30.5179" x2="15.8656" y2="31.9355" gradientUnits="userSpaceOnUse">
<stop offset="0.158241" stop-color="#003B40"/>
<stop offset="0.32869" stop-color="#005961"/>
<stop offset="0.509791" stop-color="#00818C"/>
<stop offset="0.685566" stop-color="#005961"/>
<stop offset="0.898627" stop-color="#003B40"/>
</linearGradient>
<linearGradient id="paint2_linear_1134_8124" x1="7.35469" y1="30.5179" x2="7.64006" y2="31.9355" gradientUnits="userSpaceOnUse">
<stop offset="0.158241" stop-color="#003B40"/>
<stop offset="0.32869" stop-color="#005961"/>
<stop offset="0.509791" stop-color="#00818C"/>
<stop offset="0.685566" stop-color="#005961"/>
<stop offset="0.898627" stop-color="#003B40"/>
</linearGradient>
<linearGradient id="paint3_linear_1134_8124" x1="0.227242" y1="21.5723" x2="1.77732" y2="21.9632" gradientUnits="userSpaceOnUse">
<stop offset="0.158241" stop-color="#003B40"/>
<stop offset="0.32869" stop-color="#005961"/>
<stop offset="0.509791" stop-color="#00818C"/>
<stop offset="0.685566" stop-color="#005961"/>
<stop offset="0.898627" stop-color="#003B40"/>
</linearGradient>
<linearGradient id="paint4_linear_1134_8124" x1="0.227242" y1="6.5666" x2="1.77748" y2="6.95723" gradientUnits="userSpaceOnUse">
<stop offset="0.158241" stop-color="#003B40"/>
<stop offset="0.32869" stop-color="#005961"/>
<stop offset="0.509791" stop-color="#00818C"/>
<stop offset="0.685566" stop-color="#005961"/>
<stop offset="0.898627" stop-color="#003B40"/>
</linearGradient>
<linearGradient id="paint5_linear_1134_8124" x1="0.227242" y1="14.0669" x2="1.77732" y2="14.4578" gradientUnits="userSpaceOnUse">
<stop offset="0.158241" stop-color="#003B40"/>
<stop offset="0.32869" stop-color="#005961"/>
<stop offset="0.509791" stop-color="#00818C"/>
<stop offset="0.685566" stop-color="#005961"/>
<stop offset="0.898627" stop-color="#003B40"/>
</linearGradient>
<linearGradient id="paint6_linear_1134_8124" x1="7.35469" y1="0.174633" x2="7.64006" y2="1.59223" gradientUnits="userSpaceOnUse">
<stop offset="0.158241" stop-color="#003B40"/>
<stop offset="0.32869" stop-color="#005961"/>
<stop offset="0.509791" stop-color="#00818C"/>
<stop offset="0.685566" stop-color="#005961"/>
<stop offset="0.898627" stop-color="#003B40"/>
</linearGradient>
<linearGradient id="paint7_linear_1134_8124" x1="15.5803" y1="0.174633" x2="15.8656" y2="1.59223" gradientUnits="userSpaceOnUse">
<stop offset="0.158241" stop-color="#003B40"/>
<stop offset="0.32869" stop-color="#005961"/>
<stop offset="0.509791" stop-color="#00818C"/>
<stop offset="0.685566" stop-color="#005961"/>
<stop offset="0.898627" stop-color="#003B40"/>
</linearGradient>
<linearGradient id="paint8_linear_1134_8124" x1="23.8029" y1="0.174633" x2="24.0883" y2="1.59223" gradientUnits="userSpaceOnUse">
<stop offset="0.158241" stop-color="#003B40"/>
<stop offset="0.32869" stop-color="#005961"/>
<stop offset="0.509791" stop-color="#00818C"/>
<stop offset="0.685566" stop-color="#005961"/>
<stop offset="0.898627" stop-color="#003B40"/>
</linearGradient>
<linearGradient id="paint9_linear_1134_8124" x1="33.4792" y1="6.56593" x2="35.0293" y2="6.95686" gradientUnits="userSpaceOnUse">
<stop offset="0.158241" stop-color="#003B40"/>
<stop offset="0.32869" stop-color="#005961"/>
<stop offset="0.509791" stop-color="#00818C"/>
<stop offset="0.685566" stop-color="#005961"/>
<stop offset="0.898627" stop-color="#003B40"/>
</linearGradient>
<linearGradient id="paint10_linear_1134_8124" x1="33.4792" y1="14.0669" x2="35.0293" y2="14.4578" gradientUnits="userSpaceOnUse">
<stop offset="0.158241" stop-color="#003B40"/>
<stop offset="0.32869" stop-color="#005961"/>
<stop offset="0.509791" stop-color="#00818C"/>
<stop offset="0.685566" stop-color="#005961"/>
<stop offset="0.898627" stop-color="#003B40"/>
</linearGradient>
<linearGradient id="paint11_linear_1134_8124" x1="33.4792" y1="21.5684" x2="35.0293" y2="21.9593" gradientUnits="userSpaceOnUse">
<stop offset="0.158241" stop-color="#003B40"/>
<stop offset="0.32869" stop-color="#005961"/>
<stop offset="0.509791" stop-color="#00818C"/>
<stop offset="0.685566" stop-color="#005961"/>
<stop offset="0.898627" stop-color="#003B40"/>
</linearGradient>
<linearGradient id="paint12_linear_1134_8124" x1="6.70282" y1="6.01878" x2="9.96143" y2="9.67025" gradientUnits="userSpaceOnUse">
<stop offset="0.158241" stop-color="#003B40"/>
<stop offset="0.32869" stop-color="#005961"/>
<stop offset="0.509791" stop-color="#00818C"/>
<stop offset="0.685566" stop-color="#005961"/>
<stop offset="0.898627" stop-color="#003B40"/>
</linearGradient>
<linearGradient id="paint13_linear_1134_8124" x1="6.70282" y1="22.1093" x2="9.96452" y2="25.7611" gradientUnits="userSpaceOnUse">
<stop offset="0.158241" stop-color="#003B40"/>
<stop offset="0.32869" stop-color="#005961"/>
<stop offset="0.509791" stop-color="#00818C"/>
<stop offset="0.685566" stop-color="#005961"/>
<stop offset="0.898627" stop-color="#003B40"/>
</linearGradient>
<linearGradient id="paint14_linear_1134_8124" x1="24.4467" y1="22.1093" x2="27.7084" y2="25.7611" gradientUnits="userSpaceOnUse">
<stop offset="0.158241" stop-color="#003B40"/>
<stop offset="0.32869" stop-color="#005961"/>
<stop offset="0.509791" stop-color="#00818C"/>
<stop offset="0.685566" stop-color="#005961"/>
<stop offset="0.898627" stop-color="#003B40"/>
</linearGradient>
<linearGradient id="paint15_linear_1134_8124" x1="11.2698" y1="9.74147" x2="23.0545" y2="22.9608" gradientUnits="userSpaceOnUse">
<stop offset="0.158241" stop-color="#003B40"/>
<stop offset="0.32869" stop-color="#005961"/>
<stop offset="0.509791" stop-color="#00818C"/>
<stop offset="0.685566" stop-color="#005961"/>
<stop offset="0.898627" stop-color="#003B40"/>
</linearGradient>
<linearGradient id="paint16_linear_1134_8124" x1="24.4731" y1="6.01944" x2="27.7348" y2="9.67126" gradientUnits="userSpaceOnUse">
<stop offset="0.158241" stop-color="#003B40"/>
<stop offset="0.32869" stop-color="#005961"/>
<stop offset="0.509791" stop-color="#00818C"/>
<stop offset="0.685566" stop-color="#005961"/>
<stop offset="0.898627" stop-color="#003B40"/>
</linearGradient>
</defs>
</svg>
