<svg width="36" height="32" viewBox="0 0 36 32" fill="none" xmlns="http://www.w3.org/2000/svg">
<path d="M28.1984 30.3433H24.0862C23.7546 30.3433 23.4893 30.5874 23.4893 30.8894C23.4893 31.1914 23.7587 31.4355 24.0862 31.4355H28.1984C28.5301 31.4355 28.7954 31.1914 28.7954 30.8894C28.7954 30.5874 28.5259 30.3433 28.1984 30.3433Z" fill="url(#paint0_linear_850_3627)"/>
<path d="M28.1984 30.3433H24.0862C23.7546 30.3433 23.4893 30.5874 23.4893 30.8894C23.4893 31.1914 23.7587 31.4355 24.0862 31.4355H28.1984C28.5301 31.4355 28.7954 31.1914 28.7954 30.8894C28.7954 30.5874 28.5259 30.3433 28.1984 30.3433Z" fill="black" fill-opacity="0.2"/>
<path d="M19.9758 30.3433H15.8635C15.5319 30.3433 15.2666 30.5874 15.2666 30.8894C15.2666 31.1914 15.5319 31.4355 15.8635 31.4355H19.9758C20.3074 31.4355 20.5727 31.1914 20.5727 30.8894C20.5727 30.5915 20.3074 30.3433 19.9758 30.3433Z" fill="url(#paint1_linear_850_3627)"/>
<path d="M19.9758 30.3433H15.8635C15.5319 30.3433 15.2666 30.5874 15.2666 30.8894C15.2666 31.1914 15.5319 31.4355 15.8635 31.4355H19.9758C20.3074 31.4355 20.5727 31.1914 20.5727 30.8894C20.5727 30.5915 20.3074 30.3433 19.9758 30.3433Z" fill="black" fill-opacity="0.2"/>
<path d="M11.7502 30.3433H7.63795C7.30632 30.3433 7.04102 30.5874 7.04102 30.8894C7.04102 31.1914 7.30632 31.4355 7.63795 31.4355H11.7502C12.0818 31.4355 12.3471 31.1914 12.3471 30.8894C12.3471 30.5874 12.0818 30.3433 11.7543 30.3433" fill="url(#paint2_linear_850_3627)"/>
<path d="M11.7502 30.3433H7.63795C7.30632 30.3433 7.04102 30.5874 7.04102 30.8894C7.04102 31.1914 7.30632 31.4355 7.63795 31.4355H11.7502C12.0818 31.4355 12.3471 31.1914 12.3471 30.8894C12.3471 30.5874 12.0818 30.3433 11.7543 30.3433" fill="black" fill-opacity="0.2"/>
<path d="M1.29323 25.639C1.62486 25.639 1.89016 25.3949 1.89016 25.097V21.3445C1.89016 21.0425 1.62486 20.7984 1.29323 20.7984C0.961594 20.7984 0.696289 21.0425 0.696289 21.3445V25.097C0.696289 25.3949 0.961594 25.639 1.29323 25.639Z" fill="url(#paint3_linear_850_3627)"/>
<path d="M1.29323 25.639C1.62486 25.639 1.89016 25.3949 1.89016 25.097V21.3445C1.89016 21.0425 1.62486 20.7984 1.29323 20.7984C0.961594 20.7984 0.696289 21.0425 0.696289 21.3445V25.097C0.696289 25.3949 0.961594 25.639 1.29323 25.639Z" fill="black" fill-opacity="0.2"/>
<path d="M1.29323 10.6328C1.62486 10.6328 1.89016 10.3887 1.89016 10.0909V6.33836C1.89016 6.03633 1.62486 5.79224 1.29323 5.79224C0.961594 5.79224 0.696289 6.03633 0.696289 6.33836V10.0909C0.696289 10.3929 0.961594 10.637 1.29323 10.637" fill="url(#paint4_linear_850_3627)"/>
<path d="M1.29323 10.6328C1.62486 10.6328 1.89016 10.3887 1.89016 10.0909V6.33836C1.89016 6.03633 1.62486 5.79224 1.29323 5.79224C0.961594 5.79224 0.696289 6.03633 0.696289 6.33836V10.0909C0.696289 10.3929 0.961594 10.637 1.29323 10.637" fill="black" fill-opacity="0.2"/>
<path d="M1.29323 18.1338C1.62486 18.1338 1.89016 17.8897 1.89016 17.5918V13.8393C1.89016 13.5373 1.62486 13.2932 1.29323 13.2932C0.961594 13.2932 0.696289 13.5373 0.696289 13.8393V17.5918C0.696289 17.8939 0.961594 18.1338 1.29323 18.1338Z" fill="url(#paint5_linear_850_3627)"/>
<path d="M1.29323 18.1338C1.62486 18.1338 1.89016 17.8897 1.89016 17.5918V13.8393C1.89016 13.5373 1.62486 13.2932 1.29323 13.2932C0.961594 13.2932 0.696289 13.5373 0.696289 13.8393V17.5918C0.696289 17.8939 0.961594 18.1338 1.29323 18.1338Z" fill="black" fill-opacity="0.2"/>
<path d="M7.63795 1.0881H11.7502C12.0818 1.0881 12.3471 0.844003 12.3471 0.546119C12.3471 0.248236 12.0818 0 11.7502 0H7.63795C7.30632 0 7.04102 0.244099 7.04102 0.546119C7.04102 0.84814 7.31047 1.09224 7.63795 1.09224" fill="url(#paint6_linear_850_3627)"/>
<path d="M7.63795 1.0881H11.7502C12.0818 1.0881 12.3471 0.844003 12.3471 0.546119C12.3471 0.248236 12.0818 0 11.7502 0H7.63795C7.30632 0 7.04102 0.244099 7.04102 0.546119C7.04102 0.84814 7.31047 1.09224 7.63795 1.09224" fill="black" fill-opacity="0.2"/>
<path d="M15.8635 1.0881H19.9758C20.3074 1.0881 20.5727 0.844003 20.5727 0.546119C20.5727 0.248236 20.3032 0 19.9758 0H15.8635C15.5319 0 15.2666 0.244099 15.2666 0.546119C15.2666 0.84814 15.5319 1.09224 15.8635 1.09224" fill="url(#paint7_linear_850_3627)"/>
<path d="M15.8635 1.0881H19.9758C20.3074 1.0881 20.5727 0.844003 20.5727 0.546119C20.5727 0.248236 20.3032 0 19.9758 0H15.8635C15.5319 0 15.2666 0.244099 15.2666 0.546119C15.2666 0.84814 15.5319 1.09224 15.8635 1.09224" fill="black" fill-opacity="0.2"/>
<path d="M24.0862 1.0881H28.1984C28.5301 1.0881 28.7954 0.844003 28.7954 0.546119C28.7954 0.248236 28.5259 0 28.1984 0H24.0862C23.7546 0 23.4893 0.244099 23.4893 0.546119C23.4893 0.84814 23.7546 1.09224 24.0862 1.09224" fill="url(#paint8_linear_850_3627)"/>
<path d="M24.0862 1.0881H28.1984C28.5301 1.0881 28.7954 0.844003 28.7954 0.546119C28.7954 0.248236 28.5259 0 28.1984 0H24.0862C23.7546 0 23.4893 0.244099 23.4893 0.546119C23.4893 0.84814 23.7546 1.09224 24.0862 1.09224" fill="black" fill-opacity="0.2"/>
<path d="M34.5453 5.79224C34.2137 5.79224 33.9484 6.03634 33.9484 6.33836V10.0909C33.9484 10.3929 34.2178 10.6328 34.5453 10.6328C34.8728 10.6328 35.1422 10.3887 35.1422 10.0909V6.33836C35.1422 6.04047 34.8769 5.79637 34.5453 5.79637" fill="url(#paint9_linear_850_3627)"/>
<path d="M34.5453 5.79224C34.2137 5.79224 33.9484 6.03634 33.9484 6.33836V10.0909C33.9484 10.3929 34.2178 10.6328 34.5453 10.6328C34.8728 10.6328 35.1422 10.3887 35.1422 10.0909V6.33836C35.1422 6.04047 34.8769 5.79637 34.5453 5.79637" fill="black" fill-opacity="0.2"/>
<path d="M34.5453 13.2932C34.2137 13.2932 33.9484 13.5373 33.9484 13.8393V17.5918C33.9484 17.8939 34.2178 18.1338 34.5453 18.1338C34.8728 18.1338 35.1422 17.8897 35.1422 17.5918V13.8393C35.1422 13.5373 34.8769 13.2932 34.5453 13.2932Z" fill="url(#paint10_linear_850_3627)"/>
<path d="M34.5453 13.2932C34.2137 13.2932 33.9484 13.5373 33.9484 13.8393V17.5918C33.9484 17.8939 34.2178 18.1338 34.5453 18.1338C34.8728 18.1338 35.1422 17.8897 35.1422 17.5918V13.8393C35.1422 13.5373 34.8769 13.2932 34.5453 13.2932Z" fill="black" fill-opacity="0.2"/>
<path d="M34.5453 20.7944C34.2137 20.7944 33.9484 21.0385 33.9484 21.3406V25.0931C33.9484 25.3951 34.2178 25.635 34.5453 25.635C34.8728 25.635 35.1422 25.3909 35.1422 25.0931V21.3406C35.1422 21.0427 34.8769 20.7944 34.5453 20.7944Z" fill="url(#paint11_linear_850_3627)"/>
<path d="M34.5453 20.7944C34.2137 20.7944 33.9484 21.0385 33.9484 21.3406V25.0931C33.9484 25.3951 34.2178 25.635 34.5453 25.635C34.8728 25.635 35.1422 25.3909 35.1422 25.0931V21.3406C35.1422 21.0427 34.8769 20.7944 34.5453 20.7944Z" fill="black" fill-opacity="0.2"/>
<path d="M6.98286 10.0992C7.31449 10.0992 7.5798 9.85512 7.5798 9.55724V6.3343H11.1117C11.4433 6.3343 11.7086 6.09021 11.7086 5.78818C11.7086 5.48616 11.4433 5.24207 11.1117 5.24207H6.98286C6.65123 5.24207 6.38593 5.48616 6.38593 5.78818V9.55724C6.38593 9.85512 6.65123 10.0992 6.98286 10.0992Z" fill="url(#paint12_linear_850_3627)"/>
<path d="M6.98286 10.0992C7.31449 10.0992 7.5798 9.85512 7.5798 9.55724V6.3343H11.1117C11.4433 6.3343 11.7086 6.09021 11.7086 5.78818C11.7086 5.48616 11.4433 5.24207 11.1117 5.24207H6.98286C6.65123 5.24207 6.38593 5.48616 6.38593 5.78818V9.55724C6.38593 9.85512 6.65123 10.0992 6.98286 10.0992Z" fill="black" fill-opacity="0.2"/>
<path d="M11.7086 25.6429C11.7086 25.3409 11.4433 25.1009 11.1117 25.1009H7.5798V21.878C7.5798 21.5759 7.31449 21.3318 6.98286 21.3318C6.65123 21.3318 6.38593 21.5759 6.38593 21.878V25.647C6.38593 25.949 6.65123 26.1931 6.98286 26.1931H11.1117C11.4433 26.1931 11.7086 25.949 11.7086 25.647" fill="url(#paint13_linear_850_3627)"/>
<path d="M11.7086 25.6429C11.7086 25.3409 11.4433 25.1009 11.1117 25.1009H7.5798V21.878C7.5798 21.5759 7.31449 21.3318 6.98286 21.3318C6.65123 21.3318 6.38593 21.5759 6.38593 21.878V25.647C6.38593 25.949 6.65123 26.1931 6.98286 26.1931H11.1117C11.4433 26.1931 11.7086 25.949 11.7086 25.647" fill="black" fill-opacity="0.2"/>
<path d="M28.8556 21.3318C28.524 21.3318 28.2587 21.5759 28.2587 21.8779V25.1008H24.7268C24.3952 25.1008 24.1299 25.3449 24.1299 25.647C24.1299 25.949 24.3993 26.1931 24.7268 26.1931H28.8556C29.1873 26.1931 29.4526 25.949 29.4526 25.647V21.8779C29.4526 21.58 29.1831 21.3359 28.8556 21.3359" fill="url(#paint14_linear_850_3627)"/>
<path d="M28.8556 21.3318C28.524 21.3318 28.2587 21.5759 28.2587 21.8779V25.1008H24.7268C24.3952 25.1008 24.1299 25.3449 24.1299 25.647C24.1299 25.949 24.3993 26.1931 24.7268 26.1931H28.8556C29.1873 26.1931 29.4526 25.949 29.4526 25.647V21.8779C29.4526 21.58 29.1831 21.3359 28.8556 21.3359" fill="black" fill-opacity="0.2"/>
<path d="M14.9471 13.003H20.8874V18.4228H14.9471V13.003ZM27.3957 7.8604C27.6278 7.6494 27.6278 7.30601 27.3957 7.09087C27.1635 6.87987 26.7821 6.87987 26.55 7.09087L21.2646 11.9149H14.5988L9.31347 7.09087C9.08133 6.87987 8.7041 6.87987 8.47196 7.09087C8.23982 7.30187 8.23982 7.6494 8.47196 7.8604L13.7573 12.6845V18.7456L8.47196 23.5696C8.23982 23.7806 8.23982 24.1281 8.47196 24.3391C8.58803 24.4467 8.74141 24.5005 8.89479 24.5005C9.04817 24.5005 9.20155 24.4467 9.31762 24.3391L14.603 19.5151H21.2439L26.5293 24.3391C26.6453 24.4467 26.7987 24.5005 26.9521 24.5005C27.1055 24.5005 27.2589 24.4467 27.3749 24.3391C27.6071 24.1281 27.6071 23.7806 27.3749 23.5696L22.0896 18.7456V12.7093L27.3998 7.86454L27.3957 7.8604Z" fill="url(#paint15_linear_850_3627)"/>
<path d="M14.9471 13.003H20.8874V18.4228H14.9471V13.003ZM27.3957 7.8604C27.6278 7.6494 27.6278 7.30601 27.3957 7.09087C27.1635 6.87987 26.7821 6.87987 26.55 7.09087L21.2646 11.9149H14.5988L9.31347 7.09087C9.08133 6.87987 8.7041 6.87987 8.47196 7.09087C8.23982 7.30187 8.23982 7.6494 8.47196 7.8604L13.7573 12.6845V18.7456L8.47196 23.5696C8.23982 23.7806 8.23982 24.1281 8.47196 24.3391C8.58803 24.4467 8.74141 24.5005 8.89479 24.5005C9.04817 24.5005 9.20155 24.4467 9.31762 24.3391L14.603 19.5151H21.2439L26.5293 24.3391C26.6453 24.4467 26.7987 24.5005 26.9521 24.5005C27.1055 24.5005 27.2589 24.4467 27.3749 24.3391C27.6071 24.1281 27.6071 23.7806 27.3749 23.5696L22.0896 18.7456V12.7093L27.3998 7.86454L27.3957 7.8604Z" fill="black" fill-opacity="0.2"/>
<path d="M28.882 5.24219H24.7532C24.4216 5.24219 24.1562 5.48629 24.1562 5.78831C24.1562 6.09033 24.4257 6.33443 24.7532 6.33443H28.2851V9.55736C28.2851 9.85938 28.5545 10.1035 28.882 10.1035C29.2095 10.1035 29.4789 9.85938 29.4789 9.55736V5.78831C29.4789 5.48629 29.2136 5.24219 28.8861 5.24219" fill="url(#paint16_linear_850_3627)"/>
<path d="M28.882 5.24219H24.7532C24.4216 5.24219 24.1562 5.48629 24.1562 5.78831C24.1562 6.09033 24.4257 6.33443 24.7532 6.33443H28.2851V9.55736C28.2851 9.85938 28.5545 10.1035 28.882 10.1035C29.2095 10.1035 29.4789 9.85938 29.4789 9.55736V5.78831C29.4789 5.48629 29.2136 5.24219 28.8861 5.24219" fill="black" fill-opacity="0.2"/>
<defs>
<linearGradient id="paint0_linear_850_3627" x1="23.6607" y1="30.4273" x2="24.2039" y2="32.3815" gradientUnits="userSpaceOnUse">
<stop offset="0.03125" stop-color="#003B40"/>
<stop offset="0.265625" stop-color="#005961"/>
<stop offset="0.509791" stop-color="#00818C"/>
<stop offset="0.760417" stop-color="#005961"/>
<stop offset="0.994792" stop-color="#003B40"/>
</linearGradient>
<linearGradient id="paint1_linear_850_3627" x1="15.438" y1="30.4273" x2="15.9812" y2="32.3815" gradientUnits="userSpaceOnUse">
<stop offset="0.03125" stop-color="#003B40"/>
<stop offset="0.265625" stop-color="#005961"/>
<stop offset="0.509791" stop-color="#00818C"/>
<stop offset="0.760417" stop-color="#005961"/>
<stop offset="0.994792" stop-color="#003B40"/>
</linearGradient>
<linearGradient id="paint2_linear_850_3627" x1="7.21242" y1="30.4273" x2="7.75564" y2="32.3815" gradientUnits="userSpaceOnUse">
<stop offset="0.03125" stop-color="#003B40"/>
<stop offset="0.265625" stop-color="#005961"/>
<stop offset="0.509791" stop-color="#00818C"/>
<stop offset="0.760417" stop-color="#005961"/>
<stop offset="0.994792" stop-color="#003B40"/>
</linearGradient>
<linearGradient id="paint3_linear_850_3627" x1="0.734855" y1="21.1708" x2="2.38384" y2="21.4719" gradientUnits="userSpaceOnUse">
<stop offset="0.03125" stop-color="#003B40"/>
<stop offset="0.265625" stop-color="#005961"/>
<stop offset="0.509791" stop-color="#00818C"/>
<stop offset="0.760417" stop-color="#005961"/>
<stop offset="0.994792" stop-color="#003B40"/>
</linearGradient>
<linearGradient id="paint4_linear_850_3627" x1="0.734855" y1="6.16491" x2="2.38393" y2="6.46584" gradientUnits="userSpaceOnUse">
<stop offset="0.03125" stop-color="#003B40"/>
<stop offset="0.265625" stop-color="#005961"/>
<stop offset="0.509791" stop-color="#00818C"/>
<stop offset="0.760417" stop-color="#005961"/>
<stop offset="0.994792" stop-color="#003B40"/>
</linearGradient>
<linearGradient id="paint5_linear_850_3627" x1="0.734855" y1="13.6656" x2="2.38384" y2="13.9667" gradientUnits="userSpaceOnUse">
<stop offset="0.03125" stop-color="#003B40"/>
<stop offset="0.265625" stop-color="#005961"/>
<stop offset="0.509791" stop-color="#00818C"/>
<stop offset="0.760417" stop-color="#005961"/>
<stop offset="0.994792" stop-color="#003B40"/>
</linearGradient>
<linearGradient id="paint6_linear_850_3627" x1="7.21242" y1="0.0840184" x2="7.75563" y2="2.0382" gradientUnits="userSpaceOnUse">
<stop offset="0.03125" stop-color="#003B40"/>
<stop offset="0.265625" stop-color="#005961"/>
<stop offset="0.509791" stop-color="#00818C"/>
<stop offset="0.760417" stop-color="#005961"/>
<stop offset="0.994792" stop-color="#003B40"/>
</linearGradient>
<linearGradient id="paint7_linear_850_3627" x1="15.438" y1="0.0840184" x2="15.9812" y2="2.0382" gradientUnits="userSpaceOnUse">
<stop offset="0.03125" stop-color="#003B40"/>
<stop offset="0.265625" stop-color="#005961"/>
<stop offset="0.509791" stop-color="#00818C"/>
<stop offset="0.760417" stop-color="#005961"/>
<stop offset="0.994792" stop-color="#003B40"/>
</linearGradient>
<linearGradient id="paint8_linear_850_3627" x1="23.6607" y1="0.0840184" x2="24.2039" y2="2.0382" gradientUnits="userSpaceOnUse">
<stop offset="0.03125" stop-color="#003B40"/>
<stop offset="0.265625" stop-color="#005961"/>
<stop offset="0.509791" stop-color="#00818C"/>
<stop offset="0.760417" stop-color="#005961"/>
<stop offset="0.994792" stop-color="#003B40"/>
</linearGradient>
<linearGradient id="paint9_linear_850_3627" x1="33.9869" y1="6.16459" x2="35.6359" y2="6.46576" gradientUnits="userSpaceOnUse">
<stop offset="0.03125" stop-color="#003B40"/>
<stop offset="0.265625" stop-color="#005961"/>
<stop offset="0.509791" stop-color="#00818C"/>
<stop offset="0.760417" stop-color="#005961"/>
<stop offset="0.994792" stop-color="#003B40"/>
</linearGradient>
<linearGradient id="paint10_linear_850_3627" x1="33.9869" y1="13.6656" x2="35.6359" y2="13.9667" gradientUnits="userSpaceOnUse">
<stop offset="0.03125" stop-color="#003B40"/>
<stop offset="0.265625" stop-color="#005961"/>
<stop offset="0.509791" stop-color="#00818C"/>
<stop offset="0.760417" stop-color="#005961"/>
<stop offset="0.994792" stop-color="#003B40"/>
</linearGradient>
<linearGradient id="paint11_linear_850_3627" x1="33.9869" y1="21.1668" x2="35.6359" y2="21.468" gradientUnits="userSpaceOnUse">
<stop offset="0.03125" stop-color="#003B40"/>
<stop offset="0.265625" stop-color="#005961"/>
<stop offset="0.509791" stop-color="#00818C"/>
<stop offset="0.760417" stop-color="#005961"/>
<stop offset="0.994792" stop-color="#003B40"/>
</linearGradient>
<linearGradient id="paint12_linear_850_3627" x1="6.55787" y1="5.61569" x2="11.1384" y2="9.33278" gradientUnits="userSpaceOnUse">
<stop offset="0.03125" stop-color="#003B40"/>
<stop offset="0.265625" stop-color="#005961"/>
<stop offset="0.509791" stop-color="#00818C"/>
<stop offset="0.760417" stop-color="#005961"/>
<stop offset="0.994792" stop-color="#003B40"/>
</linearGradient>
<linearGradient id="paint13_linear_850_3627" x1="6.55787" y1="21.7058" x2="11.1415" y2="25.4222" gradientUnits="userSpaceOnUse">
<stop offset="0.03125" stop-color="#003B40"/>
<stop offset="0.265625" stop-color="#005961"/>
<stop offset="0.509791" stop-color="#00818C"/>
<stop offset="0.760417" stop-color="#005961"/>
<stop offset="0.994792" stop-color="#003B40"/>
</linearGradient>
<linearGradient id="paint14_linear_850_3627" x1="24.3018" y1="21.7057" x2="28.8855" y2="25.4222" gradientUnits="userSpaceOnUse">
<stop offset="0.03125" stop-color="#003B40"/>
<stop offset="0.265625" stop-color="#005961"/>
<stop offset="0.509791" stop-color="#00818C"/>
<stop offset="0.760417" stop-color="#005961"/>
<stop offset="0.994792" stop-color="#003B40"/>
</linearGradient>
<linearGradient id="paint15_linear_850_3627" x1="8.9204" y1="8.28399" x2="25.4914" y2="21.7454" gradientUnits="userSpaceOnUse">
<stop offset="0.03125" stop-color="#003B40"/>
<stop offset="0.265625" stop-color="#005961"/>
<stop offset="0.509791" stop-color="#00818C"/>
<stop offset="0.760417" stop-color="#005961"/>
<stop offset="0.994792" stop-color="#003B40"/>
</linearGradient>
<linearGradient id="paint16_linear_850_3627" x1="24.3282" y1="5.61613" x2="28.9118" y2="9.33256" gradientUnits="userSpaceOnUse">
<stop offset="0.03125" stop-color="#003B40"/>
<stop offset="0.265625" stop-color="#005961"/>
<stop offset="0.509791" stop-color="#00818C"/>
<stop offset="0.760417" stop-color="#005961"/>
<stop offset="0.994792" stop-color="#003B40"/>
</linearGradient>
</defs>
</svg>
