<svg width="44" height="41" viewBox="0 0 44 41" fill="none" xmlns="http://www.w3.org/2000/svg">
<g filter="url(#filter0_d_714_10325)">
<path d="M32.3117 30.9814H28.1995C27.8678 30.9814 27.6025 31.2255 27.6025 31.5276C27.6025 31.8296 27.872 32.0737 28.1995 32.0737H32.3117C32.6433 32.0737 32.9086 31.8296 32.9086 31.5276C32.9086 31.2255 32.6392 30.9814 32.3117 30.9814Z" fill="url(#paint0_linear_714_10325)"/>
<path d="M24.089 30.9814H19.9768C19.6452 30.9814 19.3799 31.2255 19.3799 31.5276C19.3799 31.8296 19.6452 32.0737 19.9768 32.0737H24.089C24.4207 32.0737 24.686 31.8296 24.686 31.5276C24.686 31.2297 24.4207 30.9814 24.089 30.9814Z" fill="url(#paint1_linear_714_10325)"/>
<path d="M15.8635 30.9814H11.7512C11.4196 30.9814 11.1543 31.2255 11.1543 31.5276C11.1543 31.8296 11.4196 32.0737 11.7512 32.0737H15.8635C16.1951 32.0737 16.4604 31.8296 16.4604 31.5276C16.4604 31.2255 16.1951 30.9814 15.8676 30.9814" fill="url(#paint2_linear_714_10325)"/>
<path d="M5.40651 26.2771C5.73814 26.2771 6.00344 26.033 6.00344 25.7351V21.9826C6.00344 21.6806 5.73814 21.4365 5.40651 21.4365C5.07488 21.4365 4.80957 21.6806 4.80957 21.9826V25.7351C4.80957 26.033 5.07488 26.2771 5.40651 26.2771Z" fill="url(#paint3_linear_714_10325)"/>
<path d="M5.40651 11.271C5.73814 11.271 6.00344 11.0269 6.00344 10.729V6.97654C6.00344 6.67452 5.73814 6.43042 5.40651 6.43042C5.07488 6.43042 4.80957 6.67452 4.80957 6.97654V10.729C4.80957 11.0311 5.07488 11.2752 5.40651 11.2752" fill="url(#paint4_linear_714_10325)"/>
<path d="M5.40651 18.772C5.73814 18.772 6.00344 18.5279 6.00344 18.23V14.4775C6.00344 14.1755 5.73814 13.9314 5.40651 13.9314C5.07488 13.9314 4.80957 14.1755 4.80957 14.4775V18.23C4.80957 18.532 5.07488 18.772 5.40651 18.772Z" fill="url(#paint5_linear_714_10325)"/>
<path d="M11.7512 1.72629H15.8635C16.1951 1.72629 16.4604 1.48219 16.4604 1.1843C16.4604 0.88642 16.1951 0.638184 15.8635 0.638184H11.7512C11.4196 0.638184 11.1543 0.882282 11.1543 1.1843C11.1543 1.48632 11.4237 1.73042 11.7512 1.73042" fill="url(#paint6_linear_714_10325)"/>
<path d="M19.9768 1.72629H24.089C24.4207 1.72629 24.686 1.48219 24.686 1.1843C24.686 0.88642 24.4165 0.638184 24.089 0.638184H19.9768C19.6452 0.638184 19.3799 0.882282 19.3799 1.1843C19.3799 1.48632 19.6452 1.73042 19.9768 1.73042" fill="url(#paint7_linear_714_10325)"/>
<path d="M28.1995 1.72629H32.3117C32.6433 1.72629 32.9086 1.48219 32.9086 1.1843C32.9086 0.88642 32.6392 0.638184 32.3117 0.638184H28.1995C27.8678 0.638184 27.6025 0.882282 27.6025 1.1843C27.6025 1.48632 27.8678 1.73042 28.1995 1.73042" fill="url(#paint8_linear_714_10325)"/>
<path d="M38.6585 6.43042C38.3268 6.43042 38.0615 6.67452 38.0615 6.97654V10.729C38.0615 11.0311 38.331 11.271 38.6585 11.271C38.9859 11.271 39.2554 11.0269 39.2554 10.729V6.97654C39.2554 6.67866 38.9901 6.43456 38.6585 6.43456" fill="url(#paint9_linear_714_10325)"/>
<path d="M38.6585 13.9314C38.3268 13.9314 38.0615 14.1755 38.0615 14.4775V18.23C38.0615 18.532 38.331 18.772 38.6585 18.772C38.9859 18.772 39.2554 18.5279 39.2554 18.23V14.4775C39.2554 14.1755 38.9901 13.9314 38.6585 13.9314Z" fill="url(#paint10_linear_714_10325)"/>
<path d="M38.6585 21.4326C38.3268 21.4326 38.0615 21.6767 38.0615 21.9787V25.7312C38.0615 26.0333 38.331 26.2732 38.6585 26.2732C38.9859 26.2732 39.2554 26.0291 39.2554 25.7312V21.9787C39.2554 21.6809 38.9901 21.4326 38.6585 21.4326Z" fill="url(#paint11_linear_714_10325)"/>
<path d="M11.096 10.7375C11.4276 10.7375 11.6929 10.4934 11.6929 10.1955V6.97261H15.2248C15.5564 6.97261 15.8217 6.72851 15.8217 6.42649C15.8217 6.12447 15.5564 5.88037 15.2248 5.88037H11.096C10.7643 5.88037 10.499 6.12447 10.499 6.42649V10.1955C10.499 10.4934 10.7643 10.7375 11.096 10.7375Z" fill="url(#paint12_linear_714_10325)"/>
<path d="M15.8217 26.281C15.8217 25.979 15.5564 25.739 15.2248 25.739H11.6929V22.5161C11.6929 22.2141 11.4276 21.97 11.096 21.97C10.7643 21.97 10.499 22.2141 10.499 22.5161V26.2851C10.499 26.5872 10.7643 26.8313 11.096 26.8313H15.2248C15.5564 26.8313 15.8217 26.5872 15.8217 26.2851" fill="url(#paint13_linear_714_10325)"/>
<path d="M32.9689 21.97C32.6373 21.97 32.372 22.2141 32.372 22.5161V25.739H28.8401C28.5085 25.739 28.2432 25.9831 28.2432 26.2851C28.2432 26.5872 28.5126 26.8313 28.8401 26.8313H32.9689C33.3005 26.8313 33.5658 26.5872 33.5658 26.2851V22.5161C33.5658 22.2182 33.2964 21.9741 32.9689 21.9741" fill="url(#paint14_linear_714_10325)"/>
<path d="M19.0603 13.6412H25.0007V19.061H19.0603V13.6412ZM31.5089 8.49858C31.7411 8.28758 31.7411 7.94419 31.5089 7.72905C31.2768 7.51805 30.8954 7.51805 30.6633 7.72905L25.3779 12.5531H18.7121L13.4268 7.72905C13.1946 7.51805 12.8174 7.51805 12.5852 7.72905C12.3531 7.94005 12.3531 8.28758 12.5852 8.49858L17.8706 13.3226V19.3837L12.5852 24.2078C12.3531 24.4188 12.3531 24.7663 12.5852 24.9773C12.7013 25.0849 12.8547 25.1387 13.0081 25.1387C13.1614 25.1387 13.3148 25.0849 13.4309 24.9773L18.7163 20.1533H25.3572L30.6426 24.9773C30.7586 25.0849 30.912 25.1387 31.0654 25.1387C31.2188 25.1387 31.3721 25.0849 31.4882 24.9773C31.7204 24.7663 31.7204 24.4188 31.4882 24.2078L26.2028 19.3837V13.3475L31.5131 8.50272L31.5089 8.49858Z" fill="url(#paint15_linear_714_10325)"/>
<path d="M32.9953 5.88037H28.8665C28.5348 5.88037 28.2695 6.12447 28.2695 6.42649C28.2695 6.72851 28.539 6.97261 28.8665 6.97261H32.3983V10.1955C32.3983 10.4976 32.6678 10.7417 32.9953 10.7417C33.3228 10.7417 33.5922 10.4976 33.5922 10.1955V6.42649C33.5922 6.12447 33.3269 5.88037 32.9994 5.88037" fill="url(#paint16_linear_714_10325)"/>
</g>
<defs>
<filter id="filter0_d_714_10325" x="0.80957" y="0.638184" width="42.4458" height="39.4355" filterUnits="userSpaceOnUse" color-interpolation-filters="sRGB">
<feFlood flood-opacity="0" result="BackgroundImageFix"/>
<feColorMatrix in="SourceAlpha" type="matrix" values="0 0 0 0 0 0 0 0 0 0 0 0 0 0 0 0 0 0 127 0" result="hardAlpha"/>
<feOffset dy="4"/>
<feGaussianBlur stdDeviation="2"/>
<feComposite in2="hardAlpha" operator="out"/>
<feColorMatrix type="matrix" values="0 0 0 0 0 0 0 0 0 0 0 0 0 0 0 0 0 0 0.25 0"/>
<feBlend mode="normal" in2="BackgroundImageFix" result="effect1_dropShadow_714_10325"/>
<feBlend mode="normal" in="SourceGraphic" in2="effect1_dropShadow_714_10325" result="shape"/>
</filter>
<linearGradient id="paint0_linear_714_10325" x1="27.6025" y1="31.0012" x2="31.6147" y2="33.7012" gradientUnits="userSpaceOnUse">
<stop offset="0.158241" stop-color="#002D31"/>
<stop offset="0.32869" stop-color="#005961"/>
<stop offset="0.509791" stop-color="#00818C"/>
<stop offset="0.786145" stop-color="#005961"/>
<stop offset="0.988044" stop-color="#002D31"/>
</linearGradient>
<linearGradient id="paint1_linear_714_10325" x1="19.3799" y1="31.0012" x2="23.3921" y2="33.7012" gradientUnits="userSpaceOnUse">
<stop offset="0.158241" stop-color="#002D31"/>
<stop offset="0.32869" stop-color="#005961"/>
<stop offset="0.509791" stop-color="#00818C"/>
<stop offset="0.786145" stop-color="#005961"/>
<stop offset="0.988044" stop-color="#002D31"/>
</linearGradient>
<linearGradient id="paint2_linear_714_10325" x1="11.1543" y1="31.0012" x2="15.1665" y2="33.7012" gradientUnits="userSpaceOnUse">
<stop offset="0.158241" stop-color="#002D31"/>
<stop offset="0.32869" stop-color="#005961"/>
<stop offset="0.509791" stop-color="#00818C"/>
<stop offset="0.786145" stop-color="#005961"/>
<stop offset="0.988044" stop-color="#002D31"/>
</linearGradient>
<linearGradient id="paint3_linear_714_10325" x1="4.80957" y1="21.524" x2="6.11962" y2="21.5688" gradientUnits="userSpaceOnUse">
<stop offset="0.158241" stop-color="#002D31"/>
<stop offset="0.32869" stop-color="#005961"/>
<stop offset="0.509791" stop-color="#00818C"/>
<stop offset="0.786145" stop-color="#005961"/>
<stop offset="0.988044" stop-color="#002D31"/>
</linearGradient>
<linearGradient id="paint4_linear_714_10325" x1="4.80957" y1="6.51801" x2="6.11962" y2="6.56273" gradientUnits="userSpaceOnUse">
<stop offset="0.158241" stop-color="#002D31"/>
<stop offset="0.32869" stop-color="#005961"/>
<stop offset="0.509791" stop-color="#00818C"/>
<stop offset="0.786145" stop-color="#005961"/>
<stop offset="0.988044" stop-color="#002D31"/>
</linearGradient>
<linearGradient id="paint5_linear_714_10325" x1="4.80957" y1="14.0189" x2="6.11962" y2="14.0637" gradientUnits="userSpaceOnUse">
<stop offset="0.158241" stop-color="#002D31"/>
<stop offset="0.32869" stop-color="#005961"/>
<stop offset="0.509791" stop-color="#00818C"/>
<stop offset="0.786145" stop-color="#005961"/>
<stop offset="0.988044" stop-color="#002D31"/>
</linearGradient>
<linearGradient id="paint6_linear_714_10325" x1="11.1543" y1="0.65793" x2="15.1665" y2="3.35799" gradientUnits="userSpaceOnUse">
<stop offset="0.158241" stop-color="#002D31"/>
<stop offset="0.32869" stop-color="#005961"/>
<stop offset="0.509791" stop-color="#00818C"/>
<stop offset="0.786145" stop-color="#005961"/>
<stop offset="0.988044" stop-color="#002D31"/>
</linearGradient>
<linearGradient id="paint7_linear_714_10325" x1="19.3799" y1="0.65793" x2="23.3921" y2="3.35799" gradientUnits="userSpaceOnUse">
<stop offset="0.158241" stop-color="#002D31"/>
<stop offset="0.32869" stop-color="#005961"/>
<stop offset="0.509791" stop-color="#00818C"/>
<stop offset="0.786145" stop-color="#005961"/>
<stop offset="0.988044" stop-color="#002D31"/>
</linearGradient>
<linearGradient id="paint8_linear_714_10325" x1="27.6025" y1="0.65793" x2="31.6147" y2="3.35799" gradientUnits="userSpaceOnUse">
<stop offset="0.158241" stop-color="#002D31"/>
<stop offset="0.32869" stop-color="#005961"/>
<stop offset="0.509791" stop-color="#00818C"/>
<stop offset="0.786145" stop-color="#005961"/>
<stop offset="0.988044" stop-color="#002D31"/>
</linearGradient>
<linearGradient id="paint9_linear_714_10325" x1="38.0615" y1="6.51793" x2="39.3716" y2="6.56269" gradientUnits="userSpaceOnUse">
<stop offset="0.158241" stop-color="#002D31"/>
<stop offset="0.32869" stop-color="#005961"/>
<stop offset="0.509791" stop-color="#00818C"/>
<stop offset="0.786145" stop-color="#005961"/>
<stop offset="0.988044" stop-color="#002D31"/>
</linearGradient>
<linearGradient id="paint10_linear_714_10325" x1="38.0615" y1="14.0189" x2="39.3716" y2="14.0637" gradientUnits="userSpaceOnUse">
<stop offset="0.158241" stop-color="#002D31"/>
<stop offset="0.32869" stop-color="#005961"/>
<stop offset="0.509791" stop-color="#00818C"/>
<stop offset="0.786145" stop-color="#005961"/>
<stop offset="0.988044" stop-color="#002D31"/>
</linearGradient>
<linearGradient id="paint11_linear_714_10325" x1="38.0615" y1="21.5201" x2="39.3716" y2="21.5649" gradientUnits="userSpaceOnUse">
<stop offset="0.158241" stop-color="#002D31"/>
<stop offset="0.32869" stop-color="#005961"/>
<stop offset="0.509791" stop-color="#00818C"/>
<stop offset="0.786145" stop-color="#005961"/>
<stop offset="0.988044" stop-color="#002D31"/>
</linearGradient>
<linearGradient id="paint12_linear_714_10325" x1="10.499" y1="5.96818" x2="16.2147" y2="6.83585" gradientUnits="userSpaceOnUse">
<stop offset="0.158241" stop-color="#002D31"/>
<stop offset="0.32869" stop-color="#005961"/>
<stop offset="0.509791" stop-color="#00818C"/>
<stop offset="0.786145" stop-color="#005961"/>
<stop offset="0.988044" stop-color="#002D31"/>
</linearGradient>
<linearGradient id="paint13_linear_714_10325" x1="10.499" y1="22.0579" x2="16.215" y2="22.9248" gradientUnits="userSpaceOnUse">
<stop offset="0.158241" stop-color="#002D31"/>
<stop offset="0.32869" stop-color="#005961"/>
<stop offset="0.509791" stop-color="#00818C"/>
<stop offset="0.786145" stop-color="#005961"/>
<stop offset="0.988044" stop-color="#002D31"/>
</linearGradient>
<linearGradient id="paint14_linear_714_10325" x1="28.2432" y1="22.0579" x2="33.9591" y2="22.9248" gradientUnits="userSpaceOnUse">
<stop offset="0.158241" stop-color="#002D31"/>
<stop offset="0.32869" stop-color="#005961"/>
<stop offset="0.509791" stop-color="#00818C"/>
<stop offset="0.786145" stop-color="#005961"/>
<stop offset="0.988044" stop-color="#002D31"/>
</linearGradient>
<linearGradient id="paint15_linear_714_10325" x1="12.4111" y1="7.88841" x2="33.1052" y2="11.0332" gradientUnits="userSpaceOnUse">
<stop offset="0.158241" stop-color="#002D31"/>
<stop offset="0.32869" stop-color="#005961"/>
<stop offset="0.509791" stop-color="#00818C"/>
<stop offset="0.786145" stop-color="#005961"/>
<stop offset="0.988044" stop-color="#002D31"/>
</linearGradient>
<linearGradient id="paint16_linear_714_10325" x1="28.2695" y1="5.96826" x2="33.9855" y2="6.83522" gradientUnits="userSpaceOnUse">
<stop offset="0.158241" stop-color="#002D31"/>
<stop offset="0.32869" stop-color="#005961"/>
<stop offset="0.509791" stop-color="#00818C"/>
<stop offset="0.786145" stop-color="#005961"/>
<stop offset="0.988044" stop-color="#002D31"/>
</linearGradient>
</defs>
</svg>
