<svg width="43" height="43" viewBox="0 0 43 43" fill="none" xmlns="http://www.w3.org/2000/svg">
<path d="M20.7103 6.97012V19.5429C20.7103 20.2042 20.1752 20.7408 19.5145 20.7408C18.8539 20.7408 18.3188 20.2042 18.3188 19.5429V18.358H18.3203V6.95008C18.3203 4.43322 16.2837 2.39275 13.7712 2.39275H3.07843C2.69498 2.39275 2.3839 2.70418 2.3839 3.08884V13.8015C2.3839 16.3183 4.42052 18.3588 6.93298 18.3588H14.1801C14.3857 18.3588 14.552 18.1923 14.552 17.9865V6.94622C14.552 6.51685 14.2039 6.16842 13.7751 6.16842H6.52489C6.3193 6.16842 6.15221 6.3357 6.15221 6.54152V13.8046C6.15221 14.2347 6.50025 14.5824 6.92913 14.5824H11.9718C12.6293 14.5824 13.1622 15.1166 13.1622 15.7749C13.1622 16.4332 12.6293 16.9674 11.9718 16.9674H6.93452C5.18819 16.9674 3.77219 15.549 3.77219 13.7992V4.15571C3.77219 3.94989 3.93851 3.78338 4.14409 3.78338H13.7697C15.516 3.78338 16.932 5.20177 16.932 6.95162V14.577H16.9335V20.0493C16.9335 20.4309 16.6248 20.74 16.2444 20.74H6.96455C3.12232 20.74 0.00695801 17.6196 0.00695801 13.7699V0.696087C0.00695801 0.312198 0.318034 0 0.701486 0H13.7527C17.5957 0 20.7103 3.12044 20.7103 6.97012Z" fill="#0A3138"/>
<path d="M22.097 6.98236V19.5551C22.097 20.2165 22.6322 20.753 23.2928 20.753C23.9535 20.753 24.4886 20.2165 24.4886 19.5551V18.3703H24.4871V6.96232C24.4871 4.44546 26.5237 2.405 29.0362 2.405H39.7289C40.1124 2.405 40.4235 2.71642 40.4235 3.10108V13.8137C40.4235 16.3306 38.3869 18.3711 35.8744 18.3711H28.6273C28.4217 18.3711 28.2554 18.2045 28.2554 17.9987V6.95847C28.2554 6.5291 28.6034 6.18067 29.0323 6.18067H36.2825C36.4881 6.18067 36.6552 6.34795 36.6552 6.55377V13.8168C36.6552 14.247 36.3071 14.5946 35.8782 14.5946H30.8356C30.178 14.5946 29.6452 15.1288 29.6452 15.7871C29.6452 16.4454 30.178 16.9797 30.8356 16.9797H35.8729C37.6192 16.9797 39.0352 15.5613 39.0352 13.8114V4.16795C39.0352 3.96213 38.8689 3.79563 38.6633 3.79563H29.0377C27.2914 3.79563 25.8754 5.21401 25.8754 6.96386V14.5892H25.8738V20.0616C25.8738 20.4431 26.1826 20.7522 26.563 20.7522H35.8428C39.6851 20.7522 42.8004 17.6318 42.8004 13.7821V0.707561C42.8004 0.323673 42.4893 0.0114746 42.1059 0.0114746H29.0546C25.2116 0.0114746 22.097 3.13192 22.097 6.98159V6.98236Z" fill="#0A3138"/>
<path d="M25.6668 21.9615C25.9365 21.6993 25.9428 21.2679 25.6809 20.9979C25.419 20.7279 24.9881 20.7216 24.7184 20.9838C24.4487 21.2459 24.4424 21.6774 24.7043 21.9474C24.9662 22.2174 25.3971 22.2237 25.6668 21.9615Z" fill="#0A3138"/>
<path d="M18.2176 21.9617C18.4873 21.6995 18.4936 21.2681 18.2317 20.9981C17.9698 20.7281 17.5389 20.7218 17.2692 20.984C16.9995 21.2462 16.9932 21.6776 17.2551 21.9476C17.517 22.2176 17.9479 22.2239 18.2176 21.9617Z" fill="#0A3138"/>
<path d="M20.7103 35.9245V23.3517C20.7103 22.6903 20.1752 22.1538 19.5145 22.1538C18.8539 22.1538 18.3188 22.6903 18.3188 23.3517V24.5365H18.3203V35.9445C18.3203 38.4614 16.2837 40.5018 13.7712 40.5018H3.07843C2.69498 40.5018 2.3839 40.1904 2.3839 39.8057V29.0931C2.3839 26.5762 4.42052 24.5358 6.93298 24.5358H14.1801C14.3857 24.5358 14.552 24.7023 14.552 24.9081V35.9476C14.552 36.3769 14.2039 36.7254 13.7751 36.7254H6.52489C6.3193 36.7254 6.15221 36.5581 6.15221 36.3523V29.0892C6.15221 28.6591 6.50025 28.3114 6.92913 28.3114H11.9718C12.6293 28.3114 13.1622 27.7772 13.1622 27.1189C13.1622 26.4606 12.6293 25.9264 11.9718 25.9264H6.93452C5.18819 25.9264 3.77219 27.3448 3.77219 29.0946V38.7381C3.77219 38.9439 3.93851 39.1104 4.14409 39.1104H13.7697C15.516 39.1104 16.932 37.692 16.932 35.9422V28.3168H16.9335V22.8445C16.9335 22.4629 16.6248 22.1538 16.2444 22.1538H6.96455C3.12232 22.1538 0.00695801 25.2742 0.00695801 29.1239V42.1993C0.00695801 42.5831 0.318034 42.8953 0.701486 42.8953H13.7527C17.5957 42.8953 20.7103 39.7749 20.7103 35.9252V35.9245Z" fill="#0A3138"/>
<path d="M22.0994 35.9122V23.3395C22.0994 22.6781 22.6345 22.1416 23.2952 22.1416C23.9558 22.1416 24.4909 22.6781 24.4909 23.3395V24.5243H24.4894V35.9323C24.4894 38.4491 26.526 40.4896 29.0385 40.4896H39.7313C40.1147 40.4896 40.4258 40.1782 40.4258 39.7935V29.0809C40.4258 26.564 38.3892 24.5236 35.8767 24.5236H28.6296C28.424 24.5236 28.2577 24.6901 28.2577 24.8959V35.9354C28.2577 36.3647 28.6057 36.7132 29.0346 36.7132H36.2848C36.4904 36.7132 36.6575 36.5459 36.6575 36.3401V29.077C36.6575 28.6469 36.3095 28.2992 35.8806 28.2992H30.8379C30.1804 28.2992 29.6475 27.765 29.6475 27.1067C29.6475 26.4484 30.1804 25.9142 30.8379 25.9142H35.8752C37.6215 25.9142 39.0375 27.3326 39.0375 29.0824V38.7259C39.0375 38.9317 38.8712 39.0982 38.6656 39.0982H29.04C27.2937 39.0982 25.8777 37.6798 25.8777 35.93V28.3046H25.8761V22.8323C25.8761 22.4507 26.1849 22.1416 26.5653 22.1416H35.8451C39.6874 22.1416 42.8027 25.262 42.8027 29.1117V42.187C42.8027 42.5709 42.4917 42.8831 42.1082 42.8831H29.057C25.214 42.8831 22.0994 39.7627 22.0994 35.913V35.9122Z" fill="#0A3138"/>
</svg>
