<svg width="103" height="53" viewBox="0 0 103 53" fill="none" xmlns="http://www.w3.org/2000/svg">
<g clip-path="url(#clip0_1714_12878)">
<path d="M84.8985 11.2102H87.0039L93.2897 25.6774C93.2171 26.0025 93.2534 25.8219 93.0719 26.6889L92.9994 27.014L92.9631 27.3391L92.8904 27.6642L92.4912 29.2175C92.0193 31.2042 91.3296 32.619 90.8577 32.5468C90.7488 32.5468 90.6399 32.4023 90.6399 32.2578V31.8243C90.6036 30.9213 89.9865 30.3433 89.0427 30.3433C88.2078 30.3433 87.4818 31.1019 87.4818 31.9688C87.4818 33.0525 88.2804 33.8111 89.442 33.8111C91.2207 33.8111 92.3157 32.4023 93.078 29.0368L93.441 27.4836C93.7314 26.1109 93.9855 25.2379 94.3122 24.4432L98.8194 13.4799C99.5091 11.8905 99.4365 12.035 99.5454 11.8544C99.872 11.4209 100.344 11.2041 100.925 11.2041H102.05V10.5901H95.0382V11.2041H96.4902C97.7606 11.2041 98.4866 11.4931 98.4866 12.0711C98.4866 12.5407 98.2325 13.4438 97.7606 14.5696L94.8506 21.6979L90.3071 11.2102H92.8904V10.5961H84.8925V11.2102H84.8985ZM82.8536 22.2457C82.2728 23.6184 81.4743 24.3108 80.4216 24.3108C79.26 24.3108 78.8244 23.7328 78.8244 22.2457V11.2102H83.4405V10.5961H78.8244V5.74957H78.3162V6.00243C78.3162 6.83326 77.6991 8.24206 76.9731 9.2234C76.2834 10.1626 75.3033 10.5961 73.809 10.5961H72.8652V11.2102H75.8478V21.6979C75.8478 23.7569 77.2635 24.9911 79.6653 24.9911C81.5529 24.9911 82.6479 24.2325 83.4465 22.3842L82.8657 22.2397L82.8536 22.2457ZM61.1163 15.5208C61.1889 13.5341 61.2615 12.914 61.5156 12.2999C62.0238 10.9994 63.2216 10.3131 64.8975 10.3131C67.3658 10.3131 68.2794 11.6135 68.2794 15.1596C68.2794 15.4847 68.2068 15.5208 67.7349 15.5208H61.1223H61.1163ZM71.4737 19.681C70.3848 22.9742 68.3822 24.4914 65.2242 24.4914C63.6996 24.4914 62.532 23.9857 61.806 23.0465C61.2252 22.2517 61.0437 21.2764 61.0437 18.8502C61.0437 18.4889 61.0437 18.0916 61.1163 16.1349H71.3285C71.6552 16.1349 71.7641 16.0988 71.7641 15.9182C71.7278 15.1596 70.8566 13.3113 70.1307 12.4082C68.7876 10.7827 66.8214 9.80137 64.9338 9.80137C61.1889 9.80137 57.7344 13.5642 57.7344 17.6521C57.7344 21.74 61.1889 25.0693 65.3331 25.0693C68.6787 25.0693 71.2559 23.0465 72.0545 19.7894L71.4737 19.681ZM52.1019 0C51.1581 0 50.3958 0.758582 50.3958 1.69778C50.3958 2.63698 51.1581 3.35944 52.1019 3.35944C53.0457 3.35944 53.7717 2.60085 53.7717 1.69778C53.7717 0.794705 53.0094 0 52.1019 0ZM50.5773 11.2102V23.9796H47.7762V24.5937H56.3187V23.9796H53.5176V9.51238C53.0457 10.3793 52.6101 10.5961 51.267 10.5961H47.8125V11.2102H50.5773ZM46.0096 19.7111C45.4288 22.7876 43.3174 24.5215 40.1957 24.5215C37.0739 24.5215 35.8337 23.0043 35.8337 18.6274V17.0019C35.8337 11.9748 36.9227 10.4937 40.5587 10.4937C42.4462 10.4937 43.4687 10.8188 43.4687 11.3607C43.4687 11.5052 43.4324 11.6135 43.3598 11.6858C42.7427 12.2999 42.5975 12.625 42.5975 13.2029C42.5975 14.106 43.3598 14.8646 44.1947 14.8646C45.1021 14.8646 45.7918 14.1421 45.7918 13.2391C45.7918 11.3607 43.5776 9.94586 40.6676 9.94586C36.3419 9.94586 32.4881 13.8893 32.4881 18.3023C32.4881 22.0651 35.9789 25.0693 40.3772 25.0693C43.7591 25.0693 46.0822 23.0103 46.5178 19.7171H46.0096V19.7111ZM26.3353 20.0001C26.3353 23.3294 25.1737 24.5215 21.9007 24.5215C18.6277 24.5215 17.3209 23.1488 17.3209 19.9278V14.9007C17.3209 11.7881 18.8092 10.3432 22.0096 10.3432C23.4616 10.3432 24.6655 10.7767 25.4641 11.5353C26.1901 12.2577 26.3353 12.8718 26.3353 14.973V20.0001ZM22.0096 9.83749C18.0469 9.83749 13.939 13.6725 13.939 17.3992C13.939 21.3427 17.7565 25.0332 21.8281 25.0332C25.8997 25.0332 29.6809 21.4871 29.6809 17.3631C29.6809 13.4558 25.9723 9.83749 22.0096 9.83749ZM0 19.5305V24.7382H0.471894V24.4854C0.471894 23.8713 0.617092 23.5462 0.943787 23.5462C1.16158 23.5462 1.52458 23.6906 1.92387 23.9074C3.19436 24.7021 4.32569 25.0272 5.63247 25.0272C8.97808 25.0272 11.3012 22.8959 11.3012 19.8195C11.3012 17.1403 9.81297 15.5509 7.30225 15.5509H4.97908C2.65591 15.5509 1.23418 14.6479 1.23418 13.0886C1.23418 11.4269 2.72246 10.3011 4.97908 10.3011C7.7802 10.3011 9.37737 11.5654 9.70407 14.0639H10.2486L10.1034 9.86759H9.55887V10.4094C9.55887 10.7345 9.44997 10.9513 9.26847 10.9513C9.23218 10.9513 9.15958 10.9152 9.05068 10.879C7.6713 10.1566 6.39476 9.79535 5.12428 9.79535C2.10537 9.80137 0.145198 11.6135 0.145198 14.395C0.145198 16.749 1.66978 18.3746 3.8538 18.3746H6.36451C8.61508 18.3746 9.81902 19.3499 9.81902 21.162C9.81902 23.1849 8.29444 24.4914 5.85632 24.4914C3.05521 24.4914 0.986137 22.5769 0.477944 19.5365H0.00604992L0 19.5305Z" fill="black"/>
<path d="M52.114 3.72067C53.1485 3.72067 53.9834 2.88984 53.9834 1.86033C53.9834 0.830828 53.1485 0 52.114 0C51.0795 0 50.2446 0.830828 50.2446 1.86033C50.2446 2.88984 51.0795 3.72067 52.114 3.72067Z" fill="#A72142"/>
<path d="M76.5012 33.0765C76.5436 31.8363 76.592 31.451 76.7493 31.0717C77.0639 30.2589 77.8141 29.8314 78.8547 29.8314C80.3974 29.8314 80.96 30.6442 80.96 32.8537C80.96 33.0584 80.9177 33.0825 80.6212 33.0825H76.5012V33.0765ZM82.9565 35.6653C82.2789 37.7183 81.0326 38.6635 79.0603 38.6635C78.1105 38.6635 77.3845 38.3504 76.9308 37.7604C76.5678 37.2668 76.4528 36.6587 76.4528 35.1475C76.4528 34.9248 76.4528 34.6719 76.5012 33.4558H82.8657C83.0714 33.4558 83.138 33.4317 83.138 33.3173C83.1138 32.8417 82.5754 31.6978 82.1216 31.1319C81.2807 30.1204 80.0586 29.5063 78.8849 29.5063C76.5557 29.5063 74.4019 31.8483 74.4019 34.395C74.4019 36.9416 76.5557 39.0127 79.133 39.0127C81.2141 39.0127 82.8234 37.7484 83.3255 35.7255L82.9626 35.6593L82.9565 35.6653ZM65.6537 35.575V38.82H65.9502V38.6635C65.9502 38.2782 66.0409 38.0795 66.2466 38.0795C66.3797 38.0795 66.6096 38.1698 66.8577 38.3023C67.6502 38.796 68.352 39.0007 69.1687 39.0007C71.2499 39.0007 72.7019 37.6701 72.7019 35.7556C72.7019 34.0879 71.7763 33.0946 70.2093 33.0946H68.7573C67.3054 33.0946 66.4221 32.5286 66.4221 31.5653C66.4221 30.5298 67.3538 29.8314 68.7573 29.8314C70.4997 29.8314 71.498 30.6201 71.7036 32.1734H72.0424L71.9517 29.5605H71.6129V29.8977C71.6129 30.1024 71.5464 30.2348 71.4314 30.2348C71.4072 30.2348 71.3649 30.2107 71.2983 30.1927C70.4392 29.7411 69.6467 29.5184 68.8541 29.5184C66.9726 29.5184 65.7505 30.6442 65.7505 32.3781C65.7505 33.8411 66.7004 34.8586 68.0616 34.8586H69.6225C71.0261 34.8586 71.7762 35.4666 71.7762 36.5925C71.7762 37.8568 70.8264 38.6635 69.3079 38.6635C67.5655 38.6635 66.2708 37.4715 65.9562 35.575H65.6598H65.6537ZM62.3989 38.3444V29.422C62.0117 29.8977 61.7878 30.006 61.3341 30.006H58.8415V30.3914H60.5839V35.2138C60.5839 36.9958 58.9323 38.6153 57.1173 38.6153C56.0041 38.6153 55.5746 38.0976 55.5746 36.7249V29.422C55.2358 29.9157 55.0785 30.006 54.4432 30.006H51.9749V30.3914H53.7172V36.0506C53.7172 37.1102 53.8503 37.5798 54.3283 38.0795C54.9151 38.6876 55.8226 39.0247 56.9358 39.0247C58.6782 39.0247 59.8337 38.2601 60.5839 36.6346V38.7297H64.1171V38.3444H62.3989ZM49.2101 35.864C49.2101 37.935 48.4841 38.6816 46.4452 38.6816C44.4064 38.6816 43.5897 37.8267 43.5897 35.8218V32.6912C43.5897 30.7526 44.5214 29.8495 46.5118 29.8495C47.4193 29.8495 48.1634 30.1204 48.6656 30.59C49.1193 31.0416 49.2101 31.4269 49.2101 32.7333V35.864ZM46.5178 29.5304C44.0495 29.5304 41.4904 31.9206 41.4904 34.2384C41.4904 36.6948 43.868 38.9946 46.4029 38.9946C48.9378 38.9946 51.2973 36.7851 51.2973 34.2204C51.2973 31.7881 48.9862 29.5304 46.5178 29.5304ZM32.2521 22.9019C31.9799 23.4196 31.6653 23.5581 30.8486 23.5581H28.6766V23.9434H30.419V38.3444H28.6766V38.7297H33.9764V38.3444H32.2582V32.5527C32.8692 31.0175 34.2305 29.9579 35.5856 29.9579C36.5597 29.9579 37.2191 30.59 37.2191 31.5352V38.3384H35.4283V38.7237H40.8188V38.3384H39.0764V32.932C39.0764 31.4871 38.9857 31.0416 38.5804 30.5659C38.0117 29.9579 37.086 29.5966 36.0212 29.5966C34.2789 29.5966 33.1657 30.2288 32.2642 31.7399V22.9079L32.2521 22.9019Z" fill="black"/>
<path d="M62.5017 51.066C62.9312 51.066 63.2821 50.7168 63.2821 50.2893C63.2821 49.8619 62.9312 49.5127 62.5017 49.5127C62.0721 49.5127 61.7213 49.8619 61.7213 50.2893C61.7213 50.7168 62.0721 51.066 62.5017 51.066Z" fill="#A72142"/>
<path d="M90.2043 52.1013H90.5915V48.6636H90.2043V52.1013ZM84.7835 51.1982L85.5761 49.4282L86.3686 51.1982H84.7835ZM86.774 52.1013H87.1975L85.6003 48.6094H85.5579L83.9608 52.1013H84.3843L84.6384 51.5353H86.5259L86.78 52.1013H86.774ZM80.1433 51.722H79.2842V50.4276H80.1251C80.5789 50.4276 80.8874 50.7045 80.8874 51.0296C80.8874 51.427 80.5365 51.728 80.1433 51.728M79.8589 49.0429C80.1856 49.0429 80.4639 49.2716 80.4639 49.5666C80.4639 49.8616 80.234 50.0844 79.8589 50.0844H79.2842V49.0429H79.8589ZM80.3792 50.1687C80.5547 50.1687 80.8269 49.8978 80.8269 49.5245C80.8269 49.073 80.4095 48.6696 79.8347 48.6696H78.8909V52.1073H80.1735C80.833 52.1073 81.2685 51.6016 81.2685 51.0597C81.2685 50.5179 80.8269 50.1747 80.3853 50.1747M74.3353 52.1675C75.0734 52.1675 75.6179 51.5775 75.6179 50.7768V48.6756H75.2247V50.7768C75.2247 51.3547 74.8496 51.7762 74.3353 51.7762C73.8211 51.7762 73.446 51.3547 73.446 50.7768V48.6756H73.0528V50.7768C73.0528 51.5775 73.5972 52.1675 74.3353 52.1675ZM68.1947 51.728H67.6199V49.0609H68.1886C69.0235 49.0609 69.562 49.5847 69.562 50.3975C69.562 51.2102 69.0296 51.728 68.1947 51.728ZM68.1947 48.6756H67.2327V52.1193H68.1947C69.2716 52.1193 69.9552 51.4511 69.9552 50.4035C69.9552 49.3559 69.2655 48.6816 68.1947 48.6816M56.9116 48.6756V51.2464L54.5461 48.6274H54.5219V52.1253H54.9151V49.5546L57.2867 52.1735H57.3048V48.6696H56.9116V48.6756ZM48.5324 52.1434H48.5929L49.4883 49.8616L50.3837 52.1434H50.4442L51.515 48.6816H51.0915L50.3414 51.1922L49.5004 48.9586H49.4702L48.6232 51.1922L47.873 48.6816H47.4555L48.5264 52.1434H48.5324ZM43.0875 51.7762C42.3313 51.7762 41.7081 51.1621 41.7081 50.4035C41.7081 49.6449 42.3252 49.0248 43.0875 49.0248C43.8498 49.0248 44.4729 49.6449 44.4729 50.4035C44.4729 51.1621 43.8498 51.7762 43.0875 51.7762ZM43.0875 52.1675C44.0676 52.1675 44.8662 51.3728 44.8662 50.4035C44.8662 49.4342 44.0676 48.6335 43.0875 48.6335C42.1074 48.6335 41.3149 49.4282 41.3149 50.4035C41.3149 51.3788 42.1135 52.1675 43.0875 52.1675ZM38.6045 48.6816H36.2087V49.0669H37.213V52.1193H37.6063V49.0669H38.6106V48.6816H38.6045ZM32.7542 48.6696V51.2403L30.3887 48.6214H30.3645V52.1193H30.7578V49.5486L33.1293 52.1675H33.1475V48.6636H32.7542V48.6696ZM24.3751 52.1374H24.4356L25.331 49.8556L26.2264 52.1374H26.2869L27.3577 48.6756H26.9403L26.1901 51.1861L25.3491 48.9525H25.3189L24.4719 51.1861L23.7217 48.6756H23.3043L24.3751 52.1374ZM18.9302 51.7701C18.1739 51.7701 17.5508 51.156 17.5508 50.3975C17.5508 49.6389 18.1679 49.0188 18.9302 49.0188C19.6925 49.0188 20.3156 49.6389 20.3156 50.3975C20.3156 51.156 19.6925 51.7701 18.9302 51.7701ZM18.9302 52.1615C19.9103 52.1615 20.7089 51.3668 20.7089 50.3975C20.7089 49.4282 19.9103 48.6274 18.9302 48.6274C17.9501 48.6274 17.1576 49.4221 17.1576 50.3975C17.1576 51.3728 17.9561 52.1615 18.9302 52.1615ZM12.4447 51.728H11.8699V49.0609H12.4386C13.2735 49.0609 13.8119 49.5847 13.8119 50.3975C13.8119 51.2102 13.2796 51.728 12.4447 51.728ZM12.4447 48.6756H11.4827V52.1193H12.4447C13.5215 52.1193 14.2052 51.4511 14.2052 50.4035C14.2052 49.3559 13.5215 48.6816 12.4447 48.6816" fill="black"/>
</g>
<defs>
<clipPath id="clip0_1714_12878">
<rect width="102.056" height="52.1495" fill="white"/>
</clipPath>
</defs>
</svg>
