<svg width="46" height="45" viewBox="0 0 46 45" fill="none" xmlns="http://www.w3.org/2000/svg">
<path d="M46 10.6439H42.1223C42.1364 10.4144 42.1438 10.1864 42.1438 9.95996C42.1438 4.46803 37.5958 0 32.0057 0C26.4156 0 21.8676 4.46803 21.8676 9.95996C21.8676 10.1867 21.875 10.4147 21.8889 10.6439H15.8713V10.6676C14.0795 10.6791 12.3975 11.3867 11.1311 12.6649L1.98138 21.8993C0.754038 23.138 0.0608599 24.7698 0.0137753 26.5116C0.0056192 26.6265 0 45 0 45H46V10.6439ZM44.5653 12.0534V43.5905H1.4347L1.59937 26.0602C1.6267 25.6421 1.8629 25.1624 2.05949 24.8771C2.68109 23.9923 3.70652 23.4173 4.86115 23.4173H12.6433V15.5441C12.6433 13.9774 13.6786 12.6506 15.0868 12.222C15.1604 12.1996 22.0645 12.0534 22.0645 12.0534C22.585 14.9604 24.1412 17.9503 26.7121 21.0894C29.0758 23.9756 31.4073 25.849 31.5054 25.927L31.9489 26.283L32.3987 25.9391C32.498 25.8629 34.8562 24.0412 37.2465 21.1768C39.8239 18.0882 41.4228 14.9749 41.95 12.0534H44.5653ZM32.0057 1.40948C36.8048 1.40948 40.7091 5.24521 40.7091 9.95996C40.7091 16.673 33.8113 22.9137 31.9648 24.4635C30.1374 22.88 23.3024 16.517 23.3024 9.95996C23.3024 5.24521 27.2066 1.40948 32.0057 1.40948ZM11.3219 14.4931C11.2485 14.8319 11.2086 15.1832 11.2086 15.5441V22.0078H4.86115C4.49017 22.0078 4.12865 22.0368 3.78132 22.1165L11.3219 14.4931Z" fill="url(#paint0_linear_1419_11813)"/>
<path d="M11.2086 28.539V41.1028L27.618 41.0191V28.5889L19.4514 22.9253L11.2086 28.539ZM21.6102 39.6399L16.6784 39.6652V32.2269H21.6102V39.6399ZM26.1833 39.6169L23.0449 39.6325V30.8174H15.2437V39.6726L12.6433 39.6859V29.2766L19.444 24.6458L26.1833 29.3189L26.1833 39.6169Z" fill="url(#paint1_linear_1419_11813)"/>
<path d="M18.6725 36.8337C19.0569 36.8337 19.3685 36.5276 19.3685 36.15C19.3685 35.7724 19.0569 35.4663 18.6725 35.4663C18.2881 35.4663 17.9766 35.7724 17.9766 36.15C17.9766 36.5276 18.2881 36.8337 18.6725 36.8337Z" fill="url(#paint2_linear_1419_11813)"/>
<path d="M37.5578 10.1553H34.7837V5.89853C34.7837 5.35123 34.2289 4.86475 33.6047 4.86475H30.5531C29.929 4.86475 29.3741 5.35123 29.3741 5.89853V8.20934H26.6C25.9758 8.20934 25.421 8.69583 25.421 9.24312V15.2026C25.421 15.5674 25.6984 15.8107 26.1146 15.8107H38.0433C38.4594 15.8107 38.7368 15.5674 38.7368 15.2026V11.1891C38.6675 10.6418 38.182 10.1553 37.5578 10.1553ZM26.8081 9.42556H29.3741V14.5945H26.8081V9.42556ZM30.7612 6.14177H33.3273V14.6553H30.7612V6.14177ZM37.2804 14.5945H34.7143V11.3715H37.2804V14.5945Z" fill="url(#paint3_linear_1419_11813)"/>
<defs>
<linearGradient id="paint0_linear_1419_11813" x1="1.09643e-07" y1="0.813546" x2="49.5417" y2="7.82894" gradientUnits="userSpaceOnUse">
<stop offset="0.158241" stop-color="#002D31"/>
<stop offset="0.32869" stop-color="#005961"/>
<stop offset="0.509791" stop-color="#00818C"/>
<stop offset="0.786145" stop-color="#005961"/>
<stop offset="0.988044" stop-color="#002D31"/>
</linearGradient>
<linearGradient id="paint1_linear_1419_11813" x1="11.2086" y1="23.2539" x2="28.9582" y2="25.4736" gradientUnits="userSpaceOnUse">
<stop offset="0.158241" stop-color="#002D31"/>
<stop offset="0.32869" stop-color="#005961"/>
<stop offset="0.509791" stop-color="#00818C"/>
<stop offset="0.786145" stop-color="#005961"/>
<stop offset="0.988044" stop-color="#002D31"/>
</linearGradient>
<linearGradient id="paint2_linear_1419_11813" x1="17.9766" y1="35.491" x2="19.4759" y2="35.7024" gradientUnits="userSpaceOnUse">
<stop offset="0.158241" stop-color="#002D31"/>
<stop offset="0.32869" stop-color="#005961"/>
<stop offset="0.509791" stop-color="#00818C"/>
<stop offset="0.786145" stop-color="#005961"/>
<stop offset="0.988044" stop-color="#002D31"/>
</linearGradient>
<linearGradient id="paint3_linear_1419_11813" x1="25.421" y1="5.06264" x2="39.6456" y2="7.45976" gradientUnits="userSpaceOnUse">
<stop offset="0.158241" stop-color="#002D31"/>
<stop offset="0.32869" stop-color="#005961"/>
<stop offset="0.509791" stop-color="#00818C"/>
<stop offset="0.786145" stop-color="#005961"/>
<stop offset="0.988044" stop-color="#002D31"/>
</linearGradient>
</defs>
</svg>
