<svg width="9" height="42" viewBox="0 0 9 42" fill="none" xmlns="http://www.w3.org/2000/svg">
<line x1="0.5" y1="-0.5" x2="8.759" y2="-0.5" transform="matrix(-0.90256 0.430564 -0.62627 -0.779607 8.35681 0)" stroke="white" stroke-linecap="round"/>
<line x1="0.5" y1="-0.5" x2="8.759" y2="-0.5" transform="matrix(-0.90256 0.430564 -0.62627 -0.779607 8.35681 4.59985)" stroke="white" stroke-linecap="round"/>
<line x1="0.5" y1="-0.5" x2="8.759" y2="-0.5" transform="matrix(-0.90256 0.430564 -0.62627 -0.779607 8.35681 9.19983)" stroke="white" stroke-linecap="round"/>
<line x1="0.5" y1="-0.5" x2="8.759" y2="-0.5" transform="matrix(-0.90256 0.430564 -0.62627 -0.779607 8.35681 13.7999)" stroke="white" stroke-linecap="round"/>
<line x1="0.5" y1="-0.5" x2="8.759" y2="-0.5" transform="matrix(-0.90256 0.430564 -0.62627 -0.779607 8.35681 18.3995)" stroke="white" stroke-linecap="round"/>
<line x1="0.5" y1="-0.5" x2="8.759" y2="-0.5" transform="matrix(-0.90256 0.430564 -0.62627 -0.779607 8.35681 22.9994)" stroke="white" stroke-linecap="round"/>
<line x1="0.5" y1="-0.5" x2="8.759" y2="-0.5" transform="matrix(-0.90256 0.430564 -0.62627 -0.779607 8.35681 27.5994)" stroke="white" stroke-linecap="round"/>
<line x1="0.5" y1="-0.5" x2="8.759" y2="-0.5" transform="matrix(-0.90256 0.430564 -0.62627 -0.779607 8.35681 32.1995)" stroke="white" stroke-linecap="round"/>
<line x1="0.5" y1="-0.5" x2="8.759" y2="-0.5" transform="matrix(-0.90256 0.430564 -0.62627 -0.779607 8.35681 36.7994)" stroke="white" stroke-linecap="round"/>
</svg>
