<svg width="18" height="13" viewBox="0 0 18 13" fill="none" xmlns="http://www.w3.org/2000/svg">
<g clip-path="url(#clip0_1202_6205)">
<rect x="0.674805" y="0.333984" width="16.5053" height="12.0038" rx="1.50048" fill="#1A47B8"/>
<path fill-rule="evenodd" clip-rule="evenodd" d="M2.43063 0.333984H0.674805V2.33463L15.4147 12.3378L17.1801 12.3378V10.3372L2.43063 0.333984Z" fill="white"/>
<path d="M1.26043 0.333984L17.1801 11.1658V12.3378H16.6082L0.674805 1.4948V0.333984H1.26043Z" fill="#F93939"/>
<path fill-rule="evenodd" clip-rule="evenodd" d="M15.6082 0.333984H17.1801V2.33463C17.1801 2.33463 6.97024 8.99921 2.24674 12.3378H0.674805V10.3372L15.6082 0.333984Z" fill="white"/>
<path d="M17.1801 0.333984H16.647L0.674805 11.1751V12.3378H1.26043L17.1801 1.50357V0.333984Z" fill="#F93939"/>
<path fill-rule="evenodd" clip-rule="evenodd" d="M6.67729 0.333984H11.1913V4.03663H17.1801V8.63275H11.1913V12.3378H6.67729V8.63275H0.674805V4.03663H6.67729V0.333984Z" fill="white"/>
<path fill-rule="evenodd" clip-rule="evenodd" d="M7.6244 0.333984H10.2305V4.95085H17.1801V7.72097H10.2305V12.3378H7.6244V7.72097H0.674805V4.95085H7.6244V0.333984Z" fill="#F93939"/>
</g>
<defs>
<clipPath id="clip0_1202_6205">
<rect x="0.674805" y="0.333984" width="16.5053" height="12.0038" rx="1.50048" fill="white"/>
</clipPath>
</defs>
</svg>
