<svg width="28" height="16" viewBox="0 0 28 16" fill="none" xmlns="http://www.w3.org/2000/svg">
<path d="M0 1.24059C0 0.55543 0.55543 0 1.24059 0H16.9742C18.7051 0 20.1083 1.40319 20.1083 3.13412V14.7594C20.1083 15.4446 19.5529 16 18.8677 16H3.13412C1.40319 16 0 14.5968 0 12.8659V1.24059Z" fill="#E6EDED"/>
<path d="M13.2324 5.97523C13.2324 4.87517 14.1038 3.9834 15.1787 3.9834C16.2536 3.9834 17.125 4.87517 17.125 5.97523C17.125 7.07529 16.2536 7.96707 15.1787 7.96707C14.1038 7.96707 13.2324 7.07529 13.2324 5.97523Z" fill="#002D31"/>
<path d="M21.3145 5.66512C21.3145 4.99967 21.5943 4.3664 22.0825 3.92687L25.9136 0.477774C26.7255 -0.253162 28.0005 0.336825 28.0005 1.44346V14.5967C28.0005 15.6929 26.7463 16.2866 25.93 15.5768L22.4132 12.519C21.7162 11.9129 21.3145 11.0242 21.3145 10.0882V5.66512Z" fill="#E6EDED"/>
</svg>
