<svg width="19" height="11" viewBox="0 0 19 11" fill="none" xmlns="http://www.w3.org/2000/svg">
<path d="M0 1.24059C0 0.555431 0.55543 0 1.24059 0H9.92471C11.6556 0 13.0588 1.40319 13.0588 3.13412V8.91265C13.0588 9.59781 12.5034 10.1532 11.8182 10.1532H3.13412C1.40319 10.1532 0 8.75005 0 7.01912V1.24059Z" fill="url(#paint0_linear_691_18944)"/>
<path d="M8.59412 3.79181C8.59412 3.09373 9.16002 2.52783 9.85809 2.52783C10.5562 2.52783 11.1221 3.09373 11.1221 3.79181C11.1221 4.48988 10.5562 5.05578 9.85809 5.05578C9.16002 5.05578 8.59412 4.48988 8.59412 3.79181Z" fill="#F5F5F5"/>
<path d="M13.8422 3.59488C13.8422 3.1726 14.0239 2.77074 14.341 2.49183L16.829 0.303106C17.3563 -0.160729 18.1843 0.213663 18.1843 0.915911V9.26263C18.1843 9.95827 17.3697 10.335 16.8396 9.88462L14.5557 7.94418C14.1031 7.5596 13.8422 6.99561 13.8422 6.40164V3.59488Z" fill="url(#paint1_linear_691_18944)"/>
<defs>
<linearGradient id="paint0_linear_691_18944" x1="0.62101" y1="2.5283" x2="9.87156" y2="11.205" gradientUnits="userSpaceOnUse">
<stop stop-color="#002E33"/>
<stop offset="0.515422" stop-color="#18494E"/>
<stop offset="0.994225" stop-color="#00474D"/>
</linearGradient>
<linearGradient id="paint1_linear_691_18944" x1="14.0487" y1="2.58386" x2="19.3019" y2="4.25028" gradientUnits="userSpaceOnUse">
<stop stop-color="#002E33"/>
<stop offset="0.515422" stop-color="#18494E"/>
<stop offset="0.994225" stop-color="#00474D"/>
</linearGradient>
</defs>
</svg>
