<svg width="24" height="14" viewBox="0 0 24 14" fill="none" xmlns="http://www.w3.org/2000/svg">
<path d="M0 1.632C0 0.730672 0.730671 0 1.632 0H13.056C15.333 0 17.1789 1.84591 17.1789 4.12295V11.7246C17.1789 12.626 16.4483 13.3566 15.5469 13.3566H4.12294C1.8459 13.3566 0 11.5107 0 9.23368V1.632Z" fill="url(#paint0_linear_714_10386)"/>
<path d="M11.3062 4.98796C11.3062 4.06964 12.0506 3.3252 12.9689 3.3252C13.8872 3.3252 14.6317 4.06964 14.6317 4.98796C14.6317 5.90628 13.8872 6.65072 12.9689 6.65072C12.0506 6.65072 11.3062 5.90628 11.3062 4.98796Z" fill="#F5F5F5"/>
<path d="M18.21 4.72887C18.21 4.17337 18.449 3.64472 18.8661 3.27781L22.1391 0.398534C22.8327 -0.211643 23.922 0.280871 23.922 1.20468V12.1848C23.922 13.0999 22.8505 13.5956 22.1531 13.0031L19.1486 10.4504C18.5532 9.94448 18.21 9.20255 18.21 8.42118V4.72887Z" fill="url(#paint1_linear_714_10386)"/>
<defs>
<linearGradient id="paint0_linear_714_10386" x1="0.816941" y1="3.32599" x2="12.9861" y2="14.7403" gradientUnits="userSpaceOnUse">
<stop stop-color="#002E33"/>
<stop offset="0.515422" stop-color="#18494E"/>
<stop offset="0.994225" stop-color="#00474D"/>
</linearGradient>
<linearGradient id="paint1_linear_714_10386" x1="18.4816" y1="3.39888" x2="25.3923" y2="5.59106" gradientUnits="userSpaceOnUse">
<stop stop-color="#002E33"/>
<stop offset="0.515422" stop-color="#18494E"/>
<stop offset="0.994225" stop-color="#00474D"/>
</linearGradient>
</defs>
</svg>
