<svg width="19" height="13" viewBox="0 0 19 13" fill="none" xmlns="http://www.w3.org/2000/svg">
<path fill-rule="evenodd" clip-rule="evenodd" d="M9.45216 3.56602C7.99529 3.56602 6.81427 4.74705 6.81427 6.20391C6.81427 7.66078 7.99529 8.84181 9.45216 8.84181C10.909 8.84181 12.0901 7.66078 12.0901 6.20391C12.0901 4.74705 10.909 3.56602 9.45216 3.56602ZM8.57286 6.20391C8.57286 5.71829 8.96654 5.32462 9.45216 5.32462C9.93778 5.32462 10.3315 5.71829 10.3315 6.20391C10.3315 6.68954 9.93778 7.08321 9.45216 7.08321C8.96654 7.08321 8.57286 6.68954 8.57286 6.20391Z" fill="url(#paint0_linear_1302_4559)"/>
<path fill-rule="evenodd" clip-rule="evenodd" d="M18.0956 5.57147C16.0839 1.94096 12.8042 0.0488281 9.45216 0.0488281C6.10008 0.0488281 2.82046 1.94096 0.808688 5.57147C0.61202 5.92638 0.6096 6.36402 0.800124 6.72058C2.7799 10.4257 6.07812 12.359 9.45216 12.359C12.8262 12.359 16.1244 10.4257 18.1042 6.72058C18.2947 6.36402 18.2923 5.92638 18.0956 5.57147ZM9.45216 10.6004C6.86787 10.6004 4.212 9.16927 2.49844 6.15878C4.23671 3.21091 6.87862 1.80742 9.45216 1.80742C12.0257 1.80742 14.6676 3.21091 16.4059 6.15878C14.6923 9.16926 12.0364 10.6004 9.45216 10.6004Z" fill="url(#paint1_linear_1302_4559)"/>
<defs>
<linearGradient id="paint0_linear_1302_4559" x1="1.49548" y1="3.11423" x2="12.7248" y2="14.8131" gradientUnits="userSpaceOnUse">
<stop stop-color="#002E33"/>
<stop offset="0.515422" stop-color="#18494E"/>
<stop offset="0.994225" stop-color="#00474D"/>
</linearGradient>
<linearGradient id="paint1_linear_1302_4559" x1="1.49548" y1="3.11423" x2="12.7248" y2="14.8131" gradientUnits="userSpaceOnUse">
<stop stop-color="#002E33"/>
<stop offset="0.515422" stop-color="#18494E"/>
<stop offset="0.994225" stop-color="#00474D"/>
</linearGradient>
</defs>
</svg>
