<svg width="70" height="71" viewBox="0 0 70 71" fill="none" xmlns="http://www.w3.org/2000/svg">
<path d="M64.2812 6.46533H5.71924C4.79098 6.46533 3.90074 6.83408 3.24436 7.49046C2.58799 8.14684 2.21924 9.03707 2.21924 9.96533V61.2473C2.21924 62.1756 2.58799 63.0658 3.24436 63.7222C3.90074 64.3786 4.79098 64.7473 5.71924 64.7473H64.2812C66.4232 64.7473 67.7812 61.5273 67.7812 59.8473V9.96533C67.7812 9.03707 67.4125 8.14684 66.7561 7.49046C66.0997 6.83408 65.2095 6.46533 64.2812 6.46533ZM5.71924 7.86533H64.2812C64.8382 7.86533 65.3723 8.08658 65.7662 8.48041C66.16 8.87423 66.3812 9.40838 66.3812 9.96533V14.2493H3.61924V9.96533C3.61924 9.40838 3.84049 8.87423 4.23431 8.48041C4.62814 8.08658 5.16228 7.86533 5.71924 7.86533ZM64.2812 63.3473H5.71924C5.16228 63.3473 4.62814 63.1261 4.23431 62.7323C3.84049 62.3384 3.61924 61.8043 3.61924 61.2473V15.6493H66.3812V59.8473C66.3812 61.2333 65.2542 63.3473 64.2812 63.3473Z" fill="url(#paint0_linear_813_4374)"/>
<path d="M64.2812 6.46533H5.71924C4.79098 6.46533 3.90074 6.83408 3.24436 7.49046C2.58799 8.14684 2.21924 9.03707 2.21924 9.96533V61.2473C2.21924 62.1756 2.58799 63.0658 3.24436 63.7222C3.90074 64.3786 4.79098 64.7473 5.71924 64.7473H64.2812C66.4232 64.7473 67.7812 61.5273 67.7812 59.8473V9.96533C67.7812 9.03707 67.4125 8.14684 66.7561 7.49046C66.0997 6.83408 65.2095 6.46533 64.2812 6.46533ZM5.71924 7.86533H64.2812C64.8382 7.86533 65.3723 8.08658 65.7662 8.48041C66.16 8.87423 66.3812 9.40838 66.3812 9.96533V14.2493H3.61924V9.96533C3.61924 9.40838 3.84049 8.87423 4.23431 8.48041C4.62814 8.08658 5.16228 7.86533 5.71924 7.86533ZM64.2812 63.3473H5.71924C5.16228 63.3473 4.62814 63.1261 4.23431 62.7323C3.84049 62.3384 3.61924 61.8043 3.61924 61.2473V15.6493H66.3812V59.8473C66.3812 61.2333 65.2542 63.3473 64.2812 63.3473Z" fill="black" fill-opacity="0.2"/>
<path d="M8.75054 13.3463C9.2351 13.3463 9.70878 13.2026 10.1117 12.9334C10.5146 12.6642 10.8286 12.2815 11.014 11.8339C11.1995 11.3862 11.248 10.8936 11.1535 10.4183C11.0589 9.94307 10.8256 9.50652 10.4829 9.16388C10.1403 8.82124 9.70376 8.5879 9.22851 8.49337C8.75326 8.39883 8.26064 8.44735 7.81296 8.63279C7.36528 8.81822 6.98265 9.13224 6.71344 9.53514C6.44423 9.93804 6.30054 10.4117 6.30054 10.8963C6.30054 11.5461 6.55866 12.1692 7.01813 12.6287C7.47759 13.0882 8.10076 13.3463 8.75054 13.3463ZM8.75054 9.84629C8.95821 9.84629 9.16121 9.90787 9.33389 10.0232C9.50656 10.1386 9.64114 10.3026 9.72061 10.4945C9.80008 10.6863 9.82088 10.8975 9.78036 11.1011C9.73985 11.3048 9.63984 11.4919 9.493 11.6388C9.34615 11.7856 9.15906 11.8856 8.95538 11.9261C8.7517 11.9666 8.54058 11.9458 8.34872 11.8664C8.15686 11.7869 7.99287 11.6523 7.87749 11.4796C7.76212 11.307 7.70054 11.104 7.70054 10.8963C7.70054 10.6178 7.81116 10.3507 8.00807 10.1538C8.20499 9.95691 8.47206 9.84629 8.75054 9.84629ZM15.7505 13.3463C16.2351 13.3463 16.7088 13.2026 17.1117 12.9334C17.5146 12.6642 17.8286 12.2815 18.014 11.8339C18.1995 11.3862 18.248 10.8936 18.1535 10.4183C18.0589 9.94307 17.8256 9.50652 17.4829 9.16388C17.1403 8.82124 16.7038 8.5879 16.2285 8.49337C15.7533 8.39883 15.2606 8.44735 14.813 8.63279C14.3653 8.81822 13.9826 9.13224 13.7134 9.53514C13.4442 9.93804 13.3005 10.4117 13.3005 10.8963C13.3005 11.5461 13.5587 12.1692 14.0181 12.6287C14.4776 13.0882 15.1008 13.3463 15.7505 13.3463ZM15.7505 9.84629C15.9582 9.84629 16.1612 9.90787 16.3339 10.0232C16.5066 10.1386 16.6411 10.3026 16.7206 10.4945C16.8001 10.6863 16.8209 10.8975 16.7804 11.1011C16.7398 11.3048 16.6398 11.4919 16.493 11.6388C16.3462 11.7856 16.1591 11.8856 15.9554 11.9261C15.7517 11.9666 15.5406 11.9458 15.3487 11.8664C15.1569 11.7869 14.9929 11.6523 14.8775 11.4796C14.7621 11.307 14.7005 11.104 14.7005 10.8963C14.7005 10.6178 14.8112 10.3507 15.0081 10.1538C15.205 9.95691 15.4721 9.84629 15.7505 9.84629ZM22.7505 13.3463C23.2351 13.3463 23.7088 13.2026 24.1117 12.9334C24.5146 12.6642 24.8286 12.2815 25.014 11.8339C25.1995 11.3862 25.248 10.8936 25.1535 10.4183C25.0589 9.94307 24.8256 9.50652 24.4829 9.16388C24.1403 8.82124 23.7038 8.5879 23.2285 8.49337C22.7533 8.39883 22.2606 8.44735 21.813 8.63279C21.3653 8.81822 20.9826 9.13224 20.7134 9.53514C20.4442 9.93804 20.3005 10.4117 20.3005 10.8963C20.3005 11.5461 20.5587 12.1692 21.0181 12.6287C21.4776 13.0882 22.1008 13.3463 22.7505 13.3463ZM22.7505 9.84629C22.9582 9.84629 23.1612 9.90787 23.3339 10.0232C23.5066 10.1386 23.6411 10.3026 23.7206 10.4945C23.8001 10.6863 23.8209 10.8975 23.7804 11.1011C23.7398 11.3048 23.6398 11.4919 23.493 11.6388C23.3462 11.7856 23.1591 11.8856 22.9554 11.9261C22.7517 11.9666 22.5406 11.9458 22.3487 11.8664C22.1569 11.7869 21.9929 11.6523 21.8775 11.4796C21.7621 11.307 21.7005 11.104 21.7005 10.8963C21.7005 10.6178 21.8112 10.3507 22.0081 10.1538C22.205 9.95691 22.4721 9.84629 22.7505 9.84629ZM9.68154 24.8193H51.6815C52.4241 24.8193 53.1363 24.5243 53.6614 23.9992C54.1865 23.4741 54.4815 22.7619 54.4815 22.0193C54.4815 21.2767 54.1865 20.5645 53.6614 20.0394C53.1363 19.5143 52.4241 19.2193 51.6815 19.2193H9.68154C8.93893 19.2193 8.22674 19.5143 7.70164 20.0394C7.17654 20.5645 6.88154 21.2767 6.88154 22.0193C6.88154 22.7619 7.17654 23.4741 7.70164 23.9992C8.22674 24.5243 8.93893 24.8193 9.68154 24.8193ZM9.68154 20.6193H51.6815C52.0528 20.6193 52.4089 20.7668 52.6715 21.0293C52.934 21.2919 53.0815 21.648 53.0815 22.0193C53.0815 22.3906 52.934 22.7467 52.6715 23.0092C52.4089 23.2718 52.0528 23.4193 51.6815 23.4193H9.68154C9.31023 23.4193 8.95414 23.2718 8.69159 23.0092C8.42904 22.7467 8.28154 22.3906 8.28154 22.0193C8.28154 21.648 8.42904 21.2919 8.69159 21.0293C8.95414 20.7668 9.31023 20.6193 9.68154 20.6193ZM58.8425 23.8883C59.0936 23.9557 59.3526 23.9886 59.6125 23.9863C59.9336 23.9841 60.2524 23.9321 60.5575 23.8323L61.8175 25.9323C61.8795 26.0368 61.9676 26.1234 62.0731 26.1835C62.1787 26.2436 62.2981 26.2753 62.4195 26.2753C62.5449 26.2733 62.6677 26.2396 62.7765 26.1773C62.9289 26.0793 63.0373 25.9262 63.0791 25.75C63.1208 25.5737 63.0927 25.3882 63.0005 25.2323L61.7405 23.1323C62.2392 22.6547 62.5651 22.025 62.6669 21.3422C62.7688 20.6593 62.6409 19.9619 62.3033 19.3596C61.9658 18.7573 61.4377 18.2842 60.802 18.0147C60.1663 17.7452 59.4591 17.6945 58.7915 17.8706C58.1239 18.0467 57.5337 18.4396 57.1137 18.9876C56.6937 19.5356 56.4676 20.2076 56.4711 20.8981C56.4745 21.5885 56.7072 22.2582 57.1327 22.802C57.5581 23.3458 58.1522 23.7328 58.8215 23.9023L58.8425 23.8883ZM57.9395 20.4443C58.0356 20.0737 58.2521 19.7454 58.5548 19.511C58.8576 19.2767 59.2296 19.1494 59.6125 19.1493C59.7543 19.1511 59.8953 19.1699 60.0325 19.2053C60.2524 19.2607 60.4591 19.3592 60.6407 19.4951C60.8222 19.6309 60.975 19.8015 61.0902 19.9967C61.2055 20.192 61.2808 20.4083 61.3119 20.6329C61.3431 20.8575 61.3293 21.086 61.2715 21.3053C61.2161 21.5252 61.1176 21.7319 60.9817 21.9134C60.8459 22.095 60.6754 22.2478 60.4801 22.363C60.2848 22.4782 60.0686 22.5536 59.844 22.5847C59.6194 22.6158 59.3908 22.6021 59.1715 22.5443C58.7297 22.4291 58.3518 22.1432 58.1208 21.7494C57.8897 21.3556 57.8245 20.8861 57.9395 20.4443ZM23.1005 27.8223C22.9707 27.7002 22.7992 27.6323 22.621 27.6323C22.4428 27.6323 22.2714 27.7002 22.1415 27.8223L7.07754 42.0393C6.94201 42.1665 6.86256 42.3423 6.85665 42.528C6.85074 42.7138 6.91887 42.8943 7.04604 43.0298C7.17321 43.1653 7.34901 43.2448 7.53476 43.2507C7.72052 43.2566 7.90101 43.1885 8.03654 43.0613L10.8015 40.4503V58.3703C10.8015 58.5559 10.8753 58.734 11.0066 58.8653C11.1378 58.9965 11.3159 59.0703 11.5015 59.0703H33.6985C33.8842 59.0703 34.0622 58.9965 34.1935 58.8653C34.3248 58.734 34.3985 58.5559 34.3985 58.3703V40.4503L37.1985 43.0613C37.3276 43.1822 37.4977 43.2497 37.6745 43.2503C37.77 43.2509 37.8646 43.2319 37.9525 43.1946C38.0403 43.1573 38.1197 43.1024 38.1855 43.0333C38.2511 42.9682 38.3032 42.8908 38.3388 42.8055C38.3743 42.7202 38.3926 42.6287 38.3926 42.5363C38.3926 42.4439 38.3743 42.3524 38.3388 42.2671C38.3032 42.1818 38.2511 42.1044 38.1855 42.0393L23.1005 27.8223ZM26.2505 57.6703H18.9705V45.6093C18.9705 45.5406 18.9978 45.4747 19.0464 45.4261C19.095 45.3776 19.1608 45.3503 19.2295 45.3503H25.9705C26.0387 45.3521 26.1035 45.3799 26.1517 45.4281C26.1999 45.4763 26.2278 45.5412 26.2295 45.6093L26.2505 57.6703ZM33.0195 57.6703H27.6295V45.6093C27.6295 45.1693 27.4548 44.7473 27.1436 44.4362C26.8325 44.1251 26.4105 43.9503 25.9705 43.9503H19.2295C19.0117 43.9503 18.7959 43.9932 18.5947 44.0766C18.3934 44.1599 18.2105 44.2821 18.0564 44.4362C17.9024 44.5902 17.7802 44.7731 17.6968 44.9744C17.6134 45.1757 17.5705 45.3914 17.5705 45.6093V57.6703H12.2015V39.1063L22.5965 29.3063L32.9985 39.1063L33.0195 57.6703Z" fill="url(#paint1_linear_813_4374)"/>
<path d="M8.75054 13.3463C9.2351 13.3463 9.70878 13.2026 10.1117 12.9334C10.5146 12.6642 10.8286 12.2815 11.014 11.8339C11.1995 11.3862 11.248 10.8936 11.1535 10.4183C11.0589 9.94307 10.8256 9.50652 10.4829 9.16388C10.1403 8.82124 9.70376 8.5879 9.22851 8.49337C8.75326 8.39883 8.26064 8.44735 7.81296 8.63279C7.36528 8.81822 6.98265 9.13224 6.71344 9.53514C6.44423 9.93804 6.30054 10.4117 6.30054 10.8963C6.30054 11.5461 6.55866 12.1692 7.01813 12.6287C7.47759 13.0882 8.10076 13.3463 8.75054 13.3463ZM8.75054 9.84629C8.95821 9.84629 9.16121 9.90787 9.33389 10.0232C9.50656 10.1386 9.64114 10.3026 9.72061 10.4945C9.80008 10.6863 9.82088 10.8975 9.78036 11.1011C9.73985 11.3048 9.63984 11.4919 9.493 11.6388C9.34615 11.7856 9.15906 11.8856 8.95538 11.9261C8.7517 11.9666 8.54058 11.9458 8.34872 11.8664C8.15686 11.7869 7.99287 11.6523 7.87749 11.4796C7.76212 11.307 7.70054 11.104 7.70054 10.8963C7.70054 10.6178 7.81116 10.3507 8.00807 10.1538C8.20499 9.95691 8.47206 9.84629 8.75054 9.84629ZM15.7505 13.3463C16.2351 13.3463 16.7088 13.2026 17.1117 12.9334C17.5146 12.6642 17.8286 12.2815 18.014 11.8339C18.1995 11.3862 18.248 10.8936 18.1535 10.4183C18.0589 9.94307 17.8256 9.50652 17.4829 9.16388C17.1403 8.82124 16.7038 8.5879 16.2285 8.49337C15.7533 8.39883 15.2606 8.44735 14.813 8.63279C14.3653 8.81822 13.9826 9.13224 13.7134 9.53514C13.4442 9.93804 13.3005 10.4117 13.3005 10.8963C13.3005 11.5461 13.5587 12.1692 14.0181 12.6287C14.4776 13.0882 15.1008 13.3463 15.7505 13.3463ZM15.7505 9.84629C15.9582 9.84629 16.1612 9.90787 16.3339 10.0232C16.5066 10.1386 16.6411 10.3026 16.7206 10.4945C16.8001 10.6863 16.8209 10.8975 16.7804 11.1011C16.7398 11.3048 16.6398 11.4919 16.493 11.6388C16.3462 11.7856 16.1591 11.8856 15.9554 11.9261C15.7517 11.9666 15.5406 11.9458 15.3487 11.8664C15.1569 11.7869 14.9929 11.6523 14.8775 11.4796C14.7621 11.307 14.7005 11.104 14.7005 10.8963C14.7005 10.6178 14.8112 10.3507 15.0081 10.1538C15.205 9.95691 15.4721 9.84629 15.7505 9.84629ZM22.7505 13.3463C23.2351 13.3463 23.7088 13.2026 24.1117 12.9334C24.5146 12.6642 24.8286 12.2815 25.014 11.8339C25.1995 11.3862 25.248 10.8936 25.1535 10.4183C25.0589 9.94307 24.8256 9.50652 24.4829 9.16388C24.1403 8.82124 23.7038 8.5879 23.2285 8.49337C22.7533 8.39883 22.2606 8.44735 21.813 8.63279C21.3653 8.81822 20.9826 9.13224 20.7134 9.53514C20.4442 9.93804 20.3005 10.4117 20.3005 10.8963C20.3005 11.5461 20.5587 12.1692 21.0181 12.6287C21.4776 13.0882 22.1008 13.3463 22.7505 13.3463ZM22.7505 9.84629C22.9582 9.84629 23.1612 9.90787 23.3339 10.0232C23.5066 10.1386 23.6411 10.3026 23.7206 10.4945C23.8001 10.6863 23.8209 10.8975 23.7804 11.1011C23.7398 11.3048 23.6398 11.4919 23.493 11.6388C23.3462 11.7856 23.1591 11.8856 22.9554 11.9261C22.7517 11.9666 22.5406 11.9458 22.3487 11.8664C22.1569 11.7869 21.9929 11.6523 21.8775 11.4796C21.7621 11.307 21.7005 11.104 21.7005 10.8963C21.7005 10.6178 21.8112 10.3507 22.0081 10.1538C22.205 9.95691 22.4721 9.84629 22.7505 9.84629ZM9.68154 24.8193H51.6815C52.4241 24.8193 53.1363 24.5243 53.6614 23.9992C54.1865 23.4741 54.4815 22.7619 54.4815 22.0193C54.4815 21.2767 54.1865 20.5645 53.6614 20.0394C53.1363 19.5143 52.4241 19.2193 51.6815 19.2193H9.68154C8.93893 19.2193 8.22674 19.5143 7.70164 20.0394C7.17654 20.5645 6.88154 21.2767 6.88154 22.0193C6.88154 22.7619 7.17654 23.4741 7.70164 23.9992C8.22674 24.5243 8.93893 24.8193 9.68154 24.8193ZM9.68154 20.6193H51.6815C52.0528 20.6193 52.4089 20.7668 52.6715 21.0293C52.934 21.2919 53.0815 21.648 53.0815 22.0193C53.0815 22.3906 52.934 22.7467 52.6715 23.0092C52.4089 23.2718 52.0528 23.4193 51.6815 23.4193H9.68154C9.31023 23.4193 8.95414 23.2718 8.69159 23.0092C8.42904 22.7467 8.28154 22.3906 8.28154 22.0193C8.28154 21.648 8.42904 21.2919 8.69159 21.0293C8.95414 20.7668 9.31023 20.6193 9.68154 20.6193ZM58.8425 23.8883C59.0936 23.9557 59.3526 23.9886 59.6125 23.9863C59.9336 23.9841 60.2524 23.9321 60.5575 23.8323L61.8175 25.9323C61.8795 26.0368 61.9676 26.1234 62.0731 26.1835C62.1787 26.2436 62.2981 26.2753 62.4195 26.2753C62.5449 26.2733 62.6677 26.2396 62.7765 26.1773C62.9289 26.0793 63.0373 25.9262 63.0791 25.75C63.1208 25.5737 63.0927 25.3882 63.0005 25.2323L61.7405 23.1323C62.2392 22.6547 62.5651 22.025 62.6669 21.3422C62.7688 20.6593 62.6409 19.9619 62.3033 19.3596C61.9658 18.7573 61.4377 18.2842 60.802 18.0147C60.1663 17.7452 59.4591 17.6945 58.7915 17.8706C58.1239 18.0467 57.5337 18.4396 57.1137 18.9876C56.6937 19.5356 56.4676 20.2076 56.4711 20.8981C56.4745 21.5885 56.7072 22.2582 57.1327 22.802C57.5581 23.3458 58.1522 23.7328 58.8215 23.9023L58.8425 23.8883ZM57.9395 20.4443C58.0356 20.0737 58.2521 19.7454 58.5548 19.511C58.8576 19.2767 59.2296 19.1494 59.6125 19.1493C59.7543 19.1511 59.8953 19.1699 60.0325 19.2053C60.2524 19.2607 60.4591 19.3592 60.6407 19.4951C60.8222 19.6309 60.975 19.8015 61.0902 19.9967C61.2055 20.192 61.2808 20.4083 61.3119 20.6329C61.3431 20.8575 61.3293 21.086 61.2715 21.3053C61.2161 21.5252 61.1176 21.7319 60.9817 21.9134C60.8459 22.095 60.6754 22.2478 60.4801 22.363C60.2848 22.4782 60.0686 22.5536 59.844 22.5847C59.6194 22.6158 59.3908 22.6021 59.1715 22.5443C58.7297 22.4291 58.3518 22.1432 58.1208 21.7494C57.8897 21.3556 57.8245 20.8861 57.9395 20.4443ZM23.1005 27.8223C22.9707 27.7002 22.7992 27.6323 22.621 27.6323C22.4428 27.6323 22.2714 27.7002 22.1415 27.8223L7.07754 42.0393C6.94201 42.1665 6.86256 42.3423 6.85665 42.528C6.85074 42.7138 6.91887 42.8943 7.04604 43.0298C7.17321 43.1653 7.34901 43.2448 7.53476 43.2507C7.72052 43.2566 7.90101 43.1885 8.03654 43.0613L10.8015 40.4503V58.3703C10.8015 58.5559 10.8753 58.734 11.0066 58.8653C11.1378 58.9965 11.3159 59.0703 11.5015 59.0703H33.6985C33.8842 59.0703 34.0622 58.9965 34.1935 58.8653C34.3248 58.734 34.3985 58.5559 34.3985 58.3703V40.4503L37.1985 43.0613C37.3276 43.1822 37.4977 43.2497 37.6745 43.2503C37.77 43.2509 37.8646 43.2319 37.9525 43.1946C38.0403 43.1573 38.1197 43.1024 38.1855 43.0333C38.2511 42.9682 38.3032 42.8908 38.3388 42.8055C38.3743 42.7202 38.3926 42.6287 38.3926 42.5363C38.3926 42.4439 38.3743 42.3524 38.3388 42.2671C38.3032 42.1818 38.2511 42.1044 38.1855 42.0393L23.1005 27.8223ZM26.2505 57.6703H18.9705V45.6093C18.9705 45.5406 18.9978 45.4747 19.0464 45.4261C19.095 45.3776 19.1608 45.3503 19.2295 45.3503H25.9705C26.0387 45.3521 26.1035 45.3799 26.1517 45.4281C26.1999 45.4763 26.2278 45.5412 26.2295 45.6093L26.2505 57.6703ZM33.0195 57.6703H27.6295V45.6093C27.6295 45.1693 27.4548 44.7473 27.1436 44.4362C26.8325 44.1251 26.4105 43.9503 25.9705 43.9503H19.2295C19.0117 43.9503 18.7959 43.9932 18.5947 44.0766C18.3934 44.1599 18.2105 44.2821 18.0564 44.4362C17.9024 44.5902 17.7802 44.7731 17.6968 44.9744C17.6134 45.1757 17.5705 45.3914 17.5705 45.6093V57.6703H12.2015V39.1063L22.5965 29.3063L32.9985 39.1063L33.0195 57.6703Z" fill="black" fill-opacity="0.2"/>
<path d="M18.032 38.3361C18.032 39.2405 18.3002 40.1245 18.8028 40.8764C19.3054 41.6282 20.0197 42.2141 20.8554 42.5599C21.691 42.9056 22.6104 42.9957 23.4973 42.8188C24.3842 42.6419 25.1987 42.2058 25.8376 41.5658C26.4766 40.9259 26.9114 40.1107 27.087 39.2236C27.2626 38.3365 27.1711 37.4172 26.824 36.582C26.477 35.7469 25.89 35.0335 25.1374 34.5321C24.3848 34.0307 23.5003 33.7638 22.596 33.7651C21.3849 33.767 20.224 34.2494 19.3683 35.1064C18.5126 35.9635 18.032 37.1251 18.032 38.3361ZM21.896 35.2491V37.6361H19.516C19.6474 37.0544 19.9406 36.5217 20.3616 36.0993C20.7827 35.677 21.3146 35.3823 21.896 35.2491ZM19.516 39.0361H21.896V41.4231C21.315 41.2893 20.7835 40.9943 20.3625 40.5721C19.9416 40.1499 19.6482 39.6175 19.516 39.0361ZM23.296 41.4231V39.0361H25.683C25.5503 39.6184 25.2558 40.1514 24.8335 40.5737C24.4112 40.996 23.8783 41.2904 23.296 41.4231ZM25.683 37.6361H23.296V35.2491C23.8786 35.3811 24.412 35.6753 24.8344 36.0977C25.2568 36.5201 25.551 37.0535 25.683 37.6361Z" fill="url(#paint2_linear_813_4374)"/>
<path d="M18.032 38.3361C18.032 39.2405 18.3002 40.1245 18.8028 40.8764C19.3054 41.6282 20.0197 42.2141 20.8554 42.5599C21.691 42.9056 22.6104 42.9957 23.4973 42.8188C24.3842 42.6419 25.1987 42.2058 25.8376 41.5658C26.4766 40.9259 26.9114 40.1107 27.087 39.2236C27.2626 38.3365 27.1711 37.4172 26.824 36.582C26.477 35.7469 25.89 35.0335 25.1374 34.5321C24.3848 34.0307 23.5003 33.7638 22.596 33.7651C21.3849 33.767 20.224 34.2494 19.3683 35.1064C18.5126 35.9635 18.032 37.1251 18.032 38.3361ZM21.896 35.2491V37.6361H19.516C19.6474 37.0544 19.9406 36.5217 20.3616 36.0993C20.7827 35.677 21.3146 35.3823 21.896 35.2491ZM19.516 39.0361H21.896V41.4231C21.315 41.2893 20.7835 40.9943 20.3625 40.5721C19.9416 40.1499 19.6482 39.6175 19.516 39.0361ZM23.296 41.4231V39.0361H25.683C25.5503 39.6184 25.2558 40.1514 24.8335 40.5737C24.4112 40.996 23.8783 41.2904 23.296 41.4231ZM25.683 37.6361H23.296V35.2491C23.8786 35.3811 24.412 35.6753 24.8344 36.0977C25.2568 36.5201 25.551 37.0535 25.683 37.6361Z" fill="black" fill-opacity="0.2"/>
<path d="M20.1185 52.3293C20.4317 52.3293 20.6855 52.0755 20.6855 51.7623C20.6855 51.4492 20.4317 51.1953 20.1185 51.1953C19.8054 51.1953 19.5515 51.4492 19.5515 51.7623C19.5515 52.0755 19.8054 52.3293 20.1185 52.3293Z" fill="url(#paint3_linear_813_4374)"/>
<path d="M20.1185 52.3293C20.4317 52.3293 20.6855 52.0755 20.6855 51.7623C20.6855 51.4492 20.4317 51.1953 20.1185 51.1953C19.8054 51.1953 19.5515 51.4492 19.5515 51.7623C19.5515 52.0755 19.8054 52.3293 20.1185 52.3293Z" fill="black" fill-opacity="0.2"/>
<path d="M40.4886 32.4215H50.7156C50.9012 32.4215 51.0793 32.3477 51.2105 32.2165C51.3418 32.0852 51.4156 31.9071 51.4156 31.7215C51.4156 31.5358 51.3418 31.3578 51.2105 31.2265C51.0793 31.0952 50.9012 31.0215 50.7156 31.0215H40.4886C40.3029 31.0215 40.1249 31.0952 39.9936 31.2265C39.8623 31.3578 39.7886 31.5358 39.7886 31.7215C39.7886 31.9071 39.8623 32.0852 39.9936 32.2165C40.1249 32.3477 40.3029 32.4215 40.4886 32.4215ZM61.9156 36.1595H40.4886C40.3029 36.1595 40.1249 36.2332 39.9936 36.3645C39.8623 36.4958 39.7886 36.6738 39.7886 36.8595C39.7886 37.0451 39.8623 37.2232 39.9936 37.3545C40.1249 37.4857 40.3029 37.5595 40.4886 37.5595H61.9156C62.1012 37.5595 62.2793 37.4857 62.4105 37.3545C62.5418 37.2232 62.6156 37.0451 62.6156 36.8595C62.6156 36.6738 62.5418 36.4958 62.4105 36.3645C62.2793 36.2332 62.1012 36.1595 61.9156 36.1595ZM61.9156 41.3045H40.4886C40.3029 41.3045 40.1249 41.3782 39.9936 41.5095C39.8623 41.6408 39.7886 41.8188 39.7886 42.0045C39.7886 42.1901 39.8623 42.3682 39.9936 42.4995C40.1249 42.6307 40.3029 42.7045 40.4886 42.7045H61.9156C62.1012 42.7045 62.2793 42.6307 62.4105 42.4995C62.5418 42.3682 62.6156 42.1901 62.6156 42.0045C62.6156 41.8188 62.5418 41.6408 62.4105 41.5095C62.2793 41.3782 62.1012 41.3045 61.9156 41.3045ZM62.6156 47.1495C62.6156 46.9638 62.5418 46.7858 62.4105 46.6545C62.2793 46.5232 62.1012 46.4495 61.9156 46.4495H40.4886C40.3029 46.4495 40.1249 46.5232 39.9936 46.6545C39.8623 46.7858 39.7886 46.9638 39.7886 47.1495C39.7886 47.3351 39.8623 47.5132 39.9936 47.6445C40.1249 47.7757 40.3029 47.8495 40.4886 47.8495H61.9156C62.1012 47.8495 62.2793 47.7757 62.4105 47.6445C62.5418 47.5132 62.6156 47.3351 62.6156 47.1495ZM62.4476 51.5245H49.8966C49.7109 51.5245 49.5329 51.5982 49.4016 51.7295C49.2703 51.8608 49.1966 52.0388 49.1966 52.2245V57.0685C49.1966 57.2541 49.2703 57.4322 49.4016 57.5635C49.5329 57.6947 49.7109 57.7685 49.8966 57.7685H62.4476C62.6332 57.7685 62.8113 57.6947 62.9425 57.5635C63.0738 57.4322 63.1476 57.2541 63.1476 57.0685V52.2245C63.1476 52.0388 63.0738 51.8608 62.9425 51.7295C62.8113 51.5982 62.6332 51.5245 62.4476 51.5245ZM61.7476 56.3685H50.5966V52.9245H61.7476V56.3685Z" fill="url(#paint4_linear_813_4374)"/>
<path d="M40.4886 32.4215H50.7156C50.9012 32.4215 51.0793 32.3477 51.2105 32.2165C51.3418 32.0852 51.4156 31.9071 51.4156 31.7215C51.4156 31.5358 51.3418 31.3578 51.2105 31.2265C51.0793 31.0952 50.9012 31.0215 50.7156 31.0215H40.4886C40.3029 31.0215 40.1249 31.0952 39.9936 31.2265C39.8623 31.3578 39.7886 31.5358 39.7886 31.7215C39.7886 31.9071 39.8623 32.0852 39.9936 32.2165C40.1249 32.3477 40.3029 32.4215 40.4886 32.4215ZM61.9156 36.1595H40.4886C40.3029 36.1595 40.1249 36.2332 39.9936 36.3645C39.8623 36.4958 39.7886 36.6738 39.7886 36.8595C39.7886 37.0451 39.8623 37.2232 39.9936 37.3545C40.1249 37.4857 40.3029 37.5595 40.4886 37.5595H61.9156C62.1012 37.5595 62.2793 37.4857 62.4105 37.3545C62.5418 37.2232 62.6156 37.0451 62.6156 36.8595C62.6156 36.6738 62.5418 36.4958 62.4105 36.3645C62.2793 36.2332 62.1012 36.1595 61.9156 36.1595ZM61.9156 41.3045H40.4886C40.3029 41.3045 40.1249 41.3782 39.9936 41.5095C39.8623 41.6408 39.7886 41.8188 39.7886 42.0045C39.7886 42.1901 39.8623 42.3682 39.9936 42.4995C40.1249 42.6307 40.3029 42.7045 40.4886 42.7045H61.9156C62.1012 42.7045 62.2793 42.6307 62.4105 42.4995C62.5418 42.3682 62.6156 42.1901 62.6156 42.0045C62.6156 41.8188 62.5418 41.6408 62.4105 41.5095C62.2793 41.3782 62.1012 41.3045 61.9156 41.3045ZM62.6156 47.1495C62.6156 46.9638 62.5418 46.7858 62.4105 46.6545C62.2793 46.5232 62.1012 46.4495 61.9156 46.4495H40.4886C40.3029 46.4495 40.1249 46.5232 39.9936 46.6545C39.8623 46.7858 39.7886 46.9638 39.7886 47.1495C39.7886 47.3351 39.8623 47.5132 39.9936 47.6445C40.1249 47.7757 40.3029 47.8495 40.4886 47.8495H61.9156C62.1012 47.8495 62.2793 47.7757 62.4105 47.6445C62.5418 47.5132 62.6156 47.3351 62.6156 47.1495ZM62.4476 51.5245H49.8966C49.7109 51.5245 49.5329 51.5982 49.4016 51.7295C49.2703 51.8608 49.1966 52.0388 49.1966 52.2245V57.0685C49.1966 57.2541 49.2703 57.4322 49.4016 57.5635C49.5329 57.6947 49.7109 57.7685 49.8966 57.7685H62.4476C62.6332 57.7685 62.8113 57.6947 62.9425 57.5635C63.0738 57.4322 63.1476 57.2541 63.1476 57.0685V52.2245C63.1476 52.0388 63.0738 51.8608 62.9425 51.7295C62.8113 51.5982 62.6332 51.5245 62.4476 51.5245ZM61.7476 56.3685H50.5966V52.9245H61.7476V56.3685Z" fill="black" fill-opacity="0.2"/>
<defs>
<linearGradient id="paint0_linear_813_4374" x1="4.33711" y1="10.9486" x2="59.5789" y2="56.966" gradientUnits="userSpaceOnUse">
<stop offset="0.03125" stop-color="#003B40"/>
<stop offset="0.265625" stop-color="#005961"/>
<stop offset="0.509791" stop-color="#00818C"/>
<stop offset="0.760417" stop-color="#005961"/>
<stop offset="0.994792" stop-color="#003B40"/>
</linearGradient>
<linearGradient id="paint1_linear_813_4374" x1="8.13529" y1="12.3404" x2="56.0955" y2="52.1869" gradientUnits="userSpaceOnUse">
<stop offset="0.03125" stop-color="#003B40"/>
<stop offset="0.265625" stop-color="#005961"/>
<stop offset="0.509791" stop-color="#00818C"/>
<stop offset="0.760417" stop-color="#005961"/>
<stop offset="0.994792" stop-color="#003B40"/>
</linearGradient>
<linearGradient id="paint2_linear_813_4374" x1="18.3273" y1="34.4684" x2="26.7543" y2="40.7088" gradientUnits="userSpaceOnUse">
<stop offset="0.03125" stop-color="#003B40"/>
<stop offset="0.265625" stop-color="#005961"/>
<stop offset="0.509791" stop-color="#00818C"/>
<stop offset="0.760417" stop-color="#005961"/>
<stop offset="0.994792" stop-color="#003B40"/>
</linearGradient>
<linearGradient id="paint3_linear_813_4374" x1="19.5881" y1="51.2825" x2="20.6335" y2="52.0566" gradientUnits="userSpaceOnUse">
<stop offset="0.03125" stop-color="#003B40"/>
<stop offset="0.265625" stop-color="#005961"/>
<stop offset="0.509791" stop-color="#00818C"/>
<stop offset="0.760417" stop-color="#005961"/>
<stop offset="0.994792" stop-color="#003B40"/>
</linearGradient>
<linearGradient id="paint4_linear_813_4374" x1="40.5431" y1="33.0789" x2="64.0509" y2="48.2818" gradientUnits="userSpaceOnUse">
<stop offset="0.03125" stop-color="#003B40"/>
<stop offset="0.265625" stop-color="#005961"/>
<stop offset="0.509791" stop-color="#00818C"/>
<stop offset="0.760417" stop-color="#005961"/>
<stop offset="0.994792" stop-color="#003B40"/>
</linearGradient>
</defs>
</svg>
